<?xml version="1.0" encoding="UTF-8"?>
<svg id="Layer_3" data-name="Layer 3" xmlns="http://www.w3.org/2000/svg" viewBox="0 0 52.07 53.57">
  <g id="Layer_1" data-name="Layer 1">
    <g>
      <path d="M37.14,26.76c4.61-2.42,11.78,3.59,13.73,7.41,3.45,6.74-.93,16.1-8.19,17.93-6.1,1.54-9.43.08-13.29-4.63-1.34-1.63-1.92-3.23-3.17-4.79-3.54,6.24-7.37,14.49-15.79,9.18-.68-.43-5.88-4.5-6.08-4.83-.49-.8-.54-1.35-.42-2.27l10.45-16.64c-2.12.07-4.18.13-6.07-.98-1.15-.68-5.62-5.17-6.4-6.34C-3.25,13.03,2.72,2.61,11.55,1.41c7.86-1.07,10.49,3.99,13.98,9.89L33.34,0c5.13-.06,14.48,1.29,15.55,7.55.72,4.25-10.34,14.61-11.74,19.22ZM43.05,4.48c-2.18.28-7.27-2.36-8.88-.92L7.32,45.43l7.91,2.2L43.05,4.48ZM12.48,4.14c-11.32.99-13.59,18.62-1.5,18.11S24.42,3.09,12.48,4.14ZM30.89,45.29c.69.69,4.91,2,5.96,1.93,4.15-.29,8.96-6.19,9.13-10.21.51-11.56-15.22-9.29-16.94-.82-.51,2.5-.03,7.24,1.84,9.1Z"/>
      <path d="M9.95,15.28c-1.29-1.29-.62-4.53,1.51-4.9,5.77-1,2.13,8.54-1.51,4.9Z"/>
      <path d="M37.46,35.47c3.54-.53,2.64,7.01-1.5,4.51-2.2-1.33-.37-4.23,1.5-4.51Z"/>
    </g>
  </g>
</svg>