<?xml version="1.0" encoding="UTF-8"?>
<svg id="Layer_2" data-name="Layer 2" xmlns="http://www.w3.org/2000/svg" viewBox="0 0 48.55 52.76">
  <g id="Layer_1" data-name="Layer 1">
    <path d="M23.29,15.18c3.65-3.31,3.88-9.83,6.23-13.53,1.57-2.47,8.05-1.55,10.68-1.16,2.17.32,4.76.68,6.28,2.31,4.1,4.39,1.18,8.98-.8,13.64-2.94,6.9-6.71,14.81-10.07,21.54-4.54,9.07-8.63,16.14-20.31,14.56-3.45-.47-11.33-5.33-12.93-8.37-1.12-2.13,2.16-6.27,3.59-8,4.36-5.3,5.14-1.07,10.13-1.9,1.65-.27,4.12-1.41,4.1-3.28C11.36,27.91,5.58,18.74,2.03,10.49-.22,5.27-1.98,2.96,4.66,1.19c2.33-.62,9.62-1.51,11.75-.61,1.1.47,4.34,5.51,4.88,6.8.97,2.34,1.45,5.3,2,7.79ZM26.03,26.17c-.22,4.69-5.79,10.34-10.49,10.65-2.17.15-4.98-1.47-6.34-.85-1.23.56-4.08,5.44-4.81,6.87.04,1.51,6.35,4.22,7.81,4.54,11.45,2.51,16.64-9.72,20.65-18s7.54-16.96,10.9-25.56c-.75-1.28-10.37-1.51-12.18-1.32-1.16,3.23-2.13,6.87-3.63,9.94-.49,1-3.27,5.67-3.97,5.99-2.76,1.27-5-4.66-5.75-6.61-1.12-2.94-1.66-6.08-3.16-8.86-4.28-.51-8.62.04-12.73,1.22,2.13,6.36,6.59,16.66,12.02,20.79,3.8,2.89,7.41,1.53,11.69,1.19ZM44.58,12.42l-1.03-1.02c.32.81-.57,1.06-.66,1.3-.45,1.24-.67,2.52-1.16,3.75-.05.13-.55.15-.7.54-.58,1.47-.2,3.27-1.95,4.55l.7.85c1-.67.47-2.82,2.05-2.4l-.68-.68.66-.02c-.85-1.64.38-.62.73-1.24.31-.54.87-1.84,1.2-2.52.22-.47-.53-1.32.85-1.38l-.16-.7-.87-.5,1.03-.52ZM29.22,42.73c.14-.19.76-.23.92-.59l-1.21.14v1.41c.58-.26.16-.79.29-.96ZM22.88,48.91l-2-.05-.19,1-2.17-.26-.39,1.31c1.4.52,1.68-.55,1.78-.59.19-.08.63.27,1.05.15,1.15-.32,1.34-1.09,2.32-.59l-.4-.97Z"/>
  </g>
</svg>