<?xml version="1.0" encoding="UTF-8"?>
<svg id="Layer_3" data-name="Layer 3" xmlns="http://www.w3.org/2000/svg" viewBox="0 0 45.91 56.04">
  <g id="Layer_1" data-name="Layer 1">
    <g>
      <path d="M20.56.03c13.21-.7,23.89,12.58,25.14,24.82,2.65,25.97-20.12,43.22-39.86,20.96C-5.87,32.6.53,1.08,20.56.03ZM20.9,2.44c-23.47,1.5-25.62,46.03-.75,48.3,26.69,2.44,28.67-50.08.75-48.3ZM33.68,49.41c-1.18.42-3.02.83-3.09,2.23l-.52-.52-.18,1.03-.68-.68v1.72s2.06-.35,2.06-.35l-.34-1.03,1.37.34v-1.37s1.38.68,1.38.68v-2.06Z"/>
      <path d="M20.88,13.07c8.2-1.4,11.11,9.52,10.31,15.81-1.26,9.97-10.92,16.6-17.02,5.52-3.24-5.89-.91-20.02,6.71-21.32ZM24.47,16.72c-.32-.2-.34-1.38-1.83-1.15-.84.13-.65.93-.99,1.54h4.47c-.28-1.09-1.24-.13-1.65-.39ZM20.71,17.35c-.21-.14.05-.64-.26-.59l-.36.71-.99-.38-.26.6-.58-.21c-.65.92-.14,1.89.99,2.02.09-.09-.85-1.12.18-1.71.91-.53-.24,1.08.68.69.28-.91.63-.76,1.55-.69.1-.62-.57-.19-.94-.44ZM23.63,19.25c-2.78.44-4.49,3.34-5.16,5.84-.77,2.82-1.45,10.43,1.5,12.09,5.26,2.96,8.54-5.25,8.9-9.25s.19-9.54-5.24-8.68Z"/>
    </g>
  </g>
</svg>