<?xml version="1.0" encoding="UTF-8"?>
<svg id="Layer_3" data-name="Layer 3" xmlns="http://www.w3.org/2000/svg" viewBox="0 0 38 56.23">
  <g id="Layer_1" data-name="Layer 1">
    <path d="M19.93,19.85c3.91,2.86,8.93,5.33,12.2,8.93,7.47,8.23,8.78,18.42-1.79,24.68-6.62,3.92-12.49,3.41-19.23.12C8.78,52.45.15,46.88,0,44.4c-.05-.78,2.85-6.22,3.49-7.13,4.25-6.08,7.15.16,11.83.77,3.6.47,4.97-1.22,2.02-3.74C11.75,29.52,2.19,26.98,1.06,17.94-.84,2.79,14.85-2.59,27.13,1.14c4.1,1.25,9.94,4.71,9.65,9.62-.14,2.41-3.04,9.57-5.68,9.81-2.79.26-7.93-4.74-11.17-.72ZM17.36,2.55c-9.18.74-15.19,5.91-13.9,15.73.44,3.39,3.8,6.43,6.39,8.39s10.98,5.99,11.43,8.84c.85,5.4-5.2,5.51-8.91,4.09-1.46-.56-4.08-2.84-5.26-2.52-.86.23-4.8,6.22-4.66,6.94,7.55,9.74,28.56,9.55,30.43-4.85,1.33-10.2-8.99-12.56-14.86-17.94-8.68-7.95,3.8-11.26,9.59-6.22.97-.17,4.37-6.97,4.35-8.39-.1-1.08-4.37-2.75-5.51-3.1-3.2-.97-5.79-1.25-9.1-.98ZM33.67,11.95l-2.06.69.68,1.37-1.03-.35-.35.87c.88.23.76.69.69,1.54.57.14.14-.57.58-.69.34-.09.77.04,1.13,0,.19-.73-.42-1.58-.37-2.19.02-.17,1.17-.34.71-1.24ZM21.99,15.05c-1.99-.61-2.06,1.18-3.78.84l-.33.38c.1.89.69,1.07-.35,1.35.84,1.16.77-.42,1.27-.52s1.6.17,1.8-.03l.02-1c.38.71,1.76-.73,1.37-1.02ZM28.41,51.23c-.7-.57-1.92-.02-2.46.61s-.07,1.34-1.9,1.52c.59.82.63.38,1.22.19,1.14-.37,2.38-1.15,3.59-1.4.03-.04-.33-.82-.45-.92Z"/>
  </g>
</svg>