<?xml version="1.0" encoding="UTF-8"?>
<svg id="Layer_3" data-name="Layer 3" xmlns="http://www.w3.org/2000/svg" viewBox="0 0 38.48 51.07">
  <g id="Layer_1" data-name="Layer 1">
    <path d="M28.77,33.81v11.14c0,.18-.55,3.14-.65,3.44-.96,3-9.87,3.25-12.4,1.88-1.52-.82-5.14-3.99-5.14-5.78v-10.23c-4.63.5-6.49-.14-9.1-3.87s-1.14-9.86,0-14.1l9.36-1.56c.88-1.25-.41-9.83.4-12.33,1.09-3.36,11.35-2.8,13.92-.67,4.73,3.93,3.62,7.97,3.36,13.47.42.57,4.36.66,5.6,1.23.57.26,3.77,3.29,3.98,3.75.88,1.94.39,13.64-2.72,13.64h-6.6ZM22.4,3.33c-2.78-.71-5.87-.71-8.64,0v13.42c-2.66,2.78-7.05.78-10.36,2.15l-.5,8.47c.71,1.12,9.34-1.31,10.85,1.21v15.46c.71,1.29,7.35.61,7.68.18-.31-.94.5-2.45.5-2.91v-13.19l.68-.68h9.32v-8.64c-3.3-1.18-6.43.42-9.55-.45V3.33Z"/>
  </g>
</svg>