<?xml version="1.0" encoding="UTF-8"?>
<svg id="Layer_2" data-name="Layer 2" xmlns="http://www.w3.org/2000/svg" viewBox="0 0 35.59 57.29">
  <g id="Layer_1" data-name="Layer 1">
    <path d="M24.58,22.52c1.45.29,3.31,2.84,4.22,4.03l-.09,9.72c-.37.41-.87.58-1.4.66-3.09.47-7.26-.1-10.45.53l.55,1.23c4.12-.04,9.34-.92,13.38-.38,1.33.18,4.26,3.37,4.54,4.74.69,3.4-.17,8.64-.41,12.14-1.13,1.61-23.7,2.29-26.84,2.05s-4.68-1.82-6.52-4.13c-1.32-1.66-1.42-2.87-1.56-4.97L.17,3.6c.35-1.06,1.52-1.35,2.45-1.68C8.64-.16,23.05-.44,29.38.55c1.81.28,5.47,4.83,5.7,6.67.23,1.89.09,5.23-.01,7.22-.05.94-.42,5.24-.77,5.59l-17.29,1.09-.15,1.4h7.73ZM28.88,14.28V3.8c-.14-.23-.34-.35-.59-.44-2.31-.83-12.44-.6-15.4-.43-1.53.09-9.7,1.06-10.3,2.07-.17,1.74-.29,3.6-.32,5.33-.18,11.85-.73,26.9.14,38.5.05.63.09,1.26.42,1.82,3.68.76,7.36.85,11.12.76,3.36-.08,7.64-.32,10.98-.7,1.58-.18,3.17-.56,4.75-.75l.5-.45c0-.16-.27-.27-.27-.34v-8.42l-17.83-.04c.76-3.04-.66-5.93.35-8.84l11.29-.39v-6.36c-.3-.49-.68-.47-1.19-.53-2.04-.24-9.06.99-10.18.21l-.52-9.49c5.54-1.1,11.37-.89,17.03-1.01ZM31.63,9.81v5.15c2-.37.32-.98.35-2.04l1.03-.19-.7-.34.69-.34c-.9-.74-.59-1.43,0-2.23h-1.37ZM22.01,18.06l.34-1.37-.69,1.03-.34-.68-.53.71-1.18-.37-.35,1.03h3.6s.35-1.03.35-1.03l.34,1.03.52-1.03.35,1.03h2.56s-.16-1.03-.16-1.03l.72,1,1.88-.64.31.67c.9-.99,1.8-.35,2.93-.35-.28-1.41-4.25-.57-4.42-.73l-.05-.64-.37.65-1.15-.34-.54.72-.18-1.03c-1.63.55-2.99-.22-3.94,1.38ZM19.26,17.37c-1.4.56-2.93-1.08-3.62.7l-1.53-.71v.68s.87.7.87.7c1.18.14,1.09-1.7,2.91-1.04l-1.37,1.02,2.36-.04.39-1.33ZM25.1,34.55c-.7.14-.91-.63-1.56-.69-.73-.07-1.34.48-2.04.52-1.85.1-3.89-.26-5.51-.03-.29.04-.57-.13-.85-.15v1.03c3.8-.39,7.53-.68,11.34-.35l-1.54-1.03.17.69ZM29.22,53.44c-.9-1.66-1.29-.19-1.44-.11-.13.08-2.49-.03-2.33,1.49.9-.47,2.65-.03,3.25-.68.11-.12-.39-.85.52-.7ZM11.32,53.85c-.44-.26-3.44-.08-3.05.62,1.36.99,1.94,1.29,3.78,1.04l-.72-1.66ZM14.35,53.9c-.44-.19-.82-.13-1.28-.11-.14.57.49.18.62.5.05.13-.11.9.07,1.22l5-.41.33-.63.37.69h2.2s0-1.03,0-1.03l-2.06.34.68-.68c-1.3-.08-2.04-.25-2.6,1.05l-1.7-.71c-.35,1.51-1.34-.1-1.63-.23Z"/>
  </g>
</svg>