<?xml version="1.0" encoding="UTF-8"?>
<svg id="Layer_3" data-name="Layer 3" xmlns="http://www.w3.org/2000/svg" viewBox="0 0 45.54 55.33">
  <g id="Layer_1" data-name="Layer 1">
    <path d="M18.72,40.92c-.11,2.34.14,4.72.01,7.06-.07,1.22-.2,3.3-.38,4.43-.5,3.3-8.8,2.93-11.34,2.44-1.21-.23-5.11-3.06-5.57-4.05-1.3-2.78-.48-14.75-.58-18.66-.14-5.65-.63-11.5-.72-17.15-.04-2.76-.4-8.47.16-10.86.14-.61.38-1.13.89-1.52,1.77-1.38,9.21-1.81,11.51-1.55,4.9.56,5.8,7.04,5.84,10.99C20.04,10.27,26.38.55,27.9.1c.54-.16,1.03-.1,1.56,0,.66.13,9.46,4.58,10.05,5.08,1.78,1.51,3.46,5.32,2.36,7.53-1.64,3.3-7.09,8.18-9.56,11.4-.58.76-2.69,3.55-2.62,4.25l15.43,20.68c.62,1.16.6,1.75-.52,2.49-1.97,1.29-8.68,3.66-11,3.8-1.92.11-4.01-1.51-5.43-2.73-3.81-3.27-6.09-8-9.46-11.67ZM16.23,31.73c1.62,3.16,3.51,6.16,5.51,9.09.83,1.22,6.35,8.93,6.96,9.21,1.12.51,9.93-2.54,10.5-3.62.6-1.15-13.77-18.3-14.95-21.13l12.88-18.05c-.22-.38-7.08-4.15-7.75-4.32-.37-.09-.67-.29-1.03.01-2.88,3.98-5.96,7.8-8.87,11.76-.95,1.28-3.83,6.08-4.68,6.66-.41.28-.71.41-1.22.32l-.69-18.21c-.37-.37-9.93.56-10.26,1.08l.79,44.64c.54.77,9.12.08,9.66-.69.78-3.31-.96-14.6,1.27-16.77h1.88ZM37.2,15.44c.03-.08-.19-1.76-.61-1.66-.34,1.16-1.62.61-1.38,2.4l-.68-.68.02,1,1.3.3c-.04-.6,1.33-1.27,1.36-1.36ZM31.78,20.31c-.34-.28-2.08.84-2.33,1.1-.06.07.23.43.15.52-.47.59-.92,1.26-1.6,1.64l1.34.14.03-1.34c1.61,1,2.05-.79,2.4-2.06ZM40.93,50.09c.16-.45.16-.81.12-1.27l-1.03.35.69.51-1.04.17.35,1.03-1.72-.34-.69,1.37c.46-.1,2.51-.64,2.68-.77.11-.09.05-.54.21-.79.09-.15.4-.18.43-.26Z"/>
  </g>
</svg>