<?xml version="1.0" encoding="UTF-8"?>
<svg id="Layer_3" data-name="Layer 3" xmlns="http://www.w3.org/2000/svg" viewBox="0 0 39.34 57.15">
  <g id="Layer_1" data-name="Layer 1">
    <g>
      <path d="M31.42,26.48c12.2,9.55,10.25,25.65-5.49,29.72-5.3,1.37-15.03,1.63-19.57-1.74-1.04-.77-3.94-3.63-4.13-4.81-.46-2.91-.54-7.51-.72-10.62C.95,29.25.42,19.26.14,9.48.03,5.68-.74,4.23,2.91,2.6,14.58-2.61,31.87-.53,35.31,13.83c1.05,4.4.18,10.17-3.88,12.65ZM2.61,5.22l2.18,44.63c5.4,2.28,13.71,2.33,19.34.78,11.71-3.23,16.27-17.82,3.26-23.03-1.01-.41-4.48-.9-4.58-1.98.17-1.69,2.65-2.24,3.78-3.11,4.16-3.19,4.99-7.96,3.64-12.88-1.97-7.21-14.29-7.35-20.25-6.47-2.54.37-4.97,1.24-7.38,2.07ZM33.14,20.29l-1.69.02c-.33,1.19-.85,1.78-.37,3.07.73.72,1.95-2.73,2.06-3.09ZM33.41,50.1c1.42-1.21-2.09-2.62-1.3.08l-1.03-.34.34.67-1.37.36.34.67c-1.11-.52-1.64.12-2.69.4l-.06,1.32h1.03s-.68-.51-.68-.51l.51-.51c.61,1.02,1.62.5,2.26-.25.54-.63.42-1.02,1.27-1.45.42-.21,1.01-.13,1.38-.44ZM27.3,52.59l-2.23.08-1.54,1.29c1.47.79,2.26-.33,3.61-.42l.16-.95ZM16.23,54.05c-.23-.13-4.57-.05-4.39.42l5.26.88.58-1.4-1.21.69c-.18.05-.14-.54-.24-.59Z"/>
      <path d="M12.92,43.26c-.67-.4-.34-6.47-.38-7.7-.03-.95-.89-3.53-.04-4.13,4.54-.44,13.01.3,12.74,6.53s-7.93,6.18-12.33,5.3ZM22.14,35.07l-4.12-1.03.26.51-.6.18.86.68,3.6-.33ZM22.83,37.12h-4.98l-.46.57c-.11.78-.22,3.48.8,3.58,2.42.25,4.95-1.55,4.65-4.15Z"/>
      <path d="M11.24,9.72c2.66-.91,8.83-.52,9.79,2.58,1.09,3.51-.57,7.21-4.04,8.5-1.17.43-4.57,1.38-5.31.17-1.26-2.05.04-7.91-.75-10.43l.31-.81ZM16.31,18.57c2.03-1.07,4.61-3.71.68-3.98-.34-.02-.59-.25-.86.2l.18,3.79Z"/>
    </g>
  </g>
</svg>