<?xml version="1.0" encoding="UTF-8"?>
<svg id="Layer_3" data-name="Layer 3" xmlns="http://www.w3.org/2000/svg" viewBox="0 0 41.08 56.24">
  <g id="Layer_1" data-name="Layer 1">
    <path d="M19.08,37.66c1.42,1.34,6.33-.13,7.93-1,4.42-2.42,3.78-5.08,8.99-.62,3.43,2.94,5.77,6.68,4.91,11.42-.49,2.72-6.69,7.03-9.3,7.88-4.6,1.49-11.87,1.16-16.16-1.15-2.72-1.47-9.96-8.86-11.71-11.66C-7.23,24.91,7.23-7.59,30.56,1.61c4.1,1.61,8.85,6,8.34,10.85-.14,1.37-3.39,8.48-4.45,8.96-2.16.98-4.49-1.31-6.5-1.73-7.26-1.51-10.78,6.67-10.29,12.69.08,1.02.77,4.67,1.42,5.28ZM10.52,7.63C2.24,15.76-.35,31.5,5.79,41.5c5.94,9.68,20.07,13.49,28.83,5.18.33-.32,2.39-2.68,2.53-2.96,1.55-2.94-3.2-5.91-5.27-7.34-.8-.02-3.45,2.2-4.52,2.7-13.8,6.5-18.1-9.87-12.68-19.89,3.38-6.25,9.61-6.72,15.65-3.93,1.46-2.89,1.98-6.13,2.68-9.26C26.37.87,16.43,1.82,10.52,7.63ZM35.83,9.57l-1.02.24c-.28.59,0,1.63-.09,2-.01.05-.25.45-.39.77-.1.22-1.07.21-.22,1.8l1-.57-.32-1.15c.85.26,1.46.23,2.06-.52l-1.71.17,1.72-.69c-.28-.8-.44-1.21-1.38-1.03l.35-1.03ZM26.55,16.1c-.78.26-2.64-.13-3.2,0-.27.06-.21.62-.46.68-.29.08-1.72-.48-1.84-.34v1.38s-1.51-.03-1.51-.03l-.21,1.06,2.23-.34-.17-.68,1.38.34.17-1.02,1.28.27,2.33-1.31Z"/>
  </g>
</svg>