<?xml version="1.0" encoding="UTF-8"?>
<svg id="Layer_3" data-name="Layer 3" xmlns="http://www.w3.org/2000/svg" viewBox="0 0 34.3 54.38">
  <g id="Layer_1" data-name="Layer 1">
    <path d="M19.14,35.36c2.45.18,9.68-1.22,11.37.14.47.38,2.87,3.5,3.13,4.09,1.03,2.37,1.05,11.43-1.25,12.96-1.17.78-7.22,1.26-8.95,1.36-4.12.22-11.21.7-15.11.34-3.02-.28-5.13-2.02-7.21-4.12l-.16-21.14C1.06,20.89-.58,11.2.22,3.22c.1-.96.1-1.53,1.14-1.95S6.26.44,7.63.32c1.52-.14,4.35-.45,5.75-.25,3.07.43,5.53,5.09,5.77,7.97.32,3.74-.02,8.34-.32,12.07l.31,15.25ZM13.21,2.8c-1.15-.98-8.96.56-10.89.62l.67,45.34c2.8-.07,5.63.08,8.43.01,3.87-.1,8.87-.27,12.69-.71,1.59-.18,4.15-.15,4.57-1.96.23-1.01.17-8.24-.31-8.65l-13.73.16c-1.52-9.5-.17-19.56-.65-29.24-.04-.9-.45-5.28-.79-5.57ZM17.08,8.22c-1.09-1.03-.82,3.27-.76,3.65.07.55.09,1.13.59,1.5l.17-5.15ZM31.56,41.81l-.06-.6c-.48-.42-.68,2.9-.63,3.26.14.89.56,1.2.98,1.89l-1.03.69c2.69.11.43-1.97.7-2.86.08-.26.58-.2.65-.45.09-.3-.22-1.66.02-2.18l-.63.26ZM31.51,50.14c-1.58-.1-3.1-1.5-3.78.68l2.06.34-1.03-.69.84-.32c.58,1.27,1.68,1.58,1.91-.02ZM21.55,51.51l-2.95-1.01-.35.7-1.51-.37c.1.71.78.51,1.17.68.08.04-.22,1.84.72,0,.27,1.2,2.7.38,3.86.43.51.02.96.19,1.46.26v-1.71c-.95-.19-.59.81-1.57,1.01-.77.16-.18-.89-1-.67l.17.69Z"/>
  </g>
</svg>