<?xml version="1.0" encoding="UTF-8"?>
<svg id="Layer_2" data-name="Layer 2" xmlns="http://www.w3.org/2000/svg" viewBox="0 0 49.38 53.54">
  <g id="Layer_1" data-name="Layer 1">
    <g>
      <path d="M26.88,11.44c.65.11.63-.8.77-1.27.49-1.74,1.54-9.65,2.7-10.04,4.73-.21,10.68-.86,12.66,4.51.72,1.96-.71,4.59-.21,6.8,6.66.46,8.1,7.29,5.09,12.6-2.45,4.34-7.11,1.2-7.76,3.16-1.12,3.37,1.27,3.08,3.13,4.47,1.05.79,2.85,2.94,3.09,4.22.2,1.08-.91,6.47-1.39,7.5-1.19,2.52-4.89,1.37-7.07,2.25-.93,6.77-2.94,8.59-9.9,7.66-1.27-.17-4.83-3.53-5.32-4.69-.67-1.61-.22-2.42.1-3.98-1.6.95-1.18,3.32-1.67,4.92-1.41,4.64-7.72,4.8-11.06,2.13-2.38-1.89-4.04-3.92-2.72-7.05-2.15.27-6.88-2.29-7.27-4.34-.26-1.36.62-7.46,1.35-8.64,1.93-3.12,6.71-.56,7.97-2.03,1.82-4.12-.26-2.01-2.67-3.24-4.22-2.16-4-6.93-3.42-11.04.83-5.93,3.71-4.08,8.55-4.42,1.29-3.93-.34-7.92,4.15-9.72,8.27-3.32,12.46,2.3,10.91,10.22ZM36.43,14.18l1.39-11.16-6.18.22c-.72,1.92-.94,9.94-2.48,10.71s-2.72-.2-3.92-.19-3.25.95-4.3.21c-1.37-.96,1.16-8.78.49-10.72l-5.47.67-1.86,9.74-7.38.49c-1.17.27-.66,5.7-.75,6.84,1.6.83,6.77-.64,7.23.76l-1.17,10.07c-.71,1.64-6.56.73-8.28,1.07l-.97,5.85h6.6c2.38,0-.67,7.47.28,8.59l5.36.45c.74-1.69.56-8.06,1.86-8.82s6.43.58,8.22.43c1.26.87-.24,6.51-.48,7.99l6.32.41,1.63-7.7c1.1-1.46,5.12,1.12,6.11-2.07.18-.59.67-4.57.49-4.74h-5.92c-.44-.44,1.37-11.56,1.89-12.44,1-1.67,5.42-.15,7.22-.96,1.17-1.68.89-3.78.89-5.7h-6.82Z"/>
      <path d="M28.69,20.54l-1.46,11.05c-.1.35-.87,1.23-1.04,1.23h-8.19c-.2,0-.76-.71-.66-1.09l2.48-11.19h8.87Z"/>
    </g>
  </g>
</svg>