<?xml version="1.0" encoding="UTF-8"?>
<svg id="Layer_2" data-name="Layer 2" xmlns="http://www.w3.org/2000/svg" viewBox="0 0 30.17 44.02">
  <g id="Layer_1" data-name="Layer 1">
    <path d="M15.34,14.8l5.51,1.87c19,11.18,6.25,32.83-14.03,26.05-1.84-.61-5.47-2.57-6.33-4.32-.95-1.92.21-8.15,2.04-9.11,2.86-1.5,10.12,2.57,12.12-2.13-4.29-.29-7.49.8-11.44-1.45-4.73-2.69-2.9-3.55-2.65-8.01.18-3.14.33-14.62,1.9-16.66C3.03.31,6.11.04,7.25.01c3.19-.08,6.79.29,9.97.37,3.94.11,6.9-1.15,9.41,2.62,2.13,3.2,1.67,7.74.78,11.32-.92,1.2-10.1.12-12.06.48ZM22.89,2.43H4l-1.72,19.58h4.98c1.05,0,3.68.68,4.82,1.03,2.96.91,5.23,2.32,4.14,5.86-1.45,4.7-10.84,1.51-12.56,2.55-.83.5-1.82,5.19-1.32,5.97,10.49,4.11,24.88,1.77,22.94-12.46-.7-5.11-7.2-7.24-11.51-8.07-.94-.18-2.53.35-3.07-.72l.5-5.69c1.59-.32,11.31.03,11.9-.82l-.19-7.24Z"/>
  </g>
</svg>