<?xml version="1.0" encoding="UTF-8"?>
<svg id="Layer_2" data-name="Layer 2" xmlns="http://www.w3.org/2000/svg" viewBox="0 0 32.82 43.73">
  <g id="Layer_1" data-name="Layer 1">
    <g>
      <path d="M11.82,29.96c.57-.57-.17-.58-.48-.72C2.56,25.33-3.07,18.37,1.8,8.43,9.76-7.85,31.24,1.79,32.74,17.47c.95,9.97-6.32,24.6-17.05,26.16-5.45.79-11.98-3.04-11.79-9.01.18-5.43,6.43-3.16,7.92-4.65ZM12.77,2.22C5,3.28.26,13.36,3.51,20.24c2.61,5.52,8.1,6.44,13.67,5.28l.8.54c.61,2.2-4.73,5.55-6.51,6.13-2.31.76-5.5-.12-5.3,2.98.33,5.03,4.04,4.34,7.71,3.21,10.01-3.06,15.76-15.42,14-25.34-1.23-6.92-8.2-11.76-15.11-10.82Z"/>
      <path d="M12.76,9.77c9.29-1.89,9.42,10.69,1.29,10.25-5.85-.31-5.94-9.31-1.29-10.25ZM16.21,14.58c-1.91.06-2.59,1.14-1.67,2.87,1.5,1.09,5.44-2.99,1.67-2.87Z"/>
    </g>
  </g>
</svg>