<?xml version="1.0" encoding="UTF-8"?>
<svg id="Layer_3" data-name="Layer 3" xmlns="http://www.w3.org/2000/svg" viewBox="0 0 43.21 58.36">
  <g id="Layer_1" data-name="Layer 1">
    <path d="M23.84,39.93c.51-.51-1.66-1.48-2.06-1.89-2.57-2.69-.47-6.24-1.03-9.61.67-2.16,2.98-1.35,4.63-1.56,3.99-.49,8.76-1.32,12.71-1.4,6.49-.12,5.19,10.64,4.6,14.92-2.15,15.51-18.71,23.88-31.22,13.11C2.64,45.91-.69,38.59.12,26.69,1.23,10.31,14.01-4.8,31.58,1.43c4.69,1.66,11.65,8.89,10.3,14.11-.33,1.27-4.05,6.78-5.23,7.14-1.32.4-5.69-.84-7.49-.96-6.92-.44-11.72,2.07-12.5,9.49-.62,5.94-.2,10.63,7.17,8.72ZM37.93,27.9l-14.26,1.38-.86.51v5.15c1.35,1.66,6.56-1.51,6.05,1.9-.33,2.2-2.1,3.98-3.98,4.98-2.34,1.25-3.3,1.45-5.92.75-12.29-3.26-9.07-29.92,6.74-27.7,2.65.37,4.44,2.26,6.5,3.12.37.16.35.49.74-.06.44-.64,1.85-5.06,2.14-6.11,1.27-4.61,1.06-5.36-3.45-7.35C5.33-7.1-7.83,38.2,11.84,50.04c10.67,6.42,26.09.18,26.09-13.03v-9.11ZM39.3,13.82l-2.75.35.68.34-.69,1.37h1.35s.19-1.03.19-1.03l1.2,1.03v-2.06ZM26.16,17.72c-1.51-.31-3.33-.84-3.35,1.25l.61-.25c.2,1.2,1.31.34,2.02.38,1.06.06,2.12.39,3.2.22.31-2.03-1.37-.83-2.24-1.11-.16-.05-.15-.47-.25-.48ZM22.12,18.63l-1.86-.35c-.4.88-.95,1.02-1.92,1.04.51.69.69.86.34,1.71l-.34-1.03c-1.65-.29-.87.6-1.11,1.21-.11.28-1.13.24-.26,1.88l2.04-.72-.33-.99,2.75-.69-.69-1.02c.63,0,1.52-.14,1.37-1.03ZM35.87,50.59l-1.72-.35-.03,1h-.84s-.19,1.06-.19,1.06l-1.01-.19-.34.88.69-.17-.35,1.2c.78-.75,1.68-1.2,1.37-2.41.74.15,1.21.6,1.71-.17l-.68-.51,1.37-.34ZM26.31,55.85c.18-.09,1.45.18,2.32-.31,1.07-.61.95-1.89-.32-1.86.54,1.83-1.22.89-1.83,1-.27.05-.54,1.19-1.27,1.06l.87.68c.13,0,.16-.54.23-.58Z"/>
  </g>
</svg>