<?xml version="1.0" encoding="UTF-8"?>
<svg id="Layer_2" data-name="Layer 2" xmlns="http://www.w3.org/2000/svg" viewBox="0 0 33.03 44.97">
  <g id="Layer_1" data-name="Layer 1">
    <g>
      <path d="M15.03.05c3.46-.3,7.46.85,10.21,2.99,1.13.88,4.58,5.01,5.41,6.27,2.8,4.27,1.48,9.86-2.14,13.14,9.49,9.46,2.96,21.97-9.81,22.5S-7.96,31.14,5.49,21.07c-2.4-3.11-3.91-5.38-3.35-9.52C3.04,4.95,8.6.61,15.03.05ZM8.13,19.98c.31.35.5.79.3,1.26-.3.67-4.12,3.31-5.07,4.92-3.68,6.24,1.6,12.85,7.96,13.83,6.16.95,14.33-.56,16.53-7.22,1.85-5.6-.84-8.82-4.74-12.38,1.43-2.46,3.92-3.43,4.35-6.56C28.74,4.46,17.78-.16,10.28,3.54c-4.39,2.17-7.83,8.87-5.21,13.49.81,1.43,2.23,2,3.06,2.95ZM29.88,16.1c-1.39-.14-.68,1.08-.79,1.3-.05.09-1.03.26-.58,1.45l-.68-.68c.24,1.23-1.23,1.51-1.72,2.4l2.4-.34-.35-1.03,1.38-.52-.68-.85c1.28-.08.76-.85,1.03-1.72Z"/>
      <path d="M13.99,24.77c9.02-1.53,9.42,9.61.26,9.22-6.94-.3-6.02-8.24-.26-9.22ZM17.09,28.53c-3.19.43-3.79,3.89-.86,3.3,2.37-.48,3.46-3.65.86-3.3Z"/>
      <path d="M15.01,8.62c6.24-1.13,7.72,7.23,1.91,8.43-7,1.45-7.29-7.45-1.91-8.43ZM18.2,13c-3.04-.78-3.57,3.86-.85,1.72.59-.46.98-.91.85-1.72Z"/>
    </g>
  </g>
</svg>