<?xml version="1.0" encoding="UTF-8"?>
<svg id="Layer_2" data-name="Layer 2" xmlns="http://www.w3.org/2000/svg" viewBox="0 0 22.36 61.06">
  <g id="Layer_1" data-name="Layer 1">
    <path d="M12.35,42.41l5.47,4.76c7.36,8.99-3.8,19.39-13.21,10.48-4.13-3.91-4.41-8.67-.92-13.21l3.66-2.71c-4.61-2.93-6.42-5.34-6.84-10.9-.54-7.16-.8-18.45,0-25.5C1.05.65,12.04-.35,15.77.1c3.48.42,6.68,6.05,6.59,9.32-.15,5.71-2.39,24.5-4.22,29.46-1.02,2.77-3.33,2.73-5.79,3.54ZM15.54,3.29c-2.22-.14-11.55.43-12.2,2.59-.04,3.62-.57,28.16,1.1,29.3,2.38.83,4.89,1.07,7.41.81L15.54,3.29ZM8.14,45.23c-5.23.99-5.8,11.36,1.67,10.35,6.24-.84,6.11-11.82-1.67-10.35Z"/>
  </g>
</svg>