<?xml version="1.0" encoding="UTF-8"?>
<svg id="Layer_3" data-name="Layer 3" xmlns="http://www.w3.org/2000/svg" viewBox="0 0 34.27 43.43">
  <g id="Layer_1" data-name="Layer 1">
    <g>
      <path d="M29.68,34.04c-.25,1.88.66,7.42-.83,8.62-.98.78-6.94.91-8.26.66-.64-.12-4.44-3.16-4.73-3.86-.55-1.37.12-4.77-.58-5.26-3.29-.48-6.43.59-9.74-.22-.83-.2-4.83-3.43-5.14-4.14-1.93-4.47,3.76-13.85,6.13-17.75,2.37-3.9,5.23-7.49,7.58-11.4,1.8-1.12,11.48-.77,13.35.36.72.43,2.38,2.72,2.65,3.54.75,2.3-.02,4.48-.08,6.61-.07,2.73.24,5.52-.27,8.21,4.14,3.01,4.83,5.67,4.4,10.7-.26,3.09-1.27,4.09-4.48,3.94ZM17.66,29.23v8.76c2.12,1.2,5.2.25,7.56.17v-8.76c.71-1.12,3.39,0,3.97-.84l.1-5.99-.45-.48c-1.25.4-3.3.71-3.61-.96l.29-18.32c-.38-.61-9.21-1.09-10.27.11-3.51,5.52-8.01,11.09-10.83,17.01-.68,1.43-3.2,7.87-1.8,8.88.89.64,8.72.47,10.42.43,1.54-.04,2.97-.81,4.62-.01Z"/>
      <path d="M10.82,21.98c-.09-.25-.23-.56-.22-.83.02-.91,4.21-7.86,5.06-8.87.52-.62,1.78-2.14,2.71-1.46.52.38.55,9.09-.05,9.96-.87,1.26-5.88.97-7.5,1.19Z"/>
    </g>
  </g>
</svg>