<?xml version="1.0" encoding="UTF-8"?>
<svg id="Layer_3" data-name="Layer 3" xmlns="http://www.w3.org/2000/svg" viewBox="0 0 64.06 57.85">
  <g id="Layer_1" data-name="Layer 1">
    <g>
      <path d="M15.19.05c3.11-.6,9.36,4.52,10.87,7.13,2.73,4.72-.02,5.13-2.12,8.47-4.42,7.01-7.27,13.78-6.36,22.3.89,8.29,13.75,8.15,6.57,17.48-3.81,4.95-8.68,1.26-12.24-1.81C-.43,43.02-3.65,23.94,4.47,9.83,6.25,6.75,11.65.73,15.19.05ZM15.64,3.23c-1.18.25-4.86,3.23-5.8,4.23C.01,17.82,1.11,41.39,12.56,50.24c4.55,3.52,4.69.19,7.74-2.74-10.88-7.66-10.83-24.5-3.82-34.75,1.54-2.26,3.67-3.86,5.16-6.12-1.34-1.46-3.96-3.83-6-3.4Z"/>
      <path d="M43.83.52c6.76-1.43,15.83,9.74,18.08,15.37,3.61,9.02,2.35,21.1-1.5,29.86-2.04,4.63-7.85,14.19-14.06,11.63-1.01-.42-7.68-6.58-8.31-7.6-2.15-3.45,3.19-7.75,4.89-11.06,3.83-7.5,4.22-18.15-1.05-25.08-1.39-1.83-4.68-3.78-4.67-6.18,0-2.6,4.2-6.43,6.63-6.94ZM44.75,3.22c-1.08.2-4.86,3.15-4.77,4.26,9.79,7.01,10.68,22.05,5.75,32.23-1.4,2.88-3.58,5.21-5.42,7.79,3.71,4.77,4.83,6.64,9.35,1.6,9.11-10.17,12.24-36.75-1-44.5-1.11-.65-2.63-1.61-3.9-1.38ZM52.6,52.28c-.52.34-3.09.56-3.21.67-.42.37-.25,1.21-.54,1.52-.36.38-1.62-.47-1.25.99l2.21-.53.08-1.27c1.02.4,2.8.06,2.7-1.38Z"/>
    </g>
  </g>
</svg>