<?xml version="1.0" encoding="UTF-8"?>
<svg id="Layer_2" data-name="Layer 2" xmlns="http://www.w3.org/2000/svg" viewBox="0 0 46.85 54.77">
  <g id="Layer_1" data-name="Layer 1">
    <g>
      <path d="M16.13,54.25c-1.58,1.29-8.11-.13-10.06-.93-.88-.36-5.88-3.91-6.01-4.38-.18-.64.04-1.82.16-2.53C4.61,32.1,7.4,17.26,12.25,3.13c.92-.8,9.68-2.48,11.4-2.69s5.89-.67,7.44-.31c1.21.27,3.91,3.65,4.5,4.77s1.03,2.87,1.41,4.09c3.47,11.26,6.49,25.78,8.94,37.45.73,3.5,2.27,5.59-1.82,6.77-3.44.99-8.31,1.68-11.52.04-4.61-2.36-3.76-4.7-5.38-9.05-.69-.46-7.52-.14-8.1.52-.87,1.71-1.78,8.54-3,9.54ZM30.27,2.51c-5.58.14-11.03,1.29-16.37,2.78L2.48,47.47c1.45.06,2.87.51,4.3.69.72.09,5.11.42,5.45.3,1-.35,1.56-7.78,2.61-9.08,2.78-.09,10.89-1.71,13.07-.67,1.37.65,2.47,8.38,3.14,10.09l10.25-1.35L30.27,2.51Z"/>
      <path d="M26.5,30.61c-2.83-.12-5.94.77-8.75.39-.71-.1-1.2-.21-1.48-.95,1.07-4.46,1.46-10.03,3.14-14.26.93-2.34,2.91-4.37,4.28-1.04,1.07,2.61,1.93,7.44,2.39,10.32.29,1.82.79,3.71.43,5.53ZM24.08,28.19v-1.45s-.98-4-.98-4l-1.38,5.84,2.36-.39Z"/>
    </g>
  </g>
</svg>