<?xml version="1.0" encoding="UTF-8"?>
<svg id="Layer_3" data-name="Layer 3" xmlns="http://www.w3.org/2000/svg" viewBox="0 0 31.36 43.42">
  <g id="Layer_1" data-name="Layer 1">
    <path d="M13.07,15.13h-7.39c-.39,0-4.51-2.8-4.88-3.2-.3-.32-.73-1.37-.78-1.82C-.15,8.69.58,3.38,1.14,2c.13-.33.17-.67.43-.95,1.42-1.51,9.61-.11,12-1.05,3.54.59,8.68-.23,11.97.44,1.58.32,5.34,4.72,5.67,6.35,1.21,5.91-5.03,16.03-7.3,21.75-1.39,3.52-2.63,9.3-4.24,12.26-1.61,2.96-8.71,3.08-11.41,1.99-2.91-1.17-5.53-3.67-4.31-7.05L13.07,15.13ZM5.86,38.5h7.39c.32,0,1.5-.64,1.63-1.12,1.65-4.53,3.07-9.19,4.9-13.65,1.39-3.37,5.09-9.42,5.85-12.36.59-2.29-.05-5.62.11-8.04-.2-.61-3.06-.87-3.89-.92-4.57-.31-11.99-.37-16.52,0-.68.05-1.33.18-1.98.35-1.06,2.25-.96,4.8-.93,7.22h13.92c.07,0,.83.35.89.57.27,1.32-7.3,16.64-8.43,19.37-.5,1.21-3.53,7.98-2.93,8.58ZM24.7,21.59c.1-.06,1.12-1.93,1.07-2.13l-1.35-.89c-.04,1.23-1.23,1.91-.69,3.09.31-.03.68.1.97-.07Z"/>
  </g>
</svg>