<?xml version="1.0" encoding="UTF-8"?>
<svg id="Layer_3" data-name="Layer 3" xmlns="http://www.w3.org/2000/svg" viewBox="0 0 32.34 43.85">
  <g id="Layer_1" data-name="Layer 1">
    <g>
      <path d="M20.31,14.54l3.56,1.41c14.46,8.31,9.63,29.89-8.51,27.75-3.84-.45-9.9-4.67-12.18-7.75C-4.88,25.02,3.51,5.02,15.65.78c4.68-1.64,7.4-.72,10.33,3.1,3.68,4.79.36,10.86-5.67,10.66ZM21.98,8.99C25.32.28,18.45,1.24,13.05,4.69,4.41,10.21-1.13,24.38,4.36,33.75c4.56,7.78,18.23,7.07,22.2-1.11s-.43-15.62-9.36-16.21c-2.73-.18-7.19,1.18-3.9-3.23,1.96-2.63,5.41-4.33,8.69-4.2Z"/>
      <path d="M14.03,22.52c7.52-1.26,9.07,9.5,1.24,9.75-6.88.22-7.73-8.66-1.24-9.75ZM17.21,24.84l-3.76-.34-1.04,1.71.61.17.24.52.51-1.55,3.44-.5ZM18.25,26.9l-3.05.05-.39,3.05c2.43.34,3.8-.56,3.44-3.09Z"/>
    </g>
  </g>
</svg>