<?xml version="1.0" encoding="UTF-8"?>
<svg id="Layer_2" data-name="Layer 2" xmlns="http://www.w3.org/2000/svg" viewBox="0 0 19.31 43.75">
  <g id="Layer_1" data-name="Layer 1">
    <path d="M16.47,1.14c.82.69,2.79,4.15,2.83,5.24.03.64-.34,1.31-.34,2.02-.02,9.51.28,19.08-.32,28.54-.19,3.04,1.09,5.93-3.01,6.61-1.34.22-5.11.27-6.43.06-1.42-.23-4.91-3.12-5.2-4.77l-.13-19.72C.51,18.22-.34,11.59.11,8.78.33,7.39,4.63,1.34,5.84.77,7.94-.23,14.64-.4,16.47,1.14ZM5.93,16.66v21.82c.34-.11.75.34.86.34h6.53l.88-35.87c-.25-.91-6.13-.57-7.22-.02-.41.2-4.34,5.18-4.57,5.76-.56,1.44.7,4.06.43,5.73l2.43.15c.13.1.62,1.79.66,2.09Z"/>
  </g>
</svg>