<?xml version="1.0" encoding="UTF-8"?>
<svg id="Layer_2" data-name="Layer 2" xmlns="http://www.w3.org/2000/svg" viewBox="0 0 33.3 55.95">
  <g id="Layer_1" data-name="Layer 1">
    <path d="M23.94,22.91c1.55.27,4.3,4.58,4.56,6.1s-.28,9.57-.97,10.55c-1.07,1.52-9.74.82-10.24,1.62l-.39,12.16c-.03.63-.21,1.27-.71,1.7-1.04.89-10.28,1.26-11.52.55-.83-.48-4.08-4.05-4.26-5.02C-.28,35.08.07,19.5.22,3.99c.45-1.03,1.16-1.55,2.17-1.96C6.86.26,22.16-.42,27,.26c2.16.31,5,3.92,5.84,5.85.75,1.72.4,6.64.2,8.72-.11,1.12-.56,5.07-1,5.79-.63,1.03-8.23.47-9.84.56-1.5.08-3.03.63-4.63.36v1.37c1.94.23,4.52-.32,6.36,0ZM26.81,3.03c-7.97.01-16.26-.56-23.95,1.72-.78,14.69-.36,29.57-.24,44.29.12.29.26.69.53.85,1.46.86,6.66-.43,8.56-.21,1-4.9-.32-10.06,1.04-14.93l10.18-.83.15-8.6c-1.66-.45-9.78,1.07-10.5.02l.18-9.76c.25-1.05,12.35-.88,14.05-.96.61-.38.61-11.21,0-11.59ZM30.64,13.63l.34-4.12-.34,1.03-1.03-.34.71,2.21-.71.37,1.03.86ZM25.14,17.07c-.65.6-1.99-.07-2.4.16-.98.54.37.5.35.69-.15,1.45-1.88.48-2.24-.51l-.68,1.02-1.53-1.01-.7,1.35c.25.19,5.74.41,6.3.31.42-.07,1.26-1.49.91-2.03ZM21.3,36.75c-.81-.22-2.43.66-3.37.25l.34,1.37c-.3.29-2.57-.87-2.06.17.34.53.57.47,1.11.45,1.03-.03,1.5-1.27,1.99-.96.09.06-.85.86.16.68l.52-1.37,2.06,1.03c.36-.37-.66-1.59-.75-1.62ZM5.61,53.08c.09-1.34-1.03,0-.73.4,1.5,1.01,2.82-.09,4.46.35l-.51-1.26-3.22.5Z"/>
  </g>
</svg>