<?xml version="1.0" encoding="UTF-8"?>
<svg id="Layer_2" data-name="Layer 2" xmlns="http://www.w3.org/2000/svg" viewBox="0 0 19.32 54.11">
  <g id="Layer_1" data-name="Layer 1">
    <path d="M6.26.12c2.06-.18,7.1-.25,8.92.5.91.38,2.71,3.14,3.12,4.09,1.61,3.73.73,19.24.73,24.35,0,1.71,0,3.41,0,5.13-.02,4.68.67,12.22,0,16.49-.61,3.88-10.02,4-12.59,2.67-1.09-.57-5.05-4.6-5.24-5.76-.69-4.36.12-11.39,0-16.14-.09-3.17-.25-6.41-.34-9.62C.69,16.43-.38,9.59.15,4.32.53.49,2.95.42,6.26.12ZM5.12,48.12c2.49.41,5.97-.3,8.59,0l.53-1.19-.36-42.63-.39-1.5c-.68-.41-9.99-.08-10.52.38-.26.32-.34.74-.39,1.14-.68,5.3.51,13.32.67,18.86.09,3.1.26,6.22.34,9.28.14,4.81-.13,9.64-.02,14.45l.35.68c.39.08.89.47,1.2.52ZM16.63,13.42c1.13-1.69-.08-3.3.35-5.15l-1.01,1.92c1.37.31.24.75.15,1.35-.08.52.35,1.22-.17,1.89h.68ZM17.23,23.67c.31-.49-.02-1.7.08-2.34-.41.11-.82.55-.95.94-.11.34-.09,3.86.44,3.86.6-.53.85-.76-.17-.68l.43-.35.27-.85-.7-.34c-.05-.32.5-.07.6-.23Z"/>
  </g>
</svg>