<?xml version="1.0" encoding="UTF-8"?>
<svg id="Layer_2" data-name="Layer 2" xmlns="http://www.w3.org/2000/svg" viewBox="0 0 61.08 51.66">
  <g id="Layer_1" data-name="Layer 1">
    <path d="M20.63,18.27l2.91-7.91c4.73-2.44,10.82-2.3,13.52,2.99l2.12,8.01c.72-4.7,1.47-9.46,2.58-14.09.51-2.12,1.01-6.81,3.46-7.19,2.22-.34,9.64.46,11.84,1.17,1.8.59,4.05,3.94,4.02,5.75-.07,3.94-2.25,11.86-3.24,16.01-1.79,7.53-3.85,16.46-6.12,23.78-.84,2.73-.63,4.13-3.79,4.46-2.69.27-7.98.53-10.31-.67-5.01-2.57-5.64-7.03-7.04-12.04-.9-.1-.54.01-.69.51-.9,3.01-1.86,7.64-3.06,10.34-1.01,2.26-6.88,2.43-9.09,2.17-2.97-.35-6.67-2.73-7.93-5.47C4.32,34.23,3.48,17.99.04,5.34-.18,2.35.43,2.47,2.84,1.69S10.17.04,12.55.03c2.54,0,5.44,3.3,6.18,5.53,1.29,3.9,1.61,8.61,1.9,12.7ZM12.98,2.88c-.59-.65-6.65.42-7.88.73-.87.21-2.57.32-2.69,1.43,2.72,13.57,5,27.26,9.45,40.39,3.39,1.33,6.96.26,10.44.29.71-.46,3.62-13.92,4.84-16.29.92-1.79,1.77-1.5,2.59.19,1.11,2.28,4.75,15.73,5.65,16.34h10.68S56.02,3.5,56.02,3.5c-3.48-.74-7.05-1.23-10.62-1-.73,2.69-1.39,5.42-1.99,8.15-1.28,5.8-1.79,12.49-3.28,18.03-.16.59-.48,1.07-.95,1.46h-1.05s-6.34-18.4-6.34-18.4c-.66-.89-5.5-.03-6.75.21l-4.94,16.98-1.34,1.36c-.82-.44-.87-1.24-1.08-2.03-2.15-8.27-2.44-17.11-4.71-25.37ZM21.65,48.85c-.97-.82-2.93-.95-3.09.68h3.78s-.35-1.37-.35-1.37l-.34.69Z"/>
  </g>
</svg>