<?xml version="1.0" encoding="UTF-8"?>
<svg id="Layer_2" data-name="Layer 2" xmlns="http://www.w3.org/2000/svg" viewBox="0 0 29.03 44.23">
  <g id="Layer_1" data-name="Layer 1">
    <path d="M13.7,28.5c-2.74.54-5.43-.91-7.05-3.09-1.05-1.42-1.07-2.88-.82-4.61.51-3.54,4.71-3.23,5.81-6.39-3.66.93-5.29,2.97-8.24-.52C1.15,11.22-1.33,6.91,1.86,4.11,6.56,0,17.42-1.8,22.47,2.39c1.19.98,4.16,4.88,4.7,6.29,2.07,5.38-.07,8.77-3.12,13.07,4.68,3.92,6.06,8.69,4.15,14.55-3.34,10.29-20.48,9.96-27.01,2.48-1.65-1.9-1.28-4.15-.74-6.52.94-4.16,5.42-1.89,8.27-1.7,1.65.11,4.58-.05,4.97-2.05ZM8.24,23.31c6.81-1.07,11.88,7.13,3.47,9.21-3.16.78-4.76-.51-7.48-.59-2.44-.08-2.46,4.41-1.02,5.51,4.49,3.42,14.81,2.73,18.74-1.54,3.01-3.28,4.08-10.23-.03-13.04-1.42-.97-3.64-1.08-4.47-2.78-.09-.87,2.69-2.86,3.47-3.76,2.53-2.94,3.57-6.1,1.96-9.89C20.21.1,8.54,1.99,3.97,5.19c-3.11,2.18-.54,4.23,1.31,6.39,2.33-2.03,11.36-2.97,10.05,1.89-.14.51-2.66,3.55-3.18,4.03-.75.69-3.76,2.28-3.88,2.47-.24.37-.36,3.05-.03,3.34Z"/>
  </g>
</svg>