<?xml version="1.0" encoding="UTF-8"?>
<svg id="Layer_3" data-name="Layer 3" xmlns="http://www.w3.org/2000/svg" viewBox="0 0 30.38 44.2">
  <g id="Layer_1" data-name="Layer 1">
    <path d="M24.11,29.18c.98.14,2.58-.29,3.43.18.19.11,2.52,3.32,2.6,3.59.36,1.18.33,8.9-.23,9.78-.61.96-3.69,1.17-4.93,1.25-4.94.32-12.25.32-17.19-.02-2.5-.17-4.29-.29-6.02-2.23-2.29-2.58-1.94-5.3-1.27-8.49,1.09-5.17,4.64-6.16,8.15-9.37,2.29-2.1,5.62-5.17,5.32-8.42-1.95.77-3.53,3.79-5.76,3.38C6.79,18.56.31,12.17.07,10.77c-.4-2.31,2.36-6.12,4.14-7.51,13.15-10.2,31.51,5.46,23.74,19.96l-3.84,5.95ZM25.48,38.8v-7.56l-10.08-.33c-.78-.67-.35-1.24.12-1.9,3.1-4.37,8.17-6.67,9.4-12.94C27.84,1.23,8.9-1.95,3.21,7.76c-2.56,4.37.82,3.71,3.2,6.63,4.23-5.35,12.63-5,9.37,3.88-2.51,6.84-12.37,9.99-13.23,15.97-.22,1.5-.04,3.04-.09,4.55h23.02ZM24.07,24.41l-1.34-.04.34,1.37-1.03-.68c.27,1.14-.59.99-1.03,1.71l1.37.34.17-1.02.86.34.06-.98.98-.06-.38-.98Z"/>
  </g>
</svg>