<?xml version="1.0" encoding="UTF-8"?>
<svg id="Layer_2" data-name="Layer 2" xmlns="http://www.w3.org/2000/svg" viewBox="0 0 43.86 54.71">
  <g id="Layer_1" data-name="Layer 1">
    <path d="M19.18,36.17c2.69.3,3.69-2.67,4.34-4.7,2.54-7.97,1.7-16.13,1.46-24.28-.05-1.65-.51-5.94.96-6.62s9.38-.64,11.25-.43c3.23.37,6.06,5.41,6.35,8.42.63,6.39.27,17.98-.72,24.35-2.1,13.39-12.5,26.96-27.34,19.86C-2.37,44.23-.38,25.84.61,8.9.76,6.32-.31,1.92,2.91.9,4.4.43,10.79-.02,12.41.17c2.8.32,5.03,2.89,5.87,5.46,1.16,3.55-.09,10.63-.18,14.59-.05,2.24-.19,15.05,1.08,15.96ZM37.36,2.53h-9.45c-.06,0-.83.36-.89.57.04.8.37,1.53.39,2.33.18,7.11,1.13,26.76-4.14,31.62-5.59,5.15-9.12-2.56-9.87-7.31-1.4-8.85.4-17.96-.11-26.86-3.17-.49-6.8-.15-9.95.49-.29.22-.65,3.39-.69,4.12-.47,7.48-.77,23.01,1.47,29.82,2.7,8.21,8.13,12.35,16.94,11.95,18.53-.83,17.85-28.17,17.01-41.43-.11-1.73-.71-3.55-.7-5.31ZM41.83,10.44l-1.72-.34c1.12,1.28-.46,3.16,1.2,4.46,1.18-1.27-.79-2.66.52-4.11ZM15.72,30.36c1.13-.89.5-3.19.68-4.46-1.69.83-.6,2.89-.68,4.46ZM21.9,52.02l-4.46-.69c-.9.75,2.62,1.32,2.96,1.34.38.02,1.51-.07,1.5-.65Z"/>
  </g>
</svg>