<?xml version="1.0" encoding="UTF-8"?>
<svg id="Layer_3" data-name="Layer 3" xmlns="http://www.w3.org/2000/svg" viewBox="0 0 47.48 52.01">
  <g id="Layer_1" data-name="Layer 1">
    <path d="M22.73,22.78l1.89-6.18c.58-2.55,2.42-14.82,3.76-15.83S37.42-.04,39.39.11c2.28.17,4.56.37,6.02,2.23.27.34,2.05,3.25,2.07,3.45.12.88-1.03,5.35-1.33,6.56-.86,3.41-2.09,6.89-3.14,10.26-2.28,7.37-5.55,19.35-8.77,25.93-.68,1.39-1.12,2.05-2.64,2.51-2.16.66-6.63.87-9.02.94-8.89.26-12.01-9.4-14.38-16.24C5.35,27.54,1.05,13.78.14,5.34c-.11-1-.35-2.14.22-3.03C1.07,1.38,6.13.66,7.48.49c1.74-.21,6.04-.89,7.32.15.74.6,3.67,4.03,4.07,4.87,2.31,4.91,2.4,12.01,3.86,17.27ZM13.06,2.56L2.6,3.86c-.51.7.84,6.26,1.12,7.52,2.05,9.23,4.99,19.88,8.44,28.67.63,1.6,1.79,4.84,3.18,5.76,2.79,1.85,10.42-.11,13.87.29L42.29,3.41c-.18-.6-2.86-.86-3.57-.91-2-.14-6.03-.24-7.94,0-.42.05-.7-.02-1.02.36-.67.79-2.26,11.36-2.74,13.41-.54,2.3-2.78,11.02-4.31,12.19-.33.25-.7.48-1.14.45-1.62-.15-2.52-3.55-2.98-4.9-2.38-6.99-2.92-14.53-5.54-21.43ZM44.72,10.07l-2.05.36c.66,1.44-1.74,3.25-.52,4.45l.9-2.11,1.67-2.7Z"/>
  </g>
</svg>