<?xml version="1.0" encoding="UTF-8"?>
<svg id="Layer_3" data-name="Layer 3" xmlns="http://www.w3.org/2000/svg" viewBox="0 0 57.75 54.18">
  <g id="Layer_1" data-name="Layer 1">
    <path d="M38.14,36.86c-.49-.08-.45.58-.59.94-.93,2.34-2.33,8.49-3.71,10.03-.76.85-3.53.46-4.75.32-3.71-.44-5.23-1.23-7.23-4.45-1.11-1.79-1.43-3.54-2.23-5.33-.18-.41.16-.62-.72-.48,0,1.98-.4,3.98-.8,5.9-.48,2.29-1.07,5.67-1.84,7.78-1.39,3.8-9.13,2.82-11.91,1.03-.47-.3-3.32-2.8-3.67-3.2-1.21-1.41-.49-4.02-.29-5.8C1.66,32.14,3.48,15.36,6.28,4.48c.79-3.05,1.16-2.94,4.24-3.32,1.29-.16,3.48-.37,4.75-.4,1.58-.04,3.48-.21,4.83.7.73.49,4.36,4.92,4.83,5.82,1.39,2.67,2.29,7.05,3.07,9.99,1.28-2.66,3.88-14.96,5.67-16.32.48-.37.95-.46,1.53-.53,2.6-.28,6.76-.57,9.3-.35,3.22.28,5.12,2.39,6.41,5.28,1.87,4.18,2.3,15.12,3.09,20.28,1.05,6.9,2.57,13.78,3.33,20.72.16,1.45.91,5.09-.1,5.99-1.34,1.18-9.78,1.98-11.68,1.68-1.21-.19-5.02-3.96-5.52-5.13-1.33-3.14-1.42-8.58-1.89-12.02ZM45.64,2.55c-1.69.12-9.73-.54-10.51.37-2.45,5.79-3.67,12.04-6.01,17.87-.58,1.44-2.15,6.79-3.71,3.2-1.73-3.96-2.87-10.17-4.35-14.54-.41-1.21-1.38-4.78-2-5.56-1.36-1.71-7.9.11-10.07-.32L2.43,47.83c1.57.18,7.51,1.44,8.4.37.53-.63,2.49-10.92,2.81-12.65.53-2.87.61-6.3,1.28-9.02.27-1.07.7-2.78,2.1-1.72.62.47,4.2,11.72,4.95,13.6.36.89,1.13,3.26,1.71,3.79,1.04.96,4.42.46,5.87.34,2.49-5.62,3.85-12.15,6.35-17.7.31-.68.85-2.09,1.72-2.09.68.04.99.74,1.12,1.3,1.22,5.06,1.27,12.27,2.19,17.74.23,1.34.75,6.3,1.9,6.69.87.3,9.29-.54,9.59-.96L45.64,2.55ZM50.51,12.46h-1.03c-.23.16,1.24,4.66.69,5.49,1.62-.1.6-.88.54-1.67-.07-.89.4-1.7-.51-1.91l.31-1.91ZM37.01,32.99c.22-.6.24-2.7-.58-3.01.22,1.94-1.85,3.31-1.37,5.5,1.28-.68.64-.2,1.37.34l.35-1.71-.69.69c-1.65-.55.75-1.32.93-1.8ZM15.81,40.63l-.69-1.37c-.43.71-.01,1.81-.07,2.24-.03.21-.55.13-.61.38-.13.52.35,2.36-.36,3.22,2.74.43,1.73-3.31,2.75-4.97-.88-.8-.44.55-1.03.51ZM33.03,43.08c1.34-.27,1.11-1.72,1.33-2.79-1.54.57-2.71,2.53-1.2,3.78l-.13-.99ZM54.9,50.54c.12-.19.23-.92-.09-.97-.74.1-.81,1-.87,1.03-.19.09-.78-.98-1.51-.36l-.2,1.05c-.66-.13-.52-.54-.34-1.03-1.02.1-1.82.28-2.06,1.37l1.03.35-.34-1.03.89.69h.95c.2-1.08,1.81-.01,2.54-1.1Z"/>
  </g>
</svg>