<?xml version="1.0" encoding="UTF-8"?>
<svg id="Layer_2" data-name="Layer 2" xmlns="http://www.w3.org/2000/svg" viewBox="0 0 39.78 54.83">
  <g id="Layer_1" data-name="Layer 1">
    <path d="M.58,31.77c.78-.78,9.85-2.79,11.02-2.42,2.29.71,2.47,6.61,3.3,7.95.51.83,1.99.75,2.59-.13,1.29-1.9,1.41-11.98,1.23-14.6-.06-.98-.45-1.91-.36-2.91-4.4,1.28-6.9,1.18-10.31-1.89-1.68-1.51-2.31-2.21-2.71-4.51-.49-2.83-.54-8.53.4-11.21.43-1.22.84-1.49,2.13-1.65,4.41-.52,10.5.08,15.14.02,2.86-.03,5.91-.63,8.93-.37,7.52.65,8.26,8.88,7.67,14.91-.29,3-.75,4.44-4.1,4.49l-.27.41c.05,6.98.97,14.59-.15,21.5-1.58,9.77-8.08,14.26-17.93,13.32-5.04-.48-13.63-7.24-15.59-11.9-.84-2.01-2.44-9.6-1-11.04ZM7.71,13.82h11.51c.06,0,.72.35.78.43.61,5.78,1.13,12.11.78,17.97-.23,3.86-.8,10.17-6.28,7.97-3.32-1.33-3.32-5.51-4.05-8.5l-7.74,2.05c-1.65,8.09,4.68,15.67,12.78,16.03,19.59.88,14.81-19.07,14.2-32-.06-1.24.04-2.49-.02-3.74l4.27-.6.53-.52-.33-10.07-26.05.03c-1.03,3.59-.74,7.28-.39,10.95ZM17.68,16.23c-.94-.32-1.26,1.24-1.41,1.33-.11.06-2.29-.76-2.02.73l3.77-.34-.34-1.72ZM13.38,17.26v.34c.22-.11.22-.23,0-.34ZM30.28,48.42c.35-.67.42-1.85.89-2.72.67-1.25,2.69-2.34,1.11-4.04l-.86,1.03,1.02.69-.59.18.08.51-.85-.69c.41,1.73-1.05,1.51-.35,3.09-.89-.62-1.99,1.59-1.38,2.38l-1.71.37c-.82.79,1.18.6,1.39.48.08-.04,1.2-1.2,1.24-1.28ZM20.26,52.3v.34c.22-.11.22-.23,0-.34Z"/>
  </g>
</svg>