<?xml version="1.0" encoding="UTF-8"?>
<svg id="Layer_2" data-name="Layer 2" xmlns="http://www.w3.org/2000/svg" viewBox="0 0 42.84 56.75">
  <g id="Layer_1" data-name="Layer 1">
    <g>
      <path d="M11.01.13c11.74-1,20.74,3.97,27.01,13.67,7.71,11.93,6.51,30.41-6.15,38.46-5.58,3.55-18.36,5.86-24.57,3.59-2.4-.88-6.07-4.35-6.45-6.95-1.29-8.88.77-20.32-.08-29.47C.5,16.04.16,12.52.07,9.14c-.04-1.3-.17-3.59.09-4.75C.82,1.45,8.45.34,11.01.13ZM10.31,2.87c-2.15.23-7.09.82-7.46,3.19-.53,3.38.29,7.27.34,10.62.14,10.75-.19,21.5.05,32.25.73,2.41,11.25,2.13,13.52,1.97,15.34-1.05,22.6-14.28,20.34-28.61C34.89,8.25,24.14,1.41,10.31,2.87ZM40.63,27.85c-.22-1.45.21-3.35-1.03-4.46-.17,1.26-.07,2.47.24,3.7.16.62-.11.92.78.77ZM16.57,54.65l-.51-1.36c-1.06.86-2.92.3-4.29.33v1.03s4.81,0,4.81,0Z"/>
      <path d="M12.35,12.8c2.41-.71,6.84.16,9.01,1.5,8.5,5.26,9.62,21.61-.43,25.64-2.08.84-4.92,1.34-7.13.82-3.32-.79-1.2-3.7-1.68-6.22.15-6.11-1.5-14.36-.72-20.27.09-.67.2-1.24.94-1.46ZM18.64,15.49l-3.63-.6-.84,1.62,2.59.29.33-.63.85.68.69-1.37ZM15.2,23.73c-.26-1.09.05-2.08-.04-3.22-.02-.32-.16-1.63-.65-1.59l-.69,1.02.69.18-.71,2.02.68.35-.31,1.22h1.03ZM23.67,34.95c2.48-2.86,2.62-11.38.28-14.3-1.11-1.38-4.41-1.88-6.12-1.68-.45.11-.49.42-.56.81-.4,2.14-.13,8.19-.01,10.67s.64,5.2.7,7.72c1.9-.39,4.47-1.76,5.72-3.21ZM15.17,28.23l-1-.37v2.54s.68.55.68.55l-.65.03.31,1.69h1.03c-.75-1.23-.54-3.03-.38-4.44Z"/>
    </g>
  </g>
</svg>