<?xml version="1.0" encoding="UTF-8"?>
<svg id="Layer_2" data-name="Layer 2" xmlns="http://www.w3.org/2000/svg" viewBox="0 0 44.22 53.96">
  <g id="Layer_1" data-name="Layer 1">
    <path d="M17.99,33.75c-.6-.08-.32.78-.34,1.2-.11,3.06-.06,6.23-.02,9.3.03,2.35.91,5.06-.07,7.46-1.09,2.69-10.43,2.67-12.87,1.53-1.71-2.29-4.27-3-4.58-6.24-.37-3.87.33-7.86.38-11.68.09-7.78.12-15.62,0-23.4-.05-2.87-1.79-9.49,1.62-10.72C4.21.44,12.57-.11,14.35.8s4.19,4.06,5.31,5.69c2.33,3.38,4.05,7.21,6.08,10.76.99-3.37-1.82-13.54.16-15.99C27.03-.14,34.09-.07,36.03.08c3.92.3,5.28,1.04,7.11,4.57,1.96,3.78.66,9.36.61,13.45-.1,8.46.35,17.08.03,25.45-.06,1.42-.22,3.72-.4,5.1-.29,2.25-.81,3.2-3.04,3.83-2.09.6-7.29,1.01-9.3.34s-4.97-4.35-6.19-6.18c-2.6-3.89-4.59-8.77-6.87-12.89ZM38.57,2.86c-.55-.65-10.22-.54-10.81.28-.61,7.24,1.38,15.35.56,22.55-.18,1.58-.84,1.35-1.91.5L13.13,2.88c-3.38,0-7.16-.47-10.29.77-.55.69-.35,9.69-.33,11.39.14,8.5.16,16.87.03,25.42-.04,2.41-1.05,5.15.31,7.56,1.09.77,8.24-.65,9.95-.91l-.05-23.93c.19-.41.42-.79.95-.79,1.45,0,12.07,22.59,14.41,25.13,1.23.76,9.51.02,10.01-.69l.46-43.96ZM10.13,50.52l-.21-.62-.69,1.37c-.65-.25-.13-1-.17-1.03-.44-.22-1.45-.08-1.45.58l-.61-.24c-.33,2.25,2.04.16,3.43,1.38l.69-1.72-.99.28Z"/>
  </g>
</svg>