<?xml version="1.0" encoding="UTF-8"?>
<svg id="Layer_3" data-name="Layer 3" xmlns="http://www.w3.org/2000/svg" viewBox="0 0 43.48 54.35">
  <g id="Layer_1" data-name="Layer 1">
    <path d="M24.16,20.75c1.16-6.38-.86-13.33,1.45-19.5.49-.49,3.71-1.04,4.56-1.11,1.68-.14,6.35-.26,7.82.07,1.19.27,3.21,3.05,3.74,4.16,1.95,4.08.83,18.66.96,24.13.09,4.28.65,8.74.72,13.03.03,1.71.26,10-.45,10.75-1.37,1.45-10.34,1.72-12.46,1.47-1.27-.15-4.99-3.25-5.24-4.38l-.42-11.78c-1.24.15-5.82.11-6.36,1.03-.63,1.07.11,8.9-.25,11.09-.75,4.54-7.62,5.27-11.27,4.22-1.69-.48-5.82-3.34-6.48-4.86-1.07-2.47-.06-6.93-.02-9.57.16-10.87-1-23.87-.03-34.39C.74,1.9,2.92,1.32,5.82.86c2.07-.33,7.61-.58,9.07.82,1.3,1.25,3.44,5.42,3.44,7.22v11.85h5.84ZM12.31,3.23h-5.84c-.5,0-3.73.75-3.61,1.54l-.34,43.47h9.45c.09,0,1.18-.41,1.22-.56l.34-15.23,12.37-.55,1.22,1.22.48,15.13c1.37.1,10.43,0,10.67-.9l-.86-44.48c-.55-.79-8.66-.29-10.07.45l-.94,19.16c-.37.41-.87.58-1.4.66-1.9.29-6.06.35-8.2.38-.83.01-3.29.31-3.58-.57l-.37-18.52-.53-1.19Z"/>
  </g>
</svg>