<?xml version="1.0" encoding="UTF-8"?>
<svg id="Layer_2" data-name="Layer 2" xmlns="http://www.w3.org/2000/svg" viewBox="0 0 47.22 62.78">
  <g id="Layer_1" data-name="Layer 1">
    <path d="M39.47,6.64c9.75,9.19,11.01,21.92-.34,30.5-1.67,1.26-4.73,2.22-5.85,3.25-1.62,1.49-1.51,5.34-4.57,6.36,2.41,3.37,4.79,4.19,3.98,8.98-1.11,6.54-8.07,8.88-13.51,5.53-7.75-4.77-8.83-12.92-.49-17.71-1.71-1.19-3.77-2.81-4.07-5.04-.21-1.57,1.13-7.04,1.91-8.5,1.81-3.37,8.81-4.73,8.99-9.88-1.69-.2-2.99.1-4.54.68-6.25,2.34-6.42,8.59-14.33,2.49-.8-.62-5.82-5.52-6.16-6.12-1.43-2.48.55-6.32,2.1-8.41C10.93-2.43,29.62-2.64,39.47,6.64ZM25.53,41.05c.02-1.23.28-2.47.7-3.63,1.68-4.67,3.89-3.56,7.45-5.74,8.43-5.15,10.03-17.52,2.32-24.07C28.97,1.64,17.69,1.6,9.93,6.12c-2.17,1.26-7.79,5.93-7.08,8.7.32,1.27,6.19,4.28,7.45,5.31,3.19-10.06,21.4-7.4,16.93,3.76-1.86,4.66-12.12,7.51-9.81,14.15.48,1.37,6.55,2.4,8.11,3.03ZM19.56,17.46l-2.56.06-.57,2.61,3.18-.91-.06-1.76ZM44.43,25.02c.07-.27.49-2.32-.24-2.16.28,1.26-1.09,1.68-1.23,1.92-.09.14-.65,2.83-.75,2.98-.32.5-1.97.38-.53,1.45,1.53-.61,1.43-2.44,1.71-2.95.05-.09,1.02-1.17,1.04-1.25ZM17.02,55.48c1.21,1.21,4.21,1.24,5.8.82,3.54-.94,5.45-6.99,1.67-8.97-6.91-3.6-10.88,4.74-7.47,8.15Z"/>
  </g>
</svg>