<?xml version="1.0" encoding="UTF-8"?>
<svg id="Layer_2" data-name="Layer 2" xmlns="http://www.w3.org/2000/svg" viewBox="0 0 40.43 54.39">
  <g id="Layer_1" data-name="Layer 1">
    <path d="M29.65,49.41c-.77,1.62.32,2.87-1.63,3.87-2.08,1.07-9.59,1.62-11.62.44-.82-.48-4.28-3.79-4.65-4.63s-.61-4.31-.67-5.51c-.4-7.65.31-15.65.03-23.34-1.74-1.1-4.01-.12-5.85-.74-.7-.24-3.71-3.12-4.09-3.81C.08,13.73-.15,5.77.08,3.35.22,1.95.69,1.28,2.14.94,6.03.04,12.64.2,16.78.12c3.35-.06,6.86-.24,10.29-.01,1.92.13,8.24.65,9.58,1.42,1.15.66,3.43,4.34,3.63,5.64.3,1.9.16,10.17-.57,11.75-.95,2.06-7.49.4-9.48.75-.23.07-.58.78-.58.87v28.86ZM35.15,3.54c-6.52-1.04-13.15-1.51-19.75-1.37L2.73,3.25c-.87.27-.61,3.07-.58,3.92.07,2.09.57,4.56.7,6.69h9.45c.1,0,.8.35.87.58,0,11.32-.24,22.7.64,33.92l10.33-.16.51-33.68,10.5-.67V3.54ZM34.4,16.82c-.96.2-1.94-.44-2.16-.43-.27,0-.6.52-1.03.54-.6.04-1.32-.82-2.02-.71l-.9,1.4,3.77.35.18-1.03c1.14,1.15,3.14.72,4.64,1.03-.37-.59-1.62-1.68-2.25-1.7-.13,0-.15.54-.22.55ZM27.51,19.44s-.91-.47-.95-.43c.75,1.69-1.03,4.35,1.37,4.81-.26-.87-.03-3.81-.42-4.38ZM27.93,39.62c-1.26-1.62.95-4.75-1.03-5.15.72,1.28-1.77,5.26,1.03,5.15ZM21.68,51.4c-.33-.23-1.94-.12-2.51-.09-.42.02-1.27-.26-1.19.34,2.29-.02,4.23,1.3,6.52.18-.38-.55-1.52-.75-1.99-.42-.13.09-.03.54-.08.58-.69.51-.67-.52-.75-.58Z"/>
  </g>
</svg>