<?xml version="1.0" encoding="UTF-8"?>
<svg id="Layer_3" data-name="Layer 3" xmlns="http://www.w3.org/2000/svg" viewBox="0 0 46.41 51.91">
  <g id="Layer_1" data-name="Layer 1">
    <path d="M22.69,12.09c.7-1.88,1.62-3.75,2.57-5.5.81-1.48,3.1-6.12,4.55-6.45,2.78-.62,9.45.94,12.12,2.17,2.25,1.03,4.7,3.97,4.47,6.52-.18,1.97-4.7,9.03-6.04,11.14-1.76,2.76-3.94,5.28-5.64,8.09-.03.89,8.22,12.82,9.33,15.07.61,1.23,2.03,4.18,1.48,5.38-.68,1.48-8.19,3.03-9.95,3.11-6.93.33-9.07-6.42-12.04-11.35-1.2,2.24-3.71,9.27-5.49,10.66-1.99,1.55-8.06,1.03-10.41.09-1.05-.42-6.29-4.12-6.75-4.93-1.11-1.96.71-4.7,1.69-6.51,2.67-4.97,6.33-9.35,9.1-14.25L.28,6.85C-1.15,3.54,3.19,2.48,5.59,1.69,7.58,1.05,12.7-.41,14.55.14c.57.17,3.8,3.9,4.31,4.63,1.68,2.39,1.87,5.27,3.83,7.33ZM22.63,16.49l-1.49-.28c-1.68-1.92-5.79-12.84-7.39-13.57-1.26-.57-10.52,1.86-11.19,2.91s10.67,17.15,11.56,19.76L2.76,44.73c3.68.71,7.12,2.44,11,1.55l6.92-12.66,1.15-.93c.68,0,.96.69,1.27,1.15,2.37,3.6,3.8,8.8,6.17,12.55l11.63-2.01c.05-.98-.55-1.8-.97-2.63-2.17-4.23-5.42-8.87-8.03-12.93-1.45-2.27-2.83-2.2-1.37-5.28,2.43-5.13,7.12-10.19,9.74-15.34.33-.65,1.53-2.75,1.17-3.33-1.91-1.2-9.51-3.26-11.2-2.23l-7.61,13.86ZM43.65,9.69c-.99-.92-3.02,2.29-2.72,2.71l1.34.73-.69-1.54.69-.52.17,1.03c.52-.27,1.59-2.04,1.2-2.4ZM39.18,15.53c-1.47-.03-1.09,1.89-2.02,2.21l.32,1.22.63-.28.38.63.69-3.78ZM35.58,21.37v.34c.22-.11.22-.23,0-.34ZM22,36.14c-1.67-.19.06,1.61,0,1.7-.05.06-.99-.1-.68,1.04l-.68-.68-.34,1.51c.68,1.43,2.25-1.18,2.28-1.68.02-.4-.75-1.25-.57-1.89ZM38.81,48.15l.03-.66-3.26.41-1.2.96,1.71.69.17-1.03,1.03,1.03,1.52-1.4Z"/>
  </g>
</svg>