<?xml version="1.0" encoding="UTF-8"?>
<svg id="Layer_3" data-name="Layer 3" xmlns="http://www.w3.org/2000/svg" viewBox="0 0 34.44 44.36">
  <g id="Layer_1" data-name="Layer 1">
    <g>
      <path d="M14.65.04c7.84-.64,14.93,6,18,12.72,4.44,9.71.67,29.96-11.96,31.46C-3.8,47.14-7.48,1.84,14.65.04ZM13.95,2.43C-2.49,4.69-2.1,41.64,17.3,39.46,33.36,37.65,34.56-.39,13.95,2.43ZM23.45,40.36c-.25-.28-.37-.64-.65-.9l-.17,1.37c-1.6-.59.17,1.78-2.05,0,.03,1.24-1.05.51-1.38,1.37,1.55.63,1.3-.21,1.54-.27.11-.03.53.25.87.13.75-.27,1.32-1.17,2.4-.88.24-.87-.34-.58-.55-.81Z"/>
      <path d="M15.32,11.01c4.12-.6,6.73,4.86,6.97,8.33.32,4.61-1.91,13.32-8.17,11.26-7.89-2.6-5.61-18.6,1.2-19.59ZM17.04,13.43c-.44-.26-1.13-.04-1.64-.09.56.69-.41.72-.34,1.71h3.09c.23-.32-1.02-1.58-1.11-1.63ZM14.37,16.43l-2.4.34v3.09s1.06-.2,1.06-.2l1.34-3.23ZM17.36,16.84c-1.43.45-3.57,5.8-3.65,7.38-.2,3.8,2.57,6.21,4.94,2.51,1.26-1.97,2.99-11.22-1.29-9.89Z"/>
    </g>
  </g>
</svg>