<?xml version="1.0" encoding="UTF-8"?>
<svg id="Layer_2" data-name="Layer 2" xmlns="http://www.w3.org/2000/svg" viewBox="0 0 47.16 56.29">
  <g id="Layer_1" data-name="Layer 1">
    <g>
      <path d="M21.35.06c17.65-1.4,29.86,22.47,24.13,37.87-.58,1.56-1.58,2.87-2.09,4.44,1.93,3.36,5.26,4.06,3.04,8.53-.68,1.37-4.56,5.05-6.02,5.34-2.49.48-4-2.83-5.8-4.02-4.04,3.08-7.06,4.32-12.28,3.71-6.91-.81-15.96-8.51-19.16-14.51C-4.74,26.63,2.53,1.55,21.35.06ZM20.31,2.46C5.53,4.08-.4,24.21,3.54,36.56c3.12,9.79,14.06,17.47,24.3,12.94,1.2-.53,3.86-2.79,4.74-2.79,2.05,0,4.14,4.94,5.11,4.76.86-.81,4.97-4.86,5.05-5.66.14-1.45-4.04-3.94-4.5-5.5,3.84-6.87,4.79-13.56,3.07-21.24C39.15,9.49,30.6,1.33,20.31,2.46ZM26.56,52.53l-1.71.34.68.68-1.22.32-.83-.49.83.84,2.61-.32-.35-1.37Z"/>
      <path d="M26.12,37.85c1.88,2.11-3.6,2.99-4.88,2.99-2.44-.01-5.89-2.61-6.99-4.69-3.62-6.88-.46-22.66,9.07-22.8,7.09-.11,11.79,14.44,7.37,19.44h-1.04s-3.26-3.3-3.26-3.3c-.63,0-2.25,3.16-2.63,3.91-.29.58-1.12,1.74-.83,2.29.66.9,2.57,1.47,3.18,2.16ZM26.57,17.48c-.28-1.08-2.67-1.62-3.63-1.7-.17-.01-.12.54-.31.6-.36.1-.93-.21-1.57.25-.22.16-.24,1.48-1.01,1.71l.67.52.69-1.03.52,1.02,2.42-1.72.36.71,1.87-.36ZM19.35,21.94c-.38-.78.13-1.02.68-1.54-1.07-.76-.89-1.08-.85-2.23l-.78,1.21.94,1.02c-1.21,1.36-1.3-.03-1.42-.1-.41-.26-.98.33-.97.44.04.32,1.35.36.85,1.2l.35.34.32-.66.88.31ZM28.2,19.97c-2.11-1.75-5.72.78-7.12,2.5-3.57,4.39-3.46,10.93-1.35,15.93l2.02.04c.45-.37-1.84-1.57-1.67-2.84.26-1.95,3.83-6.23,4.5-8.41,1.91-1.85,4.96,2.46,5.41,1.97.66-1.86-.41-8.03-1.81-9.19ZM16.26,26.41h-1.03c.65,1.81-.15,3.63,0,5.5,1.71-.93.61-3.73,1.03-5.5Z"/>
    </g>
  </g>
</svg>