<?xml version="1.0" encoding="UTF-8"?>
<svg id="Layer_3" data-name="Layer 3" xmlns="http://www.w3.org/2000/svg" viewBox="0 0 42.81 52.59">
  <g id="Layer_1" data-name="Layer 1">
    <path d="M26.86,34.83l11.44-.61c.63.19,3.14,3.67,3.47,4.43.97,2.25.58,8.19.19,10.77-.13.85-.66,1.63-1.45,1.99-1.26.58-5.37.88-6.94.96-6.22.33-14.06.27-20.3,0-1.99-.09-6.67-.28-8.25-1.02-.59-.28-3.96-3.14-4.23-3.67-1.18-2.31-.95-9.38.16-11.78.71-1.54,4.14-5.07,5.46-6.57,3.16-3.58,6.73-6.81,9.8-10.48-2.58-.25-5.41.62-8,.1-1.66-.34-6.01-4.02-6.36-5.67-.5-2.39-.35-10.46,1.64-11.95C5.14.1,11.35.58,13.64.49c6.44-.27,13.08-.71,19.57-.35.97.05,4.69.33,5.25.59.41.19,2.68,3.02,2.98,3.55,1.97,3.53,1.9,11.85-.66,15.1-3.82,4.85-9.69,9.57-13.41,14.42-.26.34-.67.44-.51,1.03ZM36.47,44.97c.42-2.54-.31-6.1,0-8.76-1.59.15-3.39.62-4.97.7-3.53.18-10.1.41-13.43,0-1.48-.18-1.51-1.04-.86-2.27,4.96-5.44,10.36-10.52,15.31-15.95.81-.89,4.16-4.46,4.45-5.17.61-1.52.75-9.56-.24-10.56-.53-.39-1.17-.39-1.79-.44-6.96-.58-17.66-.35-24.75.02-.85.04-4.95.42-5.16.68-1.3,3.19-1.58,6.51-.53,9.82,6.27.5,12.52-.32,18.75-.91,1.93,0,1.18,2.08.36,3.14-6.17,5.58-12.05,11.6-17.55,17.85-.7.79-2.99,3.24-3.29,3.93-.44,1.03-.55,7.37-.32,8.62.07.39.12.7.56.81,1.84-.2,3.7.33,5.44.41,6.33.28,14.71.39,20.99,0,1.47-.09,4.93-.49,6.21-.98.42-.16.75-.51.82-.92ZM16.2,15.25l-3.77.51c.78,2.62,1.44.72,2.15.41.61-.27,1.74.42,1.62-.91ZM32.35,24.18c-.96-.21-1.54-.26-2.3.44l-1.14,2.65-1.02-.68,1.04,2.05.7-.21.95-1.33-.63-.86,2.04-.38.37-1.69ZM27.6,29.75c.07-.06.62.28.81-.05.59-1.51-1.36-2.98-1.55-1.05l.68.34h-1.37s1.03,1.38,1.03,1.38l-2.4-.69.35,1.03-1.38.86,1.03-.51v1.03s-2.06,0-2.06,0c.24.96.34,1.51-.69,1.88l.35.87,2.4-.69-.68-.68,1.38-.86-.69-.34c.18-.56,1.57-.34,1.71-.52.64-.79-.85-.51-.68-1.02l1.37.34c.08-.35.18-1.11.41-1.3ZM39.57,42.39l-.34-1.03-.35,4.46h1.37s.28-2.24.28-2.24l-.64-.34.7-1.54-1.03.68ZM15.86,49.95c-.69-.53-5.48-1.14-5.84-.69.36,1.95,1.74.51,2.59.49.6-.02,2.94.39,3.43.89l.35-.71,1.19-.15-1.55-.86-.17,1.03Z"/>
  </g>
</svg>