<?xml version="1.0" encoding="UTF-8"?>
<svg id="Layer_2" data-name="Layer 2" xmlns="http://www.w3.org/2000/svg" viewBox="0 0 40.09 55.93">
  <g id="Layer_1" data-name="Layer 1">
    <g>
      <path d="M17.79,40.92v11.85c0,.25-.62.96-.92,1.14-1.45.83-8.82,1.71-10.51,1.36-1.41-.29-5.94-4.24-6.06-5.97L0,4.75C.46,2.46,3.02,2.06,5,1.5,15.58-1.48,28.63-.56,35.25,9.2s4.5,18.77-4.39,26.05l8.38,11.88c1.99,3.3.21,4.5-2.45,6.1-1.49.89-5.75,3.05-7.32,2.67-1.22-.3-4.24-3.41-5.14-4.5-2.65-3.2-4.16-7.11-6.54-10.47ZM12.68,34.09c1.16-.36,3.91-1.39,4.8-.25.41.53.28,1.49.58,2.17.79,1.78,1.85,3.75,2.76,5.48.67,1.27,4.38,7.78,5.21,8.19,1.6.79,8.1-1.86,8.78-3.27.46-.95-4.32-7.32-5.14-8.61-.69-1.1-3.9-5.92-3.98-6.7-.19-1.82,2.15-2.32,3.44-3.4,4.72-3.93,6.21-12.22,3.6-17.69C28.5,1.13,10.16,1.32,2.49,5.18l.21,44.64c1.69.07,9.47-.07,10.12-1.34l-.15-14.38ZM15.39,37.47l.69-1.19c-1.44.11-.74,1.76-1.05,2.69l.7.23-.69.51v.69s.69-.17.69-.17c.2,1.08-1.54.49-.17,1.71.53,0,1.28-4.69-.17-4.47ZM37.71,48.48l-1.35.19-1.73,1.52,1.7.69.53-1.02.34.69.52-2.06ZM15.34,52.22l-.13-1.33c-1.28,1.64-2.03.42-3.8.66-.65.08-.46.67-.73.72-.75.16-1.43-.34-2.02-.31-.68.03-1.25.72-2.15.36l-.4.63c.08-1.02-.15-.77-.68-.17l3.21.53c.08-1.21,3.03-.14,3.31-.36l-.34-1.03.69,1.03.69-1.03.34,1.03,2.01-.73ZM33.13,51.68c-.23-.27-.9-.69-1.28-.64-1.75.4-1.41,2.24-3.41,1.73.52,1.08,3.41,1.11,2.92-.17l.35-.34,1.87.34s-.33-.76-.46-.91Z"/>
      <path d="M12.63,25.45v-13.4c15.36-4.81,13.58,15.5,0,13.4ZM18.72,13.89c-1.01-.46-4.29.25-4.02,1.42l.68.52.17-1.03c1.17,1.3,3.38.19,4.98.68-.24-1.39-.96-.8-1.44-1.05-.33-.17-.31-.52-.37-.55ZM17.79,17.21v5.15c1.73.31,4.21-4.38,3.04-5.11l-3.04-.04Z"/>
    </g>
  </g>
</svg>