<?xml version="1.0" encoding="UTF-8"?>
<svg id="Layer_3" data-name="Layer 3" xmlns="http://www.w3.org/2000/svg" viewBox="0 0 39.9 55.47">
  <g id="Layer_1" data-name="Layer 1">
    <g>
      <path d="M18.17,40.6c-.46.45.55,10.52-.42,12.81-.84,1.98-9.76,2.33-11.71,1.89S.12,49.56.63,47.32C1.37,33.82-.74,19.45.29,6.06.57,2.36,1.63,2.07,5.04,1.19c6.36-1.64,14.69-1.71,20.87.57,6.74,2.48,13.14,10.18,13.86,17.41,1.37,13.73-8.86,21.28-21.61,21.43ZM12.97,48.8l-.15-13.72c3.45-.59,7.05-.51,10.5-1.52,10.09-2.94,13.33-12.1,9.97-21.66S15.73,1.51,7.11,3.26c-1.1.22-4.18.58-4.41,1.78l.39,43.94c.12.44.42.49.81.56,1.03.19,8.7-.17,9.06-.74ZM34.66,29.27l-.34-.69.68,1.71-1.37-.34c-.07.49-.03,1.15.52,1.37,1.22.5.58-.52.62-.6.08-.14,2.05-2,1.09-2.15-1.23-.19-.51.58-1.2.69ZM29.85,33.39c-2.48.87-.59,1.99,0,.51.06-.15-.01-.35,0-.51ZM9.58,51.94l-4.47.51c.66.99,2.59-.17,2.87-.13.52.09.8,1.2,1.59.99v-1.37Z"/>
      <path d="M12.67,11.91c.09-.34.81-.77,1.21-.85,7.71-1.47,14.7,6.77,8.2,13.01-1.84,1.77-7.34,3.06-9.41,1.24v-13.4ZM17.83,23.42c1.69-.04,2.81-1.05,3.58-2.43,2.07-3.69.76-4.96-3.19-3.71l-.39,6.13Z"/>
    </g>
  </g>
</svg>