<?xml version="1.0" encoding="UTF-8"?>
<svg id="Layer_3" data-name="Layer 3" xmlns="http://www.w3.org/2000/svg" viewBox="0 0 356.65 56.03">
  <g id="Layer_1" data-name="Layer 1">
    <g>
      <g>
        <path d="M54.82,21.79l-4.1.39.37,7.52,3.77.05-.04-7.96ZM53.34,28.23h-1.14c.22-1.55-.58-3.7.57-4.95.94,0,.48,4.16.57,4.95Z"/>
        <path d="M46.68,22.89c-.61-1.05-3.3-.72-4.39-.76l.18,7.26,4.34.31c.65-.41.21-6.23-.13-6.81ZM45.1,28.18l-1.29.04v-4.57h1.52l.34,3.97-.58.56Z"/>
        <path d="M46.42,33.63l-4.51.32.74,7.07,4.43-.19c.27-2.39.56-5.03-.66-7.19ZM45.67,39.6l-1.85.43-.23-4.18c-.17-.3.21-.71.43-.77,2.49-.64,1.62,2.91,1.65,4.51Z"/>
        <path d="M50.67,33.56v7.62h4.19v-7.05c-1.01-1.09-2.83-.4-4.19-.57ZM53.35,39.66h-1.16v-4.58h1.16v4.58Z"/>
        <path d="M38.26,21.79l-3.59.34v7.62h4.19v-7.43l-.6-.53ZM37.36,28.06l-1.16.17.06-4.32,1.07-.64.33,4.32-.3.46Z"/>
        <path d="M39.24,33.56c-7.36-.97-4.11,2.77-4.57,7.62l3.79.23.77-.43c-.86-2.44-.16-4.96,0-7.42ZM37.66,39.4l-.3.46-1.16.17-.38-4.95h1.91s-.06,4.32-.06,4.32Z"/>
        <path d="M39.24,51.46l-.55-5.73-4.38-.34c.05,2.11.81,3.97-.02,6.07h4.95ZM36.19,46.89h1.16v3.44h-1.16v-3.44Z"/>
        <path d="M84.2,43.46c1.32,4.81-2.03,8.93,5.33,8v-8h-5.33ZM86.1,49.95v-4.97s1.91,0,1.91,0v4.97s-1.91,0-1.91,0Z"/>
        <path d="M97.13,49.34l.24-5.51-4.79-.36v7.62c2.3.43,4.72,1.13,5.72-1.52l-1.17-.22ZM95.63,49.56h-1.9s.16-4.2.16-4.2l1.74-.37c-.5,1.54.07,2.99,0,4.57Z"/>
        <path d="M80.36,32.82l-4.87.41.32,6.81,5.17-.37-.62-6.84ZM79.08,38.15l-1.74.36-.38-4.19h2.29s-.17,3.83-.17,3.83Z"/>
        <path d="M97.11,33.22l-4.53-.05v6.86c1.1-.08,4.25.76,4.79.02l-.26-6.83ZM93.72,38.51l.18-3.83,1.67.08.06,3.75h-1.91Z"/>
        <path d="M85.2,33.23l-.45.31v6.14l4.4.74v-7.05c-.86-.84-2.7.09-3.95-.14ZM86.1,38.51v-4.2s1.53,0,1.53,0v4.2s-1.53,0-1.53,0Z"/>
        <g>
          <path d="M109.02,10.37c-.7.43-.49,6.42-.27,7.59l3.97.3c.61-3.68,2.02-9.17-3.7-7.89ZM110.68,16.79c-.91.02-.5-3.83-.57-4.56l1.16.17c.7.52.64,3.89-.59,4.4Z"/>
          <path d="M119.97,22.17c-5.98-1.29-4.77,3.3-4.17,7.41l4.43-.19-.26-7.22ZM117.02,27.98l-.05-4.33,1.85.62v3.9c-.15.16-1.77.59-1.8-.19Z"/>
          <path d="M123.32,10.31c-.25.08-.64.86-.64.96v7.05l4.03-.37c-.3-3.36,2.06-8.59-3.39-7.64ZM125.34,16.41h-1.52v-3.81h1.52c-.78,1.27.18,2.43,0,3.81Z"/>
          <path d="M119.92,33.65c-.65-.75-3.74-.66-4.29.28-.38.64-.36,5.95.17,6.31l4.43-.19c.42-.6.24-5.78-.3-6.4ZM118.87,38.89h-1.91c-.12-.94-.28-6.08,1.44-4.1.76.88.39,2.96.47,4.1Z"/>
          <path d="M109.02,22.18c-.98,1.74-.15,3.43-.05,5.09.06.97-1.14,2.16.57,2.47.59.11,2.87.11,3.26-.16l.19-7.08-3.97-.32ZM111.63,28.22h-1.52v-4.58l1.11.03c.52.32.42,3.74.41,4.55Z"/>
          <path d="M126.87,22.7c-.48-.72-1.31-.59-2.1-.59-.49,0-.98-.02-1.46.08l-.63.51v6.48c.83,1,2.37.47,3.55.58.24-.06.61-.78.64-.96.29-1.79-.21-4.21,0-6.1ZM125.35,28.23h-1.16v-4.58h1.16v4.58Z"/>
          <path d="M119.96,10.95c-.22-.69-.6-.59-1.16-.54-.7.05-1.55.43-2.34.36l-.58.56c.16,4.13-1.78,8.71,4.34,6.63.24-.3-.05-6.35-.26-7.01ZM118.87,16.42h-1.91c-.7-5.7,2.61-5.71,1.91,0Z"/>
          <path d="M108.56,34.87c-.05.64.15,5.69.4,5.92l3.81-.38v-6.67c-1.79-.72-3.98-1.49-4.21,1.12ZM110.11,38.9l.06-3.56,1.07-.63v4.19s-1.14,0-1.14,0Z"/>
          <path d="M126.51,33.34l-3.84-.17.4,7.22,3.62-.34-.19-6.71ZM124.21,39.27l-.37-4.17,1.51-.4.02,3.93-1.15.64Z"/>
        </g>
      </g>
      <g>
        <path d="M163.07,43.84l-4.58.38v6.29c0,.08-.57.43-.38.57,1.09-.09,4.55.22,5.15-.75l-.2-6.48ZM161.94,49.36h-1.94s0-3.62,0-3.62h1.94s0,3.62,0,3.62Z"/>
        <path d="M142.37,33.62c-1.55.53-.42,4.69-.47,6.06l4.41.19.21-5.95c-.35-.51-3.51-.52-4.15-.3ZM145.16,38.13h-1.91v-2.67h2.29s-.38,2.67-.38,2.67Z"/>
        <path d="M146.26,43.88c-1.49-.08-3.08-.22-4.48.39l.32,6.64,4.59.17-.42-7.2ZM143.26,49.56v-4.19s1.5.02,1.5.02c.13,1.38.75,4.47-1.5,4.17Z"/>
        <path d="M155.07,33.56c-.99.16-4.64-.46-4.96.57v5.52c1.14.38,3.6.29,4.71-.06,1.38-.43-.29-4.72.25-6.04ZM151.63,38.13v-3.05s1.86.05,1.86.05l.43,2.99h-2.29Z"/>
        <path d="M158.49,33.56l.19,5.72,4.35.33.26-5.7-4.79-.36ZM161.75,37.77l-2.12.36v-3.05s2.29,0,2.29,0l-.17,2.69Z"/>
      </g>
      <g>
        <path d="M75.86,43.51c-.07,1.95-.05,3.92-.04,5.87,0,.59-.39,1.27-.38,1.71,2.03.68.68.14,2.11.02,1.07-.09,2.16.01,3.23-.02v-7.62l-4.91.04ZM77.34,49.57v-4.97s1.91,0,1.91,0v4.97s-1.91,0-1.91,0ZM355.84,53.96c-1.47-.6-3.48-.93-4.95-.21-.01-.91.8-1.26,1.06-2.18.73-2.59.51-7.86.29-10.6-.08-1.06-1.26-1.46-1.54-2.08-.44-1-.3-3.16-1.16-4.17-.9-1.04-3.83-1.13-5.13-.77-.18-1.31.55-4.86-.85-5.46l-10.41-.61c-.25-4.63-.62-9.61.42-14.13-1.96-1.67-3.96-2.27-6.49-2.27h-28.96c-.57.78-.96,3.33-.97,4.4,0,.91.41,1.73.41,2.63,0,2.99-.03,5.98-.02,8.96-.61.69-2.81-3.05-3.23-3.43-.26-.24-2.8-1.84-3.06-1.89-9.68.14-19.44-.41-29.04.49-.87.27-2.63,4.57-3.33,5.23-.57.54-1.49.24-1.67.42-.11.11-.21,2.22-1.2,2.83l-3.44-.38-.51-26.9-7.65-1.51h-29.53v13.72l-30.88.18.02,18.5c-1.42.92-4.83-1.15-5.09-1.11-.69.12-2.33,3.02-4.05,2.25v-8c0-.1,1.33,0,1.07-1.28-.78-1.29-2.04-2.08-3.56-2.17-.83-.05-1.62.35-2.23.29-.85-.08-2.49-1.42-3.61-1.47l-.05-2.61c-1.62-.24-3.15.35-4.74.4-5.7.17-13.38-.9-18.65-.35-.57.06-1.14.3-1.71.38l-.06,3.37c-1.9.52-3.76-.24-5.31,1.16.3-3.26-.31-6.51-.4-9.72-.12-4.34.6-9.49.04-13.73-.06-.45-.06-.78-.36-1.16-.96-1.21-7.92-.16-9.76-.94l-21.87.44-.39,21.53-32.52.24c-2.59.77.15,8.5-.27,10.59-1.08-.21-4.51.56-4.9-.62l-.43-18.42c-1.96-.07-4.24-1.53-6.01-1.86-.84-.16-1.22.32-1.42.32-9.33-.02-18.67.01-28,0,.18.85-1.14,3.75-1.1,3.95.06.37.76.66.91,1.01.38.91.4,11.94.22,13.54-.06.56-.05.98-.59,1.31h-14.86c-1.27.91-.06,3.64-.74,4.59-.83.68-1.92.13-2.88.55-.46.21-3.85,3.8-4.02,4.36-.49,1.58.18,2.92.03,4.03-.08.6-1.17,1.5-1.43,2.19-.8,2.06.33,4.26.46,6.37-1.84.3-4.14-.25-5.71.95,1,.65,2.56.68,3.76.72,6.39.24,12.89-.24,19.3-.16,104.05,1.13,208.68-.52,312.76-.76,6.93-.02,13.86.04,20.78,0,.18-.98-.16-.68-.76-.93ZM27.04,34.5c.52-.48.75-.7,1.53-.56.1.62-.27,1.04-.62,1.49-1.32,1.66-2.75,3.38-4.13,4.99-.44.51-3.87,4.71-4.39,4.18-.05-.72.59-1.3.99-1.86,1.5-2.1,4.86-6.61,6.62-8.24ZM24.2,34.33c.42-.34,1.44-.62,1.71-.38.29.25-1.26,2.11-1.53,2.47-1.79,2.31-4.45,5.62-6.66,7.44-.43.35-.61.93-1.33.76-.33-.34,2.44-3.97,2.88-4.54.95-1.21,3.95-4.95,4.93-5.74ZM22.86,33.94l-5.35,7.03-2.27,2.11c.27-3.41,4.16-5.63,5.52-8.76l2.09-.38ZM15.53,37.85c.11-.31,2.02-3.4,2.18-3.54.69-.62,1.64-.35,2.48-.37l-4.95,6.09c-.09-.79.02-1.44.29-2.18ZM12.19,40.03l-4.18,3.82c-.33-1.6,3.52-7,4.18-3.82ZM13.14,39.65l-.2,3.05s-.54-.31-1.01-.1c-.94.43-1.31,1.63-2.4,1.62l3.62-4.57ZM11.04,44.61c-.03.93-.77,1.8-1.3,2.51-.8,1.07-2.2,2.35-3.27,3.2-.58-1.33,3.97-6.36,4.56-5.71ZM7.24,51.85c-.16-.77.16-1.02.55-1.54,1-1.35,3.06-3.66,4.26-4.89.49-.5,1.34-1.59,2.05-1.57.11.71,0,1.13-.36,1.73-.57.97-4.16,4.68-5.16,5.51-.43.35-.61.93-1.33.76ZM9.35,53.39c-.6.35-1.04.45-1.73.36.55-.83,6.77-8.16,7.62-7.24.51.55-.25.98-.48,1.25-.72.86-4.8,5.27-5.41,5.62ZM10.67,53.75c-.37-.34,3.9-4.64,4.57-4.95.16.74-.17,1.02-.55,1.54-.34.46-3.62,3.78-4.02,3.41ZM14.85,54.12c-2.29-.11,1.34-2.22,1.7-2.68.51-.64.53-1.51,1.15-2.28.87-1.1,2.38-2.42,3.63-3.03.44.53-3.32,4.96-3.94,5.58-.76.76-2.39,1.3-2.54,2.41ZM17.93,53.58c-.52.38-.8.7-1.54.55.62-.57,5.68-7.28,6.47-6.47.54.54-4.29,5.45-4.93,5.92ZM19.05,54.13c1.37-1.32,3.27-3.97,4.76-4.95.47-.31.98-.29.94.19-.03.43-4.35,5.21-5.71,4.76ZM21.34,54.51l4.19-3.81c0,1.89-2.55,3.35-4.19,3.81ZM22.1,44.99l.84-1.63,5.63-7.51c.63,4.02-3.95,6.64-6.47,9.14ZM69.72,34.7c.38.44-3.55,5.73-4.56,6.09.66-1.88,2.35-3.71,3.59-5.38.14-.19.41-1.39.98-.72ZM67.82,34.7c-.02,1.86-1.55,2.59-2.66,3.81-.82-1.04,2.26-4.25,2.66-3.81ZM63.24,37.75c.63.8-1.65,4.91-2.28,4.19-.41-.47,1.57-3.81,2.28-4.19ZM60.57,40.42h-.75s.61-1.87.61-1.87l2.82-4.23c.18,2.34-2.21,3.88-2.67,6.1ZM60.52,36.79l-.65-.37,3.04-5.33.64.37-3.04,5.33ZM63.34,27.37l-3.52,4.67c-.14-2.31,2.51-4.54,3.8-6.48l-.28,1.81ZM59.82,28.6c.04-1.49,1.58-3.37,2.58-4.46.38-.41.4-1.06,1.22-.87.56.59-3.01,4.83-3.8,5.33ZM60.15,26.15l-.69-.43,3.5-5.55.69.43-3.5,5.55ZM60.19,23.65c-.8.04-.22-1.06-.08-1.41.64-1.59,2.02-3.72,3.13-5.06.02,2.58-2.48,4.08-3.05,6.47ZM62.1,17.18l-2.66,4.19c.22-1.81.02-4.62,2.66-4.19ZM30.86,13.36h27.07v2.29h-27.07v-2.29ZM43.05,50.32c.63-1.04.63-1.89.38-3.04h3.05c-.32.56-2.95,3.49-3.43,3.04ZM43.62,53.36c-1.32-.88.77-2.82,1.49-3.64.46-.53,1.12-1.06,1.56-1.68.59.75-2.74,5.3-3.05,5.32ZM47.63,54.51c-.14-1.27-.7-2.62-.3-3.92.21-.7,2.73-2.37,2.2-2.93l-2.28,1.9v-2.29s2.8-.35,2.8-.35c2.16,2.13-2.1,4.19-2.42,6.45l3.04-3.05c.67,1.07-2.43,4.76-3.04,4.19ZM54.8,54.07l-1.52.24-.71-.45-.6-8.51-9.68.58c-.38.31-.5.69-.56,1.16-.26,1.95-.12,5.14.19,7.05-3.55.51-7.04.21-10.61-.05-.24-.52-.4-1.1-.45-1.68-.67-8.78.08-18.26.31-27.06.07-2.63-.67-5.45.52-8.12l26.24.33c.08,2.47-.12,4.98-.02,7.45.17,4.3,1.32,18.19.19,21.5-.26.77-1.36,1.54-1.73,2.46-.56,1.39-1.04,3.61-1.55,5.11ZM57.53,54.13l1.2-3.94,4.13-4.06c-.34,2.43-2.72,3.97-3.99,5.73-.54.75-.44,1.9-1.34,2.27ZM59.05,54.51l.99-2.25,4.53-5.75c.54.43.62.49.43,1.17-.1.37-3.99,5.72-4.48,6.2-.51.5-.51.82-1.47.62ZM61.34,54.51c-.26-.21,3.6-4.93,4-5.33.47-.49.94-1.23,1.71-1.14.11.63-.3,1.02-.6,1.49-.51.79-2.9,3.61-3.63,4.37-.5.53-.61.77-1.48.61ZM63.63,54.51l.9-1.39,4.06-3.94c-.07.95-4.08,6.05-4.95,5.33ZM69.18,44.82c-.35.47-1.2,1.09-1.56,1.68-.33-1.47,2.02-3.19,2.86-4.57.26,1.32-.62,1.97-1.3,2.88ZM69.92,38.14c-1.21,1.89-3.34,3.91-4.77,5.7.27-2.86,3.63-5,5.33-7.24.2.78-.23,1.03-.56,1.54ZM72.23,24.38l27.96-.34c.11.99-.54,1.07-1.31,1.16-3.89.46-9.25-.1-13.37-.03-3.29.06-5.81.08-9.11,0-.53-.02-4.26.56-4.4.4l.22-1.18ZM99.28,54.55l-23.46-.04c.87-1.45-.35-2.32-.38-3.43-.93-.31-1.67-.61-2.69-.56l-.74-21.15h27.81l-.02,10.87c.46,3.04.15,6.11.16,9.19,0,1.74.89,3.62-.69,5.11ZM95.08,27.45c-5.91-.06-11.64.19-17.54,0-1.73-.06-3.96.86-5.53-.56,5-1.54,10.7.25,15.8-.59l12.39.02c.39,2.46-3.43,1.15-5.12,1.13ZM105.52,1.94h24.43v3.07h-24.43V1.94ZM103.55,43.19c-.26.88-1.07,1.82-1.63,2.55-.89-.64-.34-.64-.12-1.25.4-1.15,1.42-2.02,1.46-3.31.72-.04.4,1.67.3,2.01ZM112.01,54.51c-.81,0-.26-1.45-.09-1.81.37-.79,1.82-2.24,2.38-3.14.23,2-1.85,3.13-2.29,4.95ZM111.63,51.85l.19-1.9,2.47-3.05-.42,1.67-2.24,3.28ZM115.83,54.51l.36-1.73,3.06-3.6c.42,2.46-1.8,3.98-3.42,5.33ZM115.83,51.85c.42-2.1,2.33-3.93,3.8-5.33-.3,2.04-2.34,3.98-3.8,5.33ZM115.83,49.17l.35-2.5,2.31-.16c-.56.74-1.18,1.48-1.79,2.18-.23.26.02.73-.87.48ZM120.4,53.37c-.08-2.41,1.31-4.41,2.86-6.1l.24.67.7-.3c.73.98-3.17,4.75-3.8,5.72ZM124.2,46.13c.21,1.41-.6.23-1.34.72-.99.66-1.47,2.05-2.46,2.71-.26-2,1.93-3.62,3.81-3.43ZM129.68,11.97c.29,13.92.41,27.77-.13,41.58.15,1.32-3.15,1.22-3.49.75-.62-3.09-.48-6.58.04-9.68h-15.81c-.38.24-.49.53-.57.95-.24,1.3.46,8.46,0,8.95l-3.45-.17c-1.29-2.38-.26-5.1-.33-7.64-.03-1.24-.4-2.32-.42-3.41-.22-12.26.16-24.52.02-36.78,7.22.45,15.14-.6,22.29,0,3.41.29,1.81,3.09,1.86,5.46ZM133.73,2.32c.42.7-1.81,3.56-2.28,3.04.07-1.23.69-3.34,2.28-3.04ZM134.11,7.27c.74,2.06-.96,3.26-1.31,4.53-.25.93.14,3.11-1.35,3.85.5-2.77.59-6.3,2.66-8.38ZM132.2,24.41l-.2-1.53,2.1-3.8c.44,2.18-1.57,3.33-1.9,5.33ZM132.01,30.13c.49-1.32,1.55-1.78,2-2.6.45-.83.03-1.63.86-1.97.47,2.73-1.77,4.55-2.67,6.85h-.75c.41-.71.3-1.58.57-2.29ZM132.96,34.7c-.62.03-.85.19-.75-.56.15-1.15,1.78-3.49,2.66-4.39.21,1.88-1.9,3.01-1.9,4.95ZM131.83,46.13l.29-1.8,2.37-3.91c-.3,1.96-1.44,4.16-2.66,5.71ZM131.83,41.56l3.42-6.1c.27,2.31-1.9,4.52-3.42,6.1ZM131.83,38.51l1.91-4.29,1.9-2.18c-.4,2.56-2.27,4.47-3.81,6.47ZM143.26,22.12c.14-.16.49.38.57.38h20.38v1.14s-6.29.79-6.29.79c-4.27-.63-10.01.69-14.09-.03-1.51-.27-.6-1.22-.57-2.29ZM165.16,26.32c.54,0,1.01,1.72.57,2.29h-27.24c-.08,0-.43.57-.57.38v-2.67s27.24,0,27.24,0ZM152.59,54.13c-.84-.35-.87-3.72-.79-4.59.05-.53.56-1.06.59-1.33.02-.16-.69-.13-.76-.42-.16-.7.09-1.66,0-2.42h1.91s-.35,5.55-.35,5.55l.72.32-1.32,2.88ZM167.26,53.94c-.24.37-1.37.57-1.71.57h-9.52l-.57-.57v-9.52c-1.32-1.17-3.64-.34-5.33-.57v10.67h-11.81l-.77-24.58,28.41.18,1.31.59v23.24ZM172.59,34.32c-.13,2.55-2.19,4.24-3.05,6.47h-.75c-.29-.25,2.95-6.05,3.81-6.47ZM170.54,44.27c-.47.7-.91,1.76-1,2.62-.8,0-.33-1.5-.17-1.89.41-.97,1.79-3.35,2.66-3.81,1.4,1.01-.82,2.09-1.48,3.08ZM168.78,50.32c-.22-.96,3.13-5.95,3.81-5.33l-3.81,5.33ZM174.96,41.08c.61-1.47,2.3-4.54,4.1-4.47-1.53,1.85-3.2,3.38-4,5.71-.9-.67-.35-.63-.1-1.24ZM181.35,36.22c.52.57-5.78,8.09-6.47,9.14,1.14-3.38,3.15-7.44,6.47-9.14ZM182.69,37.38c.2,0,.85.77.39,1.14-1.46,1.74-2.7,3.68-4.07,5.48-.3.39-.79.53-.95.74-.76,1.02-1.12,2.69-2.41,3.31-.52-1.79,6.38-10.63,7.04-10.66ZM175.64,54.13l4.57-5.33c.06,1.2-3.49,6.17-4.57,5.33ZM178.69,53.75c.58-.77.96-1.7,1.53-2.47.48-.65,1.42-2.05,2.28-2.1.24.98-3.2,5.17-3.81,4.56ZM180.84,45.24c-.78.74-2.61,2.5-3.68,2.23l6.47-7.81c.42,2.29-1.24,4.1-2.8,5.58ZM254.88,32.8c.26.25-1.99,3.64-2.66,3.81-.07-1.62.63-3.91,2.66-3.81ZM251.46,39.47c.25-.59,4.35-6.67,4.76-6.67,1.55,1.16.52,3.89-.35,5.17-.35.51-2.56,3.2-2.88,3.41-.54.35-.91.34-.77-.38.23-.35.8-.39,1.01-.7.64-.94,3.33-5.09,3.54-5.81.21-.7-.21-.6-.74-.55-.75,2.42-2.81,4.18-4.39,6.09-.28.06-.26-.39-.18-.56ZM250.31,8.41l-.19,1.9-4.37,5.72c.78-2.61,2.76-5.49,4.56-7.62ZM246.11,16.97l4.2-5.89c.13.73-.07,1.11-.37,1.73-.89,1.81-2.91,4.26-4.2,5.89l.37-1.73ZM246.17,20.09l4.13-6.34-.2,2.27-4.36,5.73.43-1.66ZM250.31,17.18c.43,3.28-2.51,6.11-4.56,8.38.03-3,2.78-6.15,4.56-8.38ZM246.5,28.22c-.77.05-.33-1.15-.17-1.5.69-1.52,2.86-3.97,3.98-5.35-.1,2.62-2.9,4.48-3.81,6.85ZM250.31,24.03c.17,3.11-3.23,5.18-4.19,8l-.17-1.89,4.36-6.11ZM245.91,33.92c.94-2.39,3.3-4.39,4.21-6.84.8.56.38.69.2,1.33-.82,2.84-3.07,4.47-4.2,7.05-.74.07-.34-1.2-.21-1.54ZM250.69,36.99c-.27,2.51-1.49,3.27-3.43,4.57-.28-.31,2.06-3.38,2.44-3.85.31-.39-.02-.96.98-.72ZM250.31,31.27c-.7,2.45-2.9,5.25-4.56,7.24.18-2.69,2.68-5.45,4.56-7.24ZM246.04,40.52l4.27-6.58c.39,3.49-4.35,5.18-4.19,8.76-.85-.07-.26-1.75-.08-2.18ZM193.55,54.13c-.64-.59,3.06-3.45,3.8-3.43.51.51-3.22,3.98-3.8,3.43ZM214.5,51.08c-3.38-.7-4.71-3.11-8.52-2.91-2.13.11-2.63,3.26-4.29,4.38-2.85-.26-1.19-2.61-2.21-3.41-1.76-1.38-3.34-.57-5.02-.39-3.44.36-3.95-.24-6.07,3.11-1.79-.5-2.49-2.32-2.85-4.01l.39-26.11,28.96.38-.38,28.96ZM214.89,20.22h-29.36v-2.59h29.36v2.59ZM222.12,52.61l.36-1.73,2.3-2.46c.26,1.95-1.54,2.98-2.66,4.19ZM228.21,44.99c.34.32-1.66,2.94-2.28,3.04-.13-1.81.18-3.19,2.28-3.04ZM228.59,46.51c-.18,1.7-1.18,3.69-2.66,4.57-.03-1.69,1.28-3.68,2.66-4.57ZM226.31,54.13c-.71-1.52.42-2.67,1.3-3.85.32-.43,0-.95.98-.72.59.77-1.58,3.9-2.28,4.57ZM242.21,49.71c-.09.78-1.56,2.24-1.2,3.69l-10.88.74v-10.1c-.34-.54-.76-.52-1.31-.59-.89-.11-7.32,0-7.83.22l-.61.74.19,9.11-.74.47-3.41-.22V4.22s27.37.06,27.37.06c.75.48.05,4.43.04,5.45-.04,8.96.17,17.75,0,26.67-.04,1.86.52,4.69.39,6.07-.14,1.52-1.89,2.83-2.19,3.94-.37,1.38.29,2.4.19,3.3ZM249.35,42.32c.43.09.63.61.4,1.14-.78,1.79-4.36,4.59-5.53,6.48-.59-1.62,4.26-7.8,5.13-7.62ZM244.8,50.72c.99-1.57,4.04-5.34,5.35-6.84.38-.44.59-.94,1.3-.79.12.65-.15,1.11-.43,1.66-1.34,2.57-4.88,5.98-6.8,8.25-.11-.9.11-1.52.58-2.27ZM246.28,52.96c1.02-2.38,3.91-6.11,5.82-7.88.43-.4.25-.69,1.26-.47l-7.05,9.51c-.97-.72-.27-.62-.03-1.16ZM248.41,53.75c-.13-.64.32-1.01.61-1.48.71-1.16,4.74-6.93,5.47-7.49.93-.71,2.23-.78,1.54.39-.94,1.6-3.51,4.69-4.79,6.26-.41.51-2.1,3.01-2.82,2.32ZM251.46,53.75l1.9-4,3.43-3.61c.23,1.66-1.3,2.35-2.06,3.46-1.01,1.46-1.65,3.25-3.27,4.16ZM253.36,53.75l3.43-4.95c.67,1.16-2.77,5.54-3.43,4.95ZM256.79,39.84c-.61,1.53-2.23,2.24-3.43,3.24l3.23-4.56c.76.54.46.65.19,1.33ZM292.22,28.23c.59.61-2.54,4.04-3.81,3.42.31-.54,3.35-3.9,3.81-3.42ZM291.07,25.94c-.03.53.48.95.21,1.51-.18.37-3.95,4.7-4.4,4.21-.21-.8.24-1.03.56-1.54.29-.46,3.31-4.45,3.63-4.18ZM265.34,24.39c6.04-.8,14.56.27,20.99.03.97-.03,1.86-.46,2.84-.39-.19,2.98-5.55,1.76-7.8,1.87-1.02.05-1.94.4-3.04.43-1.87.05-14.12.14-14.69-.4-.05-1.07.78-1.42,1.7-1.54ZM261.37,27.47l25.9-.39c-.99,2.74-2.45,1.53-4.37,1.5-6.79-.09-13.47.32-20.21.1-.39-.02-1.22.42-1.33.3v-1.51ZM284.99,51.57c-.63.3-1.5,1.42-1.92,1.6-.15.07-2.71.58-2.85.58h-5.91l-.74-7.08-4.18.26-.4,7.03-6.5-.22c1.06-3.07,3.59.31,3.82-4.4.17-3.38-1.74-2.74-4.43-2.11-1.07.96-.26,2.14-.16,3.28.03.42.27,1.42-.38,1.32.03-2.41-1.47-2.27-3.01-3.28l-.04-15.77c4.05.62,8.61.47,12.78.4,3.88-.07,7.85-.76,11.8-.4,2.12.19,1.97,1.26,2.11,3.23.35,5.03-.3,10.47,0,15.55ZM284.05,31.29l-25.36-.02v-1.14c.85-.03,1.63-.42,2.48-.42,6.4-.03,12.95.08,19.44.05,1.64-.01,3.27-.58,5.13-.02.08.96-.84,1.55-1.7,1.54ZM286.68,37.35c.48-1.22,1.76-3.24,2.69-4.16.9.69.38.56.03,1.17-.85,1.49-2.19,2.78-2.51,4.53-.74.07-.34-1.21-.21-1.54ZM286.51,41.55c1.23-3,2.74-8.9,6.86-7.99-1.89,2.32-3.88,3.03-5.49,5.75-.51.86-.24,2.46-1.37,2.24ZM286.88,43.28c.3-.3,1.98-3.96,2.67-3.24l-1.14,2.28c.6.59,1.87-1.94,1.91-2.28l.31.88-3.74,5.22c-.1-.98-.08-1.87.76-2.48l-.77-.37ZM287.87,46.16l3.21-3.45-3.04,4.75-1.14.96.98-2.26ZM287.65,53.37c.95-1.82,1.99-3.65,3.42-5.15.23-.24,2.75-2.84,2.67-1.13,0,.2-2.17,2.21-2.51,2.62-.42.5-3.02,4.19-3.57,3.67ZM289.94,53.75c.53-2.75,3.29-4.21,4.76-6.47.94.53,0,1.31-.42,1.86-1.2,1.59-2.77,3.36-4.34,4.61ZM291.84,53.75c.28-.81,4.03-5.09,4.57-4.56.24.23-3.83,5.22-4.57,4.56ZM342.51,34.32c.98,1.13-5.02,7.88-6.47,8.38-.1-.7.39-1.19.77-1.71,1.42-1.97,3.06-3.81,4.5-5.79.34-.47.39-1.06,1.2-.89ZM340.81,30.91c.48-.42.64-.5,1.31-.39.11.96.04,1.6-.35,2.5-.9,2.08-5.32,6.26-6.91,8.34-.39.51-.1,1.39-.74,1.35-.01-.79-.1-1.59.1-2.37.28-1.1,5.61-8.58,6.58-9.42ZM339.84,30.13l-6.47,9.14c-.33-3.67,3.61-6.11,5.13-9.19l1.34.05ZM337.18,30.51l-3.81,4.57c-.35-3.2.19-5.08,3.81-4.57ZM331.08,19.08c.03,1.76-1.54,3.65-2.66,4.95.07-1.68,1.33-3.95,2.66-4.95ZM331.08,22.13c-.53,1.73-1.43,4.06-2.66,5.33.1-1.74,1.26-4.28,2.66-5.33ZM326.51,12.81l.02,2.31-27.07.19-.02-2.3,27.07-.19ZM315.08,50.7c-.38-1.84.93-2.85,2.28-3.81.26,1.58-1.29,2.75-2.28,3.81ZM318.89,53.37c-.37-1.8,1.05-2.93,2.1-4.19l.11,2.59-2.2,1.6ZM318.51,50.32c-.75-.9,2.03-3.56,2.66-4.19.42,1.9-.81,3.64-2.66,4.19ZM326.41,53.66l-3.33-.29v-8.95l-.57-.57h-8.38c-.07,0-.95.88-.95.95v8.57l-13.27.32c-.05-.28-.44-.75-.44-.9V16.79l26.88-.02.91,36.37-.84.52ZM328.91,33.48c.11-.46,1.66-6.22,2.55-5.25l-.24,3.34-2.8,5.42c-.03-1.18.21-2.37.49-3.51ZM331.84,36.99l-3.42,6.86c-.06-2.39,1.86-5.08,3.42-6.86ZM330.33,42.31v-.56s1.51-1.72,1.51-1.72c1.02,3.16-1.38,5.16-3.04,7.62l2.29-5.15-.76-.19ZM332.21,46.4c.25-.24,3.14-2.08,3.45-1.79.51.48-4.97,6.51-5.52,7.24-1.38-.6,1.51-4.91,2.07-5.44ZM332.67,50.2c.47-.65,4.51-5.96,5.27-5.2l-1.33,2.29-5.91,6.09c.36-1.06,1.29-2.25,1.97-3.17ZM339.27,45.75c.69,1.31-1.04,2.64-1.87,3.65-1.17,1.42-2.95,3.58-4.79,3.97l6.67-7.62ZM336.82,52.82c-.52.38-.8.7-1.54.55.5-.46,4.71-6.02,5.33-5.33.79.86-3.08,4.26-3.79,4.78ZM339.4,43.4l-1.07-.32c-.56-.64,5.26-5.66,5.01-7.17l2.22-.06c.77.64-5.74,6.94-6.16,7.56ZM342.34,42.34c.13-.33,3.74-4.99,4.28-5.63.28-.33.41-.99,1.04-.86,1.02.62.21,1.67-.25,2.41-1.29,2.06-3.68,4.43-5.27,6.35-.04-.78-.1-1.51.2-2.27ZM347.1,40.24l1.51-1.34c-.9,3.18-4,6.21-6.47,8.38l4.96-7.04ZM343.28,49.56c-.32-1.85,1.48-2.56,2.44-3.84.62-.83,3.07-5.08,3.84-4.92.45.1.63.74.5,1.25-.09.35-3.05,4.28-3.54,4.85-.33.38-2.85,3.1-3.24,2.66ZM350.43,48.52c-.25.58-.85,1.1-1.22,1.63l-3.27,3.21c.52-2.59,3.18-3.52,4.18-5.91.66-.56.38.87.3,1.06ZM345.56,50.7c-.2-.78.23-1.03.56-1.54,1.02-1.59,2.95-3.65,4.39-4.94.87,1.39-4.66,6.85-4.95,6.48ZM77.54,51.1c1.07-.09,2.16.01,3.23-.02v-7.62l-4.91.04c-.07,1.95-.05,3.92-.04,5.87,0,.59-.39,1.27-.38,1.71,2.03.68.68.14,2.11.02ZM79.25,44.6v4.97s-1.91,0-1.91,0v-4.97s1.91,0,1.91,0Z"/>
        <path d="M240.03,43.47l-5.93.35-.19,6.7c1.11.06,5.17.37,5.78-.37.63-.76-.68-5.21.34-6.69ZM235.49,48.76l-.04-3.78h2.67s.38,3.81.38,3.81l-3.01-.03Z"/>
        <path d="M220.21,32.22v6.48c.42.67,1.02.53,1.7.59.73.06,1.52,0,2.24-.08l.63-.51v-7.05c-1.47.2-3.47-.54-4.57.57ZM223.27,37.37h-1.16v-4.2h1.16v4.2Z"/>
        <path d="M240.03,32.22c-.29-1.49-2.43-1.01-3.56-1.28-1.74.51-.11,6.84-.64,8.33l4.03-.36c.24-.35.31-5.97.17-6.69ZM238.31,37.74c-1.81-.61-.66-3.04-.96-4.57h1.14l-.19,4.57Z"/>
        <path d="M228.21,15.27l-.19-6.1c.48-.96,2.93-1.04,3.64-.58.78.51.94,5.18.57,5.91-.62,1.24-2.9.66-4.02.77Z"/>
        <path d="M231.97,31.33c-.24-.15-2.71-.14-3.19-.05-1.62.29-.58,1.66-.55,2.84.06,2.63-1.04,6.5,3.17,5.11.75-.25,1.02-4.14,1.03-5.09.01-.97-.02-1.92-.46-2.81ZM230.61,36.54c-.19.67.12.99-.87.82.1-1.16-.15-2.5,0-3.62.06-.53.22-1.13.76-.56.27,1.33.49,2.01.11,3.36Z"/>
        <path d="M236.21,19.64c-1.04.63-.78,5.38-.32,6.63l4.14.05v-5.91c0-.97-2.98-1.27-3.82-.77ZM238.44,24.54l-1.07.63v-3.43s1.14,0,1.14,0l-.06,2.8Z"/>
        <path d="M220.65,20.28c-.02,1.14-1,5.99.19,6.37.57.18,3.47.41,3.94-.14v-6.67l-4.14.43ZM222.12,25.18l.06-2.8,1.07-.63v3.43s-1.14,0-1.14,0Z"/>
        <path d="M228.18,23.88c.05.69-.53,1.34-.18,2.05.56,1.16,2.88.76,3.98.73l.26-6.46c-4.86-1.15-4.31,0-4.06,3.68ZM230.5,25.17l-1.07-.64-.06-2.78c2.3-.28,1.18,2.11,1.14,3.43Z"/>
        <path d="M224.35,8.47c-.85-.07-3.49-.36-3.76.52v6.29l4.02-.36-.27-6.45ZM223.27,13.75h-1.16v-3.44h1.16v3.44Z"/>
        <path d="M235.88,8.84c-.61,1.98-.02,4.04.12,6.08l3.59.3.27-6.07-3.98-.32ZM238.51,13.75h-1.16v-3.44h1.16v3.44Z"/>
        <path d="M309.37,43.84h-6.1v7.62h5.52c.39-.29.42-.33.42-.78,0-2.2-.69-4.61.16-6.84ZM304.79,49.56v-3.81s2.5.36,2.5.36l.17,3.46h-2.67Z"/>
        <path d="M307.67,32.01c-.41-.59-4.9-.64-5.17.22v6.48c0,1.12,4.55.06,5.34.19l-.17-6.88ZM306.14,37.39c-3.57.99-1.35-2.05-1.73-4.21l1.85.44-.12,3.77Z"/>
        <path d="M311.27,39.28c1.47-.2,3.47.54,4.58-.58v-7.05c-7.35-.97-4.11,2.75-4.58,7.62ZM312.81,37.74l-.39-4.56,1.29.05.56.58.05,3.95h-1.51Z"/>
        <path d="M307.1,20.77c-1.14-.24-3.84-.57-4.42.6l.2,6.86,4.41-.36-.19-7.09ZM305.94,26.7h-1.51c-1.46-6.11,2.3-6.32,1.51,0Z"/>
        <path d="M315.47,21.17c-.67-.58-4.25-.95-4.8-.2l.22,6.87c1.1-.22,4.24.78,4.75-.38.21-1.2.56-5.66-.18-6.29ZM314.31,26.7h-1.9v-4.58s1.9,0,1.9,0v4.58Z"/>
        <path d="M318.89,31.65v7.05c.83,1.04,2.26-.29,3.59.53l.6-.53v-7.05h-4.19ZM321.49,37.11l-1.07.63v-4.19s1.14,0,1.14,0l-.06,3.56Z"/>
        <path d="M318.89,21.18v6.67h4.19v-5.91c0-1.61-3.32-1.64-4.19-.76ZM321.17,26.32h-1.14s.06-3.55.06-3.55l1.07-.64v4.19Z"/>
        <path d="M193.89,33.91l-.14-6.85c-6.51-2.74-4.31,2.3-5,6.51l5.14.34ZM190.66,28.58l1.74-.36v3.81s-1.9,0-1.9,0l.17-3.45Z"/>
        <path d="M197.03,38.18c-.68.43-.5,6.1-.27,7.21.38.56,4.56.7,5.17-.21v-7.05l-4.9.05ZM198.12,44.23v-4.19s2.28,0,2.28,0l.22,3.83-2.5.35Z"/>
        <path d="M188.97,39.46v6.29h4.95v-7.05c-.86-1.12-4.95-.77-4.95.76ZM191.83,44.22c-1.94.61-1.23-3.23-1.33-4.19l1.85.62c.03,1.15.46,2.72-.52,3.56Z"/>
        <path d="M209.67,38.12l-4.31.39v6.67c1.21,1.14,3.37.35,4.95.57v-6.67c0-.11-.39-.89-.64-.96ZM208.77,44.22l-1.47-.05-.4-4.12,1.88-.4v4.57Z"/>
        <path d="M205.35,26.7v6.86l4.95.38v-7.05c-1.25-1.14-3.46-.53-4.95-.19ZM206.88,32.41v-4.19s1.9,0,1.9,0c-.13,2.13,1.48,4.77-1.9,4.19Z"/>
        <path d="M196.78,27.46c-.37.77-.32,5.68.25,6.04l4.9.05v-6.86c-1.53.3-4.29-1.01-5.15.76ZM198.47,31.87c-.69-.49-.24-2.78-.35-3.65l2.23.05c.96.59.67,5.38-1.88,3.59Z"/>
        <path d="M281.1,37.45l.29,4.9-4.41.36.17-5.36c.5-.72,3.18-.39,3.95.1Z"/>
        <path d="M281.52,51.43l-4.17,1.01c-.85-.52-.46-5.45-.01-5.76l4.05.19.14,4.57Z"/>
        <polygon points="273.94 37.37 273.5 42.65 269.72 42.53 269.54 37.35 273.94 37.37"/>
        <path d="M261.74,42.7v-5.33c5.44-.45,3.92.47,4.53,4.73-.27,1.15-3.44-.14-4.53.6Z"/>
      </g>
    </g>
  </g>
</svg>