<?xml version="1.0" encoding="UTF-8"?>
<svg id="Layer_2" data-name="Layer 2" xmlns="http://www.w3.org/2000/svg" viewBox="0 0 342.71 114.49">
  <g id="Layer_1" data-name="Layer 1">
    <g>
      <g>
        <path d="M333.61,110.46c.58-1.32.98-2.62.19-3.95l-4.89-.43c-.06-.93-.04-3.5-1.09-3.87-1.82-.38-3.13,1.2-4.29,2.32-1.26.03-.12-5.41-.37-6.33-.68-2.52-5.83-2.7-7.5-1.54-.15.11-1.88,2.57-2.15,2.99-.86,1.33-.16,2.56-2.82,2.12v-12.04c0-1.2-4.13-1.01-5.13-1.39-.43-.48,2.06-2.97.8-3.76l-6.73-.58c.58-.7,0-6.78-1.18-5.52l-.59,5.17-5.17.75c-.35.47.3,4.43.26,5.34-.06,1.42-.18,5.15-2,4.55v-5.73l-4.74-1.39.36-15.93-5.3-2.62,1.02-2.16c-.25-2.69-8.34-1.57-10.3-1.79l-.05,5.28c-.34.99-1.78.51-1.93.65-.28.27,1.42,4.72.21,6.74-.89.3-3.46.35-3.97-.41l-.24-20.28c-.2-.83-4-2.96-5.07-2.65l.21-2.75c-.88-1.8-5.97-1.2-7.75-1.02-.68.49-.11,1.94-.55,2.61-.36.55-2.57.71-3.01,1.43-2.04,3.35.55,22.14-.36,23.04l-2.71-.45c-.57-.92.36-11.26-.07-13.56-.4-2.17-3.4-1.75-3.56-2.44l-.06-20.4c-2.31-2.63-5.57-3.81-9.01-2.64v-8.89c0-.19-.49-1.22-.79-.99v9.28l-1.97.59v-10.07s-.79-2.97-.79-2.97v13.03c-3.06.42-2.11-2.8-2.57-4.74-1.3,1.05-.06,3.69-.77,4.75l-2.49.86-.31.66-.57,21.76-8.64-.83-.02-35.26-2.2-1.03c-.38-.77-.04-2.52-.68-3.07-.38-.33-1.67-.19-2.09-.88-.63-1.05.46-2.49-.95-3.79-1.28-1.18-3.16-.92-4.74-.99l-.43-11.82h-1.58l.34,11.8-3.5.85.39,4.33-3.12.04.36,3.12-2.79.25c.21,9.08-.11,18.14,0,27.22.03,2.22.94,6.86.16,8.77-.43,1.06-1.51,1.23-1.68-.43-.42-4.2-.19-10.67-.06-15.08.03-1.08.71-2.51.37-3.48-.22-.6-1.89-.99-2.59-1.57-1.16-.97-6.2-5.91-6.63-6.99-.75-1.86.93-5.37-1.79-5.12-.08,1.86-.02,4.92-.7,6.61-.93,2.31-6.45,5.91-6.22,8.02l.45.78c1.88-.29,3.63.42,5.48.41,1.33,0,2.51-.45,3.93-.44.59,0,1.58-.33,1.39.6-3.64,1.71-8.06-.2-11.84,1-.02-4.13-.12-8.31-.02-12.46.17-7.08,1.47-15.86.98-22.75-.19-2.63-1.5-1.45-3.14-2.7l-.58-3.56h-4.34c-.56,1.05.39,2.02-.62,2.72-2.16,1.51-8.19,1.99-10.82,2.81-.83-2.83,1.69-4.46,4.19-4.61,1.99-.12,1.24.6,3.38-.41.21-.1,2.1.6,2.69-.5h-8.29c-2.87,1.43-4.36,1.9-4.12,5.55-.47.68-3.78.23-3.78,2.54v28.24l-3.19-1.04c-.9-1.25-.53-7.25-.75-9.04-.09-.72.14-.64-.79-.58v7.31c0,.14-.33,2.59-.37,2.72-.12.44-1.08.15-1.42.61-1.33,1.82.09,11.92-1,12.65l-3.12-.41.31-27.75c-.29-.84-3.15-1.48-4.16-2.16-2.59-1.73-.29-2.69-.99-4.93-.36-1.17-1.96-1.13-2.33-1.72-.87-1.4-.18-3.9-1.35-5.26l-.2,4.74-6.31-.4c-.11-.78-.19-1.56-.26-2.35-.21,0-.42,0-.63.01.06.97.01,1.73-.26,2.11-1.18.59-2.69-.19-3.88.74-1.12.88-.46,4.68-.51,6.2l-1.58-.79.19.79c-1.2-.66-2.69.09-2.95,1.39l.21,43.66c-.42.6-3.98.58-4.39,0l-.23-8.46c-.3-.88-3.11-.8-3.49-2.83-.43-2.29.51-6.08-.09-8.2-.56-1.95-5.76-5.94-6.8-7.82-.86-1.55-.75-4.11-1.02-5.89-.86-.15-.8.06-.99.77-.33,1.22-.03,3.3-.71,4.25-.23.32-1.16.68-1.67,1.3-2.24,2.75-4.17,5.77-6.69,8.31l-.58,7.7c-.83-.39-1.99.41-1.99,1.17v14.41h-4.74v-6.12l-3.55-1.38v-6.32c-1.37-.34-2.63-1.15-4.1-1.15-2.29,0-7.34.28-9.5.77-2.58.59-1.47,4.05-1.97,5.93l-2.99.56c-.46.43-.67,1.01-.75,1.62-.6,4.04.13,9.18-.01,13.42-.06,1.69-.87,3.12-.02,4.92l-3.78-.76c-.75-1.08.89-3.79-1.73-4.58-1.3-.39-7.78-.38-9.32-.2-.42.05-.91,0-1.19.39l-.24,4.7-2.82.11-.86,1.09-.2,15.05h-2.38c.05-1.14.03-5.51-1.03-5.87-.52-.18-9.68-.22-10.13.02-1.45.76-1.01,3.98-1.07,5.46l-2.52.06-.59.59-.44,6.68c-5.8-2.35-10.04,1.26-11.85,6.7-1.34.39-2.75.12-4.14.21-.48.03-.93.62-1.2.62-.34,0-1.21-.99-2.34-.67-.4.59-.98,2.03.03,2.34,41.72-.07,83.43.27,125.15.07,17.81-.08,36.1-.72,54.06-.81,50.61-.27,101.45,1.2,152.05-1.58,3.63-.2,7.32.41,10.89-.56v-1.21l-9.09.21ZM182.75,35.43c.03.91-.97,1.61-1.57,2.18-.73.7-2.18,1.86-3.16,2.16.3-.69,4.38-4.7,4.74-4.34ZM185.12,37c-2.26.6-3.29,3.28-5.52,3.56-.18-.78.4-.94.82-1.35.49-.47,3.48-3.33,3.72-3.39.58-.13,1.13.6.98,1.18ZM14.13,106.12c-1.35,1.69-2,3.98-3.95,5.13-.38-1.04,3.27-5.76,3.95-5.13ZM10.97,112.43l3.78-5.5,1.35-1.21-2.19,3.93c-.54.29-2.29,3.42-2.93,2.78ZM12.94,112.43c1.6-2.06,2.74-4.65,4.74-6.31-.46,1.92-2.12,3.99-3.47,5.41-.38.41-.39,1.12-1.26.9ZM14.92,112.83c-.06-1.62,1.45-2.64,2.3-3.81.88-1.21.35-2.57,2.43-2.1.58.48-4.03,5.45-4.74,5.92ZM25.58,93.87l5.54.18.32,1.12-.73,1.86.78.19c-.48,1.26-4.72.9-5.5.39-1.42-.94-.11-2.24-.42-3.74ZM32.27,112.81c-.36-.02-2.36.4-1.95-.57l2.36-2.57-.41,3.14ZM32.21,108.98l-3.67,4.24c-.95.15-.51-.33-.48-.89.19-3.21.39-6.48.39-9.67l-.89-.49c-.19,2.37.59,5.01-.79,7.1.21-.06.82-.13.79.2-.37,1.82-.9,3.65-3.16,3.35l2.37-3.55c-.97.28-3.85,4.47-4.74,3.55-.61-1.8,1.86-2.32,1.38-3.55l-1.77,1.58c.27-1.99-.23-10.12.96-11.11,4.93-.53,9.92-.42,14.83.05l-3.76,4.34-.2-2.76c-1.13-.37-1.81,1.78-2.03,1.9-.17.09-1.02-.58-1.33.06-.42.64-1.48,6.58.6,6.33l.8-2.56-.79.2c-.29-.38.99-4.5,1.97-4.74l-.48,6.42ZM33.48,107.7c-.16-1.58-.08-3.33,1.97-3.16.45.45-1.22,2.97-1.97,3.16ZM35.45,106.91c1.01.89-1.47,3.8-2.36,4.34.26-1.67.72-3.52,2.36-4.34ZM37.83,108.3c-.29.54-3.81,5.06-4.35,4.53l1.41-2.34,3.33-3.98c.15.76-.05,1.16-.38,1.79ZM44.34,78.47h5.73c.35,4.58-2.03,4.63-5.92,4.34.15-.79-.99-4.34.19-4.34ZM44.14,105.33l-1.19-.2,2.76-3.36c-1.46.31-1.8,1.78-3.54,1.59.14,1.99.69,3.17-1.2,4.53l-.79-.41.02-23.05,12.58-.39.26,14.99c-.19.58-5.41,6.03-5.96,6.3-1.06.52.03-2.19-.19-2.36l-1.2.17c-1.01.96.3,2.31-.16,3.36-.62,1.41-4.16,3.31-4.75,5.15-1.98-3.2,2.54-3.82,3.36-6.31ZM42.76,112.48l-1.38-.04c-.36-.37,2.92-3.53,3.36-3.95.3-.29.98-.28,1.24-.52,1.11-1.01,2.67-4.34,4.48-3.42-.49-2.1,1.63-2.1,1.98-3.55.4-.24,1.12,1.18.71,1.9l-3.28,2.83-.59-.79c-.24,3.27-4.78,4.8-6.52,7.54ZM47.3,112.83l5.92-5.92c-.06,2.21-3.66,5.83-5.92,5.92ZM52.65,106.14c-.42.64-6.08,5.94-6.72,6.31-.63.37-1.07.47-1.8.37-.14-.69.36-.97.78-1.39,2.07-2,4.93-2.97,5.74-5.32l2.56-2.37c.17,1.08.01,1.52-.56,2.39ZM56.19,84.78c.3-.5-.08-1,.98-.78.07,1.63-1.54,3.68-2.76,4.74.05-1.35,1.07-2.78,1.78-3.96ZM55.59,104.14l-.79-.2c-.22-1.72,1.97-3.1,3.16-4.14.25,2.03-1.99,2.65-2.37,4.34ZM54.41,92.69l.9-2.45,2.65-4.66c.47,3.22-1.67,4.78-3.55,7.11ZM103.37,89.14c.23,1.58-.78,3.33-1.97,4.34-.24-1.68.65-3.33,1.97-4.34ZM103.18,85.58l.2,3.16h-1.98c-.3-1.56.82-2.21,1.78-3.16ZM96.89,39.4c.33-.34.36-.56.96-.41.01,2.04,1.48,2.71,2.01,4.54,1.48,5.13-5.53,2.87-8.32,2.95,2.01-1.8,3.61-5.32,5.36-7.08ZM101.01,47.67c.56.58-.16,4.95-.01,5.67.08.41,1.21.02.8,1.05l-8.29.79c-.6-1.04.67-3.25-.99-3.55-1.26-.23.36,2.09-.65,2.71h-1.48s-.43-6.26-.43-6.26c3.68.68,7.35-.13,11.06-.4ZM88.77,94.66h-1.18c-.19-1.79.59-3.59,1.97-4.74.69,2.04-1.58,3.07-.79,4.74ZM82.04,81.42l3.56-5.32c.98,3.1-2.04,5.05-3.94,7.11l.38-1.79ZM79.11,71.76c.28-.57-.08-.99.97-.79-.07,1.91-1.4,3.85-2.76,5.13.49-1.4,1.15-3.01,1.79-4.34ZM64.32,57.59l8.07-.46-.19,4.58c-2.73.32-5.58,1.13-8.29.13l.41-4.26ZM65.07,107.3c-.5-.46,3-3.64,3.55-3.95.74,1.27-2.81,4.62-3.55,3.95ZM69.02,100.79c.12,1.49-1.95,3.19-2.98,4.13-.37.34-3.07,2.64-3.34,2.38l5.14-5.73c.32-.23.27-.81.38-.98-.34.1-4.79,3.88-5.42,4.46-.33.31-.28,1.01-.62,1.35-.26.26-2.41,1.93-2.65,1.69l1.97-4.14-1.17-.99c2.1.92,2.14-.18,2.67-.36.71-.25,1.69-.29,2.46-.43l-.38-1.14,3.54-3.2-4.94,3.55c-.29.06-.27-.41-.19-.58.4-.86,3.88-3.03,4.55-4.15,1.16-.26,1.09,2.73.95,3.3-.07.28-.53.29-.76.65.21-.06.82-.13.79.2ZM68.34,95.17c-.95.6-3.9,4.41-5.44,5.43-.4.26-2.65,1.08-2.96.18,1.73-.02,2.49-1.57,3.55-2.77-1.18-.41-2.09,1.64-2.96,2.18-.34-.38-.38-1.28-.43-1.81-.96-10.02.58-21.37-.17-31.58l.49-2.48c3.39-.85,6.93-.34,10.41-.45,1.07-.04,3.68-1,4.35-.04l.12,31.17-5.08.45.2-1.18c-.46.85-1.58.6-2.06.9ZM71.27,112.45c-.26-.08-.67-.89-.67-1v-14.41l19.5-.81c1.2.32.3,7.85.28,9.34-.02,2.1.37,4.69.35,6.87l-19.47.02ZM90.35,94.46l3.36-3.74.19,3.55-.78-.78c.19,1.86-1.62,2.12-2.77.98ZM95.08,97.83c.16.17-1.65,3.84-2.36,3.95-.24-1.62.56-3.66,2.36-3.95ZM92.32,112.04l.45-1.72,3.49-4.2c-.36,2.57-1.86,4.47-3.94,5.92ZM95.68,102.97c.8-.09.3,1.07.2,1.37-.49,1.5-1.89,3.53-3.16,4.55-.64-.92,2.62-5.88,2.96-5.92ZM92.72,105.33c-.72-1.15,2.9-6.24,3.55-5.53.62.68-2.63,5.03-3.55,5.53ZM98.25,101.38l.81-2.17-.79-.77,1.95-2.2c.18,2.09.09,4.04-1.97,5.13ZM101.4,60.11c-.03-.61.37-1.56-.58-1.37-.7.46-.56,1.06-.62,1.75-.58,7.1.89,15.23.29,22.1-.1,1.12-2.51,2.01-1.65,3.4l1.38-1.97v7.31c0,.13-1.72,1.3-1.97,1.78l-.6-33.56c-1.29,1.22-.31,3.27-.35,4.6-.17,6.45-.31,12.88-.26,19.3.02,2.42,1.24,10.68-.64,12.05-.64.46-1.66.56-2.1-.22l2.37-5.52c-.54-.4-.79.98-1.38,1.39-.51.35-.87.37-1-.21-.24-1.15,1.6-1.97,1.58-3.15l-1.18.59-.4-27.85-.79-.58c.04,6.65-.06,13.31-.02,19.96.02,2.19.91,4.44-.39,6.29l.79-.2c.11,1.72.1,3.29-1.01,4.72l-2.15,2c.67-2.41-.83-4.03,1.19-6.11l-1.18.59v-28.04c-1.16-.31-1.16,1.37-1.21,2.15-.57,8.66,1.1,18.08.23,26.87-.18.79-1.18,2.65-2.18,2.57v-33.96l15.8-.4v27.44c-.1.36-1.48,2.81-1.97,2.18.1-.77-.18-1.77-.01-2.48.11-.49,1.67-.5,1.19-1.86l-1.58,1.18c.12-.72.4-1.39.41-2.15.15-6.63.26-13.97-.02-20.56ZM102,108.48c-.67-.3-.17-1.59-.02-2.08.31-1,1.16-1.85,1-3.04l-.79,1.97-.77-.97,1.96-2.97c-.36,2.52.77,5.05-1.38,7.1ZM101.79,100.58c-.73-.15-.45-2.52-.33-2.91.05-.14,1.68-1.72,1.91-2.22.36,2.13-.69,3.41-1.58,5.13ZM243.31,67.67c.2-.77.76-1.13.96-1.73.23-.68-.27-2.03.48-2.07.35.7-.36,3.32-.29,3.48.06.13,1-.14.63.99l-1.71,2.24c-.04-.7-.22-2.28-.06-2.91ZM240.61,66.61c.13-.24.41-1.5.99-.77.42.52-1.43,3.39-1.5,4.21l-1.65,2.49c.32-1.87,1.26-4.26,2.16-5.94ZM225.79,40.43c.21-.91,9.52-.9,11.08-1.06-.08,7.7.09,15.42,0,23.13-.03,2.63-.42,5.69-.41,8.27.01,2.48,1.51,5.61-1.58,7.31v-35.93s-1.01.39-1.01.39l.23,36.55-1.6,3.34c-1.92-.66,1.39-3.77,1.19-3.94l-1.97.78c1.48-1.35-.07-2.19.08-3.66.1-1.03,1.12-1.77,1.11-2.85l-.79.58c.21-1.17-.19-2.33-.25-3.42-.46-8.46.17-17.07-.15-25.61-.02-.48.3-1.47-.39-1.37-.21.72-.37,1.39-.41,2.15-.43,7.23.39,15.36.28,22.7-.03,1.96-.38,3.87-.44,5.75-.1,3.21,1.22,7.02-1.6,9.27-1.16-1.04-.64-2.52.19-3.54l-.81-.23,1.99-5.31-1.97,2.37.78-3.77c-1.04-.19-.31-.92-.98-1.32-.8-.49-3.07-.5-3.29-1.46l.71-29.12ZM232.32,89.92c-1.27-.78.08-1.51.05-2.16-.02-.27-.56-.6-.54-1.1.11-2.24.42-3.83,2.07-5.42l.55,1.94-.75.42,1.97-.59c-1.63-.73-1.13-5.23,1.18-5.33l-.79,2.96.79-.2v3.95s-3.95.4-3.95.4c.48,1.72.89,3.76-.59,5.12ZM230.93,87.56c-.08.87-.07,2.48-1.18,2.38l.78.98-1.97,2.18c-.24-1.43.48-2.65.79-3.95-.17.06-.83.13-.78-.2l1.18-5.34.78.4.39-1.98c.68,2.14-.89,3.29-1.31,4.81-.24.88-.12,1.67-.26,2.3.82-.3.79-1.33,1.58-1.58ZM223.03,82.03h-.78s4.74-7.9,4.74-7.9c-.26,2.89-3.32,4.98-3.95,7.9ZM226.98,76.89c.13,3.23-2.43,6.24-4.34,8.69l.22-1.95,4.12-6.74ZM224.29,85.04c.28-.49,1.52-1.88,1.88-2.52.29-.5.09-1.67.81-1.67l-.21,2.75-4.52,6.73c.11-1.99,1.08-3.64,2.03-5.28ZM223.34,94.38l3.64-5.64c.65,3.68-2.88,5.88-3.95,9.08-1.74.34.57-2.42.31-3.44ZM226.98,87.16v.78c-1.97.86-2.42,4.21-4.34,5.54.17-3.06,2.75-5.87,3.95-8.68.73-.09.43,1.74.29,1.9-.11.13-.48.09-.69.08l.78.39ZM224.62,72.15l1.58.4-2.97,5.93-.98.78c-.27-2.65,2.05-4.55,2.37-7.11ZM221.86,75.71l.4-3.95h1.57l-1.97,3.95ZM223.35,66.15l-3.86,2.84c1.31-1.59,2.78-2.88,3.75-4.74l.11,1.89ZM215.95,64.66l.77.39c-.19-1.65,3.36-4.63,3.51-2.01-.96-.04-.37.58-.89,1.21-.29.35-3.22,3.3-3.4,3.16v-2.75ZM222.24,63.07c-.4,2.94-3.74,5.27-6.31,6.31l6.31-6.31ZM205.66,17.26l.39,2.76-4.28.34-.02-3.06,3.91-.04ZM199.42,22.07c.66.15,1.77-.47,2.1-.47h6.12l.37,1.34-.56.63h-8.49l.47-1.51ZM199.94,78.47l-3.56,3.55c-1.06-2.52,1.72-4.57,2.97-6.71-1.73.25-2.07,1.83-2.76,2.96-.69,1.13-.81-2.25.52-3.23.48-.36,1.44-.41,2.05-.53l.2.8c.16-.28,1.16-.52.79-1.58-.87.05-1.99-.21-2.77.19-.69.34-.49,1.38-1.17,1.39V28.71c2.14.42,5.04.22,7.3,0,1.16-.11,2.4-.25,3.56-.39.54-.07,1.26-.28.58-.78l-11.24.39-.44-.81c.23-.56.32-1.15.86-1.53,1.2-.85,7.86-.35,9.86-.4.97-.03,2.51-.93,2.89.24l.06,43.97h-7.7l-.59.59v7.11c0,2.35-2.07,4.18-3.33,6.14-.69,1.07-.79,2.63-2.19,3.14.34-.97-.07-1.99.43-2.9.78-1.44,4.33-2.83,3.72-5ZM199.48,87.3c-.67.84-1.01,1.95-1.92,2.63-1.78-.32.26-.95.56-1.4.51-.78.91-2.72,1.02-2.91.42-.72,1.45-1.91,2.17-2.4.7,2.94-.81,2.79-1.84,4.08ZM201.31,86.77l-.45,3.5-1.92-.14,2.36-3.36ZM198.16,85.19l1.24-2.9,1.72-2.23c.35.32.28,2.17.14,2.31-.15.16-.91.02-1.31.43-.11.11-.55,2.29-1.79,2.39ZM186.01,72.87c.04.07.68.05.72.31l-.47,2.09h-1.88c-.92-1.91.85-2.52,1.73-3.9.62.3-.26,1.2-.1,1.51ZM184.54,71.36c-.99-.66.09-1.79-.2-2.77,1.09.75,1.34-.35,2.36-.39.32.93-1.3,3.33-2.16,3.16ZM186.71,60.71l-.18,2.38-2.21.19c-.57-1.82.44-3.02,2.39-2.57ZM184.34,59.52v-2.76l2,.18c.81,1.52-.18,2.91-2,2.58ZM186.68,66.98l-2.35.44.18-2.4,1.82-.15.34,2.12ZM186.71,55.57l-1.6-.17c-.66-.45-.3-2.2-.37-2.99h1.98s0,3.16,0,3.16ZM186.52,51.24c-.23.45-1.69,0-1.75-.06-.8-.88.73-3.02,1.93-3.12l-.18,3.18ZM174.47,45.3c.31-.09.47.39.59.39h11.06l.56,1.94-12.6.03.4-2.37ZM181.17,63.47l.19-2.38.6.4,1.18-.79v2.77s-1.97,0-1.97,0ZM183.15,65.05v2.37s-.99-.79-.99-.79l-.98.79v-2.76c.76.57,1.03.75,1.97.39ZM181.61,59.47l-.44-2.72h2.37s0,2.76,0,2.76l-1.93-.04ZM183.49,55.51l-2.31.06v-3.16l2.72.44-.4,2.66ZM181.17,51.23v-2.38h2.77v2.38h-2.77ZM180.37,71.17l-2.33.17-.02-2.35h1.97s-.79.79-.79.79c.93-.13.76.77,1.17,1.39ZM179.99,65.04l-.05,2.33-1.92.44-.23-2.38,2.2-.39ZM177.62,61.1h2.37s-.05,1.92-.05,1.92l-1.72.43-.6-2.36ZM180.38,72.94l-.39,2.77h-1.97c-.27-2.05.44-2.76,2.37-2.77ZM177.62,59.52l.17-2.4,2.59-.37v2.77s-2.76,0-2.76,0ZM177.62,55.58v-3.18s2.77,0,2.77,0v3.18s-2.77,0-2.77,0ZM177.62,51.23v-2.38h2.77v2.38h-2.77ZM174.86,72.94h1.97c.19.73-.38,2.97-1.38,2.76-.91-.66-.56-1.83-.6-2.76ZM174.65,71.76l.08-2.75,2.39.07-.08,2.76-2.4-.07ZM176.84,51.22l-2.35-.02c-1.26-3.39,3-3.31,2.35.02ZM176.84,55.58h-2.38s0-3.18,0-3.18h2.38s0,3.18,0,3.18ZM176.83,56.75l-.18,2.78-1.82.21c-1.01-1.99-.38-3.42,2-2.99ZM174.46,61.5l2.37-.4v2.37c-1.24-.32-2.64-.24-2.37-1.97ZM176.83,64.65v3.16l-2.01-.19.06-2.95,1.95-.02ZM174.06,12.13c-.34,2.34-.81,3.47-3.15,4.34-.23-.25,2.48-4.11,3.15-4.34ZM169.02,15.17c.11-.49.94-2.03,1.49-2.25.47,2-1.15,3.21-1.18,5.13-.75-.19-.43-2.36-.31-2.87ZM168.76,19.66l2.14-2.4c-.13,1.53-1.04,3.52-2.36,4.34l.22-1.94ZM172.32,17.29c.39-.45.62-.97,1.35-.82.58,2.53-1.07,2.06-1.99,3.05-.66.71-1.69,3.64-2.24,4.77-.26.53.25,1.09-.89.86.18-2.04,2.46-6.33,3.78-7.86ZM172.49,32.66l-.39-.79c-.16.89-.65,3.13-1.97,2.57l3.15-4.94c-.25,1.03.32,2.77-.78,3.16ZM169.72,47.67c-.77-.28-.77-.38-.47-1.06.53-1.22,2.03-2.78,2.65-4.08,2.16.87-2.57,3.48-2.18,5.13ZM172.23,22.52c-.79,1.02-1.24,2.44-2.5,3.03.61-1.95,1.55-3.77,3.55-4.34.25.95-.73.91-1.04,1.32ZM151.74,56.54c.1-.43-.2-2.82,1.2-2.55,1.72.34-1.68,3.86-1.38,4.73-1.08-.18.06-1.7.18-2.18ZM151.67,59.83l2.65-4.66c-.32,2.85-1.86,5.59-2.77,8.29l-.79-.2.91-3.44ZM154.71,74.32l-2.57,3.36c-.94.34-.16-1.73-.08-2.05.39-1.45,1.09-1.87,1.43-2.59.3-.63-.22-2.1,1.21-2.46l-1.18,3.95,1.18-.2ZM151.95,73.73c-.71.11-.34-.86-.23-1.21.38-1.15,1.18-2.14,1.25-3.49l1.35-2.4c.99,2.74-1.61,4.67-2.37,7.1ZM154.32,63.47l-.31,1.86-2.45,4.45c.4-1.88,1.3-3.51,1.93-5.39.21-.61-.34-1.13.83-.92ZM151.55,67.02l-.28-1.67,3.05-6.22c.17,2.99-2.33,5.04-2.76,7.89ZM146.03,41.15c.21-.97.58-1.1,1.58-.99-.11,1.65-.21,3.29-.3,4.94-.07,1.34.14,2.76-.1,4.34-.1.69.21.66-.77.59l.39-8.68-.78,1.18c.02-.45-.09-.96,0-1.38ZM144.45,41.94c0-.26.67-1.5.99-1.78.66.29-.2,1.15-.2,1.38v8.49h-.79v-8.1ZM138.91,53.87c.29-1.18,8.77-.65,10.28-.67l.41,33.36-1.99,1.99,1.98-.59c-.41.82.13,1.8,0,2.48-.02.12-1.48,1.15-1.19,2.06l1-.19.19.79c-1.72-.44-4.98,1.3-5.72-.39-1.03,1.32-2.82.66-4.3.81-.41-.11-.62-2.1-.66-2.57-.63-9.59.13-20.3.03-30.05-.02-2.25-.73-4.53-.02-7.01ZM132.21,52.41c.45-1.34.23-2.83,1.59-3.45l3.54-6.42c-.07,3.6-2.83,7.17-5.13,9.87ZM133,56.36l1.8-5.11,1.75-.81c.3.29-2.75,5.58-3.55,5.92ZM133.47,46.76c-.39.43-.41,1.1-1.26.9-.31-.31,4.04-6.74,4.55-7.5.3-.46-.1-1.02.98-.78-1.2,2.57-2.3,5.26-4.26,7.38ZM131.81,43.72c-.04-1.81,1.41-2.23,1.85-2.89.5-.75.62-2.22,1.7-2.63.41,1.05-2.74,6.31-3.55,5.52ZM133.07,34.12c-.36.49-.4,1.1-1.26.91l1.58-2.57-1.18-.39,3.17-4.25,2.35-2.27c-1.14,2.89-2.86,6.03-4.67,8.56ZM135.76,25.95l-3.16,5.13-.79-.2c-.14-1.73,2.72-3.86,3.95-4.93ZM134.97,22.79c.02,1.98-1.58,4.4-3.15,5.53l.36-1.8,2.79-3.72ZM132.03,15.24l.78,2.82-3.37.38c-.12-.11.76-1.52.79-1.79.01-.15-.6-.2-.65-.28-.79-1.43,1.33-1.47,2.44-1.13ZM127.88,96.07l3.14-4.57c.22.96-1.85,4.68-2.37,5.13-.24.21-1.05.1-.76-.56ZM127.47,93.68c.97-2.13,1.49-4.71,3.55-6.13.06,2.73-2.06,4.02-2.76,6.32l-.78-.19ZM130.91,86.27c-.02.06-.56.26-.8.59-.9,1.28-1.66,2.69-2.64,3.85.12-2.37,1.87-5.15,3.55-6.71-.05.74.19,1.56-.11,2.27ZM120.35,15.95c.08-.26.89-.67,1-.67h6.52l-.17,3.97c-3.62.81-8.25,2.4-7.34-3.31ZM114.83,76.89c.24.97-4.04,6.65-4.34,6.32l2.6-4.31,1.74-2.01ZM113.41,76.86c-.34.58-3.06,4.58-3.72,3.98l4.74-6.71c.09,1.07-.52,1.88-1.02,2.73ZM114.43,71.36c-.5,2.56-2.69,5.08-4.34,7.11.58-2.46,2.52-5.41,4.34-7.11ZM112.46,67.81c.54.68-1.9,3.66-2.76,3.95.19-1.54,1.26-3.42,2.76-3.95ZM114.04,69.39l-4.34,6.32c-.68-1.31,3.75-6.92,4.34-6.32ZM105.62,59.98c.17-.75.99-3.19,2.1-2.44.85.58-.5,2.14-.67,2.69-.2.61-.16,1.27-.42,1.94-.21.53-.73,1.89-1.27,2.09-.07-1.49-.06-2.79.26-4.27ZM105.75,112.83c.61-.75,2.44-3.46,3.55-2.17-1.1,1-1.8,2.49-3.55,2.17ZM121.75,112.03c-.73.91-1.6.52-2.57.4l.39-1.57h-1.98s0,1.58,0,1.58h-2.37s.78-1.98.78-1.98c-2.08.96-4.13-1.54-6.32-1.58.57-2.37,1.24-4.48-1.96-3.54l.02,2.86-2.4,1.07c-.81-1.65-.03-2.42.39-3.95l-.79.2.41-19.93,16.57-.4-.19,26.84ZM124.93,80c-.98-.36-5.7.06-6.54.65-.45.32-.06,1.31,0,1.37.21.19,2.94-1.9,3.94-.59-1.15,2.34-2.76,1.83-5.12,1.77-.66-6.07-.26-12.24-.39-18.37-.26-12.42-1.51-26.92-.82-39.1.08-1.37.65-2.7.41-4.13l13.43-.79c-.36,4.94.33,9.9.41,14.79.15,9.03-.22,18.15-.03,27.28.08,4.06,1.54,14.77.17,17.91-.23.53-2.37,3.87-2.72,3.89l-1.78-.89,2.76-4.15-3.03,3.58-3.68-.03c.69-1.64,1.63-2.71,3.55-2.37.12-.96,0-.64-.56-.84ZM126.16,104.23c.04-.64,1.16-.61,1.3-.48.34.3-2.89,4.17-3.55,4.34l2.25-3.86ZM124.7,112.04c.46-.84,1.85-1.62,2.38-2.27.45-.55,3.51-6.05,4.33-5.23.35.35-3.46,5.07-3.95,5.6-.68.74-1.71,2.08-2.76,1.89ZM127.47,112.04l4.73-5.92c-.24,2.67-3,4.19-4.73,5.92ZM133.42,59.66c1.26-1.48,1.53-5.15,3.52-6.46-.89,2.8-1.42,6.67-4.73,7.5-.3-1.27.71-.46,1.21-1.04ZM134.01,61.52l2.93-3.18-2.64,4.65-1.31.48,1.01-1.95ZM155.3,110.85c-.4.9-1.6,1.36-2.56,1.19l1.58-1.78-.78-.19c-.76,2.22-3.53,2.22-5.54,2.36.26-.82,1.14-1.16,1.71-1.64.35-.3,1.28-.77.08-.72-.97.37-1.61,1.48-2.47,1.88-.79.38-3.61.94-3.07-.3l1.78-1.78c-1.14-.54-2.15,1.84-3.18,2.35-.68.34-2.61.84-2.74-.17,1.85.28,2.19-2.09,2.45-2.29.32-.25,1.13.09,1.68-.45.08-.08.44-1.69.61-1.99-1.18-.18-2.61-.42-3.56.6l.78,2.54c-2.57.53-3.38,2.87-6.7,1.99.14-.81,2.01-1.41,1.38-2.37l-2.56,2.37.39-16.4,20.51-.95c.59.53.68,14.71.22,15.76ZM156.68,71.16c.02-1.97.6-3.86,2.37-4.93.75,3.14-1.08,3.88-1.97,6.31-.66.11-.41-.94-.4-1.38ZM156.87,74.11l2.19-3.53c.22,2.12,0,3.69-1.35,5.36l-1.01,1.35c-.21-1.47,1.08-1.86.17-3.18ZM159.06,75.71c.32,1.95-.23,3.85-2.37,4.34-.2-.15,1.58-4.15,2.37-4.34ZM157.49,103.75c.12-1.88,1.97-3.4,3.15-4.74-.26,1.84-1.63,3.76-3.15,4.74ZM160.02,98.19l-2.53,2.8.11-1.88,3.05-2.86-.62,1.94ZM161.83,88.54l-1.97,1.78c.72-2.01,1.15-5.23,3.55-5.92-.49,1.53-1.07,2.74-2.37,3.75l.79.39ZM160.25,80.05c-.38-2.22,1.39-3.69,2.76-5.13.15,2.38-.75,3.86-2.76,5.13ZM160.25,83.21c-.27-1.95,1.01-3.67,2.76-4.34.61.79-2.07,3.8-2.76,4.34ZM163.41,73.52c-.22.66-1.03.23-1.11.3-.43.39-1.08,2.76-2.04,3.07-.83-2.65,2.27-3.5,2.17-5.53l-2.17,1.97.79-2.18c-2.09-.82.76-4.11,1.47-5.64.2-.43.02-1.05.11-1.25-.03.08-.41.16-.51.39-.47,1.03-.57,2.63-1.86,3.16.61-2.56-.43-6.56-.02-8.88.21-1.17,1.51-.91,1.6-1.97l-1.58.58c-.24-1.99,0-2.99,1.18-4.53l-1.18.59-.05-42c-.08-.66-1.48-.96-1.54-.45.08,3.03-.09,6.07-.01,9.09.29,11.59.19,23.06.17,34.67,0,2.09,1.09,2.96,0,5.36-.5,1.11-2.16,2.07-1.54,3.19l1.77-1.97c.53,2.93-.55,4.08-1.97,6.31l-.79-56.47c-1-.09-1.6.86-1.6,1.75l.41,39.31-3.16-.39V11.92c.19-3.53,4.94-2.54,7.6-3.06,2.49-.49,4.91-1.42,7.41-1.87l.4,64.54-3.16,3.78c-.55-2.16,1.3-2.52,1.97-4.14l-1.97,1.38c-.28-1.71.07-1.78,1.18-2.76l-1.18.19V10.15s-1.16.95-1.16.95l.79,9.5c-.33,11.18.38,22.42,0,33.6-.1,2.93-.2,7.58-1.2,10.05.02-.04.76-.43.79-.39-.2,1.75.11,4.04-.01,5.71-.05.59-.7.98-.7,1.53,0,.64.89,1.64.71,2.43ZM163.8,83.61c.33-1.68-.3-4.94.08-6.41.3-1.17,2.28-2.68,2.88-3.85.7.79.6,1.83.15,2.71-4.66-.64-1.07,5.73-3.1,7.55ZM176.05,112.44l.39-1.97c-1.28.24-1.43-.44-1.59-1.58-.68-.05-.18,1.5-1.19.58.51-2.42.39-4.04,2.38-5.72-.28-.26-2.73,1.8-3.03,2.1-.82.84-1.29,3.28-2.9,2.43v-2.74c-3.06-1.44-1.58,3.35-1.97,3.73-.77-.01-2.01.26-2.31-.64l.32-30.31c.26-.97,8.66-.61,10.11-.62,1.56,0,3.11-.6,4.87.03.95,8.88.23,17.96.44,26.92l-2.18,2.25-1.37-1.18c-.98,1.82-1.38,2.63-.78,4.74l1.52-.02c.28-2.18,1.11-3.7,2.8-5.12.93,3.83-1.91,6.85-5.52,7.11ZM181.58,71.76l-.39-2.76,1.6.21.19,2.16-1.4.39ZM186.31,78.08l-3.16,5.13c-.58-1.19,1.6-6.65,3.16-5.13ZM186.7,81.24l-2.76,5.52c-.65.12-.45-1-.4-1.38.28-2.06,1.38-3.22,3.16-4.14ZM185.91,89.53c-.61,2.08-.88,4.52-2.76,5.92.15-1.99,1.38-4.42,2.76-5.92ZM185.4,103.63c-.31.41-1.56.59-1.46,1.7l-.3-1.28,2.67-3.85c.13,1.18-.2,2.48-.91,3.43ZM183.94,102.56c-.75.03-.41-1.71-.3-2.07.2-.61,1.52-2.87,1.95-3.58.32-.52.98-1.58,1.5-1.85-.36,2.59-2.72,4.74-3.16,7.5ZM183.94,99.4l-.79-.2.4-2.57.77.4c-.14-1.75,1.65-1.09.88-2.86l2.28-4.65c.73,4.24-2.54,6.27-3.55,9.87ZM186.53,87.97c-1.01,1.61-2.96,1.94-2.59,4.32-.63.06-.73.36-.64-.43.13-1.04.11-2.11.44-3.13l4.14-7.5-1.35,6.74ZM206.05,112.04h-3.16c-.51-2.13,2.08-2.5,2.37-4.34-1.25,1.03-2.17,1.85-3.95,1.58v2.77s-2.76,0-2.76,0c-.48-1.73.86-2.18,1.18-3.55l-1.57,1.19c-.09-.08.38-1.85-.99-1.19-.82.4-1.05,2.69-.99,3.55l-.59-1.19-.41,1.22-3.34-.03.39-1.18c-1.26-.17-.46,1.33-2.13.74l-.58-.6c.09-1.05-.28-2.2-.3-3.17-.1-3.84-.21-10.89.23-14.56.07-.58.05-1.01.61-1.36h16.39l-.6,2.24.21,17.91ZM209.61,99.99v1.39s.8-1.18.8-1.18l.76.56-3.53,6.14c-.21-2.7.58-4.68,1.97-6.92ZM207.62,99.98c.16-1.88,1.93-4.59,3.18-6.11.29,2.88-2.23,4.79-2.76,7.5-.65.11-.44-.99-.41-1.39ZM210.82,105.15l-2.78,4.52c-.02-1.92,1.29-3.83,2.25-5.46.28-.49-.23-1.09.9-.86l-.37,1.8ZM218.29,100.39c.08-.17.1-.65-.19-.59-2.03.92-2.5,2.84-4.54,3.95-.96-2.07,1.29-3.33,2.05-5.05l4.65-.28-.39-1.39c-1.86.42-4.32.98-6.1.38l-.61.81v-6.71h5.53s-.66-1.22-.66-1.22c-4.91.88-9.79-.23-14.75.04v-18.96h17.38c-.3,6.62.32,13.34.17,19.94-.03,1.09.19,2.84-.96,3.16,1.65.97.52,2.6,1.12,4.27-1.79,3.05-4.4,5.6-7.43,7.38-.83-.99,4.34-4.85,4.73-5.73ZM215.93,106.51l2.95-3.95,2.18-1.97c.6.63-4.26,5.44-5.13,5.92ZM218.3,111.64c1.39-1.38,3.12-3.67,5.13-3.94-1.37,1.34-3.23,3.65-5.13,3.94ZM223.43,104.14c-.69.04-.85.18-.81-.6.06-.98,1.84-3.81,2.78-4.53l-1.97,5.13ZM224.68,97.67c-.44.68-.53,1.88-1.24,2.13-.23-2.22,1.75-4.14,2.97-5.92.12-.17.34-1.56.97-.79.12.15-1.4,3.29-1.6,3.63-.27.45-.83.53-1.11.95ZM227.18,109.66c-.45.02-.5-.53-.27-1.05.34-.79,3.96-4.34,4.66-4.44l.94.56c-1.37.11-4.68,4.89-5.32,4.93ZM233.51,106.52l-4.94,4.34c-.43-.48,4.18-5.51,4.54-5.52.19,0,.94.83.4,1.18ZM240.42,110.46c-.66-1.09,5.67-5.98,6.31-7.1-.88-.25-1.15.94-1.76,1.03-.54.07-1.6-.43-2.39-.42-.73,0-7.22-.09-6.12,1.36l7.1.2-3.93,3.54c-1.06.41-1.48-.71-1.73-.84-.48-.25-1,.04-1.49-.38-1-.87-.54-2.49-.75-3.43-.07-.31-.74-.25-.8-.53-.19-.97.68-2.22.63-3.1-.03-.54-.61-1.13-.63-1.95-.04-1.56-.32-11.55,0-12.15.62-1.15,2.39-.29,3.35-.28,3.49.01,6.99-.05,10.48-.02-.7,1.32-.09,2.29-.07,3.41.09,4.79.1,9.66-.02,14.47l-6.43,5.84-1.77.36ZM246.74,109.67l-.2-.79c-.99,1.4-2.2,3.1-4.15,3.16-.47-.45,3.02-4.31,3.57-4.55.49-.21,1.11.25,1.15.21.1-.1.37-2.08,1.4-2.36.65,2.12.29,3.49-1.77,4.34ZM306.03,91.76c.48-1.22,1.88-1.65,3.1-1.44-.31,2.59-.76,4.51-3.16,5.92l2.37-4.54c-.89-.85-1.64.94-1.79.99-.77.16-.74-.4-.53-.93ZM294.52,85.58c1.94.49,8.04-.77,9.12.56.78.96-.02,1.82-.04,2.8-.04,2.09.09,4.18-.06,6.26l-6.65,7.16,1.92.15c.7-2.2,3.04-4.09,4.59-5.87,1.09,2.73-2.08,4.21-3.77,5.71-.75.67-1.52,2.96-2.94,1.41-.41-.44-.03-5.93-.29-7.23-.22-1.07-1.88-3.06-1.88-3.25v-7.7ZM289.42,100.81c.47-.62,1.22-.53,1.42-.75.3-.34,2.64-4.51,3.29-3.82.44.47-4.01,6.24-4.64,7-.38.45-.45,1.09-1.28.89.59-.89.65-2.56,1.22-3.33ZM283.86,75.32l-1.19,2.37.1-2.07,1.86-3.06c-.82,1.54.58,2.44.35,3.65-.12.64-1.76,3.18-2.31,3.85-.13-.67.21-1.15.44-1.73.35-.84,2.5-3.34.75-3.01ZM277.53,66.23l-3.55,3.55c-.28-1.91,1.78-3.59,3.55-3.55ZM274.57,71.76h6.32c.4.3.43.34.43.81.01,4.51-.26,9.09-.25,13.62,0,3.33.39,7.07.39,10.25,0,.15-.49,2.8-.54,2.96-.38,1.22-1.95,2.23-2.21,3.56l-.62-.83,2.6-3.91-2.17,1.97c-1.06-2.22,1.94-3.1,2.17-5.13l-2.16,1.87-4.16-1.08v-22.9c-1-.25-.94.49-.98,1.23-.32,5.07.05,11.9.17,17.14.04,1.56.86,2.87.01,4.53-1.76.04-.71-2.46-.76-3.75-.22-6.14-.49-12.26-.19-18.41-.14-.92,1.21-1.93,1.94-1.93ZM278.33,104.93c.16-1.71,1.7-2.66,2.56-3.95,1.69.71-2.05,4.5-2.56,3.95ZM268.45,79.27c.28.28-2.06,4.19-2.53,4.78-.21.26-.28,1.3-1.02.74-.4-.3,1.65-5.85,3.55-5.52ZM261.77,62.19l1.94-2.67c.51,1.55-1.27,2.86-1.5,3.86-.25,1.05.77,3.6-.86,4.43l.42-5.62ZM255.26,51.24c.26-.08,2.59.7,2.82.86.13.09.28.53.3.7.18,1.41-2.89.26-3.75.39l.63-1.95ZM250.65,56.95c.3-3.48,7.22-1.66,9.49-1.37l.02,2.35c-1.42-.02-2.69-.81-4.13-.8-.49,0-5.7.52-4.56,1.59l8.44.45c.91.3.64,1.55.65,2.31-.53.55-6.89-.82-8.12-.63-.35.06-1.09.87-.97,1.02,2.97-.01,6.25,1.35,9.08.4-.34,1.6.45,9.53,0,10.27-.02.04-.71-.08-.8.2l.02.99.78-.4c-.08.79.16,1.75,0,2.49-.06.3-2.38,2.45-2.63,2.78-.24.32-.23.9-.51,1.24-1.69,2.04-2.92,4.25-5.94,3.36l.43-1.94c.96.3,3.37-.27,3.95-.99.32-.39-.04-.97.17-1.38.59-1.2,3.02-2.1,2.95-3.77l-2.35.17-.21-1.16c-1.2,1.27-2.92,1.26-4.55,1.19-.33,1.59,2.06.3,2.76.98-1.14.87-1.75,2.2-2.65,3.25-.24.28.02.75-.9.5.56-1.58.02-2.99-.02-4.52-.09-3.56.1-7.14.04-10.69-.04-2.37-.66-5.41-.44-7.88ZM260.16,94.66c.93,1.82-.92,2.74-2.24,3.67l-2.49,4.22.44-3.12,1.14-.04c-1.42-1.31,2.25-5.42,3.15-4.74ZM258.71,93.22l-3.29,5c-.29-3.53,3.22-6.25,4.94-9.08.64,1.67-.05,3.33-1.65,4.08ZM260.55,83.41c-.2,2.29-1.93,2.8-3.76,3.74l-.54-.92,2.32-3.81-2.76.79,4.74-6.71c-.14,2.25.19,4.69,0,6.91ZM257,90.32c-.35-.41,2.57-4.53,3.55-4.74.61,2.12-1.37,5.39-3.55,4.74ZM253.65,89.93l.19.78c-1.55.39-1.41,3.76-3.15,4.74.28-1.88,1.33-4.55,2.96-5.52ZM255.2,76.47c.69-.5,1.42-.39,2.2-.36-1.06,1.56-2.18,4.15-4.34,3.55-.24-.2,1.95-3.04,2.14-3.18ZM251.07,104.93l-.79-.2c-.11-1.37,1.96-3.81,3.16-4.54l-2.37,4.74ZM250.29,99.4c.3-2.37,1.94-4.6,3.55-6.32-.04,2.48-2.14,4.47-3.55,6.32ZM253.45,86.37c.75-2,.88-2.25,3.16-1.97-.77,1.46-1.32,2.32-3.16,1.97ZM255.41,104.72c.34-1.94,3.58-5.53,5.15-6.9.58,3.55-3.84,5.15-4.74,8.29-.64.13-.47-1.04-.41-1.39ZM257.4,112.04c.23-1.16,5.31-6.01,5.92-5.52-1.05.92-4.28,6.74-5.92,5.52ZM260.55,112.04c.09-.57,2.93-4.38,3.55-3.94.47,1.31-2.66,4.65-3.55,3.94ZM262.53,104.54c-.12-1.56,2.85-5.9,3.93-6.82.62-.53,1.6-.65,2.39-.68l-3.94,5.62-2.37,1.88ZM267.28,100.8c.43-.58,2.41-3.17,3.15-2.57l-4.74,5.92c-.25-1.39.84-2.34,1.59-3.34ZM268.84,102.36c1.29-1.84,3.48-3.51,5.27-4.52.36-.21.04-.96.65-.81.06,2.08-2.31,3.21-3.35,4.34-1.19,1.3-2.14,3.01-3.75,3.95.09-1.03.59-2.13,1.18-2.97ZM268.45,107.3l6.31-7.5c-.09.53.35,1.15.19,1.6-.12.34-4.34,5.08-4.86,5.37-.54.32-.92.68-1.64.53ZM270.43,109.28l.63-1.54,4.89-5.97c1.32,1.76-5.19,7.9-5.52,7.5ZM270.82,111.64c.21-1.66,2.01-1.84,2.65-2.49.94-.97,1.48-2.78,2.88-3.43.11,1.46-4.55,6.69-5.52,5.92ZM278.33,108.49c-1.3-1.39,2.61-4.06,3.16-3.55.64.6-2.64,3.31-3.16,3.55ZM281.88,110.46l3.16-4.15c.55-.53.28.15.55.44.22.24.75.05.64.35-.45.51-3.95,3.73-4.34,3.36ZM288.2,107.3c.21.9-.61.9-1.03,1.33-.96,1.01-1.94,2.01-2.91,3.01-.52-1.32,3.54-4.74,3.94-4.34ZM286.22,111.64c.63-.54,2.99-4.38,3.95-3.55.42.37-2.91,4.09-3.95,3.55ZM290.57,103.74l4.34-5.13c-.17,1.9-2.36,4.8-4.34,5.13ZM295.9,110.85c-2.29.09,2.67-4.28,2.96-3.94.42.49-2.67,3.93-2.96,3.94ZM296.89,111.64l3.16-3.76c.36-.53,1.19.22,1.18.4-.01.28-3.43,3.78-4.34,3.35ZM300.05,104.53l.78-2.18,2.77-2.16c.63,2.2-1.55,4-3.55,4.34ZM303.61,108.69c1.11-2.05,2.66-3.9,4.53-5.33.71.57.52.43.26,1.04-.77,1.89-2.89,2.86-3.24,4.87l-1.56-.58ZM306.55,108.47c.62-.97,2.27-3.37,3.03-4.08.51-.48.56-.86,1.52-.65-1.41,2.33-2.83,4.74-5.13,6.31-.21-.81.24-1.07.58-1.59ZM308.75,110.28l-1.6.57,5.12-6.13c.36-.5,1.13.13,1.19.41.14.69-4.36,3.9-4.72,5.15ZM310.52,111.25c-.97-.76-.38-.58,0-1.18.77-1.19,1.75-2.38,2.95-3.16.25.94-2.3,4.44-2.95,4.34ZM319,97.82c.28.79-2.03,3.88-2.36,3.55-.64-1.62,1-3.01,2.36-3.55ZM320.97,98.62c-.19,2.17-1.26,4.37-3.15,5.52l3.15-5.52ZM321.26,102.86c-.05.11-.53.15-.66.39-1.23,2.12-2.84,4.12-4.75,5.63.87-2.97,4.4-4.77,5.13-7.89.75-.06.43,1.53.28,1.87ZM324.34,110.46c-.63-.11-.53-.47-.2-.98.23-.35,2.39-2.59,2.76-2.17.59.67-1.92,3.28-2.56,3.16Z"/>
        <g>
          <path d="M127.86,28.32c.04.64.14.91-.41,1.37-1.38,1.16-8.41.39-10.65,1v-1.58s11.06-.79,11.06-.79Z"/>
          <path d="M126.09,44.51c.32.04.84.57,1.38.4l-.46,1.11c-2.12.09-4.31,0-6.45.08-1.04.03-2.18.97-2.96-.2-.2-.41.27-1.38.59-1.38,2.39,0,5.66-.29,7.9,0Z"/>
          <path d="M129.04,23.98c.14.68-.35,1.04-.89,1.28-1.68.75-7.97.84-10.17.92-1.5.06-1.73-1.35-.6-1.41,3.91-.21,7.85.42,11.66-.79Z"/>
          <path d="M127.86,38.98l-.18,1.2-.48.33-9.21.04v-1.18c1.07.42,2.74-.4,3.36-.4h6.52Z"/>
          <polygon points="128.65 33.46 127.99 34.65 117.2 35.03 118.19 33.85 128.65 33.46"/>
          <path d="M129.84,67.42l-1.07,1.58c-2.91-.76-6.86,1.05-9.39.82-1.01-.09-1.49-1.43.37-1.63,3.3-.36,6.81.62,10.09-.77Z"/>
          <path d="M124.51,54.78c.97.07,2.46.78,3.75.4-.21,2.23-3.1.78-4.55.77s-3.22.34-4.66.45l-.66-1.61c2.02.11,4.11-.15,6.12,0Z"/>
          <path d="M118.38,61.1v-1.18c3.3-.02,6.65-.18,9.87-.2-.27.45-.79,1.38-1.38,1.38h-8.49Z"/>
          <path d="M128.65,49.64v.79c-.62-.26-1.48.4-1.78.4h-9.28v-.79c.62.26,1.48-.4,1.78-.4h9.28Z"/>
          <path d="M128.65,63.86c-2,1.74-6.28,1.29-9.09,1.4-.4.02-1.04.23-1.18-.43-.35-1.67,3.26-.69,3.97-.72,2.07-.07,4.19-.48,6.29-.26Z"/>
          <path d="M129.44,72.55c.15.88-.06.79-.77.99-2.22.62-3.84-.2-5.7-.16-.88.02-4.33,1.33-4.58.15-.13-.61.46-.89.99-.98,3.3-.59,6.89,1.15,10.06,0Z"/>
          <path d="M127.47,76.5c-.22.91-.6.52-1.09.53-1.17.02-7.64.34-7.99-.14,1.95-2.48,6.3-.22,9.08-.39Z"/>
        </g>
        <path d="M208.03,41.75c.16,1.03-.15.71-.86.9-3.02.83-6.54-.29-9.58.64l-.62-1.54h11.06Z"/>
        <path d="M208.03,38.19v1.18c-1.3-.83-2.62,0-3.36,0h-8.1v-1.18h11.45Z"/>
        <path d="M208.03,34.24c.33,2.55-3.32,1.11-4.94,1.15-1.86.05-3.76.75-5.72.43v-1.58c3.53.32,7.14.65,10.66,0Z"/>
        <path d="M208.03,44.51l-.8,1c-3.34-.41-7.25,2.02-10.25.37-.19-.96.77-.56,1.38-.59,3.24-.15,6.45-.57,9.68-.79Z"/>
        <path d="M207.44,48.06c.11-.02.45-.6.59-.39v1.18s-10.66.79-10.66.79v-1.18c.96.41,2.43-.4,2.96-.4,2.13,0,5.13.27,7.11,0Z"/>
        <path d="M208.03,51.23c.12.76-.31,1.06-.99,1.18-2.7.49-7.13-.1-10.07.4l.99-1.18,10.07-.4Z"/>
        <path d="M208.03,54.78c.12.76-.31,1.06-.99,1.18-1.75.32-4.76-.06-6.73-.02-1.18.03-2.47.97-3.34-.19-.28-.77,1.94-.94,2.21-.94.89,0,1.73.4,2.72.39,1.99-.02,4.14-.27,6.13-.43Z"/>
        <path d="M208.03,30.69c.17,1.03-.16.71-.85.9-2.94.81-7.08-.02-10.2.68l.58-1.44,10.47-.14Z"/>
        <path d="M207.83,58.33c.11-.02.45-.6.59-.39v1.18c-3.62.71-7.27-.62-10.85.4-.62-.23.21-1.19.39-1.19,2.92,0,7.16.37,9.87,0Z"/>
        <path d="M207.64,61.5c-.15.72-.78.73-1.37.8-2.6.29-5.82.07-8.51.38v-1.18s9.88,0,9.88,0Z"/>
        <path d="M196.98,65.83l.58-.79c3.06.33,6.19-.35,9.19-.28.68.02,1.13-.4,1.67.48,0,1.02-3.56.23-4.1.24-2.32.08-4.9.66-7.35.35Z"/>
        <path d="M204.08,67.81c.19,1.13-.24.66-.91.84-1.89.52-3.88.23-5.8.73-.05-3.21,4.81-.25,6.71-1.58Z"/>
        <path d="M178.8,97.82c.47,1.71,1.43,7.04-1.59,4.87.18-1.71-.77-4.62,1.59-4.87Z"/>
        <polygon points="174.07 87.55 172.86 87.38 172.55 86.9 172.09 81.63 173.9 82.02 174.07 87.55"/>
        <path d="M178.81,82.03l-.37,5.35-1.21.17-.34-4.45c.34-.82,1.01-1.21,1.92-1.07Z"/>
        <path d="M174.86,98.22l-.58,4.75c-2.95,1.21-1.18-2.59-1.19-4.36l.77-.69,1,.3Z"/>
        <path d="M170.12,81.63l-.39,5.72c-2.48.73-1.3-1.77-1.19-3.16.09-1.21-1.09-2.52,1.58-2.56Z"/>
        <path d="M169.69,102.13l-1.94.04c.12-5.08,2.41-6.41,1.94-.04Z"/>
        <rect x="177.22" y="90.32" width="1.59" height="3.95"/>
        <path d="M174.46,94.27h-1.58c.37-.86-.85-3.66.2-3.94,2.01-.55.74,2.89,1.38,3.94Z"/>
        <polygon points="169.72 90.72 169.66 94.21 168.15 94.66 168.21 91.17 169.72 90.72"/>
        <path d="M74.15,69.39c.14,1.01-1.02,1.44-1.8,1.56-3.53.53-7.64.31-11.23.81v-1.58s13.03-.79,13.03-.79Z"/>
        <path d="M73.36,84c-.36,2.7-3.97,1.48-6.14,1.56-1.23.04-5.04,1.17-5.71-.19-.18-.87,1.26-.94,1.77-.98,3.38-.33,6.73.19,10.07-.39Z"/>
        <polygon points="73.76 72.95 73.37 74.34 61.52 74.92 61.9 73.53 73.76 72.95"/>
        <path d="M61.52,78.47v-1.58c1.5.6,2.75-.08,4.14-.04,2.41.08,4.82.74,7.31.43l-.19,1.19c-.36.64-.71,0-.79,0h-10.47Z"/>
        <path d="M62.69,91.52l.17.74c3.51-.96,7.13-.78,10.7-.36.59.07,1.21.31.58.79-2.04-.24-10.69-.27-11.74.9-.36.39-.5,2.07-1.68,2.26.44-1.74,1.89-1.42.37-3.35l.82-.99h.77Z"/>
        <path d="M61.12,67.02l12.24-.79c.06.63.12,1.28-.65,1.52-.49.15-4.17.41-5.08.45-1.55.08-6.33.69-6.51-1.18Z"/>
        <path d="M73.76,81.23c-3.43.92-7.05.93-10.59,1.1-.63.03-1.28.26-1.65-.5s.81-.62,1.25-.71c1.65-.34,7.97-.78,9.64-.64.61.05,1.18,0,1.35.76Z"/>
        <path d="M72.97,88.74c-2.28-.03-4.6.18-6.86.45-.96.11-4.7,1.46-4.98.14-.25-1.16,4.05-1.24,4.99-1.31,1.86-.14,5.61-.56,6.85.72Z"/>
        <path d="M61.12,98.61c-.71.06-.42-2.24-.35-2.32.28-.33,4.94-.96,5.48.16-1.48,1.46-4.56-.41-5.13,2.17Z"/>
        <path d="M114.83,94.27h-1.58c.48-1.89-1.1-4.4.6-5.53,1.6-.36.81,4.59.98,5.53Z"/>
        <path d="M109.69,94.27l-1.55-.03-.42-4.71c3.76-.56,1.49,2.29,1.97,4.74Z"/>
        <path d="M118.04,104.98c.11-.12,1.74-.6,2.14-.05.19.26-.16,3.76-.81,3.95-1.88.56-1.56-3.64-1.33-3.9Z"/>
        <polygon points="108.12 101.38 107.72 97.43 109.44 97.49 110.03 98.08 110.03 100.73 108.12 101.38"/>
        <rect x="116.61" y="90.9" width="5.14" height="1.6" transform="translate(27.42 210.84) rotate(-89.97)"/>
        <polygon points="115.23 97.43 114.78 101.72 113.25 101.77 113.25 97.43 115.23 97.43"/>
        <polygon points="119.96 97.03 119.98 100.71 118.39 101.38 118.16 97.42 119.96 97.03"/>
        <path d="M113.29,105.37l.95-.43c.94,1.23,1.56,3.36,0,4.33-1.36-.9-1.04-2.47-.95-3.9Z"/>
        <path d="M219.09,81.64c.45.52-.04.69-.49.89-1.55.67-3.55-.14-5.19-.04-2.62.15-6.24,1.46-8.54.13-.18-.99.77-.52,1.39-.57,1.69-.14,12.4-.89,12.82-.4Z"/>
        <path d="M218.69,74.12c-.6.09-1.15.35-1.77.4-3.21.28-7.27.4-10.56.54-1.39.06-1.68-1.1-.5-1.32,2.3-.42,9.23-.67,11.47-.42.59.07,1.22.08,1.37.8Z"/>
        <polygon points="218.69 78.87 205.86 79.69 204.88 78.67 217.74 77.7 218.69 78.87"/>
        <path d="M205.27,86.76l.98-1.15,12.84.56c-.06,1.02-.56.84-1.27.87-1.25.05-2.84-.34-4.07-.31-2.85.07-5.65.72-8.48.02Z"/>
        <path d="M219.48,94.27c.11.8.07.65-.51.9-.54.23-5.23.48-5.42.28v-1.18s5.93,0,5.93,0Z"/>
        <path d="M228.56,42.54v21.32s1.18-.99,1.18-.99c-1,1.61-1.42,2.74-1.1,4.66.18,1.07,1.41,1.6-.87,2.25v-3.16c-1.02.02-.26,2.7-1.58,1.78.26-.95,1.37-2.44,1.49-3.25.24-1.59.06-5.49.09-7.39.08-4.45-.38-9.24-.26-13.79.02-.58.06-1.75,1.03-1.44Z"/>
        <path d="M148.79,62.68c.57.54-.03.72-.59.79-2.35.27-5.29.44-7.54.03l-.37.76c-1.01.33-.98-1.88-.33-2.01l8.83.43Z"/>
        <path d="M146.62,85.98c.57.02,1.33-.47,1.78.79-.28.38-7.18.99-8.04.7-.78-.26-.69-.81-.64-1.48,2.29.07,4.62-.09,6.91,0Z"/>
        <path d="M139.71,89.53l9.08-.19c.04.57-.59,1.15-1.07,1.3-1.54.46-5.81.19-7.63.29l-.38-1.39Z"/>
        <path d="M147.61,69.39l-.02,1.55c-1.24-.02-7.59,1.53-7.87.22.23-1.57,2.23-.83,3.35-.98,1.51-.21,3.05-.49,4.54-.79Z"/>
        <path d="M139.91,57.15l.04-1.52,7.46-.07c.77,1.29-.51,1.58-1.58,1.58h-5.92Z"/>
        <path d="M147.02,74.13c.08,0,.43-.64.79,0l.2,1.19c-1.52.32-3.03-.06-4.55-.03-1.25.03-4.91,1.36-3.16-1.15,2.24-.02,4.48.02,6.71,0Z"/>
        <path d="M148,82.03l-.4,1.58c-2.6-.98-5.2.36-7.89,0v-1.58c2.77.52,5.48-.01,8.29,0Z"/>
        <polygon points="148 78.08 147.02 79.26 139.71 79.66 139.71 78.47 148 78.08"/>
        <path d="M148,66.23c-.36,1.32-7.33,1.6-7.7,1.45-.52-.2-.69-.52-.59-1.06.5.18,1.16-.4,1.38-.4h6.91Z"/>
        <path d="M147.61,58.73v1.18s-7.9.39-7.9.39c-.46-2.21,2.84-1.09,4.56-1.17,1.13-.05,2.19-.55,3.34-.41Z"/>
        <path d="M153.14,101.77l-.05,2.71-2.71.45c.37-1.6.58-3.55,2.76-3.16Z"/>
        <polygon points="144.39 98.28 144.84 100.19 141.29 100.2 141.29 98.22 144.39 98.28"/>
        <path d="M139.24,107.38c.8,1.22.15,4.57-1.9,4.26l1.58-1.78-1.41-.56c-1.01-1.58.87-3.25,1.74-1.93Z"/>
        <polygon points="154.32 98.22 153.9 100.19 151.16 100.19 151.16 98.22 154.32 98.22"/>
        <rect x="141.68" y="102.56" width="2.77" height="1.98"/>
        <polygon points="139.71 102.56 139.71 104.54 136.95 104.54 137.3 102.75 139.71 102.56"/>
        <path d="M148.79,107.3v2.37c-4.34.67-1.18-3.52,0-2.37Z"/>
        <path d="M153.08,109.62c-2.19.67-2.64-2.07-.53-2.69.92.74,1.1,1.68.53,2.69Z"/>
        <path d="M137.34,100.2v-1.98c3.79-.6,3.24,2.28,0,1.98Z"/>
        <polygon points="149.19 102.17 148.79 104.54 146.82 104.54 146.82 102.56 149.19 102.17"/>
        <path d="M148.8,98.22c.1.61.11,2.6-.98,2.37-.86-.6-1.14-1.33-.99-2.37h1.98Z"/>
        <path d="M81.66,103.75h-2.37c0-1.32-.37-2.84,1.05-3.5,1.85-.48,1.27,2.42,1.32,3.5Z"/>
        <path d="M76.13,106.91l-.4,3.72c-2.3.83-2.07-2.24-1.97-3.73h2.37Z"/>
        <path d="M86.75,100.63c.7.49.02,2.73.04,3.52l-1.74-.35-.06-2.83,1.76-.33Z"/>
        <path d="M81.2,110.4l-1.52.06-.39-3.56,2.19.37c.42,1.02.14,2.16-.28,3.13Z"/>
        <polygon points="75.69 103.7 73.76 103.75 73.76 100.59 75.96 100.98 75.69 103.7"/>
        <polygon points="87.16 107.32 87.19 110.07 84.82 110.07 85 107.3 87.16 107.32"/>
        <path d="M203.29,100.99v5.13s-1.93-.05-1.93-.05c-.67-2.16-1.01-4.98,1.93-5.09Z"/>
        <path d="M198.55,101.77c.18,1.56-.89,2.89,0,4.34h-1.98s.18-3.97.18-3.97l1.8-.37Z"/>
        <path d="M192.63,98.62l-.39-4.35,1.33.05c1.09.36,1.21,5.07-.94,4.3Z"/>
        <path d="M201.32,98.22l-.34-3.3.31-.48c2.71-1.01,1.75,2.02,1.24,3.61l-1.2.17Z"/>
        <polygon points="194.21 102.17 194.04 105.75 192.24 106.11 192.59 102.4 194.21 102.17"/>
        <polygon points="198.15 94.28 198.55 97.82 196.61 97.78 196.58 94.27 198.15 94.28"/>
        <polygon points="193.82 108.88 194.99 108.09 194.21 111.26 192.63 111.25 192.69 108.55 193.62 108.09 193.82 108.88"/>
        <polygon points="236.47 97.03 236.46 95.06 245.38 95.09 246.33 94.27 245.69 96.19 236.47 97.03"/>
        <path d="M245.94,99.8l-.38,1.39c-3.05-.21-6.02.3-9.1.19v-1.58h9.48Z"/>
        <path d="M246.73,90.72c.56.58-.03.71-.58.78-3.01.38-6.68-.44-9.68.79l-.31-1.4c.23-.61.75-.55,1.27-.6,1.28-.12,8.79-.11,9.3.42Z"/>
        <path d="M279.11,73.74l.28,18.25-1.06,2.68c.19-1-.28-2-.28-2.92,0-3.89.12-8.24.29-12.27.07-1.64-.22-3.59-.02-5.16.07-.58.3-1.22.79-.58Z"/>
        <path d="M276.35,95.06c-.88-.22-.53-.57-.53-1.09.04-3.97-.21-7.83-.27-11.73-.05-2.98-.05-5.97.42-8.9.88.22.54.57.53,1.09-.05,5.46.53,10.8.49,16.13-.01,1.6.11,3.13-.64,4.5Z"/>
        <path d="M260.16,65.05c-.57,1.45-1.99.42-2.97.39-.85-.02-5.32.32-5.32-.59,2.5-1.71,5.64-.37,8.28.2Z"/>
        <path d="M258.98,68.99h-7.11s0-1.18,0-1.18c.25-.27,6.61-.13,7.11,1.18Z"/>
        <path d="M259.37,72.55c-.22.88-.57.54-1.09.53-2.04-.02-4.17-.09-6.15-.53l-.26-1.19,7.5,1.19Z"/>
        <path d="M25.58,109.27l-1.57-.59c1.77-1.76-.42-4.96,1.96-6.13l-.39,6.71Z"/>
        <path d="M301.63,91.9v1.18s-5.92,0-5.92,0c-.22-2.84,4.16-.54,5.92-1.18Z"/>
        <path d="M302.42,88.74c1.45,1.37-3.77.37-4.15.35-1.25-.06-2.94,1.12-2.96-.75,2.37-.73,4.72.1,7.11.4Z"/>
        <path d="M302.02,95.46c-.47,2.22-3.39,1.19-5.13,1.57.29-2.46,3.42-1.37,5.13-1.57Z"/>
      </g>
      <path d="M157.68,2.69s6.04-3.24,8.17-2.61,3.2.71,5.84,2.57c2.65,1.86-1.9.39-2.05.39s-2.76.2-2.76.2c0,0-1.7.2-2.49.24s-1.7.08-1.94.08-2.05.12-2.05.12h-.95c-.12,0-1.78-.83-1.78-.83"/>
    </g>
  </g>
</svg>