<?xml version="1.0" encoding="UTF-8"?>
<svg id="Layer_3" data-name="Layer 3" xmlns="http://www.w3.org/2000/svg" viewBox="0 0 346.75 56.18">
  <g id="Layer_1" data-name="Layer 1">
    <g>
      <path d="M247.67,26.1c-.27.88-5.03.88-5.76.02-.22-.26.07-3.43.06-4.23-.01-.96-.76-1.99-.02-2.65.89-.71,4.84-1.01,5.72,0v6.86ZM245.77,20.19l-1.86.05c-.31,2.41-1.33,5.74,2.24,4.91l-.38-4.95Z"/>
      <path d="M247.67,6.86v7.05c0,.73-4.69.45-5.36.41l-.19-7.1,5.55-.36ZM243.86,12.58l2.12-.36-.21-3.65-1.91-.18v4.19Z"/>
      <path d="M247.29,30.86c-.12.37.38.83.38.95v6.29l-5.55-.36-.17-6.88h5.33ZM245.77,32.38h-1.91c.16.98-.5,3.78.62,4.15l1.29.05v-4.19Z"/>
      <path d="M232.44,38.1v-7.24c.93.42,5.71-1,5.71.19v6.48c0,1.32-4.66.27-5.71.57ZM236.22,32.41l-2.26-.03c.14.94-.36,3.53.36,4.03l2.31.17-.41-4.17Z"/>
      <path d="M238.15,26.1c-.3.96-4.37.6-5.36.41l-.19-7.1.46-.3c1.6.28,3.94-.77,5.09.14v6.86ZM236.63,20.57h-2.68s0,4.59,0,4.59h2.68s0-4.59,0-4.59Z"/>
      <path d="M238.15,6.86v7.05l-.61.51-4.75-.13c-.88-5.56-1.5-8.44,5.35-7.43ZM236.63,8.38l-2.5.36c-.22.81-.53,3.95.43,4.17l2.04-.36.02-4.17Z"/>
      <g>
        <path d="M192.43,32v7.05l-.57.57h-5.91l-.22-6.68c.04-.28.71-.94.8-.94h5.91ZM190.49,33.94l-2.96.02.31,3.98,2.69.16-.03-4.16Z"/>
        <path d="M179.48,39.43c-.35,1.16-4.53-.28-5.72.19l.38-7.62,5.1.05c.94.35.24.76.24.91,0,1.4.29,5.54,0,6.48ZM177.95,33.53l-2.5.37.21,3.82h2.29s0-4.19,0-4.19Z"/>
        <path d="M192,43.86l-.12,6.07-5.51.32.13-6.08,5.5-.31ZM190.53,48.77l.21-3.06-2.88-.37v3.43s2.67,0,2.67,0Z"/>
      </g>
      <path d="M269.75,24.77h19.83v8.03h-19.83v-8.03ZM271.68,30.86l3.26-.36-.2-4.06-3.06-.16v4.57ZM281.55,26.71l-4.54-.04c.25,1.41-.6,2.84.05,4.15l4.52.05-.04-4.16ZM287.62,26.73l-4.52-.06.42,4.15,4.15.04c-.1-1.47.79-2.77-.05-4.13Z"/>
      <path d="M289.58,36.96l.36,7.96h-19.36c-.57-1.99-.2-3.86-.25-5.74-.02-.75-1.17-1.63.06-2.19l19.18-.03ZM275.11,38.86l-3.03.02v4.56s3.01-.02,3.01-.02l.02-4.56ZM277.01,43.43h5.33l-.43-4.52-5.25.36.35,4.16ZM288.06,38.86l-4.14.44.32,3.97,3.64-.18.18-4.22Z"/>
      <g>
        <path d="M213.39,36.58c4.32.26,4.28-3.73,9.25-2.59,1.37.31,2.27,2.31,4.08,1.83l.46-34.96c.6-.4,1.32-.46,2.02-.5,6.82-.35,16.47-.51,23.24-.16.73.04,1.68.26,1.72,1.13l-.78,23.81c3.74-.53,7.46-.22,11.21-.04.57-.13.91-2.93.96-3.63.08-1.17-1.06-2.52.6-2.8l28.52-.33.46.3.2,13.32c2.33.21,4.59.57,6.71-.65,1.63-.93,5.51-5.1,7.22-6.69,1.59-1.48,1.45-3.51,3.95-1.59,1.43,1.1,11.94,11.47,12.58,12.56.36.61.46,1.03.36,1.73l-1.9-.38v6.67l.76.38c.99-.75,2.16-3.21,3.32-3.55.33-.1,3.67-.46,3.84-.38.12.05,1.76,1.72,1.82,1.84.25.56-.33,1.22-.18,1.46.05.07,1.41.86,1.48.82.08-.05.05-1.31,1.28-1.07,2.64,1.52,1.59,4.62,1.77,7.17l2.32.53.34,3.28c1.87.03,4.12-.29,5.71.96.22,1.02-1.86.91-2.45.95-8.45.54-17.45-.34-25.95-.4-49.78-.35-99.92.6-149.71,0-26.47-.31-53.19-.9-79.62-1.15-29.64-.28-59.3-.5-88.98-.37-.05-.7-.14-1.16.65-1.44,2.06-.73,4.51-.22,6.61-.63.62-.44.22-1.87.43-2.62.05-.16,1.8-2.72,1.92-2.84.47-.46,1.91-.5,2.78-1.23,2.05-1.72,2.33-5.25,5.9-4.58-.83-4.32.25-3.66,2.62-5.96,1.3-1.27,4.51-5.22,5.78-5.66.7-.24.95.06,1.48.41,1.46.97,4.55,3.8,5.94,5.11,1.18,1.11,3.35,2.59,2.46,4.2,1.31.19,2.58.82,3.61-.39.78-.91,1.03-4.93-.04-5.26-.8-.25-2.33.37-2.42-1,4.6-4.81,9.85-9.1,13.33-14.87,1.36-.83,6.03.45,7.82.5,1.97.06,4.67-.62,6.81-.35,1.11-.38.38-2.47,1.15-3.01,2.77-1.95,5.16-.11,5.24,3.01,1.01.23,2.19-.14,3.18.06,1.31.25,5.01,6.15,6.13,7.58,1.89,2.41,4.1,4.57,5.86,7.08l-2.62.61c-.97,2.57.14,5.05-.41,7.57.26.39,3.68.55,4.32.33.57-.2,1.87-3.2,3.11-3.75.7,1.71,1.96,1.9,3.62,1.52v-14.29l-.63-.51c-1.02-.31-2.45.43-3.18-.64-.36-1.83,5.8-5.99,7.24-7.22.88-.75,1.58-1.74,2.48-2.47,3.22-2.63,6.86-4.79,9.96-7.58,1.42-.97,2.92.88,4.23,1.38.52.2,1.22.02,1.72.19,1.05.36,1.67,1.35,2.94,1.06.11-1.28-.17-2.72.03-3.98.47-3.05,3.2-.78,5.44-1.38,1.06.88.24,2.17.24,3.24,0,2.59-.13,5.25.22,7.82,1.27,1.84,9.62,7.25,10.03,8.66.6,2.07-2.03,1.89-3.36,1.64l.38,7.23c.98-.04,2.12.22,3.04-.19,1.29-.58,5.21-5.47,6.75-5.83,1.4-.33,3.65.75,3.51,2.44l3.79.21c.27,3.99,4.32,1.35,6.53,2.42.34.17,3.32,4.7,3.51,5.25.39,1.1.08,2.37.64,3.17.75,1.06,5.12,1.92,6.51,2.45v-12.38c0-1.13-3.9-1.59-3.43-3.01l8.48-15.37,6.02-.65.42-3.96c.33-.52,4.03-.14,4.34.29l.17,4.22c7.76-.74,15.78-.4,23.62-.19l9.35,15.41c.77,2.71-1.2,1.38-2.87,1.54v9.14ZM251.85,53.33l-.15-50.68-23.08.02-.38,51.06c.99-.17,3.77.51,4.14-.63l-.33-10.04,15.64-.22.37,10.89,3.79-.4ZM123.82,5.37l-1.5-.22-.59.74c.46,1.75-1.12,5.73,1.18,6.68.73.3.86-1.72.9-2.14.16-1.67.02-3.39,0-5.06ZM120.09,14.43c-.08-.06.49-.84-.83-1.65-.84-.52-1.71-.44-2.29-.78-.35-.2-.05-.86-.33-1.15-.85-.88-3.98-3.48-5.09-3.18l-17.03,13.85c.6.85.92.55,1.65.13,2.22-1.28,5.53-4.01,7.67-5.67,2.87-2.23,5.59-4.76,8.38-7.09,1.43-.09,1.87,1.5,2.66,2.14.54.44,1.15.52,1.6.89,1.74,1.44,3.41,4.23,5.84,3.68-.19-1.06-1.87-.9-2.23-1.19ZM181.38,10.67l.22-2.31-1.74-.35c.56.93.01,2.74,1.52,2.66ZM96.8,23.05v29.53l17.47.71c.75-.47.57-11.3.06-12.9l7.56.05.12,12.29c.33,1.2,3.25-.22,4.13.61l.21-30.47-13.81-11.39-1.98.95-13.75,10.63ZM204.24,12.19h-29.91c-.11,0-1.42,1.26-1.33,1.71.24,1.14,4.84.15,5.9.17,7.28.1,14.8.86,22.1.03.5-.06,4.19-1.14,3.24-1.9ZM202.72,14.86c-1.63-.31-3.23.34-4.74.39-7.61.27-17.64-.96-24.8-.03-1.2.16-1.82.63-1.69,1.92l19.66.35c3.14-1.19,8.35.97,10.51-1.4l.66.27.4-1.5ZM201.96,22.86c1.21-2.1,2.09-4.35,4.12-5.9l-1.26-1.71c-.95.57,0,1.11-.36,1.88-.15.33-1.4,2.16-1.8,2.82-1.2,1.98-3.98,4.32-3.56,6.72.84-1.4,1.89-2.6,2.86-3.81-.55.95-1.05,2.16-1.6,3.16-1.33,2.44-2.98,3.23-2.21,6.74l9.44-12.84.08-.87c-.67-.14-.94.34-1.34.75-1.72,1.78-3.49,4.73-4.76,6.86l-.02-1.36,5.36-6.84-.57-.94c-1.52,1.71-2.96,3.54-4.38,5.33ZM125.38,19.41l.22-1.14-2.13-.75c-.24.23,2.29,3,2.48,3.05.44.1,1.28-.48.57-.96l-1.14-.2ZM200.43,17.91h-29.14c-.63-.1-1.99,1.99-1.72,2.28l29.9-.17c.95-.28,1.04-1.24.96-2.11ZM75.08,19.43c-4.51-.07-9.03.09-13.54.01-.39,0-7.8-.92-5.89.74,5.99-.59,13.05,1.1,18.86,0,.62-.12.66.25.57-.75ZM54.67,21.94c-.52-.54-.84-1.29-1.49-1.74-3.33,4.02-10.4,8.4-10.87,13.89-.23,2.67.41,5.17.41,7.61,0,2.92-.3,5.86-.43,8.78.17,1.65,3.04,1.22,3.85.33l-.02-11.18,5.37.25.32,12.16,8.16.58,3.3-3.35.3-16.58c-2.99-3.54-5.72-7.39-8.91-10.74ZM204.62,31.62c1.32-1.72,1.23-3.83,2.21-5.6,1.23-2.22,4.18-3.1,1.41-5.82l-5.52,7.42c1.22.81,1.59-1.07,2.29-1.9.52-.61,1.19-1.32,1.89-1.72-.06,1.28-3.32,3.31-2.61,4.52.21.35,2.68.77-.08,1.4l.4,1.69ZM267.11,21.15v32.57l2.99-.05.43-4.9,18.96-.12c2.04.69-1.55,7.25,3.82,4.99.9-.64.08-8.02.06-9.63,0-1.14.3-2.3.29-3.43-.05-6.75-.51-13.6-.27-20.39l-25.64.46-.65.49ZM168.24,23.24c9.94-.41,19.97.31,29.91,0l1.14-2.28c-4.16.1-8.24.34-12.36.39-6.07.07-12.16-.13-18.22,0-.34.11-.96,1.33-1.05,1.7-.27,1.13.53.2.58.19ZM78.13,24c.52-.44-2.12-2.86-2.88-2.64l-18.08-.02c-.11.08,1.19,2.16,1.34,2.28,1.17.97,10.24-.03,12.59-.02,1.14,0,6.59.78,7.03.4ZM210.34,23.62c-.41-.45-3.81,2.69-3.04,3.81.71-.31,3.58-3.23,3.04-3.81ZM196.75,25.08c-.11-.2.14-.57.07-.69l-.38-.37-29.92.37v1.14s24.2.8,24.2.8l6.66-.8c.17-.62-.54-.26-.63-.45ZM80.04,26.29c-.11-.42-.63-.95-1.03-1.06-.68-.2-4.2-.4-5.26-.46-2.51-.13-4.9.29-7.23.3-1.04,0-6.2-.71-6.67-.3l.55,1.16,19.64.36ZM309.4,47.24v6.29c.53.86,3.59.81,4.02.21l.17-6.12,4.53.04.04,6.05c1.97-.81,1.67-2.79,4.13-3.11l-.02-15.67-10.07-10.13c-.88-.14-3.9,3.57-4.73,4.34-1.17,1.08-4.7,3.67-5.34,4.55-.98,1.35-.33,6.47-.34,8.42,0,1.69-.05,3.24-.02,4.94.04,2.22-.17,4.48.18,6.68h3.08s.61-6.44.61-6.44l3.75-.05ZM211.48,26.3l-1.52-.6c-1.69,1.91-3.31,2.69-2.66,5.55l4.19-4.95ZM256.44,26.67l-2.66.39v1.13s.76.19.76.19c-1.08.33-.7,1.19-1.15,2.09,1,.24.67-.32.98-.72.29-.36,2.31-2.87,2.06-3.09ZM258.72,26.67c-2.06-.39-2.95,2.48-3.87,3.96-.26.43-.9.54-.99.7-.47.83.07,3.72-.47,4.87l7.17-8.64-.5-.89-3.49,3.56-2.41,4.06.99-3,3.57-4.61ZM263.3,26.67l-1.92.94-3.79,5.15c.84.2.84-.48,1.22-.87,1.57-1.64,2.86-3.63,4.5-5.22ZM81.18,27.43l-19.43-.19c.04.69,1.16,1.51,1.69,1.74,1.84.8,7.55-.36,9.92-.42,1.61-.04,6.48.61,7.28.04.38-.28.65-.65.55-1.16ZM261.77,32.39c.29-1.95,2.54-3.02,3.43-4.38.38-.58.13-.97-.19-.94-.22.02-3.13,2.42-3.51,2.77-.32.3-.28.96-.6,1.3-.92.99-2.31.32-1.84,2.76l-1.06.04-.04,3.02,1.9-.55c.87-.67-.02-2.81.55-3.67.34-.51,1.15-.24,1.35-.35-.08.55-.14.91.57.76,1.01-1.4,3.09-1.8,2.86-3.81-1.1,1-2.11,2.3-3.43,3.05ZM173,44.96h7.62v8.76l9.67.4c.82-3.14,2.74-3.84,5.77-4.18l.37-21.38c-.32-.55-3.34-.73-4.18-.77-6.47-.34-14.81-.39-21.29-.22-.55.01-1.15.21-1.69.32l-.03,25.2.57.57,3.18.05v-8.76ZM200.81,43.82c.63-1.12,1.1-2.66,2.28-3.43l-.18,1.15c1.36-.64,2.08-.39,2.53,1.09l.7-.34-.76,1.34c-.06.28.4.26.56.19.39-.17,4.89-6,5.18-6.64.2-.44.88-2-.02-2.12-.63,1.96-2.23,4.2-3.59,5.76-.32.37,0,.96-.99.71-.38-.36,4.36-6.43,4.75-7.25.17-.36.55-1.19-.17-1.13-1.42,3.08-4.06,5.5-6.29,8-.28.06-.26-.4-.19-.56.31-.7,3.08-3.28,3.8-4.21.82-1.06,3.03-3.8,3.09-4.94.07-1.22-.4-2.6.35-4-.66-.59-4.16,4.07-4.37,4.58-.45,1.12.09,2.77-.38,3.43-.17.24-2.1.96-2.49,1.89l.38-1.52-2.29.75c.55-.74.39-1.57-.58-1.41-.44.07-1.95,2.27-2.85,2.94,1.3-2.52,3.62-3.81,3.04-6.86-1.08,1.21-5.24,6.15-4.18,7.62.4-.15.78-.5,1.14-.76-.58,1.12-1.43,2.08-1.14,3.43l1.71-1.9c.8.61-1.68,2.36-1.72,2.55-.23,1.18.51,3.26,0,4.68,1.24-.89,1.41-1.95,2.66-3.05-.98,1.74-2.44,3.84-2.66,5.71,1.05.24.65-.35.94-.76,1.29-1.87,3.27-3.69,3.25-6.09-.32.73-1.4,1.04-1.52,1.14ZM144.43,27.82l-1.74.35c-2.57,3-4.63,6.34-6.26,9.93.83.19.85-.46,1.22-.87,1.48-1.6,2.66-3.84,3.95-5.57.94-1.27,2.37-2.12,2.82-3.84ZM198.52,35.81c.86-2.75,4.3-4.55,3.81-7.62l-3.89,5.82.08,1.8ZM136.05,40.38c1.55.3,2.51-1.1,3.42-2.1,2.1-2.32,3.9-5.63,6.12-7.98.67-.82-.55-1.49-1.28-.49-2.41,3.28-5.16,6.34-7.08,9.96l-1.18.62ZM83.08,29.72l-16.95.38c-3.08,2,3.18,1.54,4.57,1.52,1.26-.02,2.63-.02,3.86-.05,2.82-.07,5.67-.57,8.53-.33v-1.52ZM149,29.72l-1.82.08-7.7,10.58c.87.79,5.69-5.66,6.47-6.29l3.06-4.37ZM128.05,36.2c.33.37,4.06-4.59,3.04-5.71l-3.04,5.71ZM27.46,31.25l-7.19,6.71c-.77,1.17-.39,2.35-.05,3.57,1.92-2.65,5.17-5.54,6.74-8.33.43-.76.28-1.19.49-1.95ZM142.52,40.38c.75.13,1.02-.09,1.53-.56.57-.52,5.26-6.51,5.51-7.07.28-.62.11-1.53-.37-1.51-.56.03-5.92,8-6.67,9.13ZM29.36,32.41l-1.13-.4c-1.45,4.79-7.64,7.16-7.63,12.57l3.8-4.01c1.65-2.7,4.51-4.85,4.96-8.16ZM265.58,32.01c-.68-.67-3.91,3.98-3.42,4.95.81-.24,3.65-4.73,3.42-4.95ZM152.04,32.39c-.96-.19-.96.13-1.46.63-1.67,1.65-3.09,4.71-4.63,6.61l2.59-2.15,3.51-5.08ZM65.56,40.01c-.49,2.48-.44,4.69-.38,7.24,1.06-.08.75-2.55,1.9-1.71l-1.91,3.05c-.23.75,1.96-.73,2.21-1.6.43-1.52.01-5.67.47-6.66.19-.42,2.3-2.57,1.88-.58l.78.09,4.56-6.67c-2.96-.64-3.73,2.18-5.52,3.81-.26-1.18,1.36-2.24,1.71-3.24.3-.84-.22-.5-.63-.25-1.91,1.13-4.67,6.45-5.08,6.54.19-.96.25-1.61.7-2.54.75-1.55,2.21-2.38,2.73-3.93l-3.73,2.36-.47,3.92c-.01.33.54.25.77.2ZM75.09,47.05v-7.05h1.9s-.19,1.52-.19,1.52l4.38-4.57c-.07,1.38-2.26,1.85-1.33,3.43.77-.92,3.47-3.41,2.86-4.57l-.75-.18,1.14-1.72c-.84-.21-.85.48-1.22.87-1.21,1.26-2.4,2.82-3.58,4.04-.39.41-.55.97-1.3.79l4.95-5.9c-.22-.42-1.18-.17-1.53,0-.29.15-3.41,4.29-4.11,5.03-.37.4-.38,1.07-1.22.87-.26-.25,3.93-5.1,4.19-5.91.06-.19.1-.62-.18-.56l-5.14,5.33,3.43-4.76c-.09-.36-1.04-.23-1.27-.13-.87.37-3.73,4.97-4.82,5.85l1.05.25-.29,5.65,2.09-1.9c.77.8-.48.77-.9,1.37l-5.77,7.77c.39.39,1.6-1,1.91-1.32.85-.88,3.74-4.88,4.38-5.15.45-.19.76.11.56.56-.66,1.52-4,3.53-3.62,5.53l4.38-5.14ZM154.71,33.15c-1.21-1.15-6.86,6.52-7.24,7.61,1,.24,1.3-.49,1.87-1.07,1.48-1.49,3.24-3.57,4.6-5.21.36-.43.92-.62.76-1.33ZM128.42,39.24l3.05-5.71c-.56.92-2.92,3.14-3.23,3.82-.17.37-.61,1.9.18,1.9ZM254.15,39.24c.67-1.83,2.66-3.18,2.29-5.33l-2.3,3.22c-.16.39-.82,2.08.01,2.11ZM299.49,33.91c-.82-.18-.86.42-1.21.89-1.43,1.95-3.42,4.23-2.98,6.73,1.27-1.2,1.82-3.2,2.66-4.67.37-.65,1.96-1.3,1.53-2.95ZM31.65,35.06l-1.52-.61c-2.1,1.94-3.48,4.4-5.18,6.66-1.38,1.84-6.21,5.6-1.34,5.71.06-.45.13-.9.41-1.28,2.32-3.2,5.03-6.29,7.25-9.53.17-.25.63-.59.37-.95ZM258.34,46.1c1.27-3.13,5.02-6.21,6.43-9,.35-.69.53-1.26.43-2.04l-6.4,8.27c-.3.56-1.52,2.39-.46,2.78ZM24.79,48.39l8.36-11.29-.92-1.27c-2.76,3.86-5.78,7.55-8.14,11.68l.7.88ZM222.53,35.82c-.61,0-1.02-.19-1.56.25s-2.99,3.33-3.51,4.03c-.34.46-2.19,2.91-1.79,3.33.67.13.94-.34,1.34-.75,1.97-2.05,3.65-4.7,5.52-6.86ZM157,36.2c-.37-.39-2.41,2.16-2.66,2.48-.28.37-1.43,1.76-1.15,2.08.58.67.84-.54.99-.71.35-.41,2.98-3.68,2.82-3.85ZM219.1,36.2c-.33-.34-2.14,1.63-2.42,1.95-1.09,1.26-1.94,2.8-2.92,4.14l2.28-1.33,3.05-4.76ZM154.33,36.58l-1.3.79-2.89,3.77c.97.17.81-.01,1.26-.47.28-.28,3.12-3.93,2.93-4.1ZM224.05,36.58c-.39-.41-1.79,1.2-2.1,1.52-.52.55-5.47,6.59-5.14,6.86.85.15,1.18-.22,1.73-.74,1.18-1.12,3.97-4.71,4.91-6.14.31-.47.71-.87.6-1.49ZM225.96,37.34c-.93-.98-3.98,4.36-4.41,4.92-.54.71-4.22,4.35-3.59,4.98,1.7-.04,3.1-2.34,4.18-3.63.67-.8,4.49-5.57,3.82-6.28ZM253.39,41.91c1.44-1.09,3.17-2.6,3.04-4.57-1.13,1.25-2.62,2.94-3.04,4.57ZM34.61,38.2l-1.06-.31-7.99,11.26c3.89-2.05,6.53-6.55,9.33-9.9l-.28-1.05ZM299.49,37.72c-.6-.64-2.45,3.1-2.73,3.55-.87,1.43-2.03,1.7-1.46,4.06,1.14-.51,4.63-7.14,4.19-7.62ZM265.2,38.1l-4.18,4.76.95.95c1.31-1.72,3.38-3.28,3.23-5.71ZM81.4,41.37c.72-.88,1.54-1.62,1.3-2.89-1.6,1.64-3.59,2.63-3.04,5.33l1.74-2.45ZM128.42,43.05c-.12-1.57,2.76-3.25,1.34-4.56-1.12,1.11-1.52,2.62-2.04,4.06l.7.5ZM260.63,39.25c-.61,0-1.02-.19-1.56.25-.49.41-4.66,6.16-4.9,6.81-.28.77-.41,1.64-.4,2.45l6.85-9.52ZM226.72,39.63c-.8-.19-.86.43-1.23.86-2.09,2.49-4.03,5.66-6.01,8.27.39.35,1.78-.82,2.11-1.12.89-.83,3.71-4.15,4.37-5.16s.5-1.78.76-2.86ZM92.23,40.01c-.5-.48-.95.19-1.25.47-1.83,1.69-3,3.78-4.08,6,1.05.16.93-.01,1.41-.69.62-.9,4.59-5.15,3.92-5.78ZM129.19,44.58l1.71-4.57-3.24,5.91h1.52s-1.52,3.62-1.52,3.62l3.42-4.95-1.14.76,1.52-3.04-2.28,2.28ZM257.2,40.01c-1.15-.3-1.48.76-2.05,1.56-.72.99-1.72,2.54-1.75,3.77.62-.64,4.55-4.61,3.8-5.33ZM40.79,40.39l-2.82,3.08-.99,1.86,3.25-3.41.55-1.54ZM89.57,46.48c1.92-1.57,4.13-3.5,4.56-6.1-1.55,1.73-3.96,3.88-4.56,6.1ZM73.94,52.57c1.96-.15,2.39-2.01,3.26-3.02,1.21-1.41,4.66-5.08,5.3-6.51.33-.73.21-1.51.19-2.28l-2.84,3.83c.1,2.16-1.15,2.02-2.3,3.41-1.23,1.48-2.19,3.22-3.62,4.57ZM261.77,46.1c.49.49,2.13-2,2.37-2.39.5-.81,1.19-1.49,1.05-2.56l-2.22,2.54-1.2,2.41ZM295.3,48.77c1.85-1.95,3.81-4.97,4.18-7.62-1.18.84-1.41,2.6-2.11,3.79-.64,1.11-2.41,1.9-2.08,3.82ZM48.03,46.86c.36-1.89,2.07-3.32,1.91-5.33-1.01.93-2.1,2.67-2.29,3.99-.05.36-.24,1.45.39,1.34ZM91.46,48c.05-.05.1-.64.38-.94,1.61-1.68,3.16-2.98,3.44-5.53l-4.57,5.91c-.26.64.52.77.75.56ZM161.57,41.53c-.81-.18-.86.41-1.21.88-1.04,1.43-1.98,3.51-3.74,4.07v.37c.84-.15.82.41.76,1.15l3.28-4.14.9-2.33ZM30.89,46.48c.33.37,4.46-3.48,4.18-4.57-.62.43-4.65,4.05-4.18,4.57ZM116.24,45.72c1.52-.17,1.42-3.82.57-3.8-1.06.93-.42,2.58-.57,3.8ZM136.42,41.91c-1.39.06-3.08,1.17-3.36,2.57-.18.91.5,1.78-.44,2.76l3.21-3.84.6-1.49ZM332.22,42.33l-.92-.41-3.23,4.37,1.14.95c-1.33-.22-5.24,5.82-4.95,6.1.78.1,1.25-.65,1.72-1.13.66-.68,5.88-7.18,6.08-7.63.31-.69.28-1.51.16-2.24ZM13.75,46.86c.55.51,3.41-3.04,4.01-3.42l-.4-1.15c-1.24,1.61-3.12,2.15-3.62,4.57ZM78.13,42.29l-1.34.37-.18,2.68h1.14s.38-3.05.38-3.05ZM87.66,42.29c-.59-.63-2.84,2.54-2.28,3.43.68.77,2.67-3.01,2.28-3.43ZM120.42,42.29h-1.52s0,3.43,0,3.43l1.55-.61-.03-2.82ZM141.76,42.3c-1.23.19-3.54-.38-4.57.19-.79.44-4.8,6.39-4.19,7.81,1.1-1.3,2.7-2.44,3.06-4.19,1.8,1.28,2.5-1.54,3.69-1.85s3.26.66,4.3,1.29l2.29-2.87c-2.44-.21-3.52-.97-5.33,1.14l.76-1.52ZM150.14,42.29c-3.04-.53-5.32,2.7-5.71,5.33,2.31-1.43,4.88-2.42,5.71-5.33ZM153.19,42.3c-3.15-.33-3.59,3.88-6.31,4.94l.6,1.91,5.71-6.85ZM164.62,42.29c-.96-.19-.96.13-1.46.63-.37.36-3.71,4.87-3.49,5.08l1.72-1.13,3.23-4.57ZM207.11,48.21l3.6-5.16c-2.09.83-2.88,2.44-3.85,4.26-.25.47-1.16.49-.71,1.84.36-.03.7-.62.96-.93ZM212.62,43.06l-2.46,2.29c-.52,1.86-2.66,2.65-2.87,4.57.56.67,4.46-4.8,4.77-5.32s.76-.75.55-1.54ZM324.64,49.53c1.62-1.92,3.66-4.18,4.56-6.48-1.54,1.98-4.6,3.86-4.56,6.48ZM154.33,43.44c-.73-.16-.91.38-1.29.8-1.65,1.8-3.15,3.96-4.42,6.06.57.5,5.14-4.36,5.35-4.74.42-.74.44-1.29.36-2.11ZM166.52,43.44l-1.26.47-3.69,4.86c.51.51,4.81-4.59,4.95-5.33ZM259.86,48.77c1.2-1.73.25-3.12.77-4.95l-2.63,3.28.54.9.95-.76-.38,1.33.76.19ZM79.66,48.39c1.04.92,3.47-3.19,3.04-4.19l-3.04,4.19ZM18.7,44.58c-.25-.27-2.76,1.81-3.04,2.1-1.17,1.19-3.39,3.9-3.43,5.52.88-.76,7.16-6.88,6.47-7.62ZM214.15,44.58c-.36-.4-1.62,1.02-1.91,1.32-.56.57-3.67,4.42-3.87,4.9-.22.5-.17,1.03.26,1.01.38-.02,4.46-4.99,4.97-5.69.38-.52.72-.76.55-1.54ZM241.2,44.58c-.97-.17-.81.01-1.26.47-1.11,1.13-2.12,2.83-1.79,4.48l2.61-3.29.44-1.66ZM246.15,44.58c-.36-.33-.89-.06-1.24.48-.91,1.42-2.21,2.68-2.19,4.47l2.22-2.54c.22-.43,1.55-2.09,1.2-2.41ZM48.03,50.29c.22-1.95,2.16-3.27,1.91-5.33-.5.47-2.07,2.49-2.2,2.94-.11.38-.43,2.34.3,2.39ZM163.48,49.91l3.21-2.69.59-1.88c-.72.24-4.14,4.22-3.8,4.57ZM141.76,46.47l-.76-.57c-1.95,2.11-4.15,4.42-5.33,7.06,2.36-1.73,3.63-5.04,6.09-6.49ZM208.43,54.1c.71.17.91-.4,1.33-.76.91-.76,5.54-5.71,5.75-6.45.19-.68.14-.72-.42-1.16l-6.67,8.37ZM236.62,45.72c-.9-.19-.73.34-.97.75-.71,1.21-1.79,2.48-1.69,3.82l2.38-2.38.29-2.19ZM333.78,45.72c-1.04-.17-1.39.12-2.11.74-2.02,1.71-3.42,5.39-5.5,7.26.71.17.91-.4,1.33-.76,1.12-.94,2.64-2.51,3.63-3.61.33-.36,2.94-3.38,2.66-3.63ZM336.44,45.72c-.79-.84-2.43,2.22-2.85,2.67-1.69,1.8-3.63,3.38-5.15,5.33,2.09-.88,4.66-3.27,6.3-4.94.45-.46,2.37-2.35,1.7-3.06ZM19.84,46.1c-.78-.1-1.24.65-1.72,1.14-.39.4-4.23,4.74-4,4.95l3.83-2.84,1.89-3.25ZM177.57,46.49c-2.24-.47-3.23,1.47-3.04,3.43,1.55-.49,1.94-2.34,3.04-3.43ZM179.09,46.48c-.73-.16-.91.37-1.29.8-.88.97-4.33,5.19-3.27,6.44.81.17.87-.41,1.21-.88.65-.9,4.04-5.58,3.36-6.35ZM70.51,46.87l-1.68.79c-.31.72-3.71,4.04-3.27,4.53s1.94-1.86,2.49-1.89l2.46-3.44ZM77.37,46.87c-.69-.66-5.1,4.88-5.33,5.71l2.48-1.9,2.85-3.81ZM80.42,52.2c1.02-.82,2.99-2.82,3.52-3.91.35-.74.43-.88-.28-1.41-1.07,1.68-2.64,3.45-3.23,5.33ZM246.53,46.87c-.99-.25-.67.34-.99.71-1.4,1.6-2.88,3.49-2.43,5.76l2.83-3.85.6-2.62ZM154.33,47.25l-1.53.94-2.27,2.87c.43.4,4.52-3.02,3.81-3.81ZM238.15,52.58c1.43-1.35,3.32-3.24,3.04-5.33-1.58,1.13-3.08,3.3-3.04,5.33ZM34.32,47.63c-.7-.72-3.94,3.98-4.19,4.57,1.5,1.1,3.87-3.46,4.19-4.57ZM86.13,47.63c-.49-.48-2.35,2.08-2.65,2.49-.35.48-2.02,2.34-1.54,2.84,1.42-.08,1.98-1.79,2.66-2.76.22-.32.79-.41.92-.66.17-.3-.15-1.37.61-1.91ZM116.61,51.43c.27-1.53,2.3-2.11,2.29-3.81-1.47.72-2.58,2.07-3.05,3.61l.76.19ZM214.37,51.28c.9-.98,2.68-2.42,2.06-3.65-.55-.57-4.01,5.52-4.94,5.34l.18.75c1.1-.59,1.89-1.55,2.7-2.44ZM221.39,52.2c.77-.34,4.29-4.02,3.8-4.57-1.49,1.34-3.72,2.24-3.8,4.57ZM18.47,51.21c.92-.65,4.89-3.05,2.12-3.02l-3.8,3.82c.74.71,1.38-.58,1.68-.8ZM116.23,53.34c.54.52,3.11-3.19,3.37-3.67.29-.54.54-1.02.43-1.66l-3.8,5.33ZM142.14,48.01c-.66-.69-5.22,5.08-4.95,5.33.71.17.91-.4,1.33-.76.57-.48,4.14-4.02,3.62-4.57ZM254.16,52.58c1.08-1.28,3.2-2.65,2.28-4.57l-1.97,2.79-.31,1.78ZM262,51.67c.83-1.03,1.87-2.32,2.05-3.67-1.06,1.42-4.08,3.97-4.56,5.53-.06.19-.1.62.18.56.61-.83,1.74-1.7,2.33-2.43ZM27.84,52.58c.5.53,3.74-3.27,3.42-4.19-.72.35-4.01,3.58-3.42,4.19ZM84.23,52.96c.92-.06,1.73-1.42,2.27-2.11s1.42-1.59,1.54-2.46c-1.46,1.19-3.28,2.68-3.8,4.57ZM139.47,53.72c.45.4,3.28-2.92,3.64-3.41.38-.52.7-.8.55-1.54-.41-.52-4.03,4.28-4.19,4.95ZM336.34,50.19c.15-.33.43-1.51-.27-1.42-.65,2.07-2.96,2.94-4.2,4.57.85.1,4.28-2.74,4.46-3.14ZM37.75,49.15c-.91-.84-2.96,3.09-2.66,3.43.95.07,3.05-3.06,2.66-3.43ZM89.56,49.15l-2.48,2.27-.94,1.53c.77.61,3.69-2.84,3.43-3.8ZM153.19,53.72l1.54-.56,2.27-4.01-1.3.8-2.51,3.77ZM234.34,52.96c.63.72,3.01-2.87,2.28-3.81-.8.37-2.9,3.1-2.28,3.81ZM260.63,49.15c-.84-.14-1.4,1.18-1.83,1.78-.62.87-1.15,1.81-1.59,2.78l3.07-2.83.36-1.73ZM159.28,49.53c-.61-.63-3.44,3.06-3.43,3.8.57.57,3.86-3.36,3.43-3.8ZM175.67,54.1c2.39.12,3.53-2.58,3.43-4.57-1.68,1.01-2.2,3.12-3.43,4.57ZM62.97,51.77l.11-1.85-2.48,2.66c1.03-.07,2.6.42,3.04-.75l-.68-.06ZM205,49.91c-1.09-1-3.54,3.55-4.19,4.19.47.42,4.63-3.78,4.19-4.19ZM241.58,53.34l-.19-3.42-2.48,3.81c1.08.06,1.57-.92,2.66-.38ZM264.8,51.03c.28-.38-.23-.86-.55-1.11-.29.76-3.13,3.09-2.47,3.8,1.41.05,1.59-1.47,2.13-2.26.24-.35.84-.37.89-.43ZM278.53,49.91c-.53-.55-3.8,3.23-3.42,4.19.61.64,3.84-3.76,3.42-4.19ZM277.39,54.1c.5.53,3.74-3.27,3.42-4.19-.31-.39-3.95,3.64-3.42,4.19ZM141.76,53.72c.78.14,1.01-.08,1.53-.56.24-.22,2.12-2.63,1.89-2.86l-1.33.76-2.09,2.67ZM202.34,50.3c-.49-.46-4.49,2.78-3.81,4.19l2.48-2.28,1.33-1.91ZM275.87,50.3l-1.26.47-2.16,2.96c1.01.8,3.09-2.72,3.43-3.42ZM161.19,50.68c-.87-.84-2.93,2.55-3.43,3.04.69.54,4.09-2.4,3.43-3.04ZM286.53,50.68c-.85-.77-3.13,2.75-3.43,3.42.99.78,3.72-3.16,3.43-3.42Z"/>
        <path d="M110.14,47.05c0,.74.71,1.87-.73,2.31-1,.3-5.43.26-6.75.14-.41-.04-.8.03-1.13-.31-.76-.58-.12-4.65-.13-5.94,0-1.11-.76-2.21.16-2.86h8l.57.57c0,2.03.01,4.06,0,6.1ZM104.42,41.91l-1.74.37.22,2.29h1.51s0-2.66,0-2.66ZM108.21,44.56c.94-4.1-3.73-2.79-2.08.04.31.53,1.53-.17,2.08-.04Z"/>
        <path d="M115.53,33.86c-.19-.39-.37-.83-.37-1.26-.01-1.73.11-5.21.31-6.88.38-3.32,3.59-1.94,6.13-1.92.75.52,0,5.21-.04,6.48s.84,3.65-.6,3.93l-5.42-.35ZM116.99,28.2c4.97.95,4.56-3.79,0-3.05v3.05ZM120.04,29.71h-3.06s0,2.68,0,2.68h3.06s0-2.68,0-2.68Z"/>
        <path d="M108.61,33.72c-.27.88-5.91.8-6.31.21v-9.56c.57-.85,5.51-1.25,6.31-.18v9.52ZM103.66,28.19l3.45-.16c1.33-3.08-.58-3.16-3.09-2.69l-.36,2.86ZM107.47,32.77l-.36-2.86-3.45-.18.76,2.86,3.05.18Z"/>
        <path d="M54.89,47.63v-8l4.41.37c-.26,1.58-.27,3.19-.23,4.79.02.93.9,2.42-.23,2.78l-3.94.06ZM57.56,41.15h-1.14s0,4.95,0,4.95l1.43-.55-.29-4.4Z"/>
        <path d="M54.89,34.29c-.85,0-1.62-.38-2.47-.41-.76-.03-2.75.6-2.86-.17l.94-6.69c.16-.31,4.02-.75,4.39.22v7.05ZM51.46,32.77l2.12-.36c.23-.79.44-3.24-.19-3.67l-1.93-.17v4.19Z"/>
      </g>
      <path d="M309.4,36.58v6.29c0,1.13-3.36,1.04-4.19.95v-7.24h4.19ZM307.87,38.1c-1.65-.07-1.03,2.8-1.14,3.81h1.14s0-3.81,0-3.81Z"/>
      <path d="M317.78,43.82l-4.57-.38c-.15-.39.38-.81.38-.95v-5.91l3.95.05.53.53c.01.15-.29.29-.29.38v6.29ZM316.63,38.1l-1.53.64-.33,2.95.57.56,1.29.04v-4.19Z"/>
    </g>
  </g>
</svg>