<?xml version="1.0" encoding="UTF-8"?>
<svg id="Layer_2" data-name="Layer 2" xmlns="http://www.w3.org/2000/svg" viewBox="0 0 347.87 50.96">
  <g id="Layer_1" data-name="Layer 1">
    <g>
      <path d="M57.53,26.61c1.08-.21,4.51.56,4.9-.62.82-3.57-.25-23.82.98-24.92,1.58-1.41,3.64-.27,5.36-.32,6.26-.2,15.3-1.24,21.35-.43.96.13,1.49.32,1.69,1.36.61,3.2-.28,9.22-.24,12.73.02,1.93.5,4.1.26,6.12l18.22-.32c1.38.89-.98,9.41-.28,11.33l9.99-.02.64-.52V10.41c.33-.54.76-.53,1.31-.59,5.33-.63,15.77-.43,21.4-.32.83.02,4.65.5,5.11.91l.76,21.53c.36.4,2.75-1.59,3.42-1.74,2.1-.45,5.27,2.78,4.58,4.78,1.73.6,2.74-.62,4.57,0,.77-4.87-.2-9.91.74-14.69,1.07-.78,14.1.34,16.98-.16.43-.08.71-.2.95-.57V1.27l.57-.57h29.72c.48,0,.9,1.19.97,1.7.57,4.25-.71,8.79,0,12.96.49,4.06-.72,9.9-.02,13.73.08.43.19.71.57.95h5.71c.36-.33.95-1.76.95-2.1v-10.1h25.15s.41-15.97.41-15.97c7.84-.83,15.88-.28,23.8-.39,1.33-.02,4.73-1.16,5.13.93l.38,28.01c2.39.26,3.07-1.43,3.43-3.43l4.57,1.9v-14.29c0-.06.47-.86.57-.95,1.07-.91,6.3-.3,8.01-.36,6.44-.23,15.94-1.25,22.1-.42.5.07,1.7.49,1.7.97v12.76l17.17-.21c.78.53-.01,2.16-.04,3.05-.09,3.22.07,6.47.06,9.69,1.47.55,2.81-.08,4.35.03,2.02.15,1.62,1.07,2.84,2.11.57.49,2.1,1.23,2.32,1.59.99,1.63-.36,4.46,3.31,5.36,1.56.38,4.18-.75,3.91,1.61-.85-.07-1.65.31-2.48.38-20.1,1.58-42.19-1.16-62.5-.01-85,1.01-170.16.99-255.23,0-8.04-.09-16.9.57-24.8.03-.94-.06-1.96-.27-2.84-.58.9-2.3,3.7-1.04,5.71-1.33.02-1.28-.14-2.55.18-3.82.16-.63,3.12-5.49,3.52-5.72,1.88-1.12,3.22.42,4.78.89,1.26.37,1.25-1.55,1.36-2.64.44-4.43-.51-10.12.05-14.44.08-.65.14-1.16.78-1.51l17.87-.61c.4-1.24-.54-7.79.29-7.98,4.81.01,9.63.04,14.44.03,2.7,0,6.08-.84,8.55.56v13.53ZM89.91,2.22l-24.97.35c-1.11,15.07-.39,30.26-.55,45.36l3.99.03c1.29-3.29-.11-6.91,1.01-10.26,4.91.4,10.59-.59,15.39-.07.53.06,1.03,0,1.27.62l-.34,10.07h4.19V2.22ZM182.11,2.6v45.91c1,1.08,2.83.4,4.19.57v-4.95s15.43,0,15.43,0c1.18,0-.08,4.1.58,4.96l3.05-.38-.28-45.6-1.02-.86-21.94.36ZM209.02,5.14c.26-.43,1.35-2.63.14-2.35-1,1.47-2.16,2.91-2.28,4.77.48-.55,1.84-1.92,2.14-2.42ZM245.7,3.37v45.73h22.52V3.37h-22.52ZM206.88,11.37c1.21-1.44,2.89-3.39,2.66-5.33l-1.98,2.78-.68,2.55ZM207.25,14.41c.49-1.5,1.68-2.59,2.22-4.07.16-.43.77-.93-.13-1.26-.22-.08-2.14,3.74-2.3,4.18-.13.36-.5,1.24.2,1.15ZM144.01,11.75h-21.72l-.38,28.58c2.85-1.19,4.98,2.75,6.38,2.99,1.66.29,3.49-1.39,5.07.63.51.66.02,1.61,1.48,1.37l.03,1.88.76-.39c-.58,3.05,2.2,1.94,3.05-.19l-1.17-.4.03-3.98,3.04.39c.18.18-.29,3.05-.47,3.51-.42,1.05-1.79,1.36-1.8,2.57l6.49-.21-.78-36.74ZM206.88,17.84c1.24-1.66,2.93-3.5,2.66-5.71l-2.18,3.34-.48,2.37ZM40.95,41.08h9.72l.38,7.62h4.58s-.04-34.24-.04-34.24c-.53-.79-16.82-.39-19.03-.26-.39.27-.33.74-.38,1.15-.64,5.18-.06,11.58-.01,16.79.02,2.2-.22,15.96.41,16.56l4.19-.39c-.28-1.19-.94-6.89.19-7.24ZM305.61,47.89c1.13.46,3.14,1.02,3.38-.52l.22-32.22-25.71.06-.03,33.11h3.05s.43-4.9.43-4.9l17.88-.59c1.11.45.56,4,.79,5.06ZM206.88,21.27l2.89-4.18-.42-1.54c-.75,1.99-2.86,3.38-2.47,5.71ZM208.01,23.56c.2-1.99,2.37-2.85,1.91-4.95l-2.66,4.77.75.18ZM223.64,43.37h16.38c.06,3.24-.94,6.47,3.57,5.73l.39-.75-.14-28.99h-23.41s-.22,28.39-.22,28.39c-.08,1.14,2.56,1.54,2.99.88l.44-5.27ZM95.25,31.56c-.13,1.11-1.4,2.29-2.28,2.86-.06,1.25.78.19.95.19h7.62c.29,0,3.35.59,3.45.74l-.19,4.43-10.42.24c-.47.26-2.69,2.39-2.17,2.97l3.23-2.67-1.33,2.29,10.43.44c.97.27.04,4.21.4,5.28l3.26.37-.38-26.67h-11.24c-1.14,0-2.78,2.57-3.62,3.43l1.91-.75-.19.76,10.44.4c.2,1.74-.49,3.51.79,4.92-3.17.42-8-.89-10.67.77.03-.25-.01-.51,0-.76-.9-.73-3.65,2.72-3.42,3.81,1.31-.81,2.11-2.23,3.43-3.05ZM180.21,22.04h-16.38l-.31,10.13c.82,5.24-.65,10.83,1.65,15.77l2.85-3.42-2.66,4.57c1.55.35,1.64-1.35,2.66-1.9l-.75,2.29,1.52-1.52c-.3.46-.37,1.79.57,1.52.46-.13,2.97-4.9,4.2-5.33.64.41-.16.84-.39,1.14-.32.42-3.03,3.65-2.85,3.81,5.17,1.64,6.28-2.84,9.73-5.34v-4.18c-1.85,2.78-3.67,5.72-5.93,8.18-.31.34-.98,1.39-1.51.77l7.62-9.91v-16.57ZM209.92,22.04l-2.62,3.7c-.08.23-.49,1.58-.43,1.63.73.58.77-.49.94-.75.98-1.5,2.24-2.74,2.1-4.57ZM21.33,48.32h5.52c.22,0,2.48-2.58,2.67-3.08.41-1.11-.36-2.85.55-4l2.31-.16-1.14,3.62.76.38-.95.86-1.33-.67-1.91,3.04c2.42,1.19,5.92-3.41,6.4-5.25.25-.96-.27-2.77.07-3.89l-1.9,1.52c1.27-1.77,2.53-3.44,1.52-5.71l-.44,1.09-1.02.09c.37,1.97-1.5,1.97-3.1,2.25.85-1.41.06-3.22.39-4.68.03-.13,1.46-1.17,1.13-2.17v1.51s1.72.75,1.72.75l-.2,1.92,1.74-2.62v-9.97s-.46-.3-.46-.3l-16.52-.06.38,25.53c2.37.24,3.75-1.28,5.33-2.67l-1.52,2.67ZM102.86,26.99l-2.28.17-1.53,2.3c1.43,1.58,1.32-1.97,2.67-1.7l-1.14,2.1c.58.96,2.41-2.69,2.28-2.86ZM329.18,28.51c-4.47-.03-9.5-.35-13.93-.02-.65.05-1.26-.04-1.69.59l1.15.38-.78.44v2.42s1.91-2.29,1.91-2.29c.2,1.37-1.6,2.7-1.83,3.72-.18.78.44,1.56-.07,2.37l2.67-2.47c-.44,1.01-1.39,3.51-2.67,2.85v5.33s3.23-5.72,3.23-5.72l.75-3.44,2.12-.16c-.94,2.08.76,5.34-2.66,4,.05,1.78-3.13,4.9-3.38,5.98-.12.5.28,1.03.24,1.44-.12,1.2-.5,2.37-.29,3.62l1.09-.36c.14.27.19.77.42.92,1.05.7,7.96.03,9.73,0,.27,0,.66.52,1.11.52.8,0,1.89-.53,2.84-.37l.04-19.77ZM57.53,35.75c1.4-1.79,3.17-3.83,4.39-5.7.33-.51.75-.76.56-1.54-.44.9-1.6,1.08-1.91,1.41-.24.26-1.79,2.47-2.01,2.88-.52.92-1.08,1.84-1.02,2.96ZM273.17,38.04l4.81-7.18.51-1.58-4.51,5.96-.82,2.8ZM280.02,30.42c-.55-.69-.84.53-.98.72-2.13,2.88-4.49,6.54-5.49,9.95l6.03-9.01c.27-.33.64-1.4.44-1.65ZM58.29,36.89c1.71-1.51,4.43-3.68,4.18-6.1l-4.18,6.1ZM216.01,36.13c.05-.05.09-.65.38-.94,1.11-1.15,2.31-1.74,1.91-3.63l-3.04,4c-.26.64.52.77.75.56ZM281.55,31.56l-3.89,5.06-3.34,5.61c.95-.12,1.88-1.58,2.44-2.32.99-1.29,3.7-5.04,4.37-6.3.36-.68.53-1.26.43-2.05ZM206.88,37.27c.78.16.88-.39,1.22-.88.85-1.25,1.72-2.91,1.45-4.45l-2.66,5.33ZM154.3,32.32c-.96-.89-3.8,3.61-4.21,4.28-.32.53-1.24.53-.74,2.19l4.95-6.47ZM150.1,41.46c.83-3.29,4.14-5.14,4.96-8.38l-5.42,6.95-.29,1.23.76.19ZM113.15,33.47c-1.03-.81-3.75,3.52-3.43,4.57l3.43-4.57ZM115.06,33.47c-.78-.16-.88.39-1.22.88-.82,1.21-1.47,3-2.26,4.21-.73,1.11-2.44,1.38-1.85,3.67,1.2-.64,5.74-8.3,5.33-8.76ZM118.98,35.44c.1-.2,1.81-.64.84-1.98l-8.34,11.09-.61,1.48c2.43-2.88,5.73-6.08,7.8-9.18.5-.75.19-1.19.31-1.41ZM215.08,40.15c.88-1.25,2.88-3.24,3.31-4.51.24-.72.5-.83-.28-1.41-2.27,2.48-3.69,5.47-5.36,8.35-.35.6-2.27,1.83-.93,2.69.85-1.83,2.11-3.48,3.26-5.12ZM281.17,35.37c-1.1-.23-.6.37-.87.82-2.36,3.95-5.11,7.82-6.74,12.13,1.98-1.78,2.87-4.38,4.26-6.59,1.28-2.05,3.81-3.74,3.35-6.36ZM61.34,35.75c-1.36-.08-1.41,1.5-2.07,2.31-.81.99-2.3.83-1.74,3.02l3.81-5.33ZM112.39,47.18l7.57-9,.43-2.43-7.03,8.78-.96,2.65ZM155.44,35.75c-.81-.11-1.24.65-1.68,1.17-1.74,2.07-2.66,5.05-4.41,7.2.67.14.94-.34,1.34-.75,1.6-1.66,3.15-4.46,4.96-6.12l-.2-1.5ZM98.67,36.14c-1.06-.76-3.88,2.21-3.43,2.66l2.21-.45,1.21-2.21ZM112.17,41.63c1.6-1.33,2.25-2.38,3.19-4.25.33-.65.72-.62-.11-1.24-1.73,1.6-2.42,4.7-4.37,5.71l.18.75c.56-.19.8-.71,1.12-.98ZM212.9,40.25c.22-.13,2.09-3.43,1.97-4.12-1.26.93-1.24,1.98-3.09,2.13l.05,2.06c.34-.04.76.11,1.07-.08ZM57.53,43.75c1.69-2.19,4.05-4.46,4.56-7.24-1,.43-.96,1.66-1.52,2.48-1.02,1.51-3.06,2.77-3.04,4.76ZM158.11,36.9l-1.71.38-4,6.47c2.46-1.75,3.65-4.7,5.71-6.85ZM159.38,37.92c-.18-.33-.14-.67-.13-1.03-.11-.14-.42.21-.56.39-1.82,2.25-5.98,8.13-7.3,10.61-.28.52-.68.88-.51,1.58,1.84-1.57,3.04-3.9,4.56-5.8.66-.82,1.88-1.77,2.67-2.78.55-.71,1.02-1.99,1.9-2.66.1-.25-.53-.11-.64-.3ZM209.92,37.66c-1.01-.21-.66.25-.95.75-.79,1.36-1.77,3.04-2.1,4.58,1.19-1.46,2.83-3.44,3.04-5.33ZM211.83,47.56l6.12-8.16.35-1.74-2.97,3.31-3.5,6.59ZM160.14,41.21c.83-1.03,1.88-.89,1.21-3.17l-4,5.71c1.61-.11,2.15-1.74,2.79-2.54ZM58.28,47.56c1-3.17,4.82-5.2,4.19-8.76l-4.95,8.57.75.18ZM82.29,39.18l-1.74.36-.17,2.69c1.13.12,1.61-2.26,1.9-3.04ZM84.19,39.18c-.79-.18-.87.42-1.22.87-.61.77-3.55,4.87-2.96,5.61.99.23.66-.29.98-.72.75-1.01,4.03-4.77,3.21-5.75ZM275.84,47.56c.82-.5,1.5-1.54,2.06-2.32,1.19-1.7,3.06-4.11,3.27-6.06-2.13,2.53-4.01,5.33-5.33,8.38ZM73.15,43.75c.59-1.56,1.92-4.95-1.25-4.14-1.49.38-1.59,2.5-1.42,3.75.57.33,1.6-3.34,1.9-1.72-1.11,1.68-1.92,3.14-2.28,5.15.7.7,2.06-2.77,3.05-3.04-.71,1.87-1.67,2.89-2.67,4.57.91.72,4.06-3.22,3.43-4.37.03-.32-.56-.25-.77-.2ZM77.72,40.32c.33-1.79-2.14-.52-2.59,1.04-.22.76-.05,1.61-.08,2.39.87-.59,1.16-2.45,1.88-3.18.38-.38.69-.19.78-.25-.27,1.46-2.96,3.62-2.28,5.71,1.6-1.94,3.24-3.97,3.81-6.47-.67-.11-1.01.44-1.52.76ZM7.99,45.65c.73-1.67,2.46-3.09,3.63-4.57.48-.61.86-.45,0-1.14l-4.19,4.57-.19.95.76.19ZM209.92,40.33c-.59-.72-.82.54-.95.75-.8,1.35-2.01,2.7-2.1,4.2.67-.52,3.4-4.51,3.04-4.95ZM212.98,48.7c1.83-2.4,5.38-4.77,5.33-8-2.01,2.43-4.24,4.98-5.33,8ZM13.71,41.47c-.96-.19-.96.13-1.46.63-.61.6-4.76,5.3-4.25,5.84.88.02,1.55-.94,2.1-1.52.47-.49,4-4.6,3.61-4.96ZM80.01,48.32c.98.93,5.57-4.78,4.19-6.47-.75.52-4.54,6.13-4.19,6.47ZM123.06,41.85c-1.81-.52-2.26,2.04-2.41,2.2-1.14,1.21-3.36,1.97-3.3,4.27l5.71-6.47ZM122.16,45.91c.4-.43,2.78-2.9,2.79-3.11.04-.57-.43-.46-.94-.18-1.64.9-4.59,4.56-5.14,6.47.97-1.01,2.4-2.2,3.29-3.18ZM336.41,42.23c-.72-.17-.9.41-1.33.76-1.29,1.06-3.8,3.24-3.61,4.95l4.39-4.17.55-1.54ZM14.85,42.61l-4.95,5.71c.44.38,3.25-2.58,3.62-3.04.62-.76,1.44-1.59,1.33-2.67ZM48,44.51c.15-.41-.09-1.37,0-1.91l-1.09.06c-.47,1.11-1.01,2.11-.81,3.37.31-.25,1.86-1.41,1.9-1.52-.69,1.36-1.76,2.6-1.52,4.19.45-.04.82.21,1.17-.24,1.14-1.45,2.31-3.78,1.11-5.47-.5.05-.4.82-.76,1.52ZM281.55,42.61l-3.2,3.84-.98,1.87,3.58-4.23.61-1.48ZM79.24,42.99c-.53-.55-3.3,3.46-3.52,3.91-.35.74-.43.87.28,1.41,1.72-1.52,3.06-2.9,3.24-5.32ZM42.98,48.23c.99-.58,2.05-3.59,1.98-4.86-.92.26-3.46,4.58-3.04,4.95.35-.02.74.1,1.07-.09ZM338.32,43.75c-.49-.49-4.53,3.96-4.95,4.57.79.09,1.35-.5,1.91-.94.43-.34,3.44-3.22,3.04-3.62ZM217.03,47.43c.54-.6,2.19-2.57,1.09-3.29-.27.02-3.12,4.13-3.24,4.38-.07.16-.1.62.19.56.43-.74,1.49-1.14,1.96-1.66ZM96.77,44.52c-1.06-.95-3.21,3.59-3.81,4.19.68.14.93-.35,1.34-.75.28-.28,2.73-3.2,2.47-3.43ZM97.89,44.2l-3.3,4.28.68.52,3.3-4.28-.68-.52ZM100.96,44.52c-.87-.1-1.26-.02-1.92.56-.31.27-3.38,4.06-1.7,4l3.62-4.56ZM102.86,44.52c-.97-.17-.81.01-1.26.47-1.05,1.07-1.78,2.69-2.93,3.72l1.56-.24,2.63-3.94ZM176.78,49.08c1.04.91,4.05-3.47,3.43-4.57l-3.43,4.57ZM292.6,44.52c-2.69.08-3.54,1.9-4.19,4.19l1.69-.78,2.5-3.4ZM294.51,47.94l2.48-2.67c.41-.96-1.79-.67-2.3-.42l-.17,3.08ZM131.82,44.9c-.61-.62-3.64,3.29-3.43,4.19.6.61,3.73-3.88,3.43-4.19ZM159.63,44.9c-1.02-.22-.84.08-1.26.47-.76.7-2.09,2.27-2.17,3.34.63-.17,3.74-3.56,3.43-3.81ZM225.54,47.94c.36-1.24.76-2.02,1.52-3.04l-2.13.37-.1,2.5c.04.24.55.24.7.18-.12.39-.24.76-.38,1.14,2.32-.02,2.83-2.81,4.19-4.18-1.98-.69-2.49,2.53-3.81,3.04ZM235.07,44.9c-2.16-.57-1.73,1.7-2.71,3.19-.37.56-1.13.39-1.1.99l1.53-.26,2.28-3.92ZM238.12,44.9c-2.23-.56-3,1.55-3.23,3.43l-.58-.39-.76,1.14,1.7-.39,2.86-3.8ZM34.29,45.28c-.56-.56-2.52,2.61-2.67,3.04,2.57.41,2.52-1.08,2.67-3.04ZM158.11,49.08c.38.4,3.93-2.81,3.42-3.81-.56.34-3.88,3.33-3.42,3.81ZM192.4,45.66c-1.15-.84-4.62,3.06-4.19,3.42,2.29.5,3.15-1.88,4.19-3.42ZM194.69,46.42l-.38-.76c.32.28-.36,3.08.56,2.66l2.1-2.66c-.89.04-2.08-.43-1.91.75h-.37ZM200.02,45.66c-1.27-1.08-4.72,2.94-4.19,3.42,2.09.36,2.83-2.21,4.19-3.42ZM238.5,46.42c-.32-.41-1.38.9-1.49,1.07-.33.51-.9.91-.79,1.59l1.86-.04.42-2.62Z"/>
      <polygon points="78.86 26.99 78.86 32.7 75.43 32.7 75.6 27.34 78.86 26.99"/>
      <polygon points="78.86 17.08 78.86 22.42 75.41 22.19 75.6 17.44 78.86 17.08"/>
      <path d="M71.94,27.05l.06,6.03h-2.65c-.49-2.69-1.65-7.52,2.59-6.03Z"/>
      <path d="M85.72,26.99v5.71h-3.05c.52-3.35-2.19-6.95,3.05-5.71Z"/>
      <polygon points="85.72 7.18 85.72 12.51 82.46 12.15 82.46 7.53 85.72 7.18"/>
      <path d="M78.86,7.17l-.17,4.98c-4.06,1.7-3.47-1.68-3.1-4.62l3.26-.36Z"/>
      <path d="M85.72,17.08l-.06,5.09c-.04.73-1.96.55-2.24.4-1.38-.73-.52-4.09-.75-5.49h3.05Z"/>
      <path d="M72,22.8l-2.71-.6c-.6-2.52-1.2-6.51,2.55-4.75l.16,5.36Z"/>
      <path d="M72.01,7.56c-.37,1.44,1.07,4.59-.96,4.96-.45.08-1.37.07-1.73-.18-.38-.27-.42-4.11-.2-4.43.44-.63,2.13-.29,2.89-.36Z"/>
      <path d="M259.07,25.46v-6.29c0-.14-.71-.55.24-.91l4.74.13.2,6.71-5.17.36ZM262.5,20.12h-1.91s0,3.83,0,3.83h1.91s0-3.83,0-3.83Z"/>
      <path d="M254.88,25.46l-4.6.22c-.56-.4-.22-5.67-.17-6.7.53-1.09,3.93-1.14,4.76-.19v6.67ZM253.3,20.19l-1.67-.08-.18,3.83h1.91s-.06-3.75-.06-3.75Z"/>
      <path d="M264.41,39.56v6.1c-1.84.78-3.38,1.11-5.33.38v-5.91c1.34-.93,3.65-.42,5.33-.57ZM262.88,44.51l-.56-3.06-1.73-.37v3.81s2.29-.38,2.29-.38Z"/>
      <path d="M259.07,8.51c.26-.83,3.97-.77,4.92-.54l.25,6.47-5.18.36v-6.29ZM262.12,9.46h-1.52s0,3.81,0,3.81l1.28-.05.59-.57-.36-3.19Z"/>
      <path d="M249.93,39.94h4.69c.25.06.64.85.64.95v5.52h-5.33v-6.48ZM253.35,41.47h-1.9s0,3.42,0,3.42c.85.09,1.62,0,2.11-.77l-.21-2.66Z"/>
      <path d="M255.23,35.71l-5.13-.32-.15-5.72c1.15.12,4.45-1.05,5.15-.03l.13,6.07ZM253.36,30.8h-1.91c.11.88-.33,2.71.36,3.25l1.54.18v-3.43Z"/>
      <path d="M264.41,29.65c.15,5.77,1.37,6.61-5.34,6.1l-.22-5.73,5.56-.37ZM262.45,34.17c.31-.69.73-2,.27-2.64l-2.12-.36v3.05s1.85-.06,1.85-.06Z"/>
      <path d="M254.88,7.94v6.86l-4.79-.36v-6.14l4.79-.36ZM253.36,9.45h-1.91s0,3.83,0,3.83h1.91s0-3.83,0-3.83Z"/>
      <g>
        <path d="M140.54,15.6v4.87s-2.55-.04-2.55-.04c-.48-2.68-1.48-5.76,2.55-4.84Z"/>
        <polygon points="140.97 25.46 140.56 30.39 138 30.34 137.54 25.47 140.97 25.46"/>
        <path d="M134.07,20.5l-2.63.02c.11-2.59-1.02-6.28,2.88-4.6l-.25,4.58Z"/>
        <path d="M128.01,20.89l-2.5-.36-.13-4.94c3.93-.85,2.35,2.72,2.63,5.3Z"/>
        <path d="M127.97,25.88l.04,4.54-2.69-.17-.17-4.03c.49-1.04,1.95-.59,2.82-.34Z"/>
        <path d="M134.1,30.8l-2.3-.17-.31-.45c-.21-2.61-.64-6.39,2.95-4.11l-.34,4.73Z"/>
        <path d="M134.11,34.61v4.7c-3.59,2.08-2.7-2.51-2.67-4.7h2.67Z"/>
        <polygon points="140.58 34.61 140.42 38.82 137.97 39.12 137.71 34.98 140.58 34.61"/>
        <path d="M128.01,34.99v4.57c-1.52-.34-1.39.36-2.28,1.14l-.39-5.72h2.67Z"/>
      </g>
      <path d="M291.08,39.18c-.25.39-4.46.55-4.95-.19v-6.48l.63-.51c.75.16,4.32-.97,4.32.13v7.05ZM289.17,33.84h-1.14s0,3.81,0,3.81l1.15-.64-.02-3.17Z"/>
      <path d="M301.4,39.15l.13-7.23,4.05-.19c.98.68.01,3.58-.03,4.6-.03.86.79,2.01.21,2.88l-4.37-.05ZM304.03,37.27c-.17-1.26.7-3.76-1.14-3.81.17,1.26-.7,3.76,1.14,3.81Z"/>
      <path d="M298.31,39.18c-1.3-.39-3.39.92-4.22-.16-.7-1.03.06-2.17.05-3.44s-.74-2.5,0-4.02c.74.43,4.18-.37,4.18.57v7.05ZM296.79,33.47c-1.76-.12-1.12,3.23-.57,4.19.69-1.2.46-2.84.57-4.19Z"/>
      <path d="M290.7,19.75l.04,7.4-4.2.19.13-7.23,4.03-.36ZM289.17,21.65h-1.14s0,3.81,0,3.81l1.08-.63.06-3.18Z"/>
      <path d="M301.36,20.13l3.56-.79c.23.05.63.92.63.98v6.86l-.6.53-3.59-.34v-7.24ZM304.04,21.27h-1.15v4.2h1.15v-4.2Z"/>
      <path d="M294.12,27.37v-6.67c0-.11.39-.89.64-.96l3.38.37c.11,1.47.73,6.89-.58,7.45l-3.45-.18ZM296.8,21.27h-1.15v4.2h1.15v-4.2Z"/>
      <path d="M234.31,33.85h5.52c.68,0,.93,4.97-.19,5.53-.71.35-5.15.39-5.55-.17l.22-5.36ZM238.5,35.37l-2.89.36.23,2.31c1.91-.34,3.05-.35,2.66-2.67Z"/>
      <path d="M235.34,24.4c.95-.28,4.09-.29,4.73.47.18.21.18,4.62-.03,5.38-1.19-.21-4.79.4-5.38-.37-.67-.89-.77-5.06.68-5.48ZM238.49,28.89l-.17-2.7c-2.31-.56-2.76-.14-2.49,2.32l2.67.38Z"/>
      <path d="M229.35,39.56h-5.71v-5.72s5.36.17,5.36.17l.3.46.05,5.09ZM228.21,37.66l-.36-2.12-2.69-.17v2.29s3.05,0,3.05,0Z"/>
      <path d="M229.74,30.42l-5.74-.16c-1.06-.78.3-4.31.02-5.56l5.74-.22-.02,5.94ZM228.21,25.84l-2.69.17-.36,2.5h3.05s0-2.67,0-2.67Z"/>
      <path d="M48.56,18.38c.7-.09,2.09.58,3.08,0l.7.6c-.1,2.14-.03,3.91.15,6.03.17,1.89-3.14,1.37-4.33.86l-.46-6.65.85-.85ZM50.68,20.13h-1.15v4.58h1.15v-4.58Z"/>
      <path d="M40,26.23v-7.05l.63-.51c.73-.08,1.52-.14,2.25-.08.67.06,1.27-.08,1.69.59v6.1c0,.09.31.23.29.38l-.53.53-4.34.05ZM43.05,24.7c.64-6.46-2.53-5.89-1.91,0h1.91Z"/>
      <path d="M44.57,29.66v6.67c-.99.9-2.84.03-4.2.41-.44-.3-.7-5.69-.3-6.43.68-1.26,3.17-.44,4.5-.65ZM43.05,31.18h-1.91c.27,1.38-.15,3.08.95,4.19l.97-.63-.02-3.56Z"/>
      <path d="M52.19,36.89l-4.41-.75.2-6.31,4.04.18.16,6.88ZM50.67,31.18h-1.14c.34.84-.68,3.5.19,3.81,1.73.62.68-2.96.95-3.81Z"/>
      <path d="M28.19,39.56c-2.28,1.89-.55,5.12-2.66,6.47.19-1.03-1.22-.62-1.48-1.37-.11-.32-.29-2.75-.15-3.09.62-1.54,1.56-.23,2.52-.52.71-.21.69-1.72,1.78-1.49Z"/>
      <path d="M26.66,33.46c.45,1.56.16,3.02-.18,4.6-2.88.74-2.81-1.69-2.32-3.86l2.5-.74Z"/>
      <path d="M27.05,26.22c.02,1.69.63,3.01-.99,4.13l-1.63-.36-.05-3.77h2.67Z"/>
      <path d="M32.76,25.85l-.57,3.81c-.48.55-1.39.44-2.06.34l-.03-4.16h2.66Z"/>
      <path d="M21.48,35.64c.06.14.62.13.6.29-.04.41-.76,1.43-.79,2.06l-2.07-.31.19-3.67h1.58c.34.27.27,1.11.49,1.63Z"/>
      <path d="M21.72,41.47l-.41,3.77h-2.22s.14-3.8.14-3.8c.53-.79,1.77-.11,2.5.03Z"/>
      <rect x="18.39" y="27.25" width="3.99" height="1.94" transform="translate(-7.89 48.53) rotate(-89.84)"/>
      <g>
        <path d="M201.92,35.37c.37,1.28,1.03,4.38-.65,4.88l-14.59-.11c-1.08-.51-.62-3.65-.76-4.76h16ZM198.11,36.9c-2.76.76-6.35-1.54-7.62,1.9,1.09-.4,3.07.21,3.92.03.49-.1.41-1.32,1.22-1.17l-.19,1.14c1.47.19,2.84-.18,2.66-1.9Z"/>
        <path d="M201.92,25.85v4.95h-15.62l-.76-4.95h16.38ZM192.4,28.13c-.02-.25.02-.51,0-.76l-3.95.05-.62,1.85c.79-.25,2.54.1,3.15-.08.53-.16.9-.78,1.42-1.06.02.38-.02.77,0,1.14l8-.39v-1.52c-2.87.34-5.42-.59-8,.76Z"/>
        <path d="M201.93,7.56l-.36,4.41-15.26.55c-.08-1.45.4-3.7-1.14-4.39-.12-.79.12-.45.53-.61,1.96-.75,2.9.03,4.6.06,3.88.06,7.77-.08,11.64-.02ZM190.87,8.7c-2.23.83-4.71-1.5-2.62,2.24,2.12-1.07,5.8,1.05,6.05-2.25-1.27.78-2.68-.54-3.24,1.15h-.95s.76-1.15.76-1.15ZM194.3,10.61h5.52c.66,0,.37-1.17.15-1.49-1.81.19-5.35-.99-5.67,1.49Z"/>
        <path d="M201.73,16.7c.97.27-.2,3.58.19,4.57l-15.05.39-.91-.64c.43-.85-.54-4.32.53-4.32h15.24ZM200.4,18.23c-.36-.35-9.45-.15-10.02-.01-.49.12-.4,1.12-1.03,1.15.48-1.12.55-1.5-.95-1.14-.29.07-.59.1-.78.36-1.02,1.39,1.49,1.49,2.67,1.56,1.23.08,9.75-.04,10.11-.41v-1.51Z"/>
        <path d="M173.73,35.75l4.14.44.08.5c.11,3.64.33,6.33-4.22,4.78v-5.71Z"/>
        <path d="M167.12,35.81l3.41.3-.2,5.56-3.66-.18c-.14-1.11-.66-5.32.46-5.69Z"/>
        <path d="M177.92,26.99v5.33l-3.57-.05-.57-.57c-.09-.35-.05-.72-.08-1.08-.27-3.56.55-4.5,4.22-3.63Z"/>
        <path d="M166.91,32.28c-.69-1.96-.35-3.69-.03-5.66l3.43.55.21,4.79-3.6.31Z"/>
      </g>
      <path d="M325.7,32.75l-.13,3.79-2.51.18c-.85-2.72-.94-5.44,2.64-3.97Z"/>
      <path d="M316.99,46.04c-.2-.95-.19-6.42,1.32-6.09,2.1.45,1.46,6.04-1.32,6.09Z"/>
      <path d="M325.37,40.7l-.56,3.82-2.48,1.13.16-4.58c.46-.65,2.11-.3,2.89-.37Z"/>
    </g>
  </g>
</svg>