<?xml version="1.0" encoding="UTF-8"?>
<svg id="Layer_3" data-name="Layer 3" xmlns="http://www.w3.org/2000/svg" viewBox="0 0 57.91 81.8">
  <g id="Layer_1" data-name="Layer 1">
    <g>
      <path d="M30.8,13.04c7.01-6.17,15.01-5.01,21.89.6,1.15.93,4.96,4.73,5.18,5.99.61,3.58-4.81.94-6.25.66-2.89-.56-8.25-1.68-10.97-1.71-2.2-.02-4.36,1.17-6.5,1.52l2.76-.02c6.15.65,11.34,4.41,13.66,10.17.9,2.23,2.46,8.29.69,10.12-2.02,2.1-3.53-2.18-4.31-3.15-1.39-1.72-5.09-4.82-6.97-6.04-.51-.33-4.52-2.33-4.72-2.16.43,1.14-1.32,2.78-1.36,3.15-.05.45,2.33,7.28,2.67,8.74,2.76,11.91,2.99,24.99,2.43,37.15,2.3.44,6.91.5,6.3,3.74-5.83-.37-11.29-2.39-17.28-1.85-2.22.2-4.28,1.25-6.24,1.58-.47.08-.52.48-1-.31-.51-3.52,4.52-2.67,5.48-4.51s2.41-8.17,2.88-10.5c1.82-9.14,1.93-20.32-.38-29.38-.49-1.93-.77-3.75-3.16-4.08.23,3.48-1.84,6.49-2.88,9.58-.41,1.23-2.36,12.27-5.44,8.17-3.06-4.08-1.9-15.47-.61-20.35-1.35.93-3.26,1.66-4.55,2.59-.49.36-2.7,2.26-3.26,2.78-1.5,1.38-4.74,6.95-6.17,7.16s-1.7-.52-1.89-1.66c-.92-5.59,1.62-14.18,6.24-17.72.76-.58,5.75-3.77,6.39-4.02,1.32-.5,2.63-.25,3.98-.29.18-1.12-.28-.59-.9-.75-6.07-1.53-9.39,1.43-14.57,1.86-4.35.36-.22-5.08.99-6.49,4.08-4.77,10.23-7.79,16.45-5.32l4.35,2.89C23.12,6.95,29.48-.18,33.58,0c5.67.25-.62,7.54-1.62,9.55-.23.47-1.3,3.31-1.16,3.49ZM27.08,20.1c-.3-4.48,1.07-9.15,3.02-13.15.33-.67,2.52-3.58,2.18-3.95-4.13,1.92-6.88,6.33-6.69,10.96l1.48,6.14ZM21.88,14.52c-4.29-7.81-13.51-3.46-17.47,2.23,4.09-.16,10.12-6.56,13.96-4.86.56.25,1.05.41.91,1.15l-2.99.17-3.7,1.69,9.29-.37ZM51.98,16.75c-2.75-2.21-6.59-4.95-10.23-4.85-1.04.03-3.43.25-4.42.42-3.27.57-7.26,4.88-8.02,8.15,1.94-2.14,4.03-2.91,6.61-4,1.61-.68,1.05-.29,2.56-1.22,1.71-1.05,2.26.51,3.66.74,1.65.27,2.97-.45,4.43-.37,1.59.09,3.63,1.32,5.4,1.13ZM24.48,20.47c-.51-1.51-1.38-2.88-2.61-3.91l-4.08.2,3.98,1.78,2.71,1.93ZM23.73,24.56c-.54-1.15-4.33-3.26-5.38-3.3-1.7-.05-7.38,2.61-8.94,3.66-4.18,2.8-5.74,8.22-6.12,13.02,1.01-.59,1.15-1.88,1.86-2.79.95-1.23,2.59-1.99,3.36-2.96.66-.84.63-1.95,1.47-2.63l2.37.18,1.34-2.4c2.12-.19,4.06-.95,5.98-1.83,1.56-.72,1.69-2.01,4.07-.96ZM45.46,26.99c-4.11-4.34-8.5-4.94-14.29-3.92.3.88,1.37.63,2.06,1.09.74.49,1,1.72,1.88,2.21,1.12.63,2.27.22,3.4.69.62.26,2.07,1.99,2.51,1.95.26-.03.63-1.82,2-1.07l.47,2.87,3.19.53c.44.46,1.29,5.18,2.69,4-.54-3.24-1.66-5.96-3.92-8.34ZM26.79,30.05c3.21,2.39,8.92-2.66,4.01-3.84-1.81-.43-3.91,1.26-4.31,3l.3.83ZM23.71,27.17c-3.92-.32-4.64,3.17-5.31,6.36-.97,4.64-.52,9.05.13,13.7.97.11.59-.01.75-.54.58-1.86.31-3.86.36-5.78h1.49s-.37-5.2-.37-5.2h1.48s.37,1.49.37,1.49c.38-1.8.46-3.92.83-5.67.35-1.63,1.6-2.1.26-4.35ZM31.54,33.11c-.68-.03-.78-.19-.74.55.07,1.39.97,2.79.75,4.28h1.11s-1.12-4.84-1.12-4.84ZM34.88,46.49l-1.3-5.57-1.3-.37.74,5.95h1.86ZM33.03,48.35v6.5c0,.81,2.35.59,2.93.14l-.7-6.65h-2.23ZM36,56.52l-2.97.37-.74,7.06c1.1-.34,3.63.97,4.3,0l-.58-7.44ZM36.74,65.82l-4.83-.38-1.12,4.83,5.95.38v-4.83ZM36.74,72.14l-6.28-.33-1.54,4.97,7.81.93v-5.58Z"/>
      <path d="M18.9,21.96l-2.62,2.02-2.58,1.32c1.06-2.02,2.79-3.59,5.2-3.34Z"/>
    </g>
  </g>
</svg>