<?xml version="1.0" encoding="UTF-8"?>
<svg id="Layer_2" data-name="Layer 2" xmlns="http://www.w3.org/2000/svg" viewBox="0 0 36.24 67.46">
  <g id="Layer_1" data-name="Layer 1">
    <path d="M27.42,18.78l-3.3,23.21.52.49c10.75-.3,5.49,13.95,3.85,20.12,1.86.3,5.34,1.11,6.27,2.84.5.94.79,1.74-.51,2.01-1.41.12-4.08-2.29-5.93-2.43s-5.09.62-6.97,1.04c-2.83.63-2.97,1.78-6.24.82-4.34-1.28-5.02-2.34-10.12-1.19-.7.16-5.39,2.39-4.96.63,1.11-2.12,3.87-3.15,6.14-3.35-.1-3.76.19-7.52.87-11.21.98-5.33,1.24-8.55,7.18-9.55.93-.16,2.76.35,3.07-.65l3.41-24.13c-.04-1.49-2.12-2.14-2.93-3.76-1.39-2.79-1.45-11.48,1.8-12.95C21.39-.11,31.2-.09,33.53.14c3.52.35,2.76,3.79,2.35,6.48-.76,5.01-2.82,11.16-8.46,12.17ZM31.09,2.76h-9.85c-1.01,0-1.6,1.69-1.3,2.6l9.86-.37,1.3-2.24ZM26.63,16.51c5.76-1.65,6.2-8.43,7.06-13.38l-1.55,2.72c-1.46,2.8-1.87,7.2-4.13,9.43-.54.54-1.64.08-1.38,1.22ZM20.18,7.64l-.45.3c-1.53,3.81,3.52,8.7,6.69,5.21.58-.63,2.89-5.3,1.52-5.47l-7.77-.03ZM23.24,16.99l-3.56,25.14,1.96.28,3.56-25.14-1.96-.28ZM25.88,62.6c.32-3.99,4-12.26,1.89-15.82-.44-.75-1.59-1.18-2.43-1.28-2.24-.27-8.64-.58-10.8-.38-.87.08-1.89.16-2.6.74-2.42,1.99-2.77,13.47-3.52,16.74h3.35c.07-3.77.09-8.37,1.21-11.97.64-2.06,1.22-2.95,3.46-3.23,1.29-.16,8.35.02,8.83,1.16,1.21,2.89-1.01,13.56-.49,14.05h1.11ZM23.66,49.97h-8.18l-1.88,13.15c1.09.29,2.53,1.66,3.54,1.68,1.45.03,4.02-1.97,5.77-1.82l-.41-1.66,1.15-11.34Z"/>
  </g>
</svg>