<?xml version="1.0" encoding="UTF-8"?>
<svg id="Layer_2" data-name="Layer 2" xmlns="http://www.w3.org/2000/svg" viewBox="0 0 44.44 51.61">
  <g id="Layer_1" data-name="Layer 1">
    <g>
      <path d="M32.48,10.12c1.69-.19,1.95,1.69,1.78,3.06-3.93,10.63-5.93,24.35-10.52,34.48-1.02,2.26-1.58,3.22-4.18,3.63-4.14.64-8.63.33-12.65-.91-1.99-.62-6.19-2.61-6.69-4.83-.37-1.66-.18-6.2-.09-8.11.3-6.63,1.17-14.5,1.88-21.17.38-3.6,1.01-7.21,1.46-10.81.57-.88,2.19-1.17,3.19-1.27,4.16-.42,11.22-.19,15.15,1.19,1.74.61,3.22,1.85,4.73,2.52.89-3.28,2.44-6.31,5.94-7.26,2.06-.56,9.23-1.09,10.79.02,2.17,1.55,1.16,5.1-1.37,5.67-1.39.32-2.29-.27-3.27-.22-2.63.16-5.55,1.08-6.14,4.01ZM41.77,3.8c-.15-1.98-2.39-1.46-3.72-1.48l2.23.93-1.11.55h2.6ZM32.43,3.12l-1.43-.05,1.12,3.34,1.85-1.3c-1.07-.16-1.37-1.88-1.53-1.99ZM15.2,6.41c-2.9-.28-6.17.2-9.11,0-.15.77.38.86.86,1.19,4.36,2.96,12.06,3.68,17.15,4.77.31-.97,1.78-2.05.95-2.79-1.54-1.37-7.72-2.96-9.84-3.17ZM29.87,7.15c-.86-.19-.59.12-.82.48-.38.59-2.46,4.79-2.14,5.1,1.08,1.04,3.38-2.97,3.58-3.71.21-.79-.56-1.14-.61-1.86ZM23.19,14.22c-6.25-.14-12.72-2.27-18.21-5.21.11,5.42-.71,10.79-1.14,16.16-.14,1.72-.07,2.75-.27,4.56-.37,3.4-1.56,12.11-.66,14.98.59,1.88,5.2,3.32,7.03,3.75,3.43.79,7.18,1.23,10.45-.43l7.64-22.84c-3.24-.64-3.34.32-4.38,3.05-.41,1.06-2.94,8.08-2.96,8.53-.06,1.16,1.52,2.18.94,4.69-.68,2.98-6.37,3.72-8.85,3.06-2.12-.56-3.13-2.38-4.43-3.75-.69-.73-1.65-1.05-2.2-1.89-3.76-5.78,5.95-18.3,8.78-8.41.26.89-.3,2.31.83,2.7l2.98-8.55c-3.42-.81-8.86-1.09-11.98-2.33-.61-.24-.95-.76-1.39-1.21.48-.71.9-.55,1.62-.53,4.05.16,7.94,1.72,11.95,2.21l1.29-1.31-10.23-3.16c-1.97-.19-3.59.6-5,1.86l.17-2.62c5.08-2.77,10.56.43,15.57,1.47l2.47-4.8ZM27.65,14.96l-2.51.08c-.14,2.02-3.9,5.3.23,4.69l2.29-4.77ZM31.36,14.96l-1.82.04c.09,1.7-3.48,5.13-.8,5.75,1.2.28,2.25-4.87,2.61-5.8ZM22.82,24.99l-1.7-.25c-.79.11-3.91,9.8-3.48,10.25l1.45.4,3.72-10.41ZM13.18,36.86c.05-2.71,1.32-6.89-1.63-8.46-1.74.54-2.83,1.9-3.55,3.52-2.39,5.35.94,6.47,4.23,9.8.02-.94,1.45-4.31,2.59-4.09.67.13.4.57.26.99-.4,1.14-1.27,2.26-1.92,3.29,1.39,1.46,7.01.6,6.64-1.78-.07-.47-1.39-2.41-1.83-2.67-1.43-.84-3.25-.13-4.79-.6Z"/>
      <path d="M18.91,46.18l.38.74c-.62,1.46-7.24.62-8.81.26-1.18-.27-4.96-1.68-5.71-2.47-.51-.55-1.08-2.04.02-1.88.86.12,3.14,1.62,4.28,2.04.83.31,3.62,1.31,4.27,1.31h5.58Z"/>
    </g>
  </g>
</svg>