<?xml version="1.0" encoding="UTF-8"?>
<svg id="Layer_3" data-name="Layer 3" xmlns="http://www.w3.org/2000/svg" viewBox="0 0 49.42 88.17">
  <g id="Layer_1" data-name="Layer 1">
    <g>
      <path d="M45.59.07c1.01-.06,4-.42,3.82,1.46-.14,1.54-1.95.35-2.32.35-.93,0-5.15,1.17-6.04,1.61-.7.34-2.75,2.84-3.42.58-.87-2.94,6.17-3.89,7.95-4Z"/>
      <g>
        <path d="M41.58,7.76c.9,1.11.57,4.08-.42,5.13-.58.61-1.31.56-1.6.81-.66.58-1.61,12.15-2.71,14.02,5.21.44,9.21,2.12,11.22,7.18,2.39,6.04-.17,19.98-1.24,26.78-.66,4.21-1.41,12.21-4.41,15.29-.6.62-2.19,1.28-2.43,1.68-.3.5.91,3.19-1.28,5.39-1.26,1.27-2.91,1.13-4.08,1.88-.52.33-.6.97-1.03,1.29-4.25,3.15-8.45-2.07-6.78-6.32l-13.57-2.23c-.96,7.08-11.1,8.6-10.18-.53.07-.73.74-1.7.64-2.21-.16-.84-3.2-3.19-3.61-6.78-.67-5.9,2.2-20.92,3.42-27.35,1.58-8.3,3.44-19.47,14.75-16.66l3-13.92c-3.46-.79-2.08-6.13.98-6.82,1.73-.39,7.81.41,9.91.71s8.25,1.23,9.42,2.66ZM22.36,9.14l15.82,2.12c2.38-2.12-.9-2.38-2.73-2.76-3.99-.82-8.17-.78-12.16-1.61-1.17.07-.95,1.36-.93,2.24ZM36.48,13.61l-12.64-1.71-2.58,13.59,13.37,1.87,1.85-13.75ZM14.1,27.43c-6.63.94-7.43,12.75-8.35,18.06-.96,5.52-3.53,19.47-2.55,24.26,1,4.89,6.02,5.36,10.16,6.2,3.84.77,12.98,2.52,16.46,1.79,4.42-.92,5.27-3.75,6.12-7.63,1.71-7.74,3.19-18.65,3.89-26.59.43-4.91.82-10.17-4.08-13.01l-21.65-3.07ZM42.81,38.87l2.87-2.41c-.89-2.21-2.36-4.33-4.73-5.02,1.05,2.41,2.19,4.68,1.86,7.43ZM46.15,37.76l-3.27,1.93-.45,4.01c.27.22,3.53-2.12,3.64-2.3.38-.64-.1-2.74.08-3.64ZM41.69,49.28l4.27-3.72.19-3.34c-.66.76-3.13,1.97-3.51,2.62-.61,1.03-.28,3.28-.94,4.44ZM44.93,51.04c.51-.65.93-3.12.67-3.98-1.94,2.12-4.68,3.8-4.27,7.06.77-.92,3.01-2.33,3.6-3.08ZM45.03,52.26c-3.58,1.63-4.52,3.98-4.45,7.8.87-.69,1.38-1.68,2.21-2.44.49-.44,1.28-.41,1.51-.79.17-.28.88-4.39.73-4.57ZM39.84,65.27c2.68-2.08,4.42-3.83,4.45-7.43-2.59,1.94-4.76,3.85-4.45,7.43ZM41.7,69.73c-.08.52-.33.98-.66,1.38-.18.22-2.29,2.99-2.32,1.4-.02-1.02,3.04-3.53,3.67-4.88s.86-2.82.78-4.23c-4.99,3.18-3.73,8.62-6.32,13.01,3.78-.27,4.4-3.62,5.57-6.51l-.73-.18ZM10.47,78.28l-4.08-.74.74.74-1.13.19c-.25,1.58.67,2.51,2.06,3.06l2.41-3.25ZM32.03,81.25h-2.6c-.38,2.09.41,4.31,2.82,2.99l-.22-2.99Z"/>
        <path d="M11.96,71.95c-.09-2.41.16-4.82.42-7.2,1.08-10.07,2.58-22.18,4.8-31.99.43-1.89,1.54-.89,1.47,1.08-.15,4.53-1.89,11.24-2.55,16.05-1,7.28-1.66,14.72-3,21.9l-1.14.16Z"/>
        <rect x="7.26" y="52.8" width="39.84" height="1.93" transform="translate(-30.07 72.52) rotate(-81.31)"/>
      </g>
    </g>
  </g>
</svg>