<?xml version="1.0" encoding="UTF-8"?>
<svg id="Layer_3" data-name="Layer 3" xmlns="http://www.w3.org/2000/svg" viewBox="0 0 42.1 44.35">
  <g id="Layer_1" data-name="Layer 1">
    <g>
      <path d="M30.49,7.94c3.89-2.2,8.46.85,10.23,4.45,4.49,9.1-2.77,17.61-9.86,22.5,5.4,3.34,4.77,7.93-2.05,8.35-2.13.13-4.05-.53-5.94-.37-3.08.25-7.74,3.35-10.16-.24-2.18-3.24,1.97-5.33,1.42-6.06C6.91,34.34-.99,27.69.1,19.37c.51-3.86,4.25-8.41,8.44-8.1.71-12.27,18.79-16.15,21.95-3.33ZM20.08,37.67c.28.27,2.18,2.33,1.86,2.6-2.26.47-2.94-1.33-4.59-2.2-.63.37-2.99,3.19-2.47,3.69l17.1-1.86c-.41-1.1-2.36-3.37-3.54-3.33-.74.02-2.28,2.09-3.33,2.61-.43.21-.9.48-.93-.2-.11-2.26,5.71-6.17,7.25-7.61,3.84-3.62,7.82-7.51,7.82-13.2,0-4.22-2.96-9.44-7.79-8.41.23,1.8-2.92,6.51-3.24,2.83s1.42-4.06-1.67-7.96c-.12-.16-.72-1.08-.9-.59,1.19,2.33,1.83,4.79,1.49,7.44-.07.51-.22,1.11-.74.55-.73-6.42-3.84-12.43-11.04-7.88-4.46,2.82-5.01,8.69-4.2,13.45-2.23.38-2.78-2.03-2.97-3.72-5.93,1.53-6.42,8.23-3.42,12.9,3.83,5.94,10.93,6.7,15.31,10.89l-5.51-22.58c0-1.01,1.09-.88,1.79-.84l4.83,23.42h-1.11Z"/>
      <path d="M23.8,35.81c-.93-2.77.31-5.62.69-8.41.42-3.09.63-6.57,1.17-9.61.26-1.44,1.31-1.22,1.5.35.21,1.78-.54,6.11-.81,8.15-.39,2.93-.59,7.38-2.55,9.52Z"/>
      <path d="M36.06,16.86c.8.75-6.78,14.78-7.62,14.86-.65.06-.43-.9-.27-1.37,1.43-4.2,5.37-8.81,6.75-13.26l1.14-.23Z"/>
      <path d="M15.61,33.95c-.95.17-.67-.14-.91-.74-.87-2.18-3-7.61-3.4-9.65-.1-.5-.26-1.36.41-1.5.94-.19,1.44,2.11,1.67,2.78.99,2.8,2.01,6.19,2.22,9.11Z"/>
    </g>
  </g>
</svg>