<?xml version="1.0" encoding="UTF-8"?>
<svg id="Layer_2" data-name="Layer 2" xmlns="http://www.w3.org/2000/svg" viewBox="0 0 42.86 44.74">
  <g id="Layer_1" data-name="Layer 1">
    <path d="M24.53,13.57c7.19-2.54,14.68,2.55,17.27,9.3,4.11,10.68-4.59,7.22-10.96,5.57.5,3.82.47,6.91,1.9,10.55.49,1.25,2.09,2.36,1.26,3.95-4.42-3.63-4.68-9.93-4.84-15.23-2.48-1.85-6.91-3.77-7.25-7.06-2.08,2.52-1.9,8.01-1.44,11.29.53,3.76,1.66,7.34,4.81,9.69.38.28,6.4,3.23,2.4,3.12-6.74-.18-9.95-8.38-10.23-14.06l-.77.24c-.32,1.32-6.42,4.86-7.03,4.21-.05-2.72.42-5.7,1.14-8.33.6-2.19,1.61-4.13,2.57-6.16-3.63.39-7.67,1.62-11.35,1.13-1.01-.13-1.76-.64-2.02-1.68,3.03-5.91,10.71-12.79,17.83-10.98.78-1.03-3.4-4.08-4.31-4.42-5.01-1.86-7.59,2.04-11.43,3.96l-.89-.37C-.22,6.91,4.59,3.34,5.68,2.72,10.35.04,15.78.7,18.76,5.39c2.8-5.93,9.9-6.97,15.02-3.13.96.72,4.03,3.77,4.13,4.83.22,2.4-3.5,1.48-5.02,1.65-2.06.23-4.01.92-5.74,2.06-.47.31-3.03,2.28-2.62,2.76ZM23.04,8.74c-.13-.68.32-.92.78-1.26.89-.66,6.28-2.7,6.27-3.76-2.83-2.58-8.42-.02-9.14,3.52-.19.93.34,3.49,1.33,3.57.34.03,4.63-2.94,5.96-3.37,1.64-.52,3.52-.55,5.2-.94.21-1.36-1.09-1.96-2.05-2.59-.59,1.27-1.27,1.99-2.52,2.67-.69.38-5.54,2.41-5.83,2.15ZM3.71,18.77c2.78-.12,11.58-.68,13.38-2.41.98-.94,1.94-3.37,1.3-4.65-.19-.32-.46-.56-.82-.67-4.44-1.31-11.03,4.68-13.86,7.73ZM39.76,27.69c-.16-7.08-6.96-13.45-14.12-11.89,2.3,2.05,6.75,2.8,6.5,6.69-1.47-.24-1.75-1.67-3.03-2.54-1.72-1.17-4-1.43-5.69-2.67,1.76,7.03,9.95,9.47,16.35,10.41ZM12.26,32.53c5.9-2.47,5.39-8.42,6.68-13.75-4.87,3.21-5.65,8.43-6.68,13.75Z"/>
  </g>
</svg>