<?xml version="1.0" encoding="UTF-8"?>
<svg id="Layer_3" data-name="Layer 3" xmlns="http://www.w3.org/2000/svg" viewBox="0 0 42.66 39.81">
  <g id="Layer_1" data-name="Layer 1">
    <g>
      <path d="M31.85,13.26c2.45-.2,4.39,0,5.89,2.1,1.36,1.9,4.92,14.28,4.92,16.66-.01,7.54-8.78,7.59-14.33,7.24-2.12-.13-5.28-1.16-7.07-1.14-1.68.02-4.61,1.34-6.69,1.51-3.41.29-11.65.55-13.74-2.61s.15-11.36,1.72-14.62c1.83-3.82,5.8-7.92,10.35-7.68.45-2.77,1.2-6.17,2.13-8.84C16.98.31,19.58,1.96,24.65.67c3.4.73,8.84-3.2,8.72,2.37-.05,2.44-1.63,3.21-1.88,4.47-.37,1.88.6,3.86.36,5.76ZM30.74,2.85c-2.88.3-5.88.28-8.74.74-.55.09-1.15.02-1.3.74,1.69-.29,8.98,1.27,9.88.03l.16-1.51ZM28.88,7.31l-11.12-1.07-2.29,8.3c4,1.09,6.86,5.39,6.35,9.5l1.92-4.58c1.44-2.16,3.09-4.67,5.84-5.12l-.7-7.03ZM31.75,15.94c-7.79,1.63-8.11,13-10.27,19,.72,2.54,14.69,2.05,17.05.05.84-.72,1.16-1.87,1.16-2.96,0-2.56-2.84-13.5-4.48-15.25-.92-.98-2.16-1.11-3.45-.84ZM18.41,35.87c.72-5.75,3.06-13.1-1.6-17.79-1.94-1.95-4.23-1.21-6.52-.17-4.2,1.91-7.02,7.84-7.43,12.27-.09,1.01-.18,4.68.17,5.39,1.05,2.1,13.09,1.41,15.37.3Z"/>
      <path d="M6.2,28.13c-.28,2.51.38,4.71,1.12,7.06-1.6,1.5-4-7.11-1.12-7.06Z"/>
      <path d="M37.43,28.13c.33.32-.79,8.73-3.34,7.43.63-2.44,2.75-4.8,1.86-7.43h1.48Z"/>
      <path d="M30.37,35.56l3.16-7.42c1.15.92.32,2.52-.12,3.59-.2.49-2.38,4.56-3.04,3.83Z"/>
    </g>
  </g>
</svg>