<?xml version="1.0" encoding="UTF-8"?>
<svg id="Layer_2" data-name="Layer 2" xmlns="http://www.w3.org/2000/svg" viewBox="0 0 36.05 61.89">
  <g id="Layer_1" data-name="Layer 1">
    <g>
      <path d="M25.66,19.61l-4.52,16.47c4.74,2.3,6.99,2.56,5.79,8.4-1.67,8.14-6.83,16.19-15.72,17.36-4.16.55-10.18-3.54-11.08-7.69-.69-3.22,1.51-10.83,2.62-14.14,2.12-6.3,4.47-7.02,10.96-5.58l5.14-17c-1.41-1.6-2.95-3.27-3.25-5.52C15.01,7.33,17.93.17,23.26,0c1.92-.06,11.82,3.13,12.58,4.69.62,1.29-.27,4.58-.66,6.03-1.31,4.79-3.98,9.08-9.51,8.89ZM24.18,16.62c6.34,2.01,8.36-5.51,9.16-10.21-.09-.45-.73-.86-1.14-1.05-.88-.42-6.34-2.28-7.23-2.43-2.81-.47-4.59.53-5.58,3.17-.38,1.02-1.08,4.11-1.02,5.12.15,2.63,3.31,4.12,3.15,6.26l-5.9,19.72c-4.01.79-7.75-2.91-10,2.34-.81,1.89-3.27,11.16-3.04,12.9.32,2.39,4.85,6.98,7.13,6.83s6.85-2.44,8.64-4.02c3.84-3.4,5.15-9.01,6.09-13.86-1.08-2.28-6.56-2.09-6.6-4.52l6.33-20.23Z"/>
      <path d="M21.64,12.75c-1.6-1.45-.25-6.38,1.37-7.12,1.5-.68,6.58.51,7.4,1.91.87,1.48-1.01,5.59-2.57,6.25-1.25.53-5.18-.12-6.2-1.04ZM24.14,7.29c-1.62,3.46-.82,4.63,2.97,4.29l.94-2.83-3.91-1.47Z"/>
      <path d="M16.69,40.75l-3.8,12c-.58,1.19-1.83.77-1.71-.56.17-1.87,2.26-7.26,3.09-9.2.57-1.33.76-2.68,2.41-2.23Z"/>
      <path d="M8.14,40.38l-2.51,11.05c-.49,1.06-1.53.53-1.5-.72.07-3.19,2.12-7,2.86-10.12l1.15-.22Z"/>
    </g>
  </g>
</svg>