<?xml version="1.0" encoding="UTF-8"?>
<svg id="Layer_2" data-name="Layer 2" xmlns="http://www.w3.org/2000/svg" viewBox="0 0 37.18 52.52">
  <g id="Layer_1" data-name="Layer 1">
    <g>
      <path d="M23.12,20.15l5.36.7.23,1.65c-.31,1.24-5.35,0-6.33.25l-3.72,24.16c3.15.09,5.48-1.22,7.81-3.15.68-.56,4.59-4.43,4.76-4.9.1-.28.08-.57.06-.86-1.33.91-3.88.97-2.79-1.12.49-.93,6.27-4.92,7.29-3.49.78,1.09,1.92,6.94,1.1,8.11-1.59,1.39-2.45-3.13-2.99-2.75-2.49,5.46-7.51,9.53-13.29,11.06-.58.15-1.54-.06-1.89.15-.45.27-.4,2.72-2.09,2.56-1.28-.12-1.42-2.15-2.42-3.19-1.7-1.76-5.05-2.98-7.06-5.2s-3.34-5.43-3.73-8.35c-1.19,1.07-1.32,2.28-3.34,1.86-.61-1.76,2.57-8.15,3.98-8.51,1.59-.41,4.4,4.77,5.63,5.8-.17,4.41-3.48-.11-3.66.11,1.23,5.19,4.93,9.91,10.03,11.52l3.37-23.95-5.42-1.69-.13-1.25c.6-1.84,5.86.09,6.26-.26l.58-3.73c-2.98-1.41-4.25-3.45-3.87-6.81.24-2.15,2.76-7.76,4.89-8.49,4.2-1.43,5.94,1.59,6.97,5.1,1.64,5.58.67,8.66-5.04,10.59l-.55,4.1ZM20.25,12.24c1.78,1.78,5.85.29,6.43-2.13.49-2.07-2-9.28-4.7-6.53-.47.48-2.54,5.66-2.57,6.38-.02.56.47,1.91.84,2.28Z"/>
      <path d="M23.76,7.57c1.88-.11.68,4.72-1.41,4.24-2.46-.56-.91-4.11,1.41-4.24Z"/>
    </g>
  </g>
</svg>