<?xml version="1.0" encoding="UTF-8"?>
<svg id="Layer_3" data-name="Layer 3" xmlns="http://www.w3.org/2000/svg" viewBox="0 0 29.42 30.57">
  <g id="Layer_1" data-name="Layer 1">
    <path d="M19.42,8.9c2.2,1.03,9.45,1.69,9.95,4.37.87,4.68-8.16,5.98-8.17,7.05,1.56,2.26,4.11,9.69-.23,10.22-4.3.52-6.77-4.84-8.14-4.83C3.64,32.58-.05,30.16,4.76,19.25-1.62,14.33-2.48,7.54,7.76,8.19,8.95,5.54,8.91.47,12.45.05c5.51-.65,5.73,4.9,6.97,8.85ZM20.45,27.93c.74-2.93-2.22-6.77-1.41-9.41.58-1.88,7.77-2.78,7.36-4.53l-9.13-3.14c-1.44-1.26-1.41-9.41-4.38-8.54-1.57.46-2.13,7.24-2.83,7.97-1.2,1.25-6.83-.24-7.42,1.52-.54,1.62,3.65,5.19,5,6.09l.2.56c-.71,3.13-2.89,5.83-2.99,9.1,2.93-.58,6.4-5.6,9.28-4.27.79.37,5.47,5.55,6.32,4.64Z"/>
  </g>
</svg>