<?xml version="1.0" encoding="UTF-8"?>
<svg id="Layer_3" data-name="Layer 3" xmlns="http://www.w3.org/2000/svg" viewBox="0 0 48.31 63.33">
  <g id="Layer_1" data-name="Layer 1">
    <path d="M45.2,29.41c-.35-2.87-1.97-4.46-1.77-7.92.27-4.84,5.74-14.33,4.77-18.49-.33-1.43-1.62-1.62-1.3-3-.9.12-1.95.73-2.67,1.21-.04.39-.1.78-.21,1.17-.29.99-1.2,2.14-1.59,3.24-2.16,6.07-2.65,12.15-7.94,16.22-1.28.99-7.39,5.3-8.5,5.65-.29.09-.56.23-.88.12-1.62-2.9-7.17-7.87-7.68-10.94-.52-3.13,0-9.14,0-12.64,0-.06-.38-.91-.61-.96-.51.01-.97.18-1.39.45-1.47.91-3.59,9.42-4.62,11.73-1.37,3.06-6.52,9.18-6.36,11.78.28,4.61,2.52,8.63,1.37,13.71-1.06,4.67-5.23,8.01-5.81,12.67l11.1,7.31c-.97-4.17-5.09-5.88-8.09-8.36,2.47-4.74,5.72-9.44,5.49-15.06,2.39.68,5.14,1.35,7.62,1.48,2.62.14,6.3-.78,8.47-.29,1.81.41,4.96,3.27,7.51,3.27h5.58c.14,0,.56.49.93.38-2.59,5.27-.78,11.04-1.45,16.51-.3.43-2.7.16-3.48.3-.98.18-8.75,2.89-7.33,4.37,2.21-.01,4.49-1.56,6.53-1.83,3.67-.48,6.77,1.73,7.23-3.17.33-3.53-.68-6.98-.28-10.69.6-5.69,5.9-14.02,5.37-18.22ZM39.27,39.45c-.51.65-7.95-.46-9.22-.83-2.25-.64-3.73-2.53-6.16-2.77-2.16-.21-4.9.46-7.39.33-1.05-.06-7.88-1-8.21-1.46l-1.13-8.59c.98-2.88,3.53-5.08,4.89-7.78,1.26-2.52,1.54-5.38,2.96-7.82-.01,1.9-.38,3.8-.15,5.72.2,1.61.99,3.16,1.75,4.56.69,1.26,5.57,8.17,6.4,8.84.78.63,1.77.7,2.74.56,1.3-.18,10.87-6.38,12.12-7.59,3.74-3.59,4.45-10.44,6.3-15.26.34-.88.65-2.28,1.49-2.78-.18,6.36-5.54,13.6-4.73,19.79.24,1.81,1.45,3.78,1.68,5.4.43,3.05-2.69,6.67-3.35,9.67Z"/>
  </g>
</svg>