<?xml version="1.0" encoding="UTF-8"?>
<svg id="Layer_2" data-name="Layer 2" xmlns="http://www.w3.org/2000/svg" viewBox="0 0 39.37 90.4">
  <g id="Layer_1" data-name="Layer 1">
    <g>
      <path d="M28.92.3c.45.38,2.91,5.21,3.35,6.14,11.4,24.61,8.3,52.61-3.78,76.29-.37.72-2.77,4.11-2.43,4.44,1.5-.45,1.97,1.86.96,2.64-.4.31-3.42.61-4.07.58-3.08-.16-5.86-4.49-8.6-5.83-3.76,2.32-6.6,5.93-11.47,5.17-2.23-1.84,1.21-2.91,1.24-3.83-2.11-5.96-3.17-12.31-3.71-18.61C-1.65,43.41,3.98,24.52,19.37,6.35c1.6-1.88,4.69-5.82,7.01-6.29.48-.1,2.16-.08,2.54.25ZM12.67,77.52c.16.7-.4.88-.74,1.3-.74.9-5.1,4.8-5.17,5.25l1.1,1.1,5.85-4.57c.12-3.81.41-7.62.87-11.39,1.56-12.61,3.56-25.72,5.58-38.28,1.44-8.93,2.86-17.89,5.14-26.64C15.12,14.71,6.33,28.24,3.85,42.86c-1.59,9.35-1.5,18.99-.1,28.33,2.42-2.05,4.6-5.77,7.23-7.45.36-.23,1.02-.71,1.32-.17l-7.99,8.74c-.39.85-.47,2.62.54,2.97,1.79-2.98,4.91-5.48,7.81-7.43.8,1.02-3.9,4.51-4.6,5.24-.45.47-3.06,3.35-3.13,3.57-.19.64-.16,2.47.67,2.71.02-.43.27-.82.55-1.13.61-.68,5.89-6.14,6.52-5.56l-6.89,7.82.2,2.21c.66.61,5.64-6.16,6.69-5.2ZM26.06,12.47l3.68-3.22c-.08-1.61-1.02-3.02-2.01-4.21l-1.67,7.43ZM32.68,17.23c.44-.96-2.33-7.77-2.9-7.36.04,1.74-3.5,3.07-3.9,3.72-.65,1.04-.46,4.22-.93,5.57l6.13-5.2.18.55-6.59,6.61-.85,4.36c.32.34,1.76-1.28,2-1.53,2.22-2.3,3.98-5.1,6.85-6.72ZM22.34,39.97l.54-1.5,12.29-12.26-2.06-8.54-9.37,10.13-.84,5.47,9.6-10.48.99.26c-2.3,2.95-5.21,5.58-7.62,8.36-.82.95-2.82,3.19-3.23,4.2-1.43,3.51-1.05,9.13-2.15,12.9l15.41-15.62c.51-1.2.04-2.98-.19-4.26-.09-.52.36-1.1-.54-.93-3.73,3.29-7.07,8.34-10.96,11.34-.55.42-1.1,1-1.86.92ZM36.46,34.4c-1.45.1-2.14,1.97-2.98,2.78-4.44,4.35-8.86,8.71-13.3,13.09-.62,6.82-1.98,13.56-2.68,20.37-.22,2.17-1.21,9.74-.4,11.17.19.32,1.63,1.69,2.01,1.63,1-.56,7.19-7.87,8.04-7.03-.63,1.59-2.32,3.59-3.52,4.84-1.12,1.16-2.31,2.53-3.91,2.98l.24.77,2.14,1.44c2.48-.52,11.33-22.95,11.37-26.74l-13.38,13.12-1.1-.29c3.35-4.01,7.23-7.65,10.95-11.35,2.98-2.97,5.26-3.9,5.4-8.91l-13.54,13.03-1.69.17c3.28-3.18,6.28-6.61,9.47-9.87,1.91-1.95,5.97-4.83,6.47-7.27.15-.72.6-5.51.41-5.72-.64-.17-.74.27-1.12.55-4.37,3.36-8.74,10.1-13.37,13.76-.45.35-1.96,1.68-1.86.37l16.35-17.1v-5.76Z"/>
      <path d="M30.88,67.11c.3.3-1.02,1.9-1.29,2.23-2.18,2.66-6.55,7.05-9.1,9.49-1.76,1.69-3.62,1.73-1.49-.76,2.27-2.66,7.16-7.7,9.83-9.85.6-.49,1.18-1.17,2.05-1.1Z"/>
    </g>
  </g>
</svg>