<?xml version="1.0" encoding="UTF-8"?>
<svg id="Layer_3" data-name="Layer 3" xmlns="http://www.w3.org/2000/svg" viewBox="0 0 75.26 37.75">
  <g id="Layer_1" data-name="Layer 1">
    <g>
      <path d="M57.91,9c-.02.54,1.34.56,1.78.63,3.6.55,6.94.85,10.37,2.27,3.32,1.38,6.07,2.79,4.75,6.75-1.24,3.72-3.06,2.24-4.21,3.96-.88,1.31-1.18,4.05-1.84,5.6-3.83,9.09-14.3,11.51-23,7.99-3.26-1.32-5.26-4.04-6.5-7.25-.9-2.34-.94-5.21-1.77-7.16-1.83-4.33-5.61,4.21-6.9,5.79-5.35,6.6-13.46,8.07-21.15,4.41C2.45,28.67,3.41,21.24,1.76,15.15,1.33,13.55.02,12.07,0,10.3c-.01-1,.6-3.45,1.51-4.03,1.02-.64,7.41-2.75,8.8-3.06,4.64-1.01,7.8-.64,12.05,1.37,2.29,1.09,4.32,3.12,6.35,4.05,3.38,1.55,8.33,1.61,11.92,2.81,1.66-1.27,3.69-1.87,5.49-2.91C53.12,4.53,58.64-1.06,67.67.17c1.9.26,7.58,2.79,7.59,4.92,0,3.32-8.01,1.85-10.06,2.08-2.38.27-4.86,1.6-7.29,1.82ZM64.04,4.54c2.15-.24,4.68.18,6.88,0-.08-.54-1.29-.85-1.76-1.03-5.11-1.85-11.84.77-16.13,3.78-.44.31-.91.01-.7.96,3.58-1.1,8.02-3.3,11.7-3.72ZM71.95,18.58c.27-.27.52-1.69.3-2.14-1.38-2.71-15.71-4.61-18.96-4.47-9.58.4-12.87,3.32-23.17.1-8.3-2.59-12.96-5.62-22.49-4.47-.5.06-3.56.78-3.9.93-.46.21-.82.47-.85,1.03.53,2.05,1.42,3.5,1.77,5.68.91,5.73,0,11.04,6.17,14.27,6.01,3.15,12.86,1.68,17.34-3.24,2.91-3.19,4.48-11.46,9.8-8.3,3.96,2.35,1.82,10.47,7.12,14.44,6.79,5.09,17.87,2.65,21.27-5.49,1.06-2.54.72-5.82,3.32-7.46.63-.39,2.12-.75,2.26-.89Z"/>
      <path d="M13.62,9.1c3.75-.16,15.16,2.08,16.24,6.21,1.36,5.18-4.44,13.38-9.71,14.1-9.68,1.33-14.63-5.56-13.9-14.64.41-5.01,2.81-5.48,7.37-5.67ZM15.16,12.72c-1.63.24-3.75,2.61-4.83,3.9-.35.42-.9.6-.74,1.3l2.79-2.21,2.78-2.99ZM20.37,13.46l-3.27.08c-.59,1.45-6.87,6.72-5.65,8.09.71.16.89-.36,1.26-.78,2.6-2.87,4.35-4.12,7.18-6.55.27-.23.7.01.47-.85Z"/>
      <path d="M53.76,13.55c3.41.04,11.29,1.24,11.94,5.33.85,5.44-3.28,13.49-9.11,14.26-6.71.88-12.72-1.64-13.97-8.67-1.07-6.03-.71-9.46,5.99-10.46,1.31-.2,3.89-.47,5.16-.45ZM51.59,17.55l-2.97.37c1.23,3.01-3.56,4.75-3.34,7.8l6.32-8.17ZM56.79,17.92l-2.62.53-7.41,9.51c.56-.33,1.36-.54,1.83-.95,1.67-1.46,6.31-6.24,7.65-7.96.29-.37.72-.47.55-1.12Z"/>
    </g>
  </g>
</svg>