<?xml version="1.0" encoding="UTF-8"?>
<svg id="Layer_2" data-name="Layer 2" xmlns="http://www.w3.org/2000/svg" viewBox="0 0 157.11 65.66">
  <g id="Layer_1" data-name="Layer 1">
    <g>
      <path d="M34.25,4.14c22.13-1.9,44.44,13.31,36.51,37.62C59.74,75.53-3.3,73.91.14,34.33,1.57,17.77,18.6,5.48,34.25,4.14ZM58.86,13.31C44.72,3.2,23.84,5.67,11.65,17.77c4.91-1.24,8.95.72,11.7,4.77,4.95-3.44,11.9-4.3,17.81-3.61,1.58.19,4.34,1.57,5.61,1.45s2.35-2.77,3.34-3.73c2.12-2.07,5.84-3.16,8.75-3.33ZM61.46,27.81c-.67-.76,5.11-5,5.53-5.81-.96-2.14-4.01-6.32-6.26-7.03-3.67-1.15-10.2,3.19-11.55,6.7,4.82,3.44,5.84,9.33,3.72,14.69,5.99-.54,10.74,3.38,13.19,8.54.64.01,3.33-7.74,2.6-8.91-.83.9-1,2.08-1.73,3.1-.25.35-.76,1.16-.68.06,1.13-2.76,3.48-5.19,2.96-8.37l-3.35,3.53c1.36-2.79,4.12-4.53,2.6-7.99l-4.27,5.2c-.58-.33.12-.84.33-1.16.52-.8,3.45-4.39,3.52-4.68.21-.81-.69-1.86-.69-2.71l-5.94,4.83ZM20.57,41.94c-2.92-5.98-3.58-12.49.97-17.86-1.69-3.43-7.6-5.77-11.12-4.74s-8.05,13.37-7.32,17.02l3.16-3.34.2.92-3.37,3.06.38,5.68c1.01.23.81-1.03,1.32-1.84.31-.48,2.97-4.28,3.51-3.74-.95,2.42-4.48,5.11-4.01,7.89.06.38,1.11,2.83,1.41,2.51.47-2.26,1.81-4.9,3.72-6.32l-3.58,7.25,1.33,2.18.77.23,3.72-5.57c-.55,3.03-5.66,6.47-1.49,8.55.16-1.36.75-3.4,1.87-4.23,1.6-1.19,1.33-1.93,2.62-3.66,1.16-1.57,3.96-3.73,5.93-4.01ZM38.41,20.75c-3.8-.78-4.96,2.06-7.06,4.45l4.06-.95,3-3.5ZM33.95,21.13c-1.21-.07-4.05.32-4.95,1.08-.32.27-1.92,4.17-2.85,4.85l2.95-1.32,4.85-4.62ZM41.76,21.86c-1.61-2.22-3.71.91-4.83,2.23,3.05.83,2.57-1.49,4.83-2.23ZM44.36,21.87l-1.69.35-2.4,1.87,2.22-.19,1.86-2.04ZM28.38,22.61l-3.91,1.87c.21,1.91-.57,3.47-1.29,5.19.78.79,2.39-3.79,2.66-4.21.71-1.07,1.89-1.74,2.54-2.85ZM49.94,25.95l-1.67-2.16-1.67,1.23c-.51.99,2.94.75,3.34.92ZM23.44,27.34c.14-.21.6-1.82.29-2.12-2.7,2.12-3.26,5.64-3.16,8.92,1.05.18.63-.22.8-.87.4-1.49-.05-3.17.59-4.61.4-.91,1.24-.96,1.47-1.31ZM25.65,31.77c-1.15,1.17-1.72,1.02-2.37,3.02-2.65,8.21,6.99,9.94,13.05,9.33,6.52-.66,18.46-6.96,11.7-14.58-3.42-3.85-15.29-2.65-19.53-.32-1.29.71-1.92,1.61-2.84,2.55ZM58.86,53.83c1.86-1.36,4.93-4.2,5.76-6.34.69-1.79-3.02-5.95-4.53-6.98-1.83-1.24-5.18-2.24-7.39-1.94-1.53.21-2.33,1.85-3.54,2.78-7,5.32-16.37,7.43-24.51,3.38-1.47-.73-2.32-2.33-3.8-1.59-3.19,1.57-6.58,6.45-7.18,9.93-.66,3.79-.35,4.1,2.69,5.9,5.55,3.28,13.26,4.29,19.62,3.78,1.01-.08,5.91-.91,6.5-1.31,1.24-.84,3.2-6.38,5.21-7.23l-.19,1.85-3.52,4.66c-.49,1.08,2.09.08,2.43-.17.23-.17,1.66-2.07,1.96-2.5,1.49-2.13,2.58-4.74,3.41-7.18.71-.04.75-.17.76.57,0,1.83-2.78,6.52-3.74,8.35l2.99-1.28,5.75-11.35c.9-.36.53,1.1.38,1.5-.89,2.46-2.87,5.47-3.91,7.98-.45,1.53,2.88-.94,3.18-1.28l3.88-9.69c.66-.04.79-.18.75.56-.08,1.47-3.24,7.3-2.98,7.61ZM11.65,55.32l.74-5.2-1.79,3.61c.02.7.04,1.86,1.05,1.59Z"/>
      <g>
        <path d="M150.95,0c3.02-.27,4.27,7.58,4.75,9.95,3.26,16.23,1.42,30.82-11.34,42.21-12.66,11.29-29.93,12.66-44.13,3.24-2.42-1.6-9.27-6.03-6.59-9.35L149.36.68c.45-.28,1.06-.62,1.58-.67ZM95.66,47.52c13.38,14.71,35.09,14.63,48.84.33,11.79-12.27,11.05-29.26,6.36-44.56l-51.48,41.82c3.33,1.81,6.28,4.27,9.78,5.82,23.53,10.44,44.33-12.51,40.9-35.8-.24-1.63-1.67-5.32-1.6-6.48.04-.62.51-.9.9-1.27,2.23,3.53,2.82,8.69,2.76,12.8-.15,11.63-4.49,22.15-13.92,29.18-12.96,9.67-28.57,7.24-39.76-3.7l-2.79,1.85Z"/>
        <path d="M127.62,30.42c2.3-.43,5.58,2.56,3.72,4.66-1.97,1.23-4.34-2.87-3.72-4.66Z"/>
        <path d="M133.09,42.43c4.78,4.02-2.98,7.42-2.31.25l.92-.58c.52-.16.98-.01,1.38.33Z"/>
        <path d="M140.97,36.33c-.99.67-5.13-2.68-4.1-3.88,1.59-1.85,6,1.44,4.1,3.88Z"/>
        <path d="M123.44,39.05c.79.82.65,4.86-.45,5.02-2.13.32-2.58-3.79-1.44-5.14.55-.3,1.45-.34,1.89.12Z"/>
        <path d="M145.37,18.8c-1.56,1.53-5.14-.56-4.37-2.88,1.64-.55,6.54.74,4.37,2.88Z"/>
        <path d="M134.68,22.98c1.77-.2,3.41.17,4.67,1.48v1.12c-1.77,2.32-5.01-.13-4.67-2.6Z"/>
        <path d="M112.76,44.91c-.33-1.01-1.07-5.59.55-5.59,2.17,0,2.23,5.94-.55,5.59Z"/>
      </g>
    </g>
  </g>
</svg>