<?xml version="1.0" encoding="UTF-8"?>
<svg id="Layer_3" data-name="Layer 3" xmlns="http://www.w3.org/2000/svg" viewBox="0 0 45.44 49.91">
  <g id="Layer_1" data-name="Layer 1">
    <path d="M42.78,33.81c-1.54,1.62-4.26,2.93-6.49,3.17-1.13,2.63-2.22,8.98-4.39,10.66-3.93,3.05-15.02,2.58-19.66,1.19-1.44-.43-6.89-2.77-7.95-3.57-1.33-1-1.67-2.9-1.84-4.48-.43-4.2.07-9.48-.6-13.53-.77-4.66-2.51-6.57-1.58-11.98.21-1.24,1.27-3.06,1.3-3.88S.36,8.57.2,7.34C-.5,1.65,7.38.41,11.51.12c8.9-.61,19.36,1.05,27.4,4.93,3.41,1.64,6.71,3.35,5.77,7.81-.23,1.12-1.75,2.8-1.75,3.8,0,.56,1.67,4.11,1.96,5.45.89,4.09.96,8.47-2.12,11.71ZM11.32,2.72c-.24-.21-4.55,2.17-4.46,2.41.28.74.74.56,1.31.2.32-.2,3.49-2.32,3.15-2.61ZM15.04,2.72c-1.12-.86-6.29,3.16-6.31,3.53-.03.55.82.54,1.38.27,1.44-.69,3.54-2.8,4.93-3.8ZM41.06,9.78c-.57-.89-1.91-1.36-2.84-1.8-5.76-2.69-13.5-4.65-19.68-5.25-2.83-.28-5.33,3.52-7.96,4.09-.12.91.02.59.53.78,2.4.92,5.98-4.39,8.76-4.13l-6.69,4.46c.16.79,1.73.8,2.33.68.93-.19,3.88-3.01,4.36-2.54-.05,1.43-1.93,1.76-2.87,2.49-.31.24-.68,0-.47.85,8.02,1.99,16.48,2.38,24.53.37ZM42.17,12.02c-7.83,2.72-17.38,2.32-25.36.26-4.7-1.21-9.84-3.28-13.3-6.77-1.18-.51-.64,2.14-.29,2.89,2.84,6,21.7,8.1,27.62,7.72,3.26-.21,9.82-.98,11.32-4.1ZM3.89,13.69v5.58c0,6.27,4.53,12.5,10.69,13.84,11.46,2.5,19.64-4.18,24.25-14.03l-8.37,7.06-.55-.55,9.29-8.36c-1.23.38-2.75.88-3.84,1.54-.64.39-5.04,4.45-5.45,4.03.49-2.03,3.17-2.6,4.09-4.45-10.12,1.16-20.46.2-29.35-5.05l-.76.4ZM41.8,20.19c-.91-.28-1.01.89-1.22,1.56-1.25,4.16-1.84,8.59-3.61,12.56,6.65-2.03,6.73-8.43,4.83-14.12ZM23.96,43.24c-.08-.77.49-1.32.92-1.86,2.44-3.12,8.05-6.68,9.86-9.47.55-.85.8-1.78.74-2.79-7.26,8.02-19.78,9.64-28.59,3.13l-2.63-2.38,1.3,12.63c5.86,4.47,14.67,6.35,21.82,4.35,2.13-.59,2.96-1.2,3.82-3.24.51-1.21,1.14-3.48,1.12-4.82-2.25,1.98-4.24,4.59-6.5,6.51-.45.38-1.6,1.51-2.23,1.11,1.21-1.42,2.61-3.37,3.89-4.66,2.13-2.17,6.14-4.19,6.52-7.42l-10.03,8.92Z"/>
  </g>
</svg>