<?xml version="1.0" encoding="UTF-8"?>
<svg id="Layer_3" data-name="Layer 3" xmlns="http://www.w3.org/2000/svg" viewBox="0 0 66.25 71.14">
  <g id="Layer_1" data-name="Layer 1">
    <g>
      <path d="M36.05,33.16l5.36,29.01c.44.65,5.39.27,6.67.39,2.6.25,8.05,2.25,9.73,2.21,1.89-.05,6.68-4.93,7.98-.77-2.63-.48-6.48,3.16-8.4,3.34-1.49.14-7.24-1.68-9.63-1.85-5.96-.43-12.73.37-18.47,1.96-1.62.45-10.81,4.23-11.44,3.61-.35-2.03,1.66-2.7,3.09-3.41,4.27-2.09,9.38-3.25,13.98-4.43l-4.8-30.08c-1.57-.12-3.09.34-4.56.84-2.89.99-5.82,3.94-8.61,3.6-4.71-.58-6.55-2.76-11.93-.35-1.59.71-3.86,3.56-4.84.4-.61-1.95.68-8.09,1.2-10.36C5.01,11.34,17.24-.98,34.39.06c11.58.7,27.42,9.61,31.46,20.95,1.52,4.25-1.62,3.07-4.61,4.08-2.81.94-5.51,4.35-6.5,4.65-1.5.45-5.75-.57-8.07-.26-4.15.55-6.32,4.47-10.62,3.69ZM36.42,3.43l-1.97.07-2.12,1.78,1.99.73,2.1-2.58ZM39.39,3.8c-2.64-.51-3,.71-4.45,2.41,1.69,1.6,1.71,0,2.4-.55.72-.59,2.14-.84,2.06-1.86ZM41.99,5.28c-1.95-2.48-3.39.75-4.82,2.05,2.08,2.7,2.58-1.76,4.82-2.05ZM36.79,30.19c-.59-5.22-2.63-10.97-4.88-15.74-1.78-3.78-3.97-7.55-7.57-9.88-5.23,8.51-6.06,19.9-5.38,29.71,2.11-.98,6.92-4.09,9.1-4.09h8.73ZM17.99,10.27c.75-.74,1.72-1.29,2.45-2.2.46-.57,1.59-2.26,1.3-2.79-.51.68-1.41.86-2.02,1.32-2.49,1.9-11.2,10.48-12.73,12.92-.69,1.09-1.4,2.72-1.78,3.97,2.58-2.57,4.87-5.82,7.41-8.38,1.6-1.62,3.69-3.16,5.38-4.85ZM63.18,21.63c-4.21-7.74-12.02-14.17-20.55-16.3l-3.24,3.48,1.85.77,3.34-3.56c-.47,1.48-1.71,3.08-2.97,3.9,1.63,1.9,3.8,3.31,5.59,5.2,2.82,2.99,5.92,7,7.06,10.97,2.7-1.97,5.46-4.05,8.92-4.46ZM16.34,8.26c-.7-.16-.88.39-1.3.74-1.58,1.33-4.02,3.62-4.64,5.58l5.94-6.32ZM33.06,10.86l.75-1.66c-.1-.47-2.37-1.15-2.6-.94.08.42,1.21,3.14,1.85,2.6ZM34.82,12.97c.22-.2,1.64-2.1,1.59-2.29l-1.65-.96c-.78,1.13-2.2,2.46-.77,3.73.23-.24.58-.27.82-.48ZM4.59,28.1c4.65-4.94,9.22-9.97,13.98-14.82l1.11-3.16c-2.18,2.34-4.82,4.23-7.07,6.5-2.97,3-8.27,8.37-9.28,12.28-.05.2-.11.6.18.55.49-.35.68-.93,1.07-1.35ZM37.21,11.28c-.67,1.87-3.97,3.17-1.72,5.15.86-1.71,5.7-4.88,1.72-5.15ZM36.42,19.41c.27.2,4.51-4.53,4.65-4.83.25-.53.34-.91-.19-1.3l-1.13-.39c-1.2,2.17-4.61,3.84-3.33,6.53ZM37.9,22.75l5.57-6.87c-.99-.87-1.06-1.87-2.17-.69-.44.47-3.82,4.68-3.96,4.97-.31.66-.32,2.31.55,2.59ZM2.22,35.39c.38.4,1.75-1.16,2.05-1.48,2.57-2.77,4.87-6.47,7.42-9.3,1.51-1.67,5.39-4.61,5.96-6.3.33-.97.45-2.32.54-3.35L3.18,30.96l-.96,4.43ZM38.28,26.1c.71.17.72-.26,1.05-.62,2.15-2.35,4.35-5.24,6.29-7.74-.45-.62-1.22-1.79-1.97-.95-.87,1.73-5.64,6.06-5.7,7.62-.02.51.39,1.12.33,1.69ZM46.82,18.67c-.62-.14-.75.2-1.1.56-.84.86-6.2,7.32-6.5,7.99-.33.72-.19,1.47-.19,2.22.22.26,3.09-2.15,3.34-2.42,1.7-1.82,3.4-4.83,5.14-6.75l-.69-1.61ZM8.45,33.07c.25-.21.39-1.11.83-1.59,1.88-2.06,6.24-5.64,7.46-7.78.5-.87.42-2.19.72-3.18l-11.89,12.83c-.48,1.1,2.74-.17,2.88-.28ZM48.68,20.9l-.77.23-4.43,6.46c2.37-.79,3.82-1.26,5.39-3.34.69.93-.64,1.53-.93,2.22h3.72s-2.98-5.57-2.98-5.57ZM8.91,33.16l3.18.34.73-.31c1.33-2.51,4.44-4.45,3.88-7.47l-7.8,7.43ZM13.74,33.9c2.83,1.25,2.69-1.59,2.6-3.71l-2.6,3.71ZM33.6,32.56l-1.49.27,5.37,30.1,1.49-.27-5.37-30.1Z"/>
      <path d="M.36,58.06c-.61-2.06,3.5-3.96,5.06-4.07,2.69-.19,4.48,1.95,6.27,1.87,2.1-.09,3.5-2.64,7.07-2.27,1.4.14,4.26,1.5,2.78,3.19-.95,1.08-2.24-.37-3.18-.55-3.87-.73-4.09,1.98-6.33,2.21-2.01.21-3.51-2.11-5.55-2.25-2.56-.18-3.84,1.77-6.13,1.88Z"/>
      <path d="M8.17,51.37c1.18-2.08,2.23-2.12,4.09-2.78.56-.2,2.68-1.71,2.97-.37.13.59-.49.77-.85,1-1.81,1.17-3.98,2.51-6.21,2.15Z"/>
    </g>
  </g>
</svg>