<?xml version="1.0" encoding="UTF-8"?>
<svg id="Layer_2" data-name="Layer 2" xmlns="http://www.w3.org/2000/svg" viewBox="0 0 96.2 83.53">
  <g id="Layer_1" data-name="Layer 1">
    <g>
      <path d="M58.81,10.34l-.02,5.35c2.86.64,1.67,3.15,1.88,5.43l2.07-.35c.51-.74-.36-3.54,1.15-4.05s7.3-.43,7.76,1.78c.54,6.56-.89,13.78-.22,20.3.19,1.9,1.25,3.6.77,5.74l1.15-.22c.02-5.25,3.37-5.56,7.58-3.87l.56,4.45,1.45-.04c-.05-4.88,4.17-5.76,7.66-3.3l-.58,34.73c1.42.18,7.51,2.04,5.93,4.26-.72,1.01-2.32-.24-3.02-.44-2.79-.82-4.54-1.22-7.54-1-1.3.1-3.87.37-4.65,1.48.98.28,2.37.88,2.26,2.04l-.62.9c-7.78-2.22-14.81-4.54-23.03-4.07s-13.48,2.08-22.01-.26c-4.12-1.13-7.48-3.49-11.45-4.53-5.86-1.52-12.45-1.32-18.29.24-1.21.32-7.02,2.83-7.51,2.33-.57-2.2,2.02-3.16,3.72-3.89,3.42-1.47,7.82-2.31,11.52-2.42l4.8-35.16c.59-.71,5.86-1.18,6.84-.56,1.08.68.52,3.33.33,4.39-.13.72.03.45.66.47-.62-4.59,2.45-5.6,6.42-4.75,2.22.48,1.17,2.87,1.38,4.57.07.51.22,1.1.74.55.39-2.2.04-4,2.62-4.7.42-5.21,1.18-10.38,1.84-15.56.24-1.93-.77-4.28,2.03-4.66.88-.12,5.11.07,5.88.46,1.75.9.81,3.11,1.02,4.76l1.25.02c1.21-3.03.78-5.45,5.06-4.85l.21-13.81L57.56,0c.61-.11,9.47,3.16,10.62,3.76,9.72,4.96-5.63,6.55-9.37,6.58ZM58.81,2.91v5.2c2.86-1.05,5.97-.74,8.92-1.49-2.42-2.19-6.03-2.37-8.92-3.71ZM54.35,18.52c-.1,3.71-.91,5.47-4.93,4.74s-1.11-4.66-2.73-5.09c-.4-.11-3.83.1-3.48,1.29l-1.52,15.94c3.47.17,2.78,3.21,2.64,5.99-.54,10.69-2.69,21.97-3.36,32.7-.05.84,0,1.7-.02,2.54l2.62.61c-.99-4.98.41-16.05,4.65-19.32,2.57-1.98,6.66-2.25,8.89.4,3.1,3.68,1.39,13.56,1.33,18.19h2.6c.86-7.83,1.06-15.77,1.86-23.6.19-1.87,1.2-12.03,2.22-12.65l3.73-.18.21-20.47-3.55-.34c.67,4.67-4.15,5.66-7.26,3.35l-.18-4.1h-3.72ZM25.35,37.48l-3.18.35-4.62,32.72c7.87-.69,13.88,4.04,21.18,5.58l3.35-37.91-2.81.35-.68,4.15c-5.16,1.31-6.24-.25-5.05-5.24-4.44-1.28-2.23,5.49-5.01,5.61-3.48.15-4.16-2.79-3.17-5.61ZM69.93,42.71l-2.77-.29-.47.52-3.36,33.02c1.15.74,3.3.37,4.87.64,1.7.29,9.26,2.81,9.77,2.76.37-.04,1-1,1.54-1.3,2.55-1.43,5.03-1.73,7.93-1.92v-4.45c-1.15-.6-2.75,2.54-4.09,2.04,1.08-2.05,4.6-2.73,4.09-5.38l-4.27,2.6c-.25.08-.27-.35-.18-.55.56-1.26,4.23-2.9,4.46-4.09v-4.28c-.19.2-3.63,2.9-2.97,1.31.53-1.28,4.3-2.47,3.34-5.02-.49-.57-2.42,2.48-3.34,1.67.41-.92,2.88-2.31,3.16-2.79.4-.69.11-2.43.56-3.34l-3.9,2.6c-.17-2.64,4.92-2.95,3.9-6.32l-1.48.37c2.6-1.69,1.14-4.66,1.48-7.43l-2.22-.38c-.87,3.45-.35,5.59-4.67,5.22-4.08-.35-1.69-2.76-2.02-5.59h-3.35c.02,1.24.1,4.06-.95,4.81-1.65.88-3.34.22-4.94-.4l-.08-4ZM52.86,59.41c-1.83-.35-3.67,1.28-4.46,2.79-.53,1.02,1.13-.29.73.73-.76,1.95-2.67,3.9-2.59,6.14l6.31-9.66ZM54.71,59.78c-.68-.16-.72.24-1.05.61-1.25,1.44-6.25,8.74-7.07,10.4-.4.81-.53,1.46-.42,2.36l9.12-11.16-.58-2.22ZM56.2,63.12c-.73-.19-.72.31-1.04.63-1.44,1.41-8.72,10.46-8.97,11.85-.12.65.01,1.36-.02,2.02l1.11-.56-.74-.37,9.56-11.06.1-2.51ZM56.58,67.21c-.43-.34-2.21,1.98-2.59,2.42-2.14,2.53-4.16,5.19-5.96,7.98l7.64-1.09.16-4.12-.74-.18c1.72-1.14.99-3.32,1.48-5.02Z"/>
      <path d="M53.86,31.6c.82-.26,2.19-.14,3,.21,2.89,1.23,2.53,11.03.97,11.56-1.22.41-6.29.24-6.75-1.32-.59-1.96.56-9.76,2.79-10.45ZM56.2,41.19c.42-1.05.75-7.47-.92-7.06-1.15.28-2.03,5.51-1.68,6.69l2.6.37Z"/>
      <path d="M76.55,55.02c4.99-1.13,3.47,7.54,2.71,10.15-1.68.71-6.67.5-7.06-1.51-.52-2.63,1.46-8,4.35-8.65ZM77.39,57.55c-1.56-.21-3.01,4.81-2.6,5.2l1.69.25c1.3-.18.85-4.44.91-5.45Z"/>
      <path d="M28.23,50.54c4.44-.78,4.32,7.8,3.36,10.45-.74,2.06-5.42,1.28-6.41-.11-1.45-2.03.44-9.88,3.05-10.34ZM29.44,53.46c-1.9-.2-2.68,5.52-2.23,5.95,3.47.8,1.89-3.78,2.23-5.95Z"/>
    </g>
  </g>
</svg>