<?xml version="1.0" encoding="UTF-8"?>
<svg id="Layer_3" data-name="Layer 3" xmlns="http://www.w3.org/2000/svg" viewBox="0 0 41.03 42.84">
  <g id="Layer_1" data-name="Layer 1">
    <path d="M40.5,17.62c.55.67.62,2.2.46,3.04-.69,3.81-8.69,5.25-11.85,5.81.27,4.49,1.7,9.42,1.11,13.93-.27,2.07-2.42,2.67-4.27,2.38-3.09-.49-7.59-8.53-9.31-11.12-3.31,1.68-8.85,6.22-12.6,5.92-8.54-.68,2.73-12.7,4.59-15.37C6.29,20,1.6,15.4.5,12.46c-3.36-8.97,11.14-2.11,14.6-1.33,1.92-.37,4.44-12.48,10.75-11,1.45.34,1.71,1.54,1.92,2.84v10.12c.83,1.48,10.99,2.42,12.74,4.54ZM25,2.64c-.93.03-1.83,1.2-2.38,1.89-2.44,3.06-3.36,7.19-6.06,9.96-1.47.41-9.87-3.47-12.28-3.95-.62-.12-1.34-.42-1.22.47.48,3.42,8.45,8.37,8.54,11.19.03,1.02-.64,1.69-1.16,2.5-.89,1.37-7.79,9.06-6.62,10.28,3.68.09,10.68-6.8,13.55-6.32,2.41.41,6.21,10.86,9.68,11.53.74.14.5-.1.56-.56.47-3.3-1.79-12.96-.93-14.69.67-1.36,10.13-2.39,11.16-4.08.89-1.47-.47-1.74-1.59-2.13-1.93-.67-11.23-2.09-11.23-4.38V2.64Z"/>
  </g>
</svg>