<?xml version="1.0" encoding="UTF-8"?>
<svg id="Layer_2" data-name="Layer 2" xmlns="http://www.w3.org/2000/svg" viewBox="0 0 69.52 37.28">
  <g id="Layer_1" data-name="Layer 1">
    <g>
      <path d="M15.14,18.35c-2.61-2.37-7.34-.15-9.99,1.12-.82.39-4.68,2.95-5.13,2.49-.22-2.17,1.49-2.87,3-3.87,2.78-1.84,7.52-4.12,10.91-3.54,3.24.56,4.12,4.95,6.42,5.47,4.3.98,6.63-4.85,11.81-4.78,4.83.06,4.12,4.26,7.24,5.06,3.97,1.02,8.78-6.59,14.52-4.87,3.71,1.11,2.07,5.29,7.98,4.66,1.04-.11,4.67-1.77,4.66.19-1.28,2.46-6.86,3.16-9.19,2.11-2.76-1.23-2.4-4.38-5.86-4.17-4.07.24-6.42,4.92-10.77,4.86-1.63-.02-4.25-.87-5.4-2.06-.62-.64-.98-1.91-1.72-2.37-4.55-2.85-9,7.62-15.37,3.47-1.56-1.01-2.16-2.92-3.1-3.77Z"/>
      <path d="M63.95,31.99c.47,3.57-5.33,4.16-7.91,3.63-1.68-.34-3.11-2.3-4.92-2.18-1.5.1-4.24,3.1-6.12,3.58-2.12.54-4.83.19-6.84-.62-3.85-1.54-5.66-5.19-10.52-2.99-.91.41-6.34,5.02-6.81,2.85-.21-.99,5.1-4.85,6.18-5.34,7.03-3.16,9.49,3.1,15.56,3.32,3.08.11,3.13-1.37,5.28-2.56,4.87-2.68,7.14,1.33,11.12,1.38.93.01,4.74-1.33,4.97-1.07Z"/>
      <path d="M69.52,7.09c-2.31.52-6.7.31-8.38-1.47-.97-1.03-.82-2.54-2.58-2.65-2.88-.18-3.92,4.13-8.01,2.84-.9-.28-1.3-1.26-1.85-1.51-2.38-1.11-6.78,4.78-9.65,2.24,2.72-1.13,7.47-5.8,10.42-4.86.82.26,1.63,1.56,2.4,1.57,1.57.01,4.28-3.36,7.06-3.24s3.01,3.24,4.51,4.07c1.61.9,5.56.35,6.09,3.01Z"/>
    </g>
  </g>
</svg>