<?xml version="1.0" encoding="UTF-8"?>
<svg id="Layer_2" data-name="Layer 2" xmlns="http://www.w3.org/2000/svg" viewBox="0 0 35.76 39.64">
  <g id="Layer_1" data-name="Layer 1">
    <g>
      <path d="M19.77.01c11.43-.54,17.89,14.55,15.5,24.44C30.38,44.78-2.72,46.21.18,19.47,1.11,10.84,10.82.43,19.77.01ZM30.24,11.44c-.64-3.97-5.16-8.63-9.29-8.55-.21.99.26.64.73.92,3.62,2.17,6.13,4.05,8.55,7.63ZM17.16,3.72c-6.27.24-13.79,10.21-14.43,16.08-.92,8.44,2.24,16.68,11.72,17.28,3.57.23,10.43-1.93,12.61-4.85,2.79-3.74,4.18-10.37,3.46-14.94-.79-5.09-7.92-13.78-13.36-13.57Z"/>
      <path d="M16.49,8.28c.07-.24.91-.78,1.11-1.12-2.6-1.12-8.05,5.07-8.19,7.09,1.4,2.14,5.16,2.39,5.59,5.36-.41.4-6.82-2.95-7.18-3.8-1.38-3.25,4.54-9.48,7.46-10.23,3.57-.92,8.72,3.14,10.59,5.95,4.84,7.28,3.77,19.13-5.3,22.38-6.14,2.2-11.91.84-14.67-5.38-1.2-2.7-2.47-10.33,2.2-9.65.64.09,6.69,1.72,7.05,1.9.72.37.22.81.34.97.25.36,1.17.12.95,1.3-.34,1.79-5.13,6.68-4.38,8.95,1.12,1.24,3.14,1.17,4.59.65.13-.09.59-2.97.59-3.2v-7.62c2.98.45,6.32,1.58,8.74,3.34,1.67-2.94.8-6.52.18-9.66-.65-.54-6.6,4.3-7.8,4.83-1.34-3.05,6.39-5.8,6.26-7.18-.08-1.32-5.99-6.14-6.64-5.45.6,4.03.7,8.31-.38,12.26-.29.21-1.11-.36-1.11-.56,0-2.31-.46-9.54,0-11.15ZM15,22.22c-.41.11-.63.33-1.1.2-2.34-.61-4.68-1.57-7.07-2.06-.37,3.84-.06,7.85,3.16,10.4l1.36-3.09,3.65-5.46ZM18.72,32.62c2.69-.94,6.16-2.9,6.53-5.96l-6.53-2.58c.76,2.88.2,5.65,0,8.55Z"/>
    </g>
  </g>
</svg>