<?xml version="1.0" encoding="UTF-8"?>
<svg id="Layer_3" data-name="Layer 3" xmlns="http://www.w3.org/2000/svg" viewBox="0 0 36.11 70.69">
  <g id="Layer_1" data-name="Layer 1">
    <g>
      <path d="M12.76,2.13c4.35-4.23,11.19-1.77,12.62,4.02.25,1,.11,2.75.43,3.28.14.22,2.52,1.48,3.17,2.03,1.97,1.66,4.2,4.42,4.46,7.06.12,1.18-.39,3.12-.28,3.68.14.74,2.53,2.06,2.86,4.15.38,2.43-.53,5.57-2.59,7.03-.71.5-1.69.4-2.16,1.19-2,7.94-4.76,15.65-6.94,23.54-.55,1.98-2.38,11.36-3.17,12.07-1.17,1.05-3.18.32-3.78-1.03-2.39-6.61-5.02-13.15-7.37-19.77-.86-2.43-3.63-12.72-4.83-13.75-2.08-1.78-4.87-1.41-5.17-5.64-.26-3.69,2.23-4.37,2.52-5.59.14-.59-.42-3.76-.31-5.12.25-2.89,1.86-6.33,3.9-8.37.83-.84,4.33-2.74,4.46-2.97.79-1.34-.14-3.57,2.17-5.82ZM18.53,2.41l-2.92.88,2.28,4.22,4.4.43-2.16-2.48-1.6-3.05ZM15.97,7.57c.28-.37-1.32-2.97-1.67-2.97-.78.66-1.01,1.6-.93,2.59l2.6.37ZM29.77,24.25c-.35-2.05,1.18-2.67.92-4.8-1-8.06-15.1-11.93-21.22-7.43-2.84,2.09-6.64,8.92-3.54,11.89.61-2.37,1.86-4.62,3.2-6.66.37-.57,2.17-3.85,2.39-2.07l-5.38,9.12c.12,2.46-1.57,1.98-2.52,3.43-2.78,4.23,2.57,6.6,6.01,4.9.91-.45,1.07-1.93,2.06-2.05,1.53-.18,1.08,1.29,1.66,1.7.21.15,2.41.55,2.81.56,3.13.05,3.24-2.39,4.12-2.56,2.93,1.65,4.99,3.64,7.43-.03.79-.24,3.48,2.85,5.29-.62,1.33-2.55-.54-5.26-3.25-5.38ZM28.61,33.96c-2.05.53-3.39,1.58-5.69,1.03-.84-.2-1.29-1.1-2.27-1.05-1.03.06-2.15,1.43-4.12,1.52-1.68.07-3.29-.84-4.45-.76-.23.02-3.95,1.09-3.93,1.3l.98,2.06c4.51-.29,9.24.14,13.7-.4,2.95-.35,5.39-.23,5.77-3.71ZM24.9,39.54c-1.62.46-3.43.15-5.03.37-1.7.23.92,2.94,1.5,3.34l3.53-3.7ZM17.09,39.91h-5.2c.65.71,1.82,2.98,2.78,2.98l2.42-2.98ZM26.75,39.91l-4.06,3.97c-.29,1.09,1.3,1.82,2.02,2.35l2.04-6.31ZM10.4,40.65c.6,1.68.44,3.74,1.67,5.19,2.12-1.24.75-2.9-.47-4.35-.36-.42-.42-1.03-1.2-.84ZM17.7,41.42l-2.77,2.76,2.02,2.77,3.47-2.77c-.74-.49-1.85-2.91-2.72-2.76ZM13.74,50.31l1.82-2.09-1.63-2.73c-.43.54-1.23,1.38-1.3,2.06-.05.52.46,2.5,1.1,2.77ZM21.07,45.53l-3.23,2.75c1.67,1.36,3.72,4.64,5.52,1.82.23-.36.69-1.85.64-2.2-.07-.5-2.21-2.56-2.94-2.36ZM16.53,49.21l-2.44,2.41,2.07,4.27,3.9-2.8-3.53-3.88ZM22.67,53.66c-.91-1.1-4.39,2.5-5.2,3.16l3.71,2.41,1.49-5.57ZM20.39,60.41l-4.04-2.66c.47,2.22.9,5.76,3.71,5.95l.33-3.29Z"/>
      <path d="M14.49,17.24l-4.9,8.66-2.53,2.86c-.08-.64.05-1.17.29-1.75.37-.9,5.09-8.52,5.71-9.16.5-.52.53-.78,1.43-.61Z"/>
      <path d="M17.83,19.47c.22.21-1.75,3.94-2.04,4.48s.03.91-.93.72c-.2-1.71.87-3.37,1.76-4.73.34-.52.86-.8,1.21-.47Z"/>
      <path d="M21.18,20.58c-.84,1.54-1.5,3.28-2.54,4.71-.33.46-.39,1.03-1.18.86-.25-.26,2.76-6.51,3.71-5.57Z"/>
      <path d="M25.26,25.78c-.27.2-1.09-.32-1.1-.55-.01-.21,1.59-3.5,2.04-3.53,1.25,1.04-1.17,2.69-.93,4.08Z"/>
    </g>
  </g>
</svg>