<?xml version="1.0" encoding="UTF-8"?>
<svg id="Layer_3" data-name="Layer 3" xmlns="http://www.w3.org/2000/svg" viewBox="0 0 53.07 25.27">
  <g id="Layer_1" data-name="Layer 1">
    <g>
      <path d="M53.01,4.6c.78,3.16-5.72,4.28-7.99,4.09-4.1-.33-4.3-4.14-7.36-5.29-5.04-1.9-8.33,3.37-12.05,5.58-7.38,4.38-10-.26-16.67.06-3.06.15-5.75,1.76-8.72,2.24-1.25-1.33,3.09-3.31,3.98-3.64,3.61-1.36,6.47-1.39,10.24-.73,2.81.49,4.3,1.88,7.43.91C27.86,5.98,30.25-1.36,37.87.22c4.07.84,4.23,6.02,9.18,5.33,1.95-.27,3.82-1.37,5.96-.96Z"/>
      <path d="M44.45,19.09c.34,2.98-2.73,3.67-5.3,3.26-2.21-.35-4.64-2.53-6.68-2.43-2.99.16-5.26,3.64-7.95,4.7-5.94,2.36-9.34-2.53-13.99-1.73-1.23.21-2.26,1.24-3.62,1.02-.17-.97.46-1.48,1.11-2.05,4.31-3.82,10,1.43,14.61.48,2.24-.46,4.13-3.13,6.25-4.15,6.49-3.12,9.31,2.57,15.57.89Z"/>
    </g>
  </g>
</svg>