<?xml version="1.0" encoding="UTF-8"?>
<svg id="Layer_3" data-name="Layer 3" xmlns="http://www.w3.org/2000/svg" viewBox="0 0 68.07 57.03">
  <g id="Layer_1" data-name="Layer 1">
    <g>
      <path d="M16.38,29.39c-2.8.44-3.25,4.33-6.59,3.06-1.43-.55-5.07-4.33-6.24-5.65S-.28,22.83.02,21.05c.12-.69,3.39-4.72,4.1-5.58,3.96-4.76,9.71-10.19,15.68-12.2.9-.3,3.78-1.12,4.55-1.02.97.13,1.64,1.49,2.46,2.03,3.33,2.21,8.39,2.78,10.93-.92,1.07-1.56.53-3.11,2.98-3.33,5.83-.51,19.82,5.65,24.53,9.3,1.1.85,2.82,2.1,2.82,3.52-.01,1.68-7.09,13.84-8.58,14.51-1.68.75-6.28-3.22-6.67-2.8l3.33,26.94c-.36,1.81-6.32,2.7-8.1,3.05-7.23,1.42-19.78,2.94-27.01,2.34-1.14-.09-4.65-.52-4.65-2.04v-25.46ZM21.96,5.97c1.64.39,2.01,2.14,3.37,3.14,5.55,4.09,15.84.97,17.06-6.26-1.29-1.68-2.06,1.4-2.8,2.35-2.56,3.28-7.46,4-11.31,2.83-1.79-.55-4.06-2.86-5.57-2.64-.29.04-.86.17-.74.59ZM18.99,21.77v32.52c11.51-.51,23.36-.57,34.41-4.07l-3.87-32.86.87-.63c1.78,0,1.6,3.95,2.13,5.13l5.68,2.56c1.18-.13,6.16-9.65,7.25-11.23-.02-.64-1.5-1.52-2.12-1.96-5.25-3.71-12.42-6.27-18.53-8.17-1.85,3.81-3.8,7.09-7.98,8.64-6.56,2.43-13.43.62-16.16-6.11-3.24,1.34-6.09,3.07-8.74,5.37-1.41,1.22-8.86,9.16-8.9,10.41-.04,1.06,7.31,8.38,7.98,8.38l5.28-3.47.86-5.46c.45-.3,1.73.47,1.85.93Z"/>
      <path d="M42.04,48.35c-.11-.72.21-1.26.57-1.84.49-.79,5.47-7.03,5.93-7.07,1.07-.1-.26,1.99-.4,2.2-1.47,2.24-4.16,4.84-6.11,6.71Z"/>
      <path d="M49.84,45.38l-3.53,4.83-1.67,1.11c-.41-.46,3.01-5.24,3.5-5.6.56-.4,1.05-.41,1.7-.35Z"/>
    </g>
  </g>
</svg>