<?xml version="1.0" encoding="UTF-8"?>
<svg id="Layer_3" data-name="Layer 3" xmlns="http://www.w3.org/2000/svg" viewBox="0 0 70.58 78.87">
  <g id="Layer_1" data-name="Layer 1">
    <g>
      <path d="M24.71,10.98c.09,0,.62.78.91.18-2.51-.66-4.39-4.83-1.19-5.55s10.1,3.67,13.56,4.1c8.25-2.16,16.42-4.6,24.61-6.92.49-.14,1.73-.11,1.8-.19.15-.15-.23-1.18.75-1.96,3.03-2.42,6.91,2.53,3.23,4.68l-21.01,7.28c4.99,2.95,11.09,3.78,16.32,6.17.58.26,1.47,1.16,1.63,1.17.28.02.87-.58,1.47-.62,2.93-.22,5.49,4.53,2.31,6.31-3.12,1.75-3.66-.36-5.77-1.42-.72-.36-7.32-2.61-7.62-2.35.15.43.36.71.34,1.22-.29,5.76-2.74,12.68-2.89,18.2-.08,3.05,2.21,4.91-1.1,7.94-5.25,4.8-16.67,3.93-23.19,3.1l-2.12,12.85c1.74,1.54,8.74,7.57,8.23,9.75-.09.38-.91,1.19-1.29,1.29-2.15.59-5.79-5.99-8.08-6.48-.63,1.51-.88,8.34-1.81,8.89-.58.34-1.93.3-2.55,0-1.66-.81.09-7.87.37-9.61-.49-.39-6.39,4.02-7.89,4.27-2.38.4-4.15-1.14-2.25-2.99,1.59-1.54,9.71-5.22,10.31-6.38l2.21-12.34c-6.04-1.35-12.08-3.07-17.5-6.09C3.6,43.88-.03,41.71,0,37.94c.02-2.5,1.56-2.78,2.01-4.31.74-2.5,1.22-8.38,1.47-11.22.37-4.15-1.19-8.62,4.09-10.41.89-.3,4.69-1.01,5.52-1.01,3.71,0,7.98-.28,11.61,0ZM67.98,3.66c.45-1.56-1.09-2.99-2.31-1.38l.57,2.17,1.74-.79ZM64.43,5.18l-1.17-.66-21.68,6.28c1.16,1.65,3.64.61,5.3.23,5.95-1.36,11.53-4.6,17.54-5.85ZM24.6,6.8l-.71,1.96,40.39,14.58.71-1.96L24.6,6.8ZM25.62,12.8h-11.06c-.91,0-5.38.68-6.29.96-5.35,1.69.2,5.46,2.6,6.72,8.45,4.44,30.81,8.98,39.67,5.44,2.13-.85,3.99-2.19,2.93-4.7l-15.72-5.87c-3.67.89-7.31,1.98-11.03,2.71-2.66.52-7.21,2.13-6.13-2.5l5.04-2.77ZM34.32,13.89c-3.46-.42-8.07.59-11.34,1.91-.37.15-1.3.16-.99.8.28.58,1.07.58,1.63.58,1.16,0,8.17-1.95,9.54-2.47.46-.17,1.07-.21,1.17-.82ZM53.54,26.58c-10.24,4.76-24.65,1.95-35.17-1.28-4.37-1.35-9.59-3.11-12.71-6.52-1.74.47-.16,2.46.72,3.27,7.2,6.7,30.93,10.32,40.41,8.84,2.27-.35,7.26-1.31,6.75-4.31ZM67.22,21.55c-1.94.54-.93,4.52,1.39,2.51,1.25-1.08.17-2.94-1.39-2.51ZM7.77,25.2l-2.82-1.89c.47,2.96-2.37,11.06-1.11,13.26.36.64,1.44,1.15,2.02,1.61.35-1.91,2.53-11.93,1.92-12.98ZM16.86,29.17l-7.2-2.95-1.76,13.36,7.55,2.96,1.4-13.37ZM27.79,31.66l-9.06-1.82-1.8,13.03,9.42,2.2,1.45-13.42ZM52.82,31.3l-1.37.98c-.26,3.8-1.18,7.55-1.16,11.35l1.01-.98,1.53-11.35ZM41.22,33.47l-11.61-1.45-1.45,13.41c3.86.55,7.69.93,11.6.73l1.45-12.69ZM50.28,32.39l-7.46,1.06-1.61,12.72c1.31-.17,6.51-.48,7.08-1.44.57-4.12.69-8.37,1.99-12.33ZM5.67,42.54c.76-3.12-1.91-3.18-3.62-5.08-.45,2.35,1.43,4.57,3.62,5.08ZM48.1,47.26c-13.36,2.64-28.14-.41-40.44-5.8-2.24,2.22,2.7,3.91,4.44,4.62,8.24,3.35,21.14,5.64,29.97,4.76,1.97-.2,6.9-.89,6.03-3.58ZM52.09,44.72l-2.46,1.52-.44,2.46c.59.6,3.5-2.92,2.9-3.98ZM27.03,52.38l-1.04-.41-2.54,12.48c1.6,1.12,1.39.59,1.69-.81.8-3.7,1.05-7.57,1.89-11.26ZM21.82,65.87l-7.22,4.77.34.52,7.22-4.77-.34-.52ZM32.87,74.09c-.29-.96-1.32-2.15-1.99-2.91-1.47-1.68-3.24-3.21-4.9-4.71-.16.68.38.86.72,1.27,1.8,2.13,4.27,4.22,6.16,6.35ZM22.71,76.99c.18-2.54,1.32-5.35,1.42-7.85.03-.7.19-1.11-.51-1.57-.5-.01-.83,3.83-.91,4.53-.13,1.2-.21,2.46-.32,3.67-.04.41-.33,1.3.32,1.22Z"/>
      <path d="M45.2,19.33c-.06.54-1.35.8-1.8.92-2.77.7-5.12.32-7.81.54-1.61.13-3.22.93-4.9.72-.09-.52.64-.51,1.01-.61,3.02-.84,4.73-.42,7.43-.63,2.04-.16,3.97-1.22,6.06-.93Z"/>
    </g>
  </g>
</svg>