<?xml version="1.0" encoding="UTF-8"?>
<svg id="Layer_3" data-name="Layer 3" xmlns="http://www.w3.org/2000/svg" viewBox="0 0 49.61 68.01">
  <g id="Layer_1" data-name="Layer 1">
    <path d="M28.22,18.81c13.54,1.87,22.35,11.59,21.31,25.57-1.42,18.97-19.49,28.9-36.65,20.79C-6.79,55.87-3.03,25.08,18.03,19.76c1.73-.44,3.25-.46,4.92-.89.05-3.61.44-7.1.94-10.66.17-1.2,1.1-8.17,1.93-8.21l1.59,8.2.82,10.61ZM26,8.34c-.44-.58-.66,0-.72.54-.39,3.14-.28,6.8-.36,9.98h1.45s-.36-10.52-.36-10.52ZM21.65,26.83h5.62c.13,0,.55-.48.91-.37l-1.97-5.7c-3.29-.02-3.74,3.58-4.56,6.06ZM15.12,26.1l5.09.2,2.52-5.27c-2.93.98-5.75,2.56-7.61,5.07ZM28.91,26.47c.91-.24,5.34,0,5.07-1.26-1.68-1.97-3.82-3.64-6.52-3.81l1.46,5.07ZM17.3,21.76c-1.28.57-2.79,1.28-3.96,2.02-.66.42-1.51.86-1.84,1.6,2.45.63,1.58.44,2.7-.73,1-1.04,2.2-1.79,3.1-2.89ZM38.33,24.65c.32-.43-4.73-2.81-5.08-2.53,1.86,1.85,2.1,4.3,5.08,2.53ZM44.14,30.09c-1.24-2.02-2.61-3.76-4.71-4.94l-2.91.96,2.53,5.65,5.09-1.67ZM10,31.87c.34-1.61,1.7-3.05,2.28-4.43.14-.33.52-.48-.05-.79-3.05-1.66-4.59,2-6.17,4l3.94,1.22ZM37.61,32.27l-2.53-5.26-5.81.55,1.09,6.17,7.25-1.46ZM19.83,27.56l-6.09-.29-2.61,5.36,7.25,1.09,1.45-6.16ZM19.47,34.09h9.79l-1.3-6.53-6.99.41-1.5,6.12ZM47,38.39c.35-.48-1.53-6.67-2.13-7.05-.94-.6-4.09,1.85-5.45,1.66l1.82,7.98,5.76-2.59ZM9.32,33.37l-4.36-1.3c-.88,1.23-3.17,6.65-2.48,7.77l4.65,1.51,2.18-7.98ZM38.33,33.36l-7.62,1.45.73,8.34,8.7-1.45-1.82-8.34ZM18.02,35.18l-7.59-1.44-2.2,8.33,8.7,1.45,1.09-8.34ZM29.61,35.2c-3.55.02-6.95.8-10.5-.02l-.92,8.36c4.02.92,8.11-.14,12.16-.01l-.75-8.32ZM47.4,39.53l-5.81,2.72-.36,8.53c2.11-1.52,6.16-1.67,6.16-4.9v-6.35ZM6.78,50.23c-.3-2.2.22-4.97,0-7.25l-4.71-1.99c-.61,4.82-1,9.38,5.07,9.79.18-.14-.35-.44-.36-.54ZM40.15,42.79l-8.71,1.45-.36,9.07c.38.37,7.68-1.2,8.46-1.78.17-.13.6-1.16.6-1.3v-7.44ZM16.93,53.31l-.16-8.35-8.91-1.8.43,8.27,8.64,1.88ZM30.35,44.6c-4,.39-8.38.75-12.33,0-.47,2.94-.14,5.77.16,8.73,3.89.95,7.86.69,11.8.32l.38-9.05ZM38.7,58.75c4.72-1.5,6.69-4.87,7.97-9.43l-5.97,3.28-2,6.15ZM7.06,52.31l-4.27-1.36c1.77,3.34,2.64,6.41,6.52,7.8l-2.26-6.44ZM17.27,54.43l-9.04-1.84c.75,1.55,1.63,5.27,2.91,6.33.6.5,7.29,1.87,7.61,1.64l-1.48-6.13ZM39.06,52.95l-7.96,1.47-1.11,6.14c.41.38,6.01-.86,6.72-1.44s2.78-5.69,2.34-6.18ZM29.99,54.76c-3.89.54-7.71.27-11.6,0l1.5,6.12,9,.03,1.1-6.15ZM41.6,58.76c-4.05.35-5.36,3.97-8.34,6.16,3.27-1.14,6.21-3.47,8.34-6.16ZM13.67,63.46c-1.35-1.6-2.89-3.59-5.08-3.98,1.24,1.7,3.08,3.24,5.08,3.98ZM19.03,61.73l-5.72-1.17,1.84,1.96,5.23,3.11c.47-.49-1.18-3.78-1.36-3.9ZM35.07,60.93l-5.72,1.17-1.53,3.54c.82.77,6.72-3.43,7.25-4.71ZM28.18,62.02h-7.98c1.48,5.24,6.75,5.41,7.98,0Z"/>
  </g>
</svg>