<?xml version="1.0" encoding="UTF-8"?>
<svg id="Layer_3" data-name="Layer 3" xmlns="http://www.w3.org/2000/svg" viewBox="0 0 50.5 72.21">
  <g id="Layer_1" data-name="Layer 1">
    <g>
      <path d="M33.3.11c3.84-.34,6.14-.08,7.52,3.88l9.56,55.37c.52,3.94-.52,7.25-4.59,8.37-9.25.84-19.05,3.77-28.23,4.41-4.48.31-7.04-.21-8.44-4.89-1.86-13.51-4.71-26.87-6.82-40.33C1.59,22.48.23,16.02.01,11.78c-.18-3.53,1.52-5.13,4.71-6.16C13.96,4.31,24.11.91,33.3.11ZM33.3,1.92c-8.64.83-18.52,4.37-27.36,5.28-3.68,1.12-4.02,2.27-3.71,5.99,1.43,17.38,6.82,35.79,8.76,53.26.53,1.69,1.25,3.31,3.13,3.76,2.4.57,10.95-.9,13.94-1.34,4.89-.72,12.43-1.68,16.99-2.96,3.68-1.03,3.77-2.71,3.5-6.2-4.18-17.43-4.87-37-9.26-54.21-.98-3.84-2.17-3.95-6-3.58Z"/>
      <path d="M5.92,10.99l26.28-5.46c2.48-.25,3.59-.61,4.35,2,2.02,6.92,1.84,16.07,4.06,23.16.59,4.31-4.09,4.42-7.15,5.1-5.47,1.22-14.53,3.28-19.88,3.7-3.72.29-4.48-1.67-5.12-4.95-.59-3.01-.77-6.5-1.28-9.6-.44-2.7-2.44-10.61-1.98-12.7.09-.39.51-.89.74-1.25ZM34.45,7.26L7.05,12.67c-.44.59,1.7,10.55,1.97,12.23.36,2.2,1,11.51,2.38,12.49.83.59,1.91.36,2.84.24,6.08-.74,14.46-2.69,20.59-4.07.81-.18,3.45-.68,3.81-1.27l-4.19-25.03Z"/>
      <path d="M40.43,52.52c0,6.89-5.59,12.48-12.48,12.48s-12.48-5.59-12.48-12.48,5.59-12.48,12.48-12.48,12.48,5.59,12.48,12.48ZM38.67,52.57c0-5.89-4.78-10.67-10.67-10.67s-10.67,4.78-10.67,10.67,4.78,10.67,10.67,10.67,10.67-4.78,10.67-10.67Z"/>
      <path d="M28.28,23.2l-.71-5.06-7.25,2.54c.54,2.56,2.76,9.25-.99,10.08-4.19.93-3.09-4.77.63-4.28l-1.42-7.83c.07-1.37,4.6-2.32,5.86-2.78s2.45-1.17,3.71-1.72c.42.22.41.57.53.93.33.92,1.5,9.24,1.4,10.06-.34,2.66-4.77,4.2-5.04,1.54-.22-2.13,1.23-3.45,3.28-3.47Z"/>
      <path d="M28.22,46.87c1.3-.13,1.94.07,2.99.81,5.33,3.76,1.39,11.26-4.66,9.74-6.18-1.55-4.55-9.92,1.67-10.55ZM27.48,49.05c-3.05.54-4.23,4.19-1.47,6.02,5.8,3.85,8.46-7.25,1.47-6.02Z"/>
    </g>
  </g>
</svg>