<?xml version="1.0" encoding="UTF-8"?>
<svg id="Layer_2" data-name="Layer 2" xmlns="http://www.w3.org/2000/svg" viewBox="0 0 68.58 157.54">
  <g id="Layer_1" data-name="Layer 1">
    <g>
      <g>
        <path d="M57.27,132.76c4.21-.81,4.01,4.8.98,5.37-4.18.78-4.72-4.65-.98-5.37ZM57.6,134.19c-1.07.28-1.36,2.21-.41,2.48,1.71.5,2.39-3,.41-2.48Z"/>
        <path d="M57.26,121.52c5.1-1.13,4.18,6.8-.65,5.21-2.22-.73-1.95-4.63.65-5.21ZM57.61,123.32c-1.51.43-1.21,2.67.6,2.07,1.1-.36,1.44-2.65-.6-2.07Z"/>
        <path d="M25.44,137.77c.02,1,.05,1.99-.1,2.99-.42,2.66-1.39,1.15-1.38-.63,0-1.13.2-2.84,1.48-2.36Z"/>
        <path d="M21.08,138.86c-1.49-.78-.25-2.75-.72-3.99,1.88.13.99,2.82.72,3.99Z"/>
      </g>
      <g>
        <path d="M18.19,7.55c.62.05.32-.81.7-1.29,3.87-4.8,6.67,5.74.02,3.47l1.09,5.8c1.02-.63.81-2.26,2.34-2.38,3.97-.3,3.42,6.19-.83,4.32-.56-.25-.21-.94-.79-.85.73,3.39,1.34,6.63-.27,9.9,5.71,22.34,11.01,44.8,15.86,67.35,7.57-1.09,6.1-5.78,7.81-10.87,2.36-7.03,8.01-3.22,9.62,1.97,2.37,7.66-3.52,14.68,1.28,21.57,4.26,6.11,9.1,9.46,11.93,17.08,12.65,34-52.93,48.51-57.08,14.64-.97-7.94,2.09-12.84,3.48-20.01,1.7-8.75-1.87-10.11-5.63-16.66-2.72-4.72-7.15-16.28-.57-19.65,5.79-2.96,5.6,6.41,8.65,9.03,2.12,1.81,4.85,1.98,7.44,1.44-3.73-20.76-8.23-41.42-12.48-62.1-.12-.57.12-1.23.04-1.51-.2-.7-1.5-1.17-2.08-1.86-2.69-3.19-2.91-11.03-3.99-15.06-.66.13-.48,1.08-1.09,1.62-.66.59-2.7,1.24-3.29.31-1.17-2.75.43-5.09,3.39-3.73.41.19.06.85.62.71.22-1.89-1.47-5.9-.19-7.27C4.72,2.99,12.12.09,13.01.01c3.82-.32,4.35,4.82,5.18,7.54ZM16.37,24.42c-.15-2.64.11-5.33,0-7.98l.54-.54.54.54v9.25c1.56.08,2.2-1.74,2.19-3.06-.02-2.77-1.63-8.51-2.35-11.46-.35-1.43-1.82-7.93-2.46-8.6-1-1.05-7.77,1.71-8.82,2.8-.37.38-.62.66-.51,1.23,1.32,5.31,1.85,11.43,3.35,16.63.5,1.71,1.42,3.69,3.52,3.37-.74-2.09-3.46-6.82-3.57-8.78-.03-.5.38-.93.84-.83l3.82,9.79.72-.55c-1.77-3.95-3.35-8.17-4.28-12.4-.17-.77-.22-.95.65-.83l3.99,13.18,1.09.24c-1.21-4.61-1.63-9.38-1.45-14.14,1.21.92.6,3.15.72,4.53.28,3.08.73,6.18,1.09,9.25,1.51.21.39-1.19.36-1.63ZM18.91,27.5c-1.12-.26-.75.81-.63,1.54.08.45,1.16,6.41,2.08,5.35l-1.45-6.89ZM17.09,27.87l-1.09.18,1.46,6.71h1.08s-1.46-6.89-1.46-6.89ZM15.28,28.23c-1.31-.13-1.18-.02-.99,1.18.28,1.77.96,3.72,1.33,5.5l1.12.21-1.46-6.89ZM13.47,28.59c-1.12-.04-1.18-.21-1.06.87.16,1.41.83,3.86,1.26,5.29.12.4,0,1.4.7,1.09s.39-.85.32-1.37c-.28-1.91-1.34-3.86-1.22-5.88ZM20.71,35.49l-1.07.17,1.45,6.35h1.08s-1.46-6.53-1.46-6.53ZM19.28,42.74c2.27-.36-.33-4.78-.18-6.53l-1.27-.36,1.45,6.89ZM17.07,36.1l-1.05.23,1.51,6.99,1.05-.23-1.51-6.99ZM15.28,36.93c-1.14-.04-1.17-.21-1.05.87.15,1.4.72,3.66,1.17,5.01.57,1.71,1.28,1.32,1.01-.27-.31-1.87-1.1-3.68-1.13-5.61ZM21.45,43.47c.5.89.77,6.04,1.99,5.8.76-.15.37-.96.31-1.38-.09-.62-1-5.62-2.3-4.42ZM20.72,43.83l-.99.53,1.54,5.63.91-.36-1.46-5.8ZM18.9,44.55c-.58.06-1.15-.37-1.06.52.18,1.72,1.06,3.51,1.07,5.29h1.08s-1.09-5.8-1.09-5.8ZM17.1,44.91c-.62.06-1.14-.37-1.09.54.06,1.17.61,3.32.92,4.53.11.41,0,1.39.71,1.09,1.24-.54-.96-4.97-.54-6.17ZM24.35,50.36c-1.84-1.41-.22,4.84-.05,5.32s.2,1.35.96,1.21.28-.94.24-1.3c-.23-1.76-.84-3.48-1.14-5.22ZM22.53,51.08c-.58.05-1.16-.36-1.06.52s.79,3.97,1.08,4.73c.22.56.31,1.05,1.08.91l-1.1-6.16ZM20.36,51.45l-1.02.83,1.03,5.34h1.08c.11-2.11-.75-4.11-1.09-6.17ZM18.54,52.17c-.61.05-1.14-.36-1.08.54.06,1.07.41,3.37.71,4.38.16.55.05,1.26.93,1.24,1.36-.29-.62-5.15-.55-6.16ZM26.16,57.97c-2.2-.33-.11,5.83.22,5.82l1.24-.38-1.46-5.43ZM25.44,64.14l-1.63-5.79c-1.27,0,.24,4.95.51,5.58l1.12.21ZM22.17,59.06h-1.08s.75,5.42.75,5.42l1.43.02-1.09-5.44ZM19.99,59.79c-.62.05-1.13-.37-1.08.54.03.68.84,4.89,1.27,4.89l.9-.57-1.09-4.86ZM27.94,64.91l-1.41.14,1.29,5.63,1.28-.6-1.16-5.17ZM25.79,65.59c-1.13-.05-1.16-.21-1.04.86.15,1.41.71,2.96,1.02,4.36l1.12.21-1.1-5.44ZM23.62,65.95c-.65.06-1.1-.37-1.1.55,0,.67.91,5.25,1.28,5.25l.9-.57-1.08-5.23ZM21.45,66.31c-.62.06-1.13-.37-1.09.54.06,1.17.61,3.32.92,4.53.11.41,0,1.39.71,1.09,1.2-.52-.76-5.03-.54-6.16ZM29.43,71.75l-1.46.58c.75.97.31,4.17,2,3.77,1.02-.24-.58-3.57-.54-4.35ZM27.24,72.49h-1.07s.73,4.34.73,4.34l1.45-.37-1.11-3.97ZM25.8,77.19l-.9-4.34-.94.61.45,3.5.48.6.9-.36ZM22.89,73.57h-1.08s.73,4.71.73,4.71l1.12-.6-.77-4.11ZM30.88,77.19l-1.1.17-.32.43.7,4.48,1.47-.61-.75-4.47ZM28.7,77.92l-1.37.53.83,3.82,1.27.36-.73-4.71ZM25.81,83.36l1.09-.18c.48-.31-.24-3.74-.56-4.17-.38-.51-.7-.39-1.26-.37l.73,4.71ZM23.99,79.01c-2.16.2-.33,3.16-.37,4.48l1.46.23-1.09-4.71ZM10.15,83.42c-1.74-1.09-4.11,2.49-4.31,4.11-1.53,12.73,11.8,17.44,9.7,30.01-1.59,9.54-6.49,15.28-2.35,25.76,6.36,16.13,28.62,13.95,41.27,7.35,12.95-6.77,15.21-19.65,7.9-31.86-2.69-4.49-9.91-10.84-10.93-15.19-1.51-6.49,3.39-14.84-.82-20.58-4.57-6.24-5.12,4.14-5.86,6.42-1.02,3.18-4.54,6.51-8.08,5.88-.08,1.63,1.47,3.36-.02,4.52-1.61,1.26-2.29.46-1.43,3.46,1.41-.01,3.8-1.71,4.9-.73.77.69,1.7,5.36,1.21,6.12l-4.29,1.32,1.45,5.63,4.35-.56c1.05,1.02,2.58,5.61,1.45,6.55l-4,.9,1.09,5.8c.23.27,3.66-1.58,4.72-.92.85.53,2.34,5.04.45,5.91-3.99,1.83-10.48,2.18-14.78,3.73-1.35-.15-1.85-3.73-1.62-4.89.31-1.6,2.99-1.59,4.32-2.03l-1.23-5.71c-5.06,2.4-4.69-.48-5.49-4.62.23-1.5,3.97-1.9,4.18-2.56l-1.06-5.58-5.1.57c-.35-1.56-1.74-5.23-.23-6.09,1.01-.57,2.73-.79,3.89-1.01l-.37-2.53c-.33-.38-2.13,1.62-3.29.2-.84-1.03-1.45-8.19-1.79-8.55-4.63,1.36-9.47-.46-11.68-4.82-.52-1.03-1.61-5.66-2.16-6ZM32.33,83.36l-1.8.54,1.08,3.81,1.45-.37-.73-3.99ZM29.76,84.11l-1.06-.02.73,4.35,1.12-.6-.79-3.73ZM28.34,88.8l-.73-4.35-1.45.37.91,3.62,1.27.36ZM25.4,85.22l-1.41-.04.73,4.35,1.1-.17.32-.42-.74-3.72ZM33.42,88.44l-1.48.6.76,3.75,1.45-.37-.73-3.98ZM31.97,93.15c-.31-.68-.53-4.19-1.63-3.99-.98.18.4,3.26.2,3.97l1.43.02ZM29.04,89.91l-1.43-.02.73,4.35,1.44-.38-.75-3.95ZM27.25,94.97l-.73-4.72-1.41.39.73,4.28,1.41.04ZM34.51,93.88l-1.45.37,1.09,4.7,1.45-.37-1.09-4.71ZM32.33,94.61l-1.09.9.73,4.17,1.45-.37-1.09-4.7ZM30.15,95.33l-1.45.37,1.09,4.7,1.11-.6-.76-4.47ZM27.26,101.13l1.1-.17c.66-.45-.51-4.76-.9-4.83l-1.29.28,1.09,4.71ZM31.6,101.86l-1.47.61.39,2.3,1.47-.58-.39-2.33ZM39.22,104.4l-3.24.75.35,2.88,3.12-.71-.22-2.92ZM34.88,105.27l-1.5.37.79,3.2,1.5-.37-.79-3.2ZM32.71,105.96l-1.91.26.45,3.25,1.91-.26-.45-3.25ZM29.78,106.95l-3.25.35.73,3.27,2.86-.77-.34-2.85ZM36.32,110.2l-1.81.37c.5,1.89,1.16,3.82,1.09,5.8l1.84-.6-1.12-5.57ZM33.78,110.93l-1.84.6,1.12,5.57,1.81-.37-1.09-5.8ZM42.11,117.05l-3.01.73.75,3.09,3.01-.73-.75-3.09ZM38.11,118.07l-1.79.44.79,3.2,1.79-.44-.79-3.2ZM35.59,118.9l-1.96.29.45,3.05,1.96-.29-.45-3.05ZM32.44,119.61l-3.05.86.83,2.93,3.05-.86-.83-2.93ZM40.68,128.7l-1.26-5.09-1.64-.35,1.09,5.81,1.81-.37ZM36.68,123.62l-2.18.37,1.09,5.8,2.17-.36-1.09-5.8ZM45.34,129.84l-3.22.32c.25,2.6,1.42,2.45,3.48,1.47l-.26-1.79ZM41.39,130.51l-1.76.4c-.38,1.58.36,2.86,1.98,1.79l-.21-2.2ZM39.22,133.41l-.72-2.03-2.18.23.36,2.53,2.54-.73ZM35.23,132.33c-1.61-.02-4.3.41-3.09,2.54.34.6,2.12-.65,2.75-.55l.34-1.99Z"/>
        <path d="M3.21,17.77c2.75-.83,3.97,3.96.62,4.29-2.91.29-2.23-3.81-.62-4.29Z"/>
        <path d="M9.76,9.46l.29.81c-2.13,5.46-5.71-2.3-.29-.81Z"/>
        <path d="M13.51,10.42c-.75-4.19,4.42-2.06,2.51-.14-.7.7-1.68.31-2.51.14Z"/>
      </g>
    </g>
  </g>
</svg>