<?xml version="1.0" encoding="UTF-8"?>
<svg id="Layer_2" data-name="Layer 2" xmlns="http://www.w3.org/2000/svg" viewBox="0 0 121.41 86.76">
  <g id="Layer_1" data-name="Layer 1">
    <g>
      <path d="M21.05.86c.27-.26.89-.67,1.23-.75,1.66-.38,6.25.39,8.21.67,28.33,4.07,56.46,9.92,84.83,13.83,4.95,1.04,6.53,8.78,5.98,13.05-3.64,13.47-6.77,27.13-10.6,40.54-.99,3.45-4,15.09-6.16,17.06-1.81,1.65-5.57,1.62-7.95,1.39-11.56-1.09-26.32-4.98-38.02-7.32-16.29-3.25-33.17-6.44-49.32-10.16-1.84-.42-5.19-.88-6.47-2.24-1.49-1.58-3.04-6.02-2.75-8.17C7.09,41.82,11.7,23.38,18.47,6.44c.52-1.31,1.74-4.78,2.58-5.58ZM116.6,17.14c-27.48-4.92-55.11-9.12-82.68-13.62-2.3-.37-9.83-2.49-11.39-1.37l-7.77,21.79,96.11,17.41c1.38-6.6,3.81-12.96,5.34-19.51.26-1.11,1.16-3.95.38-4.7ZM118.13,33.74c-.08-2.89,1.65-6.2,1.69-8.95.02-1.46-1.09-2.95-.96-4.47-1.82,1.08.07,3.93.01,5.23-.01.24-.74.05-.77.74-.05,1.04.68,2.3.4,3.46-.52.08-.5-.64-.61-1.01-.27-.94-.4-2-.48-2.97-.62.15-.76,1.89-.75,2.36.01,1.22.39,2.84.71,4.03.12.45.19,1.58.77,1.58ZM19.12,26.12l-5.06-.72L2.09,59.28l.42,1.22,5.93,1.04c1.04-1.77,6.16-13.69,5.78-14.73-.15-.4-.73-.76-.86-1.37-.34-1.67,4-12.01,4.76-14.69.19-.67,1.25-4.39.99-4.63ZM23.8,47.93c-.9-.19-1.5-.93-1.27-1.87l5.98-17.55c-.19-.74-3.49-.86-4.31-.93l-5.36,18.04c-.41,1.18-1.62.72-2.59.86l-5.49,15.37,7.58,1.23,5.45-15.15ZM39.06,30.11l-5.44-1.09c.04.6-.08,1.17-.26,1.74-1.52,4.91-3.52,10.9-5.38,15.66-1.08,2.76-2.28,1.4-2.75,2.04l-5.04,15.38,7.59,1.05,11.28-34.78ZM117.04,37.73l.34-2.69-1.42-5.29-.33,3.04,1.41,4.94ZM46.32,31.56l-5.8-1.09-11.25,35.18,7.43,1.11,4.91-14.74c.2-.65-.7-.54-.91-.86-.65-.98.96-5.93,1.37-7.34,1.2-4.19,3.09-8.07,4.25-12.25ZM56.11,33.38l-5.05-.7-5.85,19.19-1.79-.36-4.72,16.32c1.62-.51,6.51,1.86,7.44.73l5.19-15.49-.97-1.46,5.75-18.23ZM115.95,41.35l.34-3.03-1.42-4.58-.3,2.25,1.38,5.36ZM66.27,35.19l-5.8-1.09c.04.62,0,1.22-.17,1.83-1.08,4.13-3.31,12.4-5.01,16.03-.98,2.08-2.28.86-2.44,1l-4.93,15.59.2.93,6.9,1.26,11.25-35.54ZM73.16,36.64l-5.4-.68-11.29,35.14,7.29.87,5.04-15.37c-.73.04-1.24-.13-1.56-.82-.7-1.52,5.52-16.3,5.91-19.13ZM73.49,73.96l4.69-15.12-.67-2.04,5.02-17.9c.06-1.24-3.54-.84-4.49-1.46l-4.97,18.86-.89.96-1.91-.32-4.72,15.96,7.95,1.06ZM115.23,43.53c.04-1.23-.27-2.44-.54-3.63-.15-.67-.3-2.21-.91-2.53l.09,1.9,1.35,4.26ZM92.38,40.27l-4.35-.73-5.33,18.77c-.36,1.25-2.17.18-2.62.48l-5.11,15.93,7.79,1.1,4.76-14.88-.13-3.35,4.99-17.32ZM114.5,47.16l.29-2.27-1.73-4.98c-.3,1.89.16,4.18.71,6,.15.49.03,1.13.74,1.25ZM102.9,41.72l-5.42-.7-5.53,19.31-.53.59-1.73-.28-.66.77-4.63,15.13,7.59,1.06,10.91-35.88ZM110.16,43.17l-5.28-.97-.6.71-10.39,34.62c-.08,1.29,3.54,1.33,4.46,1.17.66-.12,2.18-1.29,2.48-1.89,1.54-3.05,3.18-10.24,4.23-13.89,1.88-6.52,3.55-13.13,5.1-19.74ZM113.78,49.7l-1.26-6.89c-1.15,1.3-.05,4.2.5,5.66.17.46.08,1.11.76,1.23ZM111.97,46.43c-1.2-.3-.62,1.31-.91,2.01l1.64,5.24c.91-2.67-.71-4.64-.72-7.25ZM111.6,57.31l.35-1.94-1.43-5.67-.36,2.68,1.44,4.94ZM110.88,60.58c0-1,.07-2-.08-3-.13-.83-.65-2.99-1.36-3.53-.54,1.76.06,3.62.68,5.3.17.46.08,1.11.76,1.23ZM109.79,64.57c.6-2.16-.05-3.93-.71-6-.15-.48,0-1.13-.73-1.26-.41,2.24.33,4.46.73,6.7.08.45.17,1.23.71.55ZM107.98,68.92c1.75-1.38.56-4.51.01-6.36-.15-.49-.03-1.13-.74-1.25-.54,2.55.65,5.04.73,7.62ZM4.18,62.82l-1.39-.06c-.51.44,2.3,4.41,3.63,3.98l-2.24-3.92ZM9.32,67.47l-2.72-3.98-1.63-.37c1.45,1.81,1.69,4.08,4.35,4.35ZM12.22,67.83c-1.91-1.7-2.11-4.76-5.08-4.71.83.89,3.61,5.78,5.08,4.71ZM12.5,64.29c-.16-.12-2.52-.86-2.08.09.09.19,2.2,3.31,2.35,3.45.48.49,1.04.37,1.64.36-.89-.65-1.39-3.54-1.9-3.9ZM18.75,69.28l-2.71-4c-.77-.71-1.72-.8-2.73-.71,1.36,2.73,1.93,4.61,5.44,4.71ZM18.65,65.76c-.23-.26-1.43-.74-1.71-.29.97.42,2.82,5.08,3.99,4.17-.94-.77-1.71-3.26-2.27-3.88ZM106.89,65.29c-.94-.14-.76.15-.72.9.08,1.7,1.04,3.56,1.27,5.26,1.24-1.69-.95-4.18-.54-6.17ZM21.2,66.1c-.14-.1-1.82-.57-2.09-.27,1.92,1.34,1.96,4.47,4.71,4.53-.57-.56-2.39-4.09-2.63-4.26ZM24.83,66.84c-.24-.26-2.3-.91-2.81-.64,1.66,2.06,2.3,5.15,5.44,4.9-1.29-.76-2.01-3.6-2.63-4.25ZM30.35,71.82c-.94-2.16-1.94-5.08-4.71-5.08l2.52,4.18,2.19.89ZM34.35,72.54c-1.51-2.26-2.23-5.16-5.44-5.07,1.57,2.38,2.02,4.99,5.44,5.07ZM106.89,75.45c.3-2.23-.17-4.46-.83-6.6-.12-.38-.1-1.1-.61-1.01-.68,2.23.15,4.54.71,6.73.16.6-.37,1.06.73.88ZM34.62,68.65c-.33-.32-1.7-.7-2.08-.28,1.76,1.45,2.01,5.13,4.71,4.53-1.16-.77-1.99-3.64-2.63-4.26ZM38.25,69.38c-.41-.38-2.85-.92-2.45.08.66,1.66,2.67,4.36,4.71,4.18l-2.26-4.26ZM43.78,74.36l-2.38-3.96-2.33-1.11,2.64,4.61,2.07.46ZM47.04,75.09l-2.51-4.19-2.19-.88c.84,2.21,2.17,4.73,4.71,5.08ZM49.94,75.45c-1.64-1.82-1.84-4.79-4.71-4.71.39.99,3.45,5.7,4.71,4.71ZM52.85,76.17c-1.26-1.6-1.92-4.81-4.35-4.71-.16.15,1.92,3.55,2.17,3.81.57.61,1.34.97,2.18.89ZM106.16,77.99l-.16-1.83-1.64-4.7c-.35,1.79.39,4.02.99,5.73.21.59-.19.97.82.79ZM53.85,72.64c-.29-.27-2.29-.88-2.81-.63,2.02,1.82,1.93,5.29,5.44,4.89-.92-.79-2-3.69-2.62-4.26ZM60.1,77.62c-1.51-1.69-2.21-5.17-5.08-4.71-.22.19,2.22,3.88,2.56,4.15.74.6,1.6.61,2.52.56ZM63,78.35l-2.52-4.19-2.19-.89,2.73,4.34,1.98.73ZM66.26,79.08l-2.55-4.52c-.71-.6-1.64-.6-2.53-.55,1.55,1.99,2.23,4.72,5.07,5.07ZM67.25,75.19c-.53-.44-2.82-.92-2.43.07.1.25,2.49,3.71,2.69,3.84.35.22,2.61.8,2.74.7-1.19-.88-2.16-3.91-3-4.61ZM105.07,80.89l.21-1.83-1.65-3.97c.04,1.74.33,3.57.73,5.26.13.56-.24.63.72.54ZM73.16,80.16c-.75-.93-3.27-5.78-4.72-4.71,1.35,1.76,1.98,5.07,4.72,4.71ZM78.59,81.62l-3.07-4.75-4.17-1.05,2.92,4.51,4.32,1.29ZM78.88,77.35c-.24-.14-2.03-.43-2.45-.27,1.97,1.65,2.52,4.97,5.44,4.89-.71-.63-2.58-4.39-2.99-4.63ZM85.13,82.7l-3.11-4.33-1.97-.75,3.08,4.36,2,.72ZM103.99,83.43c.17-1.96-1.13-3.62-1.63-5.44-1.6,1.27-.02,3.27.8,4.65.26.44-.21,1,.83.78ZM88.03,83.06c-1.56-1.63-2.38-5.22-5.08-4.71,1.07.77,3.57,5.82,5.08,4.71ZM90.57,83.43c-.97-.8-3.29-5.75-4.72-4.71.75.84,3.44,5.68,4.72,4.71ZM93.47,84.15c-1.68-1.69-2.68-4.43-5.07-5.07l2.98,4.63,2.09.44ZM96.37,84.51c-1.86-1.64-2.62-4.85-5.44-4.71,1.82,1.55,2.67,4.98,5.44,4.71ZM101.08,79.8c-.15-.11-2.04.65-1.8,1.25l2.39,3.48,1.23-.39-1.82-4.35ZM98.55,84.88c-1.37-1.68-2.12-4.54-4.72-4.71.7.72,3.64,5.54,4.72,4.71ZM101.09,84.88c-1.35-1.45-1.99-4.66-4.35-4.35-.27.23,2.95,5.39,4.35,4.35Z"/>
      <path d="M26.63,6.25c5.32-1.21,7.31,7.75,1.01,7.57-4.64-.13-4.9-6.69-1.01-7.57ZM29.77,9.92c0-1.05-.85-1.89-1.89-1.89s-1.89.85-1.89,1.89.85,1.89,1.89,1.89,1.89-.85,1.89-1.89Z"/>
      <path d="M48.03,10.6c7-1.6,5.71,8.51-.34,6.36-3.42-1.22-2.44-5.72.34-6.36ZM49.12,12.39c-2.41.34-1.84,3.78.94,2.8,1.67-.59.62-3.02-.94-2.8Z"/>
      <path d="M36.29,8.84c3.76-3.58,8.94,2.98,4.41,6.04-3.11,2.1-7.89-2.73-4.41-6.04ZM40.74,11.6c0-1.02-.83-1.85-1.85-1.85s-1.85.83-1.85,1.85.83,1.85,1.85,1.85,1.85-.83,1.85-1.85Z"/>
      <path d="M64.71,11.36c3.61,3.36-2.02,8.69-5.17,4.99-3-3.54,2.45-7.51,5.17-4.99ZM62.52,12.39c-1.57.13-2.55,2.95-.37,3.13,2.45.2,2.19-3.28.37-3.13Z"/>
      <path d="M58.18,20.76c7.2-1.67,5.52,9.15-.52,6.16-2.96-1.47-1.86-5.61.52-6.16ZM58.01,23.29c-1.19,2.05,2.52,3.43,3.14,1.13.35-1.3-2.33-2.51-3.14-1.13Z"/>
      <path d="M22.74,17.42l6.74.7c.89,3.57-4.23.82-6.13,1.05l-.56-.52-.04-1.23Z"/>
      <path d="M39.79,19.96l-.6,1.84-6.66-1.12.16-1.47c.66-.97,5.76.83,7.1.75Z"/>
      <polygon points="49.95 21.77 49.78 22.88 49.34 23.16 43.41 22.68 43.05 21.04 49.95 21.77"/>
      <g>
        <path d="M109.37,20.74c.22.55.24,1.11.18,1.69-.14,1.24-2.86,11.1-3.36,11.78-.25.35-.61.45-1.01.54l-35.61-6.68c-.46-1.33,2.14-8.78,2.85-10.48.28-.68,1.07-2.84,1.7-3.04l35.24,6.19ZM105.08,32.65c.23-2.93,2.15-6.58,2.48-9.34.05-.43.13-.73-.29-1.01l-32.11-5.62c-.32.01-.53.13-.73.37-.29.35-2.82,7.94-2.93,8.7-.07.48-.33.92.2,1.3l33.39,5.61Z"/>
        <path d="M75.93,20c1.7.08,7.06-.1,8.31.65,1.59.95.48,5.83-1.42,5.81-.86,0-7.74-1.29-8.22-1.61-.65-.44.69-4.63,1.33-4.85ZM83.31,22.51l-6.52-1.1-.37,2.18c2.46-.28,6.87,3.05,6.89-1.07Z"/>
        <circle cx="93.48" cy="25.22" r="1.78"/>
        <circle cx="100.49" cy="26.26" r="1.47"/>
      </g>
    </g>
  </g>
</svg>