<?xml version="1.0" encoding="UTF-8"?>
<svg id="Layer_3" data-name="Layer 3" xmlns="http://www.w3.org/2000/svg" viewBox="0 0 22.95 29.65">
  <g id="Layer_1" data-name="Layer 1">
    <path d="M20.72,0c.48,1.85.77,3.77,1.05,5.66.45,3.02,1.02,7.12,1.13,10.11.1,2.74.34,4.86-2.28,6.42-6.5,3.86-7.76-3.79-1.97-6.32.79-.35,2.16-.11,2.41-.88l-1.07-8.84-1.09.36.18-.72h-.53c-.14,1.18-1.94,1.55-2.92,1.98-2.89,1.27-6.32,2.53-9.4,3.11-.53.55,2.29,12.4,2,14.51-.41,3.09-6.96,6.04-8.02,2.91-1.16-3.44,2.66-6.88,6.01-6.55L3.85,6.15,20.72,0ZM19.64,3.97l-.18-1.08L5.74,7.97l-.24,1.09,14.14-5.09Z"/>
  </g>
</svg>