<?xml version="1.0" encoding="UTF-8"?>
<svg id="Layer_2" data-name="Layer 2" xmlns="http://www.w3.org/2000/svg" viewBox="0 0 92.01 67.12">
  <g id="Layer_1" data-name="Layer 1">
    <g>
      <g>
        <path d="M49.28,22.42c.96.09.59.02.72-.54,1.04-4.47,1.22-10.83,2.57-14.85.73-2.17,3.91-1,3.97-.03l-4.91,24.15-3.37-.26-.44-.39-3.99-17.87-3.43,17.05c-.65.86-2.86.12-3.77-.05-.12-.74-.08-1.53,0-2.28.64-5.84,2.15-13.66,3.33-19.51.8-3.96,1.41-4.85,5.5-2.47l3.82,17.04Z"/>
        <path d="M2.16,26.37L3.62.35c.59-.97,7.67.34,9.01.86,9.96,3.84,8.05,19.51-.58,23.71-2.8,1.36-6.85,2.38-9.89,1.46ZM6.84,22.06c9.63-.96,12.32-16.73.91-17.41l-.91,17.41Z"/>
        <path d="M34.38,29.29l-3.92-.39-.41-8.29-5.46-.2c-1.84,3.26-1.48,10.03-6.86,6.92L27.03,1.37c1.29.01,5.06-.08,5.49,1.36l1.87,26.56ZM30.05,17.34c-.17-3.59-.59-7.1-.72-10.7-.02-.44.27-1.35-.36-1.26-.61,3.84-2.29,7.47-3.27,11.24l4.35.73Z"/>
        <path d="M81.56,20.24l6.89,1.09c.48,5.84-3.92,3.54-7.62,3.26l-1.11,6.67c.13.93,6.64.7,7.84,1.65.85.67.05,2.98-.46,3.3-1.35.85-9.43-1.2-11.62-.99l-.74-2.36,5.34-23.34c.17-.22.38-.39.65-.46.54-.16,10.4,1.74,10.81,2.11.95.86.34,2.85-.8,3.2-1.54.48-6.54-1.11-7.39-.5l-1.79,6.37Z"/>
        <path d="M73.85,15.08c-.5.5-2.61.67-3.19.28-.71-.47-.59-3.67-2.36-3.83-6.06-.15-8.87,16.05-4.63,17.35,3.92,1.2,4.63-3.16,6.09-3.18,3.16.64,2.46,2.4.91,4.52-2.62,3.59-9.06,4.57-11.67.43-5.55-8.78,3.33-30.1,13.1-21.8,1.34,1.14,3.2,4.79,1.76,6.23Z"/>
      </g>
      <g>
        <path d="M8.21,32.66l4.44,17.33c.72-.15.62-.75.72-1.27.96-4.98,1.09-10.35,2.26-15.33.64-.63,3.78-.6,3.94.16l-3.72,24.54c-1.55,1.71-3.55,1.29-4.6-.7-1.61-3.07-3.36-10.62-4.51-14.35-.18-.57-.28-1.14-.26-1.74-.54-.03-.64,1.29-.68,1.67-.58,5-.81,10.06-1.66,15.03-.31.5-3.9.08-4.13-.61l2.54-25.1c.5-.8,4.68.12,5.67.39Z"/>
        <path d="M55.08,49.98l6.18.57c.74-.57,1.45-9.07,2.36-10.71.77-1.38,2.89-.21,4.1.03l-4.54,25.74c-1.1.44-3.65.79-4.06-.66-.46-1.62,1.67-7.97,1.66-10.09-.16-.91-5.25-.37-6.42-.88-.68.6-1.33,8.64-2.21,9.94-.77,1.13-2.77.33-3.8-.13l4.22-25.93c.57-1.12,3.97-.52,4.28.39l-1.77,11.73Z"/>
        <path d="M35.96,57.86c2.87,2.41,5.85-2.79,6.38-5.2.17-.75-.06-.38-.48-.5-.97-.29-3.7-.24-4.04-.71l.21-3.28c1.34-.07,7.67.21,8.1,1.16,1.08,2.37-1.41,8.62-3.19,10.46-2.5,2.59-6.31,3.02-9.23.86-8.19-6.05-1.3-29.21,9.4-24.63,2.28.97,4.97,5.62,2.17,6.88-2.97,1.34-1.95-3.53-5.21-3.42-5.55.19-7.45,15.57-4.11,18.37Z"/>
        <path d="M79.78,46.04l-4.35,20.79c-1.79.64-3.73.37-3.87-1.79l3.83-19.77c-1.35-.04-5.14.22-5.44-1.26-.66-3.28.69-3.57,3.44-3.44,4.15.18,8.76,1.69,12.89,2.35.45.3.06,2.39-.09,2.81-.75,2.07-4.72-.1-6.4.31Z"/>
        <path d="M24.94,60.1l-3.95.04c.07-1.14-.09-2.32-.01-3.46.33-4.9,1.48-11.58,2.36-16.5.25-1.38.75-4.84,1.27-5.89.36-.74,4.52-.62,4.01.99l-3.68,24.82Z"/>
      </g>
    </g>
  </g>
</svg>