<?xml version="1.0" encoding="UTF-8"?>
<svg id="Layer_2" data-name="Layer 2" xmlns="http://www.w3.org/2000/svg" viewBox="0 0 64.95 129.37">
  <g id="Layer_1" data-name="Layer 1">
    <g>
      <path d="M61.58,8.38c5.74-.94,3.39,6.55-1.45,3.99l-.73,2.54c5.81-1.4,3.78,6.27-1.08,2.9l-1.09,2c3.13.06,4.71,1.61,2.54,4.35-1.02.38-2.43.3-3.26-.39-.28-.24-.39-1.2-.73-.88-.39.37-1.36,2.83-2.26,3.36l-11.17,39.24c8.07,2.46,12.99,8.89,10.64,17.53-1.63,5.98-5.66,7.04-4.79,14.72.82,7.21,3.18,10.09.59,18.08-8.68,26.86-62.4,10.15-45.54-18.7,2.78-4.76,8.97-7.92,9.72-13.49.82-6.09-1.12-11.97,3.11-17.56,3.76-4.98,8.43-5.26,14.26-4.43l12.66-39.04.08-5.53c-.33-.36-1.96,1.86-3.44,0-2.11-2.68,2.03-5.25,4.16-2.53l.73-2.9c-5.65,1.69-4.01-5.7.72-2.18l.37-2.17c-5.66.25-3.18-6.83,1.44-4.72.82-5.1,6.21-1,9.54-1.37,3.87,2.68,7.88.73,4.98,7.17ZM61.21,4.76c-2.13.1-10.68-3.69-11.99-2.75l-4.61,17.53c-.07.75.59,2.69,1.19,2.99.71.34.52-.57.59-.85.71-2.79.44-5.88,1.09-8.35.12-.44.55-.79.86-.24.81,1.45-.72,6.88-1.11,8.69-.08.37-.49,1.18.2,1.1,1.51-4.19,1.69-8.79,3.18-12.98.21-.58-.19-.97.82-.79l-3.26,14.14c.96.2.62-.24.9-.71,1.78-3.03,2.81-6.87,4.47-9.69.29-.5.45-.97,1.16-.83l-5.43,11.06,1.08.54c.35-1.24,3.74-8.26,4.54-8.33.85-.07.21.93.12,1.19-.6,1.72-3.39,5.74-3.51,7.02-.08.83.82,1.03,1.41.67,2.29-1.4,6.47-16.35,8.33-19.41ZM45.98,24.34h-1.64s-1.63,6.16-1.63,6.16l1.12-.21,2.15-5.95ZM47.79,24.71c-.43.03-.78-.19-1.11.22-.94,1.16-1.27,4.52-2.15,5.94h1.27s2-6.16,2-6.16ZM49.97,25.43c-.58-.04-.85-.13-1.26.37-.19.24-2.19,5.54-2.01,5.79l1.45.37,1.81-6.53ZM51.78,25.79c-.8-.16-.82.39-1.1.89-.46.82-1.48,3.63-1.65,4.54-.11.58-.28,1.14.4,1.46s.84-1.44.99-1.9c.21-.63,1.53-4.79,1.36-4.99ZM41.62,37.76c.27-1.66,1.28-3.59,1.55-5.17.06-.36.44-.74-.28-.99-.81-.28-.72-.04-.99.46-.72,1.34-.93,3.39-1.65,4.81l1.37.89ZM43.8,38.12c-.26-1,2.38-5.49.9-5.8-.72-.15-2.36,4.97-2.34,5.26.03.41,1,.67,1.44.54ZM46.4,32.64l-2.03,6.15,1.34.44,2.03-6.15-1.34-.44ZM49.61,33.78l-1.45-.37-1.45,6.16,1.26-.37,1.64-5.43ZM38,44.29l1.64-.35c.15-1.49,1.13-3.08,1.36-4.46.06-.35.44-.73-.28-.99-.81-.28-.72-.04-.99.46-.76,1.42-1.13,3.76-1.73,5.34ZM43.44,39.22l-1.45-.37-1.82,6.17,1.29.28.35-.26,1.63-5.82ZM44.17,45.74c-.49-1.27,2.07-5.44.54-6.17-.69-.33-.58.7-.71,1.08-.51,1.53-.83,3.12-1.63,4.54l1.8.54ZM46.23,40.31l-1.71,5.79,1.38.41,1.71-5.79-1.38-.41ZM39.09,45.74l-1.29-.28-.35.26-1.63,5.09,1.81.37,1.45-5.44ZM39.76,45.98l-1.76,5.56,1.69.54,1.76-5.56-1.69-.54ZM42.07,46.79l-1.59,5.47,1.45.42,1.59-5.47-1.45-.42ZM44.13,47.25l-1.54,5.71,1.35.36,1.54-5.71-1.35-.36ZM34.01,57.35c.9.07.87.7,1.39-.25.18-.33,1.45-4.12,1.46-4.36.05-.79-1.06-1.21-1.4-.6l-1.45,5.21ZM39.05,53.04l-1.41-.4-1.45,5.44h1.8s1.07-5.03,1.07-5.03ZM40.18,58.8c-.37-1.01,2.08-5.11.54-5.44-1.1-.23-1.76,4.06-2.02,4.84l1.47.6ZM42.05,54.05l-1.26,5.09,1.45.36,1.26-5.09-1.45-.36ZM34.74,58.8l-1.49.22c-.07.76-1.53,3.41-.5,3.77.8.28.72.04.99-.46.24-.45,1.2-3.35,1-3.52ZM36.15,63.11c-.17-.78,1.67-3.69.58-3.94-1.36-.32-1.86,2.53-1.98,3.46s.77.49,1.4.48ZM38.26,59.5l-1.36,4.19,1.38.45,1.36-4.19-1.38-.45ZM41.63,60.61c-1.91-1.01-1.81,2.3-2.21,3.75l.94.6,1.27-4.35ZM18.76,105.94l3.63-12.54c-2.14-4.43-2.49-9.27.94-13.18.66-.75,1.95-1.19,2.25-2.1.19-.57.05-1.31.25-1.93,1.14-3.5,3.02-8.08,3.68-11.58.24-1.3-2.87-1.49-4.02-1.49-4.43,0-8.34,3.77-9.63,7.81s-.37,7.94-.69,12c-.61,7.79-8.21,10.53-11.21,17.09-11.15,24.42,29.57,36.25,38.59,19.37,5.75-10.75-.59-16.56.98-25.86.64-3.77,3.83-6.13,5.54-9.33,2.84-5.29,3.2-10.14-1.83-14.14-.75-.59-4.96-3.32-5.65-2.33l-4.25,14.2c.1,1.29.89,2.17,1.03,3.54.4,4.09-2.57,9.09-6.85,9.66-.72,4.63-2.26,9.22-4.03,13.56l4.37,1.88-1.46,4.31-16.65-4.61c-.35-.55.4-4.48,1.03-4.87l3.98.55ZM32.91,64.63l-1.43-.39-3.99,13.42,1.46-.16c.32-1.55,4.36-12.32,3.96-12.87ZM31.43,77.98c.54-3.79,3.36-8.37,3.79-12.01.14-1.22-.85-1.49-1.3-.55-1.72,3.63-2.66,8.75-3.9,12.6l1.41-.04ZM37.62,65.72c-.19-.23-1.37-.51-1.35.23l-3.68,12.41,1.43.39c.32-1.7,4.19-12.31,3.61-13.03ZM39.81,66.05l-1.12.21c-.64,3.87-3.15,8.43-3.81,12.1-.26,1.42,1.35,1.56,1.7.22.18-1.62,3.7-12.09,3.24-12.54ZM30.02,79.84c-.94-.19-.63.21-.91.71-.92,1.68-1.14,3.95-1.63,5.82l1.51-3.02,1.02-3.51ZM32.2,80.2l-1.08.25-1.09,4.46c.68-.41,2.45-4.44,2.17-4.71ZM24.21,88.9l2.54-7.61-2.74,6.51.2,1.1ZM24.94,91.44c.13-3.25,2.5-5.86,2.9-9.07l-3.54,7.88c-.15.76-.38,1.39.64,1.19ZM28.21,92.53l2.34-5.09,1.64-4.7-2.34,4.72-1.64,5.07ZM32.92,92.53c1,1,3.75-5.81,3.62-6.53-1.59,1.83-2.02,4.55-3.62,6.53ZM44.17,120.46c3.36-4.01,4.05-9.54,3.58-14.64-.44-4.78-3.18-9.48-1.05-14.37-.62.1-.65.71-.82,1.17-1.78,4.61.72,9.1,1.15,13.57.52,5.36-.52,9.54-2.85,14.28ZM24.89,94.41l-1.76-.79-3.63,12.68,1.58.35.53-.58,3.27-11.66ZM27.84,95.07l-1.78.04-3.66,12.29,1.6.32c1.91-3.85,2.49-8.49,3.84-12.65ZM30.75,95.43l-1.85.21c-.99,3.83-2.77,8.25-3.44,12.09-.16.89,1.09.82,1.65.74l3.64-13.04ZM20.96,108.86l-2.18-.36.16,1.47,1.61.3.4-1.4ZM21.7,109.11l-.42,1.86,2.52.57.42-1.86-2.52-.57ZM30.02,111.39l-2.73-.67-.52,1.74,2.36.66.89-1.73Z"/>
      <circle cx="50.49" cy="6.97" r="1.54"/>
      <path d="M56.38,8.06c1.81-.59,3.44,2.62,1.03,2.72-1.94.08-2.57-2.21-1.03-2.72Z"/>
    </g>
  </g>
</svg>