<?xml version="1.0" encoding="UTF-8"?>
<svg id="Layer_2" data-name="Layer 2" xmlns="http://www.w3.org/2000/svg" viewBox="0 0 34.41 45.2">
  <g id="Layer_1" data-name="Layer 1">
    <g>
      <path d="M17.24,38.41c-.22.36-1.6.47-2.12.24-1.4-.63-5.53-5.79-7.27-6.89-1.67-.73-7.16,0-7.79-1.27-.4-.82,1.21-11.73,1.72-12.25,1.07-1.09,4.99,0,6.34-.36,2.25-.6,8.44-7.16,10.06-7,.45.04,1.07.44,1.14.91l-2.08,26.62ZM15.48,35.92l1.45-22.12c-3.03,1.63-4.93,4.73-8.28,5.86l-.73,9.58c2.41,1.57,4.29,4.47,6.48,6.15.36.28.46.7,1.09.54ZM6.78,19.6c-.9.13-3.35-.34-3.83.34l-.89,9.46h3.99s.73-9.8.73-9.8Z"/>
      <path d="M22.73,44.98c.28-2.22,2.79-2.95,4.19-4.33,6.89-6.78,6.95-20.66,1.4-28.28-.47-.64-4.32-4.01-1.11-3.57,2.07.29,5.2,6.34,5.84,8.27,2.68,8.09,1.36,16.98-3.71,23.83-1.35,1.83-4.17,5.19-6.61,4.08Z"/>
      <path d="M22.01,36.27c-.44-.61,1.7-3.26,2.09-4.24,1.63-4.12,1.82-9.03.27-13.16-.44-1.17-1.94-2.03.31-2.87,4.95,2.55,2.43,18.98-1.23,20.48-.35.14-1.36-.11-1.43-.21Z"/>
      <path d="M19.83,7.99c.06-1.33,1.77-8.33,3.44-7.98.54.11.47.65.39,1.1-.14.78-1.75,5.56-2.1,6.25-.16.32-.34.61-.63.83l-1.1-.2Z"/>
    </g>
  </g>
</svg>