<?xml version="1.0" encoding="UTF-8"?>
<svg id="Layer_2" data-name="Layer 2" xmlns="http://www.w3.org/2000/svg" viewBox="0 0 50.29 21.97">
  <g id="Layer_1" data-name="Layer 1">
    <g>
      <path d="M40.15,11.57c-.57.05-.55.55-.7.93-.66,1.66-1.42,6.76-2.18,7.62-.66.74-2.32.81-2.96.01-.51-.64-2.25-11.46-2.45-13.14-.35-2.88-1.33-7.58,3.15-4.6l1.15,9.55,1.98-6.17c4.23-2.13,4.24,3.46,5.23,6.41.19.56-.32,1.04.76.85.08-4.05,2.04-7.82,2.45-11.87l.61-.85c1.43-.66,3.22-.24,3.09,1.61-.21,3-2.83,11.4-3.87,14.66-2.99,9.41-6.13-.68-6.27-5Z"/>
      <path d="M16.12,1.86c.37.38.48,1.35.46,1.89-.15,4.2-1.01,11.8-1.87,15.93-.38,1.81-1.74,3.22-3.24,1.52-.87-.99-2.01-6.36-2.55-7.97-.13-.4-.11-.88-.69-.94-.42,2.05-.92,6.78-1.89,8.45-.56.97-2.11,1.28-2.96.64-.61-.45-2.82-12.06-3.03-13.73C0,5.04-.95.11,3.1,2.74l1.86,11.37c.8-2.77.96-8.29,5.11-5.91l1.79,5.19c.58-2.11.26-11.32,2.44-11.92.5-.14,1.48.04,1.83.4Z"/>
      <path d="M24.43,1.53c4.06-.08,5.81,6.27,5.78,9.44-.04,3.76-2.46,9.48-6.91,9.29-7.54-.33-7.16-18.55,1.12-18.72ZM23.36,5.1c-2.34.71-3.69,11.22.29,11.22,4.12,0,4.22-12.59-.29-11.22Z"/>
    </g>
  </g>
</svg>