<?xml version="1.0" encoding="UTF-8"?>
<svg id="Layer_2" data-name="Layer 2" xmlns="http://www.w3.org/2000/svg" viewBox="0 0 87 46.12">
  <g id="Layer_1" data-name="Layer 1">
    <g>
      <g>
        <path d="M16.51,14.7c3.01,2.63,3.44,8.01,1.77,11.49-.56,1.17-2.87,3.32-2.68,4.07.27,1.07,3.42,5.12,4.31,6.25.69.87,4.22,4.23,3.97,5.06-.35,1.14-4.35,1.22-5.42.74-2.04-.92-5.32-7.85-6.89-9.79l-3.28.56c.66,1.46,2.38,11.42,1.82,11.97-1.73-.26-2.76.2-4.15,1.08-.45-.31-.73-.82-.85-1.35-1.07-4.51-1.16-10.02-1.98-14.7-.87-4.97-2.24-9.91-3.12-14.89.2-.64.68-.77,1.23-.97,4.02-1.52,11.83-2.54,15.28.48ZM13.24,24.96c2.79-3.25.64-7.96-3.7-8.22-.73-.04-3.03.24-3.37.79-.71,1.16,1.64,8.9,1.39,10.82.29.34,5.2-2.83,5.68-3.39Z"/>
        <path d="M30.58,11.87c11.68-1.41,14.59,20.8,6.62,25.62-12.06,7.29-16.72-13.39-12.74-21.44,1.43-2.88,2.99-3.8,6.12-4.18ZM33.92,17.23c-.46-.46-1.92-1.29-2.58-1.22-5.34,2.53-3.46,15.39.55,17.95,3.26,2.08,4.85-2.42,5.07-5.04.3-3.5-.47-9.08-3.04-11.68Z"/>
      </g>
      <g>
        <path d="M81.16.1l.14,1.31c-1.48,3.55-4.98,7.28-6.46,10.61-.3.67-.66,1.18-.54,1.99l12.71,15.79c-1.82.77-2.74,1.42-4.88,1.07-2.96-.49-9.1-9.74-11.23-12.35-.31-.38,0-.91-.94-.68l2.54,13.58c-.27,1.75-3.58,2.31-5.06,1.99l-5.05-30.04c1.16-.21,4.78-1.99,5.6-.79l1.61,10.54c1.51-2.36,4.89-11.42,6.69-12.72,1.03-.74,3.56-.2,4.88-.3Z"/>
        <path d="M55.69,30.78c.78-.86,1.07-3.15,2-4.17l4.28-.07c.23,10.51-11.17,13.9-16.02,3.87-2.42-5-3.34-18.08-.09-22.71,3.7-5.27,10.6-4.65,12.31,1.79.72,2.69.88,3.81-2.46,3.94-2.06-1.1-1.79-4.81-4.78-4.3-2.18.37-2.65,4.94-2.73,6.72-.16,3.41.98,14,4.44,15.5,1.06.46,2.26.32,3.06-.56Z"/>
      </g>
    </g>
  </g>
</svg>