<?xml version="1.0" encoding="UTF-8"?>
<svg id="Layer_3" data-name="Layer 3" xmlns="http://www.w3.org/2000/svg" viewBox="0 0 65.43 59.81">
  <g id="Layer_1" data-name="Layer 1">
    <g>
      <path d="M24.09,51.51c-1.49,2.81-10.32,9.04-13.22,8.23-.34-.09-.6-.4-.83-.66l3.46-10.14C-3.51,41.62-4,17.74,9.52,6.66c20.17-16.53,62.81-.57,54.96,28.84-4.57,17.11-25.76,19.26-40.38,16.01ZM12.78,57.62c3.94-.09,8.89-7.39,11.51-7.92,1.46-.29,5.62.92,7.51,1.04,16.16,1.07,32.93-4.5,31.38-23.77C61.31,3.46,26.89-4.92,10.28,8.51.13,16.72-1.57,35.94,9.19,44.36c1.37,1.07,5.63,2.76,5.98,3.82.65,1.99-1.38,7.48-2.38,9.45Z"/>
      <path d="M14.24,39.86h-3.63c.08-8.04,1.14-16.05,1.89-24.05.54-1.8,5.65-1.1,7.1-.71,7.32,1.98,5.65,11.7-.25,14.46-.15.64,3.84,7.47,4.17,8.85.52,2.16-2.76,1.89-3.66,1.1-.97-.84-2.79-6.4-3.72-7.88-1.44-2.29-1.42.88-1.52,1.89-.2,2.07-.22,4.27-.37,6.35ZM15.33,26.43c6.81.03,8.66-9.32.52-7.64l-.52,7.64Z"/>
      <path d="M34.55,33.69l-4.7-.35c-1.12,2.73-.58,9.39-5.11,6.64.4-3.64,1.4-7.19,2.3-10.72.74-2.91,2.33-10.19,3.5-12.46.16-.32.16-.72.62-.83,1.1.1,5.17-.57,5.52.54l2.22,23.89-.34.75-3.49-.55-.52-6.91ZM34.55,30.06l-1.27-9.79-2.36,9.43,3.63.36Z"/>
      <path d="M45.43,32.6c-.1,1.68.17,7.25-.7,8.47s-2.59-.47-3.66.23l1.87-24.42c.16-.49.72-.76,1.2-.8.55-.04,5.79.56,6.37.72,2.51.69,5.07,3.64,5.22,6.31.32,5.85-4.83,9.58-10.3,9.49ZM45.79,28.61c6.99-.18,8.57-8.04.73-8.7l-.73,8.7Z"/>
    </g>
  </g>
</svg>