<?xml version="1.0" encoding="UTF-8"?>
<svg id="Layer_2" data-name="Layer 2" xmlns="http://www.w3.org/2000/svg" viewBox="0 0 54.24 71.34">
  <g id="Layer_1" data-name="Layer 1">
    <g>
      <path d="M54.24,69.25l-13.22,1.11-31.12.98c-3.61-1.12-6.69-3.4-9.88-5.35l-.02-60.23C3.12,4.83,6.44,1.88,9.39.97,14.88-.74,25.86.33,31.92.35c6.04.03,14.68-.75,20.35-.03.51.06.94.09,1.29.53l.69,68.4ZM52.07,2.51c-9.22-.34-18.5-.93-27.74-.75-3.55.07-8.14.1-11.61.39-.66.06-1.31.29-1.96.4l.31,66.89,41.73-1.64-.72-65.29ZM8.9,3.24c-3.68,1.21-4.59,6.38-6.1,9.67-.3.65-1.16,1.45-1.3,1.92-.43,1.44.16,7.95.18,10,0,.61-.16,1.08-.4,1.62,1.08.19.57-.29.76-.85,1.63-4.82,5.22-11.16,6.32-15.46.49-1.89.19-4.85.53-6.9ZM4.91,5.78c-3.21.82-3.15,4.93-3.62,7.61,1.7-2.16,2.41-5.12,3.62-7.61ZM2.01,34.07c-.03-1.19.43-2.27.82-3.35,1.43-3.93,4.94-10.29,5.63-13.96.29-1.52-.02-3.26.08-4.81l-6.06,15.51c-.16.44-.73.39-.81.69-.17.68-.06,3.75-.03,4.67.02.44-.28,1.35.36,1.26ZM8.54,25.18c.34-1.64-.24-4.22,0-5.98L1.75,36.52l-.46,4.98c.35.51.66-.51.74-.71,1.33-3.19,2.48-6.71,3.81-9.97.52-1.27,2.55-4.83,2.71-5.63ZM8.54,32.8c.34-1.64-.25-4.22,0-5.98l-5.62,14.87c-2,2.1-.78,4.44-1.63,6.89,1.03.19.6-.24.82-.79.59-1.49,1.02-3.04,1.66-4.53,1.05-2.44,4.35-8.35,4.78-10.46ZM8.54,46.58c.67-3.26-.49-8.64,0-12.15L1.68,52.05l.33,2.32,5.45-13.78c.63-.09.37.84.32,1.23-.49,3.93-3.62,10.49-5.3,14.28-.21.47-.77.28-.86.98-.3,2.46.23,5.37.57,7.81l6.34,3.63v-5.26c0-.32,1.05-1.08-.36-.91.03,1.46-.58,3.13-1.81,3.99.22-3.64,2.32-5.82,2.17-9.62-.02-.44.28-1.35-.36-1.26l-3.64,9.79c-1.2.29-.73-1.13-.54-1.82,1.34-4.97,5.24-9.49,4.53-14.87l-5.46,12.49-1.06.39c1.05-2.98,2.35-5.86,3.57-8.77.56-1.35,2.78-5.18,2.97-6.1Z"/>
      <path d="M48.35,47.64c0,8.99-7.29,16.28-16.28,16.28s-16.28-7.29-16.28-16.28,7.29-16.28,16.28-16.28,16.28,7.29,16.28,16.28ZM46.3,47.69c0-7.91-6.41-14.32-14.32-14.32s-14.32,6.41-14.32,14.32,6.41,14.32,14.32,14.32,14.32-6.41,14.32-14.32Z"/>
      <path d="M41.84,16.79c0,5.72-4.63,10.35-10.35,10.35s-10.35-4.63-10.35-10.35,4.63-10.35,10.35-10.35,10.35,4.63,10.35,10.35ZM39.82,16.85c0-4.61-3.74-8.35-8.35-8.35s-8.35,3.74-8.35,8.35,3.74,8.35,8.35,8.35,8.35-3.74,8.35-8.35Z"/>
      <path d="M48.44,59.1c.73.57-.82,4.02-1.45,3.26-.4-.68.5-4.01,1.45-3.26Z"/>
      <path d="M2.02,18.83c.68-2.3,1.88-4.83,2.95-7.02.91-1.87,1.84-4.16,3.21-5.67-1.06,3.14-2.54,6.58-4.04,9.56-.55,1.09-1.01,2.54-2.12,3.13Z"/>
      <path d="M43.83,47.65c0,6.51-5.27,11.78-11.78,11.78s-11.78-5.27-11.78-11.78,5.27-11.78,11.78-11.78,11.78,5.27,11.78,11.78ZM30.2,43.94c-2.35.55-3.68,3.51-2.08,5.55.09.11,1.87,1.89,1.99,2,1.47,1.19,3.98,0,4.63-1.55.26-.61.35-3.35.21-3.98-.44-1.97-3.04-2.41-4.76-2.01Z"/>
      <circle cx="31.58" cy="16.85" r="5.22"/>
    </g>
  </g>
</svg>