<?xml version="1.0" encoding="UTF-8"?>
<svg id="Layer_3" data-name="Layer 3" xmlns="http://www.w3.org/2000/svg" viewBox="0 0 69.52 72.93">
  <g id="Layer_1" data-name="Layer 1">
    <g>
      <path d="M69.25,33.68l-1.03.27c-.03,3.14-1.8,6.75-1.69,9.83.04,1.1,1.51,3.49,1.7,5.37,1.31,13.11-6.86,23.27-20.11,23.77-5.03.19-12.28-2.22-13.17-7.9-1.44-9.21,9.55-29.68,20.37-28.36,1.05.13,4.63,1.12,3.84,2.5l1.4-.05,1.16-5.88-1.49-.84c.53-12.67-3.57-23.04-17.58-24.06-8.7-.63-18.68,4.27-22.57,12.24-.46.95-1.17,3.91-1.72,4.45-.64.63-1.72.08-2.05.56-.18.26-.93,4.08-1.01,4.73-.03.29-.06.58-.03.86,4.06-1.3,7.83.97,9.85,4.47,3.48,6.04,3.8,15.48,1.56,21.99-1.02,2.97-2.79,6.6-6.24,7.18-2.81.48-7.38.66-9.86-.85-2.28-1.39-1.94-.91-3.98-1.81-8.14-3.57-8.17-18.67-3.3-24.99.95-1.23,4.72-3.81,4.9-4.17.44-.9.42-3.28.64-4.43.57-2.93.47-3.44.65-6.21.2-3.12,3.42-8.5,5.43-10.92,19.39-23.41,58.22-8.34,54.32,22.24ZM67.51,32.28v-5.62c0-7.62-6.8-16.11-12.95-20.06C38.93-3.45,16.66,4.42,11.65,22.3l2.98-5.37C21.01,7.12,31.86,1.69,43.63,3.74c13.5,2.36,19.06,14.36,18.6,27.1l5.27,1.44ZM13.82,25.39l-2.17-.37-1.45,6.53c1.22-.19,1.99-.95,3.26-.36l.36-5.8ZM18.9,32.65c-2.88-.8-6.26,3.9-7.09,6.15-.12.34-.47,1.18.19,1.1.71-1.86,2.31-4.11,3.64-5.61.34-.38,1.22-1.65,1.8-1.1-2.26,3.43-5.61,6.61-6.52,10.7l7.97-11.24ZM20.35,33.01c-.43-.38-.87.08-1.2.44-1.48,1.63-7.34,10.07-8.03,11.91-.18.48-.27.92-.2,1.43l4.35-6.53c-.65,2.84-3.58,5.88-4.32,8.56-.19.68.17.54.69.51l2.12-4.6,1.88-2.84c-.71,2.77-2.23,5.5-3.53,8.07-.32.63-1.34.62-.83,2.27.74.16.84-.37,1.16-.83,2.55-3.78,2.7-6,3.39-10.1.37-2.2,4.87-7.97,4.52-8.29ZM11.65,33.37c-.67-.52-2.33,1.34-2.72,1.81-4.5,5.25-3.5,20.94,1.33,25.88,1.31,1.33,3.1,2.33,5.02,2.05-7.87-7.08-7.45-20.66-3.63-29.73ZM64.97,42.8l1.41-8.5-2.49-.93-1.82,9.07,2.9.36ZM21.8,34.1c-.71-.16-.86.37-1.23.76s-3.03,4.07-2.75,4.32c1.22.63,4.22-4.83,3.99-5.07ZM21.08,40.26l2.03-3.97-.76-1.1c-.3,1.58-2.71,3.17-2.09,4.61.22.52.09.56.82.46ZM21.81,42.44l2.17-5.44-2.75,3.98c-.2.73.46,1.55.7,2.27.1.28-.23,2.2.64.48.57-1.12,1.67-3.09,2.05-4.11.08-.21.36-1.53-.27-1l-2.53,3.81ZM6.93,59.85c-1.7-4.52-3.1-9.81-2.89-14.69.09-2.18,1.03-4.54.9-6.71-4.43,5.79-4.43,17.08,1.99,21.4ZM57.71,39.53c-.37-1-1.75-.58-2.54-1.08l.72,1.08c-3.24.25-4.81,2.61-7.29,4.14-1.34.83-3.4,1.52-4.87,2.39-.49.29-1.06.29-.89,1.1.22.2,2.05-.8,2.43-1.02.57-.33,2.63-2.45,2.65-.98l-.72.91c1.44.24,1.7-1.16,2.53-2,2.27-2.31,4.67-4.17,7.99-4.53ZM53.72,38.81c-2.13-.06-4.63,1.05-6.16,2.53l6.16-2.53ZM22.9,48.24c-.17-2.84,2.44-5.19,2.53-7.98l-3.22,5.24.69,6.73c1.01-1.29,2.74-3.77,3.18-5.34.1-.34.35-1.28-.28-1.19l-2.18,3.62c.36-1.08.73-2.32,1.18-3.35.32-.73,2.59-3.17.63-3.18l-2.54,5.44ZM60.98,42.43c-1.28-3.4-5.96-.09-7.81,1.45-4.07,3.38-7.65,7.99-9.52,12.97-2,5.31-4.6,14.96,4.27,14.24-2.22-2.01-2.06-5.65-1.77-8.48.71-7.08,7.59-18.26,14.83-20.18ZM49.73,41.35c-.82-.11-6.74,3.02-5.8,3.99l5.8-3.99ZM65.69,47.15c-2.29-4.96-7.12-2.09-9.98.72-4.38,4.29-8.74,13.52-7.7,19.69.44,2.62,1.55,3.66,4.27,3.17-4.32-4.11.73-14.03,3.69-17.89,1.96-2.56,6.32-6.82,9.73-5.69ZM39.22,53.68c1.56-1.18,2.97-2.99,5.09-3.1l2.52-4.16c-1.35.79-1.94,2.25-3.09,3.26-.73.64-5.34,2.97-4.52,4ZM12.02,55.13l3.53-6.44.08-1.9-3.27,6.26c-1.25.45-.35.99-.35,2.08ZM65.62,48.32c-2.36-1.37-7.26,3.47-8.62,5.19-1.7,2.14-4.7,7.89-5.06,10.54-.98,7.31,3.14,6.94,7.71,3.35,3.09-2.43,5.32-5.89,6.23-9.73.46-1.95,1.67-8.23-.26-9.36ZM19.56,62.31l6.4-11.18.2-2.16-7.61,12.88c-.25.71.63.71,1.01.46ZM16,50.06c-1.05-.2-.58.3-.82.8-.7,1.45-1.39,2.92-2.11,4.36-.15.29-.68.29-.71.52-.12.9.87,2.81,1.65,3.38.36,0,3.49-5.57,2.18-6.52-.76,1.33-1.34,2.71-2.19,3.99-.28.42.09.94-.9.72.54-2.68,3.24-4.52,2.9-7.25ZM43.57,52.23l-2.54,1.27,1.08.36-2.9,2.55c1.09.33.55.39.36,1.27l1.08-1.66,1.09.21,1.82-3.99ZM22.06,61.91c1.44-1.17,3.37-5.91,3.37-7.87-2.16,2.11-2.39,6.45-5.07,7.98,0,.81,1.41.12,1.7-.12ZM17.63,56.59l-2.69,3.13.88,1.21c.2,0,1.88-2.96,2.06-3.38.2-.47.19-.98-.24-.96ZM20.36,56.95l-1.4.06-2.23,5.01c.94.22.63-.28.93-.68.32-.44,2.9-4.24,2.69-4.39ZM38.49,63.11c.75.75,2.05-2.66,1.81-3.26l-3.58,2.77.31.86c-.13-.72,1.88-2.11,2.18-1.81l-.72,1.45Z"/>
      <path d="M42.41,22.24c.62-.05,4.8-.23,2.75.94-1.47.85-7.69,1.65-9.58,1.7-1.38.04-1.54-1.08-.46-1.58.83-.38,5.99-.95,7.28-1.06Z"/>
      <path d="M36.04,33.45c.5-.43,7.55-2.87,7.52-1.35l-7.43,2.71-.37-.73c.11-.19.13-.5.28-.63Z"/>
    </g>
  </g>
</svg>