<?xml version="1.0" encoding="UTF-8"?>
<svg id="Layer_3" data-name="Layer 3" xmlns="http://www.w3.org/2000/svg" viewBox="0 0 84.54 73.03">
  <g id="Layer_1" data-name="Layer 1">
    <g>
      <path d="M80.79,11.73c1.48,1.6,3.97,7.66,3.73,9.81-3.61,13.65-5.67,28.1-9.51,41.65-2.09,7.38-3.31,10.66-12.01,9.68-16.3-3.94-32.91-6.55-49.25-10.23-2.91-.65-8.72-1.45-10.64-3.51-5.1-5.47-2.75-12.26-1.16-18.58,2.94-11.7,6.84-23.17,10.25-34.73,1.08-2.58,3.19-5.5,6.15-5.81,15.19,1.86,30.51,3.93,45.59,6.64,4.44.8,13.89,1.89,16.86,5.09ZM32.31,3.27c-2.57-.37-5.17-.5-7.75-.77-4.77-.51-7.05-2.18-10.17,2.97-3.39,10.91-7.02,21.84-9.9,32.9-.64,2.47-3.51,12.5-2.47,14.23,1.6,1.09,3.74,1.24,5.62,1.63,16.77,3.48,35.99,7.77,52.83,9.92,5.27.67,6.26,1.26,7.93-3.95,4.58-14.28,6.46-30.14,10.98-44.52.41-1.5-.38-2.86-1.55-3.72-2.3-1.69-10.71-2.95-13.89-3.52-7.26-1.31-17.4-3.34-24.57-3.72-7.64-.41-9.3,1.15-17.3-1.57-.38-.13-1.1-.08-1.01-.61,3.34.12,6.66.82,9.98,1.08.4.03,1.35.27,1.26-.36ZM81.64,27.2c.43-2.95,1.48-5.36.57-8.36l-1.28-3.61-.76,4.89,1.48,7.07ZM80.55,32.28c.41-2.99.11-6.15-.47-9.14-.08-.4-.07-1.44-.61-1.37l.36,3.63-.71-.36c-.79.55.33,5.06.67,6.03.16.47.1,1.11.77,1.22ZM78.74,27.93c-1.31-.3-.56,1.6-.72,2.35l1.44,5.26c.94-2.52-1.17-4.96-.72-7.61ZM78.37,39.89l.36-3.43-1.45-5.27-.34,2.66,1.42,6.04ZM77.28,44.61c.87-2.37.22-5.97-.47-8.41-.11-.37-.08-1.1-.61-1.01l-.33,4.86,1.41,4.57ZM75.83,51.14l.38-3.06-1.46-6.73-.36,3.8,1.45,5.99ZM75.11,55.49c.41-2.2,0-4.37-.53-6.54-.12-.51-.41-1.99-.91-2.16-.81,1.61.11,2.43.27,3.53.2,1.34.23,2.85.55,4.16.09.36.1,1.09.62,1.01ZM73.66,60.93c1.1-2.75-1.35-5.01-.06-7.68l-1.02-3.19c-.49,2.77-.02,5.68.42,8.46.09.59.13,2.18.66,2.41ZM72.93,63.83c.4-1.25.18-1.96-.33-3.12l-1.12-6.31-.66,3.72,2.1,5.7ZM8.01,59.48l-1.79-3.1-1.47-.52c-.22.17,2.88,4.03,3.26,3.62ZM8.63,56.69c-.38-.33-2.12-.91-1.71.07.07.16,2.01,2.73,2.14,2.85.51.42.9.24,1.48.24.15-.11-1.78-3.03-1.92-3.15ZM13.09,60.57c-.84-.52-3-4.76-3.99-3.98.81.58,2.89,4.84,3.99,3.98ZM15.42,60.05c-1.29-1.61-2.06-3.38-4.51-3.1.57.9,4.54,5.09,5.44,4.35-.05-.64-.66-.9-.93-1.24ZM19.98,62.02c-1.76-1.76-2.85-4.17-5.44-4.71l3.37,4.24,2.07.47ZM19.88,58.86c-.1-.08-2.39-1.32-2.07-.29,1.89,1.35,2.88,4.29,5.44,4.17-1.03-.86-2.5-3.19-3.37-3.88ZM25.78,63.11c-1.61-1.33-2.9-4.5-5.08-4.35,1.44,1.43,3,4.03,5.08,4.35ZM25.31,59.59c-.31-.22-1.71-.68-2.06-.3,2,1.36,3.21,4.76,5.8,4.53-1.07-.87-2.85-3.59-3.74-4.24ZM32.31,64.56c-1.79-1.61-3.19-4.74-5.8-4.71,1.78,1.65,3.15,4.63,5.8,4.71ZM71.13,67.82c.89-.36,1.13-1.48,1.1-2.34l-1.82-5.64c-1.52,2.8.94,5.05.72,7.98ZM32.58,61.03l-2.8-.28c2.25,1.75,3.3,4.91,6.53,4.53l-3.73-4.25ZM40.29,66.37c.16-.68-.38-.86-.72-1.27-1.46-1.75-3.35-3.84-5.8-3.8,1.87,2.04,3.61,4.59,6.53,5.07ZM43.92,67.1c-2-1.7-3.6-5.46-6.53-5.07l3.09,2.89c.78,1.48,1.76,2.05,3.44,2.18ZM47.91,67.82c-2.19-2.46-3.11-5.34-6.89-5.44-.16.62.25.73.54,1.09,1.47,1.86,3.89,4.33,6.35,4.35ZM51.9,68.55c-1.72-2.37-3.61-5.48-6.89-5.43l4.45,4.97,2.44.46ZM70.76,69.27c-.34-1.58-.71-3.25-1.19-4.79-.12-.38-.09-1.1-.61-1.01l-.3,1.9,2.11,3.9ZM54.8,69.27c-1.78-1.87-2.68-5.02-5.44-5.44l3.61,4.55,1.83.89ZM60.24,70.36c-2.31-2.89-3.69-6-7.98-5.8,1.41,1.55,2.69,5.19,5.08,4.89-.89-.96-2.54-2.38-2.36-3.81,1.9,1.4,2.66,4.54,5.26,4.71ZM59.78,66.12c-.53-.43-1.84-.71-2.43-.29,2.35,1.85,3.21,5.01,6.52,5.26.16-.68-.38-.86-.72-1.27-.57-.68-2.87-3.3-3.37-3.7ZM62.68,66.48l-2.07-.29c1.55,1.19,2.57,3.06,4.06,4.28.3.25.83,1.11,1.38.62.41-.37-3.23-3.89-3.37-4.6ZM70.03,70c-.84-.83-2.12-4.27-3.44-3.98-.58.13-.5.44-.19.91.69,1.03,2.21,2.03,2.59,3.41l1.04-.33ZM65.24,66.45c-.34-.2-1.72-.21-2.1.1,1.06.39,3.9,4.64,4.53,4.53.78-.14.33-.82.12-1.2s-2.36-3.33-2.54-3.44Z"/>
      <path d="M55.4,16.08c1.92,2.08,4.09,5.5,4.85,8.21.55.15.6-.14.91-.36s2.99-2.53,3.1-2.7c.64-.97.21-2.15.42-3.21,1.55-7.61,11.71-5.69,11.53,1.35-.07,2.84-2.56,5.53-5.36,5.93-.97.14-2.14-.32-2.62-.12-.39.16-5.52,4.95-5.82,5.44-.82,1.37-.86,4.2-1.34,5.92-6.52,23.66-44.04,25.85-49.33.88C6.65,13.39,39.25-1.41,55.4,16.08ZM34.85,11.97l-2.56.16-3.24,1.65,5.8-1.81ZM35.21,14.15c-2.88-.51-6.26,1.33-8.34,3.26l4.98-2.45,3.36-.8ZM49.24,17.52c-.28-.22-.84-.2-1.15-.47-.5-.44-2.79-3.09-3.45-2.54.23,1.05,4.46,4.54,5.08,3.98-.12-.27-.31-.83-.48-.97ZM48.63,19.58c-2.23-2.19-5.1-4.56-8.34-4.71-.18.96.2.63.73.89,2.21,1.08,4.32,2.64,6.09,3.42.48.21.98.45,1.52.41ZM73.29,22.12c4.68-7.36-7.89-10.2-6.5-1.65.3,1.83,2.18,3.04,3.97,2.74-.07-1.15-2.83-4.47-1.35-5.17,2.15-1.02,1.67,4.1,3.89,4.08ZM17.45,44.98c-.99-2.25-2.15-4-2.8-6.46-1.53-5.74-.76-11.63,2.28-16.73l3.41-4.74c-8.2,6.85-9.69,19.73-3.05,28.26,3.49,4.49,9.25,6.76,14.66,8.01-.09-.52-.65-.73-1.09-.9-2.1-.82-4.28-1.11-6.48-2.23-2.47-1.25-4.72-2.96-5.88-5.55l-1.05.34ZM31.59,17.05c-1.69.19-3.6,1.28-4.71,2.53l2.14-.58,2.57-1.95ZM39.56,18.86c-2.23-.73-4.04-.16-6.15.55-.7.23-2.16.66-2.55,1.25l4.99-1.35,3.71-.45ZM46.09,26.11c-.76-3.22-4.4-5.76-7.61-5.8l4.68,2.39,2.93,3.41ZM18.16,30.1c.62-3.19,1.89-6.16,3.26-9.07-1.96,1.85-2.98,5.31-3.54,7.88-.08.37-.37,1.27.28,1.18ZM37.39,21.4l-3.28.16-3.24,1.65,6.52-1.81ZM66.77,24.29c.27-.37-.99-2.07-1.81-1.65-.45.23-2.89,2.85-3.45,3.46-4.17,4.55-7.5,10.9-13.57,13.09.12,1.56.11,2.18,1.69,1.5,5.39-2.31,6.61-5.91,10.07-9.88,1.96-2.24,4.69-4.88,7.08-6.53ZM21.43,29.37l2.18-6.16c-1.08.73-1.99,3.08-2.36,4.35-.11.39-.58,1.81.18,1.82ZM51.9,30.1c.62-1.15-3.6-6.95-3.98-6.53l3.98,6.53ZM43.55,31.47c0-4.02-3.26-7.27-7.27-7.27s-7.27,3.26-7.27,7.27,3.26,7.27,7.27,7.27,7.27-3.26,7.27-7.27ZM25.42,35.91c-1.68-3.87.33-6.71,1.81-10.16-2.29,2.2-4.37,7.66-1.81,10.16ZM16.35,32.64c-.2-2.31.14-4.32.73-6.52l-1.44,3.49.71,3.04ZM29.41,39.17l-1.77-2.39-1.12-3.77c-.28,2.18.56,5.46,2.9,6.16ZM42.11,52.59c8.2-2.2,15.67-8.86,17.4-17.4l-5.5,9.19c-1.91,2.37-4.29,4.27-6.95,5.75l-4.96,2.47ZM46.09,38.81l-2.17.91c.76,1.13,1.35,2.44,1.45,3.81l1.81-.37-1.09-4.35ZM23.6,46.06c.2-.8-.46-.81-.83-1.16-1.18-1.13-2.62-1.92-3.71-3.18-.56-.65-.64-1.52-1.26-1.82-.72,1.63,5.49,6.48,5.8,6.16ZM42.81,40.27l-2.88.72c.6,1.44,1.71,2.74,1.82,4.35l2.49-1.26-1.43-3.8ZM49.36,45.34l-6.89,4.35c2.47-.82,5.06-2.48,6.89-4.35ZM27.6,48.97l-5.8-2.54c.91,1.36,3.16,2.34,4.69,2.74.36.09,1.2.46,1.11-.2ZM40.11,47.51c-2.57.15-5.38,0-7.98,0-.37,0-.76-.94-.54.36,3.5.46,6.71.58,10.15-.37-.07-.95-1.38-.01-1.63,0ZM39.57,49.69l-5.8-.36c.06.58,1.56.68,2,.72.8.07,1.73.04,2.54,0,.44-.02,1.35.28,1.26-.36ZM39.57,51.14h-5.8c.27.86,2,.75,2.72.75.79,0,2.66.04,3.08-.75Z"/>
      <path d="M67.51,45.68l1.29.35.15.9-3.99,14c-1.22-.11-4.65-.71-4.57-2.35.03-.61,1.7-4.32,2.02-5.47.68-2.49,1.09-5.09,1.79-7.57l1.84-.22,3.64-14.13,1.44.54-3.61,13.95ZM67.13,47.15l-1.4.05-.77,3.58,1.26-.37.91-3.25ZM64.96,54.41h-1.81c.37,1.5-2.08,4.93.72,4.11l1.09-4.11Z"/>
      <path d="M11.91,44.7c.85.9.59,5.04-.51,5.74-1.23.77-5.84-.15-6.48-1.1-.81-1.21.13-4.33,1.51-5.05,1.26-.65,4.48-.65,5.48.41ZM10.51,45.74c-2.17-.2-4.45-.4-3.9,2.46l3.92.75-.02-3.21Z"/>
      <path d="M52.86,52.62l5.05,1.79c-.63,4.3-1.26,6.56-5.9,4.06-2.43-1.31-.34-4.2.85-5.85ZM56.25,55.13l-2.89-.73-.74,2.54,2.9.73c-.11-.97.27-1.73.73-2.54Z"/>
      <path d="M22.81,6.6l-.69,4.6c-1.58-.14-5.66-.35-5.26-2.51.65-3.45,3.27-3.95,5.95-2.09ZM19.49,7.29c-.53.18-.61.86-.95,1.23,3.17,2.5,3.31-2.01.95-1.23Z"/>
      <path d="M61.59,13.83c1.63-.45,2.27,1.06,1.21,2.32-1.45,1.72-3.85-1.6-1.21-2.32Z"/>
      <path d="M37.99,32.88c-2.56,2.57-5.28-.66-3.31-3.49,1.84-2.66,6.07.72,3.31,3.49Z"/>
    </g>
  </g>
</svg>