<?xml version="1.0" encoding="UTF-8"?>
<svg id="Layer_3" data-name="Layer 3" xmlns="http://www.w3.org/2000/svg" viewBox="0 0 41.47 34.55">
  <g id="Layer_1" data-name="Layer 1">
    <g>
      <path d="M8.09,24.78c-1.23-.72-6.92.85-7.72-.8.18-2.89-.96-11.08.09-13.34.79-1.69,5.15-.27,6.97-1.01,1.34-.54,5.93-5.5,7.28-6.87,1.11-1.12,1.7-3.2,3.75-2.69l.61,1.21.09,32.38-1.03.85c-1.7.27-2.12-1.43-3.06-2.39-2.11-2.13-4.29-4.19-6.38-6.34-.27-.28-.46-.93-.6-1.01ZM16.86,31.23V3.67s-7.99,7.42-7.99,7.42c-.93,3.72.09,7.78-.29,11.54l8.28,8.6ZM6.71,11.65H2v10.7l.61.51,4.47.04c.14-.39-.36-.79-.36-.9v-10.34Z"/>
      <path d="M36.33,31.83c-.93.91-2.63,1.38-2.43-.41.06-.57,2.65-3.42,3.21-4.44,4.1-7.41,2.77-19.08-3.53-25.01.88-2.13,1.79-1.09,2.86.06,6.59,7.07,6.86,22.95-.11,29.79Z"/>
      <path d="M31.27,5.59c.75.62,2.02,3.64,2.38,4.69,1.6,4.7,1.46,9.11-.19,13.79-.38,1.08-3.28,7.66-4.46,4.98l-.13-.83c4.05-4.46,4.81-11.53,2.88-17.13-.43-1.26-2.72-4.7-2.78-5.06-.03-.23.27-.59.23-.9.68-.06,1.53.01,2.07.46Z"/>
      <path d="M24.31,9.11c2.95-.82,3.6,8.49,3.4,10.3s-1.48,7.34-3.95,5.11c1.79-3.3,2.5-7.61,1.47-11.25-.24-.85-2.35-3.76-.92-4.15Z"/>
    </g>
  </g>
</svg>