<?xml version="1.0" encoding="UTF-8"?>
<svg id="Layer_2" data-name="Layer 2" xmlns="http://www.w3.org/2000/svg" viewBox="0 0 86.95 64.29">
  <g id="Layer_1" data-name="Layer 1">
    <path d="M57.18,30.9c.45.78,1.79.71,2.66,1.14,1.47.74,3.73,2.8,4.41,4.3,4.23,9.29-3.79,15.51-12.15,17.05,1.66,3.9-3.37,6.06-6.18,3.82l-5.97-14.7,5.17,14.05c.32,1.93.32,3.57-1.79,4.21-5,1.52-4.84-2.11-6.1-5.68l-1.09-.24c.69,1.58,2.05,3.83,2.04,5.56-.02,4.11-5.23,5.43-6.97,1.67-7.91,4.7-17.98.69-15.74-9.4-2.3.65-4.44,1.72-6.64,2.62-.39.16-1.99.16-2.43.89-.21.35-.1,1.01-.55,1.56-2.86,3.48-8.74-4.91-4.15-7.77,2.43-1.51,3.47.31,4.79.11.94-.14,10.15-4.67,10.97-5.38,1.66-1.42,3.1-4.05,5.44-5.08.5-1.62-.45.37-1.63-.17-1.88-.87-1.91-3.21-.13-4.49,3.76-2.7,7.76-1.2,3.75,2.66,1.83.19,3.47-1.96,5.44-2v-1.08c-2.89.49-3.23-2.39-1.21-3.94,1.18-.9,3.85-2.08,5.01-.76,1.55,1.77-.63,2.06-.89,3.61.44.4,5.4-1.69,5.8-2.72l-2.2.03c-2.34-2.88,4.39-7.33,6.22-4.77,1.28,1.79-.57,2.81-2.2,3.11l.68.4.22.68c9.9-5.84,24.17-12.21,29.46-23.13,1.9-3.92,2.27-11.13,7.15-4.03,4.21,6.13,8.26,18.12,8.57,25.52.34,8.01-4.19,3.57-8.27,2.1-6.64-2.38-14.69-1.05-21.49.28ZM77.12,12.76c.48-2.74-1.09-5.51.21-8l-1.29-1.43.36,5.26.72,4.17ZM74.58,10.41c-.18-1.91.13-4.05,0-5.98l-1.63,3.63c-9.87,17.28-31.03,22.02-46.86,31.13-1.61.93-3.02,2.18-4.11,3.68,13.04-5.32,25.82-11.55,39.52-15.07,6.87-1.09,13.8-.94,20.33,1.65-.79-2.16-2.23-3.96-3.21-6.03-1.67-3.55-3.67-9.14-4.04-13.01ZM78.57,17.84v-7.98h.73v8.16c0,.11-.32.39-.31.71.02,1.06.85,3.46,1.76,4.18.28-1-1.08-3.24-1.08-3.81v-7.07l1.42,3.48-.17,8.14.75,1.07c.42-.35.71-.81.83-1.34.17-.74.38-5.14.28-5.92-.4-3.38-3.7-7.81-4.56-11.22-.64.25-.41,2.15-.38,2.74.08,1.45.54,2.84.4,4.32l-1.11.2,1.45,4.35ZM83.29,19.29v7.07c0,.12-.37.43-.31.99s1.26,2.63,1.76,2.09l-.4-6.67-1.05-3.48ZM52.09,52.3c.62-1.77,3.61-1.97,5.33-2.84,5.52-2.8,8.32-9.11,3.4-14.04-5.92-5.93-18.37,1.45-24.68,4-9.29,3.74-18.55,7.42-27.56,11.8.47.59.6,1.79,1.54,1.39,5.66-2.42,11.27-5.04,16.97-7.36,6.89-2.81,15.1-6.56,22.02-8.81,3.18-1.03,6.7-1.63,9.35.98,3.11,3.07,2.23,7.01-1.1,9.44-1.29.94-5.74,2.21-6.18,2.9-.34.54.25,2.25.92,2.54ZM52,37.88c-.54.1-4.95,2-4.97,2.27l3.43,7.79c2.92-1.81,9.35-3.06,7.46-7.82-.88-2.23-3.84-2.64-5.92-2.24ZM45.56,40.69l-3.22,1.32c1.51,3.58,2.45,8.61,4.25,11.98,1.03,1.92,1.49,2.87,3.63,1.51l-.02-2.21-4.63-12.59ZM37.95,43.59l-2.54.73c.54,1.9,4.64,14.13,5.68,14.47.86.27,2.56-.43,2.24-1.51l-5.39-13.69ZM33.59,45.4l-1.81.54c1.57.63,3.33,7.72,4.17,7.79s.23-.98.17-1.25c-.56-2.42-2.14-4.6-2.53-7.09ZM36.09,61.32c.54-.83-4.81-12.4-5.57-14.1l-.7-.35-2.38.72,5.41,13.62c.54.92,2.83.74,3.25.11ZM25.98,48.31c-8.18,2.53-5.03,12.24,3.26,7.44l-3.26-7.44ZM4.22,51.21c-2.7-.33-2.94,1.49-1.95,3.59.5,1.06,2.53,2.9,1.8,1.1-.4-.98-1.31-1.88-1.31-3.04l1.46-1.64ZM19.81,51.21c-3.27-.32-3.3,4.19-2.36,6.52,2.09,5.18,8.68,5.05,12.83,2.5l-.32-2.5c-5.14,3.05-13.15.28-10.15-6.52ZM7.11,51.93l-2.74,1.44.56,1.31.48.11,2.42-1.22-.72-1.64Z"/>
  </g>
</svg>