<?xml version="1.0" encoding="UTF-8"?>
<svg id="Layer_2" data-name="Layer 2" xmlns="http://www.w3.org/2000/svg" viewBox="0 0 21.88 25.93">
  <g id="Layer_1" data-name="Layer 1">
    <path d="M19.64,13.99l.36-10.16c-3.22,1.54-6.96,2.29-10.52,2.54.25,1.45-.29,2.79-.38,4.16-.27,4.58,1.46,12.74-3.98,14.88-2.68,1.05-5.58.68-5.06-2.87.38-2.62,4.54-4.22,6.88-3.83l1.07-16.16C12.48,1.85,16.94.02,21.47,0c.54.39.42,8.49.33,9.82-.11,1.74-.7,7.11-1.38,8.42-1.08,2.1-4.91,3.64-6.61,1.75-2.62-2.92,2.79-7,5.81-5.99Z"/>
  </g>
</svg>