<?xml version="1.0" encoding="UTF-8"?>
<svg id="Layer_3" data-name="Layer 3" xmlns="http://www.w3.org/2000/svg" viewBox="0 0 95.24 39.91">
  <g id="Layer_1" data-name="Layer 1">
    <g>
      <path d="M20.81,5.52c1.34,6.89,2.64,13.87,3.64,20.84.26,1.83,1.5,8.97.81,10.05-1.03.85-3.75,1.52-4.31-.01l-2.79-21.51c-1.89,2.58-2.83,12.44-4.71,14.15-1.65,1.5-3.69.55-4.55-1.27l-3.25-8.9.19,19.05c-.53,1.9-4.06,3.08-5.03.47C-.39,35.16.06,23.8.19,19.76c.06-1.77.35-9.09.93-9.95.69-1.02,3.98-1.51,5.05-.36,1.94,2.1,3.24,8.53,4.73,11.22l4.22-13.19c.66-1.11,4.66-3.13,5.69-1.97Z"/>
      <path d="M81.58,3.77c1.11-1.08,4.07-2.7,5.58-2.95,5.19-.84,10.95,5.99,6.46,8.64-2.66,1.57-2.5-2.32-3.48-3.08-2.76-2.14-6.51,3.93-7.25,6.13-1.22,3.62-2.59,15.01,2.82,15.72,3.4.45,4.93-4.76,6.46-5.01,3.52-.59,3.2,2.24,1.93,4.49s-5.1,5.63-7.78,6c-3.23.45-4.7-.19-6.87-2.5-5.97-6.35-3.9-21.58,2.13-27.45Z"/>
      <path d="M39.24,4.42c1.48-.49,3.32-.01,3.74,1.6.54,2.09.68,7.03.76,9.39.21,6.44.98,18.25-7.54,19.32-4.87.61-7.12-2.28-7.98-6.7-1.35-6.91-.62-14.28,0-21.23.37-1.89,3.99-2.31,4.41-.19.12,5.84-.76,12.46.27,18.2.31,1.75.74,4.63,2.94,4.5s2.91-1.44,3.14-3.41c.49-4.13.17-10.21.06-14.48-.03-1.26-1.16-6.55.22-7.01Z"/>
      <path d="M51.84,27.45c1.73,1.48,5.11,1.1,5.88-1.3,1.42-4.43-6.17-8.61-8.12-11.87s-2.43-7.5-.36-10.76c1.4-2.21,4.31-3.77,6.97-3.48s7.36,6.12,4.21,7.79c-1.86.99-4.74-6.18-7.21-1.42-1.15,2.22.42,4.4,1.78,6.11,3.36,4.25,8.81,7.17,7.94,13.76-.68,5.14-7.61,7.98-12.13,6.4-2.23-.78-6.31-5.77-3.14-7.17,2.69-1.19,2.83.79,4.2,1.95Z"/>
      <path d="M68.48,2.28c.55-.64,2.59-.56,3.19.09.44.48.67,2.51.73,3.26.41,5.32,0,14.86-.38,20.32-.24,3.32-.4,7.13-4.74,5.44-.77-.41-.42-15.36-.33-17.4.11-2.62.28-6.53.76-9.04.08-.44.63-2.5.78-2.67Z"/>
    </g>
  </g>
</svg>