<?xml version="1.0" encoding="UTF-8"?>
<svg id="Layer_2" data-name="Layer 2" xmlns="http://www.w3.org/2000/svg" viewBox="0 0 50.14 106.54">
  <g id="Layer_1" data-name="Layer 1">
    <g>
      <path d="M46.65,26.42c-1.57,1.86-3.27,2.97-5.21,4.4-4.25,12.44-6.59,25.63-10.95,38.01-.37,1.05-.72,2.43-1.45,3.26s-1.74.85-2.13,1.5c-.74,1.25-.77,4.87-1.7,6.28-.82,1.24-2.44.77-3,1.17-.19.14-1.34,3.24-2.1,4.25-1.55,2.05-4.47,4.43-6.79,5.54-3.64,1.75-12.7,2.89-11.34,8.66.97,4.1,11.46,5.65,11.44,6.32-.81,1.08-1.88.66-3.01.49-5.33-.8-12.28-3.37-9.94-10.19,1.66-4.84,8.14-5.17,12.12-7.1,3.92-1.9,6.21-4.73,8.09-8.6-3.94-1.67-1.1-5.62-1.53-7.93-.11-.6-1.62-1.38-1.93-2.38-.26-.84-.21-1.88-.18-2.76.37-11.53,3.03-24.75,4.01-36.61.09-1.07.73-2.77.68-3.65-.03-.48-1.69-3.11-2.05-4.05C14.9,10.61,24.62-3.14,38.46.64c10.87,2.96,15.4,17.25,8.19,25.78ZM38.82,3.35c.7-1.03-7.77-2.41-8.64.63l1.39,4.81c.43.31,2.72-1.97,2.84-2.44.27-1.01-1.12-2.98-.13-3.36l1.27,2.54,3.26-2.18ZM28.66,3.36c-2.02.66-5.76,2.84-3.44,5.07.4-.84,4.06-4.42,3.44-5.07ZM43.89,6.62c.58-.81-3.38-3.22-4.18-3.25l-3.7,3.07,2.08,4.54,3.23-2.21c.33-.47-1.53-2.11-.15-2.86l1.09,1.81,1.63-1.09ZM29.38,5.53c-.5-.46-3.44,3.12-3.56,3.52-.44,1.47,1.14,2.91,1.03,4.45.49.44,3.49-2.96,3.94-3.52l-1.41-4.46ZM35.01,7.35l-2.66,2.77,1.94,4.11,3.04-2.7-2.31-4.17ZM45.34,12.79l1.36-1.99c-1.02-2.08-1.87-5.29-3.84-1.89l1.73,3.65.74.22ZM22.13,12.78c.76-2.22,3.04-2.56,1.45-5.07-.46-.35-2.52,4.14-2.18,4.89l.72.18ZM42.08,9.52l-3.21,2.43,1.77,4.09,3.23-2.39-1.79-4.13ZM22.5,13.88l2.36,2.09,1.53-1.54-1.72-3.81c-.28-.21-2.18,2.56-2.34,2.92-.15.34-.57,1.48.16,1.43v-1.09ZM31.56,11.34c-.47-.32-3.86,3.17-3.88,3.44-.08.95,1.74,2.58,2.69,2.67.66.06,2.14-1.82,2.61-2.37l-1.41-3.73ZM37.01,19.68l2.84-2.77-2.3-4.48-2.72,3.09c-.05.5.77,2.84,1.07,3.2.25.29.66.17.81.28.45.33.28.66.31.68ZM47.52,12.43l-2.17,1.29,1.81,3.78c.53.52.65-.03.72-.53.21-1.54-.24-3.03-.36-4.54ZM20.69,14.24c-1.17,1.65.68,10.86,2.67,10.49l.85-.88c-1.86-2.71-2.09-5.61-2.91-8.6-.1-.37-.09-1.1-.61-1.01ZM45.5,18.75c.31-.33.97-.4.89-.99l-1.96-3.15-2.91,2.53,1.12,2.54,1.43-.72c.35-.14-.31,1.59,1.43-.21ZM34.1,16.42l-2.17,1.27,1.09.73-1.09.18c.67,1.59,1.78,0,2.9.36l-.73-2.54ZM25.04,23.31l3.62-3.44-5.79-2.72,2.18,6.17ZM41.72,20.4l-1.27-2.53-1.26,1.26,1.08.18v.72s-1.08.36-1.08.36h2.54ZM35.55,21.13c-1.96-.36-3.92-.38-5.8-1.09-.17.16,1.85,3.86,2.4,3.97l3.4-2.88ZM44.63,25.12c1.22-1.03,2.12-2.82,2.53-4.35-.98,1.43-1.58,1.15-3.26,1.09l.73,3.26ZM29.38,21.13c-.56-.41-3.01,2.57-3.56,3.08l2.35,2.67,3.01-1.97-1.79-3.77ZM42.44,21.86l-5.44-.73,1.99,3.98c.99-.8,2.03-1.58,2.98-2.43.24-.22.7.02.46-.83ZM36.1,22.23l-3.36,3.07,1.96,2.68c.54.11,3.26-1.8,3.3-2.31l-1.89-3.44ZM43.16,23.31c-.94-.28-.65.49-1.1.87-.74.61-1.6,1.35-2.49,1.71l.71,2.14c2.48-.72,4.53-2.04,2.89-4.71ZM27.21,27.66l-2.36-2.89-1.27.72c-.22.3,3.25,2.48,3.63,2.17ZM29.39,27.3c-.64.93,3.58,2.79,4.34,1.27l-1.98-2.72-2.36,1.45ZM39.54,28.74l-.91-1.8c-.68.71-1.61,1.04-2.4,1.59-.43.3-.89.01-.68.94l3.99-.73ZM39.54,31.29c-5.52,1.62-11.25-.3-15.95-3.27l-.63,3.47c4.54,2.71,10.17,4.11,15.43,2.99l1.15-3.2ZM38.09,36.37c-5.81.6-9.52-.22-14.69-2.55-.34-.15-.45-.69-.79.18-.84,2.19,2.69,3.07,4.32,3.55,3.36.99,6.69,1.32,10.16.63l.99-1.81ZM36.64,39.99c-4.89,1.07-10-.2-14.5-2.18l-3.08,30.66c.29,3.71,7.92,4.37,9.32.79l8.27-29.27ZM22.86,73.36l-1.45-.37c-.12,1.27-.7,2.41-.85,3.69-.26,2.27,1.22,1.34.49-.43l.72.72,1.09-3.62ZM25.4,73.36l-1.79.02-.38,3.24.36-1.09.63.53-.99,3.09c1.01.18.61-.21.82-.79.57-1.61.78-3.39,1.36-5Z"/>
      <path d="M26.74,45.14c5.89-1.79,2,9.52,1.75,12.26-1.05.61-3.72,1.3-4.36,0-.68-1.37,1.85-9.19,1.73-11.33.13-.46.42-.79.88-.93ZM28.29,49.78l.35-2.67-.32-.42-1.1-.17-.36,3.26h1.44ZM27.57,54.13l-1.42.03-.39,2.15h1.81s0-2.18,0-2.18Z"/>
      <path d="M26.48,62.84c.07,1.44-.45,2.95-1.81,3.63-.07-1.27.07-3.98,1.81-3.63Z"/>
    </g>
  </g>
</svg>