<?xml version="1.0" encoding="UTF-8"?>
<svg id="Layer_2" data-name="Layer 2" xmlns="http://www.w3.org/2000/svg" viewBox="0 0 86.26 87.88">
  <g id="Layer_1" data-name="Layer 1">
    <path d="M71.03,40.77c1.53.15,4.75.91,6.33,1.34,3.51.96,12.31,4.4,7.49,9.03-4.34,4.17-18.04.71-23.6-.4,5.14,4.81,12.11,9.03,15.41,15.46.85,1.66,2.96,6.62.11,7.16-6.07,1.14-13.42-4.1-17.83-7.85-.55-.47-3.32-3.74-3.83-3.26,2.07,6.02,5.37,14.07,3.79,20.47-1.44,5.85-5.63,3.55-8.39.03-3.55-4.53-4.97-10.54-6.87-15.76-.15-.4-.21-1.13-.8-.53-.31.31-2.45,7.03-3.01,8.31-1.71,3.89-5.03,10.64-9.01,12.46-7.74,3.55-4.92-8.61-3.98-12.42,1.28-5.21,3.7-9.91,5.64-14.87-6.21,5.32-14.63,14.61-23.6,13.44-2.09-.27-2.26-1.83-2.09-3.66.35-3.75,7.89-11.23,10.94-13.6s6.32-3.73,9-6.14l-10.17,1.14c-3.48.13-13.55-.87-15.71-3.84-2.92-4.01,2.33-5.8,5.25-6.62,6.23-1.75,12.7-1.2,19.09-1.05l-7.64-4.06c-3.96-2.46-11.07-7.78-12.89-12.03-2.85-6.66,2.49-7.66,7.88-6.34,8.53,2.09,16.16,10.03,21.85,16.3-2.41-7.93-6.3-15.81-5.74-24.35.37-5.71,3.57-13.85,8.75-5.69,4.44,6.98,5.94,16.91,6.21,25.05,1.18-.81,1.03-2.82,1.42-4.14,2.15-7.14,5.09-14.58,10.09-20.21,1.8-2.03,4.05-4.13,6.98-2.78,4.74,2.18.68,13.62-1.03,17.17-1.89,3.92-4.89,7.51-6.72,11.49,6.59-4.62,15.54-12.3,23.97-12.3,10.43,0-1.7,12.2-4.61,14.6l-13.61,8.45c3.52.25,7.46-.33,10.93,0ZM41.64,34.2c.02-7.12-.79-14.27-2.74-21.13-1.04-3.65-2.49-8.16-5.83-10.27-2.81,4.27-1.96,11.66-.78,16.5.74,3.05,3.97,12.3,5.62,14.7,1.15,1.67,2.03.58,3.73.2ZM57.56,4.86c-2.27,2.24-6.53,9.37-7.72,12.41-2.16,5.48-2.64,11.57-5.41,16.8,2.59,2.15,3.66,1.3,5.48-1,3.45-4.35,9.88-16.51,11.16-21.82.48-2.01,1.47-5.39.15-7.06-1.1-1.38-2.67-.3-3.65.67ZM8.24,19c-.6.09-1.48.32-1.78.93-.55,1.58.95,3.72,1.88,4.92,2.75,3.54,7.76,6.81,11.62,9.09,1.95,1.15,10.78,5.98,12.41,6,.98.01,2.19-1.66,1.98-2.71-.22-1.11-5.62-6.24-6.84-7.38-4.25-3.99-13.11-11.76-19.27-10.84ZM79.66,20.06c-11.82.31-20.67,10.22-29.45,16.95-.33,3.64,1.75,3.78,4.73,3.01,4.14-1.07,14.47-7.28,17.82-10.18,1.28-1.11,8.52-8.16,6.9-9.78ZM32.79,43.16c-.24-.34-7.09-1.14-8.17-1.23-5.79-.48-13.89-.59-19.35,1.35-3.75,1.34-3.33,2.24.11,3.69,5.45,2.31,14.5,1.51,20.33.64,1.28-.19,7.2-.97,7.5-2.1l-.42-2.35ZM53.48,43.17c-2.65.48-2.06,1.98-.05,2.93,5.38,2.57,20.57,5.29,26.42,4.64,1.42-.16,3.18-.65,3.58-2.18.16-1.9-7.06-4.25-8.68-4.62-4.52-1.04-16.82-1.58-21.28-.78ZM51.14,48.08c-.79.76-1.79,1.88-1.2,3.02,4.86,6.49,10.15,13.16,17.19,17.35,1.9,1.13,9.72,6.03,8.05.38-1.4-4.73-10.7-12.57-14.81-15.49-1.15-.82-8.48-5.49-9.23-5.26ZM33.9,49.28c-8.52,4.05-17.87,9.43-22.97,17.68-4.72,7.63,3.58,3.52,7,1.63,7.24-4.02,13.46-11.02,18.78-17.27l-2.8-2.04ZM44.65,52.36c-.34.1-.71.38-.86.69-.38.78,1.44,10.33,1.85,11.97,1.18,4.8,4.64,14.16,8.13,17.57.53.52,1.14,1.04,1.91,1.13.53-.12.87-1.6.95-2.14.83-5.98-2.79-17.64-5.65-23.04-.6-1.13-3.62-6.1-4.48-6.27-.52-.1-1.33-.07-1.84.09ZM28.27,84.88c2.88,0,5.02-2.68,6.33-4.98,4.19-7.34,6.52-14.36,6.71-22.82.03-1.25,1.2-5.47-1.82-4.16-1.3.56-6.51,11.13-7.3,13.06-.87,2.14-3.92,11.16-3.92,12.95v5.94Z"/>
  </g>
</svg>