<?xml version="1.0" encoding="UTF-8"?>
<svg id="Layer_3" data-name="Layer 3" xmlns="http://www.w3.org/2000/svg" viewBox="0 0 81.79 82.65">
  <g id="Layer_1" data-name="Layer 1">
    <g>
      <path d="M43.74,19.21c1.56-4.4,3.43-9.46,5.87-13.42,3.71-6,8.02-6.67,6.83,1.88-.57,4.14-2.83,8.07-3.14,12.25,2.46-1.91,4.38-4.52,6.72-6.55,1.85-1.61,6.29-5.68,8.3-2.63,1.46,2.21-1.69,6.42-2.7,8.59l-7.01,9.45c.36.34,7.96-3.4,9.1-3.81,2.71-.97,12.09-3.73,10.56,2.05-1.41,5.32-13.27,8.54-17.72,10.6-.35.16-.83.21-.87.72,5.88.5,12.71,1.02,18.24,3.17,1.97.77,5.54,2.75,2.98,5.13-3.5,3.24-16.26.58-20.86.2,3.8,2.81,8.59,4.67,12.04,7.96,1.59,1.51,5.38,5.9,2.22,7.54-4.39,2.27-13.19-4.46-17.44-5.94,2.76,4.44,8.62,12.32,7.36,17.79-.26,1.11-1.14,1.64-2.23,1.69-5.48.23-9.59-9.17-12.91-12.41-.18,5.14,1.14,10.4-.3,15.45-.64,2.23-1.85,4.67-4.57,3.4-1.07-.5-1.76-3.42-2.11-4.62-1.29-4.45-1.65-9.12-2.23-13.71-.06-.49-.18-1.05-.7-.53-.58,3.77-4.9,17.04-8.81,17.86-3.54.74-3.68-3.23-3.58-5.65.24-5.9,2.49-11.51,3.88-17.17-3.13,3.18-5.6,7.01-9.03,9.9-2.83,2.38-10.63,7.7-9.28-.08.84-4.84,8.26-12.02,11.61-15.65.23-.25,1.96-2.11,1.75-2.31-5.67,2.07-12.59,5.7-18.62,6.33-5.64.59-5.91-2.71-2.08-5.97,4.54-3.85,9.59-4.14,14.22-6.67.33-.18.78-.34.82-.77-5.1-.84-10.67-2.04-15.34-4.3-1.88-.91-6.49-3.35-3.94-5.96,2.91-2.98,16.72.83,20.7,1.76-3.65-3.41-13.79-10.28-13.83-15.74-.03-4.21,3.08-2.78,5.58-1.66,5.48,2.46,9.6,7.39,14.27,11.03l-3.6-6.49c-1.42-3.31-6.01-13.12-3.65-16.16,1.7-2.2,4.42.79,5.66,2.11l8.31,12.39c-.45-3.12-.29-6.23-.35-9.37-.06-2.78-.57-4.62.16-7.63s3.5-4.71,5.57-1.64c3.19,4.7,2.6,11.37,3.49,16.69.07.42.21.84.69.9ZM36.9,2.25c-.6.16-1.01,1.14-1.14,1.71-.86,3.53-.51,8.92-.15,12.59.2,2,2.02,13.4,3.16,14.18.75.34,2.04.4,2.14-.72.48-5.44.59-10.84,0-16.28-.27-2.43-.63-5.5-1.4-7.8-.31-.93-1.47-3.97-2.61-3.67ZM54.36,3.28c-.71-.7-2.52,2.18-2.84,2.64-3.41,4.97-7.82,16.7-8.14,22.64-.06,1.08-.35,3.6,1.42,2.86,1.52-.63,6.22-12.07,7-14.26,1.49-4.2,3.32-9.49,2.56-13.89ZM21.81,7.18c-.21,1.06-.74,1.74-.64,2.9.31,3.5,4.57,11.57,6.5,14.76.73,1.21,5.35,8.31,6.29,8.14.58-.59,2.33-1.86,2.34-2.62,0-.36-2.47-5.82-2.87-6.68-1.54-3.27-7.75-14.47-10.37-16.17-.43-.28-.71-.45-1.25-.33ZM66.4,11.42c-6.15,2.69-11.72,9.25-15.51,14.75-.85,1.24-4.25,5.9-3.53,7.12.05.08,1.42,1.02,1.51,1.03,1.22.12,8.03-6.73,9.21-8.03,3.35-3.72,8.81-9.73,8.31-14.87ZM30.25,37.22c.31-1.06,1.35-1.25.98-2.45-.54-1.72-11.97-11.29-14.12-12.81-2.5-1.77-11.24-7.29-6.21.2,1.47,2.18,3.96,4.71,5.95,6.44,1.55,1.35,12.2,9.31,13.4,8.63ZM76.29,25.6c-4.04-.61-8.79,1.2-12.5,2.86-2.03.91-12.21,6.53-12.78,8.07-.08.22.13,1.36.19,1.41,1.05.98,15.02-4.35,17.09-5.33,1.34-.63,9.77-4.98,7.99-7.01ZM39.41,33.1c-4.34.73-9.4,6.76-6.43,11.22s10.19,5.68,13.97,1.63c2.02-2.16,2.15-6.59.49-9.02s-4.94-4.35-8.03-3.83ZM5.46,33.81c-.88.03-2.17.37-3.13.43-.62.33.25,1.34.52,1.62,2.57,2.65,15.26,5.69,19.13,5.99,1.4.11,5.15.24,6.37,0,.92-.18,1.35-1.73.92-2.32-.91-1.24-11.31-3.85-13.42-4.3-3.02-.64-7.37-1.53-10.39-1.43ZM78.77,43.65c-8.64-2.86-18.61-4.51-27.61-2.99.02,1.16-.32,2.45,1.08,2.8,6.14.97,12.73,2.77,18.93,3.02,2.36.09,7.67.43,7.61-2.83ZM4.46,54.6h5.13c1.19,0,10.05-3.44,11.74-4.18,2.2-.97,5.77-2.65,7.67-4.01.92-.66,1.35-1.56.62-2.57-.49-.68-7.22,1.11-8.45,1.47-3.74,1.09-14.38,4.94-16.38,8.04-.28.44-.43.7-.34,1.26ZM73.83,60.61c-.6-2.73-2.85-4.59-4.99-6.16-5-3.68-11.5-6.72-17.14-9.28l-2.65,2.17c0,1.48,14.42,10.26,16.62,11.33,2.44,1.19,5.44,2.79,8.15,1.94ZM14.02,69.82c.78.05,1.54-.16,2.28-.38,5.1-1.51,12.41-11.08,15.13-15.67.34-.58,2.34-4.12,2.37-4.37.07-.73-1.62-2.04-2.41-1.72s-6.02,5.26-6.92,6.2c-1.4,1.46-3.13,3.54-4.41,5.14-1.1,1.38-7.38,9.39-6.02,10.78ZM62.5,74.06c.28-3.73-1.31-7.31-3.17-10.45-1.32-2.22-9.36-13.31-11.07-14.06-.97-.42-2.7-.43-2.67.9.01.54,1.62,4.24,1.99,5.08,1.41,3.21,3.46,6.91,5.36,9.86,2.32,3.6,5.04,7.77,9.56,8.66ZM36.57,50.76c-1.82.54-5.3,11.72-5.89,13.95-.73,2.78-1.55,5.97-1.79,8.82-.41,4.69.3,8.55,3.95,2.53,4.24-6.98,5.31-16.16,6.33-24.12-.15-1.06-1.7-1.46-2.6-1.19ZM44.9,79.28c1.74,1.71,2.51-2.62,2.65-3.71.58-4.59-.52-14.61-2.02-19.04-.23-.69-2.03-4.83-2.3-5.13-.31-.33-.63-.41-1.07-.37-1.04.09-1.19,3.4-1.24,4.45-.13,2.42.12,5.69.35,8.13.27,2.8,1.93,13.99,3.63,15.65Z"/>
      <path d="M44.1,35.49l-.7,1.95c.64.84,1.83.39,2.59.85.86.53.61,2.32-.34,2.49-1.06.19-1.26-2.04-1.91-2.63-.85-.76-4.07-.83-3.02-2.32l3.37-.34Z"/>
      <path d="M38.07,36.21c.25.93-1.03,3.1-2.13,2.3-1.02-2.11-.09-3.31,2.13-2.3Z"/>
      <path d="M35.56,42.87c-.59.93-2.19.13-2.11-1.54.14-2.83,2.98.18,2.11,1.54Z"/>
      <path d="M45.52,44.69c-.38,0-.79.06-1.17-.07-2.8-.94,2.54-5.76,1.17.07Z"/>
      <path d="M38.26,43.99l1.23,1.58c-.09.73-.64,1.89-1.58,1.6-1.01-.92-.68-2.48.35-3.18Z"/>
      <path d="M38.83,41.47c-.78-.49-.23-3.1,1.38-2.28s-.21,3.01-1.38,2.28Z"/>
      <path d="M41.27,46.81l.17-2.13c1.09-1.63,3.81,2.77-.17,2.13Z"/>
    </g>
  </g>
</svg>