<?xml version="1.0" encoding="UTF-8"?>
<svg id="Layer_2" data-name="Layer 2" xmlns="http://www.w3.org/2000/svg" viewBox="0 0 80.49 79.88">
  <g id="Layer_1" data-name="Layer 1">
    <g>
      <path d="M49.06,18.82l5.02-5.15c3.82-2.86,8.94-5.42,13.87-4.72,3.49.49,8.29,4.1,8.74,7.75.91,7.48-1.65,14.02-8.09,18-1.49.92-3.33,1.36-4.57,2.52,5.62,1.22,12.36,3.29,15.16,8.81,3.53,6.95-.38,14.97-8.17,16.02-5.9.8-11.06-2.74-15.81-5.65,1.91,5.39,3.43,10.78,1.22,16.37s-5.95,7.59-11.76,7.02c-8.75-.86-12.31-9.89-12.09-17.64-2.48,2.7-4.77,5.37-8.17,6.97-16.72,7.85-24.92-10.71-11.56-21.54,1.14-.93,2.71-1.56,3.76-2.38.43-.33.8-.38.64-1.08-11.25-1.31-23.3-11.92-13.79-23.19,5.91-7,13.89-4.65,20.31.18-.44-7.02-1.49-13.32,4.41-18.42S43.88,0,47.22,6.67c.41.82,1.85,5.12,1.85,5.82v6.33ZM44.47,26.87c-.17-2.53,1.36-4.68,1.82-7.19,1.23-6.81-.65-16.44-8.91-17.35-11.73-1.3-13.25,10.69-10.65,19.47.77,2.59,2.42,4.72,2.78,7.38-4.94-4.08-12.59-12.42-19.84-10.06-3.34,1.08-8.2,7.26-7.7,10.92.71,5.15,9.77,11.53,14.72,12.15,3.92.49,6.82-.76,10.51-1.12-1.66,2.69-4.89,3.22-7.4,4.67-6.24,3.61-15.37,11.33-9.79,19.23,3.47,4.9,9.7,4.25,14.38,1.47,4.23-2.5,7.59-7.23,8.98-11.93l1.5-.03c-.79,7.69-.72,19.42,8.06,22.43,6.97,2.38,12.11-2.22,12.29-9.19s-3.74-12.92-6.15-19.38c4.87,4.17,14.12,12.15,20.86,11.46s11.06-7.92,6.74-13.56c-4.73-6.19-14.48-8.04-21.85-7.87l.47-1.83c5.81-1.38,12.56-2.5,16.34-7.63,6.16-8.35,3.01-20.23-9.08-17.13-7.16,1.84-12.05,9.21-16.35,14.74l-1.73.34Z"/>
      <path d="M48.99,41.05c0,5.06-4.1,9.17-9.17,9.17s-9.17-4.1-9.17-9.17,4.1-9.17,9.17-9.17,9.17,4.1,9.17,9.17ZM38.22,34.25c-5.44,1.13-7.12,9.48-1.95,12.51,7.52,4.4,14.32-6.54,7.93-11-1.71-1.2-3.88-1.95-5.99-1.51Z"/>
    </g>
  </g>
</svg>