<?xml version="1.0" encoding="UTF-8"?>
<svg id="Layer_3" data-name="Layer 3" xmlns="http://www.w3.org/2000/svg" viewBox="0 0 84.78 86.06">
  <g id="Layer_1" data-name="Layer 1">
    <path d="M66.73,52.57c6.13,3.83,13.18,15.04,5.35,20.49-6.41,4.46-13.84-.37-18.38-5.15.85,4.29.46,7.93-1.35,11.88-2.25,4.92-5.17,7.25-10.85,5.88-5.12-1.23-8.38-9.85-7.74-14.69-.9-.25-.65.24-.87.49-3.99,4.48-8.01,10.32-15.11,7.63-9.5-3.6-4.49-17.48,1.03-22.69-6.2.61-14.96,1.78-17.99-5.22-4.07-9.39,8.22-15.68,16.07-15.12-4.72-4.14-12.68-13.38-7.67-19.75,3.53-4.49,11.34-2.23,15.6.12,2.16,1.2,3.62,3.3,5.88,4.28C27.76,12.95,30.69-.2,40.85,0c8.1.16,10.09,12.12,10.16,18.43.89.24.64-.21.88-.49,4.21-4.92,12.41-13.35,19.42-8.5,5.52,3.82,2.57,13.82-.97,18.16-.53.65-4.99,4.03-4.37,4.63,7.7-2.35,18.83.05,18.81,9.78,0,4.06-2.06,6.83-5.57,8.64-1.13.58-5.04,1.9-6.15,1.9h-6.33ZM40.27,19.59c1.25,1.8.41,9.8,2.85,9.94.29.02,2.34-.41,2.53-.54.89-.6,2.94-8.9,3.06-10.37.48-6.17-3.33-20.96-12.07-15.14-6.3,4.19-4.66,13.77-2.77,20.03.25.81,2.35,6.19,2.64,6.37.66.41,3.75.1,4.1-.96.48-1.44-1.13-6.13-1.11-8,0-.59.12-1.18.78-1.32ZM57.91,26.49c.73.67-5.63,6.23-4.81,8.04.1.23,1.8,1.86,1.99,1.89,7.13-4.24,17.73-11.4,17.01-20.86-.6-7.91-8.7-4.96-13.01-1.9-5.45,3.87-9.34,10.47-11.51,16.63,1.51-.04,1.81,1.57,2.76,2.05,3.06,1.54,6.13-7.18,7.57-5.86ZM21.86,29.18c3.5-.09,5.98,3.49,8.63,5.35l4.39-3.68c.2-.68-.61-1.47-.97-2.02-2.29-3.4-8.46-9.55-12.17-11.23-5.28-2.4-13.78-2.39-11.29,5.55,1.51,4.82,5.44,9.1,9.6,11.87,1.32.88,7.27,4.09,8.46,3.71.82-.26,1.65-2.49,1.22-3.41-.69-1.49-6.8-4.2-7.87-6.14ZM44.11,34.55l1.16.2c1.17-.89.97-2.04-.2-2.89l-.96,2.68ZM56.78,44.15l-.75,3.21c.24.94,9.43,2.8,10.91,2.9,2.55.17,7.69-.24,10.04-1.07,7.26-2.57,7.42-10.96.63-14.19-4.53-2.16-10.01-1.22-14.61.21-1.53.47-7.62,2.59-7.76,4.14-.08.85.46,3.74,1.42,3.96,1.14.26,5.61-.96,7.22-1.09.95-.07,1.92.02,2.87,0-1.1,2.38-9.13,1.17-9.95,1.93ZM32.03,37.23c-1.41.36.34,2.6,1.15,2.67,1.69-.9.14-3-1.15-2.67ZM52.92,37.23l-1.96.55-.26.46.31,1.28c.54.42,2.34-1.48,1.91-2.3ZM27.93,40.75c-6.81-2.07-12.35-3.43-19.31-.85-7.93,2.94-8.05,13.51.44,14.54,6.62.81,14.41-1.69,20.31-4.55.57-.88-.99-2.42-1.36-3.29-.69-.44-6.75.91-8.24.99-.5.03-1.96.34-1.74-.58,1.43-1.43,3.47-.75,5.17-.97,4.24-.55,6.26-.09,4.73-5.3ZM30.68,42.98c.63.12,2.55.07,2.3-.95l-1.91-1.35-.39,2.3ZM49.19,54.97c-.38.44-.35.79-.19,1.32.65,2.2,6,9.71,7.75,11.45,3.62,3.6,12.64,7.33,15.75,1.53,3.39-6.3-4.92-13.78-9.86-16.62-1.36-.78-5.94-3.09-7.26-3.14s-3.36,2.74-2.76,3.76c1.74,1.71,4.87,3.26,6.46,4.85.31.31,1.5,1.79,1.13,2.12l-1.9-.59-6.79-5.89-2.34,1.21ZM48.54,52.17c0-.62-.51-1.13-1.13-1.13s-1.13.51-1.13,1.13.51,1.13,1.13,1.13,1.13-.51,1.13-1.13ZM25.7,63.31c-.03-1.34.88-2.52,1.6-3.58s4.76-5.44,4.88-5.89c.22-.83-1.31-2.37-2.09-2.44-.72-.06-2.11.98-2.82,1.4-6.41,3.71-15.68,13.86-11.45,21.74,2.01,3.75,6.99,3.18,10.01.98,5.82-4.25,8.52-11.75,10.94-18.23l-3.26-2.77c-1.32-.23-6.18,7.98-7.8,8.79ZM43.72,58.52c.16,2.58,0,5.43,0,8.05,0,.06-.46,1.01-.57.96-2.22-2.84.06-6.44-.74-9.61l-3.42-.7c-.59.16-.72.91-.92,1.4-1.43,3.6-2.42,11.38-1.98,15.2,1.02,8.74,10.7,15.22,14.55,4.27,1.29-3.67,1.36-8.32.58-12.12-.24-1.16-3.37-7.97-4.09-8.95-.25-.33-.38-.65-.88-.6l-2.91.75c-.22.52.37,1.09.38,1.34Z"/>
  </g>
</svg>