<?xml version="1.0" encoding="UTF-8"?>
<svg id="Layer_2" data-name="Layer 2" xmlns="http://www.w3.org/2000/svg" viewBox="0 0 65.88 66.05">
  <g id="Layer_1" data-name="Layer 1">
    <path d="M41.33,16.15c2.04.23,2.66-1.89,3.74-2.85,10.53-9.32,25.81,1.48,19.2,13.86-1.94,3.64-7.28,5.97-10.82,7.69,3.35,1.95,9.01,5.47,9.58,9.65,1.71,12.59-11.09,18.61-20.09,10.83-.53-.46-3.61-4.49-4.1-3.91-.38,5.58-1.84,10.37-7.11,13.02-11.15,5.59-20.01-4.31-15.96-15.25.72-1.96,2.16-3.31,2.76-5.25-6.45.96-13.44.59-16.89-5.73-2.32-4.26-2.24-8.49.71-12.41,4.82-6.39,11.97-5.14,18.67-2.88l-3.4-7.46C15.9,6.12,22.28-1.16,31.86.15c6.19.85,10.14,10.4,9.47,16ZM31.71,22.57c1.41-1.36,3.07,5.26,3.39,5.69.97,1.26,1.79-1.8,2.05-2.56,1.84-5.42,3.09-10.22,1.44-15.89-3.76-12.93-20.81-8.46-19.31,3.99.44,3.66,3.47,7.83,5.83,10.55.62.71,4.74,4.95,5.18,5.15.89.41,2.83.29,3.05-.86l-1.62-6.08ZM60.8,14.14c-5.26-4.91-12.98-1.56-16.97,3.27-1.26,1.53-6.6,10.28-6.36,11.76.41,2.53,6.59-3.53,7.06-3.04.11,2.38-5.36,4.54-5.17,6.09.11.42.23.89.55,1.2,1.16,1.12,9.52.43,11.47.08,8.59-1.52,17.68-11.65,9.41-19.37ZM23.16,32.54h5.17c.29,0,1.21-1.26.84-1.74-2.27-1.4-4.03-3.54-6.38-4.83-2.85-1.56-8.36-3.33-11.57-3.06-8.18.67-11.88,9.44-7.09,16.02,3.52,4.84,12.31,3.8,17.24,1.97,1.03-.38,6.97-3.51,7.32-4.08.48-.79-.08-1.94-.23-2.79l-5.29-.41v-1.07ZM41.06,34.93c-.21-.09.12-.75-.44-.6.14.71-.94,1.59-.96,1.96-.07,1.12,2.93,2.93,2.38,4.45-.44.51-2.22-2.16-3.39-2.12-.45.01-2.16,1.17-2.2,1.58-.05.47,2.9,7.7,3.39,8.62,3.11,5.83,11.13,11.4,17.33,6.52,8.74-6.87,2.83-17.13-6.51-19.12-2.52-.54-7.76-.46-9.6-1.29ZM29.49,38.3c-.58.14-6.36,4.55-7.21,5.29-5.83,5.11-8.92,14.06-1.23,19.03,3.78,2.44,8.56.89,11.91-1.58,5.95-4.39,4.57-14.37,1.77-20.29-1.06-.57-4.37-2.66-5.24-2.45Z"/>
  </g>
</svg>