<?xml version="1.0" encoding="UTF-8"?>
<svg id="Layer_2" data-name="Layer 2" xmlns="http://www.w3.org/2000/svg" viewBox="0 0 69.4 90.79">
  <g id="Layer_1" data-name="Layer 1">
    <path d="M38.44,7.68c1.74-.59,2.71-1.86,4.5-2.59,3.05-1.24,6.88-1.29,9.12,1.43,4.43,5.4-.31,17.16-3.87,22.23-.99,1.42-3.45,3.41-4.17,4.65s-.65,2.93-1.18,4.19c-.67,1.6-2.07,2.98-2.4,4.89-.63,3.67,1.7,9.24,2.48,13.06.59,2.92.93,5.94,1.27,8.9,3.51-3.93,4.66-9.43,7.22-14.06,2.33-4.23,4.84-7.65,9.15-10.02,8.63-4.74,10.91-.06,6.97,7.74-2.08,4.11-7.64,9.01-11.49,11.52-1.6,1.04-7.55,3.36-8.04,3.95-.58.7-.97,2.56-1.44,3.45-1.28,2.41-2.13,2.24-2.39,5.66-.36,4.63.05,9-.8,13.77-.32,1.8-.65,5.33-3.03,4.07.47-3.97,2.7-10.91.92-14.53-.2-.4-2.79-4.13-3-4.28-1.44-1.04-3.85.07-5.38.04-6.74-.12-16.77-3.63-19.84-10.11-1.88-3.96.04-4.56,3.72-4.86,11.18-.89,15.98,5.28,22.8,12.47,1.01,1.06,2.43,2.93,2.71.39.33-2.9-2.56-19.95-4.07-22.04-.23-.32-3.51-3.24-4.03-3.64-3.65-2.76-4.31-1.18-8.23-1.36-5.35-.24-15.51-3.51-20.09-6.37-11.76-7.33-4.03-16.97,7.26-14.74C7.32,12.71,8.49,1.18,21.55,7.68c.86-10.36,16-10.13,16.88,0ZM22.52,39.9c2.16.29,4.86-.21,7.09,0-.14-1.02-1.02-1.55-1.49-2.54-.74-1.56-1.83-3.96-.45-5.34,2.37-2.37,4.85,3.33,5.77,2.51-.23-1.59,2.35-6.89,3.96-6.48,1.47.38,1.46,5.21,2.37,6.48,1.17-1.8,3.01-2.82,4.4-4.42,4.07-4.67,8.47-14.37,6.75-20.54-1.56-5.58-9.73-2.5-11.53,1.95-.42,1.03-.61,3.58-1.15,4.22-1.32,1.58-2.04-.35-2.04-1.73,0-3.05.66-4.64-.65-7.86-2.38-5.85-11.23-4.92-11.67,2.16-.1,1.63,1.02,3.05-.6,4.35-.45.11-2.48-2.67-3.28-3.23-3.74-2.63-8.13-1.95-7.61,3.39.35,3.63,2.65,7.59,5.33,10.02,1.64,1.48,4.33,2.49,5.57,3.64.39.36.7.54.57,1.15-3.69,1.19-6.48-2.62-9.48-3.75-3.31-1.24-6.45-1.24-9.44.75-7.18,4.76,2.93,10.3,7.31,12.12,2.2.92,8.07,2.86,10.27,3.16ZM38.43,40.28c-.25-2.33-.37-5.47-1.91-7.29-1.59,2.88.21,4.94,1.91,7.29ZM34.21,40.67c.2-.93-.15-.98-.63-1.48-1.09-1.16-2.64-2.11-3.58-3.51.42,2.09,2.71,3.6,4.21,4.99ZM49.94,60.23c.58.6,9.6-6.07,10.53-6.91,2.02-1.82,3.6-3.86,4.81-6.31.49-1,2.55-5.47,1.55-6.16-3.81-.19-8.06,3.29-10.37,6.17-1.08,1.35-7.18,12.55-6.53,13.22ZM28.27,69.05c2.32.28,5.1-.2,7.48,0,.24-.9-.23-.65-.49-.88-3.87-3.42-6.85-7.77-12.15-8.92-2.67-.58-5.39-.73-8.08-.17-.89.95,2.86,4.68,3.66,5.36,2.24,1.9,6.67,4.27,9.58,4.61Z"/>
  </g>
</svg>