<?xml version="1.0" encoding="UTF-8"?>
<svg id="Layer_3" data-name="Layer 3" xmlns="http://www.w3.org/2000/svg" viewBox="0 0 64.96 137.45">
  <g id="Layer_1" data-name="Layer 1">
    <g>
      <path d="M41.07,20.12l6.31-3.93c6.72-2.67,14.43-2.77,17.18,5.14,1.9,5.47-3.44,10.69-7.96,12.92-.96.48-6.7,2.15-6.69,2.54,6.58,2.64,13.79,13.76,9,20.26-4.95,6.72-15.3.87-19.45-3.98-.39,5.04-.82,11.35-5.5,14.4-1.38.9-4.85,1.52-5.28,2.36-2.55,13.47-4.18,27.09-5.7,40.71.81.97,2.31-3.88,2.46-4.17,4.78-9.28,8.16-18.09,17.26-24.13,1.74-1.15,4.92-3.29,6.81-1.63-3.33,5.79-6.28,11.73-10.12,17.2-3.28,4.66-7.91,10.6-11.77,14.75-.97,1.04-4.52,3.71-4.82,4.42-.43,1.02.06,7.07.2,8.63.34,3.8,1.39,7.7,1.42,11.46l-1.2.38c-1.46-1.32-.8-3.37-1.03-5-.66-4.8-1.87-9.53-1.66-14.42-2.14-1.17-4.22-2.34-5.97-4.07-7.54-7.43-12.4-17.15-13.21-27.78-.33-4.34.38-7.78,4.59-3.79,7.82,7.42,11.72,16.94,14.24,27.17.17.68-.4,1.17.81.98l2.06-19.44,3.95-21.69c-1.83-.89-3.33-1.8-4.6-3.46-3.24-4.22-3.09-9.13-1.8-14.07-2.39.03-3.81,1.98-6.21,2.83-4.27,1.5-10.8,2.31-13.24-2.47-3.48-6.83,1.64-14.72,8.27-16.96.38-.13,5.43-.71,4.35-1.88-1.25-.35-2.63-1.01-3.74-1.69-4.8-2.97-14.73-11.87-6.89-16.78,7.1-4.45,14.43-2.14,19.87,3.6C21.99,11.68,21.95-.57,31.64.02c9.77.59,11.42,12.47,9.43,20.1ZM32.63,28.96c1.51,1.55,5.35-6.79,5.7-7.76,2.15-5.89,2.78-15.55-4.09-18.57-7.59-3.33-9.93,6.01-9.64,11.65.13,2.49,2.73,12.51,4.05,14.43.66.96,2.15.62,2.58-.14.24-.42-1.84-7.71.39-7.25,1,.21,1.1,6.55,1.01,7.63ZM25.51,30.85c.92.81,1.52.42,1.52-.87,0-1.7-4.36-8.6-5.66-10.04-1.63-1.82-5.52-4.53-7.92-4.94-3.36-.57-9.88.05-10.51,4.16-.54,3.47.37,2.34,1.36,3.79,2.11,3.11,2.54,4.7,6.12,6.75,2.5,1.43,10.87,4.42,13.49,4.02,4.29-.67-2.47-4.71-2.92-5.75-.21-.5.11-.75.6-.6,1.61.31,2.97,2.66,3.93,3.5ZM38.35,34.9c1.11,1.1,8.21.33,10.04-.01,6.42-1.21,20.76-9.08,11.93-16.13-6.98-5.58-17.02,1.14-21.68,6.79-1.2,1.46-5.09,7.42-.56,5.46,1.41-.61,3.76-3.76,4.43-1.25.45,1.7-3.62,1.84-4.48,3.23-.33.5-.07,1.52.32,1.91ZM34.54,32.29c-10.03-4.62-7.89,11.98.06,6.49,2.37-1.63.85-4.36-.06-6.49ZM20.97,41.02c-1.15-.97,4.83-2.12,3.99-4.58-.58-1.7-10.17-.96-12.05-.47-3.85,1-10.26,5.96-10.79,10.1-1.14,8.94,7.92,9.06,13.84,5.8,1.68-.93,10.69-9.32,11.02-10.7.62-2.67-5.4.34-6-.17ZM43.22,54.14c7.33,6.73,19.38,4.74,13.72-7.49-3.47-7.5-11.05-8.88-18.46-10.02-1.02.6-.52,1.19,0,1.96,1.34,1.98,4.71,2.12,5,4.64-.59,2.3-5.26-3.29-6.23-3.29-.24,0-1.94,1.12-1.77,1.62,2.43,4.22,4.05,9.2,7.74,12.58ZM30.21,42.23c-.89-.12-1.35.02-2.04.57-1.52,1.22-4.82,6.27-5.48,8.18-1.96,5.64-1.57,16.08,6.52,16.08,9.89,0,9.09-18.43,5.04-24.25-1.77-1.13-2.75,2.74-2.42,4.03-2.71,1.31-1.16-4.16-1.61-4.61ZM45.89,82.82c-.35-.36-4.28,2.55-4.83,3.01-5.64,4.72-10.19,13.3-13.47,19.89-1.07,2.14-2.56,4.41-2.6,6.84l13.02-15.7,7.87-14.03ZM17.75,108.93c-.62-7.25-4.81-14.64-9.08-20.45-.37-.5-3.2-4.68-3.77-4.06.22,1.51,1.03,3.16,1.66,4.56,1.93,4.25,4.72,9.84,6.97,13.93,1.12,2.03,2.69,4.28,4.22,6.02ZM17.76,112.95l-4.89-7.76-9.17-17.95c-.1,8.39,4.48,16.35,9.84,22.51.56.64,3.43,3.83,4.22,3.21Z"/>
      <path d="M33.31,33.91c3.92,3.16-3.59,8.08-4.25.57.41-1.48,3.24-1.38,4.25-.57Z"/>
    </g>
  </g>
</svg>