<?xml version="1.0" encoding="UTF-8"?>
<svg id="Layer_3" data-name="Layer 3" xmlns="http://www.w3.org/2000/svg" viewBox="0 0 39.11 40.31">
  <g id="Layer_1" data-name="Layer 1">
    <path d="M25.71,8.99c2.2-.77,4.23-2.63,6.71-2.6,8.8.13,8.53,11.92,1.52,14.95,2.49,2.92,5.38,6.21,2.45,10.01-2.02,2.63-6.34,1.81-9.03.68,1.46,6.81-7.54,11.73-11.34,5.25-.55-.94-.39-2.09-1.39-2.59-.86-.21-3.26,2.94-6.71,2.13-4.35-1.03-5.32-6.49-3.41-10.04.81-1.5,2.25-2.57,3.11-3.8.2-.28.46-.33.32-.82-5.39-1-10.61-6.1-6.39-11.5,2.46-3.15,7.05-2.07,10.34-1.01.47-3.05.35-6.62,3.28-8.4,6.06-3.68,11.45,1.35,10.54,7.74ZM19.12,12.28c2.28-.39.28,4.54,1.98,3.46.87-.55,2.81-5.78,2.92-6.96.41-4.31-3.47-8.62-7.84-6.19-3.2,1.79-2.53,6.03-1.3,8.81.38.87,2.93,5.92,4.08,4.17l.15-3.3ZM25.05,20.51c3.5.12,6.93.04,9.72-2.29,5.38-4.51,1.5-12.04-5.43-9.05-1.86.8-3.24,2.54-4.42,4.14-.31.42-2.11,2.94-2.15,3.12-.22.95,2.05.98,2.47,1.79l-.19,2.3ZM9.42,20.84c1.63.19,3.87,0,5.59,0,.26,0,.66-.8.49-1.15l-2.59-.21-.37-1.43,3.62.49c.69-2.72-3.45-6.32-5.62-7.37-6.54-3.17-11.62,3.05-6.33,7.65.96.83,3.96,1.88,5.21,2.03ZM18.55,22.73c2.02,1.95,6.64-1.58,3.88-4.04-2.98-2.66-6.32,1.68-3.88,4.04ZM16.49,22.49c-2.68.4-5.51.63-7.73,2.3s-4.56,4.96-2.94,7.87c2.07,3.72,6.42,1.49,8.36-1.13.58-.78,3.78-6.57,3.29-7.07-1.21-.39-1.19,1.03-1.86,1.26-.27.09-2.09.35-1.75-.44.42-1.01,3-1.27,2.63-2.8ZM23.4,24.13c-.4.41,2.02,3.47,2.46,3.95,1.48,1.62,3.79,3.39,6.1,3.16,3.05-.3,4.93-2.72,3.24-5.58-2.05-3.47-6.65-3.2-10.15-3.17.56,1.14,3,1.54,1.48,2.95l-3.13-1.3ZM20.11,25.45c-1.17-.77-2.21,2.63-2.4,3.35-.62,2.43-1.18,6.72.92,8.49s4.92,1.14,6.36-1.21c2.12-3.44-.94-7.6-2.58-10.64l-.92.55-.06,2.08h-.98s-.33-2.63-.33-2.63Z"/>
  </g>
</svg>