<?xml version="1.0" encoding="UTF-8"?>
<svg id="Layer_3" data-name="Layer 3" xmlns="http://www.w3.org/2000/svg" viewBox="0 0 62.24 88.24">
  <g id="Layer_1" data-name="Layer 1">
    <path d="M44.84,20.99c3.28-1.66,6.27-2.46,10-2,8.11,1,8.85,10.16,5.59,16.17-2.73,5.03-7.53,7.49-13.13,7.99.12,1.41,1.43,2.36,1.85,3.68,4.07,12.57-13.47,17.47-20.72,9.44-.4,10.97,1.64,21.78,7.78,30.98l-1.41,1c-7.6-8.65-9.27-21.21-8.84-32.39-1.48.52-2.5,1.4-4.09,1.85-11.93,3.39-22.81-7.33-11.91-16.82C5.14,38.5,1.1,34.9.22,29.3c-1.79-11.45,7.4-17.19,17.12-11.59C14.1,8.13,19.22-2.67,30.57.6c1.58.46,2.89,1.66,4.66,1.9s3.59-.12,5.52.22c4.99.89,8.85,4.4,8.08,9.76-.46,3.16-2.76,5.68-3.99,8.51ZM26.29,2.21c-2.73.27-5.91,2.45-6.79,5.13-1.68,5.1.14,10.92,3.01,15.25,3.42,5.15,3.02,2.49,7.35,2.46,1.92-.01,4.15.94,6.05,1.18,4.87-3.58,16.05-15.63,6.87-20.23-3.91-1.96-6.39-.13-9.13-.68-2.38-.48-3.25-3.54-7.36-3.13ZM8.63,18.21c-8.27,1.56-7.27,12.33-2.57,17.15,5.62,5.76,9.2.9,14.99-1.44l1.55-6.1c-.05-.5-5.05-7.76-5.67-8.25-1.86-1.46-6.05-1.78-8.29-1.35ZM50.89,21.5c-2.51.35-6.12,2.25-8.38,3.52-1.2.68-5.31,2.94-5.48,3.99-.13.87.54,5.68,1.06,6.31.74.92,7.49,5.07,8.69,5.26,12.01,1.9,20.46-21.33,4.11-19.08ZM28.73,27.65c-2.79.17-4.3,2.15-4.65,4.81-.68,5.14,9.43,7.82,10.72,1.68.93-4.43-1.73-6.75-6.07-6.49ZM27.98,40.3l-5.91-2.88c-4.48,1.74-13.18,4.89-13.74,10.43-.85,8.45,13.07,10.64,17.12,4.4l2.53-11.95ZM30.56,40.34c-1,.73-1.55,10.77-1.29,12.41.88,5.57,15.05,6.8,17.42.25,2.26-6.22-5.03-12.48-10.32-14.38l-5.82,1.72Z"/>
  </g>
</svg>