<?xml version="1.0" encoding="UTF-8"?>
<svg id="Layer_2" data-name="Layer 2" xmlns="http://www.w3.org/2000/svg" viewBox="0 0 105.91 102.36">
  <g id="Layer_1" data-name="Layer 1">
    <g>
      <path d="M61.73,92.03c-.42,3.99-4.17,13.04-9.54,9.54-3.35-2.18-4-15.83-4.71-19.98-.1-.57-.16-2.29-1.11-1.9-.82.34-6.72,11.01-8.57,13.1-8.61,9.78-14.17,3.78-10.85-7.33.75-2.52,2.24-4.99,3.13-7.46.2-.56.49-1.31-.34-1.32-.37,0-5.16,3.28-6.3,3.77-2.7,1.15-11.85,4.07-13.34.74-2.72-6.07,10.9-16.25,14.85-19.63-5.09,1.44-20.52,3.16-24.03-1.15-2.01-2.47-.37-5.2,1.7-6.82,6.12-4.8,14.88-5.79,22.33-6.64-4.72-3.99-11.04-5.89-15.85-10.09-2.54-2.21-7.67-7.81-2.98-10.51,5.34-3.07,17.11,2.85,22.36,4.98-2.81-3.99-6.09-7.87-7.94-12.46-1.7-4.21-3.8-11.1,3.07-11.03,7.32.07,12.7,12.34,17.46,16.95l-.99-15.36c.92-3.82.62-10.99,6.56-9.1,3.78,1.2,6.78,15.08,7.03,18.92,2.61-3.12,3.65-7.44,5.83-11.04,2.57-4.25,8.5-11.63,10.24-2.26,1.01,5.41-1.01,10.03-1.46,15.32,3.28-3.09,11.21-16.1,16.82-12.54,4.1,2.6-1.92,14.15-3.82,17.24-1.27,2.06-3.15,3.83-4.44,5.88,3.94-1.08,7.42-3.29,11.33-4.54s14.88-4.8,14.35,2.72c-.45,6.38-13.21,11.5-18.11,14.17,5.33.06,21.12.71,21.51,8.14.18,3.32-7.11,6.22-9.67,6.22h-9.82c-.28,1.17.23.83.64,1.15,2.25,1.77,4.95,3.02,7.16,4.91,11,9.41,7.46,17.9-7.28,12.32-3.57-1.35-6.57-3.88-10.08-5.28,2.66,4.89,10.87,18.27,4.8,22.68-4.64,3.36-11.11-4.71-13.57-8.11-1.25-1.73-3.94-7.4-4.81-8.19-.56-.5-.85-.35-1.54-.33-.35,4.6.48,9.84,0,14.36ZM51.08,38.3c1.14-7.4.77-15.79-.59-23.19-.86-4.68-6.06-20.31-7.39-6.7-.65,6.66.43,14.16,2.05,20.61.38,1.51,2.43,8.99,3.31,9.29h2.63ZM66.01,4.63c-6.73,5.14-12.81,24.14-11.34,31.98.24,1.28,3.01,2.69,4.04,2.04,1.34-.85,6.83-18.63,7.4-21.34.36-1.71,2.29-12.65-.1-12.69ZM22.05,11.29c-.45.44-.62,1.45-.59,2.09.21,4.46,8.16,15.87,11.29,19.46,1.09,1.26,9.86,10.25,10.57,10.07,3.87-3.22,1.26-6.28-.65-9.91-2.52-4.78-11.32-18.63-15.45-21.33-1.3-.85-3.95-1.59-5.17-.38ZM83.89,10.67c-6.14,1.58-10.98,8.86-14.51,13.94-1.5,2.16-8.55,13.1-8.09,14.91,1,3.9,5.68-.66,7.25-2.15,2.72-2.58,7.03-7.83,9.21-10.94,3.19-4.55,6.22-10.06,6.14-15.77ZM9.69,27.89c-1.96.28-2.8,1.97-1.99,3.8,2.05,4.65,16.3,11.24,21.16,13.1,2.37.91,8.44,3.33,10.58,3.57,1.47.17,2.14-1.38,2.01-2.62-.2-1.83-8.35-7.5-10.29-8.79-4.09-2.7-9.92-6.17-14.55-7.62-1.31-.41-5.85-1.6-6.92-1.45ZM99.43,28.88c-.74-.18-1.66-.91-2.31-1-4.93-.64-20.02,7.06-24.57,9.97-1.22.78-6.1,4.05-6.79,4.81-1.49,1.63,1.09,3.37,3.2,3.22,4.38-.32,13.11-3.55,17.29-5.41,2.66-1.18,15.66-7.59,13.18-11.6ZM57.7,41.9c-.06-.02-.25-.64-.86-.88-7.06-2.79-13.15,4.48-13.28,11.21-.12,6.07,8.79,9.01,13.75,7.21,3.68-1.34,4.24-2.67-.29-2.97-2.42,5.8-5.28.8-1.8-1.2.23-.13,2.25-1.18,2.39-1.22,2.45-.81,4.28-1.1,4.64,1.96.96.74,1.64-7.47,1.29-8.58-.12-.37-2.12-4.1-2.31-4.26-.78-.67-2.44-.82-3.52-1.27.25,1.17-.44,2.84-1.53,3.3-.86.36-3.84-.41-5.64.25-.83.3-.95,2.39-2.4,2l-.96-2.28c2.78-3.47,6.67-2.09,10.53-3.26ZM67.85,48.52c-.01,1.9-1.35,3.38.82,4.33,2.7,1.18,14.7,2.96,18.01,3.15,4.97.29,13.34.12,16.39-4.28,0-2.68-9.63-4.6-11.87-4.78-7.68-.63-15.8.25-23.34,1.58ZM24.86,49.58c-4.98.83-18.4,2.09-21.1,6.66-1.67,2.83,1.73,3.86,3.94,4.18,6.64.96,25.91-2.32,31.72-5.8,1.48-.89,1.32-1.72,1.08-3.32l-.76-.75-14.88-.96ZM67.63,55.07l-1.81,1.8c-.34,1.37,2.49,3.96,3.46,4.94,4.97,4.97,17.39,14.06,24.43,14.37,4.37.19,4.14-2.68,2.38-5.92-3.97-7.33-20.85-12.61-28.46-15.2ZM37.32,65.86c1.37-1.48,5.29-4.7,5.31-6.57.01-1.67-1.05-2.4-2.68-2.18-4.67.62-16.61,8.65-20.3,11.99-1.58,1.43-9.02,9.05-7.29,11.09,2.68-.65,5.37-.51,8.07-1.25,5.81-1.6,12.85-8.7,16.9-13.08ZM63.58,60.61c-.88.08-3.78,2.65-3.77,3.61.03,2.37,7.68,16.13,9.46,18.75,1.35,1.99,8.11,10.56,10.45,9.46,3.42-2.94.06-9.76-1.6-13.27-3.23-6.83-8.61-14.03-14.54-18.55ZM29.55,94.74c1.88.52,3.13-.62,4.48-1.69,5.81-4.61,13.57-21.93,14.07-29.3.22-3.24-2.83-2.98-4.75-1.18-2.3,2.17-7.25,9.34-8.91,12.25-3.15,5.53-6.73,13.55-4.89,19.92ZM55.91,97.06c2-1.5,2.46-3.18,2.73-5.59.47-4.23.24-23.58-2.19-26.39-.61-.7-2.55-.6-3.49-.91-1.05.23-1.55,3.23-1.74,4.26-1.39,7.32-1.92,20.7,1.09,27.51,1.02,2.31,1.62,2.63,3.61,1.13Z"/>
      <path d="M47.62,48.45v2.52c2.33-1.52,3.6-2.44,5.54.25l-1.75,1.25-3.79-1c.25,1.49,1.26,3.32-.25,4.52-.58-.75-2.29-1.77-2.29-2.76,0-1.65,1.96-.7,2.04-1.76l-2.51-.25,1.07-2.7,1.94-.07Z"/>
      <path d="M59.71,47.44h2.52c.28,1.87-.36,3.48-2.27,4.05l-1.24-.83.49-1.7c-1.35.12-2.13-.55-2.43-1.86.34-1.15,1.73-3.57,3.17-3.19,1.82,1.31-.17,2.08-.24,3.52Z"/>
      <path d="M52.66,58.53c-2.41.61-4.07-2.3-2.27-4.02,1.87.91,2.61,1.83,2.27,4.02Z"/>
      <path d="M57.19,53.49l-2.45-.57c-1.99-2.38,4.46-5.5,2.45.57Z"/>
    </g>
  </g>
</svg>