<?xml version="1.0" encoding="UTF-8"?>
<svg id="Layer_3" data-name="Layer 3" xmlns="http://www.w3.org/2000/svg" viewBox="0 0 83.85 83.18">
  <g id="Layer_1" data-name="Layer 1">
    <path d="M37.47,11.07c.18-1.77,2.04-10.05,3.54-10.67,3.79-1.58,4.5,1.95,5.1,4.72.72,3.33,1,6.97.95,10.37l6.89-9.79c1.07-.89,2.12-1.69,3.59-1.27.77.26.94,1.32,1.03,2.04.59,4.95-2.15,9.32-3.07,14.01,3.56-2.96,8.04-9.09,12.95-9.5.57-.05,1.07.04,1.53.39,1.89,5.58-3.78,10.46-6.81,14.48,2.91-1.43,14.27-5.85,16.46-2.83,1.28,1.77-2.83,5.71-4.19,6.86-2.95,2.52-6.25,3.92-9.59,5.75,1.73-.04,3.44-.26,5.19-.21,3.34.1,8.04.4,10.93,2.11,1.26.75,2.26,1.25,1.75,2.9-1.07,3.46-11.89,5.27-15.18,4.97.05.55.57.6.95.78,2.44,1.13,11.34,4.64,12.04,7.17.41,1.48-1.38,3.39-2.8,3.58-4.78.63-9.03-1.35-13.63-1.93,2.72,2.36,5.36,4.77,7.21,7.93,1.34,2.28,3.7,6.54-.54,6.99-3.93.42-10.52-5.69-13.95-7.64,1.83,4.67,4.41,8.73,3.83,14s-7.72-1.15-8.75-3.53l-3.9-6.26c-.1,2.48-.96,15.26-2.68,16.3-4.64,2.81-8.12-10.3-7.68-13.24-.87-.16-.61.04-.86.49-1.72,3.17-5.02,12.08-10,10.56-.91-.28-1.09-1.39-1.25-2.21-.86-4.5,1.09-8.79,2.13-13.06-2.69,2.55-10.83,9.3-14.57,7.48-.34-.16-.58-.5-.71-.85-.46-1.7,2.78-7.07,3.85-8.67l4.91-6.4c-4.11,1.5-12.22,5.4-16.37,3.52-.51-.23-1.44-.54-1.61-1.09-1.12-3.47,9.99-10.1,13-10.87l-.2-.77c-.35.04-.66.39-.76.39H7.36c-.23,0-3.56-.81-4.02-.96-.51-.17-3.12-1.45-3.29-1.72-.4-4.21,1.77-4.92,5.21-5.94,3.61-1.07,7.23-1.27,10.93-1.73.53-.07,1.16-.22.57-.76-3.3-.76-12.92-4.72-13.24-8.4-.14-1.59,1.94-2.06,3.18-2.24,4.91-.73,9.15,1.58,13.9,2.2-1.43-1.97-3.62-3.12-5.18-4.98-1.33-1.57-6.36-8.73-2.32-9.23,5.23-.65,10.32,4.33,14.4,6.92-1.09-2.81-2.41-5.59-3.16-8.53s-1.75-6.35.46-8.83c1.97-2.21,4.96,1.56,6.15,2.99,2.6,3.14,4.2,6.86,6.53,10.15.14-1.92-.2-4.06,0-5.94ZM42.83,29.29c.3-3.56,1.64-6.99,1.91-10.55.25-3.26.56-13.18-1.35-15.51-.51-.62-.81-.93-1.7-.78-2.96,8.35-2.97,17.58-1.19,26.21l2.33.64ZM26.2,5.92c-2.17.74.31,7.74.97,9.31,2.11,5.04,5.48,9.3,8.36,13.88,2.21,1.42,2.87.42,2.71-1.93-.3-4.29-5.43-14.02-7.9-17.81-.69-1.06-2.72-3.94-4.14-3.46ZM56.26,7.04c-.67-.77-4.21,4.76-4.53,5.25-1.96,3.03-7.12,13.06-6.13,16.34.32,1.07,1.53,1.36,2.44.68,1.02-.77,3.06-4.24,3.68-5.52,1.11-2.28,5.9-15.2,4.53-16.75ZM68.15,13.56c-.67-.06-1.26-.03-1.9.21-1.57.59-8.25,6.86-9.6,8.43-.78.91-5.8,7.63-5.99,8.23-.3.93.63,2.2,1.4,2.52.89.38,3.61-2.2,4.4-2.91,2.21-1.96,4.87-4.77,6.7-7.09.95-1.21,6.02-8.36,5-9.38ZM14.07,16.25c-.08.85.16,1.63.46,2.41,1.09,2.83,6.78,7.49,9.32,9.47,2.35,1.82,4.76,3.51,7.37,4.94.96.24,1.58-.92,2.23-1.49.63-1.5-4.4-6.41-5.58-7.47-.9-.81-3.07-2.57-4.04-3.25-1.13-.79-9.1-5.31-9.77-4.61ZM54.84,34.38c-.77.91-.5,2.31.52,2.91,1.49.42,13.13-5.12,15.1-6.28,2.39-1.4,5.54-3.49,6.51-6.13-.6-2.01-8.74,1-10.23,1.65-4.4,1.9-8.34,4.69-11.9,7.85ZM7.45,28.22c-.57.13-1.05.43-1.42.87.5.52.99,1.05,1.56,1.5,3.49,2.79,16.53,7.15,20.87,6.78,2.83-.24.97-2.13-.46-3.02-4.16-2.59-15.9-7.17-20.55-6.13ZM55.51,42.3c2.64.3,5.56,1.1,8.21,1.18,3.65.12,12.61-.3,15.64-2.03.73-.42,1.25-1.02,1.81-1.63-.49-.61-.96-1.04-1.69-1.37-3.04-1.35-10.82-1.45-14.21-1.12-1,.1-8.71,2-9.18,2.33-.88.62-.63,1.64-.58,2.64ZM13.61,39.75c-2.49.2-10.4,1.44-11.64,3.71-.44.8.35,1.12.89,1.44,3.25,1.96,13.42,1.26,17.37.69,2.29-.33,9.02-1.71,8.66-4.64-.1-.46-.52-.66-.9-.85-1.79-.9-11.81-.57-14.37-.36ZM55.73,44.72c-2.07.39-1.52,2.81.18,3.9,3.61,2.31,17.65,6.86,21.65,6.38,2.51-.3,1.06-1.66-.09-2.64-3.46-2.96-10.63-5.41-15.07-6.41-.9-.2-6.32-1.3-6.68-1.23ZM27.79,45.84c-1.07.14-4,1.31-5.16,1.78-5.68,2.32-11.53,5.89-15.84,10.23-.02,2.54,10.73-.94,11.98-1.43,2.15-.84,10.81-5.48,11.35-7.47.39-1.45-.66-3.32-2.33-3.11ZM71.98,67.63c.2-.19-.73-2.27-.94-2.7-1.44-2.83-7-8.83-9.6-10.72-1.2-.87-6.7-4.17-7.86-4.45-1-.24-2.12.88-1.64,2.03.83,1.98,5.96,7.17,7.77,8.75,3.42,3,7.79,6.12,12.28,7.09ZM15.99,70.7c4.6-.34,9.24-4.54,12.28-7.85,1.37-1.48,5.82-7.23,6.07-8.92.2-1.36-1.84-2.48-3.02-2.23-2.53.54-10.75,10.35-12.42,12.9-.52.78-3.42,5.61-2.91,6.1ZM59.71,75.69c.19-5.22-2.3-10.47-4.78-14.96-.77-1.4-4.09-7.15-5.39-7.29s-2.51,1-2.32,2.32c.43,2.94,3.47,9.53,5.01,12.27s4.06,7.38,7.48,7.66ZM28.65,78.76c1.81.14,3-1.79,3.99-3.1,3.95-5.27,6-12.9,6.29-19.43.05-1.14-2.22-1.53-3.17-.46s-3.79,6.69-4.43,8.22c-1.83,4.38-3.32,10.11-2.68,14.77ZM44.66,55.45c-.54-.48-2.44-.56-3.1-.12-1.22.81-1.54,10.65-1.42,12.51s2.14,13.43,4.8,12.83c.52-.35.66-.9.86-1.45,1.4-3.67,1.21-15.71.31-19.67-.11-.5-1.29-3.96-1.45-4.11Z"/>
  </g>
</svg>