<?xml version="1.0" encoding="UTF-8"?>
<svg id="Layer_2" data-name="Layer 2" xmlns="http://www.w3.org/2000/svg" viewBox="0 0 80.69 81.24">
  <g id="Layer_1" data-name="Layer 1">
    <g>
      <path d="M55.08,17.58c.3.34,6.58-3.86,7.64-4.25,4.87-1.79,11.63-.42,13.84,4.67.25.57.92,2.92.92,3.47-.02,1.42-1.32,3.1-1.06,4.56.22,1.21,1.72,2.07,2.37,3.09,5.91,9.36-2.96,16.92-12.02,17.24-.57.5,3.86,4.38,4.38,5,3.21,3.81,5.84,9.11,3.61,14.05-1.5,3.31-5.4,5.01-8.85,4.48-2.2,5.92-5.16,9.17-11.89,8.6-3.99-.33-5.68-2.52-7.79-5.55-.78-1.11-2.61-4.91-3.04-5.3-.5-.47-.79-.51-1.45-.42-2.12,6.59-7.05,16.31-15.43,13.55-3.72-1.23-4.49-3.92-6.54-6.83-12.76,2.16-14.83-9.85-7.86-18.41.46-.56,4.12-3.67,3.55-4.16-8.69,0-18.62-5.55-14.49-15.53.91-2.21,4.29-4.83,4.42-5.19.72-2.08-1.84-4.12-.02-7.94,2.43-5.09,9-5.65,13.83-4.08.96.31,5.44,3.1,5.85,2.7-2.12-5.98-4.22-13.33,1.29-18.1,2.21-1.91,5.28-1.78,7.87-.87,1.66.58,3,2.18,4.78,1.87,1.65-.28,3.08-3.82,6.69-4.18,10.05-.99,10.05,10.47,9.39,17.52ZM40.89,32.18c2.72-.16,3.44,1.38,5.42-1.05,1.83-2.23,5.41-9.86,6.07-12.7,1.11-4.72,1.59-15.91-5.21-16.52-4.09-.36-6.53,5.03-7.41,5.24-2.17.54-2.71-1.07-4.27-1.91-3.66-1.97-7.67-1.81-9.28,2.44-2.8,7.39,1.63,16.86,6.54,22.4,1.95,2.19,3.39,4.38,6.27,2.09,1.05-1.77-2.06-10.47.78-10,2.7.45.54,9.48,1.09,9.99ZM73.97,27.88c-2-2.79,3.19-6.97-.99-10.9-5.07-4.78-13.74-.42-17.7,3.93-1.49,1.64-8.21,11.48-8.14,13.11.05.95,1.32,2.66,2.32,2.76,1.86.19,8.18-5.39,10.21-3.99l.39,1.25c-3.92,3.05-11.71,1.96-9.94,8.92,4,1.12,8.15.87,12.26.87,2.36,0,4.3.38,6.89-.16,5.57-1.16,11.91-6.25,8.25-12.47-.84-1.43-2.97-2.49-3.56-3.32ZM32.54,38.42l1.2-4.28c-4.13-4-7.18-9.51-12.43-12.21-4.34-2.23-10.98-3.06-13.44,2.04-1.67,3.47.6,3.68-.36,6.31-1.04,2.85-4.01,3.83-4.88,7.63-2.12,9.2,8.85,11.76,15.95,10.95,2.1-.24,4.13-1.58,6.14-2.21,1.39-.43,7.51-1.64,7.79-2.66l-.77-3.71c-2.66-1.49-10.37.41-9.18-3.93l9.98,2.06ZM45.35,35.23c-2.49-2.08-8.33-.52-10.07,1.97-4.5,6.44,3.74,15.5,10.93,9.68,3.58-2.9,2.3-9.01-.86-11.65ZM43.1,50.64c-.41.38-.52,1.16-.5,1.71.18,4.67.83,10.18,2.69,14.43,2.03,4.65,5.49,10.03,11.26,9.63s5.55-8.25,9.25-9.11c2.31-.54,5.65-.01,6.9-3.11,3.01-7.47-7.22-16.42-13.78-18.12-2.91-.75-8.77-2.21-10.32,1.14-.54,1.18,2.06,3.55,2.82,4.69,1.06,1.6,3.18,4.57,3.87,6.14.55,1.26-1.05,1.69-2.09.83-1.58-1.32-4.47-8.55-6.48-9.39-.53-.22-3.25.83-3.62,1.17ZM32.09,60.48c-1.11.68-2.22-.24-1.96-1.72.46-2.6,5.58-7.52,5.36-9.68-1.89-5.05-8.38-1.36-11.84.25-3.86,1.79-6.68,3.51-9.43,6.84-3.08,3.73-5.99,8.63-2.86,13.27,2.82,4.19,6.44,1.32,9.12,2.11s3.6,7.24,8.27,7.53,8.47-6.33,9.97-10.09c2.31-5.76,2.45-11.21,2.55-17.37-6.22-5.34-7.78,8-9.17,8.86Z"/>
      <path d="M39.52,38.1c5.47-1.62,8.11,7.56,1.2,6.57-3.55-.51-4.19-5.68-1.2-6.57Z"/>
    </g>
  </g>
</svg>