<?xml version="1.0" encoding="UTF-8"?>
<svg id="Layer_2" data-name="Layer 2" xmlns="http://www.w3.org/2000/svg" viewBox="0 0 52.79 50.38">
  <g id="Layer_1" data-name="Layer 1">
    <g>
      <path d="M6.42,34.85c-.28-.06-2.59-1.37-2.96-1.65C1.38,31.66.27,29.31.04,26.75c-.68-7.54,7.26-10.53,13.45-8.35.05-1.05-1.23-1.29-1.82-1.96-.41-.47-.9-1.16-1.27-1.69C1.65,2.33,21.36-7.33,25.01,7.53c1.62.21,1.78-1.63,2.49-2.6,3.38-4.6,8.25-6.5,13.27-2.8,5.58,4.11,2.72,10.61-1.29,14.61,3.41.03,6.88-.17,9.71,1.98,4.07,3.09,4.79,7.73,1.62,11.82-2.74,3.54-6.05,2.77-10.01,3.32,2.21,4.18,3.62,8.85.33,13-2.49,3.13-8.12,3.31-11.17.97-1.73-1.33-2.2-3.62-3.14-5.43-.19-.36-.01-.81-.66-.64-.28.07-1.72,4.42-2.33,5.25-5.28,7.13-16.33,2.09-14.48-6.91.4-1.95,2.08-3.43,2.49-5.25-1.6-.22-3.94.3-5.43,0ZM25.34,16.75c-.54-5.24-2.49-16.46-9.89-14.99-2.25.45-5.24,3.33-5.54,5.64-.62,4.73,3.35,8.27,6.55,11.16.35.32,3.53,2.29,2.96,2.79-5.05-.78-12.44-4.48-16.26.69-2.39,3.24-1.37,7.13,1.62,9.51,3.28,2.6,6.06,1.89,9.48-.05.8-.46,4.37-3.59,5.16-2.9.14.62-.35.78-.66,1.15-1.63,1.99-3.69,3.38-5.21,5.65-2.43,3.63-4.41,7.97-.54,11.29,1.88,1.62,3.6,2.34,6.08,1.49,6.58-2.27,6.19-10.73,7.57-16.29.47-.47.6.03.65.49.13,1.03-.1,2.23,0,3.29.22,2.2.69,5.38,1.48,7.4,3.3,8.42,14.51,4.12,12.26-4.36-.94-3.56-4.46-5.53-6.84-7.97-.78-.8-.93-1.63.43-1.43,1.14.17,3.57,1.92,5.29,2.3,3.56.78,9.45.06,10.52-4.06.94-3.63-.43-7.36-4.06-8.65-2.11-.75-6.97-.39-9,.53-1.52.69-2.99,2.49-4.81,1.93.48-1.87,2.64-2.84,3.95-4.11,2.71-2.61,5.6-5.09,5.61-9.22.01-6.17-8.09-7.86-11.88-3.96-1.43,1.46-3.13,5.34-3.53,7.33-.09.44-.21,6.44-1.39,5.35Z"/>
      <path d="M23.6,18.46c1.71-.4,4.92.7,6.02,2.07,3.74,4.67-2.93,11.33-7.41,6.75-.33-.34-1.21-1.56-1.33-1.96-.11-.37-.46-3.48-.41-3.72.16-.82,2.24-2.93,3.13-3.13Z"/>
      <path d="M22.62,30.48c-.6.69-2.98.28-1.25-1.08,1.48-1.16,1.99.22,1.25,1.08Z"/>
      <path d="M31.26,30.9c-1.43-.08-1.86-.96-1.64-2.3,1.15.09,1.84,1.26,1.64,2.3Z"/>
    </g>
  </g>
</svg>