<?xml version="1.0" encoding="UTF-8"?>
<svg id="Layer_3" data-name="Layer 3" xmlns="http://www.w3.org/2000/svg" viewBox="0 0 137.53 155.2">
  <g id="Layer_1" data-name="Layer 1">
    <path d="M127.29,43.11c6.89,8.4.13,13.8-8.98,12.91-3.17-.31-7.46-2.06-10.15-3.74-3.6-2.24-5.04-5.67-9.6-1.55-8.21,12.61-17.14,24.67-25.92,36.84,1.03.8,4.02-2.99,4.88-3.69,7.82-6.34,16.39-11.68,26.86-11.63,1.66,0,6.29.43,7.12,1.71,2.56,3.93-7.53,10.85-10.46,12.59-10.51,6.24-23.59,9.8-35.61,11.63-7.97,9.72-14.47,20.49-21.4,30.94-1.02,1.54-4.28,5.17-4.65,6.46-.13.47-.31,1.45.61,1.07,1-.42,4.15-3.2,5.65-4.07,6.09-3.53,12.68-5.99,19.03-8.99.09-4.19-1.13-7.38.84-11.44,2.23-4.59,8.49-8.92,11.18-2.47.82,1.96.2,3.85,1.49,5.45,4.02-1.79,16.06-3.11,17.14,2.79,1.04,5.67-6.17,7.79-10.38,9.02-1.16.34-6.23,1.1-6.26,1.6,1.1,2.57,4.02,4.72,3.5,7.65-.73,4.14-2.67,4.11-6.47,3.65-5.21-.64-12.27-7.37-11.63-12.93l-1.28-.38c-4.99,2.4-10.19,4.54-15.01,7.26-3.35,1.89-10.46,6.2-13.1,8.67-1.03.97-4.79,9.1-5.68,11.01-.25.54-.38,1.11-.37,1.7l-1.66-.44-.45-.97c1.22-4.3,4.63-8.3,6.16-12.36,1.86-4.91,3.35-12.58,2.1-17.61-1.87-7.54-5.23-15.1-8.94-21.87l-.96.29c-6.27,10.42-17.09,2.12-13.86-7.7-13.39,3.12-15.27-13.92-1.85-14.36-1.38-4.16-2.78-11.08,2.13-13.38,5.69-2.67,8.05,1.44,11.6,5,5.61-4.55,13.88.32,13.15,7.23-.28,2.64-2.48,3.95-2.79,6.24,5.53,1.39,8.49,7.34,4.41,12.06-2.97,3.44-7.86,1.61-11.13-.47-.34-.11-.26.35-.24.7.12,1.86,4.24,7.7,5.35,9.94,2.97,6.01,5.15,12.72,5.32,19.46.93.19,1.08-.44,1.48-1.06,1.46-2.27,3.31-7.87,4.21-10.62,3.28-10.08,4.64-19.59,4.06-30.26-.22-3.96-2.54-18.05-4.24-21.23-.28-.53-3.66-4.38-4.15-4.65-1.64-.93-4.43-.99-6.45-1.89-5.24-2.33-12.37-12.49-5.12-16.24,2.99-1.54,4.5-.91,7.43.26.7-3.73,1.7-8.24,6.25-8.38,2.73-.09,6.79,1.65,7.19,4.67,3.77-1.4,4.58-3.61,8.92-1.28,8.87,4.76-.89,19.22-8.05,20.55-.83,1.83-.04,3.92-.62,5.77-.48,1.54-2.24,1.8-2.52,2.6-.39,1.16,2.3,10.74,2.66,12.95,2.69,16.76.24,27.79-5.61,43.36-1.37,3.64-3.68,7.12-4.05,11,9.31-11.41,16.26-24.54,24.89-36.47,1.07-3.02-1.3-5.74-1.71-8.25-1.26-7.65-1.81-21.58,3.67-27.65,2.56-2.84,7.61-2.55,8.33,1.76,1.51,9.1-3.03,16.07-4.05,24.16-.09.7-.44,1.23.59,1.05,8.96-12.4,18.13-24.64,26.44-37.51.24-.5.25-.97.12-1.51-.12-.47-3.17-6.01-3.62-6.6-3.17-4.13-11.24-6.12-14.74-12.12-3.17-5.43,2.03-11.68,7.75-12.24.05-4.16-.51-8.65,2.64-11.95s5.16-.98,7.28-1.51c.58-.14,2.63-2.37,4.03-2.94,6.99-2.81,10.23,3.1,12.97,8.37,2.11-.13,3.47-1.7,5.79-1.69,2.87,0,6.22,1.92,7.84,4.24,2.44,3.49,1.33,6.25,1.85,10.19,4.87.82,8.61,3.3,9.06,8.54.62,7.26-4.46,10.03-10.18,12.74ZM123.59,26.43c.83-4.16,2.91-6.16,2.32-10.9-.68-5.53-8.5-7.69-12.05-3.23-.73.92-1.94,4.62-3,4.4-1.4-1.73-.4-4.4-.81-6.61-.85-4.57-6.18-10.73-10.47-5.59l.39,7.1h-1.37c-2.49-10.04-10.15-6.93-10.24,2.54-.04,4.52,4.23,15.82,6.44,20.01.91,1.73,1.23,2.4,3.32,2.93-.01-3.76.61-7.66,1.39-11.35.13-.63-.05-1.17.7-1.61.4.5,1.39,1.06,1.51,1.66.37,1.93-1.78,8.28-1.92,10.94-.03.58-.41.82.43,1.28.77.19,1.23-.06,1.86-.43,1.39-.82,6.14-8.92,7.55-10.98.3-.44.49-1.02.54-1.55.77.49,1.49,2.58,1.31,3.35-.11.47-2.72,4.37-3.25,5.13-.93,1.34-6.19,6.11-2.86,6.73,1.43.27,10.82-7.98,12.21-5.95.36,2.04-2.46,2.24-4.01,3.16-1.99,1.18-4.09,2.43-6.04,3.67-.46.29-.83-.04-.59,1.04,5.52.1,9.77,1.44,15.38.33,6.06-1.2,15.05-6.49,12.76-13.88-.95-3.07-5.21-5.35-8.36-4.42-1.18.35-1.61,2.29-3.1,2.22ZM86.95,19.52c-4.59.62-8.36,3.3-6.21,8.3.82,1.91,11.05,11.42,12.27,10.19.02-1.15.4-1.94.17-3.14-.86-4.41-5.24-10.6-6.23-15.36ZM46.24,45.42c-.06-3.79,1.13-6-2.08-8.81-4.06-3.56-7.62,1.02-7.16,5.29.08.77,1.61,4.7,1.36,4.91-2.2.32-3.43-2-5.37-2.73-4.06-1.51-7.59-.11-5.53,4.61,2.24,5.13,7.81,8.98,13.03,5.55.62-.87-1.94-4.49-.04-5.56,2.31.59,1.88,3.5,2.79,4.61,1.98,2.43,2.66-3.41,3.11-4.29.68-1.33,2.11-1.21,1.91.49-.23,1.99-2.52,4.74.47,5.63,2.76-3.61,8.16-7.08,8.54-11.91s-4.43-7.7-7.52-2.86c-1.24,1.95-.68,5.27-3.49,5.07ZM105.41,42.75c-.27-.32-6.39-2.4-7.63-3.25-1.05-.72-1.2-1.95-2.44-1.95l-.39,2.42c3.27,4.8,4.5,9.12,10.99,4.92.11-.16-.36-1.93-.53-2.14ZM107.21,44.56c-.95.33-1.47,2.53-.8,3.43,1.01,1.33,8.81,5.33,10.57,5.66,5.27.99,15.1-1.07,9.6-7.75-1.93-2.34-6.51-.38-9.73-.46-2.43-.06-7.76-1.53-9.64-.88ZM45.73,61.59c2.45-4.9-.56-7.38-5.31-5.08-1.04,1.33,3.34,6.07,5.31,5.08ZM67.54,61.64c-1.31-.26-.74.38-1.07.99-3.75,6.99-4.06,13.15-3.04,20.95.2,1.56.9,2.97,1.34,4.45l.92-3.48c-.27-7.81.09-15.32,1.86-22.92ZM71.24,61.64c-1.81.13-2.34,3.07-2.65,4.53-1.25,5.87-.76,12.06-2,17.94-.35.6,1.1,1.15,1.18,1.15.61,0,2.48-10.68,2.95-11.86l.52-11.75ZM25.09,73.37c-2.28,2.19-1.62,4.42-2.12,6.92-.21,1.05-1.13,2.03-1.2,2.51-.12.82,2.21,2.23,1.07,4.76-1.28,2.83-4.59.47-5.31-1.6,2.17-4.51,4.11-6.66,2.64-11.92-2.67-9.5-12.84-5.5-9.08,3.52,1.1,2.64,3.99,3.96,4.12,6.76-2.12.55-3.49-1.55-5.45-1.77-8.27-.91-10.66,8.96-2.07,10.02,3.14.39,6.59-2.02,9.37-3.15-.29,2.51-3.06,4.11-3.8,6.61-2.26,7.57,6.26,11.38,9.28,5.57,1.77-3.41.3-5.37.55-8.94,2.39.52,4.02,2.53,6.49,3.46,9.84,3.74,9.05-7.68,2.9-8.92-1.1-.22-5.81.12-6.15-1.27-.23-.94,3.93-1.85,5.19-3,6.06-5.54-2.02-13.81-6.42-9.57ZM107.38,75.52c-.67-1.4-3.46-1.01-4.86-.91-9.15.62-18.68,7.58-25.11,13.79-.47.45-1.31.46-1.06,1.48l31.03-14.36ZM108.77,76.92c-11.92,4.53-23.12,10.64-34.61,16.11l-1.52,1.48c8.17-1.51,16.38-4.18,23.79-7.94,4.47-2.26,9.74-5.31,12.34-9.66ZM70.64,108.96c-2.33.72-5.69,10.35-2.82,12.41,4.74-1.37,8.52-3.9,7.57-9.45-.37-2.18-2.57-3.63-4.74-2.96ZM85.98,115.96c-5.58.31-11.13,2.79-14.71,7,.16.77,5.86,2.98,6.72,3.03,2.69.18,11.76-3.32,13.67-5.28,3.08-3.18-2.93-4.91-5.67-4.75ZM67.86,125.61c-2.52.84.28,6.35,1.35,7.78,2.28,3.05,8.67,7.08,10.83,2.14-.36-3.97-8.5-11.14-12.18-9.91Z"/>
  </g>
</svg>