<?xml version="1.0" encoding="UTF-8"?>
<svg id="Layer_2" data-name="Layer 2" xmlns="http://www.w3.org/2000/svg" viewBox="0 0 33.05 35.52">
  <g id="Layer_1" data-name="Layer 1">
    <path d="M24.49,31.99l-.06,1.46C8.68,40.76-4.94,27.55,1.74,11.33,9.4-7.25,36.44-1.79,32.7,19.07c-1.13,6.32-8.83,11.32-12.58,4.18-8.91,10-16.53-3.41-8.77-11.44,3.97-4.11,12.92-4.01,12.39,3.24-.13,1.8-1.18,3.46-1.43,5.05-1.21,7.62,7.6,5.08,8.57-2.09C33.45-1.16,8.84-3.78,3.07,13.04c-3.99,11.6,2.42,21.75,15.14,20.47,2.19-.22,4.09-1.46,6.28-1.52ZM16.79,11.15c-7.75.97-8.64,14.25-2.04,13.6,4.79-.47,11.52-14.79,2.04-13.6Z"/>
  </g>
</svg>