<?xml version="1.0" encoding="UTF-8"?>
<svg id="Layer_2" data-name="Layer 2" xmlns="http://www.w3.org/2000/svg" viewBox="0 0 41.56 27.42">
  <g id="Layer_1" data-name="Layer 1">
    <path d="M26.69.19c4.29.03,8.63.31,12.94.18l1.52,1.14.41,24.76-.75,1.15-40.22-.19c-.39-.27-.33-.74-.37-1.15-.43-3.56-.1-9.58,0-13.37.08-2.8.03-7.39.37-9.9.06-.42.05-.83.37-1.15.3-.43,2.7-1.26,3.25-1.32,6.42-.64,15.78-.2,22.48-.15ZM37.54,2.26H4.04s13.91,12.93,13.91,12.93l2.73,1.46L37.54,2.26ZM39.83,24.72l-.57-21.7-11.98,10.51,12.55,11.19ZM1.76,24.72l12.17-10.85L2.7,3.4c-.86-.16-.52.38-.57.94-.49,6.66.62,13.72-.38,20.38ZM37.93,25.87l-11.79-10.52c-1.62-.43-3.64,4.6-7.77,2.48-.97-.5-1.78-2-2.77-2.59-.73-.13-10.14,8.31-11.36,9.5-.37.36-.72.5-.58,1.14h34.27Z"/>
  </g>
</svg>