<?xml version="1.0" encoding="UTF-8"?>
<svg id="Layer_3" data-name="Layer 3" xmlns="http://www.w3.org/2000/svg" viewBox="0 0 107.33 23.47">
  <g id="Layer_1" data-name="Layer 1">
    <g>
      <path d="M29.55.93c.11,5.05,1.57,14.03-.51,18.61-2.5,5.48-10.93,4.19-11.98-1.74-.59-3.35-.59-8.73-.42-12.18.03-.7.33-4.49.45-4.69.37-.6,2.77-.65,2.92.59.77,4.05-1.29,14.34,1.38,17.28,1.68,1.85,4.4,1.07,4.77-1.38.77-5.1-.26-10.72.48-15.89.55-1.35,1.79-1.16,2.92-.59Z"/>
      <path d="M5.32,3.63c-3.08,3.09,5.11,7.34,6.59,9.41,4.54,6.33-3.09,13.23-9.61,9.23-2.08-1.28-3.63-5.28-.6-5.74,1.49-.22,1.29,1.8,2.19,2.63,2.7,2.48,6.54.24,5.45-3.55-.74-2.57-7.68-4.81-8.27-8.87C-.13-1.47,12.3-1.83,12.84,3.77c.11,1.15-.5,2.07-1.72,2.05s-1.53-2.22-2.73-2.58c-.73-.22-2.54-.14-3.07.39Z"/>
      <path d="M84.14,3.63c-3.13,3.16,4.45,6.86,6,8.86,5.04,6.51-2.27,14.1-8.88,9.65-2.2-1.48-3.09-5.72-.05-5.65,1.4.03.98,3.03,3.04,3.42,2.94.56,4.59-.97,3.9-3.91s-8.08-5.33-8.27-9.62c-.2-4.57,3.09-6.69,7.4-6.25,2.23.23,5.83,2.66,4.21,4.97-1.4,1.99-3.22-1.64-3.9-1.85-.74-.23-2.91-.15-3.46.4Z"/>
      <path d="M100.33.22c2.59-.36,8.2,1.25,6.76,4.45-1.74,3.86-3.57-3.47-7.04-.93-4.1,3.01,4.39,7.08,6.09,9.5,1.63,2.33,1.68,6.3-.38,8.38-3.87,3.9-12.84.43-10.84-3.99,1.53-3.39,2.83.84,3.43,1.5,1.17,1.27,4.94.96,5.43-.62,1.71-5.56-8.51-6.13-8.17-12.92.16-3.09,1.6-4.94,4.73-5.37Z"/>
      <path d="M65.01.5c1.97.4,9.31-1.29,10.31.25.38.59.54,2.41-.22,2.41h-6.66l-.38,6.85h5.9c.83.61.59,1.73.55,2.65l-6.03.06c-.4.34-.92,6.48.15,7.19h6.85c.89.74.85,2.36,0,3.05h-9.9l-.57-.57V.5Z"/>
      <path d="M42.98,16.93c.58-.37,2.45-.07,2.82.71-.8,5.89-7.79,7.53-11.19,2.41-3-4.53-2.34-17.11,3.43-19.29,2.23-.84,5.29-.58,6.72,1.52s1.62,3.61-1.26,3.95c-1.52-.16-1.63-3.35-4.12-2.61-3.57,1.05-3.88,13.15-1.43,15.37,1.26,1.14,3.34.57,4.38-.61.37-.42.5-1.34.64-1.44Z"/>
      <path d="M57.67,4.04c-3.84-3.11-5.47,4.4-5.62,6.92-.18,3,.39,11.48,5.47,8.23.67-.43.27-1.69,1.59-1.94,3.6-.69,2.04,3.67-.38,4.97-3.72,2-8.17.03-9.42-3.92-1.92-6.04-.32-20.56,9.12-17.5,1.81.59,3.85,3.95,2,4.86l-.93.2c-1.18-.11-1.31-1.38-1.84-1.81Z"/>
    </g>
  </g>
</svg>