<?xml version="1.0" encoding="UTF-8"?>
<svg id="Layer_3" data-name="Layer 3" xmlns="http://www.w3.org/2000/svg" viewBox="0 0 33.09 33.09">
  <g id="Layer_1" data-name="Layer 1">
    <path d="M33.09,16.54c0,9.14-7.41,16.54-16.54,16.54S0,25.68,0,16.54,7.41,0,16.54,0s16.54,7.41,16.54,16.54ZM15.27,2.24C-.19,3.05-3.82,25.8,11.84,30.22c7.49,2.12,15.21-.71,18.19-8.09,4.06-10.06-2.49-20.04-13.24-20.28l.77,14.47,1.4-.71.88.7c-2.13.39-1.54,2.99-3.23,3.45-.64,0-4.92-5.09-4.76-5.91l1.15-.4,2.66,2.48-.38-13.71Z"/>
  </g>
</svg>