<?xml version="1.0" encoding="UTF-8"?>
<svg id="Layer_2" data-name="Layer 2" xmlns="http://www.w3.org/2000/svg" viewBox="0 0 24.31 27.02">
  <g id="Layer_1" data-name="Layer 1">
    <path d="M21.07,17.37c-2.58,2.24-6.45,2.18-8.38,3.61-.58.43-.74,1.1-1.2,1.47-.84.68-5.94,4.68-6.46,4.57-1.47-.29.03-5.96-.26-6.96-.22-.75-2.3-2.21-2.92-3.19C-5.23,5.72,9.58-4.35,19.82,1.94c5.41,3.33,6.06,11.26,1.26,15.42ZM10.79,20.41c2.67-2.28,2.28-1.38,5.38-2.43,5.13-1.73,8.1-6.72,5.11-11.8C15.84-3.07-3.15,3.71,3.15,15.56c.75,1.41,2.84,2.37,3.13,2.97.77,1.59-.15,3.74.08,5.44,1.61-1.01,3-2.34,4.43-3.56Z"/>
  </g>
</svg>