<?xml version="1.0" encoding="UTF-8"?>
<svg id="Layer_3" data-name="Layer 3" xmlns="http://www.w3.org/2000/svg" viewBox="0 0 67.08 51.78">
  <g id="Layer_1" data-name="Layer 1">
    <path d="M7.25,9.52c4.16-1.12,4.97,1.54,0,1.14v7.61l2.41-.33.63,1.28-3.05.19v7.23c4.3-1.08,3.76,1.15-.02,1.76l.03,6.62c.14.16,2.6-1.2,2.66.57l-2.62,1.01-.43,8.71h10.28v-7.23l-3.66,2.63c-.91.14-1.22-1.17-.55-1.7l17.26-15.49c.49-.3.96-.31,1.51-.22,1.73.29,7.18,3.46,8.65,2.8L57.12,6.66c-1.16-.46-4.48,1.36-5.14,1.32-.39-.02-.85-1.1-.4-1.54l8.37-2.62.61.93c-1.12,2.74.38,7.39-2.29,8.95-.62-1.72.09-3.25,0-5.15-.02-.43.25-1.05-.38-.94l-6.03,7.89c.63,9.76.37,19.66-.06,29.42h6.28l.44-.57c.42-3.93-.26-7.87-.26-11.78,0-5.57.33-11.07.4-16.59.64-.32,1.14.65,1.14.95v27.98h6.66c.39,0,.78,1.19.57,1.52-.06.1-1.73.42-2.1.42l-57.11.35-.9.62-.12,3.31-1.07.63-.38-4.57c-.35-.34-5.69.77-5.33-.94.18-.86,4.07-.61,4.97-.76l.37-.77.21-42.89.74-1.85.95.57v8.95ZM50.65,44.93l-.19-28.17-9.34,11.24c-1.21.85-6.81-2.56-7.22-2.1v19.41c2.32,0,4.8-.88,7.05-.05l.51-.55.05-15.2,1.14-.95v16.37h8ZM32.76,45.31v-19.61c0-.67-1.63-.67-2.28-.37-.34.16-4.02,3.94-4.12,4.26-.54,2.19.3,4.78.29,6.78,0,1.63-.43,3.7-.4,5.32.02,1.3.62,2.33.04,3.62h6.47ZM25.14,30.84l-6.51,5.52-.27.44c-.04.36.31.6.31.7v7.81h6.47v-14.47Z"/>
  </g>
</svg>