<?xml version="1.0" encoding="UTF-8"?>
<svg id="Layer_3" data-name="Layer 3" xmlns="http://www.w3.org/2000/svg" viewBox="0 0 50.17 45.79">
  <g id="Layer_1" data-name="Layer 1">
    <path d="M14.27,5.96c-.37-4.24.64-5.41,4.74-5.73,3.22-.25,9.85-.36,12.97,0,.58.07.95.14,1.47.43,2.25,1.26.7,4.42,2,4.85,5.69.58,13.92-2.63,14.62,5.56.38,4.45-.44,8.03-.79,12.18-.41,4.87.45,10.39.03,15.26-.3,3.47-1.8,6.23-5.53,6.65-11.52-.57-23.59,1.23-35.04.39-3.6-.26-6.94-1.01-7.41-5.15-.57-4.96.61-11.08.01-16-.17-1.36-.99-2.61-1.15-4.18-.21-2.06-.3-8.31.08-10.19.09-.44.97-2.23,1.26-2.55,1.76-1.9,10.07-1.4,12.74-1.54ZM32.92,5.57l-.18-2.68c-1.04-1.59-13.04-.29-15.55-.29-1.51.43-1.15,2.97-.46,2.97h16.18ZM19.2,24.97c.22-.23-.42-1.92,1.36-2.26.94-.18,7.51-.17,8.29.06,1.01.3.95,1.38,1.22,2.21l.73.36c3.77-.68,14.59-1.18,16.77-4.57.88-1.37.75-7.04.6-8.95s-.23-3.97-2.51-4.34c-2.41-.39-8.25-.4-11-.41-6.48-.02-13.31.53-19.8.79-2.54.1-11.39-.76-12.57,1.89-.47,1.06-.34,11.5.29,12.45,1.51,2.26,15.98,3.43,16.63,2.75ZM3.22,24.99v15.42c0,1.83,2.81,3.07,4.38,3.24,7.38.79,16.85-.18,24.35-.39,3.44-.1,9.82.59,12.78-.17.55-.14,1.53-.71,1.85-1.19,1.39-2.11.72-10.34.78-13.3.03-1.33.52-3.17.4-4.54-.04-.47.13-.78-.56-.57-.96.28-2.3,1.18-3.43,1.52-3.2.96-6.59,1.53-9.92,1.89-1.06.11-2.43-.21-3.37.06s-.19,1.15-.32,1.92c-.16.92-.41,1.84-.64,2.74-4.03.93-11.5,2.34-10.37-4.09l-.57-.57c-5.19-.04-10.46-.14-15.37-1.96ZM21.19,29.87c2.23.91,4.51.04,6.81-.09l.19-5.19c-.76-1.09-5.66.44-7.05.04-.37,1.85-.53,3.4.05,5.24Z"/>
  </g>
</svg>