<?xml version="1.0" encoding="UTF-8"?>
<svg id="Layer_2" data-name="Layer 2" xmlns="http://www.w3.org/2000/svg" viewBox="0 0 77.97 23.5">
  <g id="Layer_1" data-name="Layer 1">
    <path d="M67.72,2.17c.08,1.57,2.66,1.83.75,3.22-7.88,3.29-14.89,8.33-22.44,12.2-2.5,1.28-6.09,3.42-8.91,3.19-5.49-.44-7.65-8.05-12.42-9.31-2.74-.72-7.41,1.77-9.92,3.05-5,2.56-9.55,5.95-14.26,8.96-.99-.65-.38-1.41.18-2.1,1.7-2.07,10.97-7.33,13.76-8.71,4.61-2.29,8.96-4.62,13.79-1.32,3.63,2.48,5.88,9.26,11.6,7.29l25.18-13.65c2.34-1.9-1.32-2.85-1.12-3.79.52-.63,1.51-.7,2.27-.78,2.63-.26,8.02-.59,10.5-.38.44.04,1.19.39,1.29.82l-8.17,14.24c-1.67.34-.55-4.39-1.13-5.32-2.09.88-4.07,1.99-6.02,3.11-3.28,1.89-7.56,5.28-10.77,6.74-.62.28-1.16.5-1.86.42-.75-1.19.91-1.87,1.74-2.44,3.5-2.4,13.85-9.12,17.49-9.97,1.97-.46,1.38,2.13,1.33,3.27l4.76-8.76h-7.61Z"/>
  </g>
</svg>