<?xml version="1.0" encoding="UTF-8"?>
<svg id="Layer_3" data-name="Layer 3" xmlns="http://www.w3.org/2000/svg" viewBox="0 0 53.14 53.14">
  <g id="Layer_1" data-name="Layer 1">
    <g>
      <path d="M53.14,26.57c0,14.67-11.9,26.57-26.57,26.57S0,41.24,0,26.57,11.9,0,26.57,0s26.57,11.9,26.57,26.57ZM51.36,26.56c0-13.69-11.1-24.79-24.79-24.79S1.79,12.87,1.79,26.56s11.1,24.79,24.79,24.79,24.79-11.1,24.79-24.79Z"/>
      <path d="M48,26.52c0,11.81-9.58,21.39-21.39,21.39S5.23,38.33,5.23,26.52,14.8,5.13,26.62,5.13s21.39,9.58,21.39,21.39ZM36.26,43.32c17.41-10.03,10.58-36.56-9.52-36.17,1.37,4.38-2.1,5.37-.76,0-4.32-.11-8.92,1.57-12.19,4.37-.75.65-3.96,3.94-3.41,4.75.73.14,1.38.49,2.02.86.39.22,1.31.18,1.01.87-.71,1.6-3.1-.61-3.61-1.32C-.02,33.9,18.29,53.67,36.26,43.32c-1.27.24-2.85-2.87-2.28-3.42,1.05-1.03,2.57,3.11,2.28,3.42Z"/>
      <path d="M27.12,13.62v8.19c0,.08-.32.27-.2.58.48,1.21,3.83,1.32,2.57,4.84-1.07,2.96-3.56,1.81-5.42,3.33-1.51,1.23-2,3.65-3.22,4.78-2.07,1.93-1.9-.69-.97-2.49.54-1.05,2.84-3.3,3-3.88.34-1.21-.63-1.97.36-3.8.47-.88,1.46-1.41,1.74-2.01.79-1.67-.17-6.83.29-8.9l1.85-.62ZM27.85,25.08l-2.25-.24-.76,2.49c1.9.53,3.26-.1,3.01-2.25Z"/>
      <path d="M17.22,42.93c.14-1.44.15-2.71,1.33-3.8,1.6.83-.34,4.4-1.33,3.8Z"/>
      <path d="M42.71,34.58c.61,2.68-3.23.74-3.03-.2.27-1.25,2.39.07,3.03.2Z"/>
      <path d="M40.07,19.71c-.34-1.59.86-2.09,2.09-2.67.53-.25.32-.58.95.21.15.8-2.78,2.77-3.04,2.47Z"/>
      <path d="M18.31,10.62l1.57,3.37c-1.94.55-1.97-1.51-2.67-2.85-.17-.84.51-.62,1.1-.52Z"/>
      <path d="M36.26,9.81c.29.28-1.34,3.73-2.66,3.04-.29-.28,1.34-3.73,2.66-3.04Z"/>
      <path d="M11.51,26.18c-.11,1.85-2.05,1.58-3.42,1.52.73-1.33,2.04,0,1.15-1.9l2.28.38Z"/>
    </g>
  </g>
</svg>