<?xml version="1.0" encoding="UTF-8"?>
<svg id="Layer_2" data-name="Layer 2" xmlns="http://www.w3.org/2000/svg" viewBox="0 0 64.59 48.92">
  <g id="Layer_1" data-name="Layer 1">
    <g>
      <path d="M62.95,41.06c.47.59,1.09.64,1.47,1.77.79,2.32-1.32,5.34-3.75,5.57-18.52-.62-37.17.86-55.55.44-2.72-.06-5.23-1.77-5.12-4.75s7.1-7.19,8.34-9.94c.63-9.75-.81-20.46,0-30.08.15-1.76.24-2.78,2.14-3.19,2.04-.44,6.76-.38,9.09-.43,10.06-.2,23.81-.91,33.54,0,2.18.2,3.71.89,3.99,3.24.95,8.03-.05,19.71.01,28.2,0,.77-.2,1.48-.31,2.22,2.09,2.28,4.23,4.53,6.15,6.95ZM55.19,33.59V3.32c0-.44-1.5-1.2-2.07-.97-14.06.3-28.24-.52-42.21.48l-.64.5v30.08c1.6,1.31,4.12.55,5.89.55,11.59.03,24.82.8,36.2.03.97-.07,1.87-.42,2.84-.4ZM62.04,43.11c.17-.66-.27-.76-.57-1.14-.64-.83-5.12-5.78-5.69-6.11-1.63-.94-8.9,0-11.42.03H9.7s-7.43,7.22-7.43,7.22h59.77ZM62.8,44.63l-60.92.19c.25,1.43,1.11,1.94,2.47,2.1,8.33.99,18.52-.76,27.06,0l12.52-.41,5.36.41c3.55-.89,8.47.22,11.78-.4.77-.15,1.79-1.04,1.72-1.89Z"/>
      <path d="M52.52,30.35c-.2.71-1.82,1.16-2.55,1.17l-36.67-.02-.78-1.51c.54-7.24-.61-15.37,0-22.5.07-.82.23-2.46,1.35-2.46h38.07l.57.57v24.75ZM50.62,6.56H14.45v23.23h36.17V6.56Z"/>
      <path d="M12.16,39.3v-1.52c1.86.12,3.66-.3,5.5-.38,11.22-.47,22.8-.22,33.98-.07,1.64.26,1.82,1.4-.05,1.61-7.17.8-16.87-.15-24.4-.03-.9.01-1.73.39-2.63.41-4.13.08-8.27-.09-12.39-.02Z"/>
      <path d="M39.01,40.06c.61.14.6.78.02,1.16-.97.64-10.49.51-10.87-.02-.16-.35.34-1.14.57-1.14h10.28Z"/>
      <rect x="21.84" y="16.58" width="21.67" height="1.37" transform="translate(-2.64 28.15) rotate(-44.98)"/>
      <path d="M42.62,14.94c.13.88-.3,1.43-.76,2.09-.68.96-4.5,5.04-5.5,5.92-.58.51-1.27,1.17-2.11,1.12-.31-.3,1.05-1.95,1.33-2.29,1.34-1.63,3.79-4.23,5.33-5.72.49-.48.94-1.23,1.72-1.13Z"/>
    </g>
  </g>
</svg>