<?xml version="1.0" encoding="UTF-8"?>
<svg id="Layer_3" data-name="Layer 3" xmlns="http://www.w3.org/2000/svg" viewBox="0 0 78.88 62.09">
  <g id="Layer_1" data-name="Layer 1">
    <g>
      <path d="M71.64,59.61c-.01.11-.57.43-.38.57l7.62.39-.22,1.53-76.31-.39.03-1.49,7.21-.41v-10.85c0-.07.88-.95.95-.95h9.52c.54.33.53.76.59,1.31.38,3.26-.67,7.15-.4,10.49l5.16.28c.58-.21.53-.72.57-1.22.24-2.53-.52-15.72.16-16.59,3.56-1.04,7.35-.64,11.01-.77.17.05.62,1.25.62,1.35v17.32c1.28-.77,5.18.84,5.66-.62l.07-7.96c.04-4.77-.58-10.46-.02-15.22.1-.86.28-1.51.96-2.09h9.71v25.89h6.47V25.73c0-.71,2.97-1.33,3.62-1.33h6.85l.57.57v34.65ZM68.98,26.3h-6.85l.19,8c2.65-2.25,4.46-5.34,6.66-8ZM70.12,26.3l-4.74,6.49c-3.05,1.75-3.35,4.38-3.25,7.6.47-.12.82-.61,1.13-.96.99-1.11,6.24-7.45,6.58-8.27.6-1.49.16-3.29.29-4.85ZM62.88,46.48c2.62-4.54,8.57-7.55,7.24-13.7-3.28,4.07-8.66,7.7-8,13.51l.76.19ZM51.65,36.2c-2.22.02-4.45-.01-6.66,0v6.09l6.85-5.33c.34.34-2.81,3.42-3.23,3.81-2.8,2.64-4.22,1.78-3.63,6.65.8.77.86-.57,1.5-1.16,1.2-1.11,5.38-4.32,5.92-5.51.32-.7.35-3.57.15-4.33-.25-.94-.82-.24-.91-.24ZM62.88,52.19c.84-2.29,6.28-6.31,7.04-8,.55-1.21.02-3.22.19-4.56-1.54,2.35-7.71,7.27-7.99,9.75-.09.84.54,1.73,0,2.62l.76.19ZM52.11,46.75c.76-.94.61-3.3.31-4.46l-7.23,6.47-.19,3.81,7.12-5.82ZM32.81,43.43h-5.33v5.33c.9.24.64-.23.87-.49,1.46-1.65,3.05-3.15,4.46-4.84ZM36.23,43.43c-3.18-.7-3.13,1.35-4.75,3.07-1.76,1.87-4.73,3.41-4.01,6.45,1.47-1.89,8.21-6.09,8.67-7.89.13-.53.09-1.09.08-1.63ZM66.56,53.96c1.16-1.17,2.49-2.26,3.4-3.66l.15-4.96-7.82,8.74c-.26.84-.25,2.01-.17,2.88.21,2.34.78.34,1.31-.21.98-1.02,2.23-1.89,3.13-2.79ZM36.23,47.62l-8.41,6.27.04,4,8.02-7.01c.64-.95.29-2.18.35-3.26ZM52.6,48l-7.26,5.49-.35,4.02c.66.17.76-.27,1.14-.57,1.26-.97,6.24-4.95,6.46-6.1.17-.87-.08-1.94,0-2.85ZM17.58,49.91h-6.47v4.57s3.81-2.66,3.81-2.66c-1.57,2.48-3.93,3.93-3.8,7.23,1.07-.35,6.92-8.8,6.47-9.14ZM19.1,49.91h-1.14c.48.83.16,1.17-.17,1.91-1.18,2.62-4.2,5.32-5.54,7.98,1.28.94,5.52-4.5,6.04-5.57.63-1.29.45-2.93.81-4.33ZM36.23,52.57l-7.04,5.33-1.34,1.9,7.43.39c.32.05.95-.39.95-.58v-7.04ZM62.12,60.19h7.61l.19-7.62c-1.63,1.31-3.45,2.74-4.96,4.18-.42.4-3.29,3.04-2.85,3.44ZM52.6,53.33c-.87.13-1.76.99-2.47,1.53-1.18.91-4.02,3.17-4.89,4.16-.38.43-.28.63-.26,1.16h7.04l.57-.57v-6.28ZM18.71,59.79l-.18-4.17c-1.21,1.35-1.9,3.21-3.62,3.99.39.93,3.01.06,3.79.18Z"/>
      <path d="M69.36,8.41c-.66-.17-.76.28-1.14.57C50.06,22.72,28.28,41.3,4.06,42.29c-.85.03-3.72.3-3.99-.57-.62-1.96,3.29-1.21,4.37-1.33,21.32-2.47,46-17.72,61.31-32.37.38-.37,1.54-.34.75-1.13-1.91.14-5.35-.47-3.81-3.05.81-1.36,11.57-4.11,13.33-3.81.44.08.69.19.94.57-2.38,3.77-2.1,9.6-3.77,13.35-.55,1.24-1.12,1.99-2.43,1.26-2.5-1.4-1.22-4.52-1.4-6.8Z"/>
    </g>
  </g>
</svg>