<?xml version="1.0" encoding="UTF-8"?>
<svg id="Layer_2" data-name="Layer 2" xmlns="http://www.w3.org/2000/svg" viewBox="0 0 50.76 49.77">
  <g id="Layer_1" data-name="Layer 1">
    <g>
      <path d="M24.25,26.36l23.99.38c-1.27,15.79-16.26,26.98-31.81,21.72C-5.45,41.06-5.41,11.62,16.15,3.6c.97-.36,8.1-2.51,8.1-1.04v23.8ZM45.95,28.26h-22.27c-.11,0-1.04-.59-1.14-.76V3.89C4.99,5.88-5.16,26.17,7.11,40.26c12.43,14.28,37.29,7.08,38.84-12Z"/>
      <path d="M27.29.66l.63-.51c10.58-1.47,20.38,8.38,22.43,18.19.17.83.71,4.83.19,5.18-1.33.9-19.27-.99-21.93-.19l-1.31-.59V.66ZM29.2,1.61v7.61l4.8-5.69c.34-.4,1.91-.63.39-1.2-.72-.27-4.87-1.04-5.19-.72ZM29.2,15.7l9.52-10.47c.48-.39.44-.38-.01-.75-.48-.4-2.87-1.59-3.36-1.29-.75,2.7-5.02,4.9-5.94,7.2-.58,1.46,0,3.73-.2,5.32ZM29.2,21.79c.31.36,2.35-1.37,2.68-1.69,2.71-2.65,7.36-8.19,9.65-11.29.32-.43.61-.87.92-1.3l-2.41-2c-3.76,3.83-7.82,7.89-10.77,12.36l-.08,3.92ZM43.66,8.46c-.47-.33-1.42.82-1.71,1.14-2.22,2.39-4.28,5.49-6.46,8.01-1.21,1.39-2.91,2.42-3.62,4.18l5.55-.35,8.08-10.11-1.83-2.86ZM43.21,21.71l4.57-5.49-1.64-3.56-7.8,8.94,4.87.11ZM49,21.79c.19-.66-.27-4.59-.95-4.56l-3.62,4.56h4.57Z"/>
    </g>
  </g>
</svg>