<?xml version="1.0" encoding="UTF-8"?>
<svg id="Layer_3" data-name="Layer 3" xmlns="http://www.w3.org/2000/svg" viewBox="0 0 59.86 13.71">
  <g id="Layer_1" data-name="Layer 1">
    <path d="M38.07,1.52V0s21.7,0,21.7,0c.85.77-5.03,5.43-5.71,5.9-.16.8.33.51.83.67,1.51.48,3.29.71,4.88.66-.02.5.12,1.08-.18,1.54-1.02,1.55-13.34,3.71-15.62,4.94-1.97-.96,1.73-4.96,1.32-5.33L.17,8.02l-.17-1.55h47.59l.76-4.95h-10.28ZM56.35,1.53l-6,.47c-.68,1.82-.8,4.42-1.7,6.1-.65,1.22-2.17,1.88-2.58,3.32l10.28-2.67c-.07-.56-1.64-.63-2.14-.71-.91-.14-2.84.33-2.82-1,.01-1.04,4.4-4.24,4.97-5.52Z"/>
  </g>
</svg>