<?xml version="1.0" encoding="UTF-8"?>
<svg id="Layer_3" data-name="Layer 3" xmlns="http://www.w3.org/2000/svg" viewBox="0 0 57.12 63.28">
  <g id="Layer_1" data-name="Layer 1">
    <g>
      <path d="M34.13,59.51c-.17.23-2.52,2.65-2.72,2.8-2.02,1.43-5.77,1.33-7.44-.57-2.62-2.99-3.36-6.05-3.79-9.91-.19-1.7.25-3.44-.19-5.14-.72-2.81-3.14-3.9-4.76-5.9-9.97-12.3.81-29.17,15.79-27.97,12.58,1.01,19.57,15.57,11.78,25.85-1.65,2.17-4.73,3.94-5.67,6.52-1.59,4.36.15,10.1-3,14.33ZM34.17,49.65c.45-.44.73-4.5,1.46-5.97,1.27-2.58,4.9-4.77,6.56-7.53,4.53-7.55.98-17.43-7.17-20.49-13.55-5.08-27.55,9.66-19.35,22.4,1.94,3.01,5.16,4.48,5.94,8.15.22,1.05-.12,2.14.27,3.16l4.39,1.13-.36-12.69c-.12-.49-4.02-1.34-4.23-4.26-.12-1.76.85-4.05,2.89-4.02,2.46.03,3.27,4.55,3.23,6.5l1.29-.05.56-.58c-.5-2.6.6-8.31,4.24-5.65s.21,6.85-2.99,8.01l.35,10.27-.41,2.26c-.02.47,3.03-.35,3.35-.65ZM30.83,35.65c1.97-.6,3.9-2.99,1.71-4.56-.85,0-1.38,3.73-1.71,4.56ZM25.88,35.27c.32-1.61-1.65-5.78-2.42-2.58-.32,1.31.95,3.05,2.42,2.58ZM27.79,37.93v12.56h1.52v-12.56h-1.52ZM34.64,51.26c-3.94,1.42-8.2,1.55-12.18.18-.94-.32-.08,1.39.2,1.71,1.87,2.1,12.05,2.74,11.98-1.89ZM33.88,55.45c-2.67.64-5.41,1.02-8.19.76-1.15-.11-2.18-.97-3.24-.57.4,2.14,1.51,2.99,3.62,3.23,2.93.34,7.48.37,7.8-3.42ZM31.21,60.4l-5.33.75c1.7.75,4.04.79,5.33-.75Z"/>
      <path d="M8.37,22.32c-.51.51-5.53-1.73-6.36-2.21-1.39-.8-1.83-2.11-.02-1.91,1.34.15,7.23,2.14,6.38,4.12Z"/>
      <path d="M13.08,7.34c.36.36,4.58,5.02,2.33,5.08-1.03.03-4.13-4.8-4.75-5.89,1.34-1.49,1.7.1,2.42.81Z"/>
      <path d="M39.21,10.52c-.77-.8,3.52-6.69,4.75-6.47.91.16.39,1.21.14,1.65-.41.73-4.06,5.67-4.89,4.82Z"/>
      <path d="M27.4.24c.36.29.53,5.47.38,6.28-.09.5-.36,1.08-.94.95-1.24-.28-1.64-9.02.56-7.23Z"/>
      <path d="M53.68,13.57c.1.71-.04,1.05-.55,1.54-.3.28-3.13,2.27-3.57,2.52-.53.29-.88.67-1.58.51-1.16-1.21,4.11-5.26,5.71-4.57Z"/>
      <path d="M4.89,31.57c.75-.03,1.79-.22,2.33.47-.08,1.17-6.51,2.63-7.22.76.01-.86,4.04-1.19,4.89-1.23Z"/>
      <path d="M11.41,42.12c.95.96-4.71,5.01-6.09,4.18-.8-.7,4.89-4.77,6.09-4.18Z"/>
      <path d="M54.82,41.36c-.61.51-6.4-.64-5.71-2.66.5-.49,5.92.91,5.71,2.66Z"/>
      <path d="M51.85,27.97c-.18-.12-.13-.71-.45-.88.04-.89,5.04-.94,5.7.39.35,1.52-4.63.93-5.25.5Z"/>
    </g>
  </g>
</svg>