<?xml version="1.0" encoding="UTF-8"?>
<svg id="Layer_2" data-name="Layer 2" xmlns="http://www.w3.org/2000/svg" viewBox="0 0 54.82 30.64">
  <g id="Layer_1" data-name="Layer 1">
    <path d="M36.58,17.51c-7.57.36-19.71-.49-22.65,8.38-.29.87-.71,6.5-2.29,4.19-.75-1.09.35-4.75.89-5.98,3.85-8.84,17.45-8.52,25.56-8.47l.59,7.21,13.13-9.71v-.74s-13.32-9.34-13.32-9.34c-.26,2.09.99,4.05-.06,6.04-12.75-.77-30.46-1.78-35.46,13.08-.81,2.41-.8,4.87-1.61,7.14C.13,30.61.02,28.41,0,27.6c-.1-3.85,2-9.03,4.4-12C12.03,6.17,25.34,6.3,36.4,7.14l.48-.76c-.36-1.03-.72-6.1.28-6.38l17.66,12.7-16.73,12.62-1.14.19c.1-.37-.39-.81-.39-.95v-7.04Z"/>
  </g>
</svg>