<?xml version="1.0" encoding="UTF-8"?>
<svg id="Layer_3" data-name="Layer 3" xmlns="http://www.w3.org/2000/svg" viewBox="0 0 32.51 37.72">
  <g id="Layer_1" data-name="Layer 1">
    <g>
      <path d="M14.26.13c17.92-2.02,24.87,20.56,10.64,30.06-4.8,3.2-6.11,1.93-11.09,2.61-2.64.36-7.31,5.13-8.4,4.92-1.61-.31.61-6.35.4-7.64-.22-1.35-2.7-3.36-3.58-4.8C-3.74,15.46,2.97,1.4,14.26.13ZM26.01,26.92c6.91-6.92,6.18-19.1-2.96-23.61C10.37-2.96-2.97,11.02,3.53,23.59c1,1.93,3.84,4.21,4.18,5.73.39,1.73-.51,3.68-.99,5.35.32.33,3.3-2.41,3.92-2.74,3.29-1.77,5.21-.55,8.41-1.11,2.59-.45,5.12-2.06,6.96-3.89Z"/>
      <path d="M18.15,13.16c-.09,1.59-.41,4.9-.87,6.36-.34,1.09-1,1.76-1.42,2.77v.57c3.21-.02,2.05,4.74-.89,3.77-1.86-1.37.42-3.46.5-4.74.15-2.47-.17-5.43.01-8.36.1-1.59-.31-4.31.08-5.63.43-1.45,2.59-1.16,2.59-.46,0,1.88.1,3.84,0,5.71Z"/>
    </g>
  </g>
</svg>