<?xml version="1.0" encoding="UTF-8"?>
<svg id="Layer_3" data-name="Layer 3" xmlns="http://www.w3.org/2000/svg" viewBox="0 0 19.61 22.77">
  <g id="Layer_1" data-name="Layer 1">
    <g>
      <path d="M10.28,18.97C1.45,19.32-3.32,10,2.66,3.16c6.4-7.33,17.43-.81,16.94,8.39-.33,6.25-6.47,7.23-9.89,11.22-2.66-.63.77-3.67.58-3.8ZM15.48,16.17C21.99,10.1,13.11-2.43,5.14,3.36c-5.8,4.21-3.47,13.25,3.82,13.71.88.06,2.39-.41,2.63-.35.5.12.47,1.12.8,1.13.46,0,2.66-1.29,3.08-1.68Z"/>
      <path d="M9.42,7.22c3.45-.63,3.26,4.76-.39,3.67-2.03-.61-1.61-3.31.39-3.67Z"/>
    </g>
  </g>
</svg>