<?xml version="1.0" encoding="UTF-8"?>
<svg id="Layer_3" data-name="Layer 3" xmlns="http://www.w3.org/2000/svg" viewBox="0 0 63.54 106.14">
  <g id="Layer_1" data-name="Layer 1">
    <g>
      <g>
        <path d="M13.08.24c3.6-.34,12.91-.65,15.67,1.62,1.43,1.17,1.51,4.95,1.51,6.83,0,1.35-1.1,3.22.22,4.39,5.35-4.17,16.73-5.64,22.95-3.15,1.88.75,2.52,1.23,2.75,3.35.35,3.38-.13,17-1.73,19.59-2.18,3.54-5.31,1.85-7.41,2.87-.54.26-2.82,3.67-3.61,4.38-5.92,5.31-15.48,5.49-21.87.93-.67-.48-1.98-2.22-2.48-2.3-.64-.1-2.17.56-3.07.6-2.69.13-11.05-.92-13.12-2.48-2.73-2.05-1.23-8.66-1.53-11.8-.14-1.48-.81-2.41-.79-4.19.03-2.02.79-4.86.61-6.86-.09-1.03-.86-2.29-.97-3.78-.1-1.35,0-4.02.49-5.25C1.87,2.06,10.13.51,13.08.24ZM16.49,1.75c-3.13.13-6.81.7-9.81,1.61-3.33,1.01-6.96,2.49-1.22,3.88,5.09,1.23,12.59.67,17.59-.84,4.31-1.3,7.84-3.07.91-4.33-1.91-.35-5.51-.41-7.46-.33ZM28.38,6.22l-4.53,1.56-.04,4.15,4.39-1.5.17-4.2ZM3.63,12.68c-.15-1.84.49-4.43-1.52-5.33.06,1.29-.16,2.61.1,3.9.08.38.68,1.74,1.42,1.43ZM23.05,8.12l-2.26.4c-.16,1.52.31,3.13-.4,4.54l2.49-.74.17-4.2ZM7.41,9.29c-.75-.28-2.32-.82-2.85-.04l.3,3.35,2.2.47.35-3.77ZM19.62,8.88l-2.47.74c-.07,2.67-1.67,5.35,2.42,3.77l.05-4.51ZM11.63,9.64l-3.26.36c-.22.9-.47,3.03.2,3.65.11.1,2.72.49,2.89.2l.18-4.21ZM15.82,9.64l-3.25.37-.13,3.78c1.13.63,2.17.32,3.34,0l.05-4.15ZM32.19,14.21c3.37-.66,7.4,1.96,10.45,1.92s8.45-1,11.08-2.27c2.95-1.43-2.54-2.83-3.88-3.03-5.4-.77-13.26.09-17.66,3.38ZM28.38,12.31c-2.5,1.02-4.87.55-4.95,3.8,1.96-.64,5.65-1.07,4.95-3.8ZM7.02,15.01l-3.01-.79c.93,1-.29,2.7.16,3.43l3.26,1.14-.42-3.77ZM23.05,14.21l-2.5.74.22,3.45,2.12-1.53.16-2.66ZM8.25,19.12l3.02.25.21-3.27c-.55-.26-2.75-1.37-3.09-.76l-.14,3.78ZM19.62,14.97l-3.04.38v4.18s2.89-1.13,2.89-1.13c-.08-1.27-.37-2.17.15-3.44ZM54.65,15.35c-3.71,1.24-7.5,1.93-11.42,2.09,2.71,4.08,7.39.74,11.05,0l.37-2.1ZM12.76,15.72v4s2.68,0,2.68,0v-4s-2.68,0-2.68,0ZM29.81,15.82c-9.49,1.49-15.54,13.57-9.41,21.41,9.21,11.78,30.73,2.56,25.3-13.5-1.96-5.8-10.28-8.8-15.89-7.91ZM4.34,19.6l-1.85-.44c-.27,2.45-.52,4.28,2.28,4.95l-.43-4.51ZM54.27,19.16l-7.99,1.91,1.51,3.26,6.13-1.94.36-3.23ZM7.78,20.72l-2.24-.8c-.47,2.01-1.06,4.57,1.71,4.95.78.11.5-.06.57-.57s.07-3.45-.04-3.59ZM18.48,20.68l-5.35.55-.36,4.4c3.61.62,5.26-1.69,5.71-4.95ZM11.63,25.63l-.16-4.21-2.5-.36-.38,4.19,3.04.38ZM53.89,24.11l-5.69,1.54-.02,3.79,5.53-1.89.17-3.44ZM8.2,30.58l-.16-3.83-4.78-1.5.17,3.44,4.77,1.89ZM10.44,27.2l-1.47-.43c.14,1.47-.74,4.88,1.53,3.99l-.05-3.56ZM13.15,27.16h-1.52c.39,2.14-1.66,4.28,1.52,4.19v-4.19ZM16.58,27.16l-2.1.37-.94,3.81h2.67s.38-4.18.38-4.18ZM47.42,34.01c3.22-.24,6.46-1.03,6.09-4.95-1.5,1.21-3.44,1.2-5.25,1.6l-.84,3.35ZM5.1,31.02l-1.85-.44c-.38,2.08-.66,5.08,2.28,4.95l-.44-4.51ZM8.15,32.16l-1.85-.44-.03,4.33,2.31.61-.43-4.51ZM13.5,33.28l-4.15-.8v4.17s4,.77,4,.77l.41-.77-.27-3.37ZM17.72,37.43c.23-.22-1.3-5.32-3.04-4.19v4.19s3.04,0,3.04,0Z"/>
        <path d="M34.48,23.73l-.74,4.71c6.29,2.64,5.1,9.07-1.48,9.83l-.46,3.56-.94.18c-1.37-.59.19-3.34-.21-3.79-1.66-.28-3.91-1.2-4.57-2.85-.52-1.28-.6-2.27,1.15-2.1.33,1.81,1.77,2.93,3.44,3.41l1.15-6.85c-5.38-.28-5.45-7.69-.48-8.31,1.28-.16,6.25.97,6.76,2.22l-.39.76-3.23-.76ZM32.19,27.92c-.08-.9,1.37-4.72.18-4.95-3.54.67-4.2,4.61-.18,4.95ZM32.19,36.29c4.17.68,5-4.83,1.69-5.69-.76-.19-.51.3-.66.81-.44,1.59-.37,3.34-1.03,4.88Z"/>
      </g>
      <g>
        <path d="M50.09,95.31c-.71.7,2.52,8.26,3.37,9.42.97,3.93-7.4-1.48-8.45-2.25-2.27-1.66-4.13-3.73-6.23-5.57-8.84-.94-27.82,2-34.58-4.26-5.36-4.96-4.83-16.77-2.57-23.15,2.34-6.64,7.59-9.5,14.39-9.98,9.88-.69,23.96-.54,33.91,0s12.89,3.48,13.5,13.12c.64,9.91-1.13,22.1-13.34,22.67ZM50.84,103.68c-1.18-3.12-2.74-6.11-2.88-9.53,4.23-.96,8.39-1.48,10.95-5.43,2.94-4.54,3.22-14.95,2.11-20.15-1.26-5.84-5.36-6.82-10.73-7.16-9.68-.61-24.65-.71-34.3,0-12.54.92-14.66,10.65-13.9,21.54.53,7.57,4.72,10.84,12.02,11.59l25.03.48c4,2.74,6.83,7.19,11.7,8.66Z"/>
        <path d="M30.18,75.96c5.47-1.2,4.13,7-.56,4.97-2.39-1.04-1.91-4.43.56-4.97Z"/>
        <path d="M19.53,75.96c3.4-.69,4.83,3.81,2.29,4.98-4.42,2.03-6.05-4.22-2.29-4.98Z"/>
        <path d="M41.22,75.95c4.65-1.37,4.36,7.44-1.2,4.85-1.85-1.39-.58-4.33,1.2-4.85Z"/>
      </g>
    </g>
  </g>
</svg>