<?xml version="1.0" encoding="UTF-8"?>
<svg id="Layer_3" data-name="Layer 3" xmlns="http://www.w3.org/2000/svg" viewBox="0 0 43.71 47.39">
  <g id="Layer_1" data-name="Layer 1">
    <g>
      <path d="M13.61,38.69c-7.92,1.4-12.7-.44-13.34-8.93C-.08,25.04-.29,11.22.93,7.16,1.75,4.45,3.3,2.58,6.01,1.57,11.43-.44,25.49-.06,31.72.25c6.27.32,10.86,1.32,11.59,8.55.55,5.42.53,16.71,0,22.08-.8,8.09-7.44,7.85-13.89,7.8-.82,0-1.67-.42-2.66-.41-4.8.07-6.78,5.18-10.09,7.84-5.65,4.54-2.22-4.3-3.05-7.43ZM20.98,38.82c.74-.68,2.18-1.87,3.12-2.02,6.49-1.04,16.47,3.21,17.32-6.67.41-4.83.68-16.61-.02-21.33-.81-5.5-3.85-6.33-8.93-6.68-5.01-.35-21.82-.54-25.81,1.26-3.61,1.62-4.25,4.43-4.49,8.07-.32,4.81-.24,11.56,0,16.41.33,6.68,1.22,9.48,8.6,9.33,1.37-.03,3.58-1.03,4.75.17,1.09,1.11-.48,6.16-.39,7.82,2.1-1.73,3.88-4.53,5.84-6.34Z"/>
      <path d="M30.37,24.03c-1.13,6.8-11.9,7.28-16.77,4.96-4.47-2.13-5.98-7.94-3.8-12.21,3.27-6.43,14.33-3.01,19.95-3.96l.62.54c-.38,3.24.51,7.58,0,10.66ZM26.56,14.7h-10.85c-.13,0-2.2.83-2.45.98-3.65,2.21-3.25,8.58,0,10.99,2.89,2.15,10.33,2.5,13.12.22.55-.45,2.09-2.68,2.09-3.24v-8.19l-8.57,10.65-4-5.89c1.67-2.25,3.61,2.85,4,2.84l6.66-8.37Z"/>
    </g>
  </g>
</svg>