<?xml version="1.0" encoding="UTF-8"?>
<svg id="Layer_2" data-name="Layer 2" xmlns="http://www.w3.org/2000/svg" viewBox="0 0 51.61 53.5">
  <g id="Layer_1" data-name="Layer 1">
    <path d="M29.9,33.49c-.22,1.89-.51,7.97,1.46,8.89,2.11.99,5.94-.48,4.57,4.37l4.14.42-.41,5.6c-.81.12-1.62.38-2.43.45-5.34.49-14.59.22-20.1-.07-2.04-.11-4.38.08-4.78-2.43-.48-3.01.36-3.98,3.4-3.59-.53-1.81,1.07-3.77,2.68-4.36.71-.26,1.4-.11,2-.29,1.96-.6,1.88-6.66,1.81-8.42-1.75-.9-3.3-1.12-4.93-2.38-1.1-.85-2.38-3.03-3.1-3.38-1.7-.83-4.46-.84-6.72-2.04C-1.51,21.45-4.2,4.74,9.65,5.62c.09-4.67,3.15-5.06,7.04-5.33C20.97,0,26.91-.06,31.23.05c1.96.05,7.72.13,9.11.99,1.85,1.14.96,3.93,1.67,4.43,16.44-.39,9.11,19.64-2.16,22.16-1.02.23-2.27-.15-3.15.28-.24.12-2.11,2.58-2.86,3.23-1.15.99-2.48,1.88-3.93,2.35ZM39.36,2.97c-.15-.75-.78-.65-1.34-.76-4.79-.9-17.68-.52-22.84,0-1.02.1-1.87.59-2.85.77.47.94,2.29.92,3.29,1.08,5.07.81,12.31.86,17.45.43,2.21-.18,4.19-.98,6.29-1.52ZM11.57,4.88c-.35,10.2,1.25,28.83,15.41,27.41,10.55-1.06,13.98-18.93,12.96-27.42l-9.51,1.55c-6.34-.02-12.76.32-18.86-1.54ZM48.37,8.81c-1.56-1.66-4.35-1.38-6.34-2.04l.03,2.25c4.21.54,5.81,1.78,5.19,6.22-.54,3.87-3.13,6.7-6.54,8.31-1.5.71-2.26-.18-2.88,2.26,4.98.05,10.03-4.85,11.23-9.51.57-2.21.99-5.69-.71-7.49ZM9.66,7.16c-3.26.18-7.05,1.05-7.58,4.79-.99,6.93,4.22,13.29,11.01,14.24-.01-2.72-2.44-2.26-4.31-3.49-4.78-3.15-7.78-13.4.53-13.05l.36-2.5ZM44.99,11.43l-2.95-.85c-.61,4.04-1.22,7.97-2.67,11.8,3.29-.61,8.21-8.45,5.62-10.95ZM10.05,11.35l-3.63.75c-.99,4.19,1.34,9,5.54,10.29-1.47-3.49-2.16-7.26-1.9-11.04ZM27.94,33.81l-3.81.38c.28,5.04-.05,10.28-6.1,10.85l-.38,2.1h17.13c-.16-4-2.78-2.2-4.78-3.4-.55-.33-2.07-3.16-2.07-3.64v-6.28ZM38.6,50.94c.01-.95.28-2.17-.95-2.29l-22.79.06-.66.9.8,1.54c.54.25.8-.22.94-.22h22.65Z"/>
  </g>
</svg>