<?xml version="1.0" encoding="UTF-8"?>
<svg id="Layer_3" data-name="Layer 3" xmlns="http://www.w3.org/2000/svg" viewBox="0 0 81.93 89.87">
  <g id="Layer_1" data-name="Layer 1">
    <g>
      <path d="M59.2,83.4l.56-51.91c.16-.69,9.26-1.18,10.41-.56.42.22.65.32.65.87l.38,51.59c2.8-.05,7.09-.86,9.71-.38,1.16.21,1.3,1.26.58,2.12l-74.26.16c-.28.28.76,5.82-1.51,4.3l-.39-4.3-5.16-.36-.17-1.16,5.33-.39-.02-59.91.98-.53c.89.4.93,1.12.98,1.98.2,3.4-.36,7.57-.33,11.06.11,14.39.7,28.98.32,43.42-.04,1.35-.54,2.61-.4,3.98h4.95v-19.61c0-.59.6-2.09,1.33-2.09h7.61l.57.57v21.13h5.33v-29.89l.95-.57c2.67.29,5.75-.39,8.33-.24.68.04,1.76.4,1.76,1.19v29.51h5.33l.38-40.74h9.71c.78.73.88,1.83.97,2.84.83,9.9.37,24.16,0,34.3-.04,1.2-.6,2.37-.4,3.6h5.52ZM66.25,32.39l-4.95.38c-.32,1.58.64,3.15,0,4.57l1.14-.57,3.81-4.37ZM69.29,32.39l-2.2.08c-1.16,1.66-2.58,3.13-3.89,4.68-1.04,1.24-2.07.92-1.52,3.62l3.94-3.85,3.67-4.52ZM61.68,46.09c1.28-1.63,6.78-6.23,7.41-7.62.52-1.14.05-2.92.19-4.18l-7.41,8-.19,3.8ZM69.29,40c-1.31,1.64-7.19,6.62-7.81,8.01-.17.39-.13,2.56.4,2.65l7.22-6.86.19-3.8ZM44.9,44.19v39.22h7.26v-39.22h-7.26ZM69.29,45.33l-1.14.57c-1.06,2.14-5.37,4.68-6.12,6.44-.35.82-1.13,4.36-.16,4.79.84-2.12,6.2-6.09,6.85-7.62.15-.36.72-4.02.57-4.18ZM69.29,51.04c-.65-.17-.76.26-1.14.56-.82.65-5.78,5.91-6.26,6.68-.95,1.52-.3,2.25-.59,3.79.65.17.76-.26,1.14-.56,1-.8,6.42-6.75,6.67-7.59.27-.93-.14-1.95.18-2.88ZM33.88,54.47c-1.62.62-3.73.61-5.32,0v4.95c1.42-1.2,3.48-2.52,4.75-3.81.36-.37.73-.49.57-1.14ZM36.17,54.85c-.63-.12-1.02.3-1.49.6-.65.41-5.26,4.28-5.59,4.7-.52.66-1.32,2.48-.35,3.07l7.07-5.87.35-2.5ZM68.8,60.83l.49-4.84c-3.38,3.8-9.21,7.08-7.99,12.94l7.5-8.1ZM36.17,59.04c-.22-.25-3.73,2.17-4.16,2.5-.84.65-3.3,2.58-3.45,3.4-.11.6-.33,4.17.18,4.37,2.25-3.98,8.81-4.67,7.42-10.28ZM62.05,73.5c2.09-4.15,8.46-6.3,7.24-11.8l-7.7,8.47-.29,3.14.76.19ZM19.42,83.4l-.2-20.16c-1.77.62-3.67.29-5.51.36v19.8h5.71ZM36.17,64.75c-.69-.1-1.1.49-1.63.84-.83.55-5.34,3.8-5.63,4.27-.86,1.42.14,3.31-.73,4.78.65.17.76-.26,1.15-.56.9-.71,6.43-5.16,6.66-5.53.52-.86.03-2.76.19-3.8ZM61.67,79.59c.9-2.66,6.39-5.35,7.42-7.62.55-1.21.02-3.22.19-4.56-2.3,2.53-7.53,5.94-7.99,9.33-.07.52-.28,2.71.38,2.85ZM36.17,70.08l-7.26,5.49-.35,4.4c2.95-3,8.73-4.88,7.61-9.9ZM69.21,76.85c.29-.5.13-2.66-.1-3.34-1.37,1.29-2.62,2.71-3.99,4-.54.51-3.61,2.72-3.73,2.93-.35.6.06,2.18-.08,2.97.67.1.84.02,1.32-.39,1.16-1.01,2.66-3.12,4.01-4.37.48-.45,2.51-1.65,2.59-1.79ZM36.17,75.41l-7.51,5.43c-.32,1.13-.96,2.78.84,2.57.4-.05,5.76-4.38,6.13-4.94.73-1.1.62-1.76.55-3.07ZM69.29,83.4c-.11-.84.38-5.34-.57-5.32l-5.14,4.57c-.03.56,1.37.67,1.76.71,1.31.13,2.64,0,3.95.05ZM36.17,79.98c-.31-.35-4.2,2.91-4.57,3.42l4.21-.16c.67-.47.26-2.43.35-3.26Z"/>
      <path d="M77.25,14.83c-.2.17-1.26.07-1.6-.04-1.81-.58-1.11-4.25-1.98-5.63-10.91,13.24-25.57,24.59-41.44,31.29-3.74,1.58-13.51,5.33-17.21,4.91-1.49-.17-1.94-1.4-.67-1.84,1.75-.62,4.35-.77,6.28-1.33,18.99-5.49,36.64-17.52,49.41-32.44.02-.83-4.66-.31-3.74-3.35.25-.84,4.8-3.1,5.89-3.64.95-.47,5.86-2.78,6.41-2.74.45.04.77.2.92.65l-2.28,14.18Z"/>
    </g>
  </g>
</svg>