<?xml version="1.0" encoding="UTF-8"?>
<svg id="Layer_3" data-name="Layer 3" xmlns="http://www.w3.org/2000/svg" viewBox="0 0 25.16 36.3">
  <g id="Layer_1" data-name="Layer 1">
    <path d="M17.52,16.04c5.58,2.35,7.48,10.27,7.63,15.79.17,5.87-2.33,4.15-6.7,4.38-2.92.15-4.73.08-7.58,0-3.48-.09-7.09.47-10.4-.84-1.37-1.33.62-9,1.36-10.84,1.48-3.65,4.11-6.43,6.92-9.06C2.17,10.14,5.77-.86,14.66.05c6.31.65,9.3,8.88,5.3,13.68-.8.96-1.83,1.3-2.44,2.31ZM13.52,1.79c-8.04,0-8.55,12.95-.38,13.15,9.3.23,8.42-13.15.38-13.15ZM23.23,34.32c.1-5.83-.86-14.19-6.84-16.96-4.97-2.3-8.42.46-11.07,4.58-2.14,3.32-3.76,8.17-2.86,12,.51.43,6.51.62,7.87.65,4.27.12,8.61-.37,12.9-.27Z"/>
  </g>
</svg>