<?xml version="1.0" encoding="UTF-8"?>
<svg id="Layer_3" data-name="Layer 3" xmlns="http://www.w3.org/2000/svg" viewBox="0 0 54.35 41.13">
  <g id="Layer_1" data-name="Layer 1">
    <g>
      <path d="M4.2,39.18h9.14l.96-4.95c.74-.24.83,2.02.9,2.52.11.81.04,1.62.05,2.43h8.76c-.63-7.06,2.15-7.08,1.52,0h9.52v-8.19l.76-.38c1.25.53.81,6.94.76,8.57h15.23l-.37,1.72c-2.59.21-5.22.19-7.83.2-7.46.04-14.96-.03-22.43,0-7.04.02-14.11.09-21.16-.2v-1.54s2.3-.18,2.3-.18l.38-21.89c.19-1.08.87-1.29,1.52-.38v22.27Z"/>
      <path d="M51.03,4.92c-8.7,9.02-18.04,17.15-29.06,23.29-2.3,1.28-10.65,5.74-12.73,5.96-1.34.15-1.74-1.01-.62-1.8,1.25-.88,4.76-1.97,6.38-2.76,11.93-5.81,23.13-13.72,31.84-23.74-1.43-1.69-4.86.06-3.57-3.28,1.73-.44,10.06-3.6,11.04-2.27.36.49-1.15,11.6-1.95,11.82-2.84.79-1.17-5.78-1.32-7.23Z"/>
    </g>
  </g>
</svg>