<?xml version="1.0" encoding="UTF-8"?>
<svg id="Layer_3" data-name="Layer 3" xmlns="http://www.w3.org/2000/svg" viewBox="0 0 37.07 37.23">
  <g id="Layer_1" data-name="Layer 1">
    <g>
      <path d="M23.01,4.55c.1.16,1.74,1.26,1.94,1.23l3.8-2.58c1.39,1.15,4.93,3.45,4.81,5.43-.11,1.85-2.22,2.33-1.75,4.43.6,2.67,2.61,1.25,4.74,1.94.79,3.54,1.39,10.05-4.11,7.95l-1.06,2.48c3.76,2.87,2.61,5.22-.89,7.58-3.05,2.06-3.27.32-5.49-1.62-3.01,1.47-2.08,1.64-2.57,4.24-.35,1.85-5.47,1.82-6.89,1.34-1.82-.61.18-5.23-3.43-5.21-1.02.57-2.15,2.64-3.42,2.52-1.47-.13-4.83-3.16-5.38-4.5-1.01-2.45,2.11-3,1.63-5.41-.44-2.21-2.97-1.11-4.54-2.04-.53-.74-.45-4.92-.25-5.98.53-2.77,6.15,0,5.54-4.56-.2-1.5-2.33-2.63-1.76-4.57.14-.47,3.31-3.57,3.85-3.8,2.17-.94,3.68,2.3,4.95,1.96,2.06-1.05,1.91-3.53,3.31-5.11.62-.31,3.95-.31,4.78-.2,2.72.36,1.23,3.01,2.18,4.48ZM20.62,1.99l-3.56-.04c-1.14,2.61-1.09,4.6-4.34,5.27-3.09.64-1.79-1.82-4.28-2.02l-2.68,3.07,2.29,3.41c-1.21,3.7-1.58,5.48-6.09,4.77l.18,4.61c2.68.46,4.51-.03,5.07,3.3.46,2.71-2.62,3.56-2.04,4.66l3.46,3.07,2.31-2.65c3.38,1.37,5.8.8,5.55,5.42l.56.61,3.2-.13.55-3.65c.12-.25,3.64-2.41,3.99-2.51,1.85-.52,2.56,2.53,3.11,2.84.95.54,3.39-2.26,3.77-3.18,0-1.4-4.26-2.48-1.16-6.1,1.21-1.41,2.4-1.46,4.19-1.33-.22-1.72.89-3.28-.06-4.9l-3.8-.27-1.46-4.56,2.09-3.6-3.13-2.6c-1.24-.11-1.68,2.97-4.29,2.02-2.36-.85-3.98-2.9-3.45-5.5Z"/>
      <path d="M26.18,18.58c0,4.25-3.44,7.69-7.69,7.69s-7.69-3.44-7.69-7.69,3.44-7.69,7.69-7.69,7.69,3.44,7.69,7.69ZM17.09,12.74c-5.63,1.17-5.67,11.01.29,11.72,9.31,1.12,8.6-13.57-.29-11.72Z"/>
    </g>
  </g>
</svg>