<?xml version="1.0" encoding="UTF-8"?>
<svg id="Layer_2" data-name="Layer 2" xmlns="http://www.w3.org/2000/svg" viewBox="0 0 39.63 39.95">
  <g id="Layer_1" data-name="Layer 1">
    <path d="M6.3,6.31C16.54-3.81,33.87-1.81,38.45,12.74c5.59,17.76-9.53,32.46-26.92,25.39C-1.91,32.67-3.53,16.04,6.3,6.31ZM23.59,1.9h-3.05s0,3.81,0,3.81c.4-.46,3.45-3.44,3.04-3.81ZM18.59,2.33C2.98,3.67-4.17,23.82,8.19,34.25l10.76-13.97c-.08-2.25.54-17.39-.36-17.96ZM22.29,10.12c1.01-2.14,3.96-4.45,4.93-6.31.5-.95-.96-1.4-1.63-1.47-1.66-.16-3.18,3.77-4.84,4.51l.19,4.95,1.36-1.68ZM30.68,5.95l.51-.82c-1.77-1.45-1.97-1.86-3.61-.19-2.42,2.48-4.24,6.02-6.86,8.39l.21,4.18,9.75-11.56ZM22.76,20.09l10.18-12.5v-.73s-1.16-1.15-1.16-1.15l-11.22,13.9c-.29.99,1.67.56,2.2.48ZM28.05,20.45l7.3-9.68c.24-.64-.83-2.29-1.29-2.39-.76-.17-8.35,10.97-10.08,11.99.94.16,3.33.65,4.07.08ZM28.93,20.93c.88-.27,2.61.47,3.25.04,1.53-1.01,3-5.02,4.93-6.12l-.95-3.44-7.23,9.51ZM37.68,22.08c-.11-.84.39-5.75-.57-5.7-.54.74-3.83,4.76-3.24,5.32l3.81.38ZM37.3,23.98c-5.7-1.03-11.44-1.69-17.24-1.83l-10.17,13.05c10.49,6.73,25.4,1.48,27.42-11.22Z"/>
  </g>
</svg>