<?xml version="1.0" encoding="UTF-8"?>
<svg id="Layer_3" data-name="Layer 3" xmlns="http://www.w3.org/2000/svg" viewBox="0 0 60.04 56.81">
  <g id="Layer_1" data-name="Layer 1">
    <path d="M44.78,6.65c-1.89-.07-3.09-1.78-4.8-2.62C28.28-1.64,12.15,3.87,5.75,15.02c-13.57,23.66,11.34,49.05,35.1,37,11.73-5.94,18.93-22.28,10.78-33.78l-6.47-.16c8.16,8.84,4.14,22.66-5.6,28.48-16.98,10.15-36.31-4.44-31.53-23.53,2.9-11.6,15.87-18.54,27.22-14.65,1.84.63,6.34,2.76,5.53,5.13-6.25-4.54-12.38-5.9-19.74-2.99-11.4,4.5-15.27,19.15-8.78,29.23,10.49,16.29,37.37,6.91,35.52-12.29-.21-2.22-2.34-8.65-5.07-8.25-1.01.15-2.02,1.88-3.26,1.92,4.69,6.36,3.13,14.55-3.3,18.97-11.36,7.79-25.65-3.73-20.76-16.57,3.61-9.47,17.18-12.6,22.93-3.55l.51-.04c4.34-2.15,3.3-3.88,4.21-7.6s8.07-7.74,11.06-9.87c1.33.27.24,5.76-.18,6.85.87-.63,5.98-.58,6.11.23-1.14,3.57-4.77,6.09-8.02,7.77.36.82.99.38,1.72,1.1,4.37,4.36,3.44,14.44,1.5,19.82-7.35,20.4-34.51,25.09-48.52,8.57C-11.08,25.82,9.22-5.19,35.66.74c2.73.61,8.94,2.64,9.12,5.91ZM51.26,10.84c1.8-1.32,1.67-4.07,1.9-6.09-2.22,1.58-2.03,3.61-1.9,6.09ZM50.49,7.42c-3.34.53-3.29,4.26-4.18,6.85,3.72-.49,3.44-3.96,4.18-6.85ZM57.73,10.08c-1.03-.03-1.96-.11-2.95.28-.32.13-2.22,1.31-2,2,1.1-1.46,3.24-.08,3.42-.16.27-.12,1.89-1.81,1.52-2.12ZM44.41,15.79c1.18-1.13.89-3.74,1.52-5.33-1.63,1.17-1.58,3.56-1.52,5.33ZM55.06,12.75c-1.23.79-4.36-1.04-4.56,1.14,1.79.23,3.94,1.35,4.56-1.14ZM52.02,15.41c-1.75.33-4.47-1.11-4.95,1.52,1.79-.21,3.77.3,4.95-1.52ZM38.65,22.69c-1.12-.64-3.13,2.67-4.35,3-.48.78,2.07,4.2-1.11,7.25-5.83,5.6-15.21-1.79-9.72-8.19,3.14-3.66,6.85-2.73,10.76-1l3.31-2.82c-5.23-5.91-13.22-6.41-18.46-.2-4.83,5.72-3.6,14.54,2.89,18.44,10.85,6.51,23.29-5.75,16.67-16.48ZM32.6,25.3c-3.87-4.37-12,1.24-8.17,6.08,3.32,4.19,10.46.83,8.55-4.55l-3.99,3.04-.94-1.29,4.55-3.28Z"/>
  </g>
</svg>