<?xml version="1.0" encoding="UTF-8"?>
<svg id="Layer_2" data-name="Layer 2" xmlns="http://www.w3.org/2000/svg" viewBox="0 0 60.29 37.28">
  <g id="Layer_1" data-name="Layer 1">
    <path d="M58.32,33.37c.97-7.75-5.34-16.88-12.17-8.18-.75.96-2.09,3.04-2.27,4.2-.34,2.21.96,6.96-1.28,7.89l-24.38-.09c-1.3-.3-.17-6.24-.41-7.63-.4-2.38-2.14-5.86-4.07-7.39-6.39-5.07-12.28,4.71-11.6,10.46l13.92.75-.03,1.47c-4.08,0-8.27.22-12.36.05-1.02-.04-2.45.05-3.24-.54-1.71-2.38,2.05-13.63,6.12-13.95-.36-1.31-1.7-1.58-2.53-2.99-2.78-4.74.55-10.65,6.13-10.35,5.9.31,8.19,9.09,2.87,11.83v.56c1.86,1.04,2.92,2.5,4.36,4.02l1.73,3.79c1.22-4.11,4.52-9.09,8.76-10.28.02-1.21-1.52-1.4-2.29-2.2-3.89-4.03-2.92-11.2,2.17-13.72,10.47-5.2,17.8,9.91,7.74,15.35,3.54,2.59,6.55,6.11,7.62,10.47l2.29-3.6,2.65-2.29c-2.93-2.77-3.79-7.47-.39-10.29,5.42-4.5,12.97,2,9.47,7.95-.39.67-2.23,1.96-1.84,2.52,1.95.63,3.58,3.61,4.21,5.51s1.82,8.05-.98,8.58c-2.01.38-9.52.22-11.8,0-1.51-.14-1.96-.28-1.71-1.9h13.33ZM38.57,8.69c0-3.75-3.04-6.78-6.78-6.78s-6.78,3.04-6.78,6.78,3.04,6.78,6.78,6.78,6.78-3.04,6.78-6.78ZM7.95,9.08c-4.83,1.11-4.04,10.43,2.02,9.67s5.48-11.4-2.02-9.67ZM56.23,15.52c0-2.49-2.02-4.5-4.5-4.5s-4.5,2.02-4.5,4.5,2.02,4.5,4.5,4.5,4.5-2.02,4.5-4.5ZM41.95,35.65v-7.04c0-.6-1.54-4.08-1.98-4.87-4.25-7.67-10.35-8.62-16.07-1.76-3.21,3.85-4.7,8.66-4.41,13.67h22.46Z"/>
  </g>
</svg>