<?xml version="1.0" encoding="UTF-8"?>
<svg id="Layer_2" data-name="Layer 2" xmlns="http://www.w3.org/2000/svg" viewBox="0 0 57.41 28.41">
  <g id="Layer_1" data-name="Layer 1">
    <path d="M47.71,11.99c11.14-2.46,13.53,12.86,2.75,15.51-4.76,1.17-16.82.89-22.37.86-6.27-.03-18.84.24-24.05-2.21-10.68-5.02,2.32-18.3,10.16-14.54-1.3-8.45,9.26-14.14,15.04-7.24,6.6-8.51,20.45-3.88,18.47,7.62ZM53.68,24.06c1.98-1.69,2.21-6.57.68-8.63-1.73-2.33-6.85-2.81-8.75-.4-1.16-.89.04-2.45.15-3.65.3-3.33-.13-6.62-3.37-8.35-5.37-2.88-9.62-.53-12.83,3.99-.75.13-3.16-3.31-4.61-3.69-4.39-1.13-9.11,2.46-9.26,6.95-.05,1.49.92,3.05-.17,4-5.67-5.45-19.78,5.71-10.48,10.11,2.17,1.02,5.8,1.53,8.21,1.69,10.93.72,22.54-.28,33.52.02,1.79-.18,5.59-.9,6.91-2.04Z"/>
  </g>
</svg>