<?xml version="1.0" encoding="UTF-8"?>
<svg id="Layer_2" data-name="Layer 2" xmlns="http://www.w3.org/2000/svg" viewBox="0 0 49.47 105.81">
  <g id="Layer_1" data-name="Layer 1">
    <g>
      <g>
        <path d="M9.16,55.76c1.46.04,2.93-.05,4.4-.02,2.73.06,2.25,1.09,2.64-2.66l1.15-.37.58,3.43h6.09c-.16-4.34,2.33-4.74,1.91,0l6.3-.1.5-.53c.17-.64-.28-3.07,1-2.8,1.4.53.56,3.14,1.56,3.38,1.86-.45,4.07-.65,5.87.04.02-.6-.25-3.61.95-3.43,1.74.26.4,2.61,1.32,3.26,2.06-.13,5.91-1.26,5.74,1.86-.82,14.03,1.02,29.16,0,43.06-.09,1.27-.39,2.72-.86,3.9-.81.83-7.57.42-9.27.47-9.7.29-20.34.84-30.07.4-3.27-.15-8.21.32-8.57-3.62-1.26-13.77,1.06-29.42.05-43.37-.03-3.99,4.1-2.3,6.82-2.53-.07-1.26-.09-2.55.95-3.43,1.42-.33.8,2.9.95,3.05ZM2.31,58.04v7.61h44.93v-7.61h-4.19c.62,4.93-2.69,4.36-1.91-.38l-6.47.38c-.08.79.37,3.17-.6,3.41l-1.31-.62v-3.17s-6.84.38-6.84.38l-.57,3.43-.99-.23-.35-3.58c-1.55.48-3.15.44-4.77.39-.47-.01-1.07-.38-1.14-.37-.95.1.65,3.13-1.14,3.79-1.35.28-.81-2.49-1-3.18-.2-.74-3.24-.17-4.34-.23-.86-.04-1.61-.38-2.45-.39.73,4.73-2.19,5.2-1.9.38H2.31ZM47.23,67.56l-44.93.57v33.89c0,1.34,2.61,1.64,3.6,1.73,9.65.83,23.25.28,33.16,0,1.49-.04,7.46-.02,7.98-1.16.04-.08.18-1.53.18-1.71v-33.31Z"/>
        <path d="M27.43,75.17l-.76,7.61c14.38-5.48,13.73,19.24.38,14.66-1.32-.45-3.64-1.62-2.86-3.23.95-1.98,2.24.44,2.75.77,5.41,3.51,10.6-4.2,6.78-8.78-2.86-3.43-5.83-1.21-9.31-.77-.52-.37.55-11.21,1.37-12.56,3.27.25,6.61-.55,9.84.02,1.08.19,1.2.99.77,1.92l-.39.37h-8.57Z"/>
        <path d="M17.53,75.93c-.88-.24-.64.21-.87.48-.88,1.02-3.37,5.22-4.63,4.84-1.74-1.98.11-2.61.93-3.61s5.65-8.31,6.78-4.5l-.68,23.53c.02,1.09-1.62,1.32-2.11.59l.59-21.34Z"/>
      </g>
      <g>
        <path d="M23.44,0c25.5-.18,23.79,38.39-3.4,36.3-.88-.07-1.71-.81-2.62-.67-1.66.27-7.83,6.01-9.16,5.62-2.2-.64,1.02-8.27,1.22-9.99C-3.04,19.08,6.84.12,23.44,0ZM9.54,38.62c.35.4,6.19-4.64,7.14-4.88,1.05-.26,2.17.61,3.33.7,25.57,1.94,26.62-35.02.81-32.32C10.1,3.24,2.65,14.38,7.06,24.54c1.09,2.52,2.88,4.14,4.33,6.37l-1.85,7.71Z"/>
        <path d="M31.62,11.59c.14.68-.18,1.1-.44,1.65-1.3,2.73-6.53,10.27-8.54,12.78-.85,1.06-1.51,2.1-2.81.97-1.46-2.08-3.67-4.35-4.98-6.46-.57-.92-.22-1.04.58-1.63,1.35-.07,4.8,6.88,5.52,6.39l8.75-13.15,1.91-.56Z"/>
      </g>
    </g>
  </g>
</svg>