<?xml version="1.0" encoding="UTF-8"?>
<svg id="Layer_2" data-name="Layer 2" xmlns="http://www.w3.org/2000/svg" viewBox="0 0 40.72 37.47">
  <g id="Layer_1" data-name="Layer 1">
    <path d="M29.07,1.36C30.48.09,36.69-.15,38.65.08c1.17.14,2.49.52,1.93,1.92-7.81,11.24-15.37,22.64-22.3,34.45-1.53,1.42-4.92,1.01-6.86.76L0,18.18c.1-.54,2.37-.85,2.9-.91.9-.1,5.32-.44,5.86-.28,1.69.5,4.58,6.68,5.13,6.69,2.76-4.02,4.97-8.43,7.72-12.45,1.62-2.37,5.55-8.14,7.46-9.87ZM38.07,1.99h-6.28c-2.8,0-15.2,21.46-17.92,24.35l-5.51-7.43-6.08.21,10.46,16.4,4.2-.41L38.07,1.99Z"/>
  </g>
</svg>