<?xml version="1.0" encoding="UTF-8"?>
<svg id="Layer_2" data-name="Layer 2" xmlns="http://www.w3.org/2000/svg" viewBox="0 0 61.3 78.05">
  <g id="Layer_1" data-name="Layer 1">
    <g>
      <path d="M21.7,31.93v15.42c-.35.41-2.11.95-2.47.95h-7.42v9.52c.8-.3,1.11-1.86,1.8-2.29.53-.33,1.49-.53,1.63.21.22,1.22-3.59,4.64-4.15,6.12-.37.99,1.05.53,1.3.53h8.76l.57.57v14.09c-.24.38-.52.5-.95.57-2.11.37-5.72.36-7.99.41s-10.36.08-11.75-.76c-.5-.3-.57-1.2-.63-1.74-.19-1.77-.24-10.8.23-12.04.16-.43.35-.81.73-1.1h8.95c-.48-1.83-2-2.69-3.03-4.01-.7-.89-2.06-2.42-.21-2.84l2.86,3.04v-10.28H.57l-.57-.57v-14.47c0-.23.52-.95.57-1.33l.75-.39,20.38.39ZM19.8,33.45H1.9v12.95h17.89v-12.95ZM20.2,64.29H2.28v11.8h17.91v-11.8Z"/>
      <path d="M21.7,8.7h27.98c.95,0,1.25,1.33,1.33,2.09.45,4.14-.51,8.61-.38,12.76,1.07-.73,1.9-2.81,3.23-3.05,1.8-.32-.78,3.21-1.01,3.56-.44.65-1.47,1.36-1.67,1.8-.24.53.44,3.33-1.96,1.38-.23-.18-3.43-4.32-3.57-4.61-.28-.6-.48-1.04-.35-1.74,2.14-.16,2.35,2.5,3.81,3.42v-13.71l-26.82-.31c-.42.07-.59.95-.59,1.27v5.52h-9.9v9.9c1.2-.89,1.51-2.71,3.42-2.28-.12,2.46-3.02,3.56-3.77,5.85l-.93.19-4.02-5.14.55-.91c1.66.05,1.61,1.99,2.84,2.67l.38-10.28H.57l-.57-.57V1.28c0-.1.39-.89.64-.97l20.44-.31c.49.13.54.46.62.9.39,2.1-.05,5.56,0,7.81ZM20.18,1.81H1.9v13.36h18.28V1.81Z"/>
      <path d="M51.4,47.54v21.51c0,.35-.6,1.51-.55,2.11l-.77.37h-21.51c.05,1.47,2.22,1.78,1.9,3.42-.74.74-3.38-2.53-3.99-3.05-.77-.66-2.51-.69-1.64-2.21.17-.3,4.83-3.04,5.44-3.88,1.06,2.04-1.44,2.51-1.72,4.19h20.56l.38-22.46h-9.71c-.54-.33-.53-.76-.59-1.31-.54-4.59.66-10.36.4-15.06h21.13l.57.57v14.85c0,.09-1.19.95-1.33.95h-8.57ZM59.4,32.69h-18.28v12.95h18.28v-12.95Z"/>
    </g>
  </g>
</svg>