<?xml version="1.0" encoding="UTF-8"?>
<svg id="Layer_3" data-name="Layer 3" xmlns="http://www.w3.org/2000/svg" viewBox="0 0 51.92 93.72">
  <g id="Layer_1" data-name="Layer 1">
    <g>
      <path d="M3.17,76.29c.05-.4.49-1.07.46-1.62l1.63-.47h29.13c.07-1.27-.83-2.98.94-3.44l11.97,7.85c.44.44,1.56,1.11,1.5,1.8-.11,1.3-5.36,5.49-6.62,6.71-1.38,1.34-4.5,5.24-5.64,5.98-3.37,2.17-2.25-1.91-2.54-3.48-.3-1.66-1.67-.54-2.86-.54-6.59,0-13.2-.17-19.78-.32-1.15-.03-8.21.7-8.21-.67.33-3.73-.45-8.17,0-11.8ZM34.96,76.09H5.07v6.85l29.53-.4,1.31.96-2.09.96-28.76.37v2.29h30.46l.57,3.81,10.47-10.47-10.09-7.04c-1.12-.18.06.77-.22,1.64-.1.32-1.01.95-1.3,1.02Z"/>
      <g>
        <path d="M6.5,36.97c1.1,1.32-.07,2.98.15,4.2.18.98,1.33,1.48,1.47,2.4.16.99-.42,1.82-.39,2.64s.4,5.12.58,5.51c1.33,2.95,7.64.76,9.9.83,3.96.13,4.27,4.83,3.95,7.89l-.92.4c-1.81-1.62-.08-4.62-2.19-6.2-3.44-.34-9.4,1.9-11.91-1.37-1.56-2.03-.55-3.78-1.01-5.84-.15-.67-.93-1.29-.95-1.6-.03-.55,1.02-1.17.96-1.84-.07-.85-1.35-1.47-1.47-2.37-.14-1.02.69-2.11.35-3.17-10.98-1.04-.75-8.56.55-13.06.89-3.06-.06-6.86,1.21-10.59C14.34-7.43,53.04-4.45,51.9,22.6c-.49,11.59-9.47,14.9-8.77,27.81.14,2.67,1.6,6.19.2,8.55-1.39.29-2.01-6.57-2.08-7.81-.56-9.23,1.28-10.36,5.25-17.58C59.51,9.9,32.6-8.33,14.21,7.37c-6.41,5.47-5.63,9.6-6.63,16.94-.58,4.28-5.66,8.64-5.88,10.93-.12,1.29,3.89,1.19,4.81,1.74Z"/>
        <path d="M25.92,9.56c11.19-1.61,17.5,6.94,13.98,17.4-.99,2.93-4.53,6.34-5.04,9.05-.82,4.42,1.91,10.93-4.88,11.87-3.99.55-7.67-.7-8.15-5.1-.31-2.81.77-4.65-.11-7.51s-3.67-5.35-4.79-8.15c-2.81-7.01,1.23-16.44,9-17.56ZM32.86,39.92c-1.24-7.08,5.52-10.51,6.09-17.33,1.33-15.99-23.09-15.06-20.9,1.49.69,5.24,7.25,9.31,6.06,15.45,1.81-.15,3.49,1.45,3.46-1.33-.05-4.28-1.97-7.91-4.22-11.42.42-.46.48-.74,1.15-.4,1.33.68,3.3,4.75,3.81,6.29l3.12-5.25c.27-.15,1.38-.14,1.44-.08.47.43-2.93,5.7-3.25,6.84-.12.44-.6,4.91-.52,5.15.3.94,2.83-.4,3.77.57ZM32.87,41.45h-8.57c-.1,0-.51-.54-.95-.38l.6,2.31,8.29-.08.62-1.85ZM32.11,44.87h-7.23c-.01.5,1.15.83,1.53.94,1.67.49,4.65.71,5.7-.94Z"/>
      </g>
    </g>
  </g>
</svg>