<?xml version="1.0" encoding="UTF-8"?>
<svg id="Layer_2" data-name="Layer 2" xmlns="http://www.w3.org/2000/svg" viewBox="0 0 62.87 24.12">
  <g id="Layer_1" data-name="Layer 1">
    <path d="M61.14.13c.41.05,1.07.61,1.72.38.07.41-.06.77-.18,1.16-.31,1.02-5.83,9.18-6.55,9.44-.25.09-.87.23-.9-.14-.26-2.2,2.9-4.81,3.24-7.04-6,2.93-11.38,8.12-17.51,10.67-10.12,4.21-11.84-4.51-18.88-4.45-5.18.05-9.57,3.82-13.65,6.57L.6,24.12c-.5-.37-.66-.68-.59-1.32.08-.7,5.33-5.84,6.3-6.66,3.65-3.1,11.1-8.02,15.94-7.96,7.68.09,8.97,8.7,18.64,4.47,6.07-2.65,11.54-8.13,17.76-10.61.1-.6-.54-.4-.96-.39-1.42.02-2.66.45-4.19.42-1.23-.02-4.45-.1-3.98-1.93,3.69.31,8-.42,11.61,0Z"/>
  </g>
</svg>