<?xml version="1.0" encoding="UTF-8"?>
<svg id="Layer_2" data-name="Layer 2" xmlns="http://www.w3.org/2000/svg" viewBox="0 0 32.31 47.52">
  <g id="Layer_1" data-name="Layer 1">
    <g>
      <path d="M12.65,26.74l-.53,1.81C-9.09,23.85.17-1.83,19.68.1c14.15,1.4,17.19,20.04,5.14,26.37-.83.44-6.06,2.93-6.06.8.62-1.38,2.93-1.48,4.33-2.15,3.3-1.56,6.24-4.17,6.93-7.92C33.44-1.59,7.76-2.66,2.71,11.6c-2.89,8.14,2.33,13.52,9.94,15.14Z"/>
      <path d="M21.43,19.48c.95.9-3.92,4.11-4.1,5.23-.6,3.46-.66,7.23-.11,10.6.93.67,4.93-1.2,6.15.32.57.7-.28,5.94-.58,7.1-.77,3-2.81,4.74-5.95,4.8-3.49.07-5.5-1.09-6.63-4.45-.41-1.22-1.16-5.52-.96-6.63.47-2.57,3.97-.65,5.68-1.01.47-.27.47-6.08.41-7-.15-2.18-.4-4.6-2.03-6.15-.55-.53-2.73-1.32-2.53-2.22,1.98-2.29,4.81,3,5.51,2.85,1.37-1.5,2.87-3.8,5.14-3.42ZM21.34,38.43c.45-.32.63-1.68-.11-1.82-.62-.12-1.75,1.1-2.45,1.35-.27.1-3.45.81-3.64.8-1.06-.03-2.51-2.15-3.99-1.77-.44,1.72,2.48,2.22,3.66,2.24.77.02,6.19-.57,6.53-.81ZM21.44,40.42h-10.28c.29.44.24,1.31.65,1.53,1.94,1.07,6.61.63,8.81.31l.82-1.84ZM19.91,44.23l-7.23-.38c-1.08.97,4.17,2.89,6.74,1.24.38-.24.68.03.49-.86Z"/>
    </g>
  </g>
</svg>