<?xml version="1.0" encoding="UTF-8"?>
<svg id="Layer_2" data-name="Layer 2" xmlns="http://www.w3.org/2000/svg" viewBox="0 0 47.33 56.85">
  <g id="Layer_1" data-name="Layer 1">
    <g>
      <path d="M14.58.22C18.53-.05,23.09-.04,27.05.1c7.75.28,16.04.18,18.94,8.85,1.72,5.16,1.45,20.47,1.03,26.37-.29,4.06-1.71,9.31-6.15,10.6-2.17.63-6.99.23-8.31.83-1.19.54-5.33,6.29-7.04,7.81-.89.79-2.03,1.69-3.05,2.29-2.76.02-.35-8.74-1.7-10.11-1.08-1.09-9.01-.38-11.19-.61C-1.43,44.98.34,34.34.2,26.17.1,20.17-.92,9.41,2.86,4.49,5.42,1.14,10.68.48,14.58.22ZM23.04,54.17c2.86-1.31,6.18-7.85,8.4-8.93,4.61-2.24,11.09,1.92,13.13-6.29,1.15-4.64,1.05-20.54.51-25.67-1.17-11.2-9.77-11.01-18.78-11.3C19.77,1.79,6.67.58,3.41,7.33c-2.27,4.71-1.36,12.23-1.29,17.34.06,4.45-.62,10.93.85,15.11,2.44,6.91,12.88,3.37,18.25,4.97,1.22.36,1.81,1.52,1.81,2.76v6.66Z"/>
      <path d="M29.51,21.43c1.47,1.27-1.75,13.76-2.55,15.91-.33.88-1.04,3.53-2.21,2.37-.55-.83,2.33-9.2,2.69-11.03.26-1.31.51-2.88.36-4.21-3.11,3.98-4.74,8.85-7.09,13.28-1.6.93-3.73-5.13-4.71-6.04-.77.33-4.44,6.75-5.71,8-.49.49-.86,1.2-1.53.38l.25-2.05c1.56-1.08,6.08-8.95,7.02-9.35.2-.09.99-.19.93.23.68,1.61,1.65,3.93,2.57,5.35.24.37-.04.68.85.49.83-2.84,5.28-11.89,7.72-13.04.46-.22.9-.36,1.42-.29Z"/>
    </g>
  </g>
</svg>