<?xml version="1.0" encoding="UTF-8"?>
<svg id="Layer_2" data-name="Layer 2" xmlns="http://www.w3.org/2000/svg" viewBox="0 0 88.49 62.49">
  <g id="Layer_1" data-name="Layer 1">
    <path d="M64.42.58c1.02,1,.11,3.06-1.28,3.22-.9.1-2.54-.76-3.56-.09l7.61,23.37c10.3-2.23,20.79,5.04,21.29,15.77.66,14.19-14.79,22.66-26.52,14.74-10.78-7.28-8.75-24.31,2.91-29.57l-2.06-5.49-16.48,18.49c-.98,1.89,1.14,2.84-.48,5.59-2.31,3.91-8.2,2.95-8.31-1.66l-3.41.39c-.14,13.74-16.4,22.3-27.56,13.68-14.81-11.44-2.45-35.66,16.62-29.92,1.82.55,3.67,2.46,4.85,2.79.54.15.54.08.96-.2.78-.52,4.29-4.33,4.76-5.15,1.04-1.8-1.99-5.53-1.96-7.77-1.9-.12-7.79.76-6.74-2.81.35-1.19,4.13-1.35,5.43-1.43,1.46-.09,8.53-.22,9.24.49.63.63.71,2.34-.07,2.98-.97.8-3.54.74-4.78.73l2.13,5.27,23.72-7.57-3.99-12.54c-.93-1.11-6.06.32-7.9-.46-1.09-.46-1.34-2.39-.4-2.99.84-.54,12.21-.52,14.01-.37.6.05,1.55.06,1.98.49ZM61.47,19.12l-23.4,7.96c-.35.51-.11,1.03,0,1.56.31,1.61,2.85,8.48,3.62,10.07.35.72.73,1.19,1.35,1.68l18.43-21.27ZM37.8,42.19c.2-.16,1.56-2.02,1.56-2.28l-4.3-10.9-4.7,5.43c1.58,2.49,3.11,5.22,3.39,8.22,1.21-.03,3.08.31,4.06-.48ZM66.02,30.9c-2.84.25-5.78,3.72-6.9,6.19-7.21,15.83,12.71,27.92,23.07,15.85,9.05-10.54-.58-25.48-13.48-23.17l2.99,11.14c8.92,3.93-3.68,10.59-2.36,1.24l-3.32-11.26ZM19.72,46.16c-1.22,4.92-7.86,2.17-5.53-1.92,1.6-2.82,3.76-.78,4.91-1.52,2.1-1.36,4.83-6.43,7.01-8.21-12.5-11-30.48,6.23-20.29,19.54,8.34,10.89,24.94,4.37,25.24-8.71l-11.35.82ZM30.69,43.06c.44-1.17-1.86-6.71-2.85-6.46l-5.52,6.84,8.36-.38Z"/>
  </g>
</svg>