<?xml version="1.0" encoding="UTF-8"?>
<svg id="Layer_2" data-name="Layer 2" xmlns="http://www.w3.org/2000/svg" viewBox="0 0 41.03 45.29">
  <g id="Layer_1" data-name="Layer 1">
    <path d="M25.82,11.81c.3-2.81.91-5.97,1.8-8.65.31-.94.69-3.07,1.82-3.16.77-.05,1.25.48,1.82.85,1.28.83,9.2,7.11,9.58,7.92.23.5.23.62,0,1.12-.95,2.05-8.65,7.1-9.11,8.35-.25.67.61,3.2.56,4.37-.29,7.2-13.47,21.89-20.34,22.64C8.04,45.7-.18,40.45,0,36.36c.12-2.72,6.38-9.21,8.27-11.89,1.55-2.19,2.54-4.65,4.26-6.76,3.42-4.21,7.7-6.66,13.29-5.91ZM30.38,16.37c.19-1.55,6.84-6.22,6.84-7.03l-7.02-5.52c-1.08,4.14-2.91,8.23-.57,12.3l.75.24ZM26.11,15.33c-1.53-1.41-4.65-.73-6.34.12-6,3.03-7.73,8.9-11.05,14.22,7.09,3.46,10.17-4.47,14.05-8.56.82-.87,3.88-3.01,4.02-3.22.34-.55-.28-2.19-.68-2.56ZM29.25,22.84c-.39-.33-6.12.39-5.7,2.28,1.74-.7,5.26.13,5.7-2.28ZM28.11,25.5c-2.59.74-5.46.66-7.22,3.04,2.95-.89,6.76,1.07,7.22-3.04ZM20.67,36.3c2.21-1.96,4.39-4.19,5.54-7-2,.78-4.9.32-6.86.93-.92.28-2.38,1.91-3.63,2.45-1.85.8-3.88,1.05-5.87.63-1.19-.25-2.86-1.62-3.28-1.68-.97-.15-1.45.87-.7,1.86.5.65,4.18,3.98,4.95,4.55,4.07,3.03,6.63,1.12,9.85-1.74ZM12.14,41.84c-3.5-.58-5.58-4.3-8.18-6.46-3.02,1.21,2.77,5.27,4.18,6.09.85.49,3.91,2.33,4,.38Z"/>
  </g>
</svg>