<?xml version="1.0" encoding="UTF-8"?>
<svg id="Layer_3" data-name="Layer 3" xmlns="http://www.w3.org/2000/svg" viewBox="0 0 49.73 49.73">
  <g id="Layer_1" data-name="Layer 1">
    <path d="M49.73,24.87c0,13.73-11.13,24.87-24.87,24.87S0,38.6,0,24.87,11.13,0,24.87,0s24.87,11.13,24.87,24.87ZM26.12,7.36l.13,6.78c1.93.9,6.53,6.09,8.31,6.07.64,0,5.49-1.52,5.75-1.89l2.07-7.05c-2.12-3.46-6.11-5.17-9.36-7.33l-6.9,3.42ZM16.5,20.94c.48-1.17,1.59-2.18,2.52-3.01.73-.66,3.92-2.96,4.19-3.41.39-.65.83-6.81.2-7.42l-6.31-2.84c-2.68.38-9.75,5.28-9.96,7.85l2.74,6.99,6.62,1.84ZM43.45,36.47c.65-.61,3.34-7.49,3.45-8.56.18-1.69-4.64-5.59-5.92-6.88l-6.58,1.64-2.24,9.53,3.82,6.23,7.47-1.97ZM15.33,23.35l-6.87-2.01c-.94,2.11-5.79,4.83-5.52,6.95.16,1.26,2.43,6.99,3.38,7.68l7.69,2.07,4.28-4.52-2.96-10.17ZM19.66,46.77c2.61.04,7.39,1.17,9.73.16.83-.36,5.05-5.96,5.02-6.75l-3.95-5.92c-3.46-.63-7.63.07-11.15.49l-3.47,4.72,3.82,7.3Z"/>
  </g>
</svg>