<?xml version="1.0" encoding="UTF-8"?>
<svg id="Layer_3" data-name="Layer 3" xmlns="http://www.w3.org/2000/svg" viewBox="0 0 89.74 105.32">
  <g id="Layer_1" data-name="Layer 1">
    <path d="M70.15,35.78c-.25.03-.68.46-1.08.39l-.25.74c2.41.61,3.02,4.05,2.57,6.19-.28,1.34-1.65,2.43-2.08,3.62-1.13,3.13-1.26,8.3-2.42,12.03-3.07,9.9-8.95,14.87-18.17,19.02.85,2.08,1.48,4.29,1.81,6.52.62,4.26,1.41,12.4.06,16.32-1.9,5.53-9.13,6.72-11.06.77-1.89-5.81-.28-14.69-3.18-20.38-.56-1.1-6.23-6.37-7.25-6.81-.61-.26-.51.21-.64.47-1.57,3.09-2.34,7.14-4.03,10.42-2.05,3.98-5.98,8.53-8.99,11.91-1.72,1.92-5.6,6.68-7.86,7.34-3.87,1.13-8.86-2.52-7.25-6.49l12.4-17.24c1.32-5.94,1.64-12.2,4.26-17.78.37-.8,1.42-1.64,1.58-2.21.43-1.45-.28-2.72-.31-4.08-.06-2.6.08-5.21.02-7.81-3.06.75-5.49-1.15-7.9-1.79-3.3-.88-7.5-.4-9.28-4.41-2.81-6.35,4.37-10.19,9.89-9.44,1.37-2.98,3.02-5.92,4.85-8.64,3.52-5.24,8.35-11.61,12.33-16.56.46-.58,2.96-2.87,3.01-3.08.11-.45-2.36-4.53,1.35-4.76,2.63-.16,2.03,2.07,2.68,3.44,1.21,2.57,9.37,1.3,12.14,1.54,14.62,1.25,20.99,15.39,21.48,28.5l7.24-.19.71-5.73c.3-.18.64-.2.98-.2,1.87.03,9.22,5.2,11.59,5.93.41.27.46.62.34,1.07-.37,1.37-9.98,5.7-11.71,6.92-2.37.46-1.37-4.16-1.55-5.52-1.99.18-4.34-.25-6.27,0ZM15.41,33.49c2.65.32,5.84-.23,8.55,0-2.37-4.75-1.96-9.29,2.28-12.74,9.2-7.5,20.77,3.18,13.31,12.73l22.43-.37c-.1-6.15-3.27-13.33-7.98-17.3-5.66-4.78-13.88-5.26-20.34-8.55l-.22,1.1c-.22.2-1.25-.13-1.88.23-.28.16-3.61,4.26-4.17,4.95-3.08,3.79-6.41,8.42-9.22,12.45-.83,1.19-4.15,5.69-4.47,6.55-.23.62,1.39.91,1.71.94ZM52.86,8.79c-2.01-.24-4.26-.64-6.28-.38-.52.07-1.17.27-.57.76,2.01.24,4.26.64,6.28.38.52-.07,1.17-.27.57-.76ZM58.17,12.97c-1.92-2.87-4.89-2.81-7.98-3.03,2.06,2.09,5.22,2.61,7.98,3.03ZM60.07,15.25c-.92-2.01-3.2-1.53-4.94-2.28.38,2.47,3.16,1.79,4.94,2.28ZM62.36,18.67c-.75-2.27-2.11-3.24-4.56-3.03.93,2.02,2.39,2.8,4.56,3.03ZM63.05,19.5c-.49.06-2.94-1.05-2.58.11.71,2.26,1.67,2.39,3.79,3.24l-1.21-3.35ZM61.41,36.16c-8.16.38-16.86,0-25.09,0-.13,0-.46-.43-.52-.63-.61-1.92,1.39-2.86,2.05-4.31,2.46-5.39-1.24-11.71-7.53-9.43-4.85,1.77-5.67,7.48-2.88,11.46.33.47,2.8,1.85.83,2.45-.23.07-2.1.45-2.21.45h-9.69c.31.72.48,1.36,1.33,1.52,2.88.55,9.23-.04,12.57-.01,1.15,0,2.23.29,3.36.33,8.2-1.38,18.25.77,26.28-.3,1.07-.14,1.41-.58,2.07-1.36.09-1.16-.39-.19-.57-.18ZM65.4,27.03c-.61-1.86-.67-3.79-3.04-4.17.66,1.48,1.1,3.85,3.04,4.17ZM66.15,33.5c-.18-2.27.04-5.24-2.27-6.46l1.14,6.46h1.14ZM79.08,31.78c.08,1.83-.06,3.68,0,5.51,2.12-.7,4.44-1.89,6.08-3.42l-5.9-2.66c-1.16-.1-.19.39-.18.56ZM7.82,35.99c-2.11.35-4.8,2.45-4.31,4.83.84,4.12,12.79,4.51,11.25-2.11-.61-2.65-4.73-3.08-6.94-2.72ZM63.21,45.18c.98.95,3.17.33,4.06-.49,2.58-2.37.54-7.22-3.04-6.08-2.66.85-2.73,4.92-1.03,6.57ZM14.84,45.65c4.72.76,6.21-1.21,7.97-5.13-.05-.97-4.46-.44-5.31-.57.42,2.55-1.18,3.98-2.66,5.7ZM59.69,39.96l-34.17.41c-.19,1.45-.78,2.76-1.49,4.02-.55.97-2.53,3.04-2.65,3.43-.4,1.41-.54,5.22-.47,6.78.06,1.31.48,2.67.57,3.99,3.39,1.23,10.88,2.98,14.18,1.6,2.46-1.03,3.12-9.31,3.77-11.82.57-2.2.81-4.07,3.38-2.36l17.28-.75c-1.01-1.54-1.06-3.61-.38-5.31ZM61.94,47.98l-20.09,1.12c-.15,4.28-1.5,8.36-2.94,12.34,2.51,3.38,5.67,6.7,7.48,10.44,9.28-3.75,15.58-14,15.54-23.91ZM65.77,48.7c-1.09-.18-.63.24-.81.88-1.51,5.31-1.89,9.49-5.11,14.29-3.18,4.73-7.24,7.97-11.94,11.05,11.1-4.44,18.22-14.02,17.86-26.22ZM46.39,79.1c-1.54.56-4.59,1.99-5.5,0-1.25-2.74,3.79-3.94,3.17-6.18l-7.55-9.6c-3.53,1.54-13.42-2.36-15.96-1.13-2.8,1.35-4.43,16.94-5.23,20.23l-11.9,15.85c-1.19,2.24,1.76,3.83,3.73,2.97,1.63-.71,9.78-10.3,11.27-12.29,2.86-3.82,4.42-7.27,6.21-11.65.75-1.83,1.78-7.74,4.05-7.69,1.79.04,1.24,1.42,2.12,2.47,1.41,1.68,6.14,4.21,7.32,5.98,2.99,4.51,2.65,13.01,3.38,18.29.22,1.57.72,5.79,2.51,6.26,2.9.2,4.08-2.62,4.3-5.06.53-5.88-.29-12.81-1.92-18.45Z"/>
  </g>
</svg>