<?xml version="1.0" encoding="UTF-8"?>
<svg id="Layer_3" data-name="Layer 3" xmlns="http://www.w3.org/2000/svg" viewBox="0 0 91.02 93.17">
  <g id="Layer_1" data-name="Layer 1">
    <g>
      <path d="M23.9,21.79c-1.62,1.7-6.82,8.56-4.15,10.54,2.32,1.72,3.66-2.25,4.61-3.43,3.95-4.89,7.36-7.24,14-6.44,5.55.66,3.96,3.05,2.06,6.53-3.07,5.6-8.7,11.76-11.16,17.35s1.31,7.53,5.25,10.37c2.63,1.89,13.4,8.02,14.17,10.54,1.77,5.78-6.45,15.12-6.6,20.47-.08,3.15,5.02,3.18,7.08.2,1.74-2.52,4.79-9.95,5.95-13.05,1.08-2.88,2.32-6.19,2.11-9.32-.33-5.08-8.04-10.46-12-13.09l-.55-.95,11.77-17.13c1.88-1.72,2.72,1.14,3.8,2.3,3.15,3.38,7.72,8.6,12.74,8.17,4.07-.35,12.26-8.05,14.35-11.5,1.77-2.92,1.38-5.28-2.49-4.77-3.29,1.88-9.19,10.17-12.96,9.8-1.79-.18-7.06-5.62-8.4-7.21-.74-.88-2.64-2.75-1.91-3.82.54-.79,1.53-.13,2.09.23,2.03,1.31,6.66,7.68,8.61,7.78,1.56.08,6.1-5.19,7.58-6.46,1.07-.92,3.16-2.8,4.43-3.17,4.57-1.34,7.66,2.52,6.52,6.9-1.17,4.46-12.04,14.33-16.64,14.9-8.28,1.03-11.54-5.15-16.92-9.89-1.76,4.12-5.42,7.41-7.69,11.13-.37.61-1.25,1.44-.89,2.17.33.67,5.1,3.99,6.16,5.08,8.85,9.12,4.76,16.5.08,26.61-2.49,5.37-5.03,12.79-12.49,9.93s-.01-12.94,1.7-17.3c.48-1.21,2.1-5.22,1.99-6.22-.21-1.86-5.88-4.97-7.35-6.29l-9.08,12.52c-4.03,4.61-17.59,9.92-23.57,9.88-5.05-.03-7.8-4.81-4.91-9.09,3.51-5.2,14.34-3.44,19.1-9.4,1.39-1.74,6.18-10.27,6.46-12.19.12-.83-1.07-2.79-1.1-4.46s.46-3.42,1.1-5.01l12.23-18.94c.12-.84-.13-.45-.57-.55-3.78-.93-7.29.12-10.07,2.84-1.97,1.93-3.36,6.35-5.97,6.95-4.28.97-6.75-1.57-6.16-5.78.73-5.2,7.68-12.52,12.37-14.61,7-3.12,18.43-1.71,24.28,3.36.85.73,2.5,3.61.76,3.76-.37.03-5.32-3.18-6.52-3.7-8.5-3.67-16.57-3.45-23.19,3.5ZM29.27,56.25c-2.93,4.33-5.44,12.74-10.12,15.34-4.16,2.32-11.08,2.57-14.53,4.86s-1.81,6.29,2.49,5.94c3.18-.26,16.05-4.69,18.35-6.77,1.3-1.17,3.16-3.73,4.3-5.2.84-1.08,6.16-8.47,6.17-9.06l-6.67-5.11Z"/>
      <path d="M56.28,19.92C49.9,13.46,54.09.45,63.54.01s13.11,8.68,9.93,16.43c-2.94,7.18-11.77,8.96-17.19,3.48ZM62.05,3.11c-1.84.37-4.14,2.47-4.99,4.13-4.74,9.24,6.99,18.5,12.85,9.43,4.28-6.61.85-15.34-7.86-13.57Z"/>
    </g>
  </g>
</svg>