<?xml version="1.0" encoding="UTF-8"?>
<svg id="Layer_3" data-name="Layer 3" xmlns="http://www.w3.org/2000/svg" viewBox="0 0 45.56 69.59">
  <g id="Layer_1" data-name="Layer 1">
    <path d="M9.91,8.54C17.55.67,29.78-3.73,39.14,4.16c12.65,10.67,4.5,30.58-6.46,39.13-8.62,6.72-17.93,5.53-24.43,16.24-1.12,1.84-3.95,9.52-5.29,9.92-1.64.49-2.88-.29-2.96-2-.12-2.62,2.49-8.68,2.8-12.22.24-2.76.32-7.5.06-10.23-.21-2.28-1.4-4.31-1.82-6.54-1.92-10.35,1.54-22.38,8.85-29.91ZM35.53,4.93c-2.84-1.39-5.56-1.98-8.73-1.92l6.67,4.92,1.89-1.89.17-1.12ZM22.89,3.44c-1.01.28-2.77,2.18-1.61,3.38,1.88,1.95,2.47-.92,3.57-2.17-.1-.97-1.07-1.46-1.96-1.21ZM29.08,6.05l-2.79-1.16-2.52,3.63,2.42,1.69,2.89-4.16ZM12.74,10.22l2.66.98,2.87-4.78-.78-.75c-.47.97-5.39,3.63-4.75,4.55ZM35.18,9.06l2.78,1.52,1.3-1.99-2.35-2.52-1.73,2.99ZM32.83,8.76l-3.36-1.95c-1.34,3.46-3.57,4.5,1.13,6.46l2.24-4.51ZM21.85,8.72l-2.61-1.11c-.77,2.37-5.01,5.12-.42,5.87l3.02-4.76ZM22.66,9.88l-3.08,4.34c3.31,3.67,3.62.13,5.64-2.35.12-.76-2.1-2.31-2.57-1.99ZM34.03,9.85c-1.35,3.1-4.39,4.29.52,6.06l2.52-3.6-3.05-2.46ZM41.62,13.27l-1.33-3.41-.91,1.02v.62s2.23,1.78,2.23,1.78ZM14.26,12.52l-2.79-1.49-2.07,2.43c.73,1.07,1.93,1.7,3.13,2.11l1.73-3.06ZM26.29,12.53l-2.88,4.3,3.15,2.09,2.86-4.27-3.14-2.12ZM38.57,18.57c.83-2.66,3.66-3.83-.16-5.69-2.02,2.65-4.84,4.55.16,5.69ZM15.56,13.43l-2.19,3.18,2.18,1.5,2.19-3.18-2.18-1.5ZM11.6,16.7l-2.85-1.9c-1.22,1.33-1.85,3.03-2.44,4.71l2.44,1.74,2.85-4.54ZM19.55,20.47l1.53-3.16-2.63-1.76-1.88,3.23,2.99,1.68ZM33.21,16.75l-2.61-1.04-2.61,3.9.12.5c.75.25,1.72,1.79,2.5,1.36.56-.3,2.99-4.06,2.6-4.72ZM42.38,22.01c.15-1.99,1.16-4.42-.57-6.07l-2.36,3.61,2.93,2.46ZM15.02,18.98l-2.66-.98-2.23,4.34,1.85.65c.86-1.12,1.34-2.74,2.79-3.22l.24-.78ZM23.75,23.91l2.28-3.23-3.56-2.44-2.11,3.15,3.39,2.52ZM34.78,24.67l2.6-4.37-2.74-2.06-2.85,4.29,2.99,2.14ZM16.12,25.77l2.32-3.92-2.86-1.75-2.74,3.62c.43.71,2.54,2.48,3.28,2.04ZM4.01,26.56l1.13.23c.49-1,2.99-3.83,2.5-4.77-2.54-3.98-3.91,4.2-3.63,4.55ZM40.1,28.85l1.78-5.14-3.67-2.84-2.23,4.67,4.13,3.31ZM27.56,26.57l1.86-3.56c-.14-.74-1.94-1.4-2.6-1.76l-2.29,3.79,3.03,1.53ZM22.57,24.72l-3.35-1.94-2.27,3.93,3.53,2.17,2.09-4.16ZM5.9,28.08l2.1,1.13,3.06-4.55-1.92-1.52-3.24,4.93ZM33.64,25.82l-3.19-1.56-2.13,3.25c.55.4,2.91,2.48,3.42,2.1l1.9-3.79ZM15,26.98l-2.8-1.55-2.72,4.56,2.31,1.88c.56-.65,3.57-4.38,3.21-4.9ZM24.48,31.47l1.94-3.54-2.47-2.11-2.45,3.95c.62.51,2.21,2.14,2.97,1.7ZM34.97,27.03l-2.45,3.16,4.74,3.57c.45,0,2.13-3.03,2.04-3.52l-4.32-3.2ZM16.9,34.54l2.26-4.29-3.17-2.18-2.85,4.35c.09.55,3.3,2.46,3.77,2.12ZM27.59,28.74l-2.53,3.78,3.14,2.1,2.53-3.78-3.14-2.1ZM7.42,30.38l-2.65-1.15c-1.1,2.1-1.4,3.67-1.14,6.08.75.85,3.5-4.43,3.8-4.93ZM20.72,37.59c.88-3.02,4.5-4.58-.16-6.45l-2.91,4.69,3.07,1.76ZM8.51,37.55c.31-1.5,3.08-3.74,1.94-5.07-2.54-2.97-3.46,1.95-4.93,3.41.71.43,2.2,2.12,2.99,1.66ZM36.68,34.56l-5.08-2.7-2.16,3.62,4.02,2.5c.66,0,3.55-2.94,3.22-3.42ZM9.33,39.1l3.17,1.49,3.22-4.33-3.17-2.4c-.78.63-3.69,4.56-3.21,5.23ZM21.48,38.73l3.19,1.49,2.73-4.54c-.74-.44-2.41-2.32-3.22-1.85l-2.7,4.89ZM28.89,36.46c-.66,1.22-3.73,4.16-2.23,5.26,2.35,1.73,4.39-.97,6.22-2.42l-3.98-2.84ZM17.24,43.25c1.72-3.13,4.01-4.73-.7-6.41l-2.64,4.71c.57.61,2.62,2.13,3.34,1.7ZM7.42,38.74c-1.1.03-2.1-2.25-3.04-.95l1.15,3.22,1.89-2.27ZM7.52,42.82c.2.2,2.46,1.23,2.7,1.19l1.35-2-3.38-2.12c-.22,1.14-1.82,1.76-.67,2.93ZM23.72,41.44l-3.36-1.55-2.3,4.35c3.45,3.18,4.65.53,5.66-2.8ZM11.6,45.19c1.73.05,3.27,1.72,4.55-.19l-3.2-2.08-1.36,2.27ZM5.51,58.12c1.96-3.82,5.68-6.52,9.12-8.93-3.12-1.42-7.23-1.74-9.3-4.76-.09,4.55.81,9.22-.57,13.68h.75Z"/>
  </g>
</svg>