<?xml version="1.0" encoding="UTF-8"?>
<svg id="Layer_3" data-name="Layer 3" xmlns="http://www.w3.org/2000/svg" viewBox="0 0 67.65 34.23">
  <g id="Layer_1" data-name="Layer 1">
    <path d="M23.37,12.57h22.43c.59-5.87,1.57-13.2,9.28-12.13.99.14,4.58,1.23,5.62,1.61,3.08,1.13,2.93,6.75,3.02,9.52l.31.45c5.26-.37,4.51,10.75-.36,10.05.68,3.17-1.66,11.04-5.22,11.72-.98.19-1.66-.32-2.49-.24s-1.47.75-2.7.67c-5.55-.37-7.21-8.5-7.46-12.9h-21.44c-.6,3.85-.46,9.05-4,11.6-2.65,1.91-3.35-.29-4.32-.14-.32.05-1.37.96-2.22,1.2-5.87,1.62-8.11-5.85-8.3-10.38C-.28,24.65-.28,19.17.18,15.04c.37-3.36,1.99-4.32,5.28-4.03.64-3.05.81-9.94,4.81-10.58,1.69-.27,3.21.33,4.55.3.96-.03,1.81-.77,3.02-.72,4.88.2,5.44,9,5.52,12.57ZM13.48,3.07c-1.58-.14-3.12.05-3.88,1.63-2.09,4.29-1.92,18.48-.49,23.08.78,2.51,2.58,4.83,5.04,2.49-3.62-8.53-2.19-18.3-.67-27.19ZM18.04,3.07c-2.16-.08-1.99,2.96-2.27,4.56l2.27-4.56ZM54.91,3.45c-3.27-1.54-4.44,1.32-5.34,3.97-1.79,5.28-1.36,12.55-.03,17.93.62,2.52,1.88,7.45,5.4,5.23-2.5-6.01-3.16-12.45-2.68-18.95.21-2.83.7-6.04,2.66-8.17ZM18.8,4.97c-1.04-.21-.65.26-.92.77-.94,1.77-2.17,3.75-2.49,5.69l3.42-6.46ZM60.61,12.95l-.19-2.28c-1.17.93-1.91,2.3-2.09,3.8,1.08-.33,1.07-2.25,2.27-1.52ZM15.38,18.27c1.11-1.99,2.86-3.63,3.04-6.08l-3.12,4.29.08,1.79ZM55.3,17.13c1.3-1.28,2.59-3.16,3.03-4.94-1.25,1.32-2.92,3.06-3.03,4.94ZM5.12,13.71c-2.68-1.12-2.41,5.49-1.72,6.48l1.72.37v-6.84ZM55.67,20.55l3.04-5.7c-.93.87-2.6,2.82-3.13,3.9-.17.35-.72,1.8.09,1.8ZM64.36,15.29c-1.34-2.11-4.72,2.37-2.38,4.09,2.47,1.81,2.99-3.13,2.38-4.09ZM19.94,15.23v3.59h25.85v-3.59h-25.85ZM15.39,23.97c.57-.22,3.82-4.2,2.09-4.17-.51,0-2.31,3.37-2.09,4.17ZM56.81,25.87c0-1.68,1.83-2.92,2.37-4.29.29-.74.48-.83-.28-1.4-.42,1.15-2.59,3.47-2.75,4.44-.05.29.12,1.36.66,1.26ZM19.95,21.7c-2.12-.14-4.15,3.45-4.18,5.32l4.18-5.32ZM60.24,21.7c-.88-.13-1.45,1.51-1.83,2.16-.61,1.05-1.33,2.35-1.59,3.53l3.42-5.7ZM58.33,28.53c-.55.71-.05,2.05.58,1.15.72-1.05,1.7-4.71,1.7-6.08-.8-.08-.1,1.1-.43,1.47-.12.14-.86.04-1.27.43-.43.4-1.91,2.79-1.33,3.43l.75-.38ZM21.09,25.5c-.84-.21-.85.48-1.22.87-.49.52-3.44,3.54-2.01,4.07.28.1,3.44-4.73,3.23-4.94Z"/>
  </g>
</svg>