<?xml version="1.0" encoding="UTF-8"?>
<svg id="Layer_2" data-name="Layer 2" xmlns="http://www.w3.org/2000/svg" viewBox="0 0 66.66 66.66">
  <g id="Layer_1" data-name="Layer 1">
    <path d="M66.66,33.33c0,18.41-14.92,33.33-33.33,33.33S0,51.74,0,33.33,14.92,0,33.33,0s33.33,14.92,33.33,33.33ZM40.66,32.15c.36.34,6.54-3.22,6.08-4.72L34.97,3.07c-7.28-.57-15,2.61-20.53,7.23,10.93,3.08,22.24,10.93,26.23,21.85ZM49.78,25.3c1.84-3.38,4.19-7.29,4.56-11.21s-.32-3.97-3.14-5.98c-3.93-2.79-8.2-4.08-12.82-5.23l11.39,22.42ZM32.17,23.54c-5.04-5.29-13.08-9.78-20.41-10.57-5.82,5.57-9.17,13.52-9.5,21.58,11.24,4.81,24.85,3.2,36.12-.9.83-1.16-5.03-8.88-6.2-10.11ZM52.46,34.79c.84.73,9.68-4.49,10.95-5.56-.03-5.77-2.78-11.22-6.21-15.71-.2,5.73-3.21,10.65-6.56,15.07l1.82,6.19ZM48.26,31.01l-6.27,4.16,1.33,6.1c.32.25,5.4-4.71,6.84-4.19l-1.9-6.08ZM63.84,32.53l-10.22,5.54c1.3,4.9,2.61,9.85,2.24,14.98,5.48-5.23,8.09-13.04,7.98-20.52ZM2.65,37.47c.55,8.33,5.78,16.4,12.78,20.8,9.75-1.92,17.05-8.06,24.49-14.12.76-.96-.21-7.65-.99-7.82-11.24,4.5-24.9,5.59-36.28,1.14ZM52.33,56.74c1.59-1.99-.06-14.46-1.21-17.37l-7.98,6.08c-.07,6.5-1.91,12.7-5.9,17.86,2.91-.41,5.95-1.36,8.62-2.59,1.26-.58,5.76-3.08,6.47-3.98ZM40.28,48.11l-10.14,7.15c-3.22,2.18-7.23,3.07-10.6,4.6-.45.2-.69-.18-.53.79,4.84,1.24,9.58,3.38,14.73,2.55,4.02-4.12,5.81-9.44,6.56-15.09Z"/>
  </g>
</svg>