<?xml version="1.0" encoding="UTF-8"?>
<svg id="Layer_3" data-name="Layer 3" xmlns="http://www.w3.org/2000/svg" viewBox="0 0 76.76 72.17">
  <g id="Layer_1" data-name="Layer 1">
    <path d="M5.3,7.23C11.05,2.06,18.78.55,26.39,1.16c10.38.83,16.09,7.66,27.65,6.35,7.25-.82,14-5.36,21.34-5.16.62.21.9,1.36.88,1.98-.07,2.32-1.75,6.76-2.11,9.61-.74,5.86-.17,11.16.82,16.95.29,1.7,1.91,6.55,1.79,7.71-.38,3.67-13.01,6.82-16.14,7.05-19.92,1.49-29.24-17.2-49.67-3.68-1.45.96-2.74,2.15-4.14,3.17.38,4.02.23,8.06.37,12.1.12,3.55.88,8.29.75,11.74s-4.09,4.62-4.54.8c-.58-4.89-.14-10.98-.36-15.99-.29-6.67-.79-13.45-1.17-20.11-.73-9.02.4-19.72-.73-28.54C.98,3.95,0,3.34,0,2.48-.01-.46,5.3-.54,5.3.96v6.27ZM23.54,4.19c-1.63.46-3.67-.01-4.94,1.33l-12.34,15.41-.2,4.17L23.54,4.19ZM6.81,36.5L31.15,5.52c-2.16-.73-4.49-1.21-6.77-.86L6.42,26.41l-.36,3.63.77-.18c4.61-5.63,8.97-11.95,13.86-17.31.6-.66,2.03-2.24,2.67-2.66.49-.32.83-.41.95.2L6.63,31.57c-.39.84-.25,2.97-.2,3.99.02.43-.25,1.04.38.94ZM17.84,4.96l-3.69.87c-1.56,3.24-7.21,7.81-8.26,10.93-.34,1.02-.21,1.99-.2,3.02l12.16-14.82ZM72.95,5.72l-2.84.38c-7.54,10.25-15.93,19.87-23.54,30.05-.34.46-2.31,3.13-2.12,3.38l2.67.98c3.54-4.55,7.4-8.85,11-13.35s11.33-13.39,13.87-18.06c.58-1.07.9-2.19.97-3.4ZM13.28,6.1c-2-.07-7.29,3.91-7.59,5.52-.21,1.08.12,2.47,0,3.6l7.6-9.12ZM35.7,6.86c-1.71-.22-2.55-1.4-4-.02-1.16,1.1-2.48,3.74-3.6,5.14-7.06,8.76-14.76,17-21.46,26.06l.19,3.4c4.11-2.62,6.15-7.11,9.13-10.82,4.81-6.01,9.99-12.7,15-18.45.64-.73,5.18-4.73,4.76-5.31ZM68.39,6.48l-4.35,1.92c-6.09,7.46-11.88,15.22-18.09,22.58-1.44,1.71-4.19,4.07-5.32,5.71-.22.32-.53.38-.37.95,1.28.03,2.41,1.83,3.44.6l24.69-31.76ZM39.13,8.38l-2.17-.7-.7.27-24.5,30.06c.21.18,4.26-2.17,4.77-2.64,5.89-5.49,12.56-15.26,18.22-21.69.69-.78,4.99-4.48,4.38-5.31ZM62.31,8.76c-1.35.5-3.76.75-4.82,1.64-.74.62-1.66,2.6-2.41,3.48-6.07,7.2-12.48,14.14-18.62,21.29l-.38.95,3.35.69,22.87-28.05ZM51.28,10.65c-1.72,1.69-10.81-1.76-11.33-1.47l-21.73,25.79,6.76-.84,7.86-9.43,12.16-12.54c.25.8-.93,2.18-1.39,2.79-2.3,3.07-4.98,4.99-7.4,7.61-3.37,3.65-6.41,7.64-10.01,11.08-.16.86.37.53.94.57,1.12.08,2.26-.1,3.39.04,1.38.17,3.73,1.45,4.79.92l20.91-24.91c-4.32-.24-5.04,2.72-7.41,5.32-4.01,4.41-8.19,8.85-12.35,13.12-.91.93-4.19,4.53-4.96,4.92-.38.2-.71.25-1.13.19-.07-.06.47-.92.6-1.11,3.94-5.54,12.21-12.44,17.08-17.89.81-.91,1.93-2.13,2.66-3.04.3-.38.73-.49.56-1.14ZM48.25,41.06l3.04.6c3.68-5.37,8.15-10.13,12.16-15.24,1.74-2.23,6.56-7.81,7.52-9.96.72-1.62.3-3.39.85-5.04l-23.56,29.64ZM52.43,42.2l3.25.04c3.58-4.96,7.86-9.44,11.56-14.3.79-1.04,3.35-4.15,3.64-5.1.44-1.49-.2-3.05.17-4.58l-18.62,23.94ZM71.43,24.34l-14.44,18.24c1.37-.1,2.71.42,3.81-.56,3.52-3.12,6.89-10.37,10.33-13.99l.29-3.69ZM62.31,42.2c.3.23,2.78-.39,3.25-.74.67-.5,3.82-5.45,4.74-6.66,1.68-2.19,2.73-2.42,1.5-5.9l-9.5,13.3ZM66.87,41.06c.34.28,5.77-2.08,6.29-3.04l-.6-4.17c-.42-.31-5.23,6.52-5.7,7.22Z"/>
  </g>
</svg>