<?xml version="1.0" encoding="UTF-8"?>
<svg id="Layer_3" data-name="Layer 3" xmlns="http://www.w3.org/2000/svg" viewBox="0 0 43.24 35.49">
  <g id="Layer_1" data-name="Layer 1">
    <path d="M27.55.2c8.32-1.13,15.52,2.35,15.69,11.51.13,6.98-7.02,12.81-13.85,11.92-1.42-.19-3.85-1.72-4.89-1.43-4.02,3.33-8.08,6.64-12.06,10.01-2.23,1.89-2.72,4.3-6.21,2.8-1.99-.86-7.63-6.4-5.91-8.83,4.4-3.69,8.53-7.69,12.87-11.45,1.25-1.08,4.51-2.92,4.86-4.26s.12-2.64.77-4.17C20.18,3.19,24.28.65,27.55.2ZM32.97,2.77c-3.93-1.15-10.13,1.2-11.87,5.03-.96,2.1,1.16,1.99,1.23,4.08-.8.13-1.6.51-2.26.98-6.01,4.29-11.26,9.94-17.12,14.44.95,1.66,3.43,5.96,5.68,4.92l16.26-13.81c1.62-.4,2.78,2.58,5.56,2.56,2.07-.02,6.54-1.94,7.66-3.76.59-.96-.37-.74-.97-1.32-3.63-3.49-6.1-8.06-4.17-13.13ZM37.14,4.69l-1.71-.73c-1.33.99-.95,2.94,0,4.12l1.7-3.39ZM38.28,12.65l1.14-6.08c-1.15,1.11-2.71,5.01-1.14,6.08Z"/>
  </g>
</svg>