<?xml version="1.0" encoding="UTF-8"?>
<svg id="Layer_3" data-name="Layer 3" xmlns="http://www.w3.org/2000/svg" viewBox="0 0 50.14 62.17">
  <g id="Layer_1" data-name="Layer 1">
    <g>
      <path d="M28.53,9.22l.36,2.47c3.92.96,8.18,2.04,11.25,4.74.54.21,1.62-1.95,1.61-2.08-.04-.51-2.35-1.56-.12-3.61,1.3-1.19,2.3-.66,3.59.22,1.58,1.08,5.21,4.31,3.1,6.09-1.7,1.43-4.78-1.16-4.57,2.27.03.44,2.92,4.16,3.47,5.23,10.98,21.68-10.99,45.63-33.53,35.05C-8.3,49.26-2.47,14.43,21.69,11.87v-2.66c-1-.18-3.73.53-4.11-.63-.47-1.42-.7-5.61.34-6.76,2.25-2.5,11.7-2.32,14.18-.16,1.47,1.28,1.52,6.98,0,7.49-.79.26-3.35-.12-3.55.07ZM24.73,2.76l-1.15.25-1.13,3.92c2.04-.2,1.61-2.79,2.28-4.18ZM27.01,2.76l-1.15.25-1.14,3.54,1.34.02.94-3.81ZM21.69,3.14c-2.37.12-1.92,2.11-1.51,3.8l1.49-.41.02-1.11-1.14.56,1.14-2.84ZM47.06,37.1c0-12.21-9.9-22.1-22.1-22.1S2.85,24.89,2.85,37.1s9.9,22.1,22.1,22.1,22.1-9.9,22.1-22.1Z"/>
      <path d="M22.18,34.4c1.01-1.25,3.02-1.3,4.45-1.03,1.77-1.69,7.27-10.29,9.01-10.79,2.16-.63,1.57,1.19.87,2.4-1.61,2.77-7.25,7.87-8.17,10.09-.43,1.05,1.22,3.09-1.33,4.73-3.94,2.52-7.11-2.56-4.82-5.39Z"/>
      <path d="M24.58,52.96l1.32.13c.74.53.66,4.01-.98,4.03-1.43,0-1.27-3.86-.34-4.16Z"/>
      <path d="M35.95,47.99c1.04-.3,3.58,2.86,2.47,3.62-1.78,1.22-4.14-3.13-2.47-3.62Z"/>
      <path d="M12.42,22.17c1.64-.5,3.56,2.46,2.44,3.22-1.54,1.04-4.07-2.72-2.44-3.22Z"/>
      <path d="M44.5,35.82l-.22,1.94c-.8.29-2.91.71-3.41-.02l-.15-1.52,3.78-.4Z"/>
      <polygon points="25.87 17.57 25.7 21.4 23.97 21.76 23.97 17.57 25.87 17.57"/>
      <path d="M13.95,48.4c.47-.07,1.25.62,1.12,1.13-.42.89-1.47,2.97-2.68,2.64-1.57-.65,1-3.68,1.57-3.77Z"/>
      <polygon points="9.53 36.58 8.9 38.43 6.35 38.43 5.73 36.58 9.53 36.58"/>
    </g>
  </g>
</svg>