<?xml version="1.0" encoding="UTF-8"?>
<svg id="Layer_2" data-name="Layer 2" xmlns="http://www.w3.org/2000/svg" viewBox="0 0 121.06 76.72">
  <g id="Layer_1" data-name="Layer 1">
    <g>
      <path d="M103.89,32.59c-1.08,1.16,3.24,1.15,3.52,1.22,9.32,2.27,5.28,17.44-2.24,18.14-2.44.23-10.11-3.03-11.89-4.77-2.18-2.14-.74-5.34-3.18-6.33-1.73-.7-3.45.46-5.1,1.16-8.28,3.53-16.71,8.11-24.95,11.92-3.2,1.48-6.45,2.9-9.76,4.12l3.39,1.73c7.35,4.99.74,18.87-7.59,16.71-.93-.24-8.09-3.97-8.7-4.6-1.73-1.78-1.7-4.74-1.33-7-1.31-.48-2.95-2.01-4.14-2.39-.28-.09-2.86-.15-3.13-.11-.69.1-2.57,2.03-4.95,2.13-4.52.2-5.66-3.39-8.58-5.1-5.11-2.99-10.28-3.49-13.71-9.47-3.32-5.78-1.28-10.03,4.94-11.55,6.88-1.69,12.23-2.23,19.18-4.77,21.32-7.81,42.19-19.82,63.12-28.86,8.92-3.85,27.69-9.95,31.54,3.56,3.42,12-6.09,20.65-16.46,24.26ZM4.01,42.54c-1.54,2.63,4.77,6.59,6.51,7.59,24.11,13.94,49.38-3.22,71.2-13.69,8.36-4.01,28.53-11.84,33.78-18.67,3.61-4.69,3.44-12.19-2.94-14.19-10.01-3.14-21.32,3.23-30.21,7.27-19.03,8.64-42.45,22.08-62.08,27.62-4.46,1.26-9.79,1.56-13.86,2.87-.44.14-2.28.98-2.41,1.2ZM3.93,48.16c-.38.43,2.75,3.42,3.22,3.81,13.93,11.42,32.89,7.55,47.97,1.2,12.34-5.2,25.45-11.66,37.51-17.6,6.51-3.21,16.31-7.48,21.53-12.29.34-.31,1.91-1.68,1.51-2.09-5.59,4.7-12.33,7.77-18.86,10.97-13.13,6.42-27.19,13.31-40.55,19.13-4.76,2.07-9.68,4.29-14.77,5.37-13.13,2.8-27.47.81-37.56-8.48ZM104.54,36.45c-1.81.55-3.98,5.19-4.04,6.99-.05,1.46.83,5.15,2.44,5.47,5.79,1.15,9.71-7.24,5.52-11.22-.94-.89-2.64-1.63-3.93-1.24ZM98.49,39.87c-.1-.16-3.12-1.82-3.33-1.59-.3.33-.08.9.47,1.24.45.27,3.32,2.09,2.95.85.12-.22.02-.33-.09-.5ZM98.11,41.78c-.07-.13-2.03-1.37-2.39-1.6-.74-.47-.7-.57-1.32.19l3.6,2.85c.37-.15.25-1.18.11-1.44ZM98.19,45.12c.96-1.22-3.52-2.81-4.17-3.42-.7.74,3.61,3.14,4.17,3.42ZM48.67,61.54c-1.73.53-3.88,4.36-4.07,6.19-1.04,10.12,9.45,6.27,9.67-.9.09-2.85-2.53-6.22-5.6-5.29ZM42.69,64.91l-3.41-1.54c-.37,2.02,1.98,1.38,2.66,2.66-.78.4-2.96-1.72-3.04-.19l3.42,1.71.38-2.64ZM41.94,69.83c.5-2.07-2.03-2.26-3.41-3.04-.25,1.9,2.36,1.93,3.41,3.04Z"/>
      <path d="M105.7,39.48c3.96-.77,2.41,7.46-1.55,6.74-2.11-1.54-.85-6.28,1.55-6.74Z"/>
      <path d="M48.51,65c3.06-2.51,5.71,3.36,1.55,5.54-3.71,1.95-3.77-3.72-1.55-5.54Z"/>
    </g>
  </g>
</svg>