<?xml version="1.0" encoding="UTF-8"?>
<svg id="Layer_3" data-name="Layer 3" xmlns="http://www.w3.org/2000/svg" viewBox="0 0 119.39 50.05">
  <g id="Layer_1" data-name="Layer 1">
    <path d="M32.22,36.5c-.85,7.43-5.88,13.19-16.71,11.95-1.99-.23-5.89-2.07-7.28-3.21C1.66,39.83-1.69,25.32.85,18.34c.45-1.24,1.97-1.67,2.28-2.45.64-1.56.61-3.84,1.46-5.73C9.03.39,25.2-1.49,30.47,9.33c1.54,3.16,2.55,7.75,1.76,11.01l44.67-.35c1.28-2.9,1.45-6.06,2.79-8.97,2.47-5.35,8.88-12.82,17.52-10.63,4.13,1.04,3.43,3.15,5.25,4.75.59.52,1.77.65,2.49,1.15,5.05,3.48,4.91,8.53,5.48,13.34.49.71,7.79-1.72,8.71,3.23,1.04,5.58-1,8.59-8.95,7.76.04,4.01-1.3,10.05-5.22,12.94-1.2.89-2.97,1.36-4.04,2.25-2.03,1.67-2.35,3.94-6.47,4.22-11.68.78-16.99-13.25-17.24-20.16l-44.98.38c-.17,2.04.23,4.26,0,6.27ZM98.19,5.52c-1.97-5.04-7.65-2.5-10.7.42-8.97,8.55-9.44,29.15-1.01,37.95,2.13,2.22,8.07,4.5,9.71,1.17-3.55-1.11-5.65-5.72-6.62-8.46-2.52-7.05-2.29-14.49-.12-21.58,1.01-3.3,3.39-9.53,8.75-9.5ZM16.73,5.15c-8.65,1.44-10.4,8.93-11.41,14.69-1.48,8.41-.7,24.32,13.16,26.36l-5.12-6.75c-3.69-7.49-3.65-21.01-.35-28.59l3.72-5.72ZM19.24,11.61c2.36-.9,2.77-2.8,3.49-4.56-1.83.91-2.82,3-3.49,4.56ZM16.23,14.27l3-5.7c-1.62.73-2.72,2.84-3.25,4.18-.15.38-.75,1.57.25,1.52ZM94.19,15.41l3.5-6.08c-1.64,1.22-3.06,3.29-3.75,4.93-.16.37-.69,1.22.25,1.14ZM103.18,9.33c-1.36-.23-.85.32-1.23.76-1.34,1.53-2.15,3.18-3.36,4.68-2.33,2.9-5.86,5.7-6.89,9.01,5.32-3.52,7.1-9.02,11.63-13.04l-.14-1.41ZM23.73,10.09c-1.27.21-2.68,1.71-3.48,2.48-1.7,1.62-3.39,3.6-4.51,5.5,3.41-2.2,5.97-4.98,7.99-7.98ZM91.2,27.19c1.04.17,1.13-.41,1.61-.86,1.93-1.85,10.78-12.06,11.38-13.78.22-.64.88-.72-.24-1.31l-12.74,15.95ZM14.24,22.63c3.79-3.6,10.05-6.4,11.48-11.02l-10.5,8.16-.98,2.86ZM92.69,19.97l5.5-7.22c-1.88,1.34-4.38,4.04-5.61,5.8-.22.31-.9,1.48.12,1.42ZM23.73,19.59c1.95-1.7,4.91-3.72,4.99-6.08-2.36,1.33-4.1,3.97-4.99,6.08ZM92.69,30.23c.67-2.11,3.3-3.49,4.71-5.36.63-.84.71-1.9,1.37-2.76,1.85-2.39,6.97-4.73,6.92-8.23-4.75,3.62-7.61,8.33-11.17,12.59-.64.77-4.66,3.64-1.82,3.75ZM21.56,20.22l3.16-4.43c-3.35,3.14-9.02,5.91-10.48,9.88l7.32-5.45ZM28.67,20.31l.55-2.62-3.99,2.47,3.44.15ZM77.24,22.61H23.19s0,4.98,0,4.98h54.05s0-4.98,0-4.98ZM110.19,22.63c-5.9.02-9.52-1.11-8.51,4.68.1.25,1.13.64,1.27.64h7.25v-5.32ZM114.68,27.57c.5-.36.66-3.32.5-3.99-.35-1.47-1.79-1.24-2.02.37-.07.49.16,4.59,1.52,3.62ZM19.73,23.01l-5.02,3.97-.48,1.72c.9.14,1.23-.35,1.76-.76,2.05-1.59,3.63-2.51,3.73-4.93ZM19.73,26.81c-.68-.59-6.23,4.13-4.99,5.32,1.26-.53,6.01-4.44,4.99-5.32ZM97.69,26.81c-1.11-.17-1.61.97-2.19,1.56-1.33,1.37-3.09,3.16-2.8,4.9,2.06-1.79,5.55-3.93,4.99-6.46ZM21.57,31.26c.31-.26.62-.68.42-1.03l-2.25-1.13c-.89,2.28-5.23,3.49-4,6.08,1.55-1.29,4.43-2.72,5.84-3.91ZM100.69,30.24l-1.75-.67c-2.18,2.1-6.29,4.2-5.74,7.13l7.49-6.45ZM25.73,30.62c-1-.17-1.34.19-2.02.55-1.35.71-6.23,4.06-6.93,5.03-.75,1.05.23,2.35,1.21,3.16.47-.28.28-.88.72-1.34.91-.94,4.29-3.59,4.75-4.37.73-1.22.04-2,2.26-3.02ZM28.73,30.62l-1.65.47c-2.04,3.01-6.32,5.76-7.75,8.91-.13.28-1.02,1.33.16,1.25.84-.06,9.53-8.92,9.25-10.63ZM104.69,30.62c-3.2-.55-7.53,3.65-8.9,5.58-.64.91-1.31,1.65-1.09,2.77,3.11-3.01,6.05-5.93,9.99-8.36ZM100.2,39.35c3.53-2.06,5.92-5.3,5.99-8.74l-5.99,8.74ZM97.69,41.63l5.5-8.74-5.86,5.61-1.08,2.52,1.44.61ZM27.73,34.42c-1.7,2.77-4.81,4.88-7.25,7.22-.63.6-1.11.45,0,1.13,2.1-2.37,5.7-4.77,7.48-7.23.26-.35.72-1.19-.23-1.13ZM99.19,42.39c3.74-.4,5.4-3.1,5.49-5.7l-2,2.47c-1.29.96-3.27,1.67-3.49,3.23Z"/>
  </g>
</svg>