<?xml version="1.0" encoding="UTF-8"?>
<svg id="Layer_2" data-name="Layer 2" xmlns="http://www.w3.org/2000/svg" viewBox="0 0 65.18 71.21">
  <g id="Layer_1" data-name="Layer 1">
    <path d="M40.21,60.46c4.09-.94,3.1,8.7,1.73,9.91-1.27,1.12-9.7.85-11.83.74-2.74-.14-4.79.25-5.1-2.85-.33-3.25-.9-8.04,3.42-7.98-4.57-5.67-10.04-10.49-15.02-15.77-1.4-1.48-2.78-3.46-4.17-4.95-2.21-2.37-6.55-5.79-8.18-8.16-1.71-2.5-1.02-4.43-.17-7.02C4.1,14.61,13.77,4.63,23.57,1.44c4.93-1.61,12.62-1.91,17.64-.7,11.3,2.72,21.6,14.93,23.59,26.2.9,5.11.23,3.75-2.54,7.12-7.27,8.87-14.62,17.67-22.06,26.4ZM32.23,3.45c-5.19-.68-7.56,4.38-9.3,8.37-1.96,4.5-3.59,9.93-3.44,14.81,2.67-2.61,6.53-3.2,10-2.01,1.02.35,1.68,1.18,2.74,1.25V3.45ZM47.43,26.25c-.69-8.31-3.62-20.58-12.92-22.8l-.38,22.8c.97-.04,1.35-.92,2.27-1.33,3.86-1.72,7.71-1.2,11.02,1.33ZM24.24,4.59C13.74,7.66,5.07,17.59,2.58,28.15c3.24-2.71,6.8-4.29,11.13-3.34.64.14,3.04,1.75,3.31,1.43.59-7.71,3.16-15.14,7.22-21.66ZM62.25,28.15c-2.37-10.65-9.71-20.55-20.52-23.56,5.07,6.13,7.98,14.46,7.98,22.42,4.34-2.09,8.91-2.44,12.54,1.14ZM32.22,57.8l-.46-27.47c-1.26-2.85-5.04-3.83-7.93-3.15-1.25.29-4.71,2.33-4.49,3.74l12.87,26.88ZM35.26,58.18l11.72-27.27c.47-1.65-2.67-3.53-4.01-3.81-3.62-.74-6.71.66-8.77,3.6-.06,4.53-.18,9.09-.09,13.62.07,3.48.06,9.22.57,12.45.07.43-.01,1.48.58,1.4ZM29.56,57.8c-1.33-2.86-2.89-5.63-4.24-8.48-2.7-5.68-5.06-12.5-7.96-17.88-1.88-3.49-4.54-4.54-8.52-4.05-1.01.13-5.96,2.58-5.32,3.43l26.04,26.98ZM37.55,59.7l23.77-28.13c-1.37-3-5.05-3.42-7.97-3-2.54.37-3.61,1.98-4.67,4.07-3.52,6.87-7.13,16.11-10.06,23.39-.47,1.17-1.15,2.36-1.07,3.68ZM39.83,62.74c-3.91.49-7.81.35-11.74.05-.72,1.72-.1,3.15-.04,4.89l11.36.34.42-5.28Z"/>
  </g>
</svg>