<?xml version="1.0" encoding="UTF-8"?>
<svg id="Layer_2" data-name="Layer 2" xmlns="http://www.w3.org/2000/svg" viewBox="0 0 32.72 38.75">
  <g id="Layer_1" data-name="Layer 1">
    <g>
      <path d="M14.04,6.04c-.12-2.39-4.43-2.79-1.91-5.89,1.61-.97,7.74,3.09,4.95,5.33l.36.39c10.81.86,17.36,10.2,14.65,20.71-2.64,10.23-14.5,15.38-23.73,10.03C-5.28,28.71-1.42,8.33,14.04,6.04ZM29.99,22.21c0-7.49-6.08-13.57-13.57-13.57S2.86,14.72,2.86,22.21s6.08,13.57,13.57,13.57,13.57-6.08,13.57-13.57Z"/>
      <path d="M17.08,20.87c.37.43,3.36-2.34,4.09-2.57,1.7-.54,2.16.16,1.25,1.64s-6.44,7.1-8.28,5.39-.14-3.71.94-5.08c.02-1.47-.57-6.72-.23-7.87.43-1.44,2.23-.14,2.23.69v7.79Z"/>
      <path d="M5.33,23.12c-.95-.56.45-3.04,1.88-2.08s-.44,2.94-1.88,2.08Z"/>
      <polygon points="15.18 34.55 15.18 32.27 16.72 32.44 17.05 32.88 16.92 34.2 15.18 34.55"/>
    </g>
  </g>
</svg>