<?xml version="1.0" encoding="UTF-8"?>
<svg id="Layer_2" data-name="Layer 2" xmlns="http://www.w3.org/2000/svg" viewBox="0 0 87.89 98.92">
  <g id="Layer_1" data-name="Layer 1">
    <g>
      <path d="M61.99,21.73l4.99,8.49c.98,1.25,1.79,1.14,3.12.57,4.42-1.93,10.9-11.22,16.42-6.04,1.25,1.17,1.55,2.26,1.29,3.98-.65,4.32-12.19,12.39-16.22,13.81-7.73,2.72-11.28-1.71-15.68-7.14-1.18,2.95-4.78,5.49-6.03,8.24-.11.25-.36.47-.39.75-.09.91,7.13,6.25,8.31,7.54,1.38,1.51,3.23,4.4,3.43,6.46.39,4.15-5.55,20.86-8.73,23.58s-8.69,1.36-9.12-3.1c-.39-4.06,5.54-13.47,4.55-17.36l-9.32-6.73c-2.64,4.48-5.34,10.81-9.81,13.76-3.17,2.09-15.37,6.06-19.13,6.34-6.49.49-9.52-6.17-4.9-10.6,4.32-1.91,13.66-2.47,16.69-6.11,1.02-1.22,6.28-10.49,6.51-11.72.11-.6-.66-1.33-.57-2.45.15-2.02,3.13-6.75,4.31-8.65,2.77-4.47,6.23-8.57,8.98-13.07-3.6-.71-7.22.21-10.06,2.48-3.25,2.6-7.05,10.17-12.38,5.52-3.24-2.82-.97-6.52,1.17-9.13,6.66-8.15,16.82-13.44,27.51-11.95,2.91.41,5.27,2.78,7.06,4.91-2.31-9.74,5.4-16.7,14.93-13.22,13.05,4.77,5.22,23.63-6.94,20.82ZM63.03,2.82c-5.7.73-7.78,6.5-5.56,11.44,5.26,11.71,19.19.71,14.47-7.63-1.62-2.86-5.8-4.21-8.91-3.81ZM39.09,11.95c-6.3.86-14.86,7.19-18.53,12.26-1.84,2.53-.99,5.19,2.3,4.2,2.18-.66,5.29-5.67,7.99-7.21,3.27-1.87,9.85-2.98,13.09-.98.36.7.23,1.19-.02,1.88-1.62,4.49-8.34,12.07-11.12,16.63-3.1,5.07-3.46,5.61,1.27,9.61,4.99,4.22,11.75,7.33,16.71,11.8,1.18,2.58-3.78,14.49-4.74,17.7.31,3.02,3.33,3.9,5.32,1.5,1.76-2.12,6.49-15.07,7.04-18.04,1.32-7.06-8-10.9-12.01-15.39-.57-.69-.5-1.63,0-2.33,1.61-1.66,8.17-11.34,9.51-11.78.32-.1.63-.2.97-.18,1.05.1,1.35,1.84,1.94,2.65,3.6,5,6.39,7.99,12.83,5.3,2.87-1.2,11.95-7.48,12.96-10.22.42-1.15.09-2.57-1.21-2.95-4.62-1.35-10.12,9.05-16.17,7.43-2.82-.75-6.26-8.6-8.27-11.11-2.18-2.72-7.94-8.7-11.02-9.89-2.72-1.05-5.93-1.25-8.83-.86ZM36.09,52.95l-6.41-4.62c-1.35,3.28-4.67,11.35-7.41,13.3-1.44,1.03-6.61,2.8-8.47,3.31-3.03.82-10.18.38-8.15,5.33,1.48,3.62,8.42.79,11.19-.01,4.8-1.38,9.96-2.62,13.16-6.6,1.05-1.3,6.68-9.72,6.1-10.71Z"/>
      <path d="M29.59,80.36c7.32-1.08,8.56,2.53,14.02,4.79,6.82,2.81,10.02-1.96,15.72-3.93,8.92-3.07,11.34,4.14,18.44,3.62,1.27-.09,4.37-1.67,4.37.55,0,3.21-8.01,1.94-10,1.24-2.19-.77-4.46-2.71-6.71-3.17-8.11-1.64-13.23,7.92-22.34,4.85-2.73-.92-4.89-3.25-7.45-4.33-8.27-3.48-12.42,4.9-20.04,3.32-3.65-.75-4.76-3.78-9.41-2.61-2.07.52-4.93,4.01-6.18,1.44-.15-1.91,5.93-4.44,7.54-4.65,4.37-.55,6.85,3.45,10.54,3.35,3.34-.09,7.77-3.94,11.5-4.49Z"/>
      <path d="M26.92,90.62c6.7-1.05,9.11,2.66,14.55,4.66,8.45,3.1,13.66-5.16,22.89-3.89,1.96.27,11.95,3.08,7.71,5.86-3.63-1.28-6.24-3.08-10.27-3.08-6.23,0-10.95,4.96-17.11,4.75-5.93-.2-10.53-6.01-16.35-5.74-4.74.22-8.2,5.16-12.51,4.97-1.42-.06-9.78-2.9-7.07-4.78,1.32-.92,3.22.92,4.38,1.37,5.89,2.26,8.73-3.31,13.79-4.1Z"/>
    </g>
  </g>
</svg>