<?xml version="1.0" encoding="UTF-8"?>
<svg id="Layer_3" data-name="Layer 3" xmlns="http://www.w3.org/2000/svg" viewBox="0 0 171.02 51.79">
  <g id="Layer_1" data-name="Layer 1">
    <g>
      <path d="M134.29,26.52c-.89.93-2.49,2.03-3.67,2.61l-.33.69,9.62,17.38c2.16,3.94-7.81,4.81-9.28,3.58l-8.03-18.58c-.71-1.07-2.31-.03-3.38-.21l-.03,18.78c-.29.57-.73.56-1.28.62-1.01.11-6.45.11-7.05-.22-1.65-.9-1.2-6.86-1.16-8.75.26-12.62.63-25.33.39-38-.13-2.89,4.82-3.06,7.05-3.22,8.41-.59,17.74-.07,20.73,9.29,1.71,5.34.33,11.99-3.57,16.04ZM119.22,23.23c13.58.93,15.13-15.54,0-13.68v13.68Z"/>
      <path d="M86.44,1.66c24.29-3.33,24.67,47.54,2.56,49.69-23.91,2.33-22.82-46.91-2.56-49.69ZM87.57,11.53c-6.98,1.2-8.04,15.91-7.02,21.29.85,4.49,4.12,11.73,9.76,8.07,6.44-4.18,7.43-22.45,2.29-27.73-1.31-1.35-3.18-1.95-5.04-1.63Z"/>
      <g>
        <path d="M27.86,26.02c4.01,4.21,4.98,10.91,3.09,16.31-3.36,9.59-16.53,11.87-24.59,6.9-2.08-1.28-7.32-5.82-6.21-8.41.28-.66,3.19-3.53,3.9-4.1,4.27-3.42,4.32,1.34,7.71,3.7,7.75,5.4,14.8-2.92,7.4-8.54C11.6,26.15.12,23.86,2.8,11.14,5.28-.63,22.75-4.01,29.52,5.56c2.04,2.89,1.36,3.78-.96,5.88-6.27,5.67-3.9-.2-8.16-1.69s-8.91,1.43-6.75,5.99c1.45,3.06,11.09,7.01,14.22,10.29Z"/>
        <path d="M47.38,31.97v18.43c0,.07-.88.95-.95.95h-7.98c-.83-.69-.88-1.47-.97-2.45-.51-5.53.86-11.54.11-17.1l-.03-29.22c.32-.94,2.61-1.32,3.53-1.41,9.13-.85,22-.96,26.06,8.94,5.2,12.67-7.63,23.39-19.78,21.87ZM47.38,23.61c13.93.22,15.22-15.03,0-13.68v13.68Z"/>
      </g>
      <path d="M142.97,11.83c-.36-.08-1.57-.99-1.66-1.4.67-2.07-.57-7.37,1.32-8.44,1.4-.8,9.87-.48,12.13-.44,3.69,1.25,12.26-.65,15.29.65,1.25.53,1.09,7.15.56,8.39-.12.28-.9,1.24-1.04,1.24h-8.55c.27,3.37-.31,6.71-.39,10.05-.21,8.31.72,17.76,0,25.86-.19,2.11-.16,3.42-2.44,3.64-1.6.16-6.72.47-7.05-1.35l.38-38.2c-2.47-.36-6.27.49-8.55,0Z"/>
    </g>
  </g>
</svg>