<?xml version="1.0" encoding="UTF-8"?>
<svg id="Layer_2" data-name="Layer 2" xmlns="http://www.w3.org/2000/svg" viewBox="0 0 43.92 79.31">
  <g id="Layer_1" data-name="Layer 1">
    <g>
      <path d="M20.27,13.23l3.83-7.23c.81-1.45.56-4.33,2.14-5.08,1.18-.56,12.68-.55,14.54-.29,3.12.44,1.9,3.02,1.09,5.08-2.89,7.28-8.73,14.53-11.55,21.4-1.35,3.29.9,3,1.49,5.49.35,1.5-.14,4.07.42,4.99.34.56,2.99,1.83,3.8,2.52,18.32,15.73,2.09,45.53-21.28,37.98-18.6-6-18.54-32.58-1.45-40.5-.61-2.32.67-4.87.66-7.01,0-1.59-4.18-7.71-5.21-9.68C6.46,16.53,3.79,11.55,1.82,7.07,1.1,5.44-1.25,1.39.85.36c1.53-.75,12.41-.24,14.17.73,1.75.97,4.26,9.81,5.25,12.14ZM25.68,29.48L13.07,4.4c-1.46-1.5-6.61,0-8.82-1.11-.73.38.02.81.21,1.15,4.54,8.23,8.25,16.9,12.89,25.07.38.62.76-.03.89-.03h7.45ZM27.04,24.96c.92.16,1.28-.58,1.72-1.2,1.54-2.15,3.92-7.4,5.28-10.07,1.53-3,2.94-6.06,4.54-9.02.36-1.55-3.2-.66-3.91-.18l-8.92,17.2,1.3,3.27ZM33.81,4.2l-5.47.26c-1.25,4.23-3.6,7.95-5.73,11.77l2.4,4.22,8.8-16.24ZM28.39,32.63l-10.55.51c-.86.29-1.18,2.22-1.19,3.1h11.74s0-3.61,0-3.61ZM40.51,57.56c0-10.09-8.18-18.27-18.27-18.27S3.97,47.47,3.97,57.56s8.18,18.27,18.27,18.27,18.27-8.18,18.27-18.27Z"/>
      <path d="M20.72,52.5c-1.63.78-3.01,5.1-5.12,4.47-.6-.18-1.15-1.3-1.1-1.92.12-1.44,5.82-8.34,7.38-8.43,3.46-.2,2,4.74,1.97,6.53-.07,4.45-.1,8.93.48,13.33,1.55-.07,3.25-.26,3.63,1.61.09,1.02-.62,1.89-1.63,2.02-2.95-1.25-10.84,1.34-9.48-3.65.7-.99,2.86-.14,3.87.03v-13.99Z"/>
    </g>
  </g>
</svg>