<?xml version="1.0" encoding="UTF-8"?>
<svg id="Layer_2" data-name="Layer 2" xmlns="http://www.w3.org/2000/svg" viewBox="0 0 67.56 34.86">
  <g id="Layer_1" data-name="Layer 1">
    <path d="M45.67.53l1.17-.53c1.66.11,8.86,6.95,10.56,8.32s10.01,7.13,10.15,8.23l-19.25,18.31h-1.78c-2.36-.53-.96-6.14-1.86-7.91-11.37.59-22.81.23-34.25.36-2.29.03-7.16,1.03-9.24-.17-.91-.53-.45-9.05-.49-10.68-.07-3-2.71-6.59,2.75-7,11.26-.86,24.45.5,36,.01,2.03-.09,4.07-.68,6.23-.4V.53ZM4.2,12.69v11.97l42.74-.39c2.55.37,1.32,4.27,1.99,5.7l14.21-13.16c-4.24-3.55-8.18-7.45-13.2-10.41-1.03-.08-.66.03-.76.57-.24,1.37.79,4.41-1.75,4.76l-43.23.95Z"/>
  </g>
</svg>