<?xml version="1.0" encoding="UTF-8"?>
<svg id="Layer_3" data-name="Layer 3" xmlns="http://www.w3.org/2000/svg" viewBox="0 0 67.52 69.56">
  <g id="Layer_1" data-name="Layer 1">
    <g>
      <path d="M55.94,0l.38,4.94h6.27c.5,0,3.21,1.59,3.62,2.08,4.29,5.09-2.96,16.08-7.26,19.36-2.06,1.57-5.84,2.23-6.8,3.08-.69.62-.99,2.36-1.6,3.34-1.63,2.59-3.9,5.17-6.49,6.81-1.48.94-2.98,1.36-4.33,2.36.58,3.01-.13,7.02,1.6,9.7,1.61,2.5,5.2,2.69,5.15,6.44,1.91.25,4.2-.72,5.2,1.45-.32,1.48,1.44,9.99-.49,9.99H18.31c-.53-2.28-.55-8.4.46-10.37.94-1.81,3.13-.75,4.81-1.08.71-5.17,6.44-3.16,7.23-8.92.15-1.1.25-6.32-.34-6.81-.54-.45-3.06-1.09-4.06-1.64-3.3-1.79-6.21-4.59-8.26-7.7-.55-.84-1.45-3.32-1.83-3.68-.22-.21-4.45-1.54-5.62-2.18-4.11-2.25-7.66-6.45-9.3-10.84C-2.51,5.86,1.99,2.78,12.22,5.32l.38-5.32h43.33ZM53.65,3.04H15.27c-.58,10.35.02,22.16,6.85,30.59,8.49,10.47,22.13,6.43,27.3-4.99,1.76-3.88,3.54-10.91,3.85-15.15.26-3.47-.42-7.03.38-10.45ZM12.22,7.98c-4.42-.5-9.7-2.76-9.07,3.94.52,5.58,5.96,12.1,11.35,13.54-1.74-5.65-2.5-11.57-2.28-17.48ZM53.66,25.85c7.71-2.26,18.35-21.03,2.7-17.82.12,6.08-1.16,12-2.7,17.82ZM27.24,58.15c5.36-.25,10.79.18,16.15,0-.18-1.99-2.58-2.46-3.8-3.99-2.5-3.14-2.3-8.16-2.66-11.97l-3.24.35c.02,7.03.18,12.28-7.02,15.43-.09,1.16.39.19.57.19ZM21.33,61.19v5.7h27.38v-5.7h-27.38Z"/>
      <path d="M33.51,14.44c-1.62,1.17-2.74,5.39-4.9,2.4-.2-.5.14-.73.33-1.07.34-.63,4.4-6.08,4.74-6.28.9-.53,1.74-.61,2.53.17l-.04,21.13,3.26.35-.18,2.16c-.55.69-7.19.8-8.14.47-2.34-.81-.02-4.04,2.41-2.98V14.44Z"/>
      <path d="M20.58,7.22l1.14,14.44c-.81.16-.88-.38-1.16-.93-1.46-2.88-2.15-10.12-.83-13.03.23-.51.03-.6.84-.48Z"/>
    </g>
  </g>
</svg>