<?xml version="1.0" encoding="UTF-8"?>
<svg id="Layer_2" data-name="Layer 2" xmlns="http://www.w3.org/2000/svg" viewBox="0 0 53.74 29.63">
  <g id="Layer_1" data-name="Layer 1">
    <g>
      <path d="M31.35,14.15c-1.83,1.91-2.72,6.16-4.16,8.57C19.02,36.34-4.3,28.31.69,11.81,3.48,2.61,14.35.73,22.65.32c7.35-.37,17.44-.47,24.74,0,2.72.18,5.44-.02,6.08,3.03,2.14,10.12-8.72,6.53-14.74,7.34-1.95.26-6.02,2.04-7.38,3.45ZM23.8,3.21c-6.19.19-14.1.55-18.21,5.9-7.51,9.77,2.86,21.44,14.1,16.38,6.78-3.05,5.78-9.91,10.2-13.75,2.8-2.43,7.69-4.09,11.38-4.21,1.92-.06,7.77,1.06,8.98-.52.51-.71.59-3.06-.01-3.48l-26.44-.33Z"/>
      <path d="M23.61,11.36c.08,3.9-1.5,8.34-4.81,10.58-.93.63-2.07,1.28-3.17.82,2.02-2.9,4.1-4.39,5.77-7.72.13-.26,1.36-4.68,2.21-3.68Z"/>
      <path d="M13.35,7.94c.59.56-2.44,2.58-2.86,3.03-2.09,2.23-1.77,3.7-3.03,6.09-2.79-3.72,2.15-8.6,5.89-9.11Z"/>
    </g>
  </g>
</svg>