<?xml version="1.0" encoding="UTF-8"?>
<svg id="Layer_2" data-name="Layer 2" xmlns="http://www.w3.org/2000/svg" viewBox="0 0 64.86 61.21">
  <g id="Layer_1" data-name="Layer 1">
    <g>
      <path d="M46.41.2c.07,0,.28-.24.6-.19,2.57.4,1.85,6.4,1.87,8.36.07,5.34-.39,10.99-.39,16.37,0,1.56.75,3.4.39,5.12l13.11-.4c1.17.06,2.23.78,2.77,1.81l.1,28.45-.78,1.5-62.63-.09c-.77-.36-.78-.63-.87-1.41-.68-5.67.19-13.43.04-19.42-.04-1.67-1.04-8.07-.42-9.03.18-.21.79-.65.98-.65h15.01L15.03.83c.03-.22.92-.63.98-.63C25.97.2,36.52-.25,46.41.2ZM46.22,2.86l-27.96.74c-.01,7.79.05,15.6.2,23.42.04,1.94,1.07,4.21-.07,6.17-.5.53-.95.08-1.24.08H3.46c-1.36,2.38-.28,5.99-.21,8.57.14,5.63-.21,11.28.02,16.9l58.92-.57v-25.66h-13.88s-2.08-.95-2.08-.95V2.86Z"/>
      <path d="M52.3,43.91c3.64-.33,4.46,4.42,3.5,7.12-1.81,5.11-11.19,4.02-11.1.29.07-2.91,3.21-.06,3.96.23,3.45,1.35,6.53-3.69,3.24-5.17-1.09-.49-1.82.24-2.67.03-3-.74,1.06-4.42,1.53-5.91l-5.08.32c-.78-.22-.85-1.69-.46-2.25.18-.25,5.22-.71,6.09-.75,1.84-.07,4.25-.22,3.47,2.31-.21.67-3.01,3.33-2.5,3.78Z"/>
      <path d="M33.67,26.43l2.61.05c.35.71.88,2.21-.19,2.55-.27.09-5.13.49-5.62.45-1.8-.17-3.08-.63-2.33-2.7l2.44-.4c.71-.43.27-11.64.43-13.25-.8.78-4.79,6.29-5.34,2.84-.28-1.75,4.56-6.04,5.5-7.81l2.15-.19.35,18.46Z"/>
      <path d="M13.91,50.37h5.51c.78,0,1.33,2.17.32,2.68-2.91-.36-6.24.72-9.08.38-.49-.06-1.12-.04-1.29-.63-.44-1.5,5.64-8.05,6.27-10.4.66-2.48-.47-2.6-2.48-1.72s-1.9,3.49-4.51,2.04c-1.01-4.57,9.02-7.71,9.81-2.78.66,4.11-2.61,7.23-4.54,10.43Z"/>
    </g>
  </g>
</svg>