<?xml version="1.0" encoding="UTF-8"?>
<svg id="Layer_3" data-name="Layer 3" xmlns="http://www.w3.org/2000/svg" viewBox="0 0 150.27 56.01">
  <g id="Layer_1" data-name="Layer 1">
    <g>
      <path d="M8.91,8.81c2.46-.63,3.92-2.75,6.89-2.29.26,1.32-1.67.83-2.52,1.08-2.01.6-4.93,2.21-4.57,4.66,1.13-1.77,3.14-3.19,5.17-3.83l-4.98,4.41c.32,1.77,1.41-.26,1.76-.52,1.94-1.42,5.14-3.6,7.23-4.67.61-.31.99-.52,1.73-.37l-7.08,4.6c-.53.43-3.01,2.84-2.5,3.44l3.45-2.29-2.3,2.49,1.72,1.72c1.36-1.15,2.39-3.15,4.4-3.05.09.56-.57.36-.93.8-.21.25-.13.79-.33,1-.3.31-1.86.52-2.18,1.46-.59,1.51,2.87-.35,3.06-.19l-1.15,1.52c2.56.94,3.2-1.33,5.36-1.91-.37,1.27-1.19,1.61-2.3,2.1,3.8,2.09,8.6,2.59,12.9,2.73,11.95.4,25-2.73,36.24-6.85,13.55-4.96,38.36-19.01,51.82-9.87,7.19,4.89,1.54,10.2.58,16.47,8.49-3.14,15.63-4.92,24.09-.52,1.26.65,6.1,3.81,5.77,5.27-.25,1.1-6.57,1.6-7.94,2.03-2.16.68-8.32,4.22-8.88,6.44,3.67,1.93,7.28,4.01,9.95,7.28,1.35,1.66,5.18,8.35,4.57,10.28s-3.62-.81-4.47-1.18c-12.8-5.61-28.08,8.02-41.94,3.24-7.4-2.55-2.48-10.98-1.85-16.21.1-.83-.31-.56-.94-.56-7.24,0-24.39,9.05-32.17,11.9-17.45,6.38-36.84,9.99-54.48,1.98C6.58,48.9-1.03,42.22.12,35.46c.83-4.9,10.79-2.19,11.12-4.29-1.6-4.71-6.33-7.61-8.27-12.39C.46,12.6,4.02,6.21,10.06,4.03c5.82-2.1,13.37-1.39,19.62-2.6,1.43-.28,2.84-.72,4.12-1.43.19,1.47-1.47,2.45-2.68,2.87-4.11,1.42-10.58,1.27-15.04,2.2-2.34.49-5.88,1.67-7.18,3.74ZM118.47,19.54c.18-2.36,3.28-8,2.49-9.94-.42-1.03-2.28-2.66-3.29-3.23-12.78-7.17-35.97,5.74-48.52,10.39-13.34,4.95-26.94,8.29-41.28,6.99-5.62-.51-20.53-3.61-22.24-9.94-.24-.88.13-2.34-.56-2.69-1.45,4.02,1.14,8.82,3.51,12,3.14,4.2,8.45,7.28,2.59,12.68l-6.87,2.51c.6-1.75,2.97-2.73,4.59-3.07.1-.63-.54-.28-1.03-.52-.15-.08-.13-.58-.29-.57-1.06.03-5,.99-5.2,2.06-.91,4.73,6.01,10.23,9.71,12.14,15.87,8.19,33.66,5.85,49.89.33,14.97-5.1,36.34-18.41,52.2-13.16.79.26,3.14,1.69,3.32,1.65,1.03-.21,0-2.51-.04-3.32-.04-.68.31-1.36.23-2.19s-2.14-4.02-.37-2.92l-.07-4.34-3.76-2.94,4.02,1.9c.74,0,.68-2.52.49-3.17-.31-1.07-1.76-1.37-2.22-2.18.56,0,1.66.02,2.07.34.5.38-.13,1.3.6,1.19ZM145.68,24.53c-8.34-6.4-16.73-3.4-25.69-.58l-.36,2.1c1.27.12,2.03-.87,3.16-1.24.55-.18.74-.67.67.28-1.98,1.82-4.85,1.05-3.66,4.82l2.13.74h-1.92c-.38,4.44,1.65,8.78-1.37,12.61-3.78,4.78-10.18,1.31-15.1,3.49-.11,1.01.02.6.56.77,1.99.6,4.99,1.5,6.92.77l.18.76c-2.66.42-5-.67-7.44-1.18-2.65-.56-.26,1.33.8,1.89,2.91,1.53,4.75.49,7.59.44.44,0,1.44-.28,1.35.39-3.64.24-6.02,1.18-9.55-.22-.54-.22-2.64-1.7-2.91-1.68-2.28,2.91,2.48,3.85,4.65,4.16,11.4,1.61,21.81-6.72,33.65-5.29,1.99.24,3.62,1.11,5.58,1.12-2.98-6.47-8.39-11.08-15.32-12.83,2.54-4.24,7.1-7.91,11.73-9.72.57-.22,4.73-1.05,4.36-1.58ZM104.68,37.16l-2.64.42-.04,2.26,1.81-1.44.87-1.24ZM109.28,37.17c-1.68-.57-8.95,3.36-7.66,4.98l7.66-4.98ZM112.73,38.31c-1.01-1.85-3.81.34-5.24,1.09-1.14.6-5.02,2.74-5.69,3.5-.58.66-.66,1.06-.56,1.93l11.49-6.52ZM114.65,38.7c-.07-.09-1.13-.32-1.5-.2-2.02.66-5.82,3.83-7.69,5.17.94-.13,2.17-.24,3.04-.6s4.69-2.66,5.46-3.25c.25-.19.8-1,.7-1.13ZM116.09,40.91c.15-.26.38-1.56-.29-1.45.39,1.84-1.15.84-2.2,1.44l-4.32,2.38c1.25-.02,3.08-.11,4.22-.56.3-.12,2.51-1.67,2.59-1.81Z"/>
      <path d="M51.05,25.29c.04.62-.96.61-1.39.71-1.2.27-9.69,1.51-10.1,1.2-.25-1.36.74-.38,1.61-.48,3.29-.38,6.58-1.06,9.88-1.43Z"/>
      <path d="M109.28,31.03c-.95,1.17-3.68.32-5.1.42-1.14.09-2.35.65-3.51.73-.8-.56.56-1.16.76-1.16h7.85Z"/>
      <path d="M119.62,13.79c-1.81-1.51-2.7-2.96-5.36-2.87.66-1.14,4.66.65,5.01,1.11.41.54.38,1.13.34,1.76Z"/>
    </g>
  </g>
</svg>