<?xml version="1.0" encoding="UTF-8"?>
<svg id="Layer_2" data-name="Layer 2" xmlns="http://www.w3.org/2000/svg" viewBox="0 0 141.83 52.7">
  <g id="Layer_1" data-name="Layer 1">
    <g>
      <path d="M22.99,11.86c20.5,5.69,40.88-1.71,61.12-4.48,15.07-2.06,32.93-3.06,47.63,1.28,2.49.73,9.41,3.26,9.95,6.14.81,4.26-2.32,9.37-3.25,13.59-1.12,5.04-.95,8.58-.21,13.59.4,2.72,1.62,3.77-.21,6.69-3.38,5.41-17.76,4.24-23.24,3-5.6-1.27-2.13-3.39-1.53-7.08.21-1.29.08-2.62.07-3.91l-6.64-.75c-30.56.38-59.16,17.36-89.88,8.58-3.02-.86-12.67-4.41-13.62-7.45-.75-2.4.51-8.81.61-11.69.32-9.24-1.47-17.9-3.8-26.76.21-.84,2.04-1.55,2.85-1.77C7.2-.38,17.86-.35,22.05,1.49c3.26,1.44.55,4.06.49,6.8-.02,1.12.56,2.36.45,3.57ZM21.02,5.4c.95-.82-3.71-2.11-4.12-2.2-2.37-.5-4.96-.51-7.37-.48l1.53,1.14-4.98-.38c-.22,1.03.28.66.76.95,2.62,1.59,3.67,1.15,6.15,1.91,2.2.68,4.6,1.87,6.71,2.49.79.23.66-.54.47-1.06l-6.42-2.37,6.51,1.53-.26-1.15-4.34-1.52,5.36,1.14ZM20.25,9.99c-.11-.66-.76-.67-1.24-.87-1.61-.69-4.27-1.6-5.96-2.08-1.52-.44-3.11-.28-4.32-.66-.87-.27-4.24-3.46-4.95-2.9l1.71,2.31.96.57,13.8,3.63ZM139.4,17.66c.49-4.39-7.59-6.68-11.03-7.55C87.57-.23,45.19,28.56,7.22,9.43c-1.22-.62-2.07-1.87-3.44-2.11-.35.39,1.65,7.14,2.68,7.85h-1.15c.29,3.14,1.27,6.64,1.34,9.75.02.64-.65.82-.44,1.95.32,1.66,2.91,3.41,4.46,3.83l-.19.76-4.41-2.68-.19,3.09,4.4,3.8-4.59-3.06c.12,1.12-.2,2.49.01,3.55.17.85,6.29,4.23,7.26,5.07-.78.47-2.09-.6-2.8-1.03-1.64-.99-3.61-2.2-4.67-3.76-1.6,4.41,4.47,7.02,7.75,8.34,28.03,11.23,57.92-4.34,86.12-6.8,9.09-.79,22.05-.31,30.45,3.26,2.18.92,3.94,2.43,6.13,3.25.44-2.55-2.46-3.77-3.83-5.56,1.62-.46,2.29,1.67,3.26,2.49.55-2.75-2.59-3.9-4.41-5.17,1.76-.16,3.19.83,4.21,2.11l-.08-4.13-3.75-2.76,3.83,1.91.38-3.07c-1.36.83-1.72-.66-2.7-1.31-.73-.49-1.91-.67-2.27-1.36,1.27-.4,4.51,2.63,5.35,1.9,1.06-3.68-1.1-4.44-3.43-6.5l4.59,2.29.8-3.2-2.71-1.97c1.13-1.64,1.95,1.17,2.87.96.63-.6,1.12-1.96.91-2.79-.27-1.05-1.21-.68-1.38-.8-.54-.4-.75-.97-1.76-1.45-2.34-1.11-4.91-.9-6.77-2.62,3.69.77,7.35,1.83,10.34,4.21ZM128.67,44.1c-3.91-.79-7.85-1.79-11.87-1.53l10.58,1.86,1.29-.33ZM123.32,44.86c-2.54-.14-4.93-2.31-7.28-.19,2.36.16,4.82.12,7.09.95l.19-.76ZM116.03,48.31c4.29-.32,9.05,1.82,13.21,1.52,1.65-.12,4.66-.56,4.41-2.67-.31-.45-9.02-2.41-9.58-2.12-.18.09-.49.49-.38.58,2.52.77,6.15.72,8.43,1.74.58.26.94-.05.76.94h-1.91s.76-.76.76-.76c-4.72-.45-9.2-2.27-14-1.94-.76.05-2.39.04-2.09,1.17l6.62.18,3.33.58-9.96-.38.38,1.15-.65.08-.11,1.07,9.96.77-4.47-1.11c-1.22.07-2.09.17-3.32-.08-.42-.08-1.46-.13-1.41-.72Z"/>
      <path d="M17.95,16.89c-3.64-.93-8.1-2.16-10.73-4.97l10.73,4.97Z"/>
    </g>
  </g>
</svg>