<?xml version="1.0" encoding="UTF-8"?>
<svg id="Layer_2" data-name="Layer 2" xmlns="http://www.w3.org/2000/svg" viewBox="0 0 169.11 63.57">
  <g id="Layer_1" data-name="Layer 1">
    <g>
      <path d="M147.21,56.54c-.36-.88,1.78-1.27,2.28-1.36,3.71-.65,10.2-.86,12.83-4.03.84-1.02,1.73-2.64.22-3.42-.31,3.34-5.32,4.2-8.05,4.59l6.11-2.5c3.41-4.54-.12-2.09-2.67-1.71l2.68-1.54c-1.14-2.11-2.91,1.39-4.6,1.15l2.68-2.68-3.83.76.76-1.15c-23.23-2.58-44.8,7.8-66.66,13.6-14.85,3.94-39.77,9.39-53.37.5-6.52-4.26-4.21-7.31-3.34-14.08-6.77-1.19-14.11.95-20.6,2.94-1.83.56-4.83,2.12-6.5,2.34-4.24.55.28-6.3,1.13-7.71,3.17-5.25,7.39-9.83,10.67-15.01-1.72-3.09-5.01-4.49-7.64-6.55-2.19-1.7-4.35-3.7-6.58-5.3-1.57-1.12-4.54-1.62-1.25-4C8.52,6.3,23.45,2.86,32.06,2.51c3.93-.16,15.59.25,18.87,1.84.52.25,2.78,2.34,2.97,2.77.77,1.67-.85,6.85-.96,8.98-.27,5.07,1.07,4.57,5.56,4.42,19.16-.68,40.2-10.24,58.73-15.21,11.79-3.16,38.27-9.16,48.71-1.81,5.86,4.13,1.96,9.59.89,15.02-.93,4.75-1,9.65-.48,14.45.86,7.91,4.42,16.48-4.84,21.22-4.12,2.11-6.31,2-10.64,2-1.02,0-2.46.68-3.68.34ZM166.36,9.04c-.09-2.45-2.42-3.82-4.4-4.6-11.12-4.42-28.27-.99-39.59,1.8-24.68,6.07-47.8,18.25-73.89,16.84-4.57-.25-9.51-.62-13.15-3.69-.35,2.15.49,3.67,1.91,5.17l-1.91-.57c-.08,3.34,2.16,3.47,3.83,5.55l-3.26-1.72c-.9-.4-.53,9.89-.56,10.89-.05,1.71.21,2.54.23,3.47,0,.21-1.03,3.19-1.15,3.98-.35,2.22-.65,3.68,1.11,5.41l5.55,3.83c-2.45-.88-6.07-2.11-6.51-4.98-.61.07-.5.42-.56.8-.17,1.1-.44,3.08.45,3.81,12.07,9.92,36.43,5.28,50.38,1.78,21.59-5.4,45.44-16.62,67.94-15.23,4.55.28,9.31,1.07,12.43,4.62-.06-1.27.18-4.24-.48-5.26-.83-1.26-5.48-2.39-7.01-2.78-.64-.16-1.12.39-.93-.77,3.02.49,5.66.49,8.04,2.68.45-1.68-.79-3.4-.96-4.77-.37-2.92-.23-7.28-.2-10.37.02-2.18.92-2.4-.4-4.86-.24-.44-.96-.08-.74-.87.81-.9,1.17,1.4,1.53.95.73-.91.11-2.14.06-2.89-.01-.18.59-.14.68-.46,1.12-3.78-.41-3.44-2.65-5.84l3.83,1.91c-.15-.78.48-1.74.33-2.42-.5-2.19-8.4-4.41-10.54-4.83-1.99-.38-3.83-.19-5.69-.42-.57-.07-1.17-.3-.56-.77,5.74,0,11.96,1.57,16.85,4.6ZM50.66,7.51c-9.66-2.34-20.11-3.16-29.89-.97-2.17.49-6.13,1.47-8.12,2.22-2.61.99-5.44,3.18-8.35,3.91-.68.55,1.25,2.09,1.73,2.48,3.44,2.81,9.38,5.7,12.25,8.82.52.56,1.28,1.73,1.3,2.48.06,2.6-9.49,13.72-11.38,16.94-.72,1.23-1.76,2.44-1.6,3.95l14.06-5.28,6.01-.88.23.8.92-.8,4.43.42v-2.68c-1.21.77-2.19.09-3.45,0l.39.76c-.2.28-4.01.96-4.21-.37,2.46-.38,5.23-1.34,7.66-.39-.34-1.88.33-3.86.4-5.57.21-4.69-.44-9.79-.03-14.56.63-7.29,11.23-7.5,16.61-9.44l1.03-1.84ZM48.36,12.87c-.83-.15-.91.37-1.14.96-.7,1.77-.5,4.5,0,6.32h.76c-.69-2.25-.67-5.13.38-7.27ZM49.5,19.76c-.31-2.34-.23-4.56-.19-6.89-1.28,1.69-.9,3.98-.99,5.95l1.18.94ZM50.65,19l.38-6.13c-1.15.75-1.11,3.75-.95,4.99.05.39.02,1.24.57,1.14ZM43.38,13.64c-1.12-.19-.62.27-.81.89-.55,1.77-.63,3.02-.34,4.86.97.07.65.08.75-.58.26-1.68.12-3.48.39-5.17ZM45.29,14.59c-.25,1.66.18,3.82,0,5.56.9.05.68.13.77-.57.24-1.84-.32-3.88.39-5.75-.48-.75-1.09.33-1.16.76ZM44.53,20.15v-5.75c-.53-.09-.58.68-.66,1.05-.27,1.24-.91,4.2.66,4.69Z"/>
      <path d="M97.4,29.34c.83,4.1.87,8.29,1.17,12.43.04.59.61,1.15.61,1.55.02,1.62-2.77,2.17-4.08,2.1.33-5.09-.19-10.39-.77-15.51-.13-1.1-.3-2.26-.47-3.36-.14-.89-.99-1.16-.43-2.49.35-.83,2.89-1.6,3.73-.82l8.28,10.3c-.29-2.81-.37-5.73-.87-8.51-.44-2.45-2.48-4.31,1.24-5.49,3.3-1.05,1.81,1.94,1.94,4.23.25,4.33,1.39,9.04,1.54,13.4.08,2.44.74,5.07-2.51,4.43-.9-.18-3.27-4.37-4.09-5.49-1.69-2.29-3.39-4.65-5.29-6.77Z"/>
      <path d="M91.25,47.33l-2.87.06-8.6-12.29.7,13.54c-.29.83-3.36,1.92-3.99,1.04l-.56-21.29c1-.71,2.74-.85,3.73-.07l7.77,10.99-1.43-12.01c0-1.48,3.26-2.38,3.96-1.42l1.29,21.46Z"/>
      <path d="M54.35,39.55c-.21.23-1.63.95-1.4,1.28,4.73,2,4.75,8.79-.12,10.81-1.85.77-8.69,1.4-9.87-.24-1.03-1.43.22-2.3.39-3.5.56-3.96,1.12-10.62.77-14.52-.1-1.05-1.29-1.9-.31-3.23,3.18.46,7.8-.5,10.3,1.66s2.44,5.26.24,7.73ZM47.59,33.17c.64,2.86-2.39,7.35,2.47,5.73s2.31-6.91-2.47-5.73ZM46.46,49.25c8.63,2.52,9.25-7.52.81-7.21l-.81,7.21Z"/>
      <path d="M142.1,31.76c.2.27.64,1.32.14,1.6-1.15.3-2.73.94-3.84.39-1.92-.94-2.54-10.12-6.8-6.54l1.02,7.46-4.18.8c.15-5.94-.31-11.91-1.17-17.79-.16-1.07-1.47-2.41-.37-3.49,1-.98,7.12-1.49,8.63-1.33,5.34.58,6.38,6.03,4.1,10.23-.42.77-1.59,1.5-1.61,2.21-.02.87,2.41,4.83,3.07,5.77.22.32.81.41,1.02.68ZM131.54,23.93c7.75.74,7.95-11.23-.64-7.64l.64,7.64Z"/>
      <path d="M69.81,51.18l-.8-5.33c-.42-.35-4.97.17-5.53.71-1.76,1.72.54,8.22-5.54,5.17,2.96-6.69,4.05-14.02,6.21-20.98.33-1.14,3.38-1.77,4.15-1.25s3.95,15.57,4.68,17.93c.29.94,1.84,2.3.67,3.17-.43.32-3.63.79-3.84.57ZM66.75,35.09c-.99-.11-.61,0-.78.56-.66,2.23-.9,4.85-1.76,7.08l.46.78,3.61-.37-1.54-8.05Z"/>
      <path d="M121.91,24.36l.61,3.09-5.53,1.56.33,6.46c1.69.72,6.41-2.11,7.43-1.87.89.21,1.17,1.99.65,2.76-.45.67-10.6,3.42-11.49,2.9-.23-5.34-.41-10.84-1.3-16.14-.28-1.66-1.31-3.04-.86-4.52.33-.54,9.87-3.6,10.54-3.27.84.42,1.17,2.13.4,2.71-1.61.72-4.89,1.01-6.26,1.78-.43.24-.62.29-.62.86,0,.5.39,4.5.5,4.85.09.29.03.56.46.72l5.15-1.9Z"/>
      <path d="M155.49,13c.27.3.96,1.24.89,1.55-.63.65-1.87,1.6-2.79,1.4-.14-.03-.78-1.25-1.9-1.64-3.79-1.33-5.69,2.12-2.55,4.47,2.13,1.59,4.87,1.89,6.65,4.46,4.38,6.31-2.56,12.22-8.56,9.71-1.44-.6-4.33-3.42-2.56-4.79,2.34-1.81,2.85,1.01,3.56,1.59,2.08,1.69,5.64.58,5.39-2.42-.39-4.64-8.72-4.97-9.47-9.69-1.06-6.7,7.64-8.75,11.33-4.63Z"/>
      <path d="M19.62,40.45c-.02,1.77-3.15.98-4.21,1.14.8-1.22,2.93-1.12,4.21-1.14Z"/>
    </g>
  </g>
</svg>