<?xml version="1.0" encoding="UTF-8"?>
<svg id="Layer_3" data-name="Layer 3" xmlns="http://www.w3.org/2000/svg" viewBox="0 0 132.02 55.85">
  <g id="Layer_1" data-name="Layer 1">
    <g>
      <path d="M106.81,21.02c2.04.25,3.94-.63,5.92-.78,5.8-.43,12.74,1.28,17.42,4.83,5.25,3.98-1.94,4.28-4.91,5.77-2.76,1.38-4.98,3.75-7.32,5.71,5.25,2.59,10.15,8.21,11.77,13.9,1.88,6.58-2.07,2.72-5.44,1.61-11.95-3.97-19.34,3.13-29.86,1.89-11.96-1.41-4.1-11.61-5.03-18.74-20.01,3.35-37.82,17.64-57.9,20.26-7.68,1-19.18.39-25.22-4.94-6.73-5.94-1.01-9.27,0-15.29,1.2-7.08-1.45-9.7-4.36-15.22C-6.66,3.76,15.8-3.88,27.24,1.94c7.67,3.9-.18,11.67,3.57,17.5,2.65.9,13.68-2.7,16.82-3.77,15.75-5.41,43.32-21.06,59.32-12.98,4.17,2.11,5.36,5.04,3.97,9.61-.97,3.21-3.97,5.35-4.11,8.72ZM16.5,10.79c1.58-1.3,3.16.25,4.67.27,7.34.08,8.67-6.86.98-8.26-4.86-.89-11.5-.1-15.53,2.89-1.91,1.42-3.55,4.22-3.25,6.67.23,1.92,2.6,3.09,4.2,3.67.19-1.92-1.24-4.3.77-5.75-.36.83-.18,6.24.05,6.47s1.04.14,1.39.53c.32.36.17,1.54,1.13,1.77.82.2,1.76-.97,2.8-.35l.19-1.14.39,1.53c1.7-2.21.06-6.54,2.22-8.31ZM107.58,12.6c3.29-2.59,1.48-6-1.56-7.83-13.55-8.12-43.35,8.16-57.15,12.91-11.39,3.92-28.94,7.4-40.34,2.59-1.66-.7-3.08-2.02-4.78-2.69-.53.64,2.78,4.19,3.19,4.98,1.8,3.47,2.7,9.83,1.52,13.71-1.44,4.73-5.55,8.64-.09,12.89,8.57,6.66,25.04,4.07,34.66,1,17.17-5.49,38.57-20.14,56.69-17.68,2.02.28,3.91.97,5.94,1.19.24-1.27-1.3-3.26-1.36-4-.31-3.46-.63-8.54.58-11.92.74-2.09,2.72-3.71,2.17-6.31-.19-.91-.99-1.39-1-2.28,1.87.11,1.58,2.06,1.53,3.45ZM26.74,13.75c.47-.56,1.57-1.59.96-2.3-2.58,2.52-6.09,1.86-9.39,1.92l.77,1.14-1.15.77c2,.56,3.78.4,5.74-.19,1.03-.31,1.92-1.24,3.07-1.34-1.03,1.23-2.19,1.83-3.81,2.13-1.42.25-5.85-.44-4.63,1.53.83.52,2.62-.37,3.08.94l-3.45.19c.43.6,1.05.61,1.72.61.72,0,4.88-.77,5.54-1.01.48-.17,2.83-1.98,2.31-2.47-1.42.24-2.58,1.35-4.04,1.52-.76.09-.57-.1-.55-.75,1,.09,5.6-1.35,4.6-2.68-.02-.03-.59-.02-.76,0ZM27.88,17.58c-.16-.13-3.05,1.15-3.82,1.34-1.96.48-3.36.35-5.19.57-.57.07-1.17.31-.56.77,2.78.18,6.36-.37,8.83-1.72.24-.13,1.45-.38.75-.96ZM116.9,34.18c1.64-1.87,5.77-4.39,8.04-5.56.47-.24,3.98-1.21,3.52-1.85-4.56-3.3-10.48-4.7-16.09-4.21-1.67.15-7.92.99-5.34,3.4l3.61-.33c-.36,1.39-4.07.48-4.2,1.35,1.42,5.7,4.58,14-2.87,16.67-2.95,1.06-5.76.51-8.72,1.24-1.31.32-3.55.9-3.37,2.58l-.75-.39c-1.31,4.46,4.82,4.97,7.89,4.83,3.64-.17,7.58-2.14,11.17-2.81,5.43-1.01,11.55-1.13,16.57,1.44.94-1.3-2.31-6.13-3.25-7.28-1.91-2.35-4.68-4.81-7.83-5.01-.64-.77,1.03-3.37,1.63-4.06ZM96.46,35.2l-3.46.17-1.9,5.57c.71.59,8.63-5.24,10.34-4.98.12-.48-.77-.65-1.06-.68-2.19-.21-5.14,2.42-7.37,2.98.53-1.08,1.8-1.42,2.73-2.07.46-.32.94-.02.72-.99ZM103.74,36.35c-.67,0-1.23-.36-1.92-.22-2.91.6-7.29,4.73-10.45,5.56-.66.53-.67,1.52-.65,2.32l13.02-7.66ZM104.51,37.5l-9.08,4.52-1.27,1.22c1.86-.53,3.82-.71,5.62-1.46.7-.29,5.82-3.16,4.72-4.28Z"/>
      <path d="M15.24,4.94l-6.51,2.1c-1.87.93-3.32,2.91-3.42,5.04-.04.75.75,2.2-.02,2.43C2.75,7.82,9.89,5.07,15.24,4.94Z"/>
    </g>
  </g>
</svg>