<?xml version="1.0" encoding="UTF-8"?>
<svg id="Layer_2" data-name="Layer 2" xmlns="http://www.w3.org/2000/svg" viewBox="0 0 149.4 53.96">
  <g id="Layer_1" data-name="Layer 1">
    <g>
      <path d="M30.25,40.21c-.56.48-.15,6.33,0,7.39.26,1.8,1.15,3.45,1.25,5.3.02.47.38.62-.34,1.07-1.38-.39-2.32-1.36-3.81-1.54-6.68-.81-16.15,2.07-21.86-1.13-1.63-.92-2.85-2.64-3.15-4.51-.56-3.54,2.11-11.45,2.86-15.35.61-3.19,1.47-6.49.3-9.65-1.51-4.08-9.4-4.34-3.06-9.2C9.68,7.03,26.42,4.15,35.4,4.52c7.26.3,13.1,2.03,20,3.37,5.51,1.07,11.34,1.66,16.59,3.41l-.02,2.05c-1.61-.24-3.23-.82-4.81-1.12-.82-.16-1.88.16-2.61-.08-.44-.15-1.56-2.64-2.72-.33-.82-.27.63-1.96-1.94-.82l-1.13-1.09-.57,1.15c.31-1.75-.7-1.01-1.9-1.18l-.02-1.11c-1-.46-.87,1.1-1.34,1.14-.2.02-1.23-1.08-1.93-1.14-.61-.05-1.24.41-1.86.34-11.91-1.37-17.95-3.52-30.58-1.01-5.73,1.14-12.97,3.2-17.12,7.42l3.28,3.17,6.27-2.26c.2,1.08-.26.63-.84.86-1.33.53-3.82.74-4.07,2.47-.12.86.82,1.71-.26,2.4l-.95-1.14c.14.92.48,1.89.81,2.75.13.34.65.33.71.59.19.79-.18,3.73.02,3.94l2.3-1.14c-2.91,2.29-3.42,4.74-3.44,8.42l3.64-2.68c.28-.06.27.42.19.57-.13.25-3.6,3.42-4.21,2.49l-1.15,3.83c.77.73,2.91-3.05,3.83-2.49-1.88,2.55-4.44,5.47-4.97,8.62,5.49-5.02,13.66-7.08,20.92-7.99,17.43-2.19,34.23,4.34,51.25,6.91,17.25,2.6,51.98,4.25,67.01-5.11,4.41-2.75,2.4-3.16,1.79-7.59l-1.15.38c2.33-2.8-1.14-5.36-.77-8.43-2.01.29-3.57,1.59-5.74,1.15l5.72-2.93.4-3.2c-1.41.9-3.19,2.22-4.97,1.73,1.89-1.34,5.66-1.3,5.36-4.41l-6.13,1.72c2.62-2.36,7.1-1.27,6.89-5.94-2.43,1.31-5.23,2.33-8.05,2.11,4.62-1.34,9.63-1.79,9.58-7.85-5.07,3.54-11.58,5.41-17.61,6.72-18.22,3.96-38.35,2.87-56.67.14l-.04-2.26,18.95,1.93c13.06.04,26.23.61,38.91-2.88l6.12-2.11c-2.78-.2-5.58,1.21-8.24,1.53-.86.1-.64-.4-.19-.58,4.26-1.68,10.3-1.58,14.56-3.44-4.48-.27-9.11,2.05-13.79,1.72l3.74-1.04c2.25.42,5.07-1.29,6.49-1.62,1.35-.31,3.26-.06,4.71-.79.1-.66-.91-.41-1.33-.37-2.94.23-5.71,1.21-8.63,1.52l8.42-2.29-11.68,1.54v-.78s4.4-.38,4.4-.38l-1.35-.39-22.78,4.6c.52-.86,1.96-1.18,2.87-1.53,8.8-3.38,23.26-8.04,32.26-4.28,2.8,1.17,3.93,2.44,3.53,5.6-.65,5.15-3.76,10.69-3.44,16.51.24,4.41,2.48,8.22,2.99,11.97.34,2.52.31,2.83-1.43,4.5-9.12,8.79-47.63,10.91-59.92,8.58-2.77-.53-2.48-.54-5.4-.69-12.86-.65-26.87-5.75-39.91-7.25-3.97-.46-7.96-.56-11.96-.41ZM27.91,42.08l-.19-1.53c-.96,1.27-2.49.6-3.83.77-1.75.22-3.51.57-5.25.88l-4.9,1.8c4.03-.49,8.48-2.05,12.51-2.27.68-.04,1.06.07,1.66.36ZM27.87,42.51c-1.29-1.1-15.54,2.73-17.73,3.83-3.67,1.85-3.59,3.44.71,3.8,4.7.4,11.12-1.17,15.37.34.57.2,4.15,2.71,4.21.4.04-1.69-1.05-.87-1.66-1.22-1.24-.72-.18-1.92-.2-2.32-.03-.65-.52-4.68-.71-4.83Z"/>
      <path d="M17.18,36.33l-5.36,1.92c-.21-1.02.26-.66.75-.95,1.46-.86,2.81-1.27,4.42-1.72l.18.75Z"/>
      <path d="M27.53,44c.01.65.22.83-.54.74-5.92-.74-11.9,1.2-17.47,3.09.1-.58.7-.75,1.15-.95,4.83-2.13,11.63-3.54,16.85-2.87Z"/>
      <path d="M27.91,46.3c-.02.67.26.8-.48.68-3.36-.55-5.68-.48-9.09.08l4.79-1.14,4.78.38Z"/>
    </g>
  </g>
</svg>