<?xml version="1.0" encoding="UTF-8"?>
<svg id="Layer_3" data-name="Layer 3" xmlns="http://www.w3.org/2000/svg" viewBox="0 0 325.1 79.71">
  <g id="Layer_1" data-name="Layer 1">
    <g>
      <g>
        <path d="M257.47,36.87c12.56.57,23.76-6.89,35.55-9.08,10.15-1.89,20.6.53,28.61,7.17,8.02,6.65.19,4.44-4.2,4.59-6.17.22-11.77,2.35-17.06,5.16-.79.42-8.85,4.93-8.42,5.56,3.16,1.19,6.64,1.47,9.88,2.58,4.62,1.58,10.66,5.12,13.42,9.18,1.71,2.52,5.46,9.73,5.41,12.61l-.61.88c-.59.19-1.1.04-1.65-.16-1.9-.71-5.1-3.44-7.34-4.54-20.78-10.19-36.04,4.75-55.43,8.08-6.48,1.11-12.86,1.01-19.36.05-4.67-.69-15.28-2.99-15.55-8.97-.1-2.19,3.13-11.25.88-11.99-39.35-6.77-80.15-10.98-119.67-3.11.45,8.12,5.33,14.71-5,18.17-13.57,4.55-31.23-.88-43.53-7.01-13.34-6.64-22.57-15.54-38.64-10.03-2.39.82-5.77,3.26-7.46,3.67-3.65.89-.97-5.65-.21-7.13,6.18-12.03,17.24-13.36,29.15-14.52,1.48-.14,1.54-.89.66-1.95-1.12-1.35-5.44-4.13-7.13-5.03-9.15-4.87-18.83-5.75-28.84-3.02l-.75-.34c-1.24-1.89,3.95-6.14,5.39-7.29,6.15-4.89,16.2-9.03,24.14-8.45,14.29,1.03,22,14.24,35.81,16.1-4.3-8.13,1.66-12.12,8.28-15.28C104.46-1.82,149-1.5,182.19,2.02c17.66,1.87,62.27,7.9,75.47,18.78.47.39,2.52,2.32,2.68,2.68,1.59,3.51-1.95,9.94-2.86,13.4ZM257.47,28.83c1.58-3.76-1.63-6.06-4.48-7.97-13.08-8.79-45.2-13.18-61.27-15.35C155.98.68,120.22-.13,85.54,11.11c-4.4,1.43-16.42,5.4-18.19,9.78-.38.94-.69,2.49.47,2.97-.02-.49.28-.81.63-1.09,3.28-2.66,7.3-4.39,11.25-5.8.19,1.02-.22.67-.77.94-4.38,2.15-8.47,3.38-11.39,7.68.99,3.31,4.2-1.42,6.41-1.72.25.99-.34.67-.72,1-1.91,1.63-5.89,3.04-4.07,6.28.89-.84,1.93-1.97,3.26-1.91-1.16,1.96-4.3,2.8-2.11,5.35l4.02-2.29c-1.59,2.45-4.79,2.49-3.44,6.12l5.74-3.83c.71.69-2.7,2.25-3.04,2.51-.93.72-2.92,2.74-2.14,4,.59.72.65.32,1.16,0,1.68-1.09,3.18-2.48,5.17-3.07.17.8-.38.89-.88,1.22-1.76,1.18-5.83,2.44-4.27,5.3,2.05.13,2.28-2,4.39-1.54-1.89,1.79-4.93,2.52-3.44,5.74.28.21,4.82-3.96,6.12-3.44l-5.84,4.69-.1,2.58,2.53-1.68,3.03-1.19-5,3.81-.36,3.28c2.61-2.05,5.7-4.54,9.19-4.59-.88.93-2.28.96-3.56,1.6-2.79,1.39-6.13,4.14-4.86,7.59,3.06-2.67,6.96-4.29,10.81-5.47,38.23-11.74,90.41-8.89,129.48-1.69,8.62,1.59,22.88,4.31,30.45,8.24.59.3,4.53,3.34,4.72,3.13,1.67-4.1-3.91-6.86-7.01-8.5-.47-.25-4.6-1.34-3.71-2.23,4.08,1.48,7.71,2.97,11.1,5.75.17-1.39-.32-2.57-1.15-3.65-.08-.11-1.81-1.79-1.93-1.88-1.14-.86-2.52-1.14-3.43-2.13,2.6.08,5.04,1.51,6.71,3.44.84.16.56-.38.58-.96.11-2.49-2.09-3.17-3.33-5.11l-4.35-2.35c1.31-.15,2.43.29,3.59.81,1.78.8,2.75,2.32,4.45,3.01-.16-1.05.34-2.96-.19-3.83-.83-1.37-4.99-2.93-5.94-4.6,2.26.8,4.51,2.27,6.13,4.02,1.09.47.46-2.63.18-3.25-.36-.81-2.12-1.7-2.48-2.69,1.32-.51,2.65,2.89,3.44,2.29,2.01-4.51-.52-3.87-3.11-5.9-.2-.16-1.37-.43-.71-1,.43-.37,4.64,2.93,4.98,2.68,1.19-2.67-1.74-4.25-3.06-6.12l4.02,3.06.9-2.82c-1.82-2.3-4.14-3.92-6.46-5.61,1.89-.25,2.42,1.23,3.19,1.79,1,.72,2.71,1.07,2.95,2.8l.76-.24.76-2.83-.74.38c-.67-2.74-3.57-3.92-5.39-5.74,3.12.3,4.59,2.48,6.51,4.59ZM63.42,50.67c2.02.11,4.1,0,6.13,0,.08,0,1.35-.47,1.37-.61l-.78-3.06c-2.56.24-6.97.58-8.83-1.31.82-.13,2.27.76,2.87.76h5.56v-2.68c-2.61,1.02-5.41.03-8.04-.39.17-1.06,1.85,0,2.1,0h5.56l-.39-2.68c-2.26.52-5.12.43-7.28-.58,2.31-.4,4.56.59,6.9-.19l-.77-3.07c-1.54.23-3.55.14-5.14-.03-.37-.04-1.44-.17-1.37-.73h5.56s.84.7.96-.2c.35-2.59-3.31-2.2-5.06-2.6-1.9-.43-3.75-1.07-5.67-1.42.03-.45-.33-.82.49-.68,1.31.22,8.66,2.26,9.09,1.83.03-.58-.11-1.62-.64-1.95-.71-.43-4.68-.99-6.08-1.49-10.37-3.65-17.3-13.44-28.43-15.24-9.38-1.52-20.93,3.7-27.29,10.44,1.28.45,2.67-.46,4.02-.57,8.34-.7,16.53.81,23.82,4.91,2.23,1.25,9.75,6.5,9.7,9.09-.03,1.97-7.41,1.56-8.96,1.75-6.27.78-13.39,2.88-18.25,7.04-1.2,1.03-7.16,7.14-5.35,8.62,1.58-.81,3.2-1.62,4.88-2.2,17.66-6.08,28.6,4.6,43.38,11.6,11.14,5.27,26.86,9.93,39.01,5.66,1.48-.52,4.31-1.8,2.21-3.6-.66-.56-6.9,1.44-8.45,1.57-2.17.18-10.65.41-12.34-.29-.35-.14-.82-.44-.87-.85,5.91,1.34,12.33.84,18.13-.76l.26-1.15-.38.76c-1.24.26-2.48-.44-3.63-.4-2.15.07-5.79,1.15-8.08,1.18-1.6.02-6.07-.63-7.54-1.26-3.15-1.34-3.77-4-4.49-7.02-2.48.5-5.49-.29-7.67-1.51,2.76-.16,8.56,2.68,7.66-2.11-3.5.06-7.01-.14-10.34-1.15-.1-.64.93-.41,1.35-.4,2.89.1,5.59.8,8.6.01v-3.06c-1.37.99-2.82.78-4.42.79-.76,0-2.95-.08-3.63-.19-.42-.07-2.15-.48-2.28-.97.98-.4,2.23.35,2.87.38ZM258.81,67.53c-1.56.4-4.56-.29-6.32,0v-.77s-.39.19-.39.19c-.6,1.05-1.2,2.83-2.32,3.43-5.28,2.85-15.31-.52-21.23-.95-.92-.07-1.08.15-.06.45,1.13.33,2.78.31,3.31,1.48l-7.66-1.53c-.45,1.62,1.25,3.48,2.67,4.03,6.9,2.64,16.6,3.75,23.95,3.24,20.9-1.45,36.11-18.44,58.8-9.75,2.46.94,4.38,2.92,6.9,3.24-2.16-13.49-17.95-17.13-29.5-18.39-1.04-1.01,4.35-4.56,5.09-5.07,7.79-5.42,18.59-11.09,28.24-9.49.64-.76-4.17-3.78-4.85-4.15-20.19-10.74-32.87,3.01-52.04,5.29-.89.11-6.46.15-6.7.39,0,1.08-.3,2.08.97,2.31,2.13.38,6.65-.94,9-.77-.16.76-.78.65-1.34.76-1.58.3-7.96.57-8.62.96-.33.19-.93,1.49-.76,1.72.97.11,1.97.66,2.92.74.59.05,3.25-.54,3.2.22-.08,1.23-3.8.24-4.44.23-2.11-.04-2.67,1.08-2.83,3.02,3.5.43,6.84.42,10.34,0,.1.5-.71.61-1.05.67-3.36.55-6.32.39-9.68.1-.16,1.1.23,1.91,1.18,2.46l5.33.98c-2.39-.08-4.58.46-6.89-.38-.81,2.74,1.83,3.21,4.08,3.41,1.76.16,4.04-.63,5.87-.35.07.56-1,.69-1.37.73-1.66.19-4.59.56-6.14.44-1.03-.08-1.32-1.07-2.44-1.18l-.36,3.42,6.1,1.18-6.51-.38.18,3.08c2.59,1.37,5.34.99,8.07.76.42-.04,1.43-.28,1.33.37-3.27.61-6.83.89-9.95-.38l-.39,3.06,6.9.39c.01.24-.45.73-.57.76ZM99.62,62.93c.31-2.51-.66-4.82-.95-7.28-.75.5-.46.87-.42,1.53.09,1.23.44,3.48.71,4.69.08.37.14,1.15.66,1.05ZM96.18,56.8c-2.84.39-3.45,1.04-2.97,3.93.27,1.59,2.08,4,1.83,1.62-.15-1.45-1.86-3.61-.01-4.78-.11,2.04-.06,4.64,1.92,5.75l-.76-6.51ZM98.48,63.31c-.13-1.72-.45-3.48-.77-5.17-.1-.56,0-1.19-.76-1.34.01,1.61.17,3.5.5,5.07.14.66.02,1.71,1.03,1.45ZM92.73,57.18c-.89-.2-.62.11-.86.49-1.36,2.11.11,3.42.1,5.64l1.1-.63c-.09-1.85-1.31-3.7-.34-5.49ZM90.81,57.57c-.85-.15-.77.06-.96.74-.48,1.7-.12,3.32.19,5l1.53-.39c-.88-1.63-1.7-3.53-.77-5.36ZM86.98,58.72c-.99-.17-.69.15-.88.83-.24.85-.29,4.8,1.06,4.53,1.16-.77-.03-1.55-.17-2.51s.04-1.92-.02-2.85ZM88.9,58.72c-2.55-.4-.8,3.61-.38,4.98,1.82-1.04-.51-3.44.38-4.98ZM83.92,64.46l-.95-4.59c-1.54.71-.02,5.66.95,4.59ZM85.07,59.86c-.93-.12-.62,0-.81.55-.43,1.17-.09,3.27,1.01,4.04.88-.58.31-.73.21-1.35-.18-1.08-.59-2.1-.41-3.24ZM228.74,59.86c-.13-.17-.76-.38-.66.48.25,2.17-.48,4.32-.87,6.41,1.4,1.52,1.87-6.52,1.53-6.89ZM227.2,60.25c-.18-.22-.52-.33-.65.36-.39,2-.1,4.35-1.26,6.15h1.53s.38-6.51.38-6.51ZM229.89,66.76c.08-2.15,1.17-3.98.38-6.13-.5-.11-.62.71-.67,1.05-.25,1.63.08,3.41-.86,4.9l1.14.19ZM231.42,66.76c.31-2.16.83-3.93.38-6.13-.55.25-.61,1.91-.71,2.54-.2,1.17.21,2.45-.81,3.4l1.14.19ZM232.95,67.14c.17-2.05,1.21-4.12.38-6.13-.57-.11-.47.59-.54.96-.23,1.24-.53,3.36-.61,4.6-.05.76.08.6.76.57ZM224.52,67.14c.47-1.89,1.36-3.74,1.15-5.74l-1.76,4.59.61,1.15ZM234.11,61.78l-.19,6.13c1.39.21,1.42-5.6.19-6.13Z"/>
        <path d="M149.82,14.85c-.06-.39-1.55-2.19-.54-2.92.6-.43,3.75-.48,4.55-.33,2.52.48.43,2.33.23,3.65-1.13,7.2.31,14.77,0,21.83-.14,3.14-1.48,3.66-4.25,2.3l-10.7-18.98c.35,5.45.11,11.25.78,16.64.1.8.81,1.34.69,2.23-.29,2.08-3.69,1.65-5.13,1.08-.57-1.34.19-2.69.23-4.03.18-5.77-.2-13.03-.78-18.79-.22-2.18-2.29-5.53,1.49-5.74,1.05-.06,2.23.57,2.94,1.32,3.55,5.36,6.19,11.36,9.66,16.76.24.38-.04.68.86.49-.5-4.79.67-10.9,0-15.52Z"/>
        <path d="M173.56,31.13c.08-.59.34-1.12.39-1.72.28-3.39.96-9.96.75-13.03-.1-1.54-1.01-2.63-.32-3.97,1.19-.13,5.21-.34,5.34,1.3.03.41-1.16,2.77-1.37,4.01-.93,5.5-.47,12.5-.96,18.2-.08.88-.54,4.32-.95,4.8-1.05.82-2.85.43-3.59-.63l-8.49-19.29c-.66-.09-.36.87-.38,1.33-.18,4.85-.62,10.24-.59,14.96,0,.77,1.33,2.2-.05,3.26l-4.56-.76c-.67-.93.83-4.49.98-5.97.52-5.12.53-12.07.41-17.25-.03-1.25-1.16-3.84.36-4.58,1.09-.53,3.46-.33,4.16.82,2.73,5.32,4.77,11,7.39,16.37.36.73.68,1.8,1.47,2.16Z"/>
        <path d="M101.54,28.83c8.79.9,10.62,11.43,2.79,15.63-1.55.83-10.41,3.09-11.62,2.57-1.35-.58-.29-2.61-.35-3.8-.1-2.16-3.51-20.83-4.21-21.77-.61-.81-2.13-.8-1.49-2.71s10.44-2.79,12.37-2.52c5.96.84,7.3,9.17,2.52,12.61ZM93.93,28.78c9.26-.48,8.18-12.94-1.41-8.39l1.41,8.39ZM96.18,43.01c13.28.05,11.5-14.51-1.37-10.37l1.37,10.37Z"/>
        <path d="M213.03,33.43c1.1,3.13,1.43,6.51,2.4,9.67.27.89,1.84,2.35.68,3.19-.71.51-4.09-.59-4.63-1.53-.94-1.62-.37-6.65-1.42-8.93-.59-1.29-2.44-1.86-3.76-2-.84-.08-.4.05-.55.54-.78,2.57-1.3,6.8-.75,9.39-.89.5-5.11.21-5.35-.61.75-2.18,1.34-4.31,1.79-6.59.89-4.5,2.64-13.28,2.38-17.5-.06-.9-1.34-1.79.41-3.1,4.68.56,12.89,1.1,14.9,6.19,1.93,4.88-.97,10.31-6.09,11.27ZM208.29,20.07l-.56.59-1.17,9.06c4.14,2.77,8.96.22,9.16-4.93.14-3.69-4.32-5.76-7.43-4.72Z"/>
        <path d="M126.5,41.04c-.42-.26-.71-6.82-2.22-7.56-1.22.08-5.89.24-6.46,1.1-.88,1.31-.85,5.96-.62,7.62l-4.02.79-.88-.61,4.27-27.43c.53-2.63,5.4-3.2,6.5-.94,2.65,7.45,4.4,15.66,7.28,22.98.43,1.09,1.82,2.26,1.28,3.34-.66,1.29-3.81.68-5.14.72ZM123.76,29.98c-.79-3.11-1.6-6.37-2.67-9.4-.2-.56-.56-1.91-1.16-2.09l-1.54,11.87,5.36-.38Z"/>
        <path d="M198.39,18.78c-1.42.85-2.82-.54-4.5-.89-.89-.19-4.8-.71-5.2-.17l-.95,7.28,7.03.44.64.9-.4,2.87-7.46-.4-.99,9.36,9.24,1.17c1.03.72.19,4.36-1.72,3.68-2.45-1.08-10.8-.57-12.48-1.73-1.18-.81.4-2.45.59-3.26,1.01-4.19,2.43-17.11,2.08-21.25-.08-.96-1.31-1.91-.18-2.9.7-.61,1.85-.43,2.69-.37,2.59.16,7.68.73,10.09,1.41,2.63.74,2.04,1.55,1.52,3.87Z"/>
        <path d="M237.8,23.99c1.29,1.3,3.15,3.91.53,4.69s-1.94-1.23-3.05-2.36c-3.62-3.67-8.77-.24-6.49,4.19.77,1.49,4.06,3.83,5.31,5.42,2.49,3.19,3.67,6.89,1.48,10.66-3.37,5.82-14.95,3.45-15.97-2.73-.38-2.31,2.16-3.42,3.77-2.2.81.61-.48,2.73,2.16,4.35,2,1.23,5.07,1.48,6.33-.81,4.09-7.45-8.72-10.16-7.71-18.05.84-6.54,9.6-7.19,13.62-3.15Z"/>
      </g>
      <polygon points="243.29 74.43 239.66 74.8 234.49 73.66 243.29 74.43"/>
      <g>
        <path d="M85.26,70.21c-.13-.03-.59-.52-.57-.76,3.25.32,6.38.1,9.59-.57,1.43-.3,2.98-1.7,4.2-.78-.3.39-.71.58-1.15.77-.92.41-5.05,1.34-5.94,1.34-1.49,0-4.99.29-6.13,0Z"/>
        <path d="M54.42,59.86c-1.68-.34-4.19-1.64-5.63-2.6-.5-.33-1.05-.43-.88-1.22,2.16,1.07,4.96,1.95,6.51,3.83Z"/>
      </g>
    </g>
  </g>
</svg>