<?xml version="1.0" encoding="UTF-8"?>
<svg id="Layer_2" data-name="Layer 2" xmlns="http://www.w3.org/2000/svg" viewBox="0 0 169.49 68.34">
  <g id="Layer_1" data-name="Layer 1">
    <g>
      <path d="M169.39,41.08l-17.19,6.95c-.01.6.69.36,1.07,1.02,1.78,3.1,5.32,11.81,6.49,15.35.21.62,1.58,4,.28,3.94l-17.35-6.41c-3.65-.5-7.01-1.8-10.66-2.36s-9.35-.21-12.29-1.88c-6.02-3.42.12-12.36-.84-17.47-15.27-4.79-31.45-5.18-47.36-5.39-6.44.89-13.05,1.05-19.42,2.59-.93.22-3.83.89-4.08,1.69-.03,3.88,2.85,9.49.9,13.14-2.08,3.9-19.33,4.48-23.69,5.04-4.92.64-9.8,2.08-14.75,2.19-2.76-3.22,6.06-13.15,5.15-14.89-1.57-1.2-3.78-1.79-5.68-2.4-2.46-.79-7.57-1.49-9.4-2.47-.81-.43-.62-1.28-.28-2.02.41-.89,6.65-4.36,7.97-5.05,4.61-2.41,9.22-3.83,13.89-6.06-.68-5.22-4.61-9.97.37-14.17C32.03,4.38,58.43.69,70.77.12c18.67-.87,54.7,3.06,71.1,12.07,9.24,5.08,5.1,9.02,2.84,17.07,5.48.9,10.79,2.52,15.79,4.91,1.54.74,8.44,4.5,8.87,5.69.12.32.19.95.02,1.22ZM144.91,21.21c.76-4.33-2.97-6.14-6.25-7.73C117.63,3.33,77.71.41,54.79,4.06c-6.69,1.07-27.52,5.74-31.32,11.21-1.53,2.2.2,7.48.76,7.09,1.8-3.9,6.73-4.68,10.35-6.13.18.99-.16.69-.77.94-2.06.85-3.65,1.06-5.64,2.42-.53.36-3.82,3.16-3.88,3.41-.07.31.15,2.36.9,2.03,1.37-1.51,3.58-2.31,5.56-2.67l-5.39,3.7.98,3.2c1.01-1.95,3.3-2.29,5.17-3.07.22,1.02-.26.66-.75.95-1.42.84-2.72,1.81-4.19,2.55l.94,2.25,6.69-3.45c.65.62-3.1,2.42-3.57,2.75-1.31.92-3.34,1.94-2.56,3.76.83-.51,1.62-1.14,2.56-1.46.62-.21.62-.78,1.26.12l-3.63,2.49-.19,4.21c2.72-2.36,5.97-4.92,9.57-5.74l-8.75,5.42c-.06.92-.4,3.76.52,4.15.7-2.27,3.62-3.36,5.68-4.28,24.06-10.79,65.5-8.72,90.3-.9,4.41,1.39,8.51,3.03,11.86,6.33.37-4.3,2.54-6.79-1.12-10.16-2.25-2.07-4.38-2.66-7.17-3.59-.6-.2-1.1.34-.9-.81,3.93.92,7.89,2.57,10.53,5.74,2.46-2.68-1.43-4.58-2.87-6.5.82.12,1.85,1,2.48,1.54.83.71,1.12,1.89,2.12,1.9-.19-1.93-1.02-4-2.3-5.36.63-.55,2.74,2.34,2.69,3.06,3.33-3.37-1.23-4.9-3.07-7.27,2.12.58,3.55,2.14,4.79,3.83,1.86-6.72-6.77-7.48-10.54-10.34,4.2,1.54,8.85,2.62,11.87,6.13.44-2.84-3.55-5.78-5.78-7.05-1.1-.63-2.82-.54-3.41-1.76,3.09.72,6.68,1.9,8.81,4.4.58.68.66,1.75,1.53,2.11ZM35.92,53c-1.89.1-3.85,0-5.75,0-.07,0-.6-.52-.57-.76h4.78s6.33-.77,6.33-.77h-6.7l-5.55-1.15c-1.26-1.23,4.48.35,4.79.38,3.45.34,7.09-.26,10.53-.19-4.37-2.08-13.54.59-16.37-4.31-1.77-3.06-1.42-8.49-2.4-11.97l-2.68.76,2.33-1.39-.82-3.94c-2.54-.32-19.83,6.46-20.28,7.44-.07.16-.16,1.01.24.96,3.92.89,8.15,2.12,11.77,3.88,1.23.6,3.77,1.37,3.16,3.02-1.01,1.58-6.88,10.59-5.59,11.87,4.96-.25,9.83-1.63,14.76-2.3,5.46-.74,10.73-.36,16.1-2.3.66-.24,1.57-.15,1.33-1.15-1.11-.47-2.06.69-2.2.73-1.9.54-5.28,1.08-7.18,1.19ZM165.98,39.6c-7.21-2.78-14.02-6.88-21.97-7.63l-.45,1.9,2.88.56c-2.36,1.17-4.9-1-4.97,3.26,1.17-.64,3.36-.41,4.21.76-1.28.42-3.57-.9-4.42,0-1.09,1.14-1.57,7.73-2.28,9.6-1.25,3.24-6.54,3.07-9.39,3.45-.15.86,4.71-.18,3.44,1.14-2.06.82-3.77.26-5.74-.38-.36,1.46,2.11.51,2.29,1.53l-7.28-.76.76.76h-.76c.23.87,1.18.83,1.91.77l-.57-1.15,2.87.78-.39.76,1.92.38c-2.54.61-4.71.4-6.89-1.15l-.03,1.32c3.49,1.66,7.63,1.22,11.28,1.8,8.65,1.37,16.7,4.31,24.76,7.61l-7.23-17.74.74-.83,15.31-6.71ZM41.47,40.75c-1.27-.14-.54.23-.62.71-.29,1.88-.35,4.43,1.19,5.8l-.58-6.5ZM44.15,47.64c-.3-1.8-.55-3.65-.88-5.44-.08-.42-.08-1.52-.65-1.45-.58,2.2-.46,5.49,1.52,6.89ZM44.92,40.75c-.9-.06-.67-.13-.76.56-.17,1.29.13,5.37.96,6.36l1.72.73-.39-3.83-1.14,2.68-.39-6.51ZM39.94,41.9c-1.2-.35-.81,1.32-.72,2.06.13,1.05.38,2.49,1.48,2.92l-.76-4.98ZM124.23,41.9c-.99-.08-.64-.06-.75.57-.48,2.67-.6,5.63-2.31,7.85,1.64-.46,3.23-1.39,4.98-.77l.39-2.3.7.51-.71,1.79c.97.95,2.14-4.23,1.93-5.1-.63-.52-1.65-1.21-1.93-.07-.08.35-.88,5.51-1.92,4.4,1.09-1.83,1.52-4.03.96-6.12-.63.18-1.64,7.79-2.88,6.51.94-2.31,1.76-4.74,1.53-7.27Z"/>
      <g>
        <path d="M24.23,19.29l-.76-.22c.02-.36-.28-.85-.23-1.14.3-1.77,6.4-4.07,8.06-4.79.69-.3.68-.68,1.35.21-2.24,1.47-5.88,2.58-7.81,4.45-.49.47-.68.78-.62,1.49Z"/>
        <path d="M42.62,10.48l-2.97,1.43-4.69.86c1.78-1.87,5.23-1.99,7.66-2.29Z"/>
        <path d="M137.25,40.36c-1.55-.69-2.98-1.72-4.26-2.83-.37-.32-.97,0-.71-1,.86.33,5.94,2.6,4.97,3.83Z"/>
        <path d="M129.97,36.14l-6.89-2.29c2.18.12,5.32.76,6.89,2.29Z"/>
      </g>
      <path d="M22.7,52.24c-1.2,1.48-3.61,1.59-5.36,1.53-.19-1.15.28-.62.93-.77,1.45-.35,2.97-.47,4.43-.75Z"/>
    </g>
  </g>
</svg>