<?xml version="1.0" encoding="UTF-8"?>
<svg id="Layer_3" data-name="Layer 3" xmlns="http://www.w3.org/2000/svg" viewBox="0 0 147.51 52.47">
  <g id="Layer_1" data-name="Layer 1">
    <g>
      <path d="M112.31,15.26c9.02-3.56,18.7-5.9,28.36-3.65,1.27.3,7.09,1.76,6.83,3.39-.92,1.99-3.04,2.86-4.55,4.28-1.61,1.51-9.6,9.22-9.56,10.74.02.78,5.24,4.7,6.32,5.92,3.1,3.51,5.34,8.2,7.02,12.54l-.55.86c-8.28-2.55-16.7-2.12-25.14-.64-7.06,1.24-13.43,4.13-20.82,3.74-11.25-.6-8.6-8.31-6.68-16.49-.63-.62-8.56,1.35-9.96,1.72-22.29,5.98-41.9,15.05-65.99,10.82C15.36,48.1.29,43.41.03,42.22c-.09-.39.04-.92.23-1.29.44-.88,6.09-3.89,7.43-4.83,1.12-.78,7.25-5.26,7.26-6.1-1.73-1.43-3.38-2.96-4.93-4.58C7.78,23.09.41,15.09.05,12.39c-.1-.71.04-1.52,0-2.25l.76-.46c8.11.57,16.21,2.54,24.33,2.86,9.44.38,20.11-.86,29.33-2.85,13.92-3.01,39.13-14.47,52.3-7.48,5.44,2.88,5.34,7.46,5.55,13.03ZM110.01,26.36c-.24-2.04-.74-4.69-.78-6.69-.09-4.43,1.54-10.56-1.94-14.15-5.5-5.67-22.92-1.97-29.92-.12-20.33,5.35-34.02,10.84-56.04,9.47-2.41-.15-17.47-2.45-18.2-1.91,3.72,6.35,9.53,11.03,14.58,16.26,1.05,1.27-.24,2.06-1.09,2.87-3.72,3.55-8.44,6.23-12.71,9.03.35.51.78.72,1.31.98,2.28,1.12,9.38,3.05,12.08,3.63,14.46,3.14,29.7.36,43.77-3.38s33.58-13.1,47.03-8.5l3.08,1.71c-1.09-2.1-.44-6.44-1.57-8.2-.57-.89-3.08-1.86-4.18-1.76l.19-.76,4.41,1.52ZM105.99,44.37c-1.92.27-4.34-.2-6.32,0l3.06,1.53-4.98-.38,1.91,1.52-2.43-.71-1.4,1.47c1.14-.28,3.14-.41,3.83.77-1.72.81-2.64-.38-4.21-.19,1.22,1.22,2.72,1.59,4.39,1.74,9.34.81,17.45-4.25,26.45-4.99,5.39-.44,10.89.31,16.28.37-1.94-6-6.88-10.31-11.51-14.34-.31-.33-.39-.72-.39-1.16-.02-3.27,9.24-10.34,11.35-13.21.44-.59.7-1.24.94-1.93-6.88-2.57-14.51-2.12-21.54-.28-1.37.36-8.86,2.94-9.31,3.71-.28.48-.18,1.03-.18,1.54,1.15-1.04,2.37-.79,3.83-.76-.06.42-1.5.94-1.83,1.04-.66.19-1.33.13-2,.11-.23,3.03,3.27,2.17,5.36,2.3.03.57-1.37.67-1.77.72-1.07.12-2.15.02-3.21.04l.06,2.63c1.81,1.04,3.45-.22,5.31-.32l-3.79,1.74-1.57-.59.43,3.01,4.15.25c-.71,1.21-3.7.21-4.21.58l.56,2.31c1.87,1.06,3.98-.07,5.76-.79l.2.77c-2.26.92-3.09,2.01-5.74,1.16,1.24,4.94-2.63,9.66-7.47,10.34ZM102.35,35.56c-1.77-.4-2.57.55-3.94,1.23-1.54.76-2.67.41-2.95,2.98l6.89-4.21ZM104.65,36.33c-1.13-.85-7.53,3.73-9.2,4.02l-.38,1.73c3.08-1.43,6.1-2.73,8.85-4.76.43-.32.95,0,.72-.99ZM107.71,37.1c-1.77-.82-1.26.02-1.84.34-1.72.92-3.33,2.02-5.05,2.92-1.58.84-4.73,1.68-5.87,2.46-.42.29-.7,1.04-.65,1.56.41.4,6.27-3.43,8.17-3.08.3.06.1.79.81.82,2.26.1,5.57-1.42,5.95-3.87l-3.19,2.36-1.67.64-.51-.7c2.11-.05,3.43-1.44,3.83-3.45Z"/>
      <path d="M109.63,46.29c.18,1.1-.23.64-.88.82-1.75.48-3.45.33-5.24.33.62-1.27,2.52-.53,3.51-.6.89-.06,1.74-.43,2.62-.55Z"/>
    </g>
  </g>
</svg>