<?xml version="1.0" encoding="UTF-8"?>
<svg id="Layer_3" data-name="Layer 3" xmlns="http://www.w3.org/2000/svg" viewBox="0 0 165.18 59.65">
  <g id="Layer_1" data-name="Layer 1">
    <g>
      <path d="M144.46,21.72c2.77.07,6.6.4,9.19,1.34,1,.36,1.91,1.33,2.67,1.55,1.93.56,2.6.1,4.74,1.77.46.36,3.97,4.08,4.08,4.35.31.78-1.43.87-1.77,1.31l-.91-.73c.06.49-.07.67-.52.83-2.18.79-5.57,1.17-7.91,1.85l.32,1.1-.69.05c1.29,1.91,2.99,3.03,4.36,5.01,2.18,3.14,4.47,8.05,3.83,11.88-1.86.79-3.31-1.01-4.87-1.65-4.07-1.66-8.66-2.24-13.05-1.8-5.78.59-10.71,4.16-16.73.93-7.05-3.77.43-11.67-1.11-17.21-5.76-.71-12.27,1.32-17.64,3.4-20.46,7.91-36.69,20.86-59.63,23.51-12.71,1.47-35.98-.45-44.36-11.48-7.02-9.23,4.56-15.91-.54-27.81-2.3-5.36-7.83-6.46.57-10.78,4.69-2.41,12.11-3.27,17.09-1.51,1.98.7,5.02,2.05,5.13,4.37.14,3.01-4.01,12.6-2.75,14.71,1.34.74,3.79,1.03,5.37,1.13,25.85,1.65,44.3-11.38,66.59-21.13,12.41-5.43,36.79-10.89,48.51-2.02,6.83,5.17,1.26,10.72.03,17.02ZM131.63,26.32c-2.28-.31-5.12.23-7.47,0,.04-.54,1.73-.68,2.16-.72,5.28-.5,10.44,1.15,14.7,4.17-.78-1.49.29-1.01.39-1.39.65-2.51-3.51-4.2-4.99-5.5l5.36,2.68v-3.05c-.77.36-4.79-2.49-4.21-3.08l4.59,2.68,1.12-4.73-1.86-1.06.02-1.3-6.54-3.25c3.14.88,6.46,2.02,8.62,4.59,2.08-2.63-3.38-4.5-5.18-5.55-.21-.13-1.47-.36-.75-.95.44-.36,6.56,2.85,7.27,3.83-.12-.71.25-2.05-.08-2.61-.14-.23-4.03-2.65-4.56-2.91-2.81-1.37-6.82-1.93-9.92-2.16l3.25-.37c4.31.67,8.28,1.66,11.3,4.97-.1-4.08-5.56-6.12-8.95-6.95-26.52-6.44-46.2,10.12-69.21,19.39-18.61,7.5-41.63,12.42-58.99-.57.57,4.2,4.54,5.77,7.66,7.86-1.22-.01-3.07-1.02-4.09-1.65-.9-.55-1.95-1.23-2.41-2.19-.84-.67-.74,1.65-.54,2.16.91,2.33,3.65,2.82,5.14,4.55-.94-.28-2.41-.71-3.2-1.2-.92-.57-1.39-1.81-2.54-1.86-.52,3.2,3.27,4.24,4.98,6.32-1.52.9-4.83-4.01-5.17-4.02-2.92,5.93-4.81,10.24.76,15.33,14.48,13.21,41.87,10.62,59.02,4.6,18.52-6.5,51.25-30.17,70.17-21.16,1.68.8,2.73,2.04,4.33,2.75.1-1.7.24-2.25-.96-3.44-1.37-1.36-7.31-3.97-9.19-4.22ZM14.19,23.63c-.6-3.86.2-7.02,3.48-9.36,2.22-1.59,7.77-3.18.88-4.38-3.8-.66-7.61-.39-11.25.92-1.01.36-4.52,1.9-4.05,3.23,1.32,3.69,7.82,7.41,10.93,9.6ZM23.39,14.44c-.37-.4-5.9,2.91-6.52,3.63-2.85,3.36,3.4,9.41,4.6,8.24-.34-4.09,1.2-7.93,1.92-11.88ZM159.02,48.53c-.43-4.43-3.22-8.45-6.5-11.31-.97-.84-2.85-1.13-2.71-2.65l.57-1,10.55-3.62c-3.83-4.95-10.38-4.54-15.9-6.15-.74.1-1.19.42-1.34,1.17-1.09,5.74,2.89,13.4-3.4,17.67-4.06,2.76-6.84,1.28-10.88,2.14-1.57.34-2.07,1.8-.64,2.77,3.57,2.42,13.17-1.38,17.79-1.5s8.27.9,12.45,2.47ZM139.1,35.13c-1.99-.38-3.46-2.09-5.6-2.29-1.76-.16-4.68.87-4.36,3.05,1.67-.14,2.66-1.67,4.16-2.16,2.66-.86-1.88,2.45-2.27,2.71-1.21.81-3,.78-3.04,2.89.93-.52,2.25-.71,3.15-1.17.32-.16.36-.62.78-.85,1.34-.72,4.37-1.36,4.12-2.96l1.53,1.15c-2.54,1.88-7.04,3.17-9.33,5.04-.49.4-.81.88-1.01,1.47,2.74-1.27,5.75-2.15,8.38-3.68.5-.29,4.1-2.54,3.5-3.2ZM129.9,42.02c2.61-.65,8.37-.09,9.92-2.53.75-1.18.65-2.65-.72-3.21l-2.72,2.46-6.48,3.28Z"/>
      <path d="M7.3,40.49c.9,4.26,5.57,5.47,8.43,8.04-1.2-.13-2.74-.81-3.79-1.38-1.35-.74-3.6-2.81-4.43-3.99-.25-.36-1.71-3.22-.22-2.67Z"/>
      <path d="M141.77,19.8c-1.22-.26-1.39-1.39-2.32-2.09-1.17-.87-2.91-.99-3.81-2.12,1.31-.5,7.14,2.92,6.13,4.21Z"/>
      <path d="M25.69,51.22c0,.77-1.54.33-2,.27-1.64-.21-4.56-.61-5.66-1.81l7.66,1.53Z"/>
      <path d="M23.01,33.59c-2.29-.74-5.18-1.23-6.9-3.06,1.85.78,3.83,1.38,5.66,2.19.47.21,1.13.19,1.24.87Z"/>
    </g>
  </g>
</svg>