<?xml version="1.0" encoding="UTF-8"?>
<svg id="Layer_2" data-name="Layer 2" xmlns="http://www.w3.org/2000/svg" viewBox="0 0 64.98 73.97">
  <g id="Layer_1" data-name="Layer 1">
    <g>
      <g>
        <path d="M38.84,71.15c-5.82-5.8-1.09-15.63-1.22-22.36-.04-1.99-1.06-3.88-1.16-5.93s.89-5.08.69-6.62c-.09-.65-.98-1.88-1.23-2.87-1.72-6.76-1.63-19.47,4.46-24.16,6.35-4.89,13.74-2.64,18.59,2.97,7.04,8.16,7.21,17.94,4,27.8-1.13,3.45-3.13,7.54-3.73,11.13-.28,1.68.1,3.47-.09,5.11-.57,4.75-1.4,12.41-5.23,15.59s-11.59,2.82-15.08-.66ZM53.94,12.19c-5.6-3.74-11.99-2.79-14.67,3.72-2.17,5.26-1.79,10.48-.94,15.98.89.2.6-.16.83-.49,1.31-1.89,2.08-4.11,3.8-5.85.64-.65,3.11-2.15,3.36-2.59.4-.69.49-4.76,2.92-4.06,1.49.43,1,3.55,1.19,4.08.21.58,4.41,4.29,5.31,5.43,2.41,3.06,3.08,5.23,4.14,8.87.16.55-.21.65.75.54,1.19-5.14,2.35-10.17.65-15.34-.4-1.21-1.88-4.68-2.57-5.61-.23-.31-.33-.71-.84-.59-1.03.24-3.13,3.44-4.67,3.32-.63-.6,3.69-3.7,4.46-3.72l-2.47-2.56-6.08,3.68c-.72-.69,4.8-3.68,4.83-4.82ZM49.73,29.04c-1.39-1.24-1.84-1.39-3.23-.32-3.21,2.46-5.9,7.36-5.52,11.48.24,2.62,4.31,11.24,1.34,12.61-1.05.48-2.41-.98-2.5-.85l-.74,10.04c1.47-.82,2.56-3.2,4.46-3.16-1.04,2.61-5.16,3.45-4.46,6.5.68.79,4.89-4.72,6.32-4.08.84.76-5.2,4.31-5.41,5.21l.94,2.06,7.81-5.41c.39.41-1.15,1.74-1.48,2.05-1.53,1.45-3.57,2.73-5.2,4.08,2.33,1.94,5.69,2.23,8.42.99,5.52-2.49,4.67-10.89,6.07-15.86h-2.23c-1.7-1.37-1.2-3.86-.45-5.65.64-1.53,2.26-2.52,2.59-4.1.91-4.41-3.44-12.67-6.73-15.58Z"/>
        <path d="M49.86,11.07l-8.55,4.83c-.58-.57,2.62-2.77,3.09-3.04,1.57-.94,3.6-1.9,5.46-1.78Z"/>
      </g>
      <g>
        <path d="M16.71,0c8.03-.33,12.17,11.9,12.7,18.32.34,4.13-1.38,7.57-1.41,10.77-.02,1.57.97,3.79,1.06,5.57.11,2.33-.86,4.74-.78,6.7.05,1.26,2.02,5.29,2.45,7.25.99,4.51,1.41,8.65-.38,13.01-2.35,5.74-9.45,8.67-14.94,5.28s-5.83-9.37-7.06-14.87c-1.27-5.7-2.07-11.24-4.89-16.3C-3.45,23.33-.49.7,16.71,0ZM16.03,7.35c-.45-1.27,3.65-2.74,3.16-3.34-3.32-1.76-8.3.57-10.97,2.78C1.64,12.25,1.24,24.7,5.07,31.88c.92-4.9,3.05-10.05,6.63-13.62.42-.42,2.07-1.24,2.12-1.5.23-1.2-.99-2.11.19-4.17,2.08-3.62,3.17,2.91,3.71,3.66.44.62,2.8,1.84,3.7,2.62,1.91,1.66,3.07,3.68,4.63,5.58,1.03-4.7-.22-8.92-1.49-13.38l-4.09,1.86c.81-1.33,2.18-2.31,3.72-2.6l-1.67-2.96-4.27,3.34c-1.12-1.28,6.02-4.71,2.11-5.89l-4.34,2.55ZM26.81,45.27l-2.34.7c-3.29-.94.09-10.49.12-12.8.04-3.12-2.55-7.6-4.65-9.84-3.52-3.73-3.96-3.02-6.44,1.01-2.13,3.47-5.55,10.99-4.36,15,.75,2.54,5.6,4.88,3.73,8.9-.55.96-1.16.62-2.04.38.4,5.15,1.39,13.34,6.42,16.06,4.75,2.57,8.81-1.22,10.89-5.29l.9-5.2c-.29-.25-2.39,1.54-2.78,1.86-1.6,1.34-3.03,2.95-4.66,4.27-.29.24-.73.98-1.11.37,2.23-2.88,4.99-5.16,7.75-7.5l-1.44-7.93Z"/>
        <path d="M19.01,57.16c-.16-.7.39-.88.74-1.3,1.57-1.89,3.65-3.46,5.2-5.39.09.68,0,1.1-.35,1.69-.32.54-3.6,3.68-4.29,4.26-.42.35-.6.9-1.3.74Z"/>
        <path d="M23.1,63.11c-.51-.54,3.78-4.15,4.45-4.46.76.87-3.59,4.26-4.45,4.46Z"/>
      </g>
    </g>
  </g>
</svg>