<?xml version="1.0" encoding="UTF-8"?>
<svg id="Layer_3" data-name="Layer 3" xmlns="http://www.w3.org/2000/svg" viewBox="0 0 33.8 65.66">
  <g id="Layer_1" data-name="Layer 1">
    <path d="M29.77,13.11c.09.15,2.09,1.49,2.68,2.33,1.32,1.88,1.53,3.38,1.23,5.64-.15,1.12-1.25,3.27-1.25,3.81,0,.58.91,2,.99,3.33.16,2.72-.8,4.73-3.02,6.31-.77.55-2.74,1.13-3.12,1.71-.42.64-.43,2.11-1,3.09-.41.7-1.19,1.11-1.59,1.75-2.31,3.65-14.16,23.65-16.82,24.43-.47.14-2.34.22-2.66.02-1.71-11.45-1.99-23.07-1.9-34.64-4.37-1.53-3.99-7.39-1.33-10.3.5-.55,1.63-.98,1.88-1.47.45-.91.04-2.49.36-3.73.59-2.29,4.65-5,6.87-5.4,1.23-.22,3.82.05,4.48-.35.29-.18,2.63-4.71,3.52-5.77,1.93-2.29,7.72-6.18,9.57-2.13,1.17,2.56.61,10.48,1.11,11.35ZM26.72,14.67c.68-1.61.16-11.1-.72-11.73-1.72-.7-3.24.92-4.27,2.1-1.1,1.26-3.97,6.64-4.53,6.99-1.52.97-5.33.12-7.21.41l.33.69c-1.81.66-3.55,2.31-3.69,4.33-.11,1.54.81,2.25.74,3.67-.27.79-1.84.52-2.72,1.01-1.54.86-2.48,4.25-1.8,5.81,1.46,3.36,6.03.11,6.41.47.1,2.37,4.25,3.23,6.11,2.95.91-.14,1.53-.82,2.34-1.01,2.8-.66,1.5.47,2.31,1.61,2.04,2.91,12.63,1.51,10.64-4.69-.33-1.04-1.89-1.65-1.72-2.74,4.01-2.33,2.3-9.36-2.2-9.88ZM24.11,35.86c-1.02.02-1.97.08-2.98-.18-1.24-.32-3.31-2.24-3.96-2.35-.41-.07-1.74.77-3.23.64-2.17-.19-4.45-1.98-5.7-2.13-.96-.12-2,.75-3.08-.07-.04.95-.21,1.95.84,2.32l16.96,4.33,1.16-2.56ZM14.08,40.32c-.87-3.17-4.29-3.37-7.06-3.71l2.82,5.17,4.24-1.46ZM6.27,37.72c-.55-.53-.67.04-.74.55-.26,1.96.53,3.82.37,5.77l2.55-1.66-2.19-4.65ZM21.51,40.32c-1.91-.68-3.84-.46-5.57.55,1.16.64,2.19,3.4,3.5,3.19l2.07-3.74ZM15.13,41.49l-4.4,1.06c-.6.66,2.96,3.94,3.58,4.42l3.09-1.47c.56-.81-2.11-3.04-2.28-4.02ZM9.14,43.72c-4.33.92-3.76,4.82-1.15,7.36l4.59-3.18-3.44-4.18ZM8.93,51.89c-.59,1.02,2.29,3.2,3.11,3.64l3.47-5.38-1.93-1.23-4.66,2.96ZM7.39,62.25l3.71-5.4c-.94-1.55-2.98-2.97-4.1-4.44-.39-.5-.1-1.36-.72-1.31l1.11,11.15Z"/>
  </g>
</svg>