<?xml version="1.0" encoding="UTF-8"?>
<svg id="Layer_2" data-name="Layer 2" xmlns="http://www.w3.org/2000/svg" viewBox="0 0 68.43 65.57">
  <g id="Layer_1" data-name="Layer 1">
    <g>
      <path d="M32.65,15.74c7.81-.85,16.51,2.23,19.48,10.04,6.7,17.64-15.59,32.77-29.98,20.69-11.95-10.04-4.03-29.15,10.51-30.73ZM35.7,47.59c20.33-3.31,18.6-31.27-3.08-29-3,3.71-6.77,7.17-11.04,9.3l.34-1.32,9.68-7.23c.1-.63-.89-.4-1.26-.34-6.95,1.19-10.96,9.46-10.99,15.95l14.12-13.01c-.4,2.47-3.61,4.11-5.21,5.75-2.65,2.71-4.98,6.31-8.46,8.08-.37.53.34,3.28.86,3.27,1.97-2.25,4.38-4.04,6.51-6.12.59-.57,4.27-5.51,5.19-4.65l-3.33,4.28-8.17,7.42,2.35,2.77c.66-.12,5.67-5.96,6.91-6.87.51-.37.75-.7,1.5-.54.16.7-.4.88-.74,1.3-2.02,2.45-4.95,4.62-7.06,7.06.53.55,2.2,2.05,2.92,1.62,1.76-2.15,3.99-4.87,5.99-6.84.43-.43.79-1.04,1.49-.92,1.01,1.06-6.48,7.38-7.06,8.54l2.96.95c2.31-2.08,3.85-5.08,6.7-6.52.66.83-4.39,5.67-5.2,6.51-.4.95,2.92.62,3.34.36s3.62-5.75,4.83-4.64l-4.09,4.83Z"/>
      <path d="M46.11,14.51c-.4-.39,1.12-3.66,1.42-4.34.55-1.24,3.43-7.57,4.9-6.65.33.39.66.81.56,1.36-.13.71-4.57,9.17-5.03,9.44-.56.33-1.25.18-1.85.19Z"/>
      <path d="M14.51,44.99c.03.77.16,1.37-.38,2.04-.33.4-6.38,4.56-7.04,4.85-.9.4-1.57.71-2.62.54l.37-2.04c1.51-.63,8.39-6.68,9.66-5.39Z"/>
      <path d="M34.03.02c.6-.13.77.48.96.89.37.83.7,6.44.74,7.83.03,1-.05,3.43-1.33,3.56-.41.04-.88,0-1.13-.38-.31-.45-.46-9.8-.07-10.89.11-.31.6-.96.84-1.02Z"/>
      <path d="M36.07,54.28l.76,10.21c-.25,1.65-2.57,1.5-2.96-1.14-.29-2.01-.82-9.25,2.19-9.07Z"/>
      <path d="M52.75,62.04c-.27.17-1.23.11-1.56-.01-.54-.21-5.03-8.59-5.08-9.45-.09-1.39.89-1.66,1.87-.72.32.31,3.7,6.16,4.14,7.01.55,1.09,1.36,1.97.63,3.18Z"/>
      <path d="M14.51,24.92c-.7.69-9.41-3.27-10.54-4.13-.5-.38-.74-.53-.6-1.25.55-1.78,6.77,1.5,7.94,2.09,1.48.75,3.59,1.24,3.21,3.29Z"/>
      <path d="M63.95,50.19c-.91.9-8.89-3.96-9.69-4.99-1.56-2.03,1.54-1.57,2.89-1.03,1.1.45,8.23,4.6,6.8,6.02Z"/>
      <path d="M15.45,5.59c1.53-.31,4.01,4.71,4.86,5.92.79,1.12,3.14,2.37,2.02,3.95-1.36.94-3.71-2.5-4.41-3.42-.59-.79-4.39-6.06-2.47-6.44Z"/>
      <path d="M54.66,21.94l.37-1.67c2.76-.93,6.02-4.39,8.54-5.23,1.49-.5,1.98.79,1.15,1.91-.78,1.06-9.25,5.81-10.06,4.99Z"/>
      <path d="M11.91,36.07c-.96.14-1.86.6-2.83.71-1.65.19-4.23.38-5.89.43-.54.02-3.08,0-3.18-.59-.05-.52.11-.99.54-1.32.33-.25,5.02-.69,5.96-.73,1.61-.06,5.26-.62,5.4,1.5Z"/>
      <path d="M23.43,52.06c.94.96-3.89,8.08-4.88,9.05-1.18,1.16-2.12.48-1.73-.97.2-.75,4.35-7.38,4.92-7.73s1.02-.43,1.7-.35Z"/>
      <path d="M57.31,33.79v-1.39c.32-.51,8.65-.63,9.79-.41.62.12.94.46,1.31.92.14.66-.5.75-.95.9-1.31.46-9.68.73-10.15-.03Z"/>
    </g>
  </g>
</svg>