<?xml version="1.0" encoding="UTF-8"?>
<svg id="Layer_2" data-name="Layer 2" xmlns="http://www.w3.org/2000/svg" viewBox="0 0 45.67 48.14">
  <g id="Layer_1" data-name="Layer 1">
    <path d="M30.02,15.75c2.08.78,4.31,1.16,6.5,1.49,4.48.68,10.23-.72,8.97,6.09-.79,4.3-12.53,5.99-12.89,7.19.55,3.82,5.25,18.09-2.42,17.6-3.38-.22-9.54-8.83-11-11.88h-.54c-2.01,1.73-4.19,3.69-6.4,5.13s-6.86,4.49-9.29,1.81c-3.72-4.1,4.62-12.71,5.82-16.81-.01-.72-4.45-3.96-5.39-5-1.68-1.85-4.67-5.97-2.79-8.38,2.68-3.44,10.77,1.14,14.52.02,1.77-3.76,3.08-8.7,6.49-11.35,8.84-6.88,8.03,9.28,8.42,14.07ZM26.25,2.8c-5.3-.96-7.88,12.52-9.29,13.2-1.88,1.25-13.6-2.17-14.12-1.67-1.01,3.85,9.19,9.74,9.27,11.32.12,2.36-6.37,10.68-7.24,13.94-.16.61-.45,2.03.37,2.17,2.19.38,10.58-6.54,12.62-8.13,1.59-1.02,2.57.19,3.55,1.34,2.22,2.61,3.59,5.84,6.26,8.33,2.03,1.89,4.55,4,4.43-.8-.07-2.99-3.08-11.96-2.44-13.79.51-1.47,12.05-3.39,13.13-5.83.29-.64.23-1.32.22-2-.21-.77-13.68-.99-15.29-3.73l-1.46-14.34Z"/>
  </g>
</svg>