<?xml version="1.0" encoding="UTF-8"?>
<svg id="Layer_2" data-name="Layer 2" xmlns="http://www.w3.org/2000/svg" viewBox="0 0 55.45 43.63">
  <g id="Layer_1" data-name="Layer 1">
    <path d="M55.14,14.21l-15.24,8.24c-4.25-.61.7-4.02,2.29-5.12,1.36-.94,3.08-1.7,4.44-2.56.37-.23.66.04.47-.83-6.77-.78-13.71-.48-20.3,1.29-13.8,3.7-22.46,14.45-24.7,28.4H.17c-1.65-12.44,8.78-25.98,19.73-30.86,8.36-3.73,17.51-3.89,26.46-2.89-1.46-2.09-7.55-5.77-7.42-8.3.2-3.99,5.42.74,6.69,1.84,2.03,1.76,7.88,6.99,9.23,8.87.5.69.89,1.13.28,1.93Z"/>
  </g>
</svg>