<?xml version="1.0" encoding="UTF-8"?>
<svg id="Layer_2" data-name="Layer 2" xmlns="http://www.w3.org/2000/svg" viewBox="0 0 59.46 62.75">
  <g id="Layer_1" data-name="Layer 1">
    <path d="M59.46,23.43c-.27.96-1.94,1.2-2.8.58-1.93-1.39-1.32-9.95-1.63-12.4-.07-.51-.2-1.07-.73-.55-2.13,4.4-4.77,8.53-6.72,13.04-1.78,4.14-4.29,14.18-7.31,16.69-6.56,5.44-9.51-3.27-13.81-6.45-2.24.39-3.81,13.25-4.64,15.69-1.56,4.62-4.91,7.37-8.66,2.72-.78-.96-3.33-6.42-4.09-6.24-.42.1-3.21,5.88-3.58,6.77-.82,1.96-2.25,7.64-3.08,8.73C1.14,63.64.02,62.3,0,60.74c-.06-4.21,3.15-13.56,5.01-17.54.85-1.81,1.28-3.37,3.68-3.37,4.43,0,5.23,7.8,8.3,10,1.95-4.8,1.89-10.09,3.69-14.96,2.64-7.15,6.63-7.52,11.44-1.83,1.16,1.37,2.48,5.11,4.8,4.06,2.13-.97,4.04-9.18,5-11.63,2.62-6.65,6.08-13.03,10.52-18.65l-12.82,6.75c-1.97.63-3.42-.32-2.28-2.27.72-1.22,5.86-4.23,7.38-5.18C47.16,4.58,54.55-.14,57.02,0c1.52.09,2.43,2.62,2.43,3.86v19.57Z"/>
  </g>
</svg>