<?xml version="1.0" encoding="UTF-8"?>
<svg id="Layer_3" data-name="Layer 3" xmlns="http://www.w3.org/2000/svg" viewBox="0 0 77.02 44.19">
  <g id="Layer_1" data-name="Layer 1">
    <path d="M71.31,18.79c-2.41,2.28-3.56-2.12-2.76-4.05l1.94-7.29-29.36,32.31c-6.8.75-2.42-10.7-2.21-14.58-3.91,3.28-6.82,7.59-10.32,11.27-1.38,1.45-4.35,5.26-6.41,3.9l-3.75-13.68L1.29,44.19l-1.11-.23c-1.03-1.71,2.57-5.45,3.66-6.78,2.92-3.56,6.44-7.77,9.58-11.1,1.57-1.66,6.79-8,8.32-3.87,1.22,3.29,1.26,8.28,2.15,11.88.11.44.06,1.72.79,1.41,3.11-3.51,6.01-7.3,9.23-10.71,1.12-1.19,5.59-5.94,6.73-6.2,2.41-.54,2.76.63,2.71,2.7-.1,3.75-2.35,7.79-1.68,11.62l24.55-26.77c.08-.99-.19-.33-.65-.28-2,.22-7.42,1.4-8.95.66-.32-.16-.55-.49-.69-.82-.15-.43-.08-.81.12-1.22.99-1.98,12.66-3.7,15.2-4.01,2.21-.27,6.62-1.62,5.59,1.89l-5.55,16.42Z"/>
  </g>
</svg>