<?xml version="1.0" encoding="UTF-8"?>
<svg id="Layer_3" data-name="Layer 3" xmlns="http://www.w3.org/2000/svg" viewBox="0 0 49.01 51.37">
  <g id="Layer_1" data-name="Layer 1">
    <path d="M44.2.17c1.5-.12,3.41-.42,4.72.23.65.91-2.08,11.46-2.53,13.39-1.04,4.42-2.53,12.4-4.05,16.26-1.96,4.99-6.32-2.7-8.58-4.08-4.71,3.97-9.37,8.07-13.86,12.3-2.52,2.38-11.36,12.22-13.65,12.96-.43.14-.68.22-1.11-.01-.91-.48-2.4-7.44-2.86-8.98-.54-1.86-2.52-5.93-2.25-7.56.46-2.76,8.97-11.12,11.38-13.39,1.24-1.17,9.46-7.86,9.58-8.54-.28-.73-.96-1.56-1.49-2.13-2.58-2.73-7.89-4.26-1.07-6.32C25.33,2.22,36.89.74,44.2.17ZM45.38,3.76l-24.74,3.33c-.34.34.93,1.38,1.15,1.59.86.81,4.03,2.76,4.03,3.76-3.48,4.46-8.62,7.69-12.76,11.62-1.26,1.2-8.59,8.68-8.88,9.59-.8,2.54,2.7,9.59,2.8,12.57l26.22-24.56c2.28-1.08,4.29,4.71,6.64,4.99l5.54-22.89Z"/>
  </g>
</svg>