<?xml version="1.0" encoding="UTF-8"?>
<svg id="Layer_3" data-name="Layer 3" xmlns="http://www.w3.org/2000/svg" viewBox="0 0 48.36 62.01">
  <g id="Layer_1" data-name="Layer 1">
    <path d="M16.13,56.49l4.45,3.11c.85,1.48.46,2.51-1.28,2.4-1.25-.08-8.25-3.92-9.57-4.84-1.53-1.07-2.31-1.76-.99-3.45.51-.65,9.17-6.27,9.88-6.39,4.03-.7-.74,4.82-2.12,5.47,16.54-2.49,31.95-16.26,26.77-34.34C39.5,5.28,26.34.36,14.41,6.95,6.74,11.18,1.47,21.66,4.98,30.16c4.91,11.9,24.36,6.17,22.58-4.85-.45-2.79-5.12-3.61-4.35-6.22,2.43-2.93,6.9,1.06,8.02,3.66,2.91,6.75-3.09,14.81-9.46,17.04C8.09,44.58-2.23,34.06.42,20.28,4.88-2.95,39.52-8.73,46.96,16.24c6.52,21.88-10.65,37.29-30.83,40.25Z"/>
  </g>
</svg>