<?xml version="1.0" encoding="UTF-8"?>
<svg id="Layer_3" data-name="Layer 3" xmlns="http://www.w3.org/2000/svg" viewBox="0 0 86.12 26.58">
  <g id="Layer_1" data-name="Layer 1">
    <path d="M16.27,9.98l55.38.37c.22-1.06-.34-.58-.8-.85-2.24-1.31-9.45-4.34-10.12-6.52-1.28-4.14,5.5-1.22,7.22-.55,3.85,1.48,14.17,6,16.97,8.51,2.12,1.91,1.18,2.33-.83,3.54-3.18,1.91-17.63,9.93-20.37,9.94-1.77,0-2.2-.87-1.08-2.22,1.19-1.44,6.96-4.52,8.91-5.84.33-.23.68.06.48-.82l-56.49.37c1.13,2.08,9.29,7.77,7.7,10.28l-1.58.41L.06,14.17c-.45-1.38,1.65-2.44,2.65-3.16,3.97-2.88,10.32-7.06,14.56-9.44,1.26-.71,4.41-2.6,5.47-.81,1.68,2.82-5.27,7.01-6.46,9.23Z"/>
  </g>
</svg>