<?xml version="1.0" encoding="UTF-8"?>
<svg id="Layer_2" data-name="Layer 2" xmlns="http://www.w3.org/2000/svg" viewBox="0 0 49.17 65.75">
  <g id="Layer_1" data-name="Layer 1">
    <path d="M7.99,31.76c-1-.18-1.42-1.38-1.24-2.31.27-1.41,5.62-7.16,6.95-8.59C20.36,13.65,27.81,7.09,34.65.05c.97-.26,1.79.5,2.46,1.1,2.51,2.25,9.07,10.66,11.08,13.66,1.53,2.28,1.28,2.39-.92,3.81s-5.34,2.44-7.84,3.98c-.77.47-4.56,2.89-4.68,3.45-.11.52.28.63.63.84,1.66.99,7.93,2.48,6.41,5.08-10.31,7.56-20.56,15.25-29.56,24.36,2.13.09,11.25-4.96,8.5.38-3.68,2.16-7.44,4.25-11.32,6.03-1.36.62-6.29,3.04-7.35,3.03-1.52-.02-1.98-1.45-2.04-2.79-.13-2.84.44-8.81.77-11.82.24-2.21.44-7.88,3.71-4.82l1.08,5.74,11.82-20.3c-2.81-.36-6.76.48-9.42,0ZM35.86,31.39c-6.67-2.69-10.85-2.85-3.3-8.66,3.53-2.71,7.72-4.57,11.42-7.04l-9.04-10.52L12.97,27.51c3.15,1.47,8.45-.99,9.9,3.26l-14.34,23.5,27.32-22.88Z"/>
  </g>
</svg>