<?xml version="1.0" encoding="UTF-8"?>
<svg id="Layer_2" data-name="Layer 2" xmlns="http://www.w3.org/2000/svg" viewBox="0 0 54.99 29.39">
  <g id="Layer_1" data-name="Layer 1">
    <g>
      <path d="M22.39,16.09c-6.65,3.48-12.36,8.7-18.98,12.21-1.73.92-3.77,1.08-3-1.51.61-2.04,13.71-10.49,16.18-12.26-1.89-1.49-4.05-2.57-6.02-3.95C8.73,9.3.29,3.52.04,1.89-.32-.42,1.88-.2,3.39.41c2.54,1.03,9.63,5.63,12.21,7.36,2.4,1.61,4.55,3.62,6.92,5.26.6.78.46,2.34-.13,3.06Z"/>
      <path d="M33.58,14.35c-2.61-1.6-15.08-9.34-15.45-11.72-.65-4.2,4.84-.27,6.12.55,3.59,2.32,11.52,7.36,14.31,10.06,1.58,1.53,1.63,2.17,0,3.69l-17.55,12.36c-4.2.68-3.18-2.27-1.1-4.43l13.67-10.5Z"/>
      <path d="M49.45,14.35c-1.34-.5-2.64-1.46-3.81-2.29-2.9-2.06-7.38-4.84-9.86-7.13-.93-.85-2.18-2.35-.92-3.52,1.07-.99,2.63.32,3.56.88,4.07,2.45,11.47,7.46,14.9,10.58.5.46,1.65,1.34,1.67,2.01,0,.41-.23.72-.41,1.06-.71,1.35-8.97,6.8-10.83,8-1.11.72-6.12,4.07-6.83,4.27-1.78.5-2.83-1.63-1.13-3.37,3.4-3.47,10.03-6.33,13.28-9.61.3-.3.53-.32.39-.89Z"/>
    </g>
  </g>
</svg>