<?xml version="1.0" encoding="UTF-8"?>
<svg id="Layer_2" data-name="Layer 2" xmlns="http://www.w3.org/2000/svg" viewBox="0 0 36.1 23.39">
  <g id="Layer_1" data-name="Layer 1">
    <path d="M1.73.23c.36-.62,1.49.18,1.92.39,3.94,1.92,8.25,4.58,12.12,6.78,2.83,1.61,5.65,3.29,8.41,5.01l-1.18-6.55c0-.44.78-1.04,1.14-1.03.94.04,3.54,4.55,4.21,5.48,1.2,1.65,7.93,10.54,7.75,11.89s-2.99.71-4.05.74c-2.54.08-12.41.91-14.08.06-.35-.43-.21-.97.09-1.39.37-.51,5.01-3.67,4.7-4.13L.66,8.47c-.2-.1-.69-.65-.66-.78L1.73.23Z"/>
  </g>
</svg>