<?xml version="1.0" encoding="UTF-8"?>
<svg id="Layer_2" data-name="Layer 2" xmlns="http://www.w3.org/2000/svg" viewBox="0 0 72.58 26.3">
  <g id="Layer_1" data-name="Layer 1">
    <path d="M72.09,15.34c-6.37,2.65-12.54,6.33-18.85,9.02-2.72,1.16-9.83,4.43-7.09-1.55l12.74-7-16.43-1.48c-1.41.1-3.04-.19-4.4.02-5.61.84-8.2,9.64-15.73,7.56-5.73-1.58-6.12-8.98-12.91-7.4-2.08.48-7.43,5.1-8.87,4.09-1.26-1.66-.11-2.58,1.12-3.72,2.98-2.78,7.37-5.52,11.6-4.95,4.59.62,7.11,7.15,10.72,7.38,4.13.26,6.14-4.49,9.54-6.38,4-2.22,9.04-.56,13.37-.3,3.97.24,8.04.13,12,.74l-11.83-8.28c-1.18-4.41,1.51-3.18,4.09-1.88,6.05,3.06,13.95,7.07,19.53,10.75,1.45.95,2.58,1.42,1.41,3.39Z"/>
  </g>
</svg>