<?xml version="1.0" encoding="UTF-8"?>
<svg id="Layer_2" data-name="Layer 2" xmlns="http://www.w3.org/2000/svg" viewBox="0 0 56.78 50.12">
  <g id="Layer_1" data-name="Layer 1">
    <path d="M50.55,7.02l-18.82,14.95c7.41,5.39,5.71,23.28-3.97,24.83-10.63,1.7-10.42-9.83-7.04-16.64.76-1.52,3.8-5.23,4-6.34.12-.66-.04-.56-.57-.57-9.36-.22-16.74,12.47-19.93,19.96-.48,1.13-2.07,7.66-3.52,6.85-1.27-1.48-.51-3.93-.12-5.68,1.98-8.97,11.43-23.81,21.36-24.79,2.23-.22,4.36.37,6.44.17,5.17-4.72,10.64-9.15,16.45-13.09.52-.72-.67-.25-.94-.2-1.74.32-7.95,2.64-8.85,1.02-1.26-2.24,1.58-3.06,3.24-3.68,3.11-1.15,11.21-3.5,14.34-3.75,6.25-.5,3.97,3.45,2.53,7.33-1.13,3.04-3.54,9.3-5.07,11.91-1.04,1.76-3,1.89-3.53.01-.58-2.03,3.44-9.78,4-12.28ZM28.95,25.2c-4.09,2.25-11.04,17.23-3.59,18.3,8.36,1.2,10.06-15.07,3.59-18.3Z"/>
  </g>
</svg>