<?xml version="1.0" encoding="UTF-8"?>
<svg id="Layer_2" data-name="Layer 2" xmlns="http://www.w3.org/2000/svg" viewBox="0 0 42.89 50.06">
  <g id="Layer_1" data-name="Layer 1">
    <path d="M38.03,11.84c-1.55,1.78-2.28,4.59-3.43,6.72-2.81,5.24-6.04,9.57-10.85,13.15-6.18,4.59-14.65,7.24-19.47,13.39-.72.92-3.03,5.99-4.28,4.77.07-9.66,10.94-14.22,17.69-19.05,6.86-4.91,11.87-10.76,15.17-18.61-.4-.46-7.6,7.3-9.41,7.23-.79-.03-1.4-.67-1.31-1.49.23-2.16,10.87-10.61,12.33-13.36C35.98,3.82,38.84-.13,40.41,0c1.43.23,1.54,2.29,1.68,3.53.39,3.52.68,8.25.76,11.79.03,1.38.26,6.75-.74,7.42-.48.3-1.01.24-1.5-.01-1.37-.7-2.45-9.07-2.58-10.9Z"/>
  </g>
</svg>