<?xml version="1.0" encoding="UTF-8"?>
<svg id="Layer_2" data-name="Layer 2" xmlns="http://www.w3.org/2000/svg" viewBox="0 0 53.29 52.31">
  <g id="Layer_1" data-name="Layer 1">
    <path d="M14.42,36c-1.77,1.23-7.33,7.82-9.34,7.34-2.09-1.33-.7-3.16.49-4.57,2.41-2.85,10.42-10.26,13.46-12.37,1.8-1.25,3.41-1.15,3.54,1.28.15,2.67-.63,6.78-.73,9.63-.05,1.5,1.22,6.08-1.7,4.98l-2.03-7.02c-4.3,13.06,5.81,16.89,16.25,10.9C55.57,33.98,54.88-3.23,25.51,4.43,13.02,7.69,3.17,19.9,1.84,32.64H.63c-1.17-.43-.38-5.57-.18-6.75C3.56,8.07,30.85-8.27,46.35,4.63c13.06,10.86,5.72,32.67-5.9,41.7-11.86,9.22-30.43,9.22-26.03-10.33Z"/>
  </g>
</svg>