<?xml version="1.0" encoding="UTF-8"?>
<svg id="Layer_3" data-name="Layer 3" xmlns="http://www.w3.org/2000/svg" viewBox="0 0 46.6 49.18">
  <g id="Layer_1" data-name="Layer 1">
    <path d="M14.47,49.17c-1.25-3.08,1.91-2.29,3.88-2.85,10.04-2.83,18.59-12.57,22.2-22.11,2.62-6.92,4.59-19.42-5.68-20.36-13.31-1.22-23.5,17.26-26.35,28.2.31.58.64,0,.92-.19,1.22-.85,5.8-4.53,6.74-4.73.52-.11,1.05.15,1.52.36,1.15,1.8-2.65,5.09-3.81,6.23-2.66,2.6-5.63,4.99-8.21,7.69-.54.17-.99.07-1.43-.28-.82-.65-3.4-10.77-3.73-12.51-.44-2.3-1.56-6.84,2.3-5.25l2.76,7.38C8.76,16.53,20.31-1.85,37.08.15c5.75.69,9.04,5.78,9.45,11.23,1.24,16.43-14.47,38.36-32.07,37.79Z"/>
  </g>
</svg>