<?xml version="1.0" encoding="UTF-8"?>
<svg id="Layer_2" data-name="Layer 2" xmlns="http://www.w3.org/2000/svg" viewBox="0 0 56.35 59.5">
  <g id="Layer_1" data-name="Layer 1">
    <path d="M19.54,32.74c.07-.54,1.22-1.69-.38-.38-5.54,6.21-13.13,21.57.61,23.04,13.48,1.45,28.17-11.95,30.98-24.68C54.16,15.29,44.57-.22,27.47,5.23c-7.98,2.54-12.53,7.82-19.05,10.85-.59.28-1.45.9-2,.24-1.22-1.91,4.94-6.3,6.36-7.33,10.78-7.84,27.22-14.45,37.6-2.29,13.08,15.33,2.8,38.94-12.86,48.07-21.28,12.4-40.91-1.17-23.14-22.58-.34-.32-4.92,2.97-5.66,3.38-1.33.74-7.67,4.34-8.7,2.86-.16-2.34,3.38-4.01,5.17-5.29,4.46-3.18,10.33-7.46,15-10.11.99-.56,3.07-2.14,4.08-1.1.41.58.46,1.26.48,1.94.15,4.04-.71,12.91-1.58,16.9-.73,3.34-3.61,2.12-3.61.08,0-2.47-.29-5.8,0-8.12Z"/>
  </g>
</svg>