<?xml version="1.0" encoding="UTF-8"?>
<svg id="Layer_3" data-name="Layer 3" xmlns="http://www.w3.org/2000/svg" viewBox="0 0 70.98 55.26">
  <g id="Layer_1" data-name="Layer 1">
    <path d="M67.74,19.92l-4.53-6.91c-1.45,12.49-.9,30.84-12.02,39.12-3.03,2.26-7.64,4.54-11.22,2.02-6.86-4.82,3.57-12.64.05-18.88-1.58-2.79-5.51-3.2-8.36-2.31-7.35,2.29-11.57,17.41-23.01,19.08-2.21.32-9.69-.2-8.53-3.72.54-1.65,4.47-.55,6-.66,13.4-1.02,15.94-21.36,30.23-19.43,7.93,1.07,10.26,7.12,8.14,14.22-.65,2.18-4.38,8.21.45,7.86,4.55-.33,8.64-7.69,9.89-11.56,2.5-7.73,3.09-17.33,3.04-25.39-1.3,1.65-5.9,8.29-8.31,6.84-1.64-1,.09-3.92.81-5.11,2.16-3.56,6.28-9.11,8.86-12.56,1.14-1.53,2.66-3.97,4.32-1.49l7.37,17.02c.52,2.21-1.43,2.93-3.15,1.83Z"/>
  </g>
</svg>