<?xml version="1.0" encoding="UTF-8"?>
<svg id="Layer_2" data-name="Layer 2" xmlns="http://www.w3.org/2000/svg" viewBox="0 0 52.34 55.95">
  <g id="Layer_1" data-name="Layer 1">
    <path d="M45.89,10.85c-3.08,2.1-6.15,4.29-9.03,6.66-1.14.94-8.47,7.35-8.64,8-.29,1.07,1.14,1.35,1.8,2.15,5.99,7.17,1.52,23.45-8.67,22.72-9.77-.7-5.64-16.15-1.3-20.87-.68-.33-2.11.46-2.84.86-8.38,4.57-11.72,16.92-14.86,25.29-4.02,2.15-1.78-7.57-1.23-9.63,2.36-8.98,8.4-17.97,17.63-20.77,1.25-.38,4.19-.65,4.84-1.07.96-.62,4.98-5.51,6.43-6.86,4.41-4.1,9.31-7.73,14.03-11.44-1.45-.05-3.31.43-4.72.82-3.26.91-8.9,4.2-11.38,4.53-2.32.31-3.11-1.41-1.63-3.13,1.77-2.06,11.5-5.8,14.41-6.64,12.08-3.48,13.2-.9,10.23,10.6-.61,2.38-2.46,9.53-3.51,11.26-.91,1.52-3.21,1.75-3.95.1-.9-2,2.79-12.04,2.39-12.54ZM20.15,46.19c.68.56,2.18.58,3.04.49,6.34-.65,8.78-15.15,1.83-17.66-3.01,2.86-8.89,13.86-4.87,17.17Z"/>
  </g>
</svg>