<?xml version="1.0" encoding="UTF-8"?>
<svg id="Layer_3" data-name="Layer 3" xmlns="http://www.w3.org/2000/svg" viewBox="0 0 71.26 51.52">
  <g id="Layer_1" data-name="Layer 1">
    <path d="M66.02,5.99c.56.54,1.1,1.42,1.78,2.09.88.87,4.11,2.67,3.35,4.06-.89,1.63-11.53,7.2-13.59,8.94-1.13.49-3.06.66-2.87-.99.22-1.86,6.12-5.17,7.67-6.37.31-.24.67,0,.46-.84-12.17.36-27.3.02-34.71,11.44,8.03,3.51,12.16,12.2,8.56,20.56-3.08,7.17-12.32,9.57-16.51,1.98-3.42-6.2-1.36-14.53,2.04-20.32-10.5-2.17-15.52,7.09-18.19,15.59-.45,1.44-1.45,7.8-2.71,8.02-2.18.37-1.03-6.85-.77-8.18,2.22-11.63,10.77-22.84,23.91-19.31,2.45-3.49,5.63-6.91,9.33-9.11,8.43-5,20.29-4.51,29.78-4l-3.71-3.12c-.71-1.44-3.33-2.92-2.79-4.64.14-.46,1.12-1.7,1.57-1.78,1.02-.19,6.33,4.96,7.39,5.98ZM24.55,46.35c3.88,3.79,8.75-.99,9.44-5.27.76-4.74-1.07-8.8-4.76-11.78-.75-.61-2.7-2.38-3.42-1.19-2.9,4.78-5.96,13.64-1.26,18.24Z"/>
  </g>
</svg>