<?xml version="1.0" encoding="UTF-8"?>
<svg id="Layer_3" data-name="Layer 3" xmlns="http://www.w3.org/2000/svg" viewBox="0 0 29.57 59.37">
  <g id="Layer_1" data-name="Layer 1">
    <path d="M.87,59.37c-1.06-.33-.24-2.31-.08-3.03,1.52-6.6,4.02-14.01,5.98-20.6,1.43-4.82,2.98-9.64,4.61-14.4L1.95,25.41c-.67.15-1.84-.82-1.94-1.35-.27-1.43,5.62-6.91,6.78-8.25C8.85,13.42,19.88.21,21.98,0s2.11,4.25,2.53,5.83c1.01,3.79,5.69,18.36,5,21.17-.53.67-1.39.65-2.12.35-.9-.38-7.26-6.27-7.86-5.64l-5.88,36.39c-.09.34-.74,1.27-.95,1.27H.87Z"/>
  </g>
</svg>