<?xml version="1.0" encoding="UTF-8"?>
<svg id="Layer_2" data-name="Layer 2" xmlns="http://www.w3.org/2000/svg" viewBox="0 0 57.46 56.14">
  <g id="Layer_1" data-name="Layer 1">
    <path d="M26.61,43.81c.57.84,2.1,1.27,3.03,1.58,6.64,2.19,12.85,1.53,19.49-.11-1.27-1.34-4.12-.61-4.37-3.08.23-.57.66-.85,1.25-.96,1.29-.25,8.45.44,9.88.81.86.23,1.66.82,1.57,1.8-.12,1.37-4.37,6.44-5.54,7.72-1.03,1.12-5.36,6.18-6.67,4.06-1.43-1.79,4.92-6.74,4.26-7.39-7.01,2.96-15.15,3.05-22.25.28-1.39-.54-4.74-2.72-5.65-2.87-1.75-.27-7.49,1.37-9.95,1.48s-8.62-.47-10.64-1.91c-.76-.54-1.48-1.1-.61-1.98.99-.96,5.08.61,6.83.59,1.29-.01,3.75-.29,5.12-.45,1.93-.22,3.88-.64,5.77-1.07C6.44,30.16,11.46,3.74,29.11.34c9.63-1.86,19.41,4.02,20.34,14.16,1.31,14.27-10.08,25.43-22.84,29.31ZM30.22,4.77c-14.78,1.9-18.74,26-8.61,35.36,1.2,1.11,1.57.77,2.99.37,8.94-2.51,17.94-9.76,19.99-19.14,2.16-9.85-4.01-17.92-14.37-16.59Z"/>
  </g>
</svg>