<?xml version="1.0" encoding="UTF-8"?>
<svg id="Layer_2" data-name="Layer 2" xmlns="http://www.w3.org/2000/svg" viewBox="0 0 38.35 66.47">
  <g id="Layer_1" data-name="Layer 1">
    <path d="M36.39.48c1.03,1.01-.86,4.3-1.44,5.58-2.95,6.57-7.12,12.94-10.29,19.43l12.35-.74c.97.15,1.54,1,1.26,1.95-8.08,9.98-16,20.18-24.49,29.81-1.12,1.26-8.92,10-9.61,9.95-.49-.39-.8-.84-.74-1.5.21-2.46,2.54-8.95,3.42-11.69,1.7-5.3,3.61-10.57,6.01-15.59-1.29.03-2.59-.06-3.87,0-1.7.09-7.56,1.29-8.59.28-.33-.33-.43-1.01-.38-1.47L11.09,4.72c.38-.74,1.21-1.48,2.03-1.67,5.39-1.26,12.68-1.61,18.34-2.34,1.33-.17,3.78-1.37,4.94-.24ZM32.05,4.09l-17.47,2.65-.57.54-9.28,26.91c-.08.63-.03.56.55.56,2.28-.04,10.01-1.45,11.47-.41.23.16.67.83.73,1.1.33,1.62-6.9,15.74-6.84,18.86l21.04-24.93c.14-.87-.3-.47-.83-.48-3.09-.03-6.74.5-9.92.48l-1.33-1.78,12.46-23.5Z"/>
  </g>
</svg>