<?xml version="1.0" encoding="UTF-8"?>
<svg id="Layer_2" data-name="Layer 2" xmlns="http://www.w3.org/2000/svg" viewBox="0 0 37.02 71.34">
  <g id="Layer_1" data-name="Layer 1">
    <path d="M28.4,31.39l8.49-1.11c.83.85-2.83,5.61-3.54,6.61-6.46,9.07-14,17.66-20.61,26.66-.97,1.32-4.21,6.82-4.84,7.34-1.09.9-2.82.43-2.33-1.19l7.31-30.55c-.46-.34-9.63,1.63-11.26,1.51-1.28-.1-2.07-.93-1.38-2.14L26.94,2.41c1.6-2.08,4.32-4.19,4.45-.01l-2.98,28.98ZM22.21,35.36c-.48-.48-.48-1.59-.43-2.26.3-4.24,2.04-9.82,2.81-14.2.46-2.63,1.05-5.58,1.04-8.19L6.99,36c2.12.8,9.84-3.29,10.34.02l-5.54,23.05,18.46-24.19c-1.93-.36-6.51,1.99-8.03.47Z"/>
  </g>
</svg>