<?xml version="1.0" encoding="UTF-8"?>
<svg id="Layer_3" data-name="Layer 3" xmlns="http://www.w3.org/2000/svg" viewBox="0 0 49.6 60.47">
  <g id="Layer_1" data-name="Layer 1">
    <path d="M41.46,51.95l-3.51-1.46c-1.66-2.73,3.54-2.91,5.16-2.97,2.32-.08,7.49-.67,6.31,2.98-.31.97-2.92,5.65-3.6,6.74-.88,1.41-2.13,3.48-3.99,3.21-.36-2.19.64-3.69,1.47-5.54C28.92,63.23,1.75,58.23.12,38.84-1.11,24.18,7.39,7,21.53,1.56c28.22-10.86,38.41,38.28,9.75,43.37-13.2,2.35-21-10.47-14.12-21.53,5.87-9.44,19.26-7.12,17.62,4.7-.93,6.75-12.11,7.54-10.34-.37l.97-.54c1.4-.15,1.07.98,1.63,1.69,1.62,2.05,4.91-.33,4.2-3.43-1.75-7.73-10.42-3.15-12.33,2.66-2.66,8.1,3.45,14.13,11.55,13.03,21.92-2.97,17.17-42.73-6.53-36.07C7.92,9.59-4.55,38.58,10.33,50.05c8.54,6.58,21.7,6.45,31.13,1.9Z"/>
  </g>
</svg>