<?xml version="1.0" encoding="UTF-8"?>
<svg id="Layer_3" data-name="Layer 3" xmlns="http://www.w3.org/2000/svg" viewBox="0 0 38.22 44.6">
  <g id="Layer_1" data-name="Layer 1">
    <path d="M33.88,10.55c-1.38,1.58-2.04,4.09-3.05,5.99-2.5,4.67-5.39,8.53-9.67,11.71-5.5,4.09-13.05,6.45-17.35,11.93-.65.82-2.7,5.33-3.81,4.25.06-8.61,9.75-12.67,15.76-16.97s10.58-9.59,13.52-16.58c-.36-.41-6.77,6.5-8.39,6.45-.7-.02-1.25-.59-1.17-1.33.21-1.93,9.68-9.46,10.99-11.91C32.06,3.41,34.61-.12,36,0c1.27.21,1.37,2.04,1.49,3.15.34,3.14.6,7.35.68,10.51.03,1.23.23,6.01-.66,6.61-.43.26-.9.21-1.34-.01-1.22-.62-2.18-8.08-2.3-9.71Z"/>
  </g>
</svg>