<?xml version="1.0" encoding="UTF-8"?>
<svg id="Layer_3" data-name="Layer 3" xmlns="http://www.w3.org/2000/svg" viewBox="0 0 112.75 27.19">
  <g id="Layer_1" data-name="Layer 1">
    <path d="M102.74,7.35c-1.73-1.91-6.6-4.55-3.31-7.21.26-.19.52-.15.81-.12,1.87.19,7.22,5.15,8.97,6.58,1.49,1.22,4.66,2.24,3.13,4.26-3.17,1.57-6.05,3.96-9.12,5.65-1.8.99-4.73,3.07-6.58,1.55-1.57-2.58,4.86-4.76,5.73-6.65h-40.06c-2.33,0-9.69,6.6-12.03,8.28-4.94,3.54-13.03,10.23-19.15,6.29-6.6-4.26,1.07-12.19,1.45-17.01.07-.91-.1-1.56-1-1.93-1.23-.33-4.76,1.36-5.92,2.07-6.01,3.69-13.6,17.98-22.15,11.29-1.67-1.3-5.59-6.38-2.13-7.52,1.1,0,2.97,4.25,5.91,4.47,3.74.27,9.17-6.34,11.99-8.71C23.13,5.41,30.72.05,35.73,3.65s-3.6,14.9-2.23,17.73,7.04-.55,8.8-1.55c3.46-1.96,16.06-12.48,18.53-12.48h41.91Z"/>
  </g>
</svg>