<?xml version="1.0" encoding="UTF-8"?>
<svg id="Layer_2" data-name="Layer 2" xmlns="http://www.w3.org/2000/svg" viewBox="0 0 25.91 57.1">
  <g id="Layer_1" data-name="Layer 1">
    <path d="M16.7,11.47l-.73,3.88c-.82,13.03-.89,26.09-.73,39.14.17,2.11-2.8,3.59-4.05,1.82-.45-.65-.71-3.42-.76-4.38-.72-13.07.58-26.68,1.11-39.72-.88.65-1.67,1.75-2.36,2.62-1.29,1.65-4.71,7.26-5.94,8.09-.74.49-1.63.81-2.53.71-1.31-1.01-.47-2.73.07-3.91C3.73,13.2,9.5,6.94,13.37.93c.92-.98,2.33-1.25,3.48-.51.94.61,5.55,12.03,6.31,14,.63,1.65,3.08,7.32,2.71,8.59-.27.95-1.39,1.2-2.26.94-1.65-.49-6.28-10.35-6.92-12.49Z"/>
  </g>
</svg>