<?xml version="1.0" encoding="UTF-8"?>
<svg id="Layer_3" data-name="Layer 3" xmlns="http://www.w3.org/2000/svg" viewBox="0 0 30.6 18.08">
  <g id="Layer_1" data-name="Layer 1">
    <path d="M10.72,5.55l.18.73c5.03.33,10.44.39,15.41,1.21,1.02.17,4.41.58,4.29,1.87-.15,1.67-2.5,1.97-3.83,2.09-3.69.34-10.09-.18-14.04-.35-.94-.04-1.81-.44-2.75-.38,1.56,2.07,8.81,4.34,5.27,7.33-1.25.33-4.95-1.78-6.26-2.47C7.77,14.94.2,10.71.04,10.09c-.11-.42.02-.76.31-1.06L13.65.16c.97-.43,2.05.01,2.17,1.07-.11,1.18-3.86,3.92-5.11,4.32Z"/>
  </g>
</svg>