<?xml version="1.0" encoding="UTF-8"?>
<svg id="Layer_3" data-name="Layer 3" xmlns="http://www.w3.org/2000/svg" viewBox="0 0 78.61 36.87">
  <g id="Layer_1" data-name="Layer 1">
    <path d="M71.55,20.66c-1.13,1.26-3.16,1.03-3.19-.83-.05-3.09,3.3-8.5,3.12-11.98-8.22,6.38-15.98,13.37-24.22,19.71-2.52,1.94-9.14,7.49-11.77,8.17-10.37,2.69-1.83-15.03-1.86-19.39L2.59,36.82c-3.96.41-2.7-1.81-.72-3.68,8.77-8.28,22.5-14.95,32.13-22.52,2.38-1,4.88.19,4.81,2.93-.11,4.42-3.63,11.77-4.3,16.79-.07.53-.49.89.4.77L69.44,4.71c-3.51-.73-10.45,1.85-13.43-.23-1.26-.88-1.2-2.55.39-2.82,5.38-.26,10.79-1.42,16.16-1.58,2.42-.07,6.7-.67,5.96,2.98l-6.98,17.6Z"/>
  </g>
</svg>