<?xml version="1.0" encoding="UTF-8"?>
<svg id="Layer_2" data-name="Layer 2" xmlns="http://www.w3.org/2000/svg" viewBox="0 0 51.68 49.34">
  <g id="Layer_1" data-name="Layer 1">
    <path d="M42.46,8.35c-8.97,2.31-17.12,6.96-24.93,11.81l10.16,1.66c1.13.62,2.71,1.68,2.03,3.14-.36.77-6.76,6.84-7.94,7.95-3.81,3.6-7.94,7.21-12.01,10.51-1.39,1.12-7.21,6.05-8.47,5.93l-.97-.53c-1.24-1.55,1.35-3.61,2.42-4.66,2.84-2.74,6.45-5.24,9.43-7.92,3.88-3.49,7.58-7.19,11.44-10.72.15-.83-.36-.51-.91-.55-2.61-.17-5.58-.12-8.13-.37-2.09-.2-6.8-.35-4.26-3.51.83-1.03,4.06-3.01,5.35-3.88,6.84-4.59,14.41-8.2,21.97-11.44l-10.24-1.75c-1.42-.62-1.53-2.8-.35-3.67,1.35-.98,8.33.46,10.41.62,3.81.3,8.06.23,11.81.74,2.31.32,3.01.67,1.82,2.93-1.03,1.96-3.96,5.24-5.51,7.04-.9,1.05-6.85,7.54-7.47,7.7l-1.12-.22c-.33-.16-.64-.34-.78-.72-.86-2.47,4.87-7.98,6.22-10.09Z"/>
  </g>
</svg>