<?xml version="1.0" encoding="UTF-8"?>
<svg id="Layer_2" data-name="Layer 2" xmlns="http://www.w3.org/2000/svg" viewBox="0 0 58.02 38.51">
  <g id="Layer_1" data-name="Layer 1">
    <path d="M38.07,24.95c-1.13-.99,1.82-5.91,2.55-6.98-3.63.05-7.28-.08-10.91-.01-3.07.06-9.74.02-12.28.63-5.47,1.32-7.65,8.75-8.19,13.6-.21,1.87.85,5.63-1.67,6.08-2.03.36-5.18.24-7.23.16-1.04-1.45.58-13.16,1.18-15.45C6.53,3.6,24.77,9.16,39.81,7.72c.5-.05.75.12,1.18.28.63-.63-6.63-6.88-2.59-7.98.75-.2,3.09,1.17,3.95,1.64,5,2.69,9.67,6.63,14.88,9.12.93.57,1.13,1.76.16,2.34l-16.54,11.52-2.76.31Z"/>
  </g>
</svg>