<?xml version="1.0" encoding="UTF-8"?>
<svg id="Layer_2" data-name="Layer 2" xmlns="http://www.w3.org/2000/svg" viewBox="0 0 52.75 64.54">
  <g id="Layer_1" data-name="Layer 1">
    <path d="M52.75.36l-1.97,31.33-1.04.32c-1.88-.49-2.51-7.19-3.1-9.11-.12-.38.09-.92-.47-.81-6.2,17.43-19.81,34.92-37.84,40.99-1.18.4-8.77,2.93-8.3.22,2.24-1.78,5.52-2.38,8.24-3.6,11.83-5.3,21.59-15.28,27.62-26.65,1.16-2.19,4.77-9.46,5.11-11.51.04-.21.1-.61-.19-.55-1.15,1.09-2.46,2.36-3.7,3.31-1.29.98-6.66,5.34-5.79,1.23L50.06.71c.76-.88,1.72-.87,2.69-.34Z"/>
  </g>
</svg>