<?xml version="1.0" encoding="UTF-8"?>
<svg id="Layer_3" data-name="Layer 3" xmlns="http://www.w3.org/2000/svg" viewBox="0 0 49.85 50.54">
  <g id="Layer_1" data-name="Layer 1">
    <path d="M45.41,9.53l-19.96,26.38c-4.1,3.32-4.68-6.98-6.62-8.65-1.87,3.36-4.11,6.6-6.35,9.72-2.67,3.72-6.18,8.91-9.34,12.08-.56.56-3.08,2.68-3.14.57-.05-1.53,4.75-9.94,5.84-11.91,3.95-7.15,8.48-14.02,12.41-21.19.41-.4.89-.44,1.42-.29,1.76.49,3.66,8.93,4.67,10.81l.75.21L42.08,4.91l-5.07-.46c-1.22-.51-1.58-1.61-.44-2.47,1.54-1.16,8.65-.96,10.88-1.99,1.74.14,2.43.97,2.41,2.68-.04,2.45-.97,8.93-1.67,11.29-.2.68-.46,1.86-1.17,2.16-.76.32-1.6-.1-1.6-.87v-5.72Z"/>
  </g>
</svg>