<?xml version="1.0" encoding="UTF-8"?>
<svg id="Layer_3" data-name="Layer 3" xmlns="http://www.w3.org/2000/svg" viewBox="0 0 32.53 75.87">
  <g id="Layer_1" data-name="Layer 1">
    <path d="M32.08.94c.24.23.41.9.43,1.24.27,3.27-3.71,10.61-4.76,14.02-5.57,2.21-1.63-5.96-1.05-8.44.11-.47.72-.7-.26-.63C15.92,15.98,3.67,27.77,6.7,42.95c4.33-3.43,10.62-6.55,16.25-4.99,10.57,2.93,6.8,15.52-2.57,17-4.21.67-7.65-.31-11.21-2.49-.63-.39-3.27-2.74-3.58-2.51-3.97,7.78-2.02,16.89,5.65,21.49.97.58,5.27,2.15,5.46,2.39.44.55.03,1.69-.65,1.92-1.6.54-5.61-1.16-7.1-2.01C.95,69.24-1.87,59.46,1.24,50.97c.47-1.29,2.02-3.43,2.13-4.55.12-1.24-.97-3.49-1.12-5.12C.88,25.88,12.4,13.14,23.67,4.37c-1.56-.37-7.82.73-8.44-1.17-.5-1.53.67-2.41,2.01-2.68,2.35-.47,13.33-1.04,14.84.43ZM17.31,41.57c-1.7.23-3.58,1.09-5.05,1.97-.64.38-3,2.08-3.38,2.54-.94,1.17,2.17,3.05,3.1,3.59,3.56,2.07,7.51,2.7,11.08.24,2.33-1.6,3.33-4.12,1.52-6.56-1.66-2.23-4.74-2.12-7.27-1.77Z"/>
  </g>
</svg>