<?xml version="1.0" encoding="UTF-8"?>
<svg id="Layer_3" data-name="Layer 3" xmlns="http://www.w3.org/2000/svg" viewBox="0 0 73.12 27.98">
  <g id="Layer_1" data-name="Layer 1">
    <path d="M63.42,14.29c.1-.61-.5-.34-.91-.37-5.62-.31-11.29-.14-16.91-.66-3.86,1.59-11.79,10.8-15.58,10.65-5.69-.22-.1-8.82-.37-11.47-5.64.93-10.53,3.45-15.3,6.49-2.22,1.41-11.91,9.16-13.51,9.03-2.51-.82,1.31-4.04,2.39-5.01,5.75-5.13,16.89-11.91,24.37-13.66,12.39-2.9,3.2,8.72,4.07,9.79l13.27-9.83c6.38.59,12.79,1.41,19.21,1.33l-9.98-4.6c-1.73-1.06-6.71-3.22-3.71-5.58,2.4-1.88,7.69,3.1,10.04,4.42,3.83,2.15,7.91,4.02,11.93,5.79,1.48,1.48.3,2.99-1.14,3.97-2.71,1.85-7.41,4.19-10.45,5.79-1.31.69-8.12,4.29-8.88,4.09-.92-.24-1.7-1.16-1.41-2.17.31-1.11,10.81-7.81,12.87-8.02Z"/>
  </g>
</svg>