<?xml version="1.0" encoding="UTF-8"?>
<svg id="Layer_3" data-name="Layer 3" xmlns="http://www.w3.org/2000/svg" viewBox="0 0 46.14 64.62">
  <g id="Layer_1" data-name="Layer 1">
    <path d="M18.29,32.91c.15-.21,4.12-1.18,4.96-1.5,5.49-2.09,9.79-4.89,11.8-10.72,3.94-11.47-6.75-19.84-17.35-15.13C4.46,11.43.25,31.66,6.88,43.7c6.06,10.99,18.95,11.11,29.83,8.38l-6.65-3.5c-2.42-4.57,6.19-1.09,8.21-.45,1.22.38,6.7,2.16,7.29,2.68,1.67,1.46-.71,3.81-1.84,5.15-1.69,1.99-8.68,9.32-11.17,8.64-2.44-1.17.6-4.14,1.76-5.49,1.1-1.27,2.57-2.27,3.51-3.68-15.22,3.66-31.31,1.94-36.37-15.14C-2.97,25.3,2.69,6.86,18.16,1.21c13.54-4.95,25.28,5.94,21.32,19.84-1.97,6.92-10.09,14.25-17.42,14.28-1.22,0-5.1-.5-3.77-2.42Z"/>
  </g>
</svg>