<?xml version="1.0" encoding="UTF-8"?>
<svg id="Layer_2" data-name="Layer 2" xmlns="http://www.w3.org/2000/svg" viewBox="0 0 83.98 62.64">
  <g id="Layer_1" data-name="Layer 1">
    <g>
      <path d="M69.26,50.72c.51,1.25-3.01,3.19-3.28,2-.3-1.33,2.21-2.29,3.28-2Z"/>
      <g>
        <path d="M49.5.16c8.47-.95,16.66,2.38,20.92,9.85,1.91,3.36,2.18,6.45,3.63,9.85,2.39,5.61,7.28,9.11,8.95,15.47,7.22,27.36-27.74,36.97-41.28,15.75l-.54.17c-6.66,8.06-19.21,12.66-29.35,9.32-4.19-1.38-8.36-4.74-10.16-8.8-7.54-17.06,11.85-33.67,28.22-29.65.64-.46.27-2.59.45-3.57C32.01,9.8,40.55,1.17,49.5.16ZM65.82,6.4C60.75,1.61,51.7.25,45.32,2.9c-7.86,3.27-13.31,10.69-13.97,19.18,11.28,3.44,17.07,12.98,12.77,24.46-1.06,2.82-2.5,2.23,0,5.45,14.93,19.24,45.97,6.06,36.88-17.92-1.77-4.68-5.82-8.09-7.79-12.26-2.63-5.57-2.32-10.62-7.38-15.41ZM22.16,23.12c-27.11,2.78-28.31,42.01,1.97,36.6,27.07-4.83,26.26-39.5-1.97-36.6Z"/>
        <path d="M10.57,36.5c-.82-.65.76-3.08,1.63-2.91.72.14.39.51.2.91-.17.36-1.23,2.48-1.83,2Z"/>
      </g>
    </g>
  </g>
</svg>