<?xml version="1.0" encoding="UTF-8"?>
<svg id="Layer_2" data-name="Layer 2" xmlns="http://www.w3.org/2000/svg" viewBox="0 0 87.96 74.84">
  <g id="Layer_1" data-name="Layer 1">
    <g>
      <path d="M72.83,36.36c-11.35,12.83-39.63,37.18-56.9,38.42-8.91.64-17.53-4.18-15.69-14.23,1.63-8.91,17.98-17.24,25.1-22.29s13.92-10.82,20.67-16.51C54.99,14.18,68.31-1.1,80.83.06c5.56.52,7.52,6.12,7.07,11.07-.71,7.73-9.92,19.42-15.06,25.23ZM77.66,1.63c-6.63.62-12.47,5.46-17.43,9.55-10.92,9.02-20.93,19-32.47,27.31-6.55,4.72-20.36,11.93-24.26,18.39-5.29,8.76.75,16.4,10.26,16.49,13.62.12,35.8-16.66,45.75-25.73,7.54-6.87,27.26-27.33,26.98-37.53-.16-5.98-2.63-9.06-8.83-8.48Z"/>
      <rect x="34.94" y="39.29" width="3.55" height="1.35" transform="translate(-15.52 25.24) rotate(-31.68)"/>
      <path d="M62.79,20.11c-.3-.85,1.22-3.07,2-2.91,1.7.35-1.61,3.35-2,2.91Z"/>
      <path d="M23.05,51.82c-.56-.49,2.6-3.13,2.91-1.63.2.93-2.1,1.93-2.91,1.63Z"/>
    </g>
  </g>
</svg>