<?xml version="1.0" encoding="UTF-8"?>
<svg id="Layer_3" data-name="Layer 3" xmlns="http://www.w3.org/2000/svg" viewBox="0 0 80.36 87.15">
  <g id="Layer_1" data-name="Layer 1">
    <g>
      <path d="M52.19,7.26c4.88-1.12,10.04-.12,10.91,5.49,6.95-3.07,11.69,4.64,9.84,10.94,7.7-.21,8.99,9.84,5.78,15.07-.79,1.28-3.11,2.47-3.42,3.17-.29.66.4,2.71.11,4.1-.9,4.34-5.47,7.45-9.85,6.74-2.04-.33-2.68-1.73-5.01-1.19-6.54,1.5-11.11,12.2-11.68,18.22-.38,4.09.23,9.65-.37,13.48-.82,5.23-13.54,4.02-17.12,2.94-1.45-.43-3.19-1.02-3.48-2.72.21-8.43.97-16.49-2.07-24.55-.42-1.12-2.6-5.97-3.17-6.67-.93-1.11-1.72-.03-2.79.17-3.88.71-7.54.36-10.14-2.91-.76-.96-1.78-3.59-2.21-3.98-.67-.6-2.85-.48-4.38-1.82-5.03-4.42-3.67-14.01,1.62-17.71-2.99-7.31,1.57-16.11,10.19-15.14.3-2.32,2.36-4.59,4.68-4.97.95-.16,2.84.12,3.39-.25.4-.27.43-1.3.76-1.79,2.92-4.23,10.82-5.44,14.4-1.36,4.81-4.33,13.16-2,14.01,4.74ZM37.24,4.72c-1.39-5.21-9.92-3.58-12.21.03-1.02,1.6-.09,1.96-.24,2.69-.26,1.27-2.03-.03-2.72-.14-4.17-.63-5.67,2.97-6.91,6.17-1.31-1.83-3.65-1.15-5.4-.29-3.95,1.94-5.24,7.67-4.08,11.61.19.64,1.12,1.19.9,1.95-4.95,2.71-6.94,10.2-3.42,14.79,2.19,2.85,3.93,1.72,5.62,2.76.66.41,1.08,3.47,2.73,4.93,3.13,2.78,6.97,2.73,10.45.59,2.34-1.44,2.72-3.48,4.55-5.29,3.61,2.07,7.93,1.99,10.7-1.34.9-1.08,1.31-2.48,2.38-3.45,2.43,3.22,5.18,5.26,9.4,3.93.72-.23,1.46-1.27,2.22-.68.63.49.24,4.7,3.25,6.66.57.37,2.17,1.14,2.8,1.25,1.9.31,3.16-1.41,4.54-1.31.91.06,2.53,1.51,3.76,1.73,3.88.73,8.01-2.48,8.4-6.4.17-1.74-.62-2.52-1.02-4.08,5.35-.86,6.78-7.53,5.29-12.03-1.2-3.62-3.71-3.33-6.95-3.99-.54-.74.84-3.43.74-4.82-.24-3.2-3.23-6.74-6.61-6.74-1.5,0-2.35,1.56-3.21,1.33-1.06-2.04-.63-3.78-2.77-5.26-2.61-1.81-5.3-1.23-8,0-1.16-1.24-.7-3.02-1.65-4.56-1.78-2.9-6.79-3.87-9.63-2-.99.65-1.53,2.22-2.92,1.98ZM56.54,51.76c-1.99.12-3.33-1.22-4.56-2.55-3.85,4-6.53,8.74-8.91,13.69-.69,1.44-1.34,1.07-1.5-.37-.5-4.39-.3-9.77.07-14.18.19-2.25,1.58-3.57-.81-5.13-1.89-1.23-1.89.58-3.28,1.77-1.08.92-2.91,2.13-4.35,2.03.46,3.22.59,7.12.38,10.4-.04.63-.43,4.19-.93,4.17-1.42-1.33-1.23-3.64-1.82-5.46-.91-2.84-2.48-6.42-5.1-8.02-.44,1.24-2.49,1.86-2.24,2.92,5.7,8.33,6.3,17.71,6.06,27.49-.04,1.46-1.1,4.1.16,5.33,2.22,2.17,14.44,2.55,16.62.17,1.53-1.67.93-10.13,1.09-12.76.38-6.47,1.84-11.52,6.18-16.42.85-.96,1.89-1.57,2.69-2.33.31-.29.33-.25.23-.76ZM43.06,59.05c1.69-2.17,2.97-4.66,4.58-6.9,1.87-2.6,4.77-3.72,2.13-7.28-2.24,1.03-4.03.34-6.34.34-.51,4.56-1.32,9.28-.37,13.84ZM32.09,47.41l-5.07-.76,3.34,4.49,1.4,4.25c.66-.14.68-.72.74-1.26.22-1.95-.54-4.64-.41-6.73Z"/>
      <path d="M26.66,25.13c1.82.05,2.32-.94,4.19-.37,5.51,1.67,2.08,13.31-4.05,10.62-.55-.24-1.02-.39-.88-1.12,4.33,1.62,7.97-2.88,5.9-6.82-2.14-4.09-5.1,1.11-5.9.25.15-3.65-3.17-10.08-6.72-5.07-.6.85-.34,2.49-2.03,2.16,1.35-7.17,8.68-7.15,9.49.35Z"/>
      <path d="M48.17,19.3c10.51-1.05,6.45,13.53-2.2,12.04l.23-1.13c4.54.26,8.43-4,6.25-8.45-1.75-3.57-4.24,0-5.2-.27s-.21-1.6-.34-2.21c-.98-4.57-5.72-4.98-5.68.02h-1.07c-.76-6.76,7.66-6.26,8.02-.02Z"/>
      <path d="M61.28,28.43c-.35-2.68,3.41-.76,4.39.17,2.28,2.14,2.22,7.52-1.1,8.41-.94.25-2.22.51-2.92-.37,1.25-1.61,2.25.3,3.64-1.82,2.05-3.12-.47-6.71-4.01-6.38Z"/>
      <path d="M13.89,32.43c-4.32,2.33-1.19,7.61,3.28,6.57l-.16,1.11-.44.29c-4.51.8-7.69-3.84-5.17-7.72.73-1.13,2.13-2.29,2.49-.25Z"/>
      <path d="M33.49,12.11c.36.32.53,1.3-.1,1.38-.86.1-1.51-1.57-3.28,0-.67.59-.65,1.78-2,1.46-.21-2.49,3.68-4.32,5.38-2.83Z"/>
    </g>
  </g>
</svg>