<?xml version="1.0" encoding="UTF-8"?>
<svg id="Layer_2" data-name="Layer 2" xmlns="http://www.w3.org/2000/svg" viewBox="0 0 66.03 110.13">
  <g id="Layer_1" data-name="Layer 1">
    <path d="M52.07,99.5c-13.22,12.95-39.93,16.18-49.28-2.41-10.75-21.38,12.55-32.43,19.68-48.87,1.94-4.48,3.56-10.42,4.46-15.22.54-2.91-.16-2.69-.26-5-.19-4.69,4.75-12.15,8.41-14.92,1.16-.88,4.8-2.63,5.24-3.51,1.3-2.64-1.67-7.46,1.65-8.92,1.38-.6,3.59-1.02,4.94-.19,4.81,2.98-1.45,5.4.73,8.74,1.01,1.54,3.02,1.64,4.43,2.49,5.4,3.26,9.75,9.57,10.29,15.98.63,7.47,2.67,14.64,3.3,22.19,1.4,16.77-1,37.28-13.61,49.63ZM53.29,29.09v-6.2c0-.19-.58-.76-.36-1.27l1.45.19,6.2,5.64c-.47-4.28-2.29-8.56-5.46-11.48-2.53-2.33-9.74-4.85-9.81-8.37-.04-1.97,3.67-4.82.34-5.86-6.2-1.93-2.8,5.66-3.94,8.49-.57,1.42-2.78,2.04-4,2.93-5.25,3.81-8.75,8.56-9.58,15.21.43.6,1.17-.4,1.47-.71,2.16-2.22,4.21-4.86,6.37-7.11.71.46.4.58.37,1.09-.14,3.2-1.07,7.2,1.81,9.47.69,0,2.69-4.15,3.05-4.96.49-1.12,1.78-6.17,2.78-5.96.63.13,5.1,8.79,8.55,9.33l.75-.4ZM50.21,29.8c-3.06-1.93-4.07-4.16-6.4-6.72-2.06,8.28-8.16,15.35-9.12,1.64l-.72-.18-5.31,6.53c-1.35,7.47-3.24,15.48-7.03,22.14-7.35,12.93-25.21,22.57-18.66,40.41,6.52,17.77,30.13,18.78,43.72,8.35,18.97-14.56,20.04-40.83,15.95-62.56-.43-2.31-1.38-7.89-2.27-9.76-.27-.57-5.16-5.29-5.63-4.75.06,4.28.48,8.06-4.53,4.9Z"/>
  </g>
</svg>