<?xml version="1.0" encoding="UTF-8"?>
<svg id="Layer_2" data-name="Layer 2" xmlns="http://www.w3.org/2000/svg" viewBox="0 0 77.11 101.32">
  <g id="Layer_1" data-name="Layer 1">
    <path d="M64,13.87l9.18-5.95c1.34-.27,4.04-.93,3.94.99-.29,5.61-13.01,10.93-16.76,14.62l6.1-1.55c1.59-.19,4.89-.38,3.83,2-1.74,3.9-17.95,6.39-17.95,7.57,2.77,2.64,4.01,5.63,3.63,9.47-.82,8.41-16.88,24.75-22.83,31.3-7.09,7.81-17.77,20.7-26.03,26.64-11.52,8.28-6-7.55-4.15-12.9,4.37-12.65,11.87-27.13,18.26-38.98,2.5-4.63,7.27-14.33,10.9-17.54,4.09-3.62,8.73-3.16,13.66-1.83.43-2.99-2.15-14.42.26-16.06.93-.64,1.55-.04,2.09.78l1.66,6.53c1.76-4.31,3.12-9.46,5.21-13.56.63-1.24,1.54-3.34,3.17-3.05,1.89.99.33,5.75.1,7.42-.05.39-.4,1.26.26,1.17C59.81,8.49,65.75-.28,68.54,0c1.1.32,2.22,1.76,2.32,2.84.19,2.2-7.33,10.57-6.86,11.02ZM51.24,28.45c3.04-3.93,6.14-7.88,9.04-11.91,1.18-1.63,8.99-12.61,9.03-13.42.17-3.96-3.83.58-4.77,1.63-2.32,2.57-4.14,5.62-6.15,8.43l-7.14,15.27ZM57.8,4.39c-.98-.09-1.4.98-1.78,1.68-1.85,3.43-6.96,17.53-7.3,21.14-.08.83-.24,1.72.51,2.32,4.22-7.81,7.57-16.26,8.56-25.15ZM75.66,9.14c-.64-.03-1.28-.04-1.92.08-4.23.79-13.6,9.95-16.42,13.5-.33.41-2.32,2.92-2.07,3.19,2.89-1.82,5.28-4.37,8.04-6.36,4.34-3.12,10.2-5.13,12.37-10.41ZM47.22,13.14l-1.03.61c-.04,3.69.33,7.74.81,11.4.08.62-.09,1.06.58.38,1.6-1.62-.04-10.04-.36-12.39ZM68.73,23.35c-5.7.02-11.5,2.9-16.04,6.19,4.66-1.14,10.27-2.34,14.46-4.68.57-.32,1.78-.68,1.58-1.51ZM49.73,50.64c4.56-6.52,8.12-13.88-.2-19.21-5.82-3.72-14.27-5.35-18.29,1.64-.14,1.5,6.39,3.77,6.14,5.03-.13.66-.56.39-.97.25-1.34-.47-6.04-4.14-6.67-3.7l-5.09,9.61c.25,1.08,6.49,2.98,5.07,4.59l-5.84-3.12-7.25,13.52c.98.89,7.22,4.16,7.25,5.1.01.4-.62.5-1.1.39-1.67-.4-4.52-3.6-6.17-4.07-.42-.12-.63-.24-.93.21l-6.33,13.75c-.1,1.02,4.11,2.03,3.96,3.76-1.85.16-3.04-1.66-4.73-2.19-1.39,4.12-3.67,8.2-5.01,12.32-.57,1.76-2.5,8.69-2.3,10.08.06.39.24.71.54.98.75.65,3.48-1.22,4.18-1.71.95-.68,6.83-6.02,6.93-6.58.05-1.24-5.04-3.34-3.98-4.51l5.47,3.12,12.75-13.15c.13-.81-.15-.42-.53-.54-2.23-.72-4.34-1.33-6.03-3.09-1.35-1.41-.21-1.42,1.07-.71,1.21.67,5.39,3.4,6.58,2.9l11.3-12.04c0-.38-5.75-2.9-6.68-3.52-.32-.21-1.41-.96-1.16-1.4.53-.72.92-.26,1.48-.02,1.24.54,6.35,3.85,7.2,3.62l7.88-9.95-.34-.4c-2.08-1.3-4.51-2.35-6.54-3.68-.4-.26-1.97-1.09-1.67-1.61.37-.66,1.03-.29,1.54-.08,1.31.55,7.73,4.82,8.44,4.41Z"/>
  </g>
</svg>