<?xml version="1.0" encoding="UTF-8"?>
<svg id="Layer_3" data-name="Layer 3" xmlns="http://www.w3.org/2000/svg" viewBox="0 0 68.62 92.67">
  <g id="Layer_1" data-name="Layer 1">
    <path d="M10.58,45.47c3.64-3.32,7.76-6.25,11.22-9.74,5.48-5.51,9.45-12.39,15-17.84l.11-.47c-1.51-2.8-3.01-6.57-1.97-9.75.84-2.56,2.74-2.05,3.67-2.9,1.18-1.09.68-3.28,3.36-4.3,7.21-2.73,13.38,6.67,13.04,13.05,7.43,2.82,12.54,8.37,13.44,16.45,1,9-2.49,14.09-4.03,22.1-1.29,6.66-.14,13.34-2.27,19.96-3.07,9.54-13.97,16.99-23.89,17.1-4.82.05-9.91-2.21-14.29.5-2.24,1.39-3.6,4.43-6.87,2.27-.07-4.39,1.2-8.25-3.44-10.78-6.31-3.45-11.79-5.28-13.28-13.61-1.83-10.28,3.3-15.76,10.21-22.06ZM44.25,1.5c-6.65.65-4.48,9.9-.91,12.77l3.1-.74c-.74-4.01-2.52-7.88-2.19-12.02ZM53.73,13.53c-.57-5.09-3.03-10.05-8.02-12.03.03,1.14-.09,2.29.03,3.43.09.9,1.72,7.9,1.96,8.25.53.76,4.88-.01,6.03.35ZM37.73,16.42c.75.54,3.01-.99,3.61-1.64-2.11-2.62-1.95-5.85-3.45-8.53-3.72,2.34-1.44,6.98-.15,10.16ZM18.37,58.55c-.15-1.84.11-3.8,0-5.65h1.09c.15,3.82.34,7.58,1.28,11.3l1.27,2.55c.6-2,1.09-4.05,1.82-6.02.78-2.11,2.99-6.19,3.26-8.04.51-3.34-.62-7-.34-10.37h1.09c.18,1.94.19,4.05.41,5.97.04.38.15,1.71.68,1.68,3.99-7.19,9.93-13.32,12.24-21.48l.89-.39c1.31,1.47-6.28,15.05-8.38,16.59-.08.97.17.34.64.28,2.45-.33,4.47-1.54,6.82-1.93.32,0,.24.78.18.91-.51,1.14-8,2.1-9.46,3.3-1.73,1.42-5.1,9.11-6.02,11.48-3.04,7.9-5.18,16.58-5.18,25.08l-1.4,5.89c3.64-6.35,9.1-11.49,13.24-17.38,4.55-6.47,2.79-6.47,3.4-13.76.07-.83.21-3.22,1.41-2.57-.55,2.83-.49,5.75.18,8.56l18.77-23.69c-.36,2.68-2.79,5.53-4.44,7.77-3.43,4.66-7.47,8.86-10.87,13.56,2.87.17,6.39-2.42,8.94-2.73.86-.11.51.43.52,1.07l-10.76,3.65-8.55,11.87c-.07.96.15.37.62.26,4.96-1.19,10.46-3.07,15.32-4,1.94-.37,2.99.25.82,1.19-5.06,2.2-12.59,2.62-17.98,4.26-1,1.29-2.26,2.42-3.28,3.67s-4.96,6.52-5.35,7.75c-.08.24-.07.62.17.54,4.23-4.11,8.58-2.38,13.48-2.17,9.06.39,15.72-1.99,21.71-8.94,7.14-8.27,4.53-16.62,6.22-26.22,1.29-7.33,4.97-13,4.37-21.18-.49-6.66-6.27-15.5-13.34-16.21-17.5-1.76-19.83,9.64-29.7,20.24-7.12,7.65-21.69,15.32-22.62,26.59-.6,7.29,2.55,13.18,9,16.55,3.76,1.97,8.57,2.66,7.79,8.44,1.89-1.86.88-5.36,1.1-7.83.22-2.63,2.25-8.93,1.73-10.85-.9-3.36-2.49-5.33-2.83-9.57Z"/>
  </g>
</svg>