<?xml version="1.0" encoding="UTF-8"?>
<svg id="Layer_2" data-name="Layer 2" xmlns="http://www.w3.org/2000/svg" viewBox="0 0 71.06 106.92">
  <g id="Layer_1" data-name="Layer 1">
    <g>
      <path d="M67.47,10.62c5.93.34,2.97,7.39,1.92,10.85-4.47,14.64-10.79,30.52-17.17,44.44-4.5,9.83-14.58,31.5-23.05,37.46C17.82,111.36-.57,105.4.01,90.26c.44-11.33,16.79-30.44,23.5-40.3,7.63-11.23,14.44-23.83,22.15-34.71,3.16-4.45,6.96-8.92,12.99-8.33,1.02-3.36,2.94-6.56,6.78-6.88,5.61-.47,5.42,3.66,3.66,7.67-.5,1.15-1.3,1.81-1.63,2.92ZM54.35,28.49c2.42-4.24,7.12-12.69,6.11-17.6-.85-4.14-5.36-2.95-7.91-1.15-5.25,3.7-11.88,16.74-15.69,22.59-7.99,12.27-16.47,24.09-24.73,36.15-6.84,9.97-18.35,25.44-3.47,34.68,10.87,6.75,20.89-.24,27.02-9.3,11.35-16.76,21.36-41.28,28.15-60.44,1.53-4.33,5.84-15.35,5.86-19.33.02-3.34-4.87-1.34-5.13-2.55.12-.97,1.21-1.16,1.77-1.87,1.66-2.12,4.57-8.3-.16-8.49-3.44-.14-5.29,3.71-6.37,6.34,3.35,2.43,2.11,6.78,1.12,10.23-1.11,3.87-2.98,7.79-5.46,10.95l-1.1-.2Z"/>
      <path d="M11.69,87.91l30.8-49.94c.89.62.29.64.12,1.2-1.16,3.96-5.2,10-7.44,13.71-7,11.59-14.98,22.6-21.87,34.27l-1.61.75Z"/>
      <path d="M18.62,96.66c-.69-.76,3.04-3.85,3.63-4.56,3.76-4.48,6.96-9.58,9.68-14.75.73-1.38,4.83-11.27,5.46-11.3.37-.02.76,1.03.38,1.46-4.7,9.29-9.68,21.67-17.88,28.42-.41.34-.59.88-1.27.73Z"/>
      <rect x="33.56" y="46.39" width="26.41" height="1.47" transform="translate(-16.35 67.71) rotate(-63.28)"/>
      <path d="M47.05,29.21l6.37-11.29c.72.5.48.71.31,1.37-.45,1.76-3.56,7.78-4.85,9.02-.57.54-.91,1.06-1.83.9Z"/>
    </g>
  </g>
</svg>