<?xml version="1.0" encoding="UTF-8"?>
<svg id="Layer_3" data-name="Layer 3" xmlns="http://www.w3.org/2000/svg" viewBox="0 0 65.71 137.34">
  <g id="Layer_1" data-name="Layer 1">
    <g>
      <path d="M53.65,51.92c2.45-1.99,7.34-10.97,10.42-11.3,1.61-.17,1.74.5,1.59,1.96-.29,2.8-3.84,10.64-4.9,14.08-7.97,25.87-11,60.48-40.09,71.46-2.07,6.19-.64,11.17-9.23,8.48-5.93-1.85-1.96-5.85-.48-9.78-2.73-2.07-5.12-4.73-6.82-7.72-12.98-22.89,8.36-60.7,11.92-84.55.28-1.85-.02-12.49,3.69-10.54,2.57,4.61,2.36,10.17,2.55,15.33.02.44-.27,1.36.36,1.27,1.18-2.21,1.09-4.65,2.01-6.92.76-1.88,2.57-3.51,3.25-5.13.61-1.46.74-3.33,1.6-4.96.79-1.5,2.13-2.34,2.77-3.43.53-.9.65-2.19,1.16-3.21,1.49-2.99,6.51-10.93,8.92-12.95.9-.75,4.23-3.17,5.18-3.57,5.49-2.29,7.85,4.83,8.27,9.01.15,1.52-.11,3.13.05,4.69.38,3.62,1.76,5.18,1.37,9.48-.25,2.86-.13,5.03-.33,7.69-.15,1.94-1.31,3.7-1.44,5.15-.1,1.13.39,2.06.36,3.21-.06,2.28-1.54,4.4-1.81,6.24s.08,4.06-.38,5.99ZM51.83,2.34c-5.59-2.79-9.44,5.54-9.81,10.17,1.09.31,5.19.97,5.8.25l4.01-10.41ZM52.41,5.28c-1.14.36-3.37,7.21-3.15,8.53.19,1.12,3.64,2.57,4.58,1.65.97-1.31.61-8.11-.26-9.6-.31-.53-.49-.8-1.17-.59ZM42.35,6.72c-.78-.19-.81.44-1.17.83-.61.67-3.43,4.8-2.84,5.36l2.01-.36,2-5.84ZM39.43,14.01c-2.36-1.5-5.82,4.58-5.43,5.95l2.87,1.34,2.56-7.29ZM47.05,14.41c-.24-.39-5.06-.85-5.69-.31-.42,1.23-3.52,6.33-2.86,7.22,1.35.15,5.84,1.86,6.68.99.58-.61,2.24-7.3,1.87-7.89ZM48.79,16.25c-.87.3-2,5.47-2.03,6.63.21.61,4.39,1.5,5.18,1.26,1.71-.52,1.8-5.94.45-7.24-.76-.74-2.63-.98-3.6-.65ZM54.38,17.28v5.65c0,.87-2.09,2.93,1.09,3.1.34-2.19.82-5.74,0-7.83-.22-.57-.3-1.05-1.09-.92ZM32.76,22.1c-1.52.45-3.22,5.08-3.48,6.63l3.76,1.68,2.76-7.47c-.07-1.22-2.17-1.1-3.05-.84ZM38.24,22.82c-.98.28-3.75,6.05-3.5,6.96.27.99,6.67,2.46,7.26,2.25.79-.29,2.65-6.85,2.48-7.57-.28-1.16-5.26-1.93-6.24-1.64ZM52.15,25.71c-1.49-.27-4.44-1.77-5.79-.96-.72,1.33-2.74,6.77-2.01,7.86.22.33,4.18,1.38,4.8,1.42,3.71.26,2.66-5.86,3-8.32ZM16.78,126.6c3.9-13.55,4.41-28,4.07-42.07s-.24-26.27,0-40.07c.11-6.21.37-12.99-2.02-18.79-1.44,3.57-1.12,7.6-1.75,11.37-3.74,22.67-24.32,60.05-11.35,81.55,2.28,3.78,6.1,8.72,11.04,8ZM52.23,35.11c.14.2,1.53.48,1.91.37,1.41-.42,2.31-7.74.39-8.32-1.77-.53-1.12,2.43-1.28,3.39-.15.91-1.35,4.09-1.02,4.56ZM29.46,30.52c-2.24.13-4.73,5.71-4.22,7.31.21.64,3.52,1.41,4.17,1.34,1.68-.18,1.99-6.28,3.45-7.48-.03-.47-2.82-1.19-3.4-1.16ZM41.93,33.37c-.21-.34-6.67-1.82-7.6-1.33-.93.45-3.09,6.88-2.5,7.79,1.58.24,6.32,2.38,7.61,1.71.67-.35,2.95-7.47,2.5-8.17ZM50.32,35.56c-1.66-.36-5-2.06-6.51-1.33-1.34.65-1.43,5.3-2.5,6.65-.52,1.87,6.52,3.35,7.18,2.94.62-1.24,2.38-7.42,1.83-8.27ZM52.87,45.3c.89-.55,3.04-9.98-1.04-9.06l-1.78,8.15c.22.81,2.06,1.18,2.82.91ZM26.95,48.54l2.63-7.73c-.13-.62-4.06-1.27-4.76-1.13-1.38.27-2.9,6.31-2.47,7.62.69.86,3.76,2.24,4.59,1.24ZM31.64,41.06c-1.48.28-3.18,6.37-3.25,7.84.64,1.33,7.32,2.89,8.12,2.49,1.02-.52,2.39-6.55,2.52-7.98-.15-.46-6.78-2.46-7.4-2.34ZM34.93,117.41c13.71-13.48,17.67-38.14,22.91-56.02,1.86-6.36,4.32-12.56,6.02-18.95-.49-.64-6.58,7.41-7.06,8.06-5.19,7.05-9.69,14.82-14.87,21.95-4.85,6.68-18.93,22.65-19.98,29.96-.31,2.14-.11,4.74-.38,6.91-.72,5.87-1.84,11.6-3.27,17.32,6.1-1.2,12.23-4.9,16.64-9.24ZM45.91,54.02c.63-.66,2.71-7.84,2.11-8.69-1.56-.35-5.85-2.28-7.13-1.63-.52.26-2.61,6.52-2.75,7.48-.07.43-.08.84.17,1.22.45.67,6.89,2.36,7.6,1.62ZM51.1,55.56c.46-2.15,4.04-10.28-.9-9.5-1.29.2-.83,1.57-1.08,2.59-.48,1.89-1.01,3.75-1.61,5.59.18.8,2.78,1.26,3.6,1.32ZM21.94,49.55c-.27.97,0,4.49,0,5.83,0,.29-.72.8-.2,1.65.55.53,1.73,1.03,2.4.57l2.09-6.91c-.16-.86-4.02-2.12-4.3-1.14ZM28.02,50.87c-.75.24-2.66,6.63-2.28,7.25l8.24,2.39c.71-.43,2.29-6.33,2.01-7.51-.32-.47-7.21-2.37-7.97-2.13ZM45.22,55.61l-7.23-1.71c-.96.45-2.56,6.25-2.02,7.13.47.77,6.49,2.3,7.25,1.79,1.15-.77,2.7-6.15,2.01-7.21ZM44.9,63.94c.65.1.8.02,1.26-.38.91-.78,4.64-6.12,3.48-7.1l-2.89-.51-1.85,7.99ZM21.57,58.48v8.02c.59-.09.62-1.43.76-1.97.28-1.06,1.58-5.3.71-5.89l-1.48-.16ZM25.85,60c-.34.07-.72.26-.99.49-.61.54-2.06,6.55-1.68,7.11l7.88,2.34c1.04-.38,2.92-7.4,2.37-8.2-.51-.75-6.48-1.97-7.59-1.74ZM40.09,72.25c.8-1.24,3.4-6.47,2.83-7.58-.24-.46-5.45-1.99-6.31-2.11-.5-.07-1.12-.24-1.57.08-.19,1.53-2.48,7.02-1.83,7.98.45.67,6.17,2.05,6.89,1.63ZM30.59,71.33c-.56-.58-7.28-2.55-7.85-2.22-1.51,1.91-.77,3.28-.76,5.22,0,1.11-.69,2.19.05,3.38,1.29.34,5.8,2.09,6.78,1.48.59-1.61,3.07-6.54,1.78-7.87ZM39.07,74.15c.4-.67-5.43-2.35-6.19-2.02-.68.74-2.78,7.84-2.53,8.2l3.25.6c1.78-1.95,3.13-4.48,4.75-6.5.18-.23.44-.32.72-.27ZM22.66,97.12l5.83-15.5c-.02-1.48-5.53-2.4-6.92-2.72l1.09,18.22ZM27.4,89.46c.16-1.85,4.47-5.67,4.72-6.77.17-.71-1.67-1.74-2.35-.88-.44.56-2.33,5.59-2.58,6.54-.09.36-.46,1.2.2,1.11ZM18.66,128.1c-2.24,0-4.44.21-6.58-.58-.37,1.56-2.85,5.39-2,6.78.73,1.19,5.63,1.92,6.88,1.12.83-.53,1.98-7.03,1.7-7.32Z"/>
      <path d="M12.09,117.9c-1.11,1.3-1.77-4.18-1.82-4.56-1.19-10.59-.26-27.03,1.82-37.55.11-.58-.17-1.19.55-1.63.78.59.6,1.52.54,2.35-.12,1.87-.82,4.25-1.04,6.25-1.26,11.6-1.98,23.6-.05,35.13Z"/>
      <path d="M43.81,83.63c-2.78,8.83-7.57,17.32-12.82,24.9-1.54,2.22-3.7,5.36-5.41,7.35-.25.29-1.45,1.68-1.81,1.28-.2-.75.24-.99.53-1.47,2.9-4.89,7.25-9.63,10.33-14.82,3.15-5.3,4.86-10.64,7.58-15.75.31-.59.77-1.61,1.6-1.49Z"/>
    </g>
  </g>
</svg>