<?xml version="1.0" encoding="UTF-8"?>
<svg id="Layer_3" data-name="Layer 3" xmlns="http://www.w3.org/2000/svg" viewBox="0 0 46.52 114.52">
  <g id="Layer_1" data-name="Layer 1">
    <path d="M31.44,114.17l-.92.35c-1.15-.04-1.18-6.25-1.36-7.37-.32-1.89-1.01-4.8-1.94-6.45-2.23-3.95-8.1-5.43-11.58-8.11-7.36-5.67-9.44-16.28-3.52-23.81,2.91-3.7,6.95-5.24,11.3-6.56l.37-.74c.16-1.8-2.51-3.98-3.91-4.85-5.04-3.13-14.03-2.74-10.32-11.54-.08-.4-3.18-1.22-3.89-1.59-6.08-3.11-7.92-11.02-2.33-15.6C-2.79,19.18,5.99,5.91,15.4,15.02,17.91,9.33,18.93-1.22,27.57.12c6.35.98,5.8,7.87,7.82,12.23.96,2.07,2.53,2.13,3.71,3.58,2.29,2.79,1.61,9.84.26,13.03-.44,1.04-2.27,3.15-2.12,4.08,6.41,3.04,2.18,9.14-.88,12.98-.67.83-1.69,1.52-2.36,2.38-2.91,3.69-5.96,8.08-6.21,12.93h5.29c1.63,0,6.81,2.7,8.19,3.85,4.68,3.91,6.23,12.02,4.65,17.73-2.6,9.41-14.48,13.08-14.48,23.8v7.47ZM28.16,54.39c1.53-1.88,2.52-4.07,4.02-6,2.36-3.04,8.55-7.93,6.47-12.32-1.17-2.47-3.26-.67-3.23-2.64.02-1.09,2.7-4.63,3.21-6.67.54-2.15.95-6.3.19-8.36s-2.96-2.69-4.16-4.58c-2.86-4.5-1.49-13.31-9.56-12.25-2.26.3-3.64,1.82-4.65,3.73-1.55,2.92-5.48,13.79-5.43,16.84.11,5.78,3.18,5.62,3.87,9.27.33,1.74-.03,3.33.16,4.95.36,3.08,4.55,4.17,4.86,7.72l3.16,3.03-.52-13.88-6.04-10.36c.31-.5.93-.17,1.27.19,1.5,1.57,2.55,5.55,4.56,6.92.36-1.59-.33-3.57-.32-4.96,0-.73.34-1.4.35-2.13.02-3.34-.41-7.81-.04-10.97.08-.69.17-1.38,1.11-1.26v19.32l4.63-6.84,1.2-.44-5.76,9.74.66,12.13c1.97-1.5,3.52-5.54,5.27-6.94.65-.51,1.28-.21,1.28.19,0,.81-6.55,8.25-6.55,9.12v7.47ZM16.49,39.8c1.13-2.37,1.82-7.15.52-9.45-.46-.81-1.65-1.44-2.14-2.23-1.02-1.64-.99-6.15-.94-8.2.08-3.05,1.72-4-2.1-5.89-6.16-3.05-10.06,4.13-8.85,9.55.43,1.95,1.57,2.98,1.87,4.72-2.61,3.15-4.48,4.47-3.13,8.97,1.18,3.93,6.27,5.6,9.52,7.28.61,1.19-3.08,3.47-.04,6.58,1.8,1.84,4.58,2.02,6.84,3,.6.26,3.68,2.31,3.93,2.09l-6.04-13.46c-1.04-1.56-7.83-5.11-7.8-6.77.02-1.35,1.96.88,2.21,1.07,1.53,1.1,3.11,2.14,4.71,3.13l-6.13-17.77.84-1.18c2.31,5.89,4.18,12,6.01,18.06.16.51-.23.65.73.53ZM21.6,51.47c-1.04-2.25,1.37-5.31,1.03-7.38-.31-1.91-3.54-4.11-4.67-5.74.2,1.06-.92,2.02-1.03,2.81-.14.99,3.19,8.36,3.91,9.79.2.39-.19.69.76.52ZM24.51,45.64c-.78-.12-.58-.03-.81.46-.51,1.1-1.16,4.89-1.15,6.15,0,1.71,1.52,6.93,2.31,8.55.19.4.34,1.03.93.88,2.25-5.02,1.96-11.47-1.28-16.04ZM30.35,88.29c2.64.93,11.07-.3,12.71-2.42.64-.83,1.4-3.46,1.63-4.56,1.47-6.84-1.52-14.41-8.15-17.26-8.17-3.52-22.86.66-25.52,10.02.25.28,5.68.44,6.4.38,1.52-.12,3.41-1.3,4.53-.19-.04,1.38-9.91,1.61-11.28.92-2.01,7.27,2.41,14.54,8.61,18.16,1.3.75,3.14,1.28,4.47,2.09,3.45,2.11,6.01,5.53,6.22,9.64l2.01-5.83c.75-1.62,1.92-3.21,3.09-4.57.94-1.1,6-5.36,6.2-5.83.31-.72-.33-.54-.77-.4-3.19.99-6.64,1.9-9.95.99l-.21-1.12Z"/>
  </g>
</svg>