<?xml version="1.0" encoding="UTF-8"?>
<svg id="Layer_2" data-name="Layer 2" xmlns="http://www.w3.org/2000/svg" viewBox="0 0 86.36 88.1">
  <g id="Layer_1" data-name="Layer 1">
    <path d="M68.23,24.46c2.73-1.25,5.87-3.15,8.95-3.29,3.97-.17,6.83,1.11,8.2,4.91,3.62,9.95-3.33,24.81-11.72,30.61-9.8,6.78-19.16.73-24.66,15.07-1.65,4.31-2.21,9.02-3.84,13.29-.84,2.2-1.81,3.83-4.63,2.64-2.23-.94-4.67-11.95-5.68-14.74-1.84-5.09-4.13-10.14-9.39-12.48-2.33-1.04-4.95-1.22-7.37-2.11C6.39,54.06-.6,40.33.04,28.27c.81-15.24,13.47-8.72,22.07-4.17.71-2.56,1.96-5.18,4.22-6.73,3.74-2.56,8.59-.19,12,1.98.11-4.49,2.11-8,4.98-11.26,3.89-4.42,12-10.93,17.96-6.77,3.03,2.12,6.95,9.07,6.95,12.74v10.39ZM66.69,25.84c.08-7.12,1.11-14.27-3.41-20.31-4.79-6.41-9.84-4.47-15.28-.01-3.6,2.95-6.97,7.03-8.04,11.64-.92,3.95-.35,2.77,1.64,5.31,3.77,4.81,6.63,10.47,6.59,16.75-.01,2.4-.5,5.08-.75,7.48.53.09.49-.63.62-1.01,1.48-4.57,2.59-9.74,3.42-14.48l-4.77-8.74c.61-.74.51-.57,1.09,0,1.55,1.53,2.56,4.89,4.38,6.37.7-6.69,1.22-13.39,0-20.05,1.11-.1,1.29,1.16,1.51,1.95.6,2.16.74,4.56.68,6.8l2.19-4.01c.39-.12,1.02.25,1.09.56.11.51-2.85,4.8-3.19,5.9-.88,2.83-.59,7.27-1.18,10.3l8.01-5.47-.24,1.49-8.17,5.68-4.71,17.62c4.33-2.62,4.63-6.81,6.86-10.82,2.77-4.97,7.14-9.54,11.65-12.95ZM40.88,60.18c1.23-2.78,4.51-5.58,5.02-8.65.3-1.76-.06-3.61.09-5.38.87-10.07.76-17.71-7.65-24.8-8.28-6.98-14.15-3.06-15.95,6.66-2.3,12.39,1.54,26.96,14.1,32.01l3.3,2.71c-.78-1.85-.72-4.71-1.82-6.38-1.34-2.03-5.87-2.82-7.66-4.74-.18-.87.71-.59,1.19-.46,1.11.3,5.55,3.27,6.1,2.83-1.5-2.76-1.81-7.82-3.33-10.33-.76-1.26-3.66-3.1-4.87-4.61-.65-.81-2.27-2.54-1.09-3.28l5.28,5.46c-.55-4.04-1.72-8.51-1.85-12.57-.03-.91-.11-2.09,1.12-2.01l2.19,14.94c1.29-.26,4.05-7.85,5.46-6.56l-4.71,8.18,2.53,10.05,2.52-5.62,1.12-.21c.56.52-2.73,6.73-2.8,7.89-.09,1.56,1.49,3.14.99,4.69l.71.18ZM21.12,25.26c-3.38-2.05-7.24-3.88-11.14-4.71C-.84,18.24,1.08,30.87,2.72,37.66c2.76,11.49,10.45,19.12,22.23,21.15l5.37,2.83-4.17-8.04-8.23-2.17c-.14-.94.15-.75.9-.72,1.84.08,4.21.98,6.02,1.46.15-.71-.16-.98-.53-1.48-.67-.92-5.5-5.67-6.42-6.34-2.51-1.8-6.58-2.39-9.09-4.4-.17-.87.7-.58,1.19-.46,1.52.4,3.62,1.5,5.12,2.17.29.13.76.63.98.11l-9.11-13.86c-.26-.67.45-.67.86-.5,1.04.44,8.59,13.13,10.45,15.34,1.14,1.35,2.43,2.69,3.99,3.57-.89-2.9-1.64-6.23-1.83-9.28-.25-4,.64-7.83.67-11.79ZM53.28,46.88c-.5,3.96.37,8.87,0,12.94l5.31-8c.63-2.62-.29-6.08.16-8.59.11-.63.39-1.02,1.09-.91v7.66c1.17-1.25,5.01-4.58,5.63-5.85.81-1.66.49-8.29.93-8.73h1.09s-.18,6.56-.18,6.56l8.38-10.58c.29-.58.88-.05.92.2.23,1.61-7.15,9.87-8.38,11.66l2.72.17c1.4-.12,3-.72,4.38-.73.72,0,.59.05.55.74-2.55,1.33-6.31.57-8.74,1.31-.39.12-5.19,5.06-5.85,5.8-.31.34-.55.85-.73,1.28h7.66c.11.7-.28.98-.91,1.09-2,.36-6.4-.58-7.95.35l-6.45,9.32c.21.5.68.04.98-.11,7.16-3.78,14.95-3.02,21.08-8.45,4.65-4.12,8.53-12.08,9.55-18.15,1.5-8.99-1.27-16.01-11.66-12.02-7.38,2.83-18.58,15.11-19.59,23.06ZM51.82,61.83c.57-2.75,0-9.84,0-13.12,0-.11.46-.4.37-.72-.1-.4-.49-.23-.74-.02-.45.38-3.03,3.6-3.43,4.22-1.64,2.53-1.95,8.57-2.24,11.76-.35,3.75-.72,8.36-.67,12.1,0,.48-.03,2.26.52,2.37.47-2.26,1.13-4.49,1.92-6.65.95-2.59,3.85-7.83,4.28-9.93ZM41.98,86.43c1.36-.69,1.69-3.16,1.81-4.56.44-4.99-.03-10.53.37-15.67.26-3.34,1.03-6.66,1.09-10.03-1.62,1.8-4.25,5.01-4.39,7.49-.09,1.63.82,3.8,1,5.56.55,5.6.73,11.63.12,17.21ZM40.88,85.7c.52-2.01,0-3.83-.01-5.64-.05-6.47.89-14.12-4.72-18.61l-6.2-3.82,10.93,28.07Z"/>
  </g>
</svg>