<?xml version="1.0" encoding="UTF-8"?>
<svg id="Layer_2" data-name="Layer 2" xmlns="http://www.w3.org/2000/svg" viewBox="0 0 55.37 120.93">
  <g id="Layer_1" data-name="Layer 1">
    <g>
      <path d="M25.84,114.98c-16.56,14.47-29.01.27-25.12-18.38,2.66-12.74,10.86-26.4,15.31-39.01,4.32-12.24,7.19-32.14,15.15-41.72,1.23-1.48,8.85-7.78,10.43-8.53.87-.42,1.9-.3,2.53-.75C45.53,5.61,46.84-.16,49.93,0c4.51,2.07-.88,6.1-.46,8.85.25,1.66,2.27,3.82,3.04,5.36,4.26,8.53,2.97,17,1.15,25.97-2.35,11.5-5.64,24.05-8.66,35.45-3.68,13.85-8.03,29.63-19.16,39.36ZM51.58,15.32c-1.03-2.3-4.61-5.21-3.74-7.91.55-1.69,3.5-4.06,1.74-5.93-2.18,1.54-2.68,3.8-3.9,5.94-1.41,2.47-3.85,4.28-2.46,7.53,1.92.43,3.02-2.71,4.52-2.56,1.02.1,3.25,3.51,3.85,2.93ZM43.56,8.03l-1.43.57-1.85,1.97c.94.53,3.8-2.07,3.28-2.55ZM41.38,11.68c-8.85.53-13.36,11.34-15.77,18.68-3.14,9.56-5.16,19.35-8.65,28.9C12.02,72.77-1.09,94.31,1.81,108.29c2.57,12.41,13.08,13.89,22.24,6.54s14.21-20.91,17.51-32.07c3.91-13.23,7.8-28.77,10.58-42.28,1.19-5.77,3.59-18.08-.55-22.79-.5-.57-3.24-3.09-3.83-3.09-4.09,2.9-7.12,3.34-6.38-2.93Z"/>
      <path d="M36.27,24.8l-7.47,27.34c-5.74,18.4-14.08,35.89-19.11,54.53l-1.12.88c-1.29-1.5,11.22-33.06,12.76-37.36,5.33-14.85,9.71-29.94,13.81-45.17l1.12-.21Z"/>
      <path d="M16.96,113.02c-.08-.63.05-1.14.28-1.72.82-2.03,4.25-5.85,5.61-8.24,1.51-2.65,2.93-5.82,4.12-8.64,4.07-9.69,6.41-20.01,9.85-29.88.68.47.49.81.4,1.46-.22,1.75-1.33,5.04-1.86,6.92-3.12,11.1-7.11,23.31-13.15,33.14-1.41,2.29-3.34,5.16-5.25,6.96Z"/>
      <path d="M45.02,31c-.37,5.52-1.84,11.29-3.16,16.7-.98,4.05-1.92,8.26-3.05,12.26-.18.62-.29,1.05-1.07.93.45-4.61,2.06-8.99,3.1-13.48s1.9-9.26,2.89-13.88c.14-.64.33-2.81,1.29-2.53Z"/>
    </g>
  </g>
</svg>