<?xml version="1.0" encoding="UTF-8"?>
<svg id="Layer_2" data-name="Layer 2" xmlns="http://www.w3.org/2000/svg" viewBox="0 0 62.53 108.12">
  <g id="Layer_1" data-name="Layer 1">
    <g>
      <path d="M35.04,3.88c1.83,1.85,1.99,4.31,2.87,5.33.71.84,2.42.74,3.43,1.31,3.56,2.02,5.75,9.66,5.72,13.52-.04,5.16-3.59,8.82-3.14,13.97,5.33-1.99,8.22-5.41,14.4-4.74,8.07.88,2.74,11.69-1.1,14.94-1.34,1.13-2.91,1.71-4.19,3.1-1.56,1.68-1.98,3.88-3.82,5.29-4.65,3.58-10.14.94-15.25,4.07-1.08.66-5.3,4.43-4.56,5.71.19.32,4.17,2.42,5.05,3.15,5.52,4.57,6.04,13.33,2.48,19.26-4.96,8.26-15.03,7.14-19.33,14.21-.69,1.14-1.51,4.1-1.94,4.62-.82,1.01-1.53.27-1.51-.83.07-3.23,1.37-4.53.26-8.47-.92-3.24-5.19-5.41-7.32-7.99-5.7-6.92-4.25-16.67,2.75-22.05,3.55-2.73,7.96-2.77,12.2-3.47-1.37-2.95-2.81-6.01-5.46-8.03-4.01-3.07-9.29-3.1-11.06-8.99-.41-1.36-.28-3.22-1.02-4.45-.79-1.3-2.83-2.14-3.68-4.34-1.57-4.05-1.28-12.23,4.36-12.57,8.36-.5,10.51,8.6,17.41,11.2,1.3-2.05.41-5.82-.97-7.77-2.83-3.98-7.83-3.27-9.59-9.37C8.08,6.82,24.38-6.91,35.04,3.88ZM36.63,9.58c-6.01-15.14-24.83-6.87-23.69,7.84.65,8.32,6.05,6.58,9.45,11.05.79,1.04,1.5,2.45,1.85,3.72,2.97-2.65,2.44-6.02,3.02-9.55.23-1.43,1.31-4.56,1.31-5.57,0-.72-.6-1.61-.69-2.55-.07-.73-.14-3.38.18-3.84l1.28-.35c.05,1.27-.06,2.56,0,3.83.02.41-.24,1,.36.9.99-3.07,3.96-4.85,6.93-5.47ZM28.24,50.6c.15,1.7,0,3.72,0,5.47,0,.37-.94.76.36.55,3.16-11.91,5.8-23.96,8.05-36.07l1.07-.02-3.64,18.96c1.94.17,3.03-3.77,4.73-2l-5.03,4.08-4.44,16.52c2.06-2.77,3.57-5.97,5.68-8.72,2.26-2.93,6.79-6.31,7.65-9.88.25-1.03-.35-3.17-.12-4.83.55-3.86,2.97-6.58,3.04-11.36.1-6.77-5.65-16.97-13.06-10.43-4.92,4.34-3.1,11.72-4.84,16.77-1.43,4.16-4.61,4.61-2.65,10.31,1.34,3.89,2.81,6.14,3.2,10.65ZM25.33,62.81c1.99-1.84,1.38-4.7,1.46-7.1.02-.71.39-1.38.38-2.17-.05-3.43-1.84-13.03-4.86-14.86-1.95-1.18-3.56-1.51-5.53-3.22-2.76-2.39-4.42-5.84-8.22-7.09C.33,25.64-.02,35.67,3.51,40.33c.88,1.16,1.95,1.45,2.55,2.91.57,1.37.46,2.64.83,3.91,1.71,5.88,8.26,6.08,12.06,9.81,2.09,2.05,3.13,4.83,4.17,7.49.17.43-.28.69.73.54.75-5.12-.57-10.28-2.75-14.93-1.48-1.29-8.54-3.36-9.22-5-.09-.23-.22-.83.12-.85l7.3,3.64c.25.08.27-.35.18-.54-.55-1.19-3.4-3.54-4.36-4.75-.86-1.08-4.46-5.94-4.39-6.91,0-.31.74-.25.92-.19.37.12,3.85,5.49,4.57,6.38,1.22,1.51,2.99,2.98,4.15,4.6,3.28,4.59,5.35,10.72,4.96,16.37ZM56.91,46.64c3.27-3.15,7.51-12.29-.42-12.19-2.5.03-10.85,3.89-12.37,5.78-1.01,1.25-1.67,3.16-2.77,4.52-2.28,2.83-4.76,4.49-7.07,7.88-.78,1.15-8.05,12.56-7.5,13.09,1.89-.56,2.67-3.16,3.86-4.71,6.14-8.04,12.8-14.26,20.94-20.25l1.45-.19c.08.67-.34,1.16-.76,1.6-2.15,2.29-6.65,4.93-9.25,7.15-1.56,1.34-2.87,2.99-4.57,4.18,1.25.41,4.02-1.32,4.93-1.27,1.28.08-.32,1.39-.92,1.63-3.21,1.31-6.78,1.23-8.38,5.28,3.76-2.88,9.35-.69,13.01-2.84,2.64-1.55,3.31-4.63,5.2-6.47,1.21-1.18,3.37-2,4.62-3.21ZM24.96,81.04c3.02.75,6.18.99,9.31.74.75-.06,3.17-.27,3.41-.97-.35-17.8-28.96-19.88-32.47-2.17-.82,4.14-.06,4.61,3.72,6.23l6.55,1.83c-.01,1.37-5.74-.06-6.55-.37-1.14-.44-2.18-1.68-3.29-1.45,1.85,6.8,11.4,8.62,10.58,16.58.78.42,1.64-1.55,2.17-2.02,4.05-3.52,9.54-4.03,13.67-7.47,2.69-2.24,5.12-5.88,5.29-9.47-4.14.49-8.14,1.33-12.17-.34l-.22-1.12Z"/>
      <path d="M22.77,16.88c-.99,1.18-1.91-4.36-1.82-4.74,1.94-.81,2.05,4.46,1.82,4.74Z"/>
    </g>
  </g>
</svg>