<?xml version="1.0" encoding="UTF-8"?>
<svg id="Layer_3" data-name="Layer 3" xmlns="http://www.w3.org/2000/svg" viewBox="0 0 66.68 98.65">
  <g id="Layer_1" data-name="Layer 1">
    <path d="M57.89,17.75c-.78.5-.93,2.56-1.04,3.51-3.59,28.98-12.72,66.76-45.17,75.49-1.84.49-10.18,2.43-11.39,1.75-.59-.43-.13-.58.09-1.02,4.66-9.26,8.8-18.78,13.58-27.98,9.62-18.5,21.05-37.59,37.37-50.85l-4.37,1.28c-1.46-1.09,2.16-4.79,3.1-5.47,2.14-1.56,4.92-1.51,7.47-1.46.18-3.77,1.99-11.03,5.75-12.67,2.15-.94,3.16.13,3.36,2.29.49,5.15-3.53,8.25-6.87,11.37.54,1.78,2.76,9.16.44,9.91s-2.66-4.57-2.32-6.15ZM58.63,13.01c.39.4,2.92-2.31,3.29-2.72,2.08-2.32,4.83-5.97,2.35-8.94-4.11,2.35-4.81,7.43-5.64,11.66ZM54.25,14.48c-2.28-.09-4.68,1.5-5.46,3.64l5.46-3.64ZM53.52,27.96c1.16-3.96,2.97-7.8,2.74-12.03-7.48,6.33-14.8,12.97-20.74,20.82-9.98,13.18-18.46,29.07-25.69,43.94-2.02,4.15-5.15,9.98-6.69,14.09-.17.45-.39.83-.29,1.35,3.57-1.96,7.1-4.09,10.05-6.94l.11-.47c-3.8-4.87-1.1-11.66,5.34-11.55,1.56.03,4.12,1.98,5.1,1.1,1.48-1.34-1.9-2.13-2.93-3.27-4.56-5,.55-12.93,7.26-10.18,1.12.46,2.56,1.75,3.49,1.98,1.29.32,1.5-1.23.74-1.85-.45-.37-1.84-.62-2.73-1.28-4-2.95-3.21-9.03.78-11.6,3.23-2.08,7.42-.72,10.52.92l1.26-2.07c-5.71.32-9.48-6.82-5.3-10.95,3.4-3.37,7.15-1.67,10.6.37.36.21.21.62.71,0,.38-.46.59-1.27.92-1.81-9.1.32-6.61-11.12-.12-12.26,2.12-.37,3.14.91,4.85,1.68ZM59.72,22.13c0-1.46.08-2.98-.22-4.42-.1-.45-.29-1.73-.87-1.77.33,1.47.21,3.04.4,4.51.05.39.14,1.7.68,1.68ZM49.06,27.66c-4.36.86-7.1,8.2-2.2,9.33,3.84.89,5.12-4.85,5.51-7.68-.72-1.22-1.87-1.94-3.31-1.65ZM4.31,96.85c33.41-3.75,46.2-38.86,50.3-67.8l-2.71,6.58c-9.91,19-21.01,37.85-36.28,53.03l-11.3,8.19ZM41,39.39c-6.96.21-5.44,10.67.68,10.11,1.67-.15,5.06-5.87,4.94-7.14-.11-1.19-4.37-3.01-5.61-2.98ZM32.64,52.47c-2.48.46-4.74,3.43-4.66,5.92s3.21,6.31,5.84,5.11c.61-.28,5.84-7.88,5.85-8.39-1.28-2.34-4.51-3.11-7.03-2.64ZM24.27,65.58c-3.55.52-5.06,4.89-3.2,7.77,1.2,1.86,3.83,3.4,5.48,1.1l3.9-5.84c-1.2-1.73-4.12-3.33-6.18-3.02ZM13.52,86.91c.26.24.86.48,1.19.45.55-.05,5.56-4.98,6.19-5.81.27-.34.96-1.01.75-1.48-4.02-3.49-9.68-.37-8.93,4.91.06.42.53,1.68.8,1.93Z"/>
  </g>
</svg>