<?xml version="1.0" encoding="UTF-8"?>
<svg id="Layer_3" data-name="Layer 3" xmlns="http://www.w3.org/2000/svg" viewBox="0 0 54.5 63.72">
  <g id="Layer_1" data-name="Layer 1">
    <g>
      <path d="M40.75,19.81c2.1,2.46,5.65,4.48,7.88,6.87,7.46,7.96,8.25,21.01-.18,28.63-5.27,4.76-11.73,4.64-18.42,4.37-.23.17,2.28,2.47,1.82,3.28-2.48.03-3.03-3.53-5.83-3.64.37,1.55,1.48,2.61,1.09,4.37-1.5.51-2.52-5.4-3.64-4.37.02.93-1.94,4.43-2.74,4.37-.95-.08-.14-1.77.01-2.17.49-1.27,1.2-1.91,1.99-2.92-2.77-.81-4.73,2.12-7.29,2.18.2-1.79,2.4-2.07,3.28-3.27C10.46,55.94,1.08,51.45.14,42-2.14,19.13,24.23,22.59,30.41,6.29c1.44-3.81,1.27-9.27,6.86-4.31-.77,6.31-.81,12.78,3.48,17.82ZM48.47,52.96c5.07-5.64,5.81-12.91,2.77-19.78-3.77-8.52-14.42-10.92-15.71-21.11-.41-3.27.65-6.5.28-9.76-3.38-2.35-3.13,1.84-3.95,3.97-3.99,10.44-11.79,12.13-20.31,17.24-13.97,8.37-13.78,26.07,2.43,31.04-7.31-5.22-6.98-15.84-2.7-22.93s12.09-8.86,16.71-15.36c.96-1.36,1.5-3.24,2.76-4.35-1.65,9.94-13.16,12.12-18.15,19.57-4.84,7.22-5.11,18.17,3.24,22.87l4.34,2.4c-.23-1.03-1.05-1.62-1.53-2.66-2.79-6.1-.11-16.03,2.81-21.75.17-.34,1.82-3.54,2.36-2.92-1.25,4.03-3.62,7.48-4.5,11.72s-1.63,15.44,4.35,16.31c2.99.44,3.81-.18,5.61-2.34,4.15-4.98,5.74-15.53,5.11-21.86-.14-1.44-1.65-3.82-.37-4.56,2.04,4.46,1.7,9.56,1,14.3-.85,5.73-2.71,10.71-6.83,14.86,10.54-.71,16.61-8.34,15.67-18.76-.78-8.64-8.93-15.2-9.47-24.07l.36-3.46.73,1.09c-.55,9.92,7.91,15.98,9.29,25.52,1.34,9.25-2.75,16.38-11.34,19.65-.53.2-1.06-.35-.86.76,6.1-.14,11.59-.85,15.88-5.62Z"/>
      <path d="M29.67,24.32c.43-4.44,1.42-9.86,2.86-14.08.16-.48.1-1.11.77-1.23-.34,3.49-1.16,7.15-2,10.58-.36,1.47-.58,3.71-1.64,4.74Z"/>
    </g>
  </g>
</svg>