<?xml version="1.0" encoding="UTF-8"?>
<svg id="Layer_3" data-name="Layer 3" xmlns="http://www.w3.org/2000/svg" viewBox="0 0 23.69 34.03">
  <g id="Layer_1" data-name="Layer 1">
    <path d="M10.57,22.27c1.99-2.38,12.09-5.44,12.39-.52.27,4.4-7.85,6.7-11.16,7.03-1.83.19-4.38-.29-5.99.21s-4.87,5.8-5.81,4.94c.19-2.09,4.05-4.06,4.31-5.73-1.26-3.12-4.71-13.37-.66-15.23,4.57-2.09,5.69,7.68,4,10.38h.72c1.16-2.29,2.33-4.11,3.03-6.63C12.68,12.13,12.66-.21,19.51,0c2.73.09,4.36,2.25,4.17,4.91-.34,4.8-11.5,12.08-13.11,17.36ZM12.76,16.44l8.59-9.09c2.73-5.74-2.47-8.5-5.73-2.82-2.14,3.72-1.67,7.91-2.85,11.91ZM5.46,26.64c1.39-3.63,3.13-10.32-.86-12.74-2.29,1.88-1.79,5.09-1.14,7.63l2,5.11ZM6.2,28.1c4.28-.7,11.31-.34,14.21-4.19.85-1.13,1.86-2.7.02-3.29-4.6-1.49-11.5,4.1-14.23,7.49Z"/>
  </g>
</svg>