<?xml version="1.0" encoding="UTF-8"?>
<svg id="Layer_2" data-name="Layer 2" xmlns="http://www.w3.org/2000/svg" viewBox="0 0 70.32 84.03">
  <g id="Layer_1" data-name="Layer 1">
    <g>
      <path d="M42.99,0c1.72,0,4.68,1.45,5.64,2.91,1.09,1.67.87,5.38,1.82,5.84,1.3.63,5.8-.06,7.75.27,2.91.49,4.95,2.9,5.64,5.66.53,2.16.12,5.1.8,6.85.63,1.59,1.81,1.47,2.77,2.34,3.52,3.17,3.4,8.83,2.01,12.96-.65,1.95-2.49,4.36-2.84,6.27-.43,2.29.39,4.17.3,6.1-.21,4.23-5.71,7.32-7.21,11.78-1.8,5.36.73,11.68-3.18,16.14-1.95,2.22-1.75,1.28-3.4,4.26-2.39,4.32-8.36,2.99-10.26-1.17-8.46,1.95-9.48-3.9-13.52-8.75-4.17-5-6.1-2.91-10.65-5.03s-3.5-5.55-4.99-9.22c-1.73-4.25-11.4-3.69-12.07-11.26-.32-3.64,1.94-7.41,1.73-9.45-.1-1.04-1.78-3.03-2.26-4.25C-1.22,26.42.05,17.42,6.09,14.33c1.99-1.02,5.14-.9,6.42-1.96,1.13-.93,2.09-4.49,3.14-5.97C18.72,2.08,25.93-.25,30.93,1.25c1.08.32,3.28,1.85,4.02,1.83C36.11,3.04,39.6.02,42.99,0ZM67.09,25.82c-.91-1.07-3.1-2.22-3.8-3.67-1.17-2.41.17-6.22-1.74-9.2-2.47-3.84-6.9-2.14-10.56-2.56s-2.03-3.92-3.52-6.33-4.29-2.93-6.87-2.26c-.63.16-5,2.54-5.09,2.93-.23.93,1.55.92,2.08,1.2,1.06.54,4.4,2.85,5.02,3.73,1.67,2.38.3,5.27,1.1,6.92.27.56,3.6,2.79,4.36,4.02,2.3,3.72-.12,7.39.18,10.74.14,1.57,1.48,2.39,1.76,3.73.92,4.37-2.27,5.85-3.57,9.37,1.53,3.2,3.66,4.86,3.29,8.78-.44,4.7-5.03,6.63-5.04,10.93,0,3.74,4.99,9.81,7.05,12.94-.83-8.75,2.58-17.7,2-26.42-.28-4.24-1.59-8.48-1.83-12.75-.28-4.83-.24-11.24.01-16.08.05-1.03.48-5.97,1.28-5.98.51.34.52.71.57,1.26.19,1.96-.69,5.5-.77,7.65-.21,5.79.35,11.57.38,17.33.85.19.59-.11.82-.47,1.13-1.76,5.44-11.86,6.3-12.29.61-.08.59-.02.55.55-.05.85-1.1,3.05-1.52,3.95-1.09,2.36-5.04,8.38-5.36,10.35-.25,1.53.88,4.78,1,6.51.47,6.88-1.75,13.33-2.15,20.01-.06,1.08-.3,6.56.55,6.74,6.2-3.71,2.61-11.33,4.85-17.38,1.44-3.89,3.94-4.99,5.84-8.01s.42-5.23.88-8.6c.41-3.04,2.56-5.45,3.3-8.37s.66-6.94-1.33-9.28ZM43.28,18.28c-2.09-2.18-.2-5.6-2.51-8.24-1.65-1.88-3.54-2-5.25-3.14-1.3-.86-1.49-2.27-2.43-3.03-4.06-3.26-12.91-1.06-15.97,2.89-1.35,1.74-2.11,5.61-3.46,6.75-1.7,1.44-4.48,1-6.54,1.84C1.38,17.69.59,26.81,2.52,31.88c.61,1.6,2.34,2.86,2.37,4.56.03,1.59-1.24,3.79-1.56,5.38-1.85,9.09,4.22,8.58,9.69,12.37,3.12,2.16,2.25,4.97,3.34,7.96,1.49,4.09,7.3,3.28,10.57,5.11,5.58,3.13,6.7,13.47,15.13,11.66-2.42-6.77-7.98-11.63-11.96-17.38-1.68-2.43-3.32-6.32-5.17-8.32-2.94-3.17-8.11-4.71-11.29-8.76-.36-.46-2.76-3.81-1.28-3.81l4.55,5.28,7.29,4.92c-1.63-4.99-2.81-10.09-3.46-15.31-1.68-1.23-3.16-2.25-4.55-3.83-.91-1.04-4.92-6.76-3.65-7.83,1.63,1.45,2.23,3.83,3.65,5.64.66.84,2.44,2.65,3.27,3.29.37.28.46.71,1.09.54-.98-4.57-.62-9.76.41-14.35.47-2.11,1.47-5.38,2.79-7.05.35-.44.42-.99,1.17-.83-.83,2.75-2.08,5.16-2.74,8.01-3.15,13.63,1.53,31.56,9.73,42.78,1.93,2.64,4.51,5.09,6.44,7.78,2.15,3,4.95,9.58,6.99,11.6s6.67,1.2,6.14-1.37c-2.8-5.78-9.81-11.8-7.68-18.76.74-2.42,3.98-4.37,4.43-7.23.77-4.86-3.41-6.88-3.28-9.81s4.11-4.23,3.68-8.04c-.19-1.68-1.66-2.67-1.84-4.73-.23-2.68,1.3-5.08.65-8.3-.6-2.95-2.71-3.24-4.17-4.76Z"/>
      <path d="M34.4,29.71c-.24,3.76-2.68,7.19-4.18,10.58-.79,1.77-1.36,4.49-2.3,6.08-.29.5-.44.98-1.16.84-.65-.73,5.84-14.88,6.76-16.76.26-.53-.08-.91.89-.73Z"/>
      <path d="M32.43,17.52c-1.23,1.65-2.92,3.12-4.21,4.72-.45.56-4.36,6.39-4.75,6-.04-.59-.29-.68-.05-1.28.62-1.53,4.94-6.93,6.25-8.37.37-.41,3.64-4.08,3.63-2.2-.33.34-.6.74-.88,1.12Z"/>
      <path d="M37.32,47.21c-.21,2.43-1,5.03-1.11,7.46-.1,2.27.64,5.05.38,6.95-.07.5-.21,1.09-.73.54-.75-4-1.32-10.26.33-14.06.24-.55.4-1.02,1.12-.88Z"/>
    </g>
  </g>
</svg>