<?xml version="1.0" encoding="UTF-8"?>
<svg id="Layer_3" data-name="Layer 3" xmlns="http://www.w3.org/2000/svg" viewBox="0 0 62.91 62.16">
  <g id="Layer_1" data-name="Layer 1">
    <path d="M34.16,13.64c.35.35,6.51-1.74,7.61-1.96,1.93-.38,8.08-1.72,5.51,1.59,16.06,2.56,18.57,19.39,12.82,32.33C49.46,69.59,4.92,67.44.35,39.61-1.45,28.6,3.61,15.69,15.93,14.37c.24-.23-2.44-1.85-1.1-2.74,4.13-.58,8.64.33,12.4,2.01.32-4.16,1.16-15.38,7.77-13.41.57.17,1.98,1.7,2.08,2.31.42,2.59-2.27,4.21-2.76,6.34-.36,1.55-.07,3.2-.16,4.76ZM28.69,16.92l3.84-.36c.68-2.49-.17-5.18.26-7.76.3-1.77,4.26-6.32,1.47-7.13-2.23-.65-3.49,2.04-4.13,3.75-.43,1.16-1.44,5.14-1.44,6.21v5.29ZM27.18,14.79c-.31-.49-9.88-2.44-11.25-2.23,2.49,2.34,6.41,2.76,9.14,4.94.15,1.91-7.07,4.01-7.31,6.72,2.49-.85,4.82-2.32,7.36-3.02,6.69-1.85,12.85-1.48,19.25,1.2-.17-1.78-2.26-3.04-3.76-3.71-1.9-.86-5.97-.85-1.83-3.15,1.73-.96,4.24-1.41,5.58-2.98l-9.77,2.62c-.3,3.56-3.78,3.49-6.65,3.04-.9-.69-.48-2.97-.76-3.43ZM5.87,21.45C-.32,29.66.29,43.06,6.99,50.83c12.63,14.65,43.31,12.72,51.65-5.59,3.49-7.65,4.34-17.61-1.01-24.64-3.74-4.93-12.57-8.38-17.65-3.49,2.15.07,7.2,4.14,5.67,6.4-.62.92-4.86-.94-6.1-1.23-6.3-1.46-12.16-.57-18.16,1.77-.88.34-4.5,2.45-4.92,2.36-3.23-.64,4.48-8.75,6.73-8.03.5-.55-1.23-1.35-1.57-1.51-5.43-2.67-12.31,0-15.77,4.59Z"/>
  </g>
</svg>