<?xml version="1.0" encoding="UTF-8"?>
<svg id="Layer_2" data-name="Layer 2" xmlns="http://www.w3.org/2000/svg" viewBox="0 0 97.16 133.19">
  <g id="Layer_1" data-name="Layer 1">
    <g>
      <path d="M80.17,14.16c22.06,24.99,21.33,68.22,5.31,96.21-13.95,24.36-44.57,31.11-65.54,10.96C-4.96,97.38-5.29,50.95,12.03,22.62,27.23-2.23,59.85-8.86,80.17,14.16ZM77.15,117.29c12.47-14.18,18.46-38.24,17.55-56.83-1.37-28.12-18.69-63.63-52.17-57.16C-6.74,12.82-11.37,108.79,34.56,127.94c14.91,6.22,32.16,1.21,42.59-10.65Z"/>
      <path d="M82.33,30.54c3.64-.51,4.54,6.83.63,6.56-2.81-.2-5.6-3.76-6.01-6.39-.59-3.77,2.09-9.63-1.59-11.93-2.93-1.83-5.16.65-5.91.52-.14-.02-2.26-1.38-2.38-1.49-2.14-1.84-.37-5.79-4.14-8.22-5.04-3.24-9.56-1.56-10.71,4.34,8.53.44,16.35,5.35,21.17,12.24,13.87,19.8,14.75,48.55,5.77,70.52-14.92,36.5-52.9,27.96-63.53-7.36C7.51,62.37,14.92,15.12,50.2,13.47c1.53-2.76,1.38-5.34,4.71-6.68s10.19.54,11.74,4.09c.66,1.53.59,5.18,2.16,5.95,1.19.59,3.92-.77,5.52-.5,1.44.24,3.26,1.71,3.97,2.99,2.37,4.31-1.74,11.36,2.48,14.9.92.77,2.47,1.71,2.73-.02.25-1.6-1.59-1.99-1.18-3.65ZM25.71,29.15c-15.48,21.76-15.11,71.29,10.78,85.26,13.62,7.35,28.16,1.59,36.12-10.75,13.75-21.31,14.05-63.14-5.91-80.86-13.03-11.57-31.37-7.16-40.98,6.35Z"/>
      <path d="M18.9,29.47c1.29,1.29-1.29,7.38-2.7,8.13-.44.23-.96.32-1.46.28-.45-.33.71-4,.86-4.17.21-.24,2.26-.69,2.19-2.15l-1.25-.97-2.16,1.15c.88,1.86-.32,2.25-.89,3.54s-1.35,3.01-1.45,4.34c-.33,4.4,1.85,8.09.58,12.55-.63,2.22-2.1,4.94-4.85,4.07-3.2-1.01-2.33-5.95-1.34-8.33,1.55-3.7,2.82-1.34,3.3,1.33-1.27.35-.13.77-.77,1.58l-1.55.19c-.14,3.6,2.04,4.7,3.61,1.08-.03-1.22.24-3.3.17-4.37-.16-2.44-1.18-5.24-1.11-7.73.06-1.86,2.97-9.29,4.28-10.42,1.16-.99,3.45-1.19,4.53-.11Z"/>
      <path d="M9.29,84.66l1.21,2.08-.7.24.29.87-.94.63-.19-1.54c-2.05,1.6-.14,6.19,2.71,5.23,2.27-1.12-.46-7.41-1.45-8.99-2.33-3.73-7.91-6.06-5.7-11.69,1.31-3.33,5.27-.8,4.37-5.11-.2-.98-1.31-2.01-2.2-1.4-.32.22-.49,2.99-2.17,1.49-2.64-2.33,5.19-5.95,6.29-.49.87,4.33-2.31,4.61-4.89,6.93-.47,4.05,2.53,4.75,4.39,7.09,2.23,2.81,6.1,11.53,1.97,13.91-5.07,2.92-8.46-8.62-2.96-9.24Z"/>
      <path d="M90.76,77.22c.61-.67-.43-2.65-.72-3.42-5.09,2.84-1.78,10.87-1.54,15.65.12,2.5-1.54,10.74-5.04,10.05-4.92-.97-2.22-6.78,1.57-7.15l.22,1.54c-.46.93-1.61.57-2.06.87-.93.62-.98,3.33.81,2.96,6.4-5.02-1.89-19.16,2.99-24.07,3.32-3.34,6.9-.33,5.59,4.04-1.2,4.01-5.33,2.07-3.1-.02.41-.38,1.16-.3,1.28-.43Z"/>
      <path d="M48.34,13.16c-1.04-.45-.99-2.11-1.52-2.91-1.87-2.77-7.08-2.44-9.66-.74-2.73,1.8-3.98,6.66-5.44,7.32-1.21.55-3.02-.5-4.74-.11-1.81.41-5.36,4.11-2.99,5.12,1.56.67,1.79-1.92,2.91-2.5l.92,1.04c-.82,3.61-7.21,5.5-6.44.02.49-3.48,4.15-5.57,7.45-5.7.77-.03,1.8.73,2.53.22,1.29-3.38,2.77-6.22,6.34-7.57,1.35-.51,5.55-1.37,6.75-.94,3.06,1.09,5.23,3.36,3.88,6.74Z"/>
      <path d="M19.37,105.85l-1.48-.44-.06-1.88-1.55.17c-1,.8-.17,3.23.4,4.17,2.31,3.78,8.72,1.98,11.79,6.45,2.67,3.9-.67,8.52-3.94,5.68-3.84-3.34.15-6.78,1.05-1.05l1.54-.14c1.8-5.71-4.72-5.57-8.09-7.02-5.16-2.23-5.26-4.94-4.25-10.15,3.41-.96,5.04.77,4.59,4.2Z"/>
      <path d="M90.34,46.08c1.48,1.56.71,5.63.21,7.54-.61,2.34-3.28,6.59-1.68,8.8,1.46,2.01,2.34-2.23,2.53-2.15,2,.96.59,4.97-1.08,4.94s-3.65-2.47-3.78-3.97c-.22-2.41,2.31-7.14,2.63-10.16.16-1.5.67-3.31-.85-3.98-2.74-1.22-.45,3.79-1.55,3.5-2.27-1.09-2.41-5.28.47-5.73.52-.08,2.8.88,3.1,1.19Z"/>
      <path d="M66.65,116.81c2.3-3.54,11.77-3.3,11.81-9.03l-3.47.77c.26-3.71,6.13-3.61,5.33.48-.18.92-1.7,3.11-2.42,3.78-2.32,2.15-5.7,2.07-8.2,3.77-1.3.88-2.99,2.46-1.46,3.93,1.71.51,2.04-3.83,3.08-1.55.2.44-.54,2.16-.98,2.5-1.18.91-3.16.62-4.27-.33-.86-1.49-.26-3.04.58-4.33Z"/>
      <path d="M38.6,119.85c.21.18,1.26,2.36.27,2.61-1.07.27-2.67-1.94-4.43-.77.79,3.27,3.95,4.39,6.84,2.78,1.58-.88,1.91-3.28,3.97-3.17-.5,4.84-5.82,7.33-10.01,4.8-1.67-1.01-3.4-4.72-1.87-6.25.72-.72,4.62-.52,5.23,0Z"/>
      <path d="M61.48,122.07l.38-1.16,1.13.02c1.06,2.35-1.15,4.53-3.19,5.47-4.61,2.11-7.26.27-9.06-4.14l1.47-.78c1.33,1.73,2.19,4.23,4.81,4.11,1.05-.05,3.84-1.23,3.69-2.51l-2.94-.98c-.48-2.67,3.28-1.98,3.7-.02Z"/>
      <path d="M38.69,13.15c-.3-1.22,1.53-3.38,2.69-2.9,3.01,1.26-.97,3.59-2.69,2.9Z"/>
      <path d="M49.08,125.2c.74,2.42-3.19,3.39-3.03.92.1-1.56,1.92-1.53,3.03-.92Z"/>
      <path d="M60.22,10.55c.19.18.24.64.45.88-1.36,1.42-3.14,2.12-3.47-.39l.67-.93c.59-.19,1.9.01,2.35.44Z"/>
      <path d="M86.87,39.91c1.22,1.19-1.18,3.15-2.13,2.13-1.39-1.5.16-4.05,2.13-2.13Z"/>
      <path d="M72.92,20.14l2.46,2.1c-.62,2.05-2.42.54-3.3-.59l.85-1.51Z"/>
      <circle cx="19.13" cy="25.27" r="1.43"/>
      <path d="M13.47,96.64c.89-.25,1.61.16,1.98.96-.04,1.06-.84,1.61-1.68,2.05l-1.29-1.79c-.08-.51.57-1.1,1-1.22Z"/>
      <path d="M89.52,67.25c.79-.14,1.61,1.29,1.27,2.04-2.45,2.29-3.66-.05-1.27-2.04Z"/>
      <rect x="79.4" y="101.79" width="2.38" height="2.73" transform="translate(-26.56 178.34) rotate(-87.06)"/>
      <path d="M8.82,58.01c1.53-.41,2.04,2.04.65,2.64-.87.26-1.54-.81-2.06-1.33l1.41-1.31Z"/>
      <path d="M49.77,4.7c.67-.23,1.74.62,1.63,1.25-2.3,3.54-3.81-.71-1.63-1.25Z"/>
      <path d="M9.71,73.8c.68.63.12,3.1-1.34,2.7-.47-.37-.76-.68-.55-1.32.04-.11,1.57-1.68,1.89-1.38Z"/>
    </g>
  </g>
</svg>