<?xml version="1.0" encoding="UTF-8"?>
<svg id="Layer_2" data-name="Layer 2" xmlns="http://www.w3.org/2000/svg" viewBox="0 0 108.58 132.06">
  <g id="Layer_1" data-name="Layer 1">
    <path d="M105.84,0l1.57,2.1-.41,8.13.81.74-.77.43v6.72s1.54.19,1.54.19l-1.57,1.2.03,10.96.96-.77-.21,1.92-.76-.38c-.9,9.09-.04,18.32-.78,27.42.15.12,1.57-.8,1.55.58l-1.16-.19-.4,11.34.79.44c-.01.38-.7-.16-.81.74-.36,2.87.65,6.34.11,9.32l.7.37-.8.41c.21.62.44,1.23.44,1.9.01,14.53-.6,29.27-.43,44.06.03,2.68,1.05,4.28-3.29,3.68-.77-.11-.39-.85-1.1-.83-1.45.03-3.48.75-5.04.83-9.64.47-19.85-.41-29.73,0-1.14.05-1.6-1.12-2.33.76l-.2-1.17c-4.69.28-9.4-.02-14.08.03-14.07.14-28.4-.14-42.5.2-1.99.05-5.7,1.25-7.03-.33-1.08-1.27.44-3.06.63-4.35.21-1.44-.24-4.22.03-5.34.11-.46.92.03.76-.62l-1.93-.2c1.76-1.46,2.24-3.48,1.54-5.6-.3-.23-2.29,1.25-1.93-.38,1.57.55,2.74-3.5,1.15-3.67l.77-.58-.8-.22,1.16-5.42c-.31-2.14,1.19-5.74-1.54-6.17.05-2.62,2.23-4.02,1.52-6.71-2.61-.17-.41-.8-.22-1.26.96-2.24-.35-3.55-.4-5.05-.1-3.21.16-7.32.26-10.53.05-1.59.41-3.52.4-5.19l-1.54.38c0-.7.97-1.1,1.12-1.46.55-1.36.28-6.81-.73-8,1.92-1.01.94-3.82.59-5.62l-1.36-.18c1.09-2.01,2.02-3.06,1.55-5.6l-1.54.19.58-1.35.57.77c.86-2.14.05-3.99-.01-5.97-.05-1.58.34-4.93.02-6.14-.1-.38-.9-.14-.78-.44,1.53-1.47,1.14-3.69,1.16-5.6-2.9,1.08.03-1.82.05-2.12.07-1.6-.14-6.61-.44-8.05-.06-.3-.93-.36-.98-1.01-.02-.21.44-2.72.97-2.59L.98,1.11c1.45-1.2,1.99.66,3.5.8,4.19.4,9.23-.38,13.51-.42,26.53-.27,53.02.07,79.58-.53,2.91-.07,5.5.8,8.27-.95ZM38.28,3.83c-.86.53-1.48-.28-2.03-.27-3.29.08-2.36,1.76-3.35,2.41-.43.28-1.45-.89-1.18.56,2.37-.1,6.87.8,6.56-2.7ZM51.8,4.21c-.46-1.33-5.28.24-4.24,1.55l4.24-1.55ZM71.49,3.83c-.72.09-2.99-.42-3.5-.18-.71.33-.65,1.53-1.14,1.93-.44.36-3.51-.42-3.86.94,2-.56,1.78.61,2.31.98.91.62,2.12-.52,2.71-1.17l-.77-.96h2.31s-.77-.77-.77-.77l2.7-.77ZM78.44,4.22l-4.27-.57c-.88,1.45-3.02,2.26-2.68,4.04l2.31-.77-.38,1.15c.93.31.68-.46.93-.62,1.09-.69,2.01-1.09,2.55-2.46l-3.48.38.38-.58,4.64-.57ZM84.63,3.83c-2.2-.45-3.58-.01-5.04,1.73l-1.52,2.13,2.27.36c.45-.53,2.96-3.67,3.19-3.77.37-.17,1.34,1.04,1.11-.45ZM92.35,3.83c-1.85.13-4.59-1.17-5.01,1.34l-2.33,2.51,2.13-1.15.19,1.15c2.38.49,2.41-3.16,3.28-3.47l.38.78,1.36-1.16ZM7.12,4.45c-.14-.06-.09-.6-.3-.58l-1.37.53,3.08,2.13.78-1.93c-1.07.16-1.26.28-2.19-.15ZM16.76,6.25c.32-.33,2.21-.79,2.59-1.85-.81-1.19-2.02.21-3.09.2,1.33,1.61-2.77,2.58-2.69,3.67.08.97,2.37-.42,2.53-.56.51-.47.4-1.19.66-1.46ZM32.48,3.83c-2.5.24-6.21-.55-7.72,1.92h1.93s-.39.77-.39.77c1.13.13,2.24-.17,3.19-.76.33-.2.41-.8.68-.95.75-.42,1.97.06,2.31-.98ZM46,3.83h-2.81s-1.43,1.15-1.43,1.15c1.61.61,2.26,1.14,3.78-.07-.64-1.11.44-.33.46-1.08ZM56.05,3.83l-3.22.35-1.03,2.73,4.25-3.08ZM60.23,3.91l-2.64.69c1.38,1.93,3.72.06,5.4-.4l-2.32-.38-.19.78-.26-.69ZM13.94,4.6c-2.22.13-3.41,1.44-3.86,3.47,1.1.28,1.25-1.2,1.65-1.44.78-.46,2.28,0,2.21-2.03ZM58.36,5.76c-1.64-.3-2.99,1.77-3.86,2.9l.82.91c.4.23,5.7-3.61,1.89-2.66l1.15-1.15ZM51.32,8.38c.34-.59.16-1.82-.49-2.23-.58,1.29-1.87,1.62-2.79,2.42-.35.31-.26,1.03-.6,1.33-.56.5-2.9,1.13-3.37,2.42.86-.11,3.15-.13,3.77-.48.22-.13.95-1.63,1.39-2.08s2-1.21,2.09-1.38ZM21.67,6.53l-2.11.37-5.61,5.03c3,.3,1.83-.08,2.58-1.44.83-1.5,1.49-.81,2.03-1.06.59-.28,2.47-2.3,3.11-2.9ZM42.91,6.92c-.56-.45-5.79.18-5.02.77l1.16.39c-1.52-.2-2.06.55-3.09,1.35.69.86,1.8,1.46,2.9,1.01l4.05-3.52ZM27.85,6.92c-.95.27-1.65-.05-2.7.18-.44.09-1.86.56-1.54,1.37.64.31,5.03-.28,4.24-1.54ZM35.19,7.69c-3.38-1.1-5.4.68-7.72,2.89l3.09.2c-.79,1.37-3.61-.68-4.63,1.54,4.37.89,6.19-2.37,9.27-4.63ZM104.71,7.69c-2.47,1.02-4.71,2.14-4.63,5.02,1.29.26.79-1.04.85-1.09.51-.41,3.24-1.4,3.6-1.99.33-.55.17-1.32.19-1.94ZM46,8.08c-.48-.4-3.82,2.04-3.86,3.08,1.97.21,2.67-1.91,3.86-3.08ZM79.22,8.85l-2.73-.58-1.52,2.51c.79-.47,1.54.07,2.32-.15.25-.07,2.46-1.22,1.93-1.77ZM64.93,8.47c-1.05-.04-1.99.5-2.99.68-.84.15-1.88-.95-1.64.47l3.81.72.83-1.87ZM73.04,8.47c-1.91-.08-5.06-.29-5.79,1.93l3.98.32,1.81-2.25ZM86.94,8.46l-4.23.02-.79,2.68c1.39-.35,3.02.35,3.86-.97l-.77-.38,1.93-1.35ZM20.13,11.93l3.48.22,1.92-2.34-1.97-.78-1.5,1.36c.07-.8.05-.88-.77-.77l-1.16,2.31ZM8.53,10.38l-.37-.94c-.79-.66-4.07,1.03-4.63,1.93-.2,1.15.69.08.77.18.59.81-.76.79-.74.94l.36,1.38c.34-.89,1.77-1.15,1.85-1.24.22-.26,0-.84.11-1.04.02-.05.65.25,1.02.08.7-.33.76-1.31,1.64-1.28ZM56.04,11.16c-.86-1.36-3-1.24-4.38-1.1l-.48.32c.48,1.67-.65.68-.54,1.94h3.47s0-1.16,0-1.16h1.93ZM35.96,11.55v-1.16s-3.09,1.54-3.09,1.54l7.33.39c.21-1.23-.38-.59-.98-.75-.81-.22-1.53-.22-2.31-.8l.2.77h-1.16ZM58.94,11.94c2.82-.09,5.67,0,8.5,0,.55,0,2.56.55,2.89-.38-2.82.19-5.55-.1-8.31-.4-.46-.05-.88.32-1.17.35-.12,0-.56-1.38-2.1-.72l.39.77-2.13.39c-.39.83,1.83,0,1.93,0ZM8.71,14.82c.94-1.2,1.32-1.2.98-3.27-.71-.06-.22.88-.76,1.36-.47.42-1.58.18-1.95.86-.41.75,0,2.3-.37,3.19.69-.56,1.55-1.45,2.1-2.14ZM104.71,11.55l-4.17,2.39-.46,3.4c1.59-.03,1.67-1.49,2.84-2.56,1.05-.97,2.22-.54,1.79-3.23ZM93.45,14.22l-79.28.14.18,104.2,79.28-.14-.18-104.2ZM3.97,18.64c1.87.22,1.78-2.68,1.86-3.99l-1.72,1.51-.6,2.54.47-.06ZM96.21,22.37v-7.34c-.79.49-.77,3.16-.76,4.08s-.19,2.92.76,3.26ZM7,20.82c1.72-1.05,2.64-2.57,2.31-4.63l-2.53,2.32.22,2.32ZM98.24,19c.51-.72,2.14-1.06.47-2.81-1.1-.54-1.04,3.47-.96,3.86.7.12.21-.67.48-1.05ZM104.71,16.57c-.26-.22-3.93,2.04-4.06,2.31-.52,1.01.23,2.38-.18,3.48,1.05-.28,1.12-1.53,1.66-2.2,1.09-1.34.82-.53,1.83-2.53.14-.28,1.42-.48.75-1.06ZM5.45,19.28c-1.4,0-1.46,2.34-1.89,3.31l1.11-.99-.76,5.79c1.33-.79,2.35-1.95,1.92-3.6-.08-.3-.75-.25-.79-.5-.11-.83.84-2.83.4-4ZM7.12,24.45c2.36-1.48,2.39-1.72,2.19-4.79-.5.35-1.96,1.51-2.13,1.94-.25.62.49,1.95-.57,2.9.25,1.54.37.04.51-.05ZM98.52,23.52c.5-1.2,1.04-2.08.78-3.47-1.55.52-3.01,2.89-.78,3.47ZM101.24,26.23c2.03-1.86,4.22-2.56,3.47-5.79-1.98,1.74-5.37,2.22-4.24,5.79l.38-1.16.39,1.16ZM99.2,27.68c.39-.78-.06-2.44.1-3.38-2.65,1.35-1.08,2.36-1.54,4.63.28-.21,1.4-1.16,1.44-1.25ZM9.31,24.69c-.52-.6-3.44,2.88-2.29,4l-.8.44.77.19-.38,1.55,2.25-1.41.44-4.77ZM104.71,25.46h-1.54c.8,1-2.38,2.76-2.62,3.16-.37.63.08,2.53-.08,3.4.99-.18.29-1.1.57-1.53.42-.63,2.16-1.27,2.69-1.98.58-.79.2-2.2.98-3.05ZM101.23,36.65c1.71-2.8,4.21-4.8,3.48-8.49-.7-.13-.21.69-.49,1.04-2.1,2.61-4.25,3.25-3.76,7.26l.77.19ZM3.91,33.57c1.85-1.15,2.17-2.99,1.92-5.02-2.77.96-1.97,2.65-1.92,5.02ZM99.69,29.71c-1.4.02-1.79,1.53-2.32,2.52l.75.34-.36,1.38c.97,1.17,1.81-4.01,1.93-4.24ZM11.49,32.68c.32-.44.83-1.36.34-1.82-2.02,1.97-.97,4.44-1.73,6.96l1.93-1.44.39-2.8-1.16.2c-1.08-1.06.1-.89.25-1.1ZM8.79,33.83c1.54-3.74-1.85-1.3-2.18.33-.13.66.04,1.43,0,2.12l2.18-2.44ZM104.32,39.55v-5.99c-.82.24-1.11,3.2-1.26,3.4-.21.28-2.31,1.77-2.5,2.09-.4.68-.11,3.04.48,3.77.78-.79,3.07-2.28,3.29-3.28ZM5.45,34.34c-1.89.29-1.81,2.82-1.93,4.25,1.37-1.25,2.63-2.15,1.93-4.25ZM98.52,38.59c.54-.5.96-3.4.77-4.25-.45.41-1.42,1.2-1.58,1.74-.14.49-.21,3.45.81,2.5ZM9.31,35.89l-2.65,1.6-.06,3.42c3.03-.71,1.69-3.06,2.7-5.02ZM5.45,39.36c-1.82.04-1.19,1.36-1.37,2.1-.13.53-.56.89-.59,1.56-.06,1.12.71,2.44.43,3.68l1.15-.38c.37.98-1.04,1.49-1.14,1.83-.37,1.25-.02,3.05-.02,4.35l1.54-.77-1.16-1.35c1.56-1.06,1.87-3.91-.03-4.67.43-1.09.42-2.22,1.58-2.7l-.4-3.64ZM99.69,40.52c-2.45.45-2.19,3.09-2.31,5.02,2.02-1.2,1.7-3.02,2.31-5.02ZM102.72,47.78c1.21-.66,1.97-4.73,1.6-6.1l-3.79,3.73-.45,3.6c1.05.25,1.05-1.07,1.55-1.37.39-.24.94.22,1.09.14ZM7.77,47.47c-.22-.25,1.99-3.52,1.15-4.63-3.68,2.25-1.86,5.53-2.31,8.88l1.93-1.35c-.03,1.43-2.09,1.97-1.58,3.25l-1.12.04.57,2.68c3.82-2.45,1.83-5.97,2.51-9.65-.5-.22-.41,1.62-1.15.77ZM98.76,50.8c.72-1.46.6-2.5.54-4.11-2.32.64-1.62,3.16-1.93,5.02.32.39,1.33-.8,1.38-.91ZM104.32,48.25c-2.45.44-4.48,3.61-3.86,6.18l3.36-3.4.5-2.78ZM12.4,49.02c-.69-.27-1.74,1.51-1.85,1.82-.15.45-.14.94-.1,1.41l.79.63-.77.77c1.88-.21,1.67-3.21,1.93-4.63ZM104.32,52.88l-1.16.58.77.57c-1,.18-1.76-.11-1.97,1.12l-1.11-.35-.39,4.64c1.51-1.17,1.57-3.04,3.81-3.14l.04-3.42ZM98.91,53.27c-1.06-1.01-1.75,3.57-1.54,3.86,1.33-.49,2.67-2.78,1.54-3.86ZM4.67,58.28c.67-1.27.76-2.43.78-3.86l-1.57.62.02,3.05.77.19ZM7.16,58.84c1.43-1.3,1.65-1.31,1.38-3.64l-2.53,3.06-.16,1.57c.69-.08.94-.65,1.32-.99ZM9.7,60.21c2.34-.49,2.52-3.01,2.31-5.02-2.09,1.14-2.28,2.86-2.31,5.02ZM98.3,60.77c1.19-1.17,1.39-1.86,1.39-3.64-1.73,1.37-2.24,2.09-2.31,4.24.91.33.61-.3.93-.61ZM104.32,57.9l-2.21,2.03-.11,1.45c-.74-.05-.69-1.88-1.34-.76-.79,1.37-.5,2.41-.2,3.85.78-.91,3.18-1.86,3.67-2.72.22-.39-.08-3.19.19-3.84ZM8.54,59.06l-2.5,2.71-.2,3.08,2.5-2.71.2-3.08ZM10.08,67.94c.68-2.46,2.36-3.77,1.93-6.56l-1.35,1.54-.57-.77-.42,2.86.79.24c.09.11-1.74,2.19-.38,2.69ZM97.38,67.17c1.73-.87,2.47-2.81,1.92-4.63l-2.16,2.3.24,2.33ZM103.67,64.36c-.27-.64.19-1.51-.5-1.44.38,1.9-1.98,2.04-2.35,2.56-.65.91-.03,2.8-.71,3.84l.66.21-.3,1.11c.74-.08.88-1.13,1.24-1.42.11-.09,1.41.22,1.52-1.22l.7.33c.3-1.05.58-2.2.43-3.3-.09-.69-.63-.53-.68-.66ZM6.99,69.1c1.28-1.82,1.3-3.29,1.55-5.41-1.68,1.5-3.71,3.29-1.55,5.41ZM4.67,71.41c.8-1.51,1.54-2.36,1.16-4.25-1.68.73-1.97.99-1.83,2.78.02.31.15,1.57.67,1.47ZM12.01,70.64v-3.09c-.16-.23-2.45,2.66-2.54,3.07-.1.47,1.18,1.54-.16,2.72l2.71-1.16c-.25-.83-2.54-2.45,0-1.54ZM99.02,69.41c-.34-.64.42-1.2.28-1.85l-2.25,1.81.52,4.36c.81-1.26,2.49-2.22,2.05-4.06-.06-.23-.55-.16-.6-.26ZM104.23,72.1c.27-.67-.29-1.8.09-2.61l-2.32,2.31h-.76s-.38-.76-.38-.76c-.68,1.26-.88,2.43-.6,3.86l.97.38c0-1.01,2.76-2.57,3.01-3.18ZM8.93,71.03c-2.19.55-2.92,3-2.32,5.02,2.58-.46,1.53-3.31,2.32-5.02ZM97.75,78.75c1.04-1.85,2.04-2.6,1.55-5.02-1.96.87-2.38,2.14-2.03,4.18.07.4-.07.96.49.84ZM104.23,78.31c.18-.21-.04-3.56-.1-4.18-.8.73-.97,1.83-1.57,2.68-.54.75-2.34,2.17-2.11,2.92l.79.38-.49.2-.29,1.54.77-1.16.57.77,2.51-2.51-.77-.57c.2,0,.58.05.68-.07ZM8.43,78.65c.58-.7.51-1.75.49-2.6-2.12,1.41-2.71,1.77-2.31,4.63.65.04.33-.84.75-1.38.25-.33.86-.4,1.07-.65ZM12.01,76.05l-1.52.02-.41,6.93c1.83-1.44,2.28-2.21,1.92-4.64l-.77.19.77-2.51ZM99.2,83.3c.27-.54.15-2.79.1-3.58-.02-.43.25-1.06-.38-.96-.05,1.19-.7,1.59-1.58,2.18l.42,3.61c.27-.21,1.4-1.16,1.44-1.25ZM8.92,80.3l-2.32,1.81v3.59c1.96-1.13,1.88-3.5,2.32-5.4ZM104.32,80.69c-.54-.04-.74-.12-1.18.26-.19.16-2.43,2.67-2.5,2.84-.54,1.19.75,1.65.59,1.92l-.77.78c2.45-1.21,3.87-3.04,3.86-5.79ZM103.61,89.51c.91-1.48.43-3.28.71-4.96l-3.65,4.27-.2,5.38.39-.77.58.78.38-.78c2.22,2.03,2.26-1.96,2.54-3.62l-.74-.3ZM99.01,88.33c-.21-.45.63-2.21.28-3.01-2.63.83-1.68,4.14-1.15,6.18.61.05.47-.8.77-1.28.17-.28,1.06-.33.68-1.62-.08-.26-.54-.17-.58-.27ZM8.54,86.1c-1.03-.22-.66.28-.96.76-.4.66-2.16,3.19-.77,3.48,1.51.32,2.11-3.19,1.73-4.25ZM95.44,110.04l.78-1.34c-.26-7.15.41-14.38-.21-21.45-.31,0-.59,1.38-.59,1.74.09,6.08.36,12.41.43,18.54.01.88-.45,1.64-.42,2.51ZM12.01,89.19c-3.01-.38-1.84,4.88-1.16,4.25l.77-1.54-.77,2.51.77-.19v.77c-1.5.3-1.75,2.19-1.93,3.48,2.5,1.5,2.57-8.09,2.31-9.26ZM6.7,95.86c.19-.27.8-.32,1.08-.66.8-.96.59-2.54.37-3.69-2.8.94-1.3,1.82-1.52,3.23-.02.15-1.5.43-.4,2.17.69.12.21-.67.47-1.05ZM97.76,97.29c2.1-1.07,1.96-3.77,1.92-5.79l-1.94,1.8v3.99ZM104.32,94.21c-.42-.32-3.48,2.67-3.68,3.1-.47,1.03.33,2.03.2,3.07.37.39,3.1-2.33,3.28-2.73.44-.93-.42-2.42.19-3.45ZM6.61,101.54c2.01-.92,1.55-2.77,1.54-4.63-2.14,1.16-1.82,2.57-1.54,4.63ZM98.19,101.99c2.15-.53,1.41-2.6,1.49-4.3-1.65,1.43-2.29,2.77-1.93,5.02l.43-.72ZM5.17,101.46c-.47-.73.26-2.24-.3-3.01-1.19,1.53-.34,3.97-.58,5.79l1.54-2.51c.07-.35-.54-.08-.66-.27ZM11.63,98.45l-1.93,3.29c-.23,1.63.48,2.99,1.72,1.32,1.18-1.58-.03-2.84.21-4.62ZM101.36,104.39c.93-.57,2.07-.79,2.78-1.69l.18-3.47c-2.47,1.55-4.1,2.69-3.86,5.79.96.35.69-.51.89-.63ZM8.54,102.32c-2.05.69-2.66,3.13-1.93,5.02,1.98-1.17,1.51-3.04,1.93-5.02ZM99.69,103.48c-2.45.42-1.71,2.49-1.54,4.25,1.86-.43,1.5-2.67,1.54-4.25ZM103.43,108c.94-1.12-.06-2.48.11-3.75-2.05,1.66-3.63,2.98-3.08,6.18l2.97-2.43ZM11.93,107.25c.48-.55.12-1.94.08-2.61-.74.57-1,.73-1.92.39v3.86c.71.12.2-.71.45-1.07.22-.32,1.09-.2,1.39-.56ZM6.99,111.58c.57-1.56,1.73-2.42,1.55-4.24-.36.34-1.87,1.17-1.93,1.43-.09.35-.27,2.7.39,2.81ZM99.69,108.5l-2.62,2.01-.08,1.85c2.14-.74,2.37-1.7,2.7-3.86ZM104.32,109.66l-3.78,2.39-.08,2.24c1.52-.49,1.9-2.07,3.78-2.39l.08-2.24ZM8.93,111.2c-1.77.21-2.38,2.35-2.31,3.86,2.13-.83,1.79-1.96,2.31-3.86ZM103.82,116.88c.53-.64.74-2.23.31-2.98-.82.31-3.82,3.83-3.28,4.24.91.7.56-.95,1.15-.77l.39,1.15c-.1-1.08,1.1-1.24,1.44-1.65ZM8.93,117c-1.62-.17-1.8,2.46-2.43,2.98-.31.26-.99.15-1.46.66-.5.54-.72,1.79-.75,2.54l2.33-2.12.37-1.36.76.19.2.58.97-3.47ZM104.33,120.09c-2.58-1.09-2.14,3.56-1.93,5.4,2.29-1.47.35-1.89.37-2.47l1.56-2.92ZM34.42,123.17c-2-.3-3.37-.4-5.02.96.41.96,3.74.03,4.46-.18.56-.17.67.23.56-.78ZM41.37,123.18c-1.7-.2-3.82-.58-5.02.96l.77.57-1.54.77,2.82-.08,2.97-2.23ZM46.13,124.46c.42-.3,1.11-.15,1.41-.71-1.95-1.55-4.65-.79-5.78,1.35,1.06.25,2.18.62,3.29.4.87-.17.74-.8,1.08-1.04ZM54.11,123.56l-3.59-.41-2.21,2.72c3.49.84,2.3-.31,3.17-1.07.36-.32,2.44-.2,2.62-1.24ZM57.98,125.87l1.53-1.74c-1.26-1.19-3.98-.97-4.62.78-.41,1.11,1.84-.05.77,1.34l2.13-1.15.19.77ZM92.73,123.17c-1,.43-1.73-.56-2.11.72l-.92-.31-1.98,2.68,4.64-.39-.19-.69-.58-.26,1.15-1.74ZM63.77,123.56l-2.7,2.13.76.57,1.16-1.53.59,1.93.2-1.54.61,1.2,2.47-.05-1.16-1.15c2.18.59,2.71.56,3.86-1.36-1.13-.64-1.69.02-2.12.97-.25-1.23-1.79-.31-2.73-1.15l-1.13.76.19-.77ZM74.58,123.56c-1.37.51-2.5-.5-3.5.96-.24.36.01.86-.04.91-.36.29-1.37-.03-1.47.83l3.78-.08,1.23-2.62ZM79.61,124.33l-3.06-.76-1.57,2.68,4.19-.05.45-1.87ZM86.56,125.11c-1.02.07-1.14-1.25-1.81-1.49-1.77-.63-3.48,2.42-3.21,2.64l2.26-.05.45-1.49v1.54s2.31-1.15,2.31-1.15ZM15.1,125.11l-2.68.59-3.11,2.49c2.43.3,4.23-1.56,5.79-3.08ZM24.76,125.49c-1.06-.3-1.44-.53-2.45.04-.52.29-3.17,2.42-2.57,3.04,2.78.54,3.5-1.28,5.02-3.08ZM30.48,126.57l-.32-1.47-3.47,1.17,1.93,1.54c-.81-.08-3.57-.83-3.47.78,1.09-.75,2.2.29,3.22-.05.49-.16,1.27-1.83,2.12-1.96ZM20.13,125.49c-3-.95-3.15,1.44-4.26,2.12-.69.42-1.8-.29-1.53.97,2.58.36,4.12-1.49,5.79-3.08ZM36.73,126.27c-.43-.66-3.32-.36-3.86.57l1.93-.58-.42,1.52c-.55.39-1.99-.88-2.28.41,1.16.96,5.59-.44,4.63-1.92ZM42.04,126.03c-1.31-.42-2.99,1.12-3.76,2.16,2.09.1,4.6,1.1,5.41-1.54-1.23.51-1.55-.59-1.65-.62ZM48.48,127.33c-.17-.35.3-1.26-.91-1.06l-2.71,3.08,1.49-.09.24-.69.19.77c.94.41.69-.54.85-.63.24-.14,1.11.18,1.46-.73.27-.68-.56-.55-.61-.66ZM64.93,127.8c-.35-1.03-1.75-.63-2.54-1.11-.14.89-1.92.52-1.71,1.69.26,1.39,3.44-.96,4.25-.58ZM55.22,127.07c-1,.24-1.93-.3-2.69.54-.24.26.01.7-.09.91-.1.18-.81-.17-.64.45,1.59-.17,2.79.32,3.86-.95l-.44-.94ZM76.9,127.04c-1.49.06-3,.08-3.86,1.54,1.51.71,2.21.15,3.59-.38l.27-1.16ZM82.69,127.04c-.41.23-3.51.65-3.09,1.15.12.14.92-.32.77.39l-1.54.39h3.86s0-1.93,0-1.93ZM94.67,128.19l-.95-1.16-1.87.78-.27,1.16,3.09-.78Z"/>
  </g>
</svg>