<?xml version="1.0" encoding="UTF-8"?>
<svg id="Layer_3" data-name="Layer 3" xmlns="http://www.w3.org/2000/svg" viewBox="0 0 110.01 125.38">
  <g id="Layer_1" data-name="Layer 1">
    <g>
      <path d="M109.9,0l.11,125.28-109.9.1L0,.1l109.9-.1ZM107.32,2.88l-104.99.03.03,119.77,104.99-.03-.03-119.77Z"/>
      <path d="M98.52,11.3l.41,102.1-87.71.35-.41-102.1,87.71-.35ZM96.53,13.72l-83.01.07.08,97.34,83.01-.07-.08-97.34Z"/>
      <circle cx="7.35" cy="14.92" r="1.54"/>
      <path d="M5.92,75.23c1.08-1.23,3.97-.13,2.4,1.81-1.73,2.12-3.54-.51-2.4-1.81Z"/>
      <path d="M102.85,69.1c-.16.07.07.74-.27.62l-1.37-2.12.79-.2-.77-.57c1.56-2.38,3.6.31,2.52,2.16-.17.29-.66,0-.9.1Z"/>
      <path d="M8.48,39.27l-.31,2.49-.92.48c-2.38-.21-1.51-4.57,1.23-2.97Z"/>
      <path d="M6.25,33.38c-.58-1.96-.65-3.78,1.92-2.88.99,1.84.37,3.43-1.92,2.88Z"/>
      <path d="M7.22,115.71l1.71,1.73-.21.94c-1.02,2.13-4.24-1.05-1.5-2.68Z"/>
      <path d="M8.11,92.15c.22.76.75,2.01.26,2.71-1.76,1.06-3.04.08-2.45-1.88l2.2-.83Z"/>
      <circle cx="7.13" cy="23.68" r="1.47"/>
      <path d="M33.56,8.25c-1.2,2.05-4.38-.91-2.14-1.96,1.59-.74,2.77.88,2.14,1.96Z"/>
      <path d="M6.21,68.96c-.34-1.84.26-2.48.96-3.86,2.1,1.42,1.88,4.11-.96,3.86Z"/>
      <path d="M8.48,57.41c1.5.87-2.33,4.82-2.66,1.68-.18-1.66,1.47-2.38,2.66-1.68Z"/>
      <path d="M72.7,116.9c.49-.77,3.11-.54,2.49,1.5-.82,2.71-3.45,0-2.49-1.5Z"/>
      <circle cx="23.36" cy="117.84" r="1.47"/>
      <circle cx="48.38" cy="7.55" r="1.46"/>
      <path d="M103.5,13.76c.37.94.77,1.96-.12,2.7l-1.11.31c-1.89-.49-.84-3.76,1.24-3.01Z"/>
      <path d="M103.51,48.51c1.46,4.05-3.17,4.96-1.56.2l1.56-.2Z"/>
      <circle cx="40.34" cy="7.78" r="1.44"/>
      <path d="M8.45,83.7l-.75,2.58-1.33-.3c-1.04-.86-.31-1.98.41-2.76l1.67.49Z"/>
      <circle cx="89.5" cy="117.91" r="1.45"/>
      <path d="M103.03,30.38c1.37-.11,1.13,3.27.31,3.43-2.07-.2-2.39-2.93-.31-3.43Z"/>
      <circle cx="88.34" cy="7.41" r="1.43"/>
      <path d="M103.88,60.02c-.7.31-1.38.64-1.91-.11-2.1-2.92,2.57-4.51,1.91.11Z"/>
      <path d="M103.5,9.44c-1.73,1.08-3.13-2.46-1.26-3.02,1.72-.52,2.05,2.53,1.26,3.02Z"/>
      <path d="M103.53,21.45c.49.65.91,3.69-.56,3.5-2.52-.34-.8-4.41.56-3.5Z"/>
      <path d="M16.24,118.76c-.36.41-3.13.47-3.03-.88.22-2.96,4.29-.58,3.03.88Z"/>
      <path d="M103.5,105.22c-1.23.82-3.27-1.56-1.92-2.49,2.07-1.43,3.02,1.75,1.92,2.49Z"/>
      <path d="M6.32,101.5c.19-.16,1.37-.6,1.62-.12,1.75,2.92-1.55,4.29-2.05,1.07.11-.32.17-.73.43-.95Z"/>
      <circle cx="65.99" cy="117.87" r="1.42"/>
      <circle cx="7.24" cy="49.78" r="1.43"/>
      <path d="M39.49,118.72c-1.45-2.34,3.4-3.39,2.58-.6-.34,1.16-2.18,1.25-2.58.6Z"/>
      <path d="M33.16,116.93c.86,1.58-.24,2.02-1.62,2.61-.62-.47-1.28-1.57-.82-2.31.68-.75,1.58-.68,2.44-.29Z"/>
      <path d="M103.11,83.68l.8,2.42-1.73.99c-1.03-.09-.75-4.46.93-3.4Z"/>
      <path d="M103.5,75.15c.7,1.58.66,2.72-1.27,3.04-1.75-1.59-.86-2.98,1.27-3.04Z"/>
      <path d="M64,6.43c.51-.16,1.22-.14,1.69.14l.61,1.75c-1.47,1.35-2.24.51-2.88-1.03-.15-.39.25-.76.58-.86Z"/>
      <circle cx="103.01" cy="117.91" r="1.38"/>
      <path d="M57.52,8.65l-2.28-.12-.32-1.72c1.17-.53,2.37-.76,2.97.6l-.37,1.24Z"/>
      <polygon points="103.93 41.53 101.61 41.53 101.67 39.27 103.56 38.99 103.93 41.53"/>
      <path d="M25.49,6.43c.65.94-.87,3.52-2.18,2.19-1.38-1.4,1.14-3.69,2.18-2.19Z"/>
      <circle cx="72.72" cy="7.34" r="1.37"/>
      <path d="M81.88,6.82l-.99,1.85-1.29-.15c-1.8-1.77.47-3.22,2.28-1.7Z"/>
      <circle cx="16.45" cy="7.57" r="1.37"/>
      <path d="M103.51,96.75l-2.3-1.38,1.06-1.66,1.11.31c.95.77.24,1.71.13,2.72Z"/>
      <path d="M59.02,118.67c-1.31,1.31-3.65-1.18-1.81-2.03,1.26-.59,3.06.79,1.81,2.03Z"/>
      <circle cx="7.26" cy="7.68" r="1.34"/>
      <path d="M97.34,8.29l-2.31.24c-.86-.61-.28-2.16.65-2.47,1.3.12,1.95.92,1.66,2.23Z"/>
      <path d="M82.97,118.7l-1.8.45c-.22-.72-.82-1.98-.06-2.52,1.6-.64,2.91.68,1.85,2.07Z"/>
      <path d="M97.65,116.95c1.65,1.94-1.98,3.55-2.15,1.15-.1-1.44,1.37-2.08,2.15-1.15Z"/>
      <path d="M102.23,111.09c2.3-.78,2.12,2.68.34,2.69-1.28,0-1.34-2.35-.34-2.69Z"/>
      <circle cx="7.14" cy="111.6" r="1.29"/>
      <path d="M50.6,116.88c.09.59.17,1.76-.33,2.12-2.03,1.46-3.5-3.45.33-2.12Z"/>
    </g>
  </g>
</svg>