<?xml version="1.0" encoding="UTF-8"?>
<svg id="Layer_2" data-name="Layer 2" xmlns="http://www.w3.org/2000/svg" viewBox="0 0 99.81 86.56">
  <g id="Layer_1" data-name="Layer 1">
    <path d="M62.65,3.27h.57c2.46-3.56,7.86-4.2,9.86,0h.57c1.97-4.33,6.59-3.65,9.66-.76,1.17-.36,1.49-1.48,2.67-1.97,2.11-.88,5.12-.78,6.76,1.02,1.04,1.15.54,2.25.98,2.88.38.55,5.09.95,5.91,4.13.7,2.73-.69,6.98-3.76,7.44.58.87,1.75,1.01,2.49,1.94,2.3,2.89.38,6.36-2.11,8.29,4.22,2.55,3.34,7.51-.39,10.04v.57c2.05-.07,3.13,2.69,3.12,4.45-.01,2.4-1.71,3.19-2.74,5.01,4.38,2.54,3.61,6.79,0,9.67,3.6,2.12,4.52,8.24-.39,9.08l.24.79c3.92,1.19,3.27,7.12-.23,8.66,6.63,4.87-.67,14.88-7.52,9.44-1.84,3.55-7.16,3.17-9.29.03-3.11,3.63-6.75,2.97-10.05.1-3.1,3.13-6.76,3.14-10.04.27-3.35,3.15-6.81,2.81-10.04-.36-2.87,3.5-7.47,3.16-10.48.02-.61-.11-1.65,1.55-2.62,1.93-2.94,1.15-5.69-.12-7.55-2.35-1.93,4.44-7.71,3.37-10.24,0-1.86,2.17-3.52,3.1-6.47,2.6-2.54-.43-2.96-2.35-3.63-2.57-1.49-.48-3.94,1.59-6.51-1.19-2.16-2.33-.55-6.09.99-8.31-2.05-1.24-3.04-4.29-1.73-6.36.51-.8,2.92-2.1,2.49-2.71-2.44-.78-3.44-3.59-3.11-6.01.26-1.86,2.71-2.71,2.73-3.84-3.44-2.33-3.33-8.09.76-9.66-4.37-2.74-4.95-8.1-.38-11-4.21-2.17-3.81-7.36-.42-10.3C-.14,20.7-.62,15.98,3.94,13.69-3.95,7.11,7.78-4.62,13.79,3.65c2.4-2.95,6.81-4.5,9.1-.79h.55c2.44-3.46,6.68-3.85,8.9.02,1.78-.9,2.04-2.38,4.28-2.67,3.02-.4,3.93.59,6.11,2.27,2.4-3.84,6.77-2.62,9.64-.01,1.85-2.27,4.74-3.05,7.47-1.98,1.07.42,3.01,1.42,2.82,2.78ZM64.7,4.54c-.5.54-.68,2.24-1.79,2.14-1.82-.39-1.68-2.68-2.97-3.61-1.7-1.22-4.17-.88-5.61.56-.78.77-.81,2.25-1.3,2.87-1.17,1.48-2.57-3.01-3.68-3.65-1.35-.77-3.38-.52-4.48.58-.9.89-1.71,5.32-3.38,2.66-1.26-2.02-.83-4.05-4.53-3.63-2.94.33-3.15,4.17-4.56,4.21-1.59-.21-1.26-2.32-2.31-3.28-2.86-2.65-5.41,1.06-6.12,3.68l-1.48.06c-.24-2.92-2.31-5.58-5.38-3.25-1.37,1.04-1.35,2.88-2.91,2.9-2.56.03-1.87-2.26-3.3-3.3-2.56-1.87-7.35,1.79-7.37,4.62s2.31,4.08,4.87,4.45l-.15-3.24.95-.65,81.67.02c-1.73,3.53-.19,7.94-.37,11.75v45.02c7.82-.83,8.82-7.39.76-9.46,2.61-1.61,6.38-1.59,5.78-5.77-.42-2.85-3.26-2.72-5.33-3.19-.4-.09-.95.04-.83-.51,2.32-1.6,6.21-1.95,5.78-5.57-.3-2.49-2.51-3.15-4.57-3.76l-.07-1.66c5.2-.87,6.75-5.55,1.91-8.49-.64-.39-2.08-.12-1.89-1.39.35-.01.6.62.76.11.51-1.63.46-.48,1.83-1.18,5.11-2.64,1.65-7.66-2.98-6.27l-.02-1.68c3.2-1.14,7.62-4.17,5.35-8.1-1.74-3.01-5.85-.05-6.11-.27,2.45-3.95-1.14-8.19-4.83-5.02-1.72,1.48-1.38,4.35-3.65,3.85-.72-7.31-7.82-5.67-8.52.79-2.23.27-1.68-2.62-2.75-4-1.68-2.18-4.83-1.03-6.39.65ZM86.98,10.61H13.39s-.57.96-.57.96c8.65-.3,17.39-.14,26.09-.17,13-.05,26.23-.1,39.39-.2,2.23-.02,4.95.47,7.34.2.58-.06,1.19-.08,1.34-.78ZM11.67,10.61l-1.55.22.4,65.44c.7-.15.72-.76.78-1.34.35-3.1-.39-6.32-.42-9.27-.16-14.48.33-29.11.43-43.67.02-2.77-.68-7.2-.27-9.84.1-.62.79-.83.63-1.53ZM88.53,10.61l-1.16.2c0,.52.31,1.02.3,1.54-.41,19.82.07,39.54.32,59.49l-1,1.72h1.54s0-62.95,0-62.95ZM86.2,12.9H12.79s.01,61,.01,61h73.41s-.01-61-.01-61ZM8.58,73.18V15.82c0-.42-.6-1.55-.58-2.12-.95,1.11-2.34,1.1-3.48,1.93-3.72,2.71-1.19,7.14,2.73,7.7,1.01,2.41-2.04,1.62-3.52,3.09-3.37,3.35-.07,7.22,3.7,7.94-.03,1.73-5.53,1.31-5,6.13.3,2.77,2.87,3.29,5,4.29.03,1.23-5.24,2.29-5.01,5.77s5.39,3.94,5.39,4.66c-.96,1.62-2.92,1.26-4.21,2.35-3.65,3.08.25,6.99,3.84,7.12.1,2.46-3.42,1.69-4.59,3.71-1.92,3.32,2.88,5.7,5.75,4.78ZM90.46,65.84v10.62c0,.13-.81,1.22-.83,1.67l-80.42-.02-.57-.55-.25-3.61c-.72,1.8-1.95,1.21-3.3,1.73-2.11.81-3.82,3.73-1.52,5.4,1.52,1.1,2.37,1.07,3.67-.16.74-.69.76-1.76,1.71-1.56.69,3.71,3.32,6.85,6.78,3.49,1.21-1.17,1.14-2.43,2.31-3.49.92-.19,1.72,2.99,2.69,3.86,2.19,1.97,4.76,1.25,6.32-1.02.49-.72.26-1.98,1.41-2.1,1.52-.16,1.53,2.39,3.09,3.5,4.31,3.06,5.8-3.39,6.21-3.5,2.48-.68,1.83,1.81,3,2.98,2.16,2.19,5.13,1.42,6.77-.89.59-.83.09-2.04,1.81-2.06,1.15.03.87,1.43,1.24,2.21,1.11,2.3,4.66,2.64,6.47.89,1.05-1.01.76-2.79,2.31-3.12,1.29,0,1.19,4.04,4.24,4.3,1.82.15,3.04-.8,4-2.21.63-.93.12-2.1,1.79-2.11,1.79,0,1.13,1.94,2.42,3.13,3.18,2.93,6-.5,7.23-3.47,1.51.58,1.35,1.91,2.31,3.09,1.83,2.26,4.48,1.58,5.95-.65.51-.77.09-1.91,1.41-1.91,1.21,0,1.39,1.81,2.36,2.49,3.5,2.49,7.1-3.51,3.82-6.53-1.17-1.08-3.39-.81-2.9-3.08,3.24.62,6.26-3.11,3.06-5.58-1.51-1.16-2.62-.7-3.66-1.07-.29-.1.01-1.11-.95-.7ZM88.53,75.25H11.66s0,1.04,0,1.04h76.87s0-1.04,0-1.04Z"/>
  </g>
</svg>