<?xml version="1.0" encoding="UTF-8"?>
<svg id="Layer_2" data-name="Layer 2" xmlns="http://www.w3.org/2000/svg" viewBox="0 0 84.82 111.42">
  <g id="Layer_1" data-name="Layer 1">
    <path d="M65.12,7.62c4.36,3.16,11.73,15.2,13.82,20.35,7.38,18.22,8.13,38.04.41,56.35-13.81,32.77-49.79,36.73-69.79,6.85C-7.03,66.4-1.95,21.15,24.19,4.45c11.81-7.55,29.88-4.82,40.92,3.18ZM42.86,2.84c-2.69-.41-5.34.01-7.97.72-2.04.55-5.41,1.58-6.71,3.14,2.2-.87,5.38-.98,7.46-2,.6-.29.58-.94.7-1.02.11-.07.83.32,1.27.28,1.33-.11,3.02-.27,4.29-.5.43-.08.85.04.95-.62ZM51.36,4.77c-1.84.21-3.65-2.28-5.41-.58l5.22,1.73.19-1.15ZM58.65,7.13l-3.81-1.2,4.45,3.08.57-.18c-.44-.76-.51-1.17-1.55-.97l.34-.72ZM47.77,7.21c-1.17-.35-2.7-.3-3.95-.93l-7.91.42,3.65.75c3.02.21,6.28-.44,8.9,1.18.69-.27-.6-1.4-.68-1.43ZM26.04,8.8c.46-.41,1.15-.54.98-1.33-1.99.89-4.33,1.54-5.02,3.86h-.57c.35-2.02-1.22.38-2.13,1.16,2.18-.28,5.1-2.22,6.74-3.68ZM22.91,91.92c14.02,14.3,35.83,10.43,45.11-6.95,7.26-13.59,8.47-30.34,4.37-45.04C64.45,11.46,35.2-2.93,17.36,26.97c-10.7,17.93-9.44,49.66,5.55,64.95ZM65.8,13.85c-.23-.23-.07-.7-.35-.59-.55.21-.57.6-.39,1.15.17.5,2.96,4.96,3.66,4.26l-2.21-4.14c-.13-.34-.49-.44-.72-.67ZM23.16,14.04c-.73-.01-1.54.37-2.12.77-1.34.91-2.85,3.4-3.89,4.61-1.77,2.06-4.21,3.69-4.79,6.59l1.15-.29c-.04-.4-.05-.76.14-1.13.44-.86,3.66-4.71,4.5-5.62,1.57-1.7,3.7-2.95,5.02-4.93ZM72.2,20.6h-.76c1.33,2.82,2.77,5.6,4.15,8.42.25.52-.25,1.06.87.85-.95-3.36-2.42-6.33-4.25-9.26ZM6.56,34.5c.48-.11.86-.63,1.07-1.05.23-.47,1.76-4.69,1.85-5.12.15-.69-.19-1.27-.22-1.94l-1.03,1.86-1.66,6.25ZM6.17,38.37l-1.54-.39c-.67,1.4.81,2.04.81,2.49-.01,1.05-.96,1.82-.81,2.91,1.11.18.64-.24.82-.89.3-1.06.61-2.18-.02-3.19l.74-.93ZM77.61,38.37h-.77c.92,1.98.01,5.18,1.93,6.56.57-.87-.89-6.37-1.16-6.56ZM3.84,52.65l1.16-8.49c-1.35.71-.59,2.73-.8,4.03-.13.83-.57,1.55-.71,2.38-.07.4-.35,2.11.35,2.09ZM6.17,49.56c2.37-.37.59-2.9.38-4.24-.67-.09-.36.88-.38,1.35-.04.96.02,1.94,0,2.9ZM6.55,61.93v-6.37s-.76-4.44-.76-4.44c.16,2.85-.77,5.86-.42,8.72.08.68.66.55.68.63.12.36-.57,1.23.51,1.46ZM3.08,63.66c-.12-1.85.09-3.75,0-5.6l-.55,4.05c.35,1.19-.33,3.11.94,3.67.32-.77-.35-1.68-.38-2.12ZM77.23,63.86c-.78-.34-.9,1.03-.97,1.41-.16.91-.12,1.9-.19,2.83,1,.17.69-.15.88-.83.32-1.16.34-2.22.27-3.41ZM8.87,74.28c-.36-1.48-.69-2.99-1.15-4.45-.22-.69-.48-2.21-1.16-2.5-.51.74,1.1,8.24,2.31,6.95ZM71.83,81.24c1.8-2.19,3.24-5.66,3.47-8.5-1.81,2.36-2.4,5.74-3.47,8.5ZM14.06,86.12c-.44-1-.91-2.21-1.35-3.13-.27-.57-.25-1.15-1.14-.98-.14,2.42,1.96,4.06,2.71,6.17,1.13-.58-.17-1.95-.22-2.06ZM74.92,86.64c1.11-1.24,2.18-3.03,1.54-4.63l-1.58,2.9.05,1.74ZM65.64,95.14c-.38-.41-3,2.32-3.32,2.7-.42.5-.25,1.22-.51,1.36s-.8-.19-1.16,0c-1.76.99-2.22,2.68-4.08,3.04-.49.1-.86-.5-.58.61,2.29.36,3.13-1.92,4.44-2.74.64-.4,1.22-.03,2.25-.79.58-.42,3.56-3.54,2.96-4.19ZM30.88,103.26l-6.18-2.7c.11.48.63.83,1.03,1.09.36.24,4.35,2.29,4.59,2.36.71.21.61-.22.56-.75ZM62.56,102.1c-2.44-.46-4.12,2.23-6.16,2.11l-2.33,1.74c1.25.59,2.3.02,3.3-.76,1.28-1,1.63-1.18,3.39-2.01.56-.27,1.55.02,1.81-1.08Z"/>
  </g>
</svg>