<?xml version="1.0" encoding="UTF-8"?>
<svg id="Layer_3" data-name="Layer 3" xmlns="http://www.w3.org/2000/svg" viewBox="0 0 113.73 89.58">
  <g id="Layer_1" data-name="Layer 1">
    <g>
      <path d="M111.64,86.94c-.99.99-3.31,1.83-4.71,1.97-1.76.17-3.17-.87-4.62-.87-1.34,0-2.38.71-4.2.54-2.47-.23-5.34-2.32-7.77-2.31s-5.73,2.89-8.86,2.75c-2.69-.12-4.55-1.78-6.79-2.51-3.82-1.26-7.84,2.67-11.78,3.06-3.63.35-6.01-2.91-9.64-2.9-2.86,0-5.73,2.07-8.49,2.35-4.07.42-6.25-2.26-9.66-2.35s-6.5,2.6-9.28,2.75c-3.33.18-6.46-2.77-9.66-2.65-2.13.07-5.13,2.32-7.36,2.6-5.13.65-7.29-2.77-7.52-7.49-.24-5.01,4.08-7.99,2.84-12.88-.51-2.03-2.75-4.76-2.85-6.83-.15-3.22,2.85-6.4,2.75-9.64-.08-2.6-2.58-3.94-2.74-7.34-.2-4.29,2.55-5.84,2.7-8.14.22-3.27-2.76-5.58-3.07-8.48-.61-5.58,2.67-7.24,2.73-11.2.08-4.59-6.33-7.95-2.34-13.02,1.78-2.26,5.02-3.06,7.82-2.53,1.78.34,4,2.23,5.88,2.23,2.2,0,3.59-2.34,5.75-2.29s5.18,2.61,6.54,2.57,3-1.68,4.31-2.23c6.64-2.81,8.68,2.36,13.14,1.96,2.8-.25,4.82-3.67,8.48-3.46s7.1,3.2,9.73,3.33c1.54.08,5.98-3.16,8.8-3.38,4.77-.38,8.28,4.29,12.07,2.42s4.82-3.64,9.88-2.69c2.07.39,5.4,3.07,7.13,3.31,1.87.26,3.57-1.56,5.36-1.82,5.85-.85,8.39,2.7,7.02,8.18-.44,1.79-2.08,3.3-2.24,5.5-.21,2.91,1.83,4.75,1.97,7.32.15,2.79-1.84,4.83-1.82,7.28.02,3,2.6,5.73,2.6,8.95,0,3.55-3.08,6.47-3.15,9.66s2.53,5.57,2.75,8.87c.29,4.22-2.36,6.92-2.71,10.83-.58,6.33,5.02,9.68,2.23,16.52-.24.6-.77,1.64-1.2,2.08ZM90.42,2.58c-2.68.44-5.67,3.32-8.59,3.42-4.15.14-6.34-3.18-9.67-3.14-2.56.03-6.04,3.42-8.87,3.52-4.19.15-7.22-4.36-12-2.76-1.89.63-4.45,3.11-6.35,3.35-2.97.37-6.17-3.11-9.14-3.2-3.64-.11-6.2,3.87-10.11,2.7-1.22-.37-3.2-1.99-4.5-2.02-1.79-.04-4.32,2.33-6.8,2.16-3.2-.22-6.9-4.69-10.42-1.26-2.88,2.81.31,5.47,1.38,7.94,2.94,6.79-1.65,7.91-1.76,13.32-.09,4.55,4.27,6.96,2.54,12.18-.33,1.01-1.18,1.77-1.55,2.7-2.1,5.24,2.01,7.34,2.08,11.82.05,2.82-2.7,5.27-2.69,8.07,0,2.94,3.08,6.47,3.13,10.06.07,4.4-4.62,7.48-2.98,12.22,2.12,6.14,6.71,1.49,10.68.87,5.78-.91,7.57,2.56,11.42,2.16,2.55-.27,5.1-2.56,8.09-2.74,4.05-.23,7.03,2.9,10.08,2.68s6.06-2.93,9.62-2.67c2.88.21,5.8,2.86,8.56,2.97,4.15.16,6.26-4.36,12.13-3.17,2.28.46,4.41,2.51,6.74,2.56,3.06.07,6.04-2.75,9.27-2.73,2.45.02,4.88,1.97,6.97,2.29s4.01-.44,5.76-.38c1.9.06,2.11,1.33,4.55.3,6.86-2.89-.25-11-.28-15.51-.04-5.12,4.25-9.84,2.69-14.5-.41-1.22-1.37-2.41-1.8-3.61-2.3-6.47,3.24-9.15,2.21-14.58-.74-3.93-3.11-4.67-2.05-9.74.34-1.61,1.49-2.91,1.49-4.72,0-2.27-1.93-4.52-1.99-6.95-.09-3.44,3.64-7,2.48-10.15-1.53-4.15-5.42-.62-7.76-.18-5.08.95-7.74-4.08-12.56-3.29Z"/>
      <path d="M105.58,81.28l-3.27-1.35c-27.51.76-55.25-.56-82.65.59-2.34.1-5.14-.28-7.37-.02-1.19.14-2.02.98-3.27.78,0-1.54,1.03-1.98,1.18-3.64,1.55-16.55-1.01-35.81-.27-52.62.38-3.98.29-8.3-.17-12.27-.11-.96-1.11-1.56-.17-2.54l95.22-.97c.86.99-.61,1.26-.8,2.7-1.28,9.55,1.23,21.6-.01,31.31.63,8.36.04,16.7.19,25.06.05,2.52-.18,7.63.23,9.7.2,1.03,1.73,1.71,1.15,3.29ZM98.63,11.37c-.16-.8-.58-.51-1.07-.55-3.61-.26-7.44.15-11.1-.23l-.57.78c.63-.27,1.25,0,1.74,0h11.01ZM101.72,10.6v25.1c.9.05.68.13.77-.57.43-3.39.05-8.76.02-12.38-.02-2.67-.47-5.8-.42-8.46.02-.88,1.31-3.9-.37-3.69ZM100.18,12.14c-1.28.13-2.79.42-4.06.42-23.11.11-46.05-.68-69.18,1.07-1.93.15-12.47-.58-12.86.08.2,20.95-.71,41.93-.05,62.66l.75.41,85.39-.15V12.14ZM11.73,23.73c1.27-.68.34-2.94.36-4.05.03-2.12.45-4.19.02-6.37-1.26.39-.38,1.06-.38,1.35v9.08ZM12.12,44.39c-.39-2.87.29-6.5,0-9.46-1.08.29-.39.78-.39.97v9.08h.77c.19-.16-.37-.47-.39-.58ZM102.75,36.08h-1.06s.42,41.73.42,41.73h1.06s-.42-41.73-.42-41.73ZM12.12,66.22c-1.27-.1-.55.11-.55.64.02,3.91-.36,7.83.17,11.72l.76-.18-.38-12.17ZM32.2,78.19c-4.96-.15-9.91-.33-14.87,0-.77.05-1.12-.31-.95.77.6-.27.98-.42,1.67-.37,3.76.28,7.84.65,11.67.39.59-.04,2.29-.08,2.49-.78ZM42.44,78.19h-8.3c-.09,1.28.11.55.64.55,3.53-.02,7.04.06,10.55.22.34-1.37-2.29-.76-2.89-.77ZM69.67,77.94l-23.95.11v.91s23.95-.11,23.95-.11v-.91ZM77.01,78.19v.79h23.95v-.79h-23.95Z"/>
    </g>
  </g>
</svg>