<?xml version="1.0" encoding="UTF-8"?>
<svg id="Layer_3" data-name="Layer 3" xmlns="http://www.w3.org/2000/svg" viewBox="0 0 106.66 85.71">
  <g id="Layer_1" data-name="Layer 1">
    <path d="M.15,3.36C-.08,2.99,0,2.37.11,1.94,11.84.39,23.84,1.06,35.69.91c17.8-.22,35.17-.46,52.99-.53,3.65-.02,8.09.61,11.61.37,2.25-.15,4.37-1.47,6.37-.22l-.57,84.41c-1.78,1.45-3.74.38-5.45.37-32.79-.2-65.62.19-98.48.02-3.74-.21-1.21-2.8-1.04-4.95.05-.69-.32-1.28-.29-1.82.96-15.25.02-31.05.02-46.36,0-3.8,1.04-27.01.16-28.38-.16-.25-.76-.29-.86-.46ZM44.23,6.29c.41-.47,2.92-2.83,2.93-3.04.04-.7-.87-.32-1.06-.31-2.76.09-2.25.48-3.87,1.25-.43.2-1.11.09-1.74.42-1.07.55-3.66,4.33-4.52,5.4,1.44-.91,4.34.19,5.3-.27.72-.34,2.29-2.67,2.96-3.45ZM57.6,3.06c-2.64-1.1-2.36.23-3.65,1.56-.81.84-1.84,1.02-2.13,2.5l-2.71,2.5c3.74.2,5.98-4.25,8.49-6.56ZM62.59,2.7c-.82.31-1.46-.03-2.25.56-.7.52-4.72,4.51-5.25,5.2-.3.39-.75.49-.57,1.16.87-.16,2.75.29,3.39-.08.3-.17,3.07-4.21,3.73-4.96.37-.41.81-.66,1.34-.8l-.39-1.08ZM69.19,2.67c-.96.3-2.57.18-3.37.5-.51.2-1.62,2.34-2.03,2.79-.92,1-2.11,1.79-3.04,2.82-.16.17-.72-.03-.44.84l3.39-.06,5.49-6.88ZM88.5,3.44l-.19-.77c-2.21,2.14-4.66,3.96-6.37,6.56l2.92-.35c.62-1.7,4.25-4.41,4.8-5.63.08-.17.1-.63-.19-.57l-.96.77ZM94.29,2.67l-2.15.36-5.57,6.59c2.95-.24,5.18-3.41,6.95-5.6.35-.44.94-.62.77-1.35ZM28.25,3.06c-1.54-.14-2.58,2.42-3.47,3.56-.75.96-2.75,1.61-1.93,3.39,1.01.75,5-3.95,5.4-4.83.08-.17.1-.63-.19-.57l-2.52,2.12,2.71-3.66ZM28.93,9.92c1.28-2.09,3.42-3.82,4.92-5.7,1.15-1.45-.67-.98-1.64-1.08l-6.28,7.64,3-.86ZM39.06,3.06c-2.88-.12-3.61,3.74-6.17,4.83l-1.55,2.12,2.53-.36,5.19-6.59ZM52.19,3.05c-2.85-.34-2.83,1.37-4.22,2.54s-3.48,1.77-4.28,4.02l1.38-.36.34.75c.47-.36,1.09-.42,1.56-.77.38-.27,3.24-3.48,3.57-3.95.36-.51-.8.18.75-.99.47-.35,1.07-.44.89-1.25ZM73.82,3.44c-.9-.21-1.63-.62-2.46.04l-5.26,6.14c3.87.29,5.45-3.76,7.72-6.17ZM79.62,3.44l-1.31-.41c-.38,1.33-1.34.5-2.08.88-.27.14-3.72,4-4.15,4.54-.3.39-.75.49-.57,1.16,3.96.31,5.37-4.05,8.11-6.17ZM15.12,3.44c-.61,0-1.04-.2-1.58.25-.23.19-3.26,3.51-3.45,3.79-.22.32-.53.4-.38.97l1.93.98,3.47-5.99ZM20.52,3.44l-2.71.18.39.78c-.81.49-5.44,5.9-5.02,6.37l3.87-2.5,3.47-4.83ZM25.16,3.44l-2.16.36-5.57,6.2,3.36-2.04,4.36-4.52ZM82.7,3.44c-.28-.31-1.8,1.32-2.06,1.59-1.27,1.31-2.79,3.01-3.73,4.59,2.27-.14,4.07-2.83,5.22-4.62.33-.51.77-.74.57-1.55ZM92.36,9.23c.69.63,3.05-2,3.46-2.52s1.84-2.02.58-2.5c-.49-.18-2.17,2.57-2.88,2.9l-1.17,2.11ZM100.47,4.6c-.4-.46-3.88,2.73-3.09,3.86.45.54,3.69-2.79,3.09-3.86ZM101.24,10.77c.23.18,2.65-1.94,2.88-2.33.39-.65.49-1.91.59-2.69l-6.74,5.41-.98,3.27.77.19,1.56-3.85.39,1.54c1.03-.59.82-1.82,1.73-2.71,1.21-1.2-.01,1.24-.19,1.16ZM9.71,12.71c-1.4-4.39-4.01.7-5.99,1.95l-.18,3.46c1.76-.91,3.81-4.6,5.21-5.45.4-.24.59-.03.96.04ZM94.28,11.56c-6.64-.34-13.32.36-19.89.35-17.68-.02-35.18.27-52.9.62-1.46.03-6.93.15-7.94.76l-.59,60.06,80.56.2c1.16-.69.32-1.74.4-2.7.64-7.49.43-15.6.34-23.19.92-11.97.4-24.14.01-36.11ZM104.72,11.55l-3.66,2.71c-3.15,2.76-4.31,3.91-3.67,8.49.82-.5,1.38-1.93,2.06-2.57.95-.89,4.2-2.6,4.7-3.63.39-.8-.35-3.77.57-4.99ZM10.87,14.64c-.86-.89-5.25,3.42-5.8,4.44-.28.52-.07,1-.34,1.57-.3.64-1.15,1.03-1.19,1.22-.18.84.09,1.93,0,2.82,1.14-.61,1.09-2.69,2.7-2.32l-.77-.57,3.09-2.71-.77-.57c2.52.05,3.41-1.45,3.09-3.86ZM102.27,25.32c2.15-2.26,2.11-2.95,2.06-6.04-2.09,2.02-4.9,2.99-6.88,4.88l-.06,5.16.38-1.16c1.53.67.88.08,1.45-.37.87-.69,2.34-1.72,3.05-2.47ZM10.87,20.05c-.92-.94-3.7,3.12-4.23,3.69-2.16,2.35-3.88,2.43-3.1,6.74,1.74-.71,2.43-2.51,3.61-3.73,2.13-2.2,4.59-2.71,3.72-6.7ZM10.87,26.23c-.67-.17-.77.28-1.16.57-.93.71-6.03,5.87-6.17,6.58-.13.66.04,1.43,0,2.12.93-.28.68-.87.38-1.54,1.16.29,1.6.35,2.16-.77l.92.39c.75-2.8,4.45-3.78,3.86-7.34ZM103.95,30.48l.39-4.25c-.67.57-1.61.86-2.29,1.38-.74.57-4.22,4.02-4.59,4.69-.57,1.03.05,2.15-.07,3.2,1.81-1.74,4.26-3.16,5.44-5.39l1.11.37ZM7.06,37.12c3.25-.66,3.86-3.08,3.41-6.26-.94.3-.37,1.21-.96,1.9-.78.91-6.16,4.99-6.31,5.65-.11.51.58,1.74.33,2.49l1.15-1.16.19,1.16,2.18-3.78ZM104.33,32.41l-6.76,5.01-.57,4.26c1.05-.34,1.51-1.72,2.15-2.3.37-.33.92-.34,1.17-.56.63-.58,3.38-3.06,3.66-3.48.6-.91.32-1.94.36-2.93ZM10.48,37.82c-.62-.59-6.76,5.41-6.94,6.38-.17.88.08,1.97,0,2.89,1.64-.96,2.73-2.87,3.99-4.11.48-.47,2.82-1.97,2.92-2.12.15-.2-.84-2.28.03-3.03ZM99.94,45c1.65-2.25,6.21-3.31,3.82-6.79-2.65,2.75-7.45,4.18-6.37,8.87l2.55-2.08ZM3.91,52.1c.31-2.3,5.66-4.6,6.38-5.79.5-.84.06-2.48.19-3.47-2.41,1.84-4.69,4.16-7.12,6.16l.55,3.11ZM104.33,44.38c-.47-.53-6.7,4.73-6.98,5.2-.55.89-.14,2.99-.35,4.06.93-1.41,2.9-2.13,3.09-3.87l1.15.39c.07-.77.43-1.4.95-1.95,1.46-1.55,2.75-.47,2.14-3.84ZM5.46,54.04c1.37.6,1.92-1.33,2.73-2.1,1.42-1.34,2.48-.57,2.29-3.7-.33-.39-3.35,2.75-3.77,3.09-.27.22-.8.21-1.14.5-.57.49-.72,2.03-2,1.48l-.04,3.04.77-1.54.38.77.98-.38-.2-1.16ZM101.25,55.19c.45-1.05,2.44-1.42,2.89-2.32.14-.28.81-2.73,0-2.69-.85,1.61-2.02,1.43-3.4,2.39-1.28.88-2.47,1.92-3.74,2.82l.77.38c-.75.34-1.47,3.17-.2,3.28l2.13-2.7.76,1.15c.07-1.69,1.19-1.73,2.32-2.51l-1.54.19ZM9.99,56.25c.55-.49.72-2.68.3-3.37-2.19,2.8-7.85,4.28-6.76,8.49l1.15-.97c-2.04-.86,1.17-1.28,1.17-2.51l.57,1.15c.81-.73,1.5-1.61,2.32-2.33.35-.3,1.01-.27,1.24-.48ZM104.72,55.58c-.56-.11-.71-.02-1.14.26-2.17,1.42-4.24,3.97-6.4,5.52l-.18,3.87,2.44-2.96c1.33-.61,3.71-2.02,3.74-3.61l1.15.39.39-3.47ZM9.32,59.45c1.41-.03,1.42-1.65.97-2.71-.55.96-7.83,6.58-6.76,7.72,1.59.21,2.46-1.28,3.58-2.07.66-.47,1.33-.27,1.38-.33.39-.54.28-1.61,1.61-2.04l-.77-.57ZM103.85,64.76c.32-.64.15-2.61-.09-3.38-2.1,3.19-7.7,4.06-6.76,8.88,1.35-2.28,5.24-2.59,4.63-5.41l1.15,1.15c-.14-.76.97-1.06,1.06-1.25ZM10.42,65.56c.3-.48.06-2.64-.52-2.64-2.71,2.37-7.07,4.26-6.37,8.49,1.46.3.25-.81.55-1.18.6-.48,2.82-1.25,3.2-1.63.23-.23.32-1.04.86-1.65.67-.76,2.21-1.27,2.28-1.39ZM104.33,67.17c-1.25-.35-.76,1.19-1.23,1.48-.29.17-.92-.05-1.35.18-.22.12-.89,1.28-.97,1.31-.28.1-.67-.37-1.31.08-.45.32-.25.99-.54,1.38-.27.36-2.46,2.77-2.32,2.9l1.92.78c.61-3.67,6.04-4.46,5.8-8.11ZM10.42,70.98l.05-3.04c-.91,1.26-2.36,1.29-3.3,1.91-.54.35-.69,1.12-1.08,1.43-1.78,1.43-3.38,1.65-2.56,4.38.57.13.24-.48.68-.74,2.54-1.48,2.72-1.72,4.91-3.52.39-.32,1.18-.3,1.29-.42ZM103.89,74.83l.06-2.64c-1.04.56-5.41,3.81-3.86,5.02l3.8-2.37ZM10.1,72.96c-2.46.75-3.63,3.91-6.17,4.26v3.45s6.17-7.72,6.17-7.72ZM12.41,75.67c-.98-.08-1.54-.1-2.35.54-.28.22-4.5,4.9-4.72,5.25-.11.16-.71,1.85-.65,1.93l2.27-.43c-.06-3.99,3.89-4.41,5.45-7.29ZM17.43,75.67c-.84-.08-1.39-.07-2.15.36-.53.3-4.05,4.05-4.67,4.79-.28.33-1.57,1.91-1.29,2.18,3.78-.44,5.8-4.72,8.11-7.33ZM22.84,75.67c-4.03-.75-5.93,4.56-8.5,6.94,1.21.07,2.24.49,3.29-.37l5.2-6.57ZM27.86,75.67c-1.75-1.44-8.97,6.99-8.5,7.33l2.26-.08,6.24-7.26ZM34.43,75.67c-4.45-.57-3.97.8-6.19,3.27-.6.67-3.82,3.44-3.46,4.06,1.08-.45,2.43.44,3.47-.2.33-.2.69-1.12,1.15-1.55,1.88-1.79,3.84-3.21,5.03-5.58ZM39.83,75.67c-3.96-.27-3.38.94-5.41,3.27-1.22,1.4-2.63,2.68-3.85,4.06,3.67.89,4.71-2.61,7.33-4.45l1.94-2.89ZM45.62,75.66c-1.42.41-1.96-.29-3.29.77-.59.47-4.31,4.53-4.81,5.23-.38.52-.87,1.02-.78,1.73l3.31-.74,5.57-6.98ZM52.19,75.67c-.94.13-3.33-.17-4.06.34-1.47,1.02-3.99,5.56-5.6,6.99,3.87.53,3-.27,4.87-2.27,1.54-1.65,3.48-3.14,4.79-5.06ZM56.83,75.67c-2.95-.1-5.11,2.9-6.72,5.06-.27.36-1.7,2.01-1.39,2.28l3.07-.02c-.92-1.24,5.68-6.84,5.04-7.32ZM62.62,75.67l-3.45.59-5.43,6.74,3.4-.08,5.48-7.26ZM68.03,76.05c-1.25-.39-1.94-.62-3.08.2-.69.5-4.1,4.63-4.84,5.59-.3.39-.75.49-.57,1.16,3.84.69,6.2-4.46,8.49-6.95ZM73.82,76.43c-.1-1.07-2.71-.73-3.19-.41-1.35.91-4.02,5.72-5.69,6.98.83-.09,1.81.22,2.61-.1.18-.08,2.67-2.34,2.95-2.64,1.09-1.16,1.85-3.3,3.32-3.83ZM79.23,75.67c-4.53-.54-6.09,4.3-8.5,7.33,4.01.59,5.78-5.05,8.5-7.33ZM83.86,76.06c-2.29-1.07-2.23.51-3.46,1.74-1.67,1.66-3.47,3.09-4.64,5.2,3.21.2,2.85-1.49,4.25-3.28.73-.93,1.64-1.29,2.32-1.96.35-.35.01-.94.36-1.13.46-.26,1.27.08,1.18-.58ZM89.27,75.67l-2.63.26c-2.45,1.71-4.62,4.73-6.64,7.07,3.74.54,4.35-2.38,6.37-4.64.9-1.01,2-1.71,2.9-2.7ZM93.52,75.67c-.88,0-1.75-.21-2.54.36-.12.09-1.86,1.88-2.09,2.14-1.17,1.31-2.29,3.43-3.47,4.83.42-.05.78.3,1.2.21.9-.19,5.52-5.32,6.34-6.38.3-.39.75-.49.57-1.16ZM95.58,77.09c-.27-.18.1-.8-.51-.65-.76,2.35-2.89,4.28-4.45,6.18l.38.76,1.74-.38-.77-.76c2.18.16,3.75-2.43,4.88-4.06-.03-1.17-.79-.77-1.27-1.09ZM99.58,80.04c-1.87-1.41-3.91,3.06-3.74,3.35.86-.56,2.18.06,2.91-.36,1.16-.67,2.15-2,.83-3Z"/>
  </g>
</svg>