<?xml version="1.0" encoding="UTF-8"?>
<svg id="Layer_2" data-name="Layer 2" xmlns="http://www.w3.org/2000/svg" viewBox="0 0 151.79 106.47">
  <g id="Layer_1" data-name="Layer 1">
    <path d="M37.56,1.11c.56-1.83,1.17.12,1.79.15,1.71.08,2.64-1.45,4.26-.03.81-1.28,4.68-.16,6.5-.16,22.33,0,45.34-.81,68.04-.79,9.88,0,22.54-.71,32.08.15.55.05,1.1-.03,1.56.37l-1.19,105.49-149.68.19c-1.45-1.34-.43-2.97-.43-4.3-.15-32.2-1.05-65.01.02-97.24.02-.56-.53-1.22-.31-1.9.37-1.16,2.61-1.36,3.61-1.42,11.05-.71,22.69.07,33.75-.5ZM86.29,2.38l-4.94.47-8.21,8.6-1.52,2.13,4.54-.1,8.61-8.97c-.01-.46,2.01-1.69,1.53-2.13ZM92.08,2.38l-4.74.35-9.94,10.84c1.4-.13,3.53.36,4.75-.36.3-.18,3.01-3.75,3.73-4.47,1.47-1.47,3.16-2.78,4.67-4.23,0-.53,1.94-1.55,1.52-2.13ZM97.49,2.37c-1.09.42-3.2-.07-4.15.48-.17.1-.47.91-.84,1.27-3.18,3.09-6.57,5.92-9.29,9.45.93-.18,3.11.31,3.78-.08.11-.06.48-.92.83-1.28,2.88-2.95,6.43-5.7,9.11-8.67.35-.38.71-.55.56-1.17ZM102.9,2.38c-1.07.34-2.63.19-3.58.47-.54.16-7.34,6.79-8.26,7.77-.8.86-1.62,2.06-2.45,2.95.99-.19,3.47.33,4.17-.08.11-.06.48-.92.83-1.28,2.31-2.37,5.23-4.68,7.34-7.05.31-.35,2.27-2.49,1.95-2.78ZM108.69,2.76l-3.85-.21-11.21,11.02,4.24-.2,10.82-10.61ZM114.48,3.14c.55-.77-3.43-.64-3.99-.35-.64.92-11.41,10.24-10.69,10.78l3.85-.2c3.49-2.93,6.36-6.55,9.65-9.67.31-.29.74-.56,1.18-.56ZM119.89,2.37c-1.06.93-2.68-.14-3.46.18-.34.14-4.67,4.32-5.41,5.04-1.23,1.2-2.42,2.77-3.46,3.86-.64.67-1.74.92-1.95,2.11l4.07-.36,8.7-8.69,1.52-2.14ZM125.3,2.38l-4.07.76-10.61,10.43,3.69-.36,10.99-10.83ZM129.55,2.38c-.77.32-2.11,0-2.71.17-1.18.35-8.86,8.52-10.7,10.14-.26.23-.74-.02-.49.88,1.27-.03,2.78.27,3.86-.58.7-.55.59-1.24.92-1.6,2.88-3.12,6.21-5.91,9.12-9.02ZM134.18,2.38c-.93,0-3.17.05-3.86.59-.35.27-.3.94-.68,1.33-2.87,2.96-6.22,5.58-8.97,8.7.45.64.99.7,1.72.58,2.18-.36,9.67-9.31,11.79-11.2ZM138.04,2.38l-2.99.5-10.53,10.7c3.87.93,5.03-2.15,7.32-4.44,1.49-1.49,3.59-3.14,4.9-4.57.27-.29,1.56-1.92,1.29-2.18ZM141.91,2.38l-2.18.53-10.57,10.67c.68-.04,1.46.13,2.12,0,1.01-.2,8.1-7.86,9.28-9.26.23-.27,1.44-1.86,1.35-1.93ZM146.93,2.38c-.73.36-2.57.22-3.01.47-.17.1-.24.66-.47.87-2.86,2.57-6.1,5.67-8.74,8.45-.2.21-.98,1.36-.91,1.4l2.15-.36,10.99-10.83ZM28.74,2.76c-.84.7-2.61-.11-2.7,0-.06.07.12.72-.1,1.04-.5.71-5.41,5.5-6.45,6.51-1.1,1.07-2.89,2-3.88,3.26,2.45.44,5.19-.23,4.25-3.08.16-.15.92.36,1.31.3.84-.14,5.69-5.78,6.8-6.68l-1.54-.57,2.32-.77ZM33.76,2.76l-3.39.1-10.13,10.71c4.83.03,6.98-5.88,11.06-7.86l2.45-2.95ZM39.17,2.76l-3.97.37-10.7,10.44c4.33.76,4.37-.74,6.95-2.9,2.34-1.96,5.27-4.3,7.15-6.75.3-.39.75-.49.57-1.16ZM45.35,2.76l-3.85.19-10.82,10.62c5.43,1.23,7.19-4.22,11.07-6.7l3.61-4.11ZM51.14,2.76l-3.86.21-10.81,10.6c3.42.46,4.51-.24,6.82-2.45,2.72-2.6,5.15-5.72,7.86-8.36ZM56.93,2.76l-4.24.2-10.44,10.61c1.42-.05,3.01.34,4.23-.59l10.44-10.21ZM62.34,2.76c-1.15.12-2.57-.2-3.66,0-.82.16-7.96,7.42-9.1,8.67l-1.53,2.13,3.85-.21,10.43-10.59ZM68.14,2.76c-1.35.15-3.33-.41-4.47.35-.5.33-.68,1.1-1.07,1.44-.67.58-9.65,8.63-9.13,9.01l4.65-.19,10.03-10.62ZM59.25,13.58h5.41s-.07-.47.13-.62c3.76-2.99,6.48-7.09,10.29-10l-5.62.17-10.21,10.45ZM80.11,2.76c-1.03.1-2.29-.18-3.27,0-1.44.27-6.55,6.47-7.93,7.91-.33.35-3.37,2.3-2.7,2.9l4.17-.08,9.74-10.73ZM24.49,3.15c-3.72-.05-4.98,2.7-7.25,5.02-.7.71-2.41,1.44-2.99,2.72-.19.42.21.93.11,1.08-.03.04-1.44.16-.67.83.45.39,3.24-2.18,3.87-2.5l6.94-7.15ZM13.68,3.54c-1.08.32-2.61.19-3.57.48-1.1.33-2.05,1.8-2.59,2.01s-1.6-.63-1.56.2l2.65.85c.35,2.8.96.03,1.33-.36.16-.17.69-.06.88-.24.98-.92,1.88-2.02,2.86-2.95ZM19.08,3.53c-.95.49-2.47-.14-3.21,0-.28.05-.29.56-.37.6-2.09.93-1.76,1.34-3.18,2.87-.74.8-2.42,1.08-2.12,2.71.93-.64,1.26.62,1.79.75.86.22,4.57-4.29,5.54-4.81l1.55-2.12ZM148.86,3.54l-6.98,5.58c-.46,1.11-4.2,3.64-3.06,4.84,1.7-.76,2.39-2.59,3.67-3.86l.58.58c.02-1.36,6.76-6.09,5.79-7.15ZM148.21,9.07c.81-.78,1.79.21,1.57-2.14-.04-.47.29-.91-.54-1.08.26,2.3-.34,1.03-.97,1.52-2.3,1.78-6.16,4.68-8.11,6.6-1.26,1.24-1.57,2.49-1.35,4.24.64-.06.4-.94.93-1.58,1.04-1.25,3.93-2.95,5.1-3.98,1.26-1.11,2.28-2.55,3.37-3.58ZM7.5,9.72c-3.88-2.1-5.16,2.15-4.63,5.4l4.63-5.4ZM143.97,16.79c1.99-2.09,6.25-3.82,5.66-7.08-.78.42-1.29,1.56-1.91,2.13-2.25,2.1-7.11,4.81-8.54,7.3-.35.61-.66,1.55-.17,2.14.62-.37,2.66-2.85,3-3.01.36-.16.85.35,1.28-.03s.41-1.19.68-1.47ZM9.38,11.31c-.35-.21-.77-.05-1.1.14-.82.45-5.27,5.14-5.4,5.8-.15.77.06,1.7,0,2.5.5-.95,1.53-1.04,1.94-1.42,1.74-1.64,3.16-4.62,5.39-5.54l-.82-1.48ZM11.48,14.63c-.27-.45.17-1.16-.5-1.05.22,1.18-1.02,1.54-1.55,2.51l-.58-.58c-2.06,2.96-6.24,4.99-6.37,8.88l9.65-9.46c.07-.34-.51-.06-.65-.3ZM148.53,15.96c.07-.08.59.21.72.11l.19-2.5c-1.55,1.39-2.88,3.07-4.44,4.44-1.03.91-5.7,4.12-6.08,4.91-.34.7,0,1.82-.1,2.61.4.46,3.02-2.74,3.52-3.22,2.54-2.42,3.99-3.75,6.2-6.36ZM136.51,15.23l-121.32.03.02,75.6,121.32-.03-.02-75.6ZM11.11,20.27c1.72-.85,2.63-2.56,1.61-4.38L3.06,25.94l-.58,3.08,8.63-8.75ZM149.64,20.91l-.2-3.86c-1.16,2.51-4.02,3.73-6,5.59-1.51,1.42-2.51,3.64-4.54,4.53l-.08,3.78,1.91-2.52c2.65-1.79,4.92-5.1,7.34-6.97.49-.38.93-.63,1.57-.56ZM8.41,27.61l4.67-4.36c-.32-.82.48-3.14-.37-3.5-.33,1.07-.84,1.84-1.54,2.7-1.52,1.88-7.46,6.68-8.11,8.11-.31.69-.38,2.01,0,2.69,1.98-1.69,3.56-3.8,5.35-5.66ZM139.2,35.2c.95-2.96,9.57-7.78,10.04-10.24.17-.88-.08-1.97,0-2.89-.67-.05-.27.81-.77,1.34-1.59,1.69-4.41,3.36-6.18,5.02-.51.48-3.08,2.98-3.27,3.29-.36.58-.24,1.79-.2,2.51.02.44-.25,1.06.38.96ZM12.28,27.62c.2-.25.86-.33.9-.69l-.27-1.38-9.94,9.74-.09,3.39c1.4-1.35,2.24-3.35,3.47-4.83,1.74-2.07,4.08-3.99,5.94-6.24ZM145.88,32.61c2.15-2.07,4.48-1.31,3.17-5.91-1.19,2.28-9.92,8.23-10.23,9.86-.19.99.1,2.24,0,3.27,1.79-2.36,4.32-3.93,6.45-5.91.32-.3.28-1,.61-1.32ZM3.25,42.93c.7-2.68,3.66-4.67,5.4-6.77.69-.83,4.23-5.11,4.43-5.61.26-.64.26-1.25.2-1.92-3.8,2.93-6.42,6.89-9.27,10.64-.83,1.09-1.34-.09-1.15,2.69.03.44-.26,1.06.38.96ZM143.2,39.59c2.69-2.44,7.12-3.79,6.04-8.25l-10.23,9.27v3.47c1.42-1.27,2.82-3.26,4.19-4.5ZM12.79,35.87c.53-.66.74-2.22.31-2.98-2.11,2.61-4.97,4.78-7.14,7.26s-3.75,3.96-3.09,7.41l1.17-2.8c2.55-2.5,4.95-5.15,7.31-7.84.43-.49,1.21-.76,1.44-1.06ZM149.25,42.74v-7.15l-5.39,5.62-4.95,3.73.11,3.39,9.28-8.88.58.96c-.08.36-.71.06-1.02.32-2.02,1.71-3.82,3.98-5.81,5.41l-3.25,3.53c.27.84-.47,2.86.41,3.29.79-2.11,3.22-4.23,4.95-5.77.78-.7,1.78-.85,2.18-1.19.26-.22,2.88-3.06,2.92-3.28ZM3.85,51.29c.34-2.26,1.6-1.66,2.69-2.94.79-.93,1.02-2.06,1.72-2.92,1.87-2.29,6.85-5.08,4.45-8.68.31,1.65-1.05,1.5-2.33,2.69-2.36,2.19-4.61,5.26-6.42,7.89-.27.39-.91.55-1,.71-.43.73.1,3.15-.09,4.16l.98-.91ZM2.86,53.94c-.38,1.48.28,4.32,0,5.99.71.05.26-.93.6-1.53,1.39-2.48,4.69-5,6.24-7.09.34-.46.63-2.33.96-2.52.42-.25,1.29.06,1.48-.07.05-.03-.33-.67-.23-1.18.15-.78,1.27-.98,1.4-3.63.02-.45.27-2.14-.4-2.14-.38,1.73-2.45,2.92-3.35,3.99-.94,1.12-1.85,2.7-2.84,3.92-.77.94-3.62,3.37-3.85,4.26ZM148.09,49.49c1.49-.8,1.24-3.02,1.15-4.45-.03-.43.26-1.06-.38-.95-.11,1.88-1.92,2.21-3.1,3.27-1.1.98-2.5,2.15-3.49,3.09s-2.07,2.36-3.25,3.3l-.2,4.24c1.75-1.17,2.53-4.11,5.02-3.86-.93-1.23,1.4-2.36,2.18-3.23s1.32-2.14,2.26-2.95l-.19,1.54ZM10.07,56.31c2.02-2.61,3.42-3.87,3.23-7.4-.02-.44.25-1.06-.38-.96,0,.46-.3.82-.58,1.16-1.7,2.11-8.67,9.87-9.26,11.6-.5,1.48-.08,3.1-.21,4.62.65-.17.49-1.21.98-1.92,1.71-2.46,4.42-4.77,6.22-7.1ZM149.16,54.05c.14-1.17.15-2.42.08-3.6-.02-.43.25-1.06-.38-.96-.14,1.37-1.49,1.71-2.33,2.5-1.19,1.12-7.54,7.24-7.71,8.12-.25,1.3.15,3.06,0,4.43.9-.32.67-1.39,1.15-2.13,2.02-3.14,6.38-5.85,9.19-8.37ZM7.34,65.56c2.8-3.49,6.96-6.84,5.95-11.81l-10.21,12.76-.38,2.49.55,2.89c-.17-2.32,2.6-4.47,4.09-6.34ZM149.24,55.29l-8.87,8.31c-1.32,1.69-1.92,2.46-1.55,4.81l5.78-5.99c.66-.63,4.37-3.43,4.56-3.74.37-.64-.08-2.53.08-3.39ZM149.24,59.92l-5.77,5.24c-2.21,1.32-4.52,3.34-4.76,6.05-.04.47-.75.77.29.68,2.57-3.3,6.78-5.21,8.7-8.88.54-.1.74,1.03.69,1.29-.16.86-7.85,7.8-9.4,8.35l-.56,4.26c1.73.11.64-1.44.94-1.93s3.21-1.66,3.93-2.31c.52-.48.19-1.14.7-1.56,1.39-1.15,1.87-1.53,3.28-2.9.42-.41,1.28-.81,1.46-1.06.48-.66,1.12-4.08-.25-3.76l-.02-.56c1.36-.36.64-1.69.77-2.9ZM12.77,64.42c.67-1.07.75-2.55.34-3.73-2.29,3.16-5.65,6.03-7.92,9.07-1.54,2.06-2.84,3.66-2.31,6.37l6.57-8.29.57-1.75.39,1.16c.42-.98,1.93-2.14,2.37-2.84ZM11.59,69.8c1.03-1.34,2.31-2.58,1.52-4.47-2.95,3.04-5.33,6.51-7.93,9.84-1.19,1.52-3.49,2.72-2.11,5.22,2.37-3.82,5.79-7.05,8.53-10.59ZM147.95,72.14c1.21-1.35,1.75-2.65,1.11-4.49l-10.14,10.51-.48,3c.49.39,2.88-2.37,3.33-2.84,1.88-1.99,4.31-4.1,6.18-6.18ZM10.72,75.5c.2-.25.75-.37,1.01-.7,1.31-1.7,1.93-2.47,1.55-4.83-2.4,2.06-4.23,4.83-6.31,7.2-.36.41-1.11.72-1.62,1.28-1.78,1.98-2.63,3.03-2.88,5.8l3.23-3.35c2.17-.87,3.54-3.58,5.01-5.4ZM149.24,72.67c-.67-.17-.77.27-1.16.57-3.41,2.69-5.96,6.84-9.19,9.74-.43.72-.48,1.8.12,2.43l9.46-9.65c.12.94-.5,1.6-1,2.28-1.54,2.09-3.8,3.83-5.59,5.62-.95.96-1.48,2.37-3.01,2.58l-.05,4.97h1.16s-.77.78-.77.78l.58.76,8.88-9.27v-2.31c-2.69,2.06-5.14,5.78-7.72,7.72-.37.28-2.26,1.45-1.73.2.17-.39,4.98-5.43,5.77-6.21.69-.68,1.08-1.43,1.17-1.5.44-.33,2.38-1.02,2.63-1.46.76-1.33-.89-5.56.47-7.25ZM11.61,79.87c.9-1.16,1.82-2.98,1.49-4.5-1.23,1.25-2.45,2.84-3.66,4.06s-5.68,4.96-6.19,5.87c-.29.52-.46,1.05-.39,1.65,1.49-.87,1,.29,1.92.77.03-.74.32-1.45.77-2.02,1.43-1.82,4.66-4.04,6.05-5.83ZM8.42,86.34c1.16-1.29,3.93-3.55,4.41-5.06.11-.34.36-1.38-.3-1.27.03.64-.16,1.08-.56,1.57-1.98,2.45-7.8,6.84-8.8,9.35-.25.62-.4,1.14-.3,1.82.93.19.69-.18,1.01-.72,1.21-2.04,2.67-3.6,4.54-5.69ZM11.61,87.59c.78-.87,1.8-2.15,1.11-3.34-2.25,2.52-4.76,4.77-7.16,7.13-.81.79-1.38,2.75-2.69,2.13v1.93c2.2-.27,2.67-2.94,3.58-3.75,1.3-1.16,3.78-2.57,5.16-4.11ZM146.42,90.33c.4-.28,1.85-2.51,2.13-3.11.3-.66,1-1.69.12-2.19-1.38,1.78-3.01,3.46-4.62,5.03-.94.91-3.49,2.29-3.32,3.61.01.09,1.2,1.28,1.55,1,.69-1.17,2.14-3.04,3.5-3.08l-.39-1.15c.32,0,.78.08,1.04-.1ZM12.9,88.51l-4.28,3.28c-.36,1.61-1.41,1.41-1.71,1.72-1.79,1.81-4.93,4.36-4.04,6.97.67.04.27-.81.77-1.34,1.33-1.43,2.59-2.83,3.85-4.26,1.55-1.75,4.19-3.34,4.65-5.59l.76.77v-1.54ZM148.86,90.05c-.65-.15-.78.21-1.14.59-1.65,1.69-3.28,3.48-4.65,5.4l.78.95c1.63-2.47,6.06-3.6,5.01-6.95ZM12.78,93.02l-.06-1.43c-2.31,2.46-4.62,5.02-6.75,7.65-.43.52-1.09,1.09-.2,1.61l7.02-7.83ZM51.91,93.52v-.76c-1.06.59-2.22.14-3.3.75-.47.27-4.67,4.4-5.44,5.18-1.71,1.72-3.42,3.9-5.16,5.65.68-.04,1.46.13,2.12,0,1.35-.27,5.19-5.12,6.52-6.42,1.49-1.47,3.59-3.09,5.26-4.39ZM63.12,93.14c-4.39-1.06-7.26,2.9-10.21,5.43l-4.85,5.76,3.77-.1,11.3-11.09ZM69.3,92.76c-1.29.53-2.77.18-3.96.47-2.06.51-4.68,4.37-6.72,5.45l-5.15,6.04c1.52-.7,3.81.02,5.13-.75,1.2-.7,4.77-5.37,6.11-6.74.79-.8,2.44-1.77,3.17-2.54.38-.4.48-1.45,1.42-1.94ZM74.7,92.76c-1.42.59-3.21.04-4.46.75-1.59.9-3.96,4.59-5.98,5.61l-4.62,5.61,4.24-.59,10.81-11.37ZM97.1,92.75c-1.76.98-3.37-.58-4.81,1.17l-9.47,10.41c1.26.18,2.93.3,4.08-.36.58-.34,8.66-8.6,9.43-9.6.23-.3,1.04-1.3.78-1.62ZM103.28,93.14c-1.66.25-3.42-.71-4.83.38l-10.23,10.81,3.29.21,11.77-11.4ZM114.1,93.14c-1.32.02-2.26-.61-3.45.19-3.57,2.43-7.41,8.09-10.85,11l3.69-.36,10.6-10.83ZM17.54,93.14c-1.69-.35-2.38.65-3.55,1.57-2.94,2.32-5.47,5.73-8,8.31-.4.4-.98.55-.81,1.32.63.11,1.04-.29,1.51-.61,1.95-1.31,3.76-3.65,5.33-5.16,1.84-1.77,3.98-3.32,5.51-5.42ZM21.79,93.14c-.8.14-2.4-.27-3.01.08-.31.18-2.91,3.73-3.54,4.38-1.38,1.44-4.2,4.57-5.6,5.6-.47.35-1.08.2-1.37.56,2.63,2.04,3.94-1.33,5.1-2.01.15-.09.63.3.67.27.06-.06.05-.88.39-1.36,1.82-2.52,5.5-4.87,7.36-7.52ZM25.65,93.14l-2.7.21-10.04,10.98c.68-.04,1.46.13,2.11,0,.86-.17,5.61-5.11,6.58-6.17,1.42-1.56,2.83-3.29,4.05-5.02ZM31.06,93.14c-2.29-.37-3.28.24-4.89,1.68l-8.63,9.52,3.2-.38,10.31-10.81ZM35.69,93.14c-.9.08-2.52-.12-3.28.37-1.84,1.19-4.58,4.85-6.2,6.57-.45.48-.8.65-1.47,1.39-.85.94-1.84,1.8-2.56,2.86l3.98-.36c2.28-2.64,4.68-5.19,7.02-7.77.25-.27,3.17-2.51,2.52-3.06ZM41.49,93.14c-.93.34-1.93-.14-2.8.06-1.63.37-9.18,8.22-10.53,9.98-.3.39-.75.49-.57,1.16,1.19-.03,2.23.25,3.3-.36.73-.42,8.74-8.34,9.66-9.46.18-.22,1.04-1.28.94-1.38ZM46.89,93.14l-3.84.59-10.83,10.6c1.54-.09,3.28.39,4.62-.59l10.06-10.6ZM57.32,93.14c-2.83-.55-4.04.68-6.17,2.14l-8.9,9.05,4.25-.19,7.72-8.51,3.1-2.5ZM80.49,93.14l-4.63.2-10.44,11h3.27s7.34-7.34,7.34-7.34l4.45-3.85ZM86.29,93.14l-4.63.2c-.68.86-11.45,10.54-10.82,11l4.93-.1c2.79-3.18,5.97-6.03,8.82-9.17.46-.51.24-1.01.36-1.19.29-.41,1.25.13,1.33-.74ZM91.31,93.14h-2.89s-11.4,11.19-11.4,11.19c.99-.19,3.47.33,4.17-.08.16-.09.42-.94.82-1.29,1.66-1.45,3.12-3.04,4.87-4.4l4.42-5.42ZM108.69,93.14l-4.06.37-11.01,10.82c1.44-.15,3.27.33,4.62-.21.53-.21,3.45-3.11,4.13-3.79,2.16-2.17,4.39-4.86,6.31-7.2ZM117.96,93.14l-2.53.36c-2.73,3.14-6.23,5.73-9.07,8.7-.41.43-1.95,1.96-1.53,2.52l2.36-.2,10.76-11.38ZM122.59,93.14c-.67,0-1.36-.1-2.03.09-1.18.34-8.25,7.55-9.57,8.97l-1.92,2.52c1.07-.59,2.23-.14,3.3-.75.89-.5,8.43-8.25,9.44-9.48.36-.44.94-.62.77-1.35ZM128,93.14l-3.69.36c-.79,1.11-10.67,10.24-10.21,10.83l3.3-.36,10.6-10.83ZM131.09,93.14l-2.14.36-10.21,10.83,2.92-.36c2.37-3.12,6.17-5.89,8.48-8.9.44-.57,1.04-1.14.96-1.94ZM136.5,93.9c-.38-1.04-1.83-.94-2.69-.56l-11.21,10.99c3.49.9,4.58-2.42,7.2-3.99,1.57-2.45,4.29-4.87,6.7-6.44ZM138.43,93.53l-1.58.25-8.83,9.62-1.57.75c.5.71.85.52,1.55.43,2.35-.31,6.12-5.1,7.72-7.01,1.43-1.72.46-.66.97-1.74.22-.49,1.83-.93,1.74-2.29ZM148.75,96.13c.22-.53.28-1.73-.08-2.21-.76,1.33-5.21,4.37-2.13,5.02-.36-1.28,2.03-2.35,2.21-2.8ZM140.75,96.62l-2.33-.59c-1.73,3.2-5.07,5.4-7.32,8.31l2.92-.36,6.74-7.35ZM142.68,98.16c-.65.03-.72-.44-1.35-.04-.79.5-4.46,4.33-5.21,5.25-.36.44-.94.62-.77,1.35l1.93-.54,5.4-6.02ZM142.93,103.05c.57-.5,1.27-1.87,2.04-2.43l-.94-1.29-4.82,4.82c-.05,1.45,3.33-.76,3.72-1.1Z"/>
  </g>
</svg>