<?xml version="1.0" encoding="UTF-8"?>
<svg id="Layer_3" data-name="Layer 3" xmlns="http://www.w3.org/2000/svg" viewBox="0 0 76.35 110.32">
  <g id="Layer_1" data-name="Layer 1">
    <g>
      <path d="M.22,0l76.13.15-.22,110.17-76.13-.15L.22,0ZM2.62,2.01l-.27,105.86,71.2.18.27-105.86L2.62,2.01Z"/>
      <path d="M72.36,103.93c-.08.12-.48.09-.67.08l1.15.39-.64,2.33-68.31.02c-.54-26.45-.05-52.97.05-79.44.02-6.33-.29-12.56.06-18.87.05-.86-.85-1.18.49-1.55l-.78-3.29,68.97.38-.32,99.97ZM70.55,5.51H5.99s.02,99.29.02,99.29h64.56s-.02-99.29-.02-99.29Z"/>
    </g>
  </g>
</svg>