<?xml version="1.0" encoding="UTF-8"?>
<svg id="Layer_3" data-name="Layer 3" xmlns="http://www.w3.org/2000/svg" viewBox="0 0 52.47 47.65">
  <g id="Layer_1" data-name="Layer 1">
    <path d="M30.83,44.11c-2.52,2.23-4.24,4.82-7.83,2.82-1.63-.91-10.37-9.74-12.18-11.68-3.12-3.33-7.81-9.09-9.38-13.31C-3.03,9.89,3.06-4.63,17.66,1.42c4.65,1.93,6.33,5.38,9.2,9.18,3.85-6.73,12.1-13.66,20.03-8.67,8.04,5.06,6.09,15.61,2.29,22.78-3.74,7.05-12.35,14.09-18.34,19.4ZM14.54,5.9c.08-1.42-1.66-1.49-2.57-.8-.7,2.19-7.33,6.66-7.59,8.05-.15.79.06,1.72,0,2.53l2.15-2.74c2.72-2.26,4.86-5.41,8.02-7.04ZM6.48,8.8c.37-.4,3.44-3.19,2.97-3.67-1.76,1.57-4.19,2.97-4.69,5.48.86-.29,1.17-1.22,1.71-1.81ZM19.23,12.56c-.48-.51-1.7,1.43-1.94,1.77-.67.93-1.64,2.58-1.97,3.7.79.83,3.59-4.98,3.91-5.47ZM24.32,16.87c-.45-.42-2.98,2.7-3.3,3.15-1.16,1.61-2.68,4.39-3.34,6.24,2.77-2.71,4.85-5.98,6.65-9.38ZM37.23,17.26c-.61-.56-4.94,4.26-4.69,5.47,2.04-1.41,3.1-3.65,4.69-5.47ZM11.8,26.25h1.36s4.11-6.65,4.11-6.65c-1.33,1.02-2.47,2.42-3.51,3.73-.34.42-2.23,2.62-1.96,2.92ZM20.8,33.68l1.33-.82,5.31-7c-2.8,2.07-4.71,4.99-6.65,7.82ZM15.27,32.46l-1.32-.73c-.27-.08-.28.37-.19.58.13.28,3.48,4.28,3.91,4.7s.9.65,1.37.97l.97-2.34-2.34.39.39-1.56-1.56.39.39-1.17h-1.18s.39-1.96.39-1.96l-.83.73Z"/>
  </g>
</svg>