<?xml version="1.0" encoding="UTF-8"?>
<svg id="Layer_3" data-name="Layer 3" xmlns="http://www.w3.org/2000/svg" viewBox="0 0 113.68 93.64">
  <g id="Layer_1" data-name="Layer 1">
    <path d="M61.83,15.94c10.89-13.05,28.55-21.28,43.61-9.32,9.34,7.41,9.75,20.56,6.08,31.05-7.64,21.85-27.69,35.62-45.12,49.15-1.79,1.39-7.5,6.87-9.24,6.83-.94-.02-4.38-2.49-5.4-3.23C32.21,76.42,4.62,56.23.35,30.73-2.52,13.58,12.61-3.52,30.06.63c11.82,2.81,21.05,11.62,27.1,21.78,1.56-2.13,2.97-4.45,4.66-6.48ZM104.7,12.25c-5.83-7.43-15.16-9.15-23.86-5.86-.09.7.85.36,1.27.29,4.55-.73,7.7-1.82,12.5-.57,3.98,1.04,6.43,4.51,10.09,6.14ZM19.03,6.39c-.92.06-1.86.28-2.72.59-.68.25-5.27,2.16-5.51,2.34-.42.31.16,1.32-.4,2.29s-4.39,2.77-1.54,3.37l3.72-4.3,6.45-4.3ZM91.62,54.73c5.43-6.22,11.88-13.29,12.67-21.94.65-7,.89-13.58-4.48-18.58-14.07-13.1-31.66,1.5-39.09,14.52-1.17,2.05-2.24,7.8-5.31,6.41-1.69-.77-.98-2.8-1.27-4.21-1.01-4.97-9.65-15.64-13.95-18.52-9.47-6.36-17.45-6.07-26.05,1.43-10.25,8.93-4.4,24.94,1.59,34.77,7.48,12.29,24.3,25.89,35.58,35.23,1.1.91,4.4,3.92,5.65,3.35,10.61-9.63,21.94-18.39,31.71-28.95,1.02-1.1,1.96-2.36,2.96-3.5ZM106.92,14.72c-.08-.11-1.32-1-1.04.06,2.58,5.43,3.21,11.99,2.24,17.9-.54,3.3-1.98,6.42-2.63,9.68.59-.21.96-1.49,1.24-2.08,3.14-6.84,4.86-19.11.2-25.56ZM22.16,61.93c-3.89-4.59-7.78-9.26-10.63-14.6-4.34-8.12-7.35-15.68-6.58-25.1.16-2.01,1.06-4.08.97-6.07-3.18,6.06-2.6,12.31-.6,18.59,2.63,8.22,6.65,16.01,12.14,22.67.86,1.05,2.36,2.9,3.31,3.73.44.38.65.94,1.37.78ZM94.36,58.24c2.44-2.84,4.86-5.76,7.01-8.83.22-.32,1.05-.76.39-1.17l-12.5,14.1-12.73,12.11,9.41-7.22c2.9-2.91,5.73-5.86,8.42-8.98Z"/>
  </g>
</svg>