<?xml version="1.0" encoding="UTF-8"?>
<svg id="Layer_2" data-name="Layer 2" xmlns="http://www.w3.org/2000/svg" viewBox="0 0 71.9 75.33">
  <g id="Layer_1" data-name="Layer 1">
    <path d="M40.12,18.14c10.18-10.48,27.08-11.73,31.18,5,2.7,10.98-4.23,19.71-10.69,27.83-2.98,3.75-5.77,6.44-8.97,9.8-2.15,2.25-12.55,13.67-14.28,14.27-3.08,1.06-3.37-1.07-5.26-2.52C17.21,61.1,2.95,46.9.28,27.28-2.01,10.51,10.18-5.63,28,1.9c5.26,2.23,10.57,10.9,12.13,16.24ZM20.17,3.28c-2.38.37-5.95.1-7.43,2.34,1.76.43,2.9-.93,4.29-1.38,1.08-.35,2.63.24,3.14-.96ZM36.32,27.41c-1.42-1.17.07-3.48-.28-5.37-.93-4.96-9.14-14.86-14.51-15.25-1.8-.13-8.85,2.39-9.97,3.72s-3.38,6.38-3.92,8.21c-4.63,15.68,13.65,39.93,25.05,49.7.53.45,3.27,2.59,3.67,2.51,4.04-4.41,8.22-8.76,12.18-13.27,7.94-9.05,18.99-20.41,17.81-33.47-.37-4.08-4.49-8.82-8.76-8.76-4.81.07-12.06,2.52-14.94,6.6-.71,1.01-.68,1.87-1.18,2.73-.79,1.33-3.57,3.93-5.13,2.65ZM9.6,7.98c-.84-.2-.87.47-1.26.89-1.97,2.16-3.8,5.53-3.82,8.49l2.67-5.74,2.41-3.65Z"/>
  </g>
</svg>