<?xml version="1.0" encoding="UTF-8"?>
<svg id="Layer_3" data-name="Layer 3" xmlns="http://www.w3.org/2000/svg" viewBox="0 0 76.1 75.89">
  <g id="Layer_1" data-name="Layer 1">
    <path d="M52.15,60.81c-4.09,4.85-7.91,9.95-12.06,14.76-.32.35-.64.35-1.08.3-2.56-.27-10.76-6.42-13.33-8.23C12.85,58.61-8.3,42.48,3.41,24.79c6.08-9.19,16.13-12.16,24.93-4.4.45.39,2.23,3.36,2.93,2.73,2.26-8.42,12.61-18.56,20.47-21.97,10.75-4.66,22.14,5.64,24.02,16.01,2.9,15.93-14.25,32.54-23.63,43.65ZM65.31,38.77c5.43-6.3,9.22-15.71,6.16-23.96-1.39-3.73-5.05-8.4-8.9-9.67,4.69,3.46,8.81,11.64,9.01,17.43s-4.13,11.22-6.27,16.21ZM15.08,52.24c5.05,5.44,12.74,11.57,18.97,15.64.78.51,4.08,2.79,4.67,2.41,6.65-12.13,17.08-21.02,23.92-33.21,4.73-8.42,7.22-14.23,2.86-23.73-1.23-2.68-3.06-4.32-5.65-5.7-3.04-1.62-3.98-1.73-7.26-.57-7.27,2.56-14.09,10.87-16.34,18.08-.68,2.2-.6,8.2-3.28,8.44-2.83-.7-3.3-4.13-4.9-6.31-1.24-1.69-5.82-5.84-7.74-6.34-3.59-.92-6.57.82-9.15,3.02-10.53,8.96-3.63,20.16,3.89,28.25Z"/>
  </g>
</svg>