<?xml version="1.0" encoding="UTF-8"?>
<svg id="Layer_2" data-name="Layer 2" xmlns="http://www.w3.org/2000/svg" viewBox="0 0 34.55 30.21">
  <g id="Layer_1" data-name="Layer 1">
    <path d="M11.32,26.78C7.02,22.47,1.75,16.96.42,10.89-2.74-3.44,13.04-2.26,16.07,8.53c3.34-4.65,14.43-13.77,17.89-4.58,3.05,8.1-6.5,16.46-12.01,21.42-1.17,1.05-5.8,5.41-7.14,4.8-.22-.1-2.98-2.87-3.49-3.38ZM26.83,5.79c-.73-.17-.93.41-1.37.78-3.56,2.99-7.46,9.01-9.19,13.3,2.33-2.45,3.86-5.54,5.89-8.29.44-.6,1.4-1.15,1.86-1.74.96-1.22,1.43-2.93,2.81-4.05ZM29.96,6.58c-.7-.64-4.56,4.32-5.01,4.96-1.71,2.4-4.44,6.52-5.8,9.06-.29.54-.69.9-.53,1.62l2.12-1.98,9.22-13.66ZM10.01,8.14l-1.25.9-2.27,3.79c1.11.13,3.73-4.48,3.52-4.69Z"/>
  </g>
</svg>