<?xml version="1.0" encoding="UTF-8"?>
<svg id="Layer_2" data-name="Layer 2" xmlns="http://www.w3.org/2000/svg" viewBox="0 0 96.32 93.04">
  <g id="Layer_1" data-name="Layer 1">
    <path d="M56.83,90.23c-4.34,3.84-4.11,3.63-8.94.11-3.66-2.67-6.56-6.24-9.84-9.34C22.12,65.94-11.36,36.57,3.88,12.04c11.08-17.83,36.56-7.24,44.53,7.95.59.14.63-.08.95-.41,1.92-1.94,3.84-5.83,5.88-8.2C61.06,4.64,66.85.61,75.99.05c18.04-1.11,22.99,17.53,19.09,31.99-4.61,17.1-24.96,46.43-38.25,58.19ZM71.88,5.13c-4.93.26-9.14,4.53-12.52,7.82l12.52-7.82ZM89.87,11.39c1.13-1.48-5.79-7.07-7.82-6.25l3.13,2.14c1.51,1.6,2.66,3.12,4.69,4.11ZM39.41,14.51c-3.87-4.1-9.88-6.42-15.25-7.82l8.56,3.76,6.7,4.06ZM47.76,83.62c.58.56,4.45,3.98,4.76,3.98,4.88-5.06,9.39-10.41,13.65-16.01,10.21-13.43,30.07-41.16,19.87-58.12-8.62-14.34-29.57,4.65-33.4,14.47-.69,1.77-.29,5.85-2.87,5.74-2.72-.11-2.62-4.6-3.35-6.41C42.35,17.2,14.35-.13,9,16.38c-4.97,15.33,7.84,32.49,17.12,43.7,6.1,7.37,14.77,16.94,21.64,23.54ZM17.89,54.41c-4.85-6.65-9.72-13.67-12.24-21.6-.43-1.34-.24-3.39-1.45-4.22.76,7.11,4.23,13.89,8.28,19.68,1.03,1.48,2.68,3.91,3.85,5.15.45.47.77,1.13,1.55.99Z"/>
  </g>
</svg>