<?xml version="1.0" encoding="UTF-8"?>
<svg id="Layer_3" data-name="Layer 3" xmlns="http://www.w3.org/2000/svg" viewBox="0 0 28.37 26.84">
  <g id="Layer_1" data-name="Layer 1">
    <path d="M14.97,6.88c2.82-3.65,8.13-8.53,11.9-3.1,5.81,8.35-6.63,19.34-13.28,23.06C6.88,22.39-2.88,12.73.81,3.87,3.89-3.53,13.27.93,14.97,6.88ZM13.85,14.65c-.93-2-.72-4.05-1.51-6.12-1-2.63-4.95-6.85-7.75-4.4C-.71,8.77,9.16,20.2,13.59,22.52c4.14-2,15.06-11.92,10.6-16.84-2.06-2.28-5.66,1.77-6.63,3.59s-.93,3.4-1.47,5.37h-2.24Z"/>
  </g>
</svg>