<?xml version="1.0" encoding="UTF-8"?>
<svg id="Layer_2" data-name="Layer 2" xmlns="http://www.w3.org/2000/svg" viewBox="0 0 73.71 74.36">
  <g id="Layer_1" data-name="Layer 1">
    <path d="M34.35,5.68c2.35,2.18,4.93,5.83,6.04,8.83l8.09-5.79c6.04-3.73,14.47-3.45,19.28,2.09,18.99,21.88-12.1,46.17-27.46,58.49-1.68,1.35-4.45,5.19-6.72,5.06-2.49-.14-8.24-7.95-10.14-10.03C13.33,53.32,1.81,40.96.14,25.22-1.9,5.94,19.08-8.45,34.35,5.68ZM22,5.91c-2.82-.56-5.06,1.94-7.05,3.71-1.28,1.14-7.69,7.38-8.03,8.39-.22.64-.2,1.31-.17,1.98l8.89-8.64c2.84,0,4.66-3.44,6.37-5.44ZM16.52,6.3c-2.58.05-5.8.97-7.43,3.12l1.54.03.04,1.34.76.19c.24-.95,1.54-2.37,2.33-2.96.89-.66,2.27-.54,2.76-1.73ZM26.69,6.69c-.95,0-1.75-.66-2.73-.21-.69.31-4.2,5.06-5.28,6.09-2.14,2.02-4.64,3.58-6.86,5.66s-5.86,4.71-5.08,8.02c1.41-.73,2.25-2.38,3.26-3.39,4.56-4.58,10.39-9.08,15.33-14.2.23-.24,1.44-1.88,1.35-1.97ZM7.13,31.33L30.42,9.83c.47-.72-1.38-2.59-2.16-2.18-4.07,4.28-8.04,8.66-12.31,12.75-1.78,1.71-8.09,6.38-8.64,8.18-.28.91-.18,1.84-.17,2.76ZM29.19,15.45c.87-.83,4.07-2.7,3.76-3.86-.48-1.8-3.97,1.69-4.7,2.34-3.36,2.98-6.48,6.66-9.77,9.79-2.11,2.01-9.23,7.2-10.02,9.56-.14.42-.29.8.02,1.2l.98.38c2.03-2.83,5.44-4.98,8.04-7.41,4.07-3.81,7.66-8.16,11.68-11.98ZM25.52,37.59c-3.19,3.5-7.19,6.6-10.38,10.16-.16.35,2.72,4.52,3.68,3.86.15-.4.31-.81.61-1.12,9.26-9.57,21.87-21.49,32.71-29.11.6-.42,10.06-5.52,9.36-6.08l-1.35.38-.6-.96,1.95-1.96-2.87-1c-.29,1.01-1.36.9-1.71,1.3-9.25,10.42-20.61,19.21-31.01,28.64-2.52,2.28-4.73,4.94-7.24,7.24-.95.39-.62-1.76-.51-2.1.08-.25,3.12-3.24,3.64-3.76,8.05-7.93,17.98-15.41,26.42-23.28,2.58-2.41,4.82-5.37,7.81-7.25l-.56-.76c-5.89,4.59-11.24,9.92-16.84,14.85-.51.45-1.22.53-1.65.9-1.83,1.61-9.64,9.95-11.46,10.05,1.21-1.33,2.17-2.12,2.5-3.92,1.62-2.15,8.12-6.21,9.03-8.21.3-.65.25-4.69-.38-4.68-.88,0-.15,1.6-.37,1.95-.48.78-5.47,4.09-6.73,5.22-2.83,2.56-5.69,5.85-8.54,8.49s-5.85,4.61-8.24,7.42l1.19,1.99.87.08,9.13-8.55c.52-.33,1.16.23,1.55.21ZM34.51,13.73c-.49-.35-3.16,2.21-3.72,2.72-6.71,6.13-12.69,13-19.54,18.81-.59.5-1.41.65-2,1.15l.62,2.35c.59.16.65-.16.98-.38.76-.52,2.86-2.58,3.67-3.37,6.71-6.5,12.6-13.98,20.33-19.39l-.35-1.89ZM48.99,14.52l-1.86.12c-.42,1.17-5.45,4.92-5.18,5.55.21.48.61.7,1.18.4,1.45-.75,4.4-4.81,5.86-6.07ZM56.29,26.12c2.3-2.11,7.4-7.32,8.57-10.01.24-.56.96-.46-.03-1.2-1.36,1.25-2.89,2.76-4.37,3.84-5.03,3.65-10.14,6.2-15.18,10.25-9.23,7.42-17.6,15.79-26.02,24.05l1.75,1.75c3.8-5.26,8.99-9.13,13.74-13.44,6.14-5.57,12.4-10.99,18.52-16.49.61-.55,5.81-4.97,6.27-4.48.13,1.2-.6,1.97-1.35,2.75-4.39,4.54-11.32,9.12-16.26,13.47-5.51,4.87-10.7,10.28-16.01,15.27-1.17,1.1-2.87,2.27-4.14,3.31-.32.43,1.41,1.91,1.77,1.57.08-1.26,1.58-2.82,2.48-3.78,8.85-9.45,20.54-17.94,30.25-26.86ZM36.08,16.86c-.74-.17-.93.42-1.37.78-6.75,5.48-12.44,11.93-18.33,18.25-1.47,1.58-6.28,4.3-4.36,6.78.4-1.02,2.07-1.32,2.43-1.67.26-.26.63-1.68,1.29-2.43,2.14-2.42,5.51-5.15,7.82-7.43,3.25-3.21,6.96-5.8,10.56-8.61l-1.17-1.16c1.31-1.6,3.67-1.94,3.12-4.51ZM66.98,17.25c-.69-.52-1.75,1.9-2.34,2.15l1.17.39c-5.04,5.03-10.91,9.2-16.24,13.9-6.36,5.6-12.86,11.72-19.17,17.58-2.05,1.91-4.17,5.13-6.83,5.89,2.21,4,2.4,1,4.05-.65,11.21-11.21,23.73-21.91,36.03-31.84,1.31-1.05,2.82-3.95,4.51-2.13L25.92,60.48l3.73,4.12c1.21.36.9-.88,1.74-1.19l-.78,2.34c1.05.99,6.26-5.35,7.23-6.27,6.01-5.71,12.62-10.82,18.59-16.61-.71-.32-2.01.95-2.53,1.38-1.27,1.06-2.39,2.42-3.64,3.49-3.34,2.88-7.32,5.78-10.51,8.76-1.27,1.19-6.23,7.61-7.76,7.3l-.59-.97c8.8-9.31,18.59-17.73,28.16-26.22.72-.64,1.66-1,2.32-1.59.99-.88,4.48-5.73,5.9-4.46.27,2.19-3.72,3.71-3.04,5.29.15.34,1.53.11-.23,2-4.36,4.71-9.61,8.57-14.34,12.85-5.96,5.39-11.79,10.9-17.81,16.23-.54.85.19,1.43.8,1.95,2.46-1.56,4-4.16,6.05-6.07,4.18-3.88,9.06-7.49,13.31-11.33,7.65-6.9,16.83-14.19,16.23-25.63-11.05,11.43-24.58,20.69-35.21,32.46-1.33,1.47-2.01,3.83-4.29,4.31l-.6-.98c.08-.29.84-.42,1.04-.72,7.56-10.95,19.49-19.2,29.32-28.19,3.1-2.83,6.01-5.86,9.16-8.62,1.26-1.74-.97-4.98-1.2-6.88Z"/>
  </g>
</svg>