<?xml version="1.0" encoding="UTF-8"?>
<svg id="Layer_2" data-name="Layer 2" xmlns="http://www.w3.org/2000/svg" viewBox="0 0 24.19 23.04">
  <g id="Layer_1" data-name="Layer 1">
    <path d="M17.08,18.11c-1.05.98-5.29,4.88-6.26,4.93s-3.83-3.31-4.66-4.3C2.66,14.57-3.57,5.53,2.64,1.12c4.19-2.97,7.74.48,9.39,4.3,4.26-6.68,14.78-7.42,11.55,3.35-1.31,4.36-3.34,6.38-6.5,9.34ZM21.22,3.86c-3.84-.5-5.21,1.2-7.05,4.1-1.04,1.64-1.21,4.93-4.12,3.36.42-3.07-3.21-11.83-6.61-6.66-1.65,2.52,1.45,7.31,2.98,9.5.42.6,3.58,4.61,3.84,4.78.48.31.71.21,1.18,0,.3-.14,4.63-3.82,5.1-4.3,2.54-2.57,5.05-7.07,4.68-10.77Z"/>
  </g>
</svg>