<?xml version="1.0" encoding="UTF-8"?>
<svg id="Layer_2" data-name="Layer 2" xmlns="http://www.w3.org/2000/svg" viewBox="0 0 30.71 28.79">
  <g id="Layer_1" data-name="Layer 1">
    <path d="M14.91,6.57l.8-.24c2.2-5.65,11.77-9.64,14.52-2.37,2.49,6.59-5.33,16.66-9.65,21.4-1.12,1.23-2.49,2.73-3.98,3.44-.97.09-5.8-4.26-6.79-5.19C5.66,19.7.54,14.27.05,8.33-.89-2.96,11.9-2,14.91,6.57ZM15.22,13.93l-1.71-.67c.42-2.53-2.11-6.93-4.07-8.44-4.83-3.75-6.7.58-5.61,5.22.86,3.66,7.79,11.14,10.88,13.37.49.35.94.74,1.58.79.51-.02,4.61-4.88,5.25-5.69,2.35-3.04,7.53-10.38,5.3-14.26s-11.17,4.84-9.63,8.56c-1.19-.17-1.87,1.1-1.99,1.14Z"/>
  </g>
</svg>