<?xml version="1.0" encoding="UTF-8"?>
<svg id="Layer_3" data-name="Layer 3" xmlns="http://www.w3.org/2000/svg" viewBox="0 0 82.62 72.49">
  <g id="Layer_1" data-name="Layer 1">
    <path d="M41.97,21.06c3.74-6.87,10.33-12.36,18-14.28,25.98-6.51,26.95,20.31,16.2,36.54-5.48,8.27-20.52,18.4-28.84,24.36-2.63,1.89-6.21,6.4-9.46,4.23-5.45-3.64-10.76-10.56-16.06-14.64C10.02,46-5.43,27.54,1.9,10.12,6.17-.05,14.55-1.84,24.47,1.6c6.65,2.31,10.91,7.56,14.19,13.58.72,1.32,1.84,4.78,2.36,5.46.3.39.42.51.95.41ZM14.99,3.85c-2.22-.48-8.18,3.04-8.54,4.98-.15.82.42,1.88-.06,2.84l4.01-5.76,4.59-2.06ZM22.42,6.98h-6.85c-.2,0-2.85,1.84-2.91,2.19,0,.67.76,1.29,1.37,1.34l8.39-3.54ZM24.38,9.33c-7.22.44-10.14,4.86-14.26,9.8-.35.42-.98.57-1.25.89-2.25,2.65-.38,4.96-.52,8.08l.89-4.39c.89-3.02,7.54-11.31,10.43-12.65,1.64-.76,3.56-.57,4.71-1.74ZM59.97,53.91c1.02-.25,2.08-1.29,2.92-1.96,8.02-6.34,14.54-14.47,16.19-24.88,1.09-6.89-.55-16.01-8.55-17.35,1.61,1.47,3.57,1.75,5.08,3.71,5.84,7.58,1.08,20.52-3.75,27.54-3.35,4.88-7.87,8.69-11.9,12.94ZM4.42,25.75c-.35-4.3,1.01-8.34.52-12.59-.05-.41.42-.89-.51-1.1-.8,4.28-1.91,8.23-.66,12.6.12.4.09,1.19.66,1.09ZM66.07,43.97c5.47-6.39,12.83-19.8,7.67-27.88-2.98-4.68-10.85-4.15-15.44-2.38-3.83,1.48-12.25,8.85-14.05,12.55-.85,1.73-2.16,9.51-5.55,7.27-2.03-1.34-.22-3.8-.21-5.63.03-4.28-4.27-13.43-8.36-15.14-2.98-1.24-6.44-.71-9.22.71-3.26,1.66-8.89,8.54-9.4,12.12-1.49,10.48,9.16,23.78,15.98,30.88,3.99,4.15,8.53,7.94,12.73,11.9,8.47-8.03,18.24-15.5,25.85-24.39Z"/>
  </g>
</svg>