<?xml version="1.0" encoding="UTF-8"?>
<svg id="Layer_2" data-name="Layer 2" xmlns="http://www.w3.org/2000/svg" viewBox="0 0 30.55 31.99">
  <g id="Layer_1" data-name="Layer 1">
    <path d="M14.23,11.32c-1.18-8.26,11.1-16.75,15.27-6.85,2.6,6.19-.18,14.11-2.68,20.03-.61,1.44-3.19,7.05-4.36,7.41-.83.25-1.33-.04-2.06-.34-3.62-1.49-11.17-5.09-14.12-7.39C2.86,21.5-2.08,15.02.93,10.73s9.75-1.14,13.3.59ZM23.82,3.29c-2.78-.08-5.48,2.84-6.19,5.36-1.01,3.61-.06,5.69,1.63,8.81-2.22,3.59-4.58-1.74-6.61-3.18-4.4-3.12-12.85-4.05-7.97,3.67,3.34,5.28,10.92,7.16,16.08,10.15.51.11.63-.27.86-.59,2.13-2.97,5.76-13.18,5.92-16.79.1-2.28-.86-7.34-3.72-7.42Z"/>
  </g>
</svg>