<?xml version="1.0" encoding="UTF-8"?>
<svg id="Layer_3" data-name="Layer 3" xmlns="http://www.w3.org/2000/svg" viewBox="0 0 24.49 25.95">
  <g id="Layer_1" data-name="Layer 1">
    <path d="M3.46.16c4.67-1.06,6.52,3.33,8.52,6.56C14.18,4.18,16.98.2,20.88.94c1.22.23,3.02,1.74,3.33,2.95,1.97,7.79-6.69,16.1-10.73,21.95-.76.24-1.26.06-1.91-.32-.52-.3-4.73-5.01-5.46-5.88C2.49,15.37-.34,12.15.03,6.12.17,3.98,1.02.71,3.46.16ZM6.87,4.6C2.87.44,2.42,7.2,3.37,10.25c1.24,4.02,6.26,8.55,9.35,11.32,2.44-3.81,7.82-9.04,8.42-13.51.15-1.11.05-2.31-.02-3.43l-.58-.6c-3.68-.98-6.57,7.91-8.88,7.7-2.01-.18-3.18-5.47-4.78-7.13Z"/>
  </g>
</svg>