<?xml version="1.0" encoding="UTF-8"?>
<svg id="Layer_2" data-name="Layer 2" xmlns="http://www.w3.org/2000/svg" viewBox="0 0 75.75 68.74">
  <g id="Layer_1" data-name="Layer 1">
    <g>
      <path d="M33.74,7.26c2.18,2.22,4.66,4.43,6.13,7.17h.57c7.33-8.33,18.66-16.73,29.12-7.98,10.35,8.65,6,24.91-.59,34.55-3.9,5.71-10.29,11.53-15.41,16.27-3.25,3.01-8.6,8.36-11.94,10.75-.39.28-.74.62-1.23.71-.81.07-6.22-3.9-7.31-4.68C21.16,55.44,8.35,44.5,2.1,30.89-6.87,11.37,14.62-12.15,33.74,7.26ZM19.13,5.05c-6.22-1.01-11.26,2.99-13.3,8.6.66.67,3.46-3.96,3.92-4.48.79-.9,1.71-1.69,2.54-2.55l.96.59c-1.05,1.24-5.24,4.98-5.48,6.25-.1.54.03.75.59.59.52-.15,6.72-5.45,7.21-6.1.4-.53.41-1.26.46-1.31.14-.13,3.13.57,3.1-1.58ZM24.61,5.45c-.8.03-1.69-.15-2.46.08-2.05.6-11.32,10.1-12.42,12.22-.22.43-.91,2.43-.76,2.56,1.79.37,1.38-1.21,1.96-2.07,1.42-2.11,4.69-5.36,6.64-7.13,2.2-1.99,4.87-3.62,7.05-5.66ZM26.95,6.62c-.72-.04-1.37.6-1.92,1.01-1.95,1.47-4.74,3.96-6.3,5.83-.37.44-.95.63-.78,1.37l2.3-1.44,6.7-6.78ZM60.2,7.01c-1.07-.08-1.9-.07-2.88.44-.43.22-4.78,3.88-5.35,4.43-4.16,4.07-7.93,10.02-12.11,14.1-4.49,4.39-13.19,11.1-18.42,14.83-1.63,1.16-3.56,2.62-5.65,1.83l-.11-1.54,21.35-19.31-.5-2.27c-5.96,7.14-13.7,12.62-20.34,19.16l-2.92,1.75c2.26,1.96,3.54,7.12,7.02,4.3,4.54-3.68,8.83-8.23,13.31-12.12,3.12-2.71,7.09-5.14,10-8,5.02-4.92,9.35-11.98,14.84-16.45.62-.5,1.6-.53,1.76-1.17ZM62.94,7.79c-.55-.51-3.52,2.21-4.12,2.73-4.95,4.34-9.53,10.38-14.25,15.09l-21.53,18.56,6.44-4.7c10.61-9.69,23.5-19.17,32.67-30.3.36-.44.95-.63.78-1.37ZM29.69,8.58l-1.49-.35c-.15.29-.24.67-.49.88-6.1,5.13-12.86,13.63-19.01,17.78-.51.34-1.15.55-1.69.85-.79-1.04,4.89-5.54,5.67-6.64l3.71-4.7c-2.03,1.19-3.5,3.82-5.11,5.25-.42.37-1.06.49-1.52.83-1.06.8-1.5,2.1-3.15,1.74l.2-2.34c-2.63,1.68-.64,4.92.17,7.27,4.62-.49,7.06-5.3,10.19-8.25,3.82-3.61,8.7-6.94,11.94-11.14.3-.39.76-.5.58-1.17ZM66.86,10.91l-2.15-2.33c-.7.69-.9,1.59-1.55,2.35-11.21,13.02-26.34,23.21-38.9,34.65-.52.47-2.86,3-2.77,3.47l1.55.58c.1-.82.43-1.35.99-1.95,6.97-7.4,17.56-13.73,25.24-20.53,5.95-5.27,10.7-12.11,17.6-16.25ZM51.99,9.75c-2.66.04-2.6,2.85-4.72,3.3l.04,1.79,4.69-5.08ZM29.79,13.78c.51-.6,2.66-.67,2.66-1.88l-1.05-1.35c-.8-.12-6.63,5.97-7.57,6.83-1.99,1.82-4.3,3.52-5.91,5.05-1.84,1.75-5.97,7.2-8.12,7.45-.74.09-1.61-.32-2.4-.18.74,3.86,3.23,6.94,5.28,10.16,1.14-.16,1.86-1.97,2.28-2.24.79-.5,1.17.63.82-1.27l20.18-17.82v-.97c-.08-.09-1.16.62-1.37.79-6.3,4.88-11.85,10.73-18.11,15.64-1.33,1.04-3.1,2.65-4.77,2.74l2.19-2.7c6.33-5.65,12.84-11.1,19.18-16.79.46-.41,1.09-.65,1.65-.9,0-1.39-.58-2.17-1.86-1.28-6.55,4.59-13.1,12.63-19.89,17.36-1.26.79-2.14,1.06-3.22-.18,1.11-.92,2.4-2.8,3.9-2.15l-.37-1.13c2.31-1.58,4.53-3.58,6.73-5.37,2.87-2.34,7.14-6.71,9.78-9.8ZM57.63,38.08c2.83-2.36,5.87-4.53,8.64-6.82.93-.77,3.73-3.49,4.14-4.47,1.6-3.84,1.33-12.08-2.51-14.66-2.22,2.02-5.09,3.7-7.26,5.68-4.49,4.08-7.9,8.23-12.76,12.28-2.8,2.33-24.48,19.24-24.06,20.92l9.15,6.05,18.22-17.78c3.67-2.81,7.48-5.65,10.97-8.58,1.33-1.11,4.13-4.48,5.46-5.1.51-.24,1.08-.38,1.57,0,1.62,1.07-2.18,2.26-2.55,2.54-2.87,2.16-5.98,5.59-8.79,8.03-4.74,4.11-9.77,7.91-14.09,12.51.95.17,2.35-1.06,3.09-1.6,3.48-2.56,7.35-6.15,10.76-8.99ZM8.45,18.62c.35-.32.62-1.07,1.06-1.43l.43-3.13c-2.08,2.61-5.7,3.45-5.08,7.43.97-.2,1.2-1.33,1.94-1.97.5-.44,1.23-.52,1.65-.89ZM28.79,33.49c.62-.51,1.55-2.04,2.46-2.82,1.19-1.02,6.94-5.26,7.05-6.26.08-.69-.05-.95-.59-1.36l-13.49,12.52.58.77c.88-1.6,2.93-1.99,3.99-2.86ZM69.99,30.09c-.73-.17-.93.41-1.37.78-1.83,1.54-3.6,3.51-5.49,5.08-5.62,4.65-11.31,9.51-17.2,13.31-3.99,2.57-3.14,2.71-5.86,5.87-.65.76-4.7,3.91-4.11,4.69,1.45.67,2.72,0,1.95-1.56h1.18c-.69-1.39,1.64-3.13,2.73-4.11,6.56-5.94,14.36-10.69,20.92-16.63,2.55-2.31,4.91-4.9,7.25-7.42ZM57.86,45.34c.41-1.28,2.16-.84,2.93-1.56.36-.33.5-1.26.98-1.76,1.29-1.37,3.8-2.75,3.72-4.89-1.11,1.4-2.75,2.47-3.97,3.66-.74.72-1.79,2.62-2.51,3.16-1.18.88-3.68,1.58-4.86,2.96h1.37c-.49,1.13-.99,1.93-2.18,2.36-1.37.49-1.75-.56-2.27,1.56-1.64,1.15-12.15,10.71-11.97,11.53.4,1.84,1.47-.31,1.74-.59,3.04-3.19,6.73-7.11,9.99-9.97,2.23-1.96,5.11-3.51,7.25-5.66.69-.69.94-.87-.2-.8Z"/>
      <path d="M58.01,24.37c-1.88,1.62-3.65,3.83-5.62,5.52-8.28,7.09-16.94,13.75-24.82,21.33l-1.78.37c-.17-.74.42-.93.78-1.37,5.37-6.55,14.31-12.33,20.81-17.82,4.02-3.4,14.67-14.82,18.43-16.09,2.3-.78,2.75,1.74,1.26,2.85-.43.32-.96-.04-1.36.16-2.67,1.37-5.16,2.84-7.7,5.03Z"/>
      <path d="M70.38,19.53c.43.42-.94,2.57-1.31,2.99-2.23,2.57-6.92,5.34-9.65,7.76-4.81,4.26-9.51,8.78-14.28,13.09-3.64,3.29-8.34,8.7-12.12,11.36-.45.31-1.69,1.15-2.15.78-.42-.34,1.07-1.53,1.32-1.79,10.87-11.31,24.58-23.37,36.69-33.53.48-.4.43-.92,1.49-.66Z"/>
      <path d="M61.93,24.77c-6.94,7-15.05,13.12-22.46,19.59-.88.77-9.63,9.3-10.16,8.81-.65-1.59,1.27-3.08,2.34-4.11,3.26-3.14,7.52-5.96,10.96-8.99,5.76-5.06,11.25-10.43,17.01-15.46l.39.78,4.5-3.91c.45.47-2.2,2.9-2.58,3.29Z"/>
    </g>
  </g>
</svg>