<?xml version="1.0" encoding="UTF-8"?>
<svg id="Layer_2" data-name="Layer 2" xmlns="http://www.w3.org/2000/svg" viewBox="0 0 89.35 79.21">
  <g id="Layer_1" data-name="Layer 1">
    <path d="M45.53,19.58l5.09-8.01c15.77-17.14,42.49-12.36,38.29,14.82-2.7,17.44-23.11,33.77-34.35,46.71-2.55,2.93-3.8,7.66-8.12,5.62s-12.35-8.58-16.25-11.81C16.5,55.56-2.13,38.2.2,18.65,1.37,8.83,9.97.5,19.91.02c11.52-.55,22.87,8.46,25.62,19.55ZM37.31,11.36c.85-.89-5.48-4.65-6.14-5.01-1.93-1.06-4.14-2.38-6.38-2.42l7.16,3.59,5.35,3.84ZM20.1,6.28c-6.58-2.6-12.26,7.96-12.86,13.14-2.54,21.81,23.63,40.9,38.48,52.97.77.63,2.09,2.61,3.09,2.32.4-.12,4.2-5.89,4.95-6.82,10.15-12.63,33.21-32.69,29.22-50.36-.45-2.01-2.73-6.56-4.38-7.75-3.23-2.33-11.08-2.77-14.79-1.46-8.7,3.06-14.13,10.61-16.91,19.08-4.08,1.75-3.45-2.29-4.43-4.57-1.06-2.48-4.7-7.48-6.72-9.32-2.28-2.08-10.55-7.38-13.48-6.87-.81,1.52-.86,2.9-2.95,2.37l.78-2.73ZM86.6,20.75c.27-2.35-.34-4.37-1.06-6.56-.14-.43-1.59-4.87-2.45-4l3.52,10.56ZM7.19,10.98c-1.06-.23-.67.31-.97.77-6.58,10.13-1,25.41,6.44,33.65l-5.27-9.78c-3.36-8.15-4.44-16.56-.2-24.63Z"/>
  </g>
</svg>