<?xml version="1.0" encoding="UTF-8"?>
<svg id="Layer_3" data-name="Layer 3" xmlns="http://www.w3.org/2000/svg" viewBox="0 0 80.24 68.23">
  <g id="Layer_1" data-name="Layer 1">
    <path d="M34.62,8.09c2.23,2.45,3.95,5.3,4.92,8.51l.77.25c3.42-5.63,11.36-12.12,17.91-13.58,17.68-3.95,25.64,10.15,20.44,25.92-4.46,13.54-22.88,29.4-34.47,37.5-2.59,1.81-3.89,2.09-6.59.4-3.19-2-8.09-6.25-11.17-8.79-8.91-7.34-17.56-15.52-23.04-25.86C-9.34,8.44,16.48-11.85,34.62,8.09ZM23.89,3.95C15.97,1.58,7.63,5.12,4.39,12.81c-5.34,12.69,5.39,25.41,13.44,34.17.66-.42-.16-.86-.4-1.17-3.33-4.33-8.16-9.48-10.04-14.6C4.14,22.39,4.64,7.13,15.59,4.05c3.01-.84,4.29-.18,7.05.18.42.06,1.35.43,1.26-.28ZM31.97,13.08c-5.49-6.26-17.04-10.22-21.57-.92C1.36,30.73,24.83,50.07,36.64,61.24c.95.9,2.16,3.1,3.47,2.98.75-.07,9.16-6.95,10.39-8.04,10.91-9.64,25.42-22.7,23.81-38.69-.4-3.95-1.29-7.24-5.08-9-9.4-4.37-23.71,5.05-27.42,13.58-.72,1.66-2.21,10.99-5.24,7.34-1.62-1.94.18-4.27.25-6.11.09-2.35-3.24-8.38-4.85-10.22ZM73.97,33.68c1.95-1.79,2.41-4.93,2.73-7.43l-2.73,7.43Z"/>
  </g>
</svg>