<?xml version="1.0" encoding="UTF-8"?>
<svg id="Layer_3" data-name="Layer 3" xmlns="http://www.w3.org/2000/svg" viewBox="0 0 85.81 75.04">
  <g id="Layer_1" data-name="Layer 1">
    <path d="M28.13,66.51C17.43,55.82,4.36,42.12,1.03,27.05-6.81-8.54,32.39-5.62,39.92,21.18c8.3-11.55,35.83-34.2,44.43-11.38,7.58,20.13-16.14,40.88-29.82,53.19-2.91,2.62-14.41,13.43-17.74,11.91-.55-.25-7.41-7.14-8.66-8.39ZM66.65,14.39c-1.82-.42-2.31,1.01-3.4,1.93-8.85,7.44-18.52,22.39-22.82,33.04,5.78-6.07,9.59-13.77,14.64-20.59,1.1-1.49,3.47-2.85,4.61-4.31,2.39-3.04,3.55-7.27,6.97-10.06ZM74.42,16.33c-1.74-1.59-11.32,10.72-12.45,12.31-4.25,5.97-11.04,16.2-14.41,22.51-.71,1.33-1.72,2.25-1.31,4.03l5.27-4.92,22.89-33.93ZM24.87,20.22l-3.11,2.23-5.63,9.42c2.76.32,9.26-11.12,8.74-11.64Z"/>
  </g>
</svg>