<?xml version="1.0" encoding="UTF-8"?>
<svg id="Layer_3" data-name="Layer 3" xmlns="http://www.w3.org/2000/svg" viewBox="0 0 92.18 82.81">
  <g id="Layer_1" data-name="Layer 1">
    <path d="M47.46,18.63l.8-.24c4.35-7.9,15.41-15.64,24.46-16.53,9.36-.93,17.02,7.39,18.75,15.98,4.76,23.72-15.46,39.91-31.12,53.41-3.12,2.68-6.38,6.32-9.58,8.81-.68.53-4.14,2.76-4.68,2.77-.95.02-3.17-1.57-4.09-2.21C29.03,71.59,9.04,53.31,2.79,38.85-3.03,25.4-.18,5.92,15.46.92c12.63-4.04,27.62,5.86,32,17.71ZM14.59,6.9c-6.7.78-10.06,8.07-10.95,14.08,1.09.21.63-.3.91-.84,1.14-2.21,2.32-6.58,4.16-8.26.78-.7,2.03-.64,2.75-1.23,1.08-.88,2.03-2.73,3.13-3.75ZM83.05,42.49c5.46-7.59,7.16-18.49,3.9-27.38-.74.21-.72.52-.62,1.18.2,1.34.86,2.95,1.02,4.5.8,7.85-1.04,14.66-4.3,21.71ZM15.38,24.89c1.65-1.12,3.04-3.13,3.51-5.08-1.54,1.13-2.94,3.24-3.51,5.08ZM12.63,44.45c-.32-2.05-1.61-3.85-2.24-5.78-.84-2.6-1.05-5.32-1.87-7.91-1.08,1.77.09,5.53.7,7.51s1.69,4.81,3.4,6.18ZM6.76,39.75c-.16-1.13-.6-2.42-.99-3.5-.28-.78-.68-2.31-1.35-2.75.18,2,1.04,4.67,2.34,6.26ZM22.8,57.36c0-.78-.72-1.55-1.18-2.14-1.89-2.4-5.39-7.15-7.41-9.02-.52-.48-.81-.71-1.57-.57,2.6,4.53,6.28,8.31,10.17,11.73Z"/>
  </g>
</svg>