<?xml version="1.0" encoding="UTF-8"?>
<svg id="Layer_2" data-name="Layer 2" xmlns="http://www.w3.org/2000/svg" viewBox="0 0 20 20.07">
  <g id="Layer_1" data-name="Layer 1">
    <path d="M10.66,4.79C14.81-4.06,23.24.36,18.7,9.88c-.9,1.88-6.36,9.45-8.01,9.99s-2.14-.05-3.14-1.21c-1.67-1.93-4.58-5.71-5.8-7.89C-3.71,1.05,4.86-4.44,10.66,4.79ZM10.92,15.6c2.1-2.05,7.57-9.06,6.2-11.98-1.44-3.07-4.99,4.09-5.83,4.72-3.48,2.57-3.85-6.81-7.99-5.05-1.75,4.93,3.94,9.17,6.2,13.06.27.2,1.21-.53,1.43-.74Z"/>
  </g>
</svg>