<?xml version="1.0" encoding="UTF-8"?>
<svg id="Layer_3" data-name="Layer 3" xmlns="http://www.w3.org/2000/svg" viewBox="0 0 38.93 89.09">
  <g id="Layer_1" data-name="Layer 1">
    <g>
      <path d="M23.71,26c5.19,5.96,5.76,14.17,9.44,20.76,1.12,2,5.38,6.7,5.68,8.04.43,1.93-.68,3.64-2.71,3.64-3.22,0-8.79-8.98-10.38-11.7-.39,0-1.3,6.87-1.31,7.62-.03,2.29,2.9,10.12,3.61,13.06,1.23,5.1,2.04,10.28,3.03,15.43.41.6,8.12-.78,6.56,3.94-.94,2.82-10.36,2.73-12.73,1.38l-3.52-17.78-3.6-7.7c-1.08,7.78-5.11,13.61-8.91,20.18,6.83,2.66,6.75,7.03-1.62,6.09-2.86-.32-6.79-1.75-7.26-4.94,2.48-6.58,7.92-11.81,8.89-18.93.53-3.92.34-8.25.75-12.22s1.34-8.05,1.85-12.04c-.99-.21-.64.25-.92.73-2.94,4.96-2.8,8.49-3.62,13.81-.86,5.54-6.45,4.69-6.59.08-.2-6.28,6.07-21.52,10.94-25.75.81-.7,4.5-2.88,4.64-3.15.31-.62-.29-.49-.51-.58-2.59-1.14-4.66-1.95-6.52-4.24C2.63,14.02,6.78,1.78,16.65.22c17.18-2.72,22.95,20.01,7.06,25.78ZM31.71,13.26c0-6.81-5.52-12.32-12.32-12.32S7.06,6.45,7.06,13.26s5.52,12.32,12.32,12.32,12.32-5.52,12.32-12.32ZM23.63,27.2c-.35-.27-.8-.36-1.23-.42-.53-.07-4.23-.33-4.45-.29-.41.07-.54.91-.93,1.15-1.01.64-2.65,1.02-3.8,1.75-5.69,3.64-9.86,15.73-11.19,22.16-.48,2.32-1.28,4.92.95,6.51l.83.12c2.7-.85,1.83-3.32,2.13-5.32.87-5.83,2.79-11.74,6.67-16.3.47-.56,1.79-2.26,2.59-1.86-.43,2.02-2.6,2.56-2.94,4.84-1.25,8.31-1.18,17.33-2.25,25.54-.94,7.2-6.3,12.35-8.89,18.94,2.01,5.85,19.83,5.22,6.34-.77-.05-.76,5.8-9.4,6.59-11.17,1.49-3.34,1.74-7.97,3.11-10.97.27-.6.73-.97,1.2-1.39l.53,2.41c4.41,6.89,4.22,14.59,6.06,22.12.39,1.61.36,3.39,2.28,3.65,1.57.21,11.57.44,9.42-2.93-1.8-1.38-5.57.1-6.54-1.8-.93-4.34-1.51-8.75-2.49-13.08-1.31-5.8-4.33-12.54-3.88-18.33.2-2.62.96-5.49,1.11-8.15s.2-15.01-1.21-16.42ZM25.57,30.82c-.2,1.2.34,2.33.38,3.5.12,3.04-.54,8.31.16,10.96.28,1.06,2.34,3.99,3.08,5.07.82,1.2,7.21,10.2,8.56,6.15.74-2.24-4.56-6.71-5.33-9.01l-6.85-16.68Z"/>
      <path d="M27.42,17.85c-1,5.23-12.36,4.59-14.08.55-.66-1.56,2.56,1.09,2.84,1.23,3.38,1.71,8.61,1.1,11.23-1.79Z"/>
    </g>
  </g>
</svg>