<?xml version="1.0" encoding="UTF-8"?>
<svg id="Layer_3" data-name="Layer 3" xmlns="http://www.w3.org/2000/svg" viewBox="0 0 42.98 82.9">
  <g id="Layer_1" data-name="Layer 1">
    <g>
      <path d="M28.53,34.48c-.1,1.89.14,3.85,0,5.74-.24,3.18-1.39,7.07-1.49,10.03-.08,2.44,3.8,9.6,4.83,12.57,1.41,4.06,2.29,8.31,3.51,12.43.83,1.12,7.42-.96,7.6,2.44.14,2.78-4.04,3.76-6.21,4.12-2.76.46-5.98,1.03-7.31-2.12-1.69-3.97-2.13-9.73-3.99-13.8-1.26-2.76-3.88-5-5.27-7.69-.65.29-1.62,5.75-2.03,6.87-1.56,4.29-6.45,7.6-9.63,10.77-.22,1.01,6.52,4.91,2.66,6.72-3.33,1.56-12-2.59-11.14-6.67.4-1.91,6.55-8.6,8.02-10.9,3.17-4.95,2.63-11.32,3.45-16.93.59-4.05,1.66-8.03,2.17-12.09l-2.16,2.47c-1.42,1.95-4.04,6.64-4.42,8.92-.27,1.64.1,3.26-.25,4.94-.91,4.35-5.96,4.53-6.51-.21-1.08-9.43,8.49-24.24,17.79-26.87-1.27-1.02-2.57-1.49-3.9-2.58C4.28,14.44,11.76-1.14,24.22.07c6.24.61,11.43,5.81,12.04,12.04.18,1.82-.61,4.63-.25,5.81.16.51,2.47,3.05,3.05,4,2,3.26,5.68,10,1.88,12.94-3.4,2.63-8.51-.49-12.41-.37ZM14.21,4.6c-12.81,12.81,10.95,29.58,19.28,15.02C40.75,6.95,23.95-5.14,14.21,4.6ZM28.53,33.37c4.31-.03,13.76,4.76,12.97-3.15-.17-1.74-2.3-6.22-3.27-7.84-.85-1.42-2.02-2.38-2.66-3.83l-2.95,4.25,2.96,6.86-7.41-1.85.37,5.55ZM31.86,23.74l-4.06,2.04c-.1,1.37,4.91,1.78,5.92,2.41l-1.85-4.45ZM41.32,76.73h-6.3c-1.82-4.19-2.58-8.95-4.09-13.33-.88-2.54-4.8-10.11-4.98-11.72-.27-2.35,1.24-7.91,1.47-10.71.15-1.74.4-4.65.4-6.29,0-2.51-.58-5.55-.84-8.09l-.53-.58c-1.8.36-4.36-.55-5.88-.46-7.92.48-15.51,11.65-17.88,18.47-.74,2.13-3.11,9.97.48,10.48s2.59-4.81,2.85-6.77c.49-3.62,5.91-13.85,9.73-14.37.83-.11.54.34.56.93-.09.4-.86-.08-1.13.42-.38.72-1.12,5.15-1.36,6.36-1.24,6.37-1.21,16.6-3.43,22.14-1.22,3.05-9.11,11.19-9.28,12.98-.34,3.48,8.48,7.24,10.21,4.99.46-.6-.09-.76-.38-1.13-.6-.76-4.01-3.6-3.88-4.22,3.75-3.74,8.83-6.98,10.46-12.17.3-.95,1.8-8.44,2.31-8.43,1.34,3.82,4.88,6.55,6.56,10.11,2.05,4.37,2.42,10.28,4.53,14.74,1.46,2.21,9.93.32,10.77-1.51.28-.6.32-1.64-.37-1.85Z"/>
      <path d="M30.75,18.55c-1.64,3.65-11.94,3.95-12.61.19-.24-1.34,2.38.92,3.24,1.21,3.66,1.21,6.01-.27,9.36-1.39Z"/>
    </g>
  </g>
</svg>