<?xml version="1.0" encoding="UTF-8"?>
<svg id="Layer_2" data-name="Layer 2" xmlns="http://www.w3.org/2000/svg" viewBox="0 0 61.62 116.49">
  <g id="Layer_1" data-name="Layer 1">
    <path d="M48.07,7.46c-2.89,3.66-8.74-1.13-12.03-.57-1.74.29-9.13,4.51-10.89,5.72-1.28.88-3.81,2.36-3.65,4.1.1,1.11,1.91,6.19,2.5,7.32.95,1.8,2.63,3.05,3.28,5.04,3.2-.57.77-2.55.1-4.28-1.39-3.63-.14-9.12,3.33-11.13,3.62-2.09,7.48-2.23,10.87.32,4.76,3.59,3.4,11.5-1.19,14.63-.96.65-4.46,1.78-4.6,1.99-.16.26-.12.92,0,1.21.18.44,5.87,2.99,7.07,3.86,2.86,2.06,11.66,12.19,12.99,15.27.97,2.25,1.1,4.17-.72,5.98-1.73,1.72-6.2,4.27-8.46,5.48-1.65.88-6.25,3.3-7.83,3.52-.55.08-3.93-2.02-3.48-.52,4.21,8.93,7.88,18.25,11.31,27.51,1.14,3.09,1.9,6.33,3,9.43.75,2.1,2.04,6.73,3.89,7.8,1.48.85,12.85,3.73,5.71,5.93-2.18.67-9.45.32-11.57-.45-1.08-.39-2.14-2.31-2.73-3.29-5.18-8.61-9.44-19.58-14.3-28.65-2.26-4.21-4.87-8.26-7.17-12.43-.34,0-.74,2.45-.83,2.94-1.96,10.7-3.41,21.59-4.97,32.34-.36,2.47.42,8.08-2.29,9.02-1.24.43-5.18.86-6.61.92-2.86.13-5.81-.28-8.63-.71-1.54-3.92,7.68-4.72,8.37-7.09.5-1.72.66-6.14.83-8.22,1.24-14.81.87-31.26,4.42-45.7,1.47-5.97,6.79-16.73,5.5-22.25-1.81-7.73-11.67-16.66-2.13-23.74C19.54,7.01,31.24.4,33.71.07c2.68-.37,10.45.85,12.86,2.15,1.89,1.02,2.9,3.47,1.5,5.24ZM41.27,45.76c-2.05-2.14-2.9.96-3.7,2.63-1.96,4.07-4.14,8.86-3.7,13.45,1.33.4,1.11-.86,1.96-1.24,1.1-.49,1.26-.34,2.46-1.01,3.39-1.91,6.67-3.94,9.5-6.65l-6.52-7.18Z"/>
  </g>
</svg>