<?xml version="1.0" encoding="UTF-8"?>
<svg id="Layer_3" data-name="Layer 3" xmlns="http://www.w3.org/2000/svg" viewBox="0 0 56.02 88.44">
  <g id="Layer_1" data-name="Layer 1">
    <g>
      <path d="M31.49,27.38c-1.16,1.09,7.93,8.75,9.77,8.46.61-.11,6.9-8.95,6.89-9.76,0-.6-.57-1.07-.66-1.58-.38-2.13,3.5-8.18,5.61-6.8.7.46.7,1.95,1.12,2.52.34.45,1.38.55,1.66,1.49.61,2.02-.74,4.91-1.71,6.66-1.31,2.35-7.48,12.1-9.14,13.47-3.9,3.23-8.05-1.6-11.68-2.97-.08,1.53.11,3.1,0,4.63-.29,3.69-1.93,9.39-1.86,12.62.03,1.43,4.21,8.63,5.11,10.82,1.93,4.69,3.56,10.06,4.91,14.92,2.23-.82,8.49-2.43,8.54,1.31.02,1.51-.97,2.29-2.23,2.97-1.99,1.09-9.37,3.29-11.12,1.82-1.41-1.18-4.72-13.82-5.94-16.66s-3.26-5.38-5-7.96c-1.7,2.92-2.94,8.07-5.93,10s-9.25,1.94-12.78,3.16c-.53,1.99-3.24,10.47-6.32,6.67-1.8-2.22.03-12.79,2.88-13.82s7.96-.17,11.06-1.91c.77-.62,3.58-10.31,3.77-11.8.21-1.7-.09-3.43.14-5.05.67-4.66,1.64-9.33,2.55-13.94-2.09,1.62-4.07,4.05-5.25,6.42-.76,1.54-2.71,6.79-2.83,8.33-.11,1.45.65,2.51.13,4.18-.99,3.19-9.41,4.93-7.14-3.43.68-2.5,2.7-7.44,3.8-9.92,3.01-6.82,8.45-11.64,14.99-15.02-11.72-3.59-13.38-19.26-2.57-25.18,10.36-5.67,20.9,1.26,19.98,12.94-.41,5.24-5.25,11.89-10.74,12.42ZM26.95,1.53c-12.83,1.87-14.74,20.93-1.84,24.63,18.72,5.37,22.12-27.58,1.84-24.63ZM52.61,18.48c-1.04-.76-4,3.92-4.07,5.03-.05.91.69,1.45.71,2.18.07,2.72-6.23,8.9-7.42,11.66-3.51-1.02-6.26-3.47-8.85-5.9.82,1.64-.18,4.93.71,6.14.32.44,6.61,4,7.34,4.15,1.62.34,2.46.05,3.64-1.01s9.56-14.22,9.92-15.65.79-3.82-1.22-4.01l-1.11,1.85c-.13-1.67,1.18-2.81.36-4.45ZM30.3,27.83c-7.57-.79-15.92,7.32-19.03,13.62-.85,1.73-4.6,11.38-4.65,12.8-.11,3.17,2.31,3.58,4.61,1.98,2.44-1.7.53-3,.76-5.14s2.42-7.59,3.49-9.51c1.26-2.25,4.35-5.87,6.55-7.16.46-.27.82-.47.92.19.05.33-.58.95-.71,1.5-1.77,7.21-1.85,14.26-3.16,21.3-.26,1.4-3.01,10.51-3.63,11l-12.17,2.18c-1.31,1.69-3.55,11.81-1.22,12.34s3.51-6.5,4.2-7.97c3.56-.09,10.53-.72,13.37-2.93s4.49-7.74,5.19-11.12c.14-.67.06-.92.92-.56.14.06.92,2.31,1.24,2.85,1.6,2.69,3.72,5.1,4.95,8.02.93,2.22,4.62,15.56,5.57,16.11,2.42.42,11.03-1.49,11.64-3.98.21-.85-1.59-1.48-2.27-1.53-1.53-.1-5.32,1.53-5.92.77-3.06-8.68-5.64-17.58-10.48-25.48.64-6.67,2.22-13.57,2.16-20.3-.02-2.98-.66-6.48-2.32-8.99Z"/>
      <path d="M35.56,19.96c-.87,2.68-4.27,3.75-6.85,3.74-1.83,0-6.52-1.61-6.86-3.55-.08-.48.07-.77.56-.56.64.27,1.5,1.71,2.9,2.29,3.85,1.6,7.15.48,10.26-1.93Z"/>
    </g>
  </g>
</svg>