<?xml version="1.0" encoding="UTF-8"?>
<svg id="Layer_3" data-name="Layer 3" xmlns="http://www.w3.org/2000/svg" viewBox="0 0 102.17 101.08">
  <g id="Layer_1" data-name="Layer 1">
    <path d="M76.52,29.04c-4.25-.09-8.81-1.38-13-.37-.44.11-.69-.28-.56.54,6.85,14.41,11.97,29.53,18.51,44.05,3.87,2.95,7.93,5.71,12.04,8.31,1.59,1.01,7.89,4.13,8.35,5.21,1.34,3.14-1.94,9.51-4.08,11.94-1.99,2.26-4.04,2.51-6.94,2.29-.14-1.21.24-2.19.68-3.27,1.61-3.93,5.38-5.07-.55-7.98-5.81-2.85-11.43-4.1-16.72-8.53-5.68-4.76-8.48-12.33-12.62-18.27l-1.12-.42-21.66,5.33c-.76.78,1.91,11.82,2.35,13.63.68,2.78,3.83,11.5,3.21,13.6-.22.75-1.35,1.46-2.09,1.68-1.78.53-9.34,2.22-10.9,2.21-3.12-.02-3.38-2.03-1.64-4.2,1.39-1.74,3.88-1.39,4.91-2.25,1.47-1.22-2.33-7.87-2.93-9.52-1.58-4.34-5.3-15.06-3.94-19.22.94-2.9,9.25-6.61,12.15-7.82,1.52-.63,11.96-3.88,12.01-4.52-1.38-2.35-9.05-18.93-10.39-19.34-.74-.22-1.74-.1-2.52-.03-4.08.37-8.49,1.93-12.86,2.21-5.27.34-12.94.74-18.1.4-2.14-.14-7.48-.53-8.01-2.93-.73-3.3,2.92-4.04,5.39-4.24,6.2-.5,11.72-.63,17.98-1.62,7.63-1.21,15.05-3.18,22.48-5.22l-.32-2.05c-5.45.81-8.32-4.96-7.92-9.77.63-7.58,10.39-12.17,15.82-6.03,2.4,2.72,2.61,8.24.69,11.24-.67,1.05-4.23,3.41-1.82,4.58,1.35.66,10.6.06,13.02.17,3.8.18,13.86,1.09,16.73,3.24,1.24.93,1.69,2.27,1.86,3.79.29,2.57-1.46,14.53-2.41,17.1-2.2,5.94-8.02,5.46-7.35-.94.15-1.41,1.15-2.76,1.48-4.18.24-1.03,1.12-8.51.8-8.81Z"/>
  </g>
</svg>