<?xml version="1.0" encoding="UTF-8"?>
<svg id="Layer_2" data-name="Layer 2" xmlns="http://www.w3.org/2000/svg" viewBox="0 0 58.6 82.42">
  <g id="Layer_1" data-name="Layer 1">
    <g>
      <path d="M37.03,26.82c3.09,3.46,6.24,10.76,11.33,11.45,1.96.27,8.2-.45,9.27.37,2.54,1.96-.45,4.81-2.79,5.43-6.01,1.58-12.51-.23-17.06-4.28l-2.08,12.06c1.8,2.35,4.41,3.87,6.34,6.09,4.17,4.82,5.17,11.63,7.95,17.26,1.04.73,7.33-2.11,8.1.42,1.11,3.7-6.98,6.5-9.79,6.73-1.89.16-2.57.18-3.55-1.55-2.88-5.06-4.47-11.69-7.17-16.92-.35-.45-6.99-4.8-7.62-5.02-.77-.28-1.12.15-1.82.19l.38-.74h-.74c-1.19,2.56-3.64,8.72-5.95,10.17-3.16,1.99-10.71,1.86-14.46,2.96-.46,2.07-2.32,8.89-5.53,7.44-2.76-1.25-1.97-10.07-.47-12.32,2.29-3.42,11.82-2.57,15.46-4.55,1.68-3.53,3.07-7.33,4.08-11.12,1.24-4.65,2.62-10.68,3.5-15.4.17-.93-.19-.38-.59-.22-4.62,1.82-7.65,4.8-9.46,9.44-.81,2.06-.82,6.63-4.09,6.12-4.89-.76-1.59-8.77-.1-11.43,3.81-6.8,11.04-11.94,18.72-13.34l-5.75-4.07C16.53,14.5,21.46,1.46,31.32.16c18.25-2.4,22.93,22.24,5.71,26.66ZM46.6,13.5c0-6.97-5.65-12.62-12.62-12.62s-12.62,5.65-12.62,12.62,5.65,12.62,12.62,12.62,12.62-5.65,12.62-12.62ZM35.86,26.88c-2.61.48-5.5-1.72-6.8,1.05-.35-.93-.4-.84-1.38-.66-7.64,1.4-18.58,10.88-18.83,18.99-.04,1.18-.15,2.76,1.14,3.35,2.61,1.18,2.52-2.92,3.06-4.35,2.1-5.62,4.94-8.7,10.52-10.98.23-.09,3.8-1.58,3.09-.24-.41.48-1.13.55-1.4,1.19-1.59,3.83-2.26,11.88-3.52,16.49-.63,2.3-2.72,9.22-4.01,10.81-1.74,2.13-12.75,1.93-14.98,3.92-1.78,1.58-2.4,10.16-.56,11.34,2.41,1.53,3.67-5.8,4.15-6.63.72-1.24,8.46-1.86,10.34-2.26,1.31-.28,4.04-.85,4.99-1.68,2.17-1.89,3.63-6.9,5.69-9.15l-.51-1.61c4.17,1.36,7.86,4.26,11.47,6.69l7.98,17.96c4.05.48,8.5-1.35,11.12-4.46.49-2.23-6.75.39-7.99-.52s-4.62-12.29-6.01-14.74c-2.03-3.6-6.04-5.66-8.53-8.89.67-8.4,3.96-17.31.98-25.62ZM56.93,41.9c.81-.97.69-2.36-.62-2.71-6.34.54-10.02.93-14.45-4.05l-4.08-5.73.15,8.54c2.41,3.46,6.96,5.35,11.13,5.56,1.77.09,6.74-.24,7.87-1.6Z"/>
      <path d="M41.72,18.88c.22-.16-.06-.9.87-.59-1.56,3.59-5.95,3.71-9.28,2.79-1.45-.4-3.82-1.35-3.69-3.17,3.44,2.89,8.3,3.72,12.09.96Z"/>
    </g>
  </g>
</svg>