<?xml version="1.0" encoding="UTF-8"?>
<svg id="Layer_2" data-name="Layer 2" xmlns="http://www.w3.org/2000/svg" viewBox="0 0 41.86 64.75">
  <g id="Layer_1" data-name="Layer 1">
    <g>
      <path d="M26.3,24.78c3.59,3.56,5.27,8.41,6.36,13.27,2.72.63,4.92.36,4.36,3.93-.19,1.2-1.12,1.84-1.12,3.36,0,1.8.63,4.42.77,6.31s-.08,3.94-.02,5.88c.11.41,8.02,1.28,4.12,4.88-1.41,1.3-3.57,1.41-5.39,1.27-.92-.07-2.79-.79-3.31-.74-.32.03-.35.98-.96,1.3-1.73.93-8.21.43-10.09-.28-2.87-1.09-1.09-4-2.35-4.31-7.37,1.46-15.51,1.28-18.06-7.16-2.12-7.02,1.51-17.28,5.73-23.03,1.69-2.3,3.69-4.71,6.61-5.44C-.75,14.47,11.19-5.12,26.3,1.25c9.54,4.02,10.27,20.14,0,23.53ZM17.31,1.52c-4.03.62-8.58,5.36-9.14,9.39s1.45,10.86,5.88,12.21c2.24.69,6.81,1.46,9.09,1.27,10.19-.84,12.75-14.59,4.98-20.53-3.15-2.41-6.92-2.95-10.81-2.35ZM31.86,38.48c-1.53-4.47-2.62-9.53-6.31-12.79-2.26-.07-4.57.45-6.85.2-4.23-.47-4.66-2.54-8.9,1.1-5.95,5.11-11.21,19.79-7.36,27.02,1.93,3.63,6.64,6.47,10.49,3.91.93-.62,5.5-6.25,5.79-7.18.68-2.17-.47-4.74-.27-7l-4.01-2.28c-1.87,3.99-4.95,7.48-7.78,10.75-.47-1.41,3.27-5.24,3.27-5.75,0-.28-1.48-1.09-1.05-2.03l1.67,1.1,3.1-4.34c.14-.96-4.08-6.36-4.61-8.25-.22-.78-.34-1.3.39-1.86,1.53,3.5,5.22,11.51,9.63,11.5.56,0,.66.08.57-.57s-1.74-4.05-2.16-4.89c-1.24-2.48-3.9-4.97-2.65-7.9,1.21-.29.62,1.58.91,2.6.51,1.81,2.34,3.6,2.85,5.49l6.24.06c.31-2.29.29-4.56.37-6.86.02-.45-.28-1.38.37-1.29l.8,7.73c1.4.25,2.45.66,3.15,1.93l2.35-.4ZM20.8,42.51c2.12-.07,8.38,3.01,8.37-1.17-.02-5.34-6.66-2.42-9.9-2.85l1.53,4.02ZM35.88,40.02c-2.04-1.11-3.71-.65-5.87-.42.21,2.04-.03,3.35-1.48,4.81,3.85,2.16,8.03.37,7.36-4.39ZM25.14,44.47l-5.88-.79c.32,1.6.68,3.74.76,5.35.13,2.98-.68,11.37.73,13.36.2.29.57.72.91.77l4.65-.21-.74.73c1.16-.14,5.19.58,5.38-1.06.27-2.25-4.78-2.23-5.32-4.01l-.49-14.15ZM26.68,48.86c.67-.3,2.84-2.57,1.86-3.16l-2.24-.18.38,3.34ZM35.2,45.53c-1.11.71-5.22,1.1-5.52,2.1.46,3.19,1.06,6.37,1.44,9.57.16,1.31-.34,2.5.36,3.72,1.42,2.52,9.74,2.19,9.22-.34-.36-1.72-4.86-1.38-5.08-2.3l-.41-12.76ZM30.38,59.98l-1.67-11.48-2.03,2.42c.21,1.45-.49,7.08.36,7.78l3.34,1.29ZM18.89,54.05c-1.18-1.16-4.1,3.66-4.82,4.44h4.82s0-4.44,0-4.44Z"/>
      <path d="M28.01,17.57c.22-.2-.04-.72.51-.58-1.09,4.34-6.42,4.8-10.1,3.25-.86-.36-3.74-1.83-1.76-2.33,3.85,2.81,7.8,2.8,11.35-.34Z"/>
    </g>
  </g>
</svg>