<?xml version="1.0" encoding="UTF-8"?>
<svg id="Layer_2" data-name="Layer 2" xmlns="http://www.w3.org/2000/svg" viewBox="0 0 57.85 70.33">
  <g id="Layer_1" data-name="Layer 1">
    <g>
      <path d="M34.92,31.99l-1.89,14.02c2.65.58,9.31,1.93,10.2,4.81,1.17,3.78-2.2,10.05-4.27,13.18-.01.78,5.41.54,4.81,4.06-.17,1.02-1.26,1.65-2.14,1.96-2.67.92-11.17-.12-10.67-3.99.2-1.61,4.65-10.63,4.29-11.1l-8.41-2.54-.67.29c-.72,2.63-5.31,9.76-7.86,10.32-3.33.73-8.58-3.43-10.67-5.85h-.54c-.47,1.82-3.47,3.8-5.09,2.47-2.34-1.92.3-7.65,1.92-9.53,4.59-5.34,6.33.97,9.45,3.53.55.45,1.85,1.77,2.4.91l6.13-22.77c-6.77-3.12-12.86-8.67-16.01-15.51-1.12-2.42-1.69-5.81-2.83-7.92C2.02,6.37-.33,6.32.04,3.26s2.7-1.58,3.84-1.79c.46-.09.77-.97,1.54-1.05,1.1-.12,1.41,1.01,1.89,1.1.59.11,2.27-2.13,3.5-.56,1.5,1.91-1.45,3.71-1.81,4.93-.93,3.1,5.27,13.23,8.45,14.93-.64-1.68-1.84-3.26-2.13-5.09C13.86,6.5,21.26-.26,30.23.45c8.5.67,13.93,9.68,11.33,17.62-.41,1.25-1.25,2.3-1.68,3.5,3.38-2.73,6.41-7.68,6.85-12.05.23-2.27-.91-7.06-.02-8.54,1.44-2.41,3.25.39,3.97.52.56.1,1.16-.71,1.8-.68.48.02.86.58,1.22.63,2.15.29,5.1-.21,3.86,3.34-.77,2.21-3.28,3.01-3.96,4.19-.96,1.65-1.65,6.22-2.62,8.5-2.79,6.58-9.37,12.19-16.06,14.51ZM50.43,4.89c-1.46-.72.01-2.99-1.72-3.66l-1.06.31c-.49,2.72.43,5.13.15,7.93-.75,7.48-7.5,15.34-14.74,17.32-.34.42.54,1.77-.78,1.44l-1.11-1.11.74-1.1-7.78-.37,2.59,1.11c.33,1.25-1.54.77-2.2.53-3.41-1.23-9.25-6.35-11.5-9.25-1.72-2.22-5.03-8.46-5.18-11.16-.13-2.37,2.45-2.99,2.2-5.32-2.11-.25-2.08,1.63-3.33,2.59l-.42-2.54h-1.38s-.42,2.91-.42,2.91c-1.2.22-.83-1.52-1.84-2.05-1.69-.89-1.77,1.53-1.22,2.7.36.77,1.27.95,1.78,1.55,1.99,2.36,2.59,7.2,4.18,10.27,3.22,6.2,9.25,11.39,15.65,14.04-2.32,6.17-2.76,12.85-4.57,19.14s-2.47,7.85-7.5,2.52c-1.11-1.18-2.08-3.83-4.02-3.62-2.48.27-5.56,7.1-4.63,9.48,2.1,1.21,3.69-1.15,4.75-2.74l.54-.16c2.07,2.26,7.42,7.2,10.69,6.22.57-.17,3.38-3.2,3.91-3.89,2.22-2.89,2.81-5.9,4.35-9.01.26-.53-.08-.93.9-.74.42,1.17-1.23,2.39-.38,3.15,1.29,1.14,9.63,2.23,9.64,3.33-.39.37-.73.78-.92,1.3-.97,2.64-3.13,7.36-3.65,9.72-.77,3.47,8.74,4.48,10.17,2.73,2.19-2.67-4.31-2.95-4.48-3.76,1.32-3.29,5.82-10.4,4.25-13.88-1.11-2.46-10.41-3.72-10.51-4.63,1.46-4.74,2.67-10.52,1.8-15.39,2.79.34,5.72-1.81,7.9-3.41,4.4-3.21,7.25-6.45,9.15-11.6.75-2.04,1.25-5.52,2.14-7.13.73-1.32,5.69-3.99,3.79-5.86-2.6-1.41-1.87-.2-2.8.92-.26.31-1.71,1.86-1.84,1.86-.31.02-.56-.35-.18-.92.22-.34,2.53-2.45.92-2.78-1.33-.28-1.86,2-2.03,2.96ZM26.25,1.65c-14.14,1.93-13.02,23.65,2.87,23.66,17.66,0,15.13-26.12-2.87-23.66Z"/>
      <path d="M36.35,17.49c-.68,2.36-4.25,3.69-6.48,3.73-1.63.03-5.81-1.41-6.12-3.17-.28-1.56,2.91,1.29,3.34,1.48,1.99.87,4.22.7,6.19-.12,1.31-.54,1.82-1.61,3.08-1.92Z"/>
    </g>
  </g>
</svg>