<?xml version="1.0" encoding="UTF-8"?>
<svg id="Layer_3" data-name="Layer 3" xmlns="http://www.w3.org/2000/svg" viewBox="0 0 48.64 111.82">
  <g id="Layer_1" data-name="Layer 1">
    <path d="M40.44,67.6c-.96-1.33-.34-7.07-.5-9.11-.53-6.9-2.83-13.45-3.86-20.26l-.67-.09c.02.89.38,1.72.4,2.62.56,19.3,3.57,39.41,5.26,58.81.12,1.41-.23,3.23.01,4.51.42,2.19,7.42,2.42,7.55,5.27.1,2.28-2.93,2.49-4.71,2.47s-7.65-.75-9.35-1.25c-.4-.12-.82-.12-1.05-.54l-8.83-47.22-9.05,46.73c-1,2.06-11.34,2.16-13.53,1.85-1.71-.24-2.35-.52-2.03-2.34.41-2.36,7.7-3.65,7.85-4.28.08-13.38,2.39-26.62,3.75-39.89.87-8.5,2.21-17.51,1.89-26-.02-.46.28-1.4-.37-1.31l-3.36,14.92-.59,14.11c-1.76,2.84-5.24,2.92-6.26-.57-1.89-6.47,1.24-29.71,3.15-36.84,1.19-4.48,3.11-7.22,7.78-8.42,1.3-.33,6.75-.53,7.01-.9.28-.4.28-1.95.11-2.43-.14-.39-3.1-1.56-4.11-3.43-2.78-5.18-.16-12.02,5.57-13.67,3.65-1.05,6.11.22,8.37,3.11,2.61,3.34,3.43,9.75-.18,12.61-.88.69-4.29,1.64-2.64,3.02,1.03.86,6.29.96,8.08,1.72,6.61,2.81,7.21,8.51,8.25,14.73,1.29,7.65,3.14,20.31,2.32,27.82-.32,2.96-4.02,7.35-6.29,4.22Z"/>
  </g>
</svg>