<?xml version="1.0" encoding="UTF-8"?>
<svg id="Layer_3" data-name="Layer 3" xmlns="http://www.w3.org/2000/svg" viewBox="0 0 86.13 112.61">
  <g id="Layer_1" data-name="Layer 1">
    <path d="M39.21,18.6v1.97s.58.54.58.54l21.78,5.35.9-.61c2.39-2.77,5.14-10.58,7.76-12.59,3.83-2.95,7.57,1.19,6.43,5.3-3.4,4.36-6.39,13.8-11.96,15.55-6.35,1.99-12.33-1.26-18.63-1.6-.43-.02-.82-.07-1.1.34l-1.29,13.78c.15,1.78-.24,3.91.02,5.62.31,2,9.84,13.41,11.8,16.08,1.5,2.04,2.71,4.3,4.23,6.32,4.34,5.8,8.76,11.57,13.52,17.04,2.39,1.55,10.54-5.24,12.54-2.96.81.93.07,2.67-.65,3.49-1.67,1.89-8.42,6.66-10.73,7.73-1.48.69-2.7.71-4.2,0-4.52-4.21-8.5-8.96-12.72-13.45-6.22-6.63-15.31-18.1-22.1-23.31-.38-.29-.48-.73-1.13-.56l-3,21.24c1.31,4.17,2.41,8.4,3.65,12.59.62,2.1,3.7,10.04,3.41,11.54-.42,2.13-6.67,3.42-8.58,3.82s-6.28,1.56-7.93,0c-1.11-1.05.85-2.93,1.77-3.53,1.89-1.22,5.04-1.35,5.7-3.95-2.82-5.41-6.85-11.73-8.32-17.67-2.04-8.22.15-14.86,1.19-22.76,1.38-10.51,1.2-20.87,1.55-31.42-6.21.7-21.39,8.12-23.55-1.88-.79-3.66,1.96-17.46,4.51-20.37,2.1-2.39,5.84-2.09,6.24,1.32.33,2.84-.98,3.93-1.62,6.31-.39,1.44-2.31,9.04-1.4,9.72,8.2-2.13,15.46-6.59,24.07-7.2.73-2.68-.92-2.19-2.21-3.54-4.79-5.03-.63-15.8,6.62-16.73,12.73-1.64,12.06,14.77,2.86,18.49Z"/>
  </g>
</svg>