<?xml version="1.0" encoding="UTF-8"?>
<svg id="Layer_2" data-name="Layer 2" xmlns="http://www.w3.org/2000/svg" viewBox="0 0 47.8 86.96">
  <g id="Layer_1" data-name="Layer 1">
    <g>
      <path d="M27.05,24.92c.49.92.1,1.98,1.3,2.22,4.54.91,9.14-1.98,11.14-5.92,1.28-2.52,1.88-9.21,4.83-9.63,5.25-.76,3.32,6.72,2.19,9.61-2.75,7.05-9.68,12.96-17.59,11.5-.14,3.38.18,6.81,0,10.19-.29,5.3-1.52,7.75-.26,13.24,1.86,8.13,5.19,16.12,6.74,24.39.89,1.19,6.08-.97,7.33,1.95,1.81,4.2-8.04,4.57-10.31,4.36-2.13-.2-2.3-.65-3.03-2.53-2.94-7.58-3-16.65-8.63-23.06-.68,8.49-6.73,13.17-12.21,18.77-.18,1.02,4.22,3.02,3.04,5.59-1.85,4.03-11.85-1.72-11.59-5.99.09-1.47,4.85-5.51,6.12-6.88.99-1.07,4.41-4.6,4.81-5.56,1.42-3.36,1.02-10.14,1.3-13.89l1.1-14.64c-3.26,3.15-4.19,7.34-4.81,11.68-.28,1.96.34,6.11-2.51,6.75-6.99,1.56-3.42-10.48-2.33-13.81,1.73-5.27,4.44-9.95,8.73-13.5,2.31-1.92,5.07-3,7.21-5.01-4.66-2.31-8.37-5.92-8.54-11.48C10.92,7.07,15.89.85,22.09.12c16.98-1.99,21.08,21.04,4.96,24.79ZM21.4,1.28c-6.43,1-10.53,8.72-8.69,14.82,3.38,11.2,21.82,10.15,23.2-1.05C37.05,5.83,30.51-.13,21.4,1.28ZM28.6,31.52c6.64,1.63,12.68-2.75,15.8-8.35,1.2-2.15,3.8-8.73,1.39-10.52-2.79-2.07-4.21,6.24-4.84,7.81-2.19,5.42-6.86,8.43-12.78,7.79l.43,3.27ZM26.28,25.32c-2.11.04-3.91,0-5.89-.78l-1.14,2.96c-2.21-.24-6.46,2.99-8.14,4.63-4.24,4.15-9.31,16.72-8.06,22.53.52,2.42,3.9,1.82,4.34-1.05.63-4.08.07-6.93,1.93-11.04,1.36-3,4.3-6.71,7.36-8.02.27,1.75-1.92,1.55-2.21,3.16-1.09,6-.66,13.81-1.12,20-.24,3.18-.65,6.4-1.2,9.54-1.22,2.79-10.55,10.46-10.96,12.42s3.94,5.56,5.76,5.94c.82.17,3.53.38,3.79-.51.54-1.84-3.76-3.48-3.17-5.34.47-1.48,6.38-6.39,7.83-8.14,1.99-2.4,2.67-4.21,3.61-7.13.47-1.46.82-4.5,1.39-5.56.29-.55,3.24-2.4,2.6-.47-.1.3-1.53.48-1.44,1.42l4.67,8.32,4.73,17.14c1.88.8,10.32.52,10.89-1.75.73-2.85-6.21-.8-7.19-1.96-1.66-8.7-5.31-17.23-7.19-25.79-1.13-5.13.05-7.31.34-12.21.35-6.03.09-12.48-1.52-18.3Z"/>
      <path d="M32.24,17.13c.66.53-.5.82-.7.96-2.65,1.89-5.88,2.09-8.93,1.07-.7-.23-3.84-1.7-2.97-2.77,2.69,1.89,5.29,2.61,8.61,2.13.93-.14,3.73-1.59,3.99-1.38Z"/>
    </g>
  </g>
</svg>