<?xml version="1.0" encoding="UTF-8"?>
<svg id="Layer_3" data-name="Layer 3" xmlns="http://www.w3.org/2000/svg" viewBox="0 0 55.84 84.54">
  <g id="Layer_1" data-name="Layer 1">
    <g>
      <path d="M35.94,26.15c-.09.71.74.09,1.15.6,3.75,4.61,5.55,13.14,11.7,16.38,2.35,1.24,6.5,1.18,7.02,4.51.32,2.1-1.36,3.57-3.38,3.72-2.81.2-2.99-1.19-5.03-2.39-3.66-2.15-7.04-3.55-9.6-7.26-.06,3.16-1.42,6.76-1.51,9.81-.08,2.7,2.01,4.87,3.18,7.22,2.9,5.81,5.39,11.69,6.49,18.15,2.2-.06,8.8-.52,7.61,3.36-.87,2.84-10.71,3.8-12.64,2.22s-4.15-12.68-5.67-15.46l-4.88-6.05c-.68,8.25-7.12,12.08-12.23,17.6,1.2,1.41,3.41,2.39,2.39,4.63-1.71,3.78-10.95-1.28-10.55-5.33.15-1.49,6.58-8.07,7.97-9.85.29-.37.72-.47.55-1.11-1.13,1.06-1.73.62-3.04.26-1.83-.51-14.57-5.21-15.15-5.98-.4-.54-.36-.78-.28-1.41.2-1.53,2.55-9.02,3.25-10.49,1.29-2.72,3.08-.23,5.2-.17.06-.73.69-2.64,1.09-3.1.32-.36.87-.06,1.14-.49.83-1.27,1.87-4.82,2.89-6.67,3.04-5.47,8.5-11.62,14.88-12.73l-5.92-3.89C11.69,10.02,28.81-6.92,41.13,2.98c8.86,7.12,5.97,20.89-5.19,23.17ZM45.09,13.44c0-6.78-5.5-12.28-12.28-12.28s-12.28,5.5-12.28,12.28,5.5,12.28,12.28,12.28,12.28-5.5,12.28-12.28ZM29.64,58.76c.69-.16.72.23,1.05.62,1.18,1.37,4.77,5.77,5.45,7.15,1.98,4.03,2.82,9.7,4.7,13.83.21.45.41,1.12.81,1.41,1.14.82,10.43.49,10.98-2.08.3-2.78-6.19-.92-7.26-2.01-1.54-4.55-2.53-9.29-4.45-13.71-1.42-3.27-5.87-9.39-5.73-12.41.32-7.2,3.76-15.76.93-23.18-.98-2.56-5.43-2.58-7.05-.74l-.72-.74c-6.94,2.42-12.46,8.81-15.34,15.43-.82,1.89-3.29,8.16.5,8.26,3.04.08,2.88-4.3,3.61-6.38,1.42-4.09,5.67-9.37,9.92-10.64-.13,1.31-1.56,1.24-2.12,2.5-3.87,8.72-.01,24.11-5.5,31.93-1.41,2.01-7.95,8.3-8.25,9.94-.56,3.03,7.07,7.31,8.29,4.92,1.07-1.9-2.77-3.06-2.38-4.56.23-.89,7.76-7.55,9.04-9.15,2.3-2.85,3.09-6.81,3.52-10.38ZM37.79,30.59c.73,3.47-.61,8.56,1.49,11.29,2.44,3.17,5.54,4.45,8.85,6.34,1.8,1.02,1.85,2.24,4.29,2.02,1.36-.12,2.18-.69,2.41-2.09-.42-2.71-3.39-2.66-5.33-3.53-3.49-1.57-5.41-4.25-7.58-7.25l-4.14-6.79ZM21.48,52.83c.34-5.37.92-10.7,2.22-15.93-2.5,1.75-6.1,6.9-6.23,9.93-.06,1.42,2.35,3.04,1.05,5.26l2.96.75ZM18.89,66.54c1.89-1.75,1.79-5.04,2.22-7.41-.55.21-.75,1.64-.92,2.22-.49,1.71-.86,3.47-1.3,5.19Z"/>
      <path d="M28.16,17.25c.19-.21,2.96,1.86,3.69,2.05,1.97.5,4.25.11,6.14-.55,1.28-.45,2.23-1.35,3.51-1.68-1.65,2.79-6.23,4-9.29,3.35-.82-.17-5.11-2.02-4.05-3.17Z"/>
    </g>
  </g>
</svg>