<?xml version="1.0" encoding="UTF-8"?>
<svg id="Layer_3" data-name="Layer 3" xmlns="http://www.w3.org/2000/svg" viewBox="0 0 57.15 81.91">
  <g id="Layer_1" data-name="Layer 1">
    <g>
      <path d="M37.47,39.31l-1.85,11.68.08,1.77c5.96,6.21,8.12,14,10.33,22.09h7.13c3.42,4.59-4.93,6.63-8.2,6.97-4.5.48-4.47-.98-5.92-4.62s-2.5-9.9-4.22-12.82c-.5-.85-6.08-6.33-6.81-6.54-2.39,4.33-3.82,9.3-8.88,11.13-3.72,1.35-8.13,1.48-12.01,2.26-.41,8.24-7.64,10.05-7.1.12.08-1.38,1.04-5.57,1.85-6.58,1.4-1.75,11.97-1.55,14.5-3.48,3.92-8.14,5.43-17.11,7.39-25.87-.14-.45-.81-.13-1.13-.02-3.82,1.33-7.85,4.71-9.17,8.62-.86,2.56-.5,7.31-4.68,6.76-4.53-.59-1.5-8.13-.28-10.62,3.83-7.85,11.92-12.37,20.08-14.58.18-.97-.16-.57-.53-.77C10.75,15.69,24.79-5.49,39.69,1.33c7.69,3.52,9.4,12.89,4.89,19.71-2,3.02-4.68,3.8-7.85,5.11,2.72,3.43,5.36,11.45,10.17,12.05,3.19.4,8.38-2.38,9.92,1.2,2.56,5.95-10.9,6.02-14.17,4.91-2.06-.7-4.52-2.89-5.19-5ZM32.2,1.25c-13.52,1.61-15.42,20.79-.74,23.51,18.99,3.51,18.88-25.67.74-23.51ZM35.56,26.02l-4.88-.37c-1.55,2.15-1.18.91-2.93,1.12-5.39.64-14.05,7.02-16.97,11.6-1.27,1.99-6.47,12.91-.63,11.25,1.89-.54,1.47-3.19,1.84-4.48,1.63-5.58,5.22-8.47,10.4-10.72,1.93-.84,6.74-2.48,2.47.34-1.8,7.79-2.88,16.47-6.12,23.8-.72,1.64-1.31,3.7-3.13,4.29-2.49.81-11.58,1.68-12.65,2.55-.73.59-1.7,3.82-1.82,4.85-.17,1.51-.23,7.49,2.24,6.71,2.71-.86,2.1-6.1,3.32-6.7,1.58-.78,7.96-1.11,10.45-1.78,7.46-2,7.12-7.25,10.6-12.75.25-.39.4-.94.99-.86.6.54-.38,1.65-.02,2.22.17.28,1.1.68,1.51,1.1,1.53,1.56,4.62,4.17,5.57,5.92,2,3.71,2.85,10.07,4.7,14.2.49,1.09.84,2.41,2.3,2.45.76.02,3.06-.32,3.93-.48,8.48-1.57,8.26-6.59-.66-3.98l-.66-.28c-1.87-4.26-2.59-9.2-4.34-13.47-1.56-3.8-4.06-6.25-6.43-9.51-.13-5.08,1.41-10.29,1.71-15.38.1-1.73.25-10.96-.81-11.64ZM37.47,29.31v8.71c0,.42,2.59,3.42,3.16,3.88,2.64,2.16,6.33,2.16,9.62,1.86,1.99-.19,7.57-1.23,5.4-4.28-1.27-1.79-6.05.03-8.38-.14-2.91-.22-4.07-1.75-5.88-3.75l-3.92-6.27Z"/>
      <path d="M30.43,17.82c1.46.23,2.61,1.38,4.05,1.69,3.64.76,5.47-.78,8.17-2.8-.02,2.38-4.17,4-6.13,4.09-1.79.08-5.76-.85-6.09-2.97Z"/>
    </g>
  </g>
</svg>