<?xml version="1.0" encoding="UTF-8"?>
<svg id="Layer_2" data-name="Layer 2" xmlns="http://www.w3.org/2000/svg" viewBox="0 0 76.81 117.35">
  <g id="Layer_1" data-name="Layer 1">
    <path d="M40.16,34.53l10.74,42.96c.39.6.42.24.81.07,1.78-.76,5.42-3.26,7.26-4.44,2.47-1.57,7.25-5.95,10-5.43,1.63.31,5.38,6.21,6.13,7.82.86,1.85,3.26,8.12.19,8.7-2.88.54-4.56-6.24-7.4-5.97-2.21.21-11.64,7.51-14.78,9-2.39,1.13-6.56,2.81-8.6.41-2.16-2.54-5.07-11.01-6.25-14.48-.4-1.18-1.9-8.1-2.81-8.11-.48.3-.5.74-.68,1.2-1.35,3.55-2.79,9.28-3.84,13.11-1.74,6.32-1.38,7.35.38,13.56,1.06,3.74,6,15.78,5.46,18.64-.26,1.38-4.75,3.47-6.14,4.04-1.86.76-7.65,3.09-8.74.67-1.2-3.78,5.66-4.87,5.46-7.67s-4.82-10.24-6.03-13.6c-1.88-5.23-2.71-9.41-1.77-14.98,1.21-7.19,5.35-17.76,5.56-24.62.16-4.94-1.19-13.41-1.87-18.51-.07-.51.11-.98.22-1.46-.12-.89-5.07-1.61-6.19-1.95C4.34,29.55-2.27,23.84.7,9.2c.51-2.51,2.86-7.96,6.28-5,2.46,2.12.41,12.08,1.34,15.25,4.03,4.6,8.35,5.65,14.33,5.3,1.58-.09,6.12-.46,6.77-1.91.41-.81-.22-2.76-.77-3.37-.99-1.09-2.7-.63-3.76-3.02-2.05-4.62.94-12.23,5.22-14.76s9.68-2.45,12.24,2.58c2.35,4.6.06,10-3.69,13.13-.88.73-3.42,1.76-3.71,2.7-.32,1.05-.16,3.3.66,4.1.73.71,4.73,1.29,5.88,1.31s2.01-.42,3-.43c4.07-.01,9.51.6,13.01-2.03,3.8-2.85,7.08-7.98,10.78-11.08,4.17-1.48,7.01,2.12,4.45,5.95-2.32,3.47-11.86,13.13-15.62,14.53-5.53,1.24-11.29,1.6-16.95,2.08Z"/>
  </g>
</svg>