<?xml version="1.0" encoding="UTF-8"?>
<svg id="Layer_3" data-name="Layer 3" xmlns="http://www.w3.org/2000/svg" viewBox="0 0 61.1 111.19">
  <g id="Layer_1" data-name="Layer 1">
    <path d="M37.23,15.69c-1.39,1.52-4.26,1.82-3.62,4.26,2.95.48,6.29.6,9.11,1.63,3.2,1.16,16.41,12.14,17.7,15.09.95,2.18.9,3.92-.14,6.03-1.38,2.8-11.08,11.54-13.98,12.41-.79.24-1.85-.48-2.16.66l.75.38-2.28.6,4.61,47.76.3.45c1.51.47,7.08,2.03,7.5,3.46.79,2.73-4.93,2.82-6.56,2.76-1.87-.06-8.17-.75-9-2.3-2.6-11.86-4.26-23.91-6.8-35.79-.66-3.08-1.21-6.66-2.08-9.61-.16-.55.22-.66-.76-.55l-9.4,46.85c-1.25,1.83-12.39,1.37-14.85.95l-.99-1.65c.06-2.02,6.14-4,7.9-4.14,1.53-.92,1.32-11.06,1.52-13.18.59-6.29,1.64-12.56,2.25-18.85.56-5.71.58-11.48,1.51-17.14l-2.66-.57.02-1.32c-.65-.24-.86.55-1.31.6-2.08.25-9.49-6.71-10.94-8.51-2.78-3.45-4.16-7.26-1.31-11.11,2.96-4,12.57-12.74,17.31-13.97,1.11-.29,7.09-.85,7.39-1.28l.1-1.85C17.16,13.76,20.61-1.34,31.43.1c7.49.99,10.58,10.39,5.8,15.59ZM16.68,50.43c.58.55,2.44.27,2.62-1.24.25-2.03.11-5.81,0-7.95-.07-1.36-.81-9.39-1.72-9.59-1.63.49-9.19,7.18-9.22,8.09.94,2.17,2.58,4.28,4.13,6.05,1.12,1.28,3.17,2.64,4.05,3.7.19.22.03.84.14.94ZM52.77,38.48l-10.12-6.82c-1.46,6.26-1.46,12.8-1.51,19.22.82.08,1.36.06,2.09-.36.67-.38,4.5-4.42,5.26-5.29.85-.98,4.92-5.73,4.28-6.75Z"/>
  </g>
</svg>