<?xml version="1.0" encoding="UTF-8"?>
<svg id="Layer_3" data-name="Layer 3" xmlns="http://www.w3.org/2000/svg" viewBox="0 0 49.3 82.39">
  <g id="Layer_1" data-name="Layer 1">
    <g>
      <path d="M29.91,26.01c3.13,5.17,5.18,13.58,11.12,16.11,2.42,1.03,9.86,1.21,7.96,5.37s-11.7.01-14.38-1.91c-1.46-1.04-2.46-2.64-3.95-3.64.38,2.98-2.18,8.06-1.2,10.64.88,2.32,4.5,6.03,5.82,9,1.88,4.26,2.4,9.52,3.56,14.04,2.57-.18,9.11-.25,7.1,4.03-1.01,2.15-11.21,3.56-12.6,2.21-1.89-1.82-3.17-13.31-4.46-16.47-.37-.91-4.25-5.47-5.08-6.04-.31-.22-.37-.52-.93-.36-1.02,3.16-3.35,7.72-5.96,9.79-1.39,1.11-9.07,5.36-9.45,6.13.5,1.74,3.99,6.37.69,7.34-4.27,1.25-9.81-6.9-7.69-10.28s10.21-6.87,11.77-9.38c1.67-2.69,2.36-12.25,2.96-15.9s1.55-7.35,2.1-11.05c-3.79,1.26-6.81,4.93-8.33,8.53-1.15,2.74-1.4,9.75-5.77,8.35-2.76-.89-1.8-4.8-1.27-6.87,2.3-9.04,10.88-16.66,19.45-19.65-3.12-2.13-6.07-3.72-7.48-7.52C10.24,8.57,18.14-1.11,28.58.1c14.39,1.67,15.24,23.08,1.34,25.9ZM38.84,13.27c0-6.8-5.51-12.31-12.31-12.31s-12.31,5.51-12.31,12.31,5.51,12.31,12.31,12.31,12.31-5.51,12.31-12.31ZM29.16,26.39l-5.75-.27-1.09,1.36-.54-.02-.19-.72c-7.63,3.56-14.58,8.58-17.79,16.69-.63,1.6-2.63,7.43-.3,8.09,3.34.94,3.46-5.14,4.49-7.6,2.31-5.55,6.94-9.27,12.66-10.86.07,1.38-1.73,1.09-2.14,2.11-.88,2.14-1.71,8.48-2.18,11.16-.74,4.19-1.18,12.91-3.01,16.27-1.63,3-12.05,8.38-12.62,10.75-.43,1.79,4.54,9.32,6.98,8.09,2.66-1.34-2.34-5.94-1.44-7.19l11.26-7.45c2.27-1.52,5.11-11.21,6.67-11.86,1.42-.59-.78,2.08-.39,2.95.35.77,3.98,4.05,4.84,5.19.43.58.9,1.1,1.18,1.78,1.21,2.95,2.68,14.33,4.16,15.85s8.99-.5,11.09-1.37c1-4.23-6.34-1.63-7.2-2.89-.85-4.02-1.5-8.53-2.78-12.41-1.41-4.28-4.58-7.82-6.94-11.61,1.04-8.68,3.55-17.32,1.02-26.02ZM31.02,30.45v10.19c1.4,1.15,2.67,3.03,4.1,4.05,1.95,1.39,12.59,5.99,12.97,1.86.22-2.44-4.58-2.38-6.31-2.96-2.79-.92-5.08-2.75-6.61-5.25l-4.15-7.9Z"/>
      <path d="M34.73,18.22c.13.65-.34.91-.73,1.3-2.93,2.83-8.12,3.32-11.11.37.64-.85.63-.49,1.3-.2,3.09,1.34,4.68,1.82,7.91.16.52-.27,2.35-1.92,2.64-1.62Z"/>
    </g>
  </g>
</svg>