<?xml version="1.0" encoding="UTF-8"?>
<svg id="Layer_3" data-name="Layer 3" xmlns="http://www.w3.org/2000/svg" viewBox="0 0 71.79 113.34">
  <g id="Layer_1" data-name="Layer 1">
    <path d="M44.77,2.46c4.43,4.11,3.29,14.38-3.64,14.94l.18,2.66c1.41.9,2.99,1.08,4.47,1.93,4.74,2.72,5.6,8.65,7.72,13.38,1.14,2.54,2.51,5.81,3.91,8.15,2.65,4.43,7.41,7.89,10.65,11.96,1.73,3.58-.48,5.16-4.04,4.42-2.04-.42-10.49-7.47-12.15-9.33-2.87-3.22-4.72-7.2-6.78-10.94l-3.13,17.05c3.3,7.33,8.39,13.89,11.42,21.4,2.71,6.73,3.76,14.84,6.49,21.4.36.85,1.49,3.05,2.18,3.51,1.25.83,8.73-2.54,9.56-.17.56,1.61-.16,2.54-1.27,3.51-1.72,1.5-10.83,6.69-12.81,6.81-2.05.12-2.26-.62-3-2.28-3.83-8.6-6.19-19.02-10.42-27.64l-11.82-17.94c-2.93,6.64-3.46,14.51-6.9,20.98-3.19,5.99-9.43,9.72-13.65,14.62-.34.4-2.17,2.55-2.21,2.72-.44,1.71,4.84,4.38,4.51,8.22-.35,4.19-7.88-1.34-9.46-2.64-2.3-1.89-6.3-5.27-3.76-8.3,4.05-4.65,8.59-9.13,12.42-13.95,6.82-8.57,5.69-19.23,8.63-29.43l1.55-24.25c-.33-.45-8.18,6.2-8.61,7.06-.29,1.1,2.13,9.11,2.95,10.1.72.86,1.6.61,1.87,2.28.35,2.18.51,8.47-3.25,7.04-3.49-1.32-6.87-9.44-7.85-12.91-.7-2.49-1.53-5.53-1.31-8.1.6-7.11,12.62-15.88,19.01-17.91,1.32-.42,7.22-1.33,7.56-1.86,1.11-1.68-1.6-3.21-2.4-4.41-6.07-9.07,5.56-19.31,13.37-12.05Z"/>
  </g>
</svg>