<?xml version="1.0" encoding="UTF-8"?>
<svg id="Layer_3" data-name="Layer 3" xmlns="http://www.w3.org/2000/svg" viewBox="0 0 48.48 86.9">
  <g id="Layer_1" data-name="Layer 1">
    <g>
      <path d="M26.72,26.03c.34,3.56,1.43,6,3.71,8.7s4.96,4.84,8.43,5.28c2.26.29,11.52-1.08,9.27,3.52-2.49,5.1-17.21,1.25-20.3-2.68.09,3.94-2.1,8.78-2.24,12.43-.08,2.25,4.54,9.66,5.58,12.56,1.61,4.47,2.36,10,3.32,14.65,2.23-.18,8.73-.09,8.09,3.43-.4,2.21-6.99,2.79-9,2.88-2.97.13-3.86.43-4.92-2.53-1.78-4.97-2.23-12.1-4.36-16.77-.23-.51-3.3-4.61-3.52-4.44-1.17,2.33-1.74,5.65-3.18,7.76-1.02,1.5-4.24,4.39-5.71,5.77-.61.57-3.53,2.6-3.67,3.02-.63,1.87,3.38,3.08,2.94,5.11-2.86,5.77-11.68-2.67-11.14-6.63.13-.92,4-3.35,5.02-4.27,1.17-1.04,6.69-6.37,7.12-7.33.34-.77,2.56-9.91,2.6-10.74.06-1.11-.58-2.13-.65-3.25-.32-5.57,1.3-10.63,1.85-16.12-.24-.27-2.08,1.22-2.4,1.49-2.83,2.39-5.76,7.88-6.7,11.46-.49,1.88-.12,6.57-3.31,6.65-5.15.13-2.55-8.4-1.49-11.07,2.02-5.09,5.98-10.82,10.43-14.03,2.73-1.96,5.88-2.85,8.27-5.07-3.17-1.21-6.12-2.73-8.08-5.62C7.41,12.45,12.81,1.04,22.09.09c17.11-1.75,20.06,22,4.63,25.94ZM21.06,1.29c-9.91,1.68-12.94,16.68-3.73,21.71,6.01,3.28,13.54,2.87,16.76-3.86C38.65,9.58,31.81-.53,21.06,1.29ZM25.57,26.07c-2.87-.58-3.76.38-5.87,1.85l.35,1.08c-1.15-.1-.76-.85-1.97-.34-6.08,2.58-11.74,9.35-14.4,15.29-.93,2.09-4.22,10.4-.4,10.95,2.53.36,2.34-4.96,2.8-6.7,1.49-5.64,5.82-11.1,10.83-14,.58.4.53.61.53,1.24-.03,3.26-1.89,8.38-2.19,11.91-.12,1.49-.17,4.1,0,5.55.45,4,8.03,10.29,9.96,14.13l5.05,18.3c1.18,1.29,10.89-.61,11.26-1.14,1.81-2.62-6.43-2.81-7.71-2.6-1.22-4.72-1.84-10-3.36-14.61-1.1-3.35-6.06-11.1-5.91-13.64.22-3.73,1.95-8.17,2.21-12.27.32-4.99.05-10.16-1.16-14.99ZM27.83,33.26c.06,1.84,0,3.71,0,5.56,0,.14,1.53,1.94,1.84,2.23,3.02,2.75,12.84,5.14,16.46,3.1,1.45-.82,1.35-2.92.41-2.92h-8.15c-.15,0-2.41-.77-2.78-.92-2.75-1.16-6.54-4.77-7.41-7.6h-.55c-.52.06.18.46.18.56ZM3.87,83.34c1.15,1.15,4.77,3.57,6,1.62,1.12-1.77-5.01-3.54-2.07-6.51,2.54-2.57,7.52-5.63,9.35-8.8.4-.7,2.86-7.03,2.8-7.43l-4.54-5.8c-.97,3-1.11,8.45-2.62,11.09-.66,1.16-6.59,6.84-7.94,8-.72.62-3.51,2.14-3.67,2.65-.39,1.18,1.8,4.29,2.69,5.18Z"/>
      <path d="M21.16,21.58c-.04-.71-.17-.75.56-.75,2.74,0,3.84,1.63,7.11.09.23-.11,2.82-2.41,2.7-1-.03.34-2.22,1.9-2.7,2.11-2.82,1.23-4.92.43-7.67-.45Z"/>
    </g>
  </g>
</svg>