<?xml version="1.0" encoding="UTF-8"?>
<svg id="Layer_2" data-name="Layer 2" xmlns="http://www.w3.org/2000/svg" viewBox="0 0 70.45 109.73">
  <g id="Layer_1" data-name="Layer 1">
    <path d="M38.4,18.78c.81.51,6.19-.24,7.57-.23,3.74.03,10.23,1.09,13.58-.55,2.19-1.07,3.54-6.49,3.68-8.76.17-2.79-1.9-8.59,2.46-8.86,7.45-.46,4.36,15.88,2.61,19.95-3.42,7.95-13.03,6.38-19.96,7.54-.44.07-.68.17-.93.56,3.51,8.15,3.31,17.24,5.05,25.84,2.82,10.51,12.12,21.29,9.06,32.39l-8.09,14.53c-.21,2.29,4.42,2.83,6.03,4.87.95,1.2,1.31,3.22-.58,3.58-2.39.45-13.16-1.29-14.71-2.98-1.19-1.31-.38-3.36.1-4.84,1.76-5.38,5.62-11.03,7.45-16.29.89-2.55.74-3.33-.24-5.78-1.36-3.4-5.05-9.61-7.04-12.93-.59-.98-1.32-2.92-2.51-2.79l-.91.64c-2.68,5.47-8.47,11.31-10.78,16.72-1.15,2.68-2.31,7.5-3.09,10.47-.73,2.79-2.97,15.4-4.08,16.65-.71.8-4.34,1.06-5.64,1.14-1.81.11-8.89.37-9.8-1.12-1.94-3.17,6.33-5.67,8.46-5.32,2.03-9.36,3.02-20.21,5.95-29.28,1.88-5.81,9.82-18.72,9.53-23.62-.14-2.45-2.56-11.66-3.42-14.31-.13-.39-.12-.7-.55-.95-3.97,2.75-11.22,11.3-16.2,11.31-4.74,0-7.32-7.15-8.77-10.84C1.72,33.17-.36,27.9.05,25.6c.48-2.68,3.89-4.56,6.08-2.64,1.62,1.42,4.28,14.33,5.64,14.32,4.62-4.15,8.09-10.78,12.99-14.51,1.87-1.42,6.11-2.02,6.88-3.67.84-1.81-1.88-1.4-3.18-1.9-2.99-1.14-4.49-6.56-4.48-9.49.01-8.07,11.73-10.31,16.02-4.31,1.9,2.65,2.73,8.53.6,11.1-1.21,1.46-3.67,1.66-2.21,4.27Z"/>
  </g>
</svg>