<?xml version="1.0" encoding="UTF-8"?>
<svg id="Layer_2" data-name="Layer 2" xmlns="http://www.w3.org/2000/svg" viewBox="0 0 60.21 111.34">
  <g id="Layer_1" data-name="Layer 1">
    <path d="M39.33,20.45c5.58.75,17.46,12.72,20.02,17.66,1.2,2.31,1.18,3.23-.3,5.45-1.56,2.36-11.18,9.79-13.86,10.63-.49.15-1.01.17-1.52.17l.38,1.5-1.89.38c3.54,15.93,4.62,32.29,7.54,48.33.27.59,7.98,2.24,8.31,4.25.13.8-.21,1.75-1.04,1.99-.72.21-4.6.48-5.58.48-1.64,0-6.94-.34-8.26-.8-.61-.21-1.03-.28-1.26-1-3.52-15.43-6.76-30.95-11.39-46.08l-.84.48-10.29,45.86c-.78,1.13-5.55,1.46-7.13,1.54-3.22.15-6.5.04-9.62-.78-1.21-1.77,4.78-4.14,6.03-4.69s2.89-.25,3.14-1.76c.51-4.24,1.47-8.39,2.08-12.61,1.32-9.08,1.81-18.34,3.11-27.41.22-1.55.65-5.1,1.09-6.38.17-.49.89-.02.74-.64l-3.04-.17-.35-1.35c-.7.15-1,.38-1.75.1-1.91-.7-10.39-7.91-11.8-9.72s-2.26-3.04-1.63-5.39c.92-3.46,13.04-15.79,16.35-17.94,3.11-2.03,6.26-.94,9.61-2.08.47-3.04-2.51-2.85-3.93-4.78-5.48-7.44.12-17.46,9.76-15.42,7.21,1.53,8.74,14.37,1.17,16.47l-.06,3.71c1.96.19,4.32-.26,6.22,0ZM42.42,50.86c1.01-2.1,9.46-8.72,9.1-10.57-1.7-1.8-3.4-3.65-5.21-5.34-1.04-.97-2.73-2.59-3.77-3.39-.38-.29-.48-.73-1.13-.56l-1.13,20.35,2.15-.49ZM19.45,51.26c.42-.42.44-1.37.48-1.96.14-2.13-.2-6.42-.39-8.68-.25-2.94-.86-5.95-1.31-8.86l-10.3,10.36c1.68,1.87,8.15,9.44,10.3,9.57.34.02.99-.19,1.23-.43Z"/>
  </g>
</svg>