<?xml version="1.0" encoding="UTF-8"?>
<svg id="Layer_2" data-name="Layer 2" xmlns="http://www.w3.org/2000/svg" viewBox="0 0 77.85 28.61">
  <g id="Layer_1" data-name="Layer 1">
    <g>
      <path d="M68.25,17.8h7.23c1.6,0,2.77,2.15,2.25,3.73-1,3.02-11.16,2.2-13.92,2.58,2.45,3.63-2.32,4.25-5.01,4.44-7.41.53-13.77-2.14-20.75-2.59-4.41-.28-9.4.44-13.7,0-1.51-.16-2.52-.96-3.69-1.12-4.37-.6-14.09,1.11-17.51-.65-2.55-1.32-4.25-5.14-2.28-7.62,2.1-2.64,4.1.75,5.89,1.42,1.39.51,4.79-.4,6.47-.54,2.27-.18,4.59.11,6.85-.38-.53-3.9,1.24-6.09,4.89-7.16,5.89-1.72,12.87.81,18.46,2.71,1.88-19.96,31.6-14.73,24.83,5.19ZM54.08,1.22c-10.6,1.54-14.46,19.02-1.17,20.99,1.96.29,6.59.63,8.45.38,3.01-.41,5.41-3.61,6.25-6.35C70.37,7.3,63.15-.1,54.08,1.22ZM46.38,21.13c-.15-1.08-1.14-1.57-1.69-2.57-.74-1.37-.89-3.43-1.48-4.45-.48-.84-5.98-2.43-7.28-2.73-5.11-1.18-15.31-2.58-14.76,5.31.29.29,6.83-.27,7.87-.47,2.08-.4,7.95-3.4,9.08-2.96.45.17.91.45.46.83-2.78.07-5.12,2.13-7.77,2.8-5.2,1.31-12.89,1.27-18.36,1.65-1.86.13-4.29,1.05-6.02.45-1.45-.5-2.46-2.07-3.98-2.34-2.41.22-1.82,6.59,3.31,7.09,2.16.21,13.13.38,14.77-.01.31-.07.67-1.2,1.4-1.65,1.87-1.14,5.07-.34,7.21-.6l9.78.75c0-1.62,1.27-3.07,2.98-2.96.01,1.32-1.63,1.06-1.86,2.42s.31,2.34,1.36,3.08c2.79,1.97,14.57,2.96,18.1,2.64,1.73-.16,5.76-.91,2.97-2.96-1.67-1.23-6.99-.82-9.26-1.11-2.81-.36-5.5-1.34-8.34-1.48l1.48-.74ZM76.31,19.37c-.98-.96-6.9-.28-8.56-.4l-3.95,4.01c3-.4,8.63.24,11.29-.75,1.22-.45,2.37-1.72,1.21-2.86ZM38.92,23.05c-1.88-.19-3.79.04-5.68-.06-2.68-.15-8.22-1.25-10.46-.08-2.07,1.09.2,1.78,1.56,1.93,4.48.5,9.59.08,14.04.03.41,0,.87.39,1.33.34l-.8-2.16Z"/>
      <path d="M63.06,18.91c.08,2.52-4.49,2.02-6.23,1.6-2.28-.55-6.32-2.93-5.99-5.67l2.98,3.12c2.94,1.68,6.11,3.06,9.24.95Z"/>
    </g>
  </g>
</svg>