<?xml version="1.0" encoding="UTF-8"?>
<svg id="Layer_2" data-name="Layer 2" xmlns="http://www.w3.org/2000/svg" viewBox="0 0 53.82 69.94">
  <g id="Layer_1" data-name="Layer 1">
    <g>
      <path d="M6.29,3.85c.28.25,2.27-1.54,3-.52,1.22,2.34-.35,4.15-.7,5.99-.96,5.11,6.65,12.83,11.4,14.18-7.07-5.56-6.97-15.69.47-20.83,10.04-6.94,23.18,1.9,20.18,13.88-.33,1.31-1.24,2.37-1.2,3.62,1.94-1.83,4.91-5.57,5.57-8.14.8-3.09-2.76-11.54,3.51-7.79-.29-2.29,3.67-5.95,5-2.96,1.24,2.79-1.77,10.43-2.97,13.32-3.29,7.9-8.5,14.87-17.16,17.11-.68,4.77-.98,9.66-2.64,14.22,3.09.82,10.41.9,11.57,4.36s-2.98,10.08-4.17,13.43c-.09.79.06.47.56.55,1.68.26,5.36.58,4.58,3.44-.91,3.34-10.59,2.48-12.45.55-2.03-2.11,2.96-11.16,3.24-13.99l-8.75-2.19c-.76-.17-.42.07-.5.53-.49,2.81.02,5.46-3.34,6.3-4.15,1.05-8.88-.79-12.61-2.42-.38,2.4-1.76,5.97-4.63,5.95s-2.64-4.03-2.33-6.04c.28-1.79,2.31-6.72,3.99-7.49,2.37-1.09,8.01,2.94,10.74,2.77-.06-5.1.4-10.2,1.28-15.21.22-1.26,1.77-5.43.94-6.1-.62-.5-3.03-1.1-3.96-1.6-4.95-2.69-8.31-6.52-10.56-11.67C3.28,14.59.66,8.12.15,5.72-1.1-.2,5.73-2.63,6.29,3.85ZM8.51,4.22l-2.41,1.1c-.7-.03-.55-3.87-2.61-4.08C1.11,1,.94,3.63,1.27,5.35c.46,2.43,3.13,9.24,4.21,11.72,2.67,6.12,8.23,11.07,14.87,12.36-.26,4.06-1.69,7.98-2.16,12.07-.44,3.86-.34,7.77-.79,11.63-2.76.08-9.37-4.44-11.61-2.99-1.57,1.01-4.59,10.87-1.49,11.46,2.24.43,3.5-5.98,4.44-6.2,3.44,1.19,10.23,4.28,13.64,2.14,1.77-1.11,1.46-6.76,1.7-8.68.06-.52.2-1.07.74-.55l.99,2.91,10.5,2.66c-1.08.85-1.23,1.29-1.76,2.5-.6,1.38-3.6,9.87-3.09,10.67,1.37,2.17,10.09,2.83,10.75.29.53-2.03-3.48-1.97-4.6-2.33-.48-.15-.58.29-.56-.56.11-3.41,5.79-10.77,4.18-14.19-1.17-2.48-9.07-2.52-11.45-3.38-1.15-.42.08-.99.36-1.96,1.28-4.53,1.73-9.31,2.14-13.98,10.55-2.23,16.44-12.4,19.34-21.98.36-1.19,2.56-8.41-.23-7.65-2.18,1.29-1.97,3.93-3.03,5.88-1.2-.07-.02-1.76-1.07-2.62-.14-.12-.28-.23-.46-.29-2.3-.59-.53,4.08-.48,5.31.19,4.5-5.36,11.88-9.17,14.2-1.87,1.14-4.06,1.77-5.86,3.03-.75-.5-.49-.77-.18-1.47-1.79-.03-3.58.04-5.37,0-.74-.02-1.49-.43-2.24-.41s-.32.86-1.01.75c-5.74-.94-13.32-7.83-14.7-13.51-.83-3.42,1.18-4.57.71-7.94ZM26.21,1.35c-13.51,1.83-14.27,22.58,1.4,23.25,17.8.76,15.28-25.51-1.4-23.25Z"/>
      <path d="M35.56,16.08c1.2,1.16-4.79,2.85-5.41,2.92-2.8.31-7.72-.13-7.92-3.67,1.5,1.23,2.57,2.35,4.63,2.59,3.23.38,5.88-.45,8.71-1.85Z"/>
    </g>
  </g>
</svg>