<?xml version="1.0" encoding="UTF-8"?>
<svg id="Layer_2" data-name="Layer 2" xmlns="http://www.w3.org/2000/svg" viewBox="0 0 72.23 113.89">
  <g id="Layer_1" data-name="Layer 1">
    <path d="M45.3,23.61c5.38,4.76,5.93,8.93,8.88,15.05.67,1.38,2.06,4.8,2.96,5.71,2.68,2.7,9.98,4.98,12.31,7.48s1.02,5.77-2.31,5.54c-2-.14-13.74-5.09-15.45-6.43-3.39-2.64-4.63-6.64-7.35-9.79-.5,2.24-.48,4.61-.86,6.87s-1.85,6.65-1.8,8.38c.08,2.92,9.3,16.75,11.12,20.94,3.59,8.25,4.99,18.06,8.15,26.52,1.75,2.2,8.91-2.55,10.93,0,1.34,1.7-1.43,3.57-2.7,4.53-2.26,1.71-11.5,6.99-13.83,4.65-3.42-8.08-5.55-17.38-9.19-25.29s-9.65-14.6-14.08-21.71c-3.72,9.16-4.71,18.65-11.3,26.38-1.49,1.75-10.84,10.31-11.07,11.19-.39,1.51,2.88,4.05,3.42,5.87.97,3.27.18,5.52-3.48,3.85-1.53-.7-5.71-4.47-6.97-5.84-2.18-2.36-3.83-3.61-1.69-6.6,3.7-5.17,10.07-10.23,13.88-15.51,2.47-6.96,4.38-14.99,5.97-22.29,1.4-6.44,1.41-12.3,2.5-18.61.65-3.77,1.86-7.38,2.9-11.04-.3-.59-.67,0-.96.17-3.14,1.85-6.25,5.47-9.16,7.8-2.88,4.93-2.79,16.12-5.89,19.74-2.38,2.78-6.62,1.96-6.26-2.08,1.94-6.44,2.05-14.76,4.37-20.91,2.19-5.78,13.22-13.34,18.77-15.9,2.42-1.12,7.54-1.67,6.97-5.32-.21-1.33-3.24-3.31-3.67-6.52-1.88-14.15,19.07-13.51,18.07-.33-.4,5.2-4.61,6.42-7.9,9.46-.13.79,3.86,3.31,4.71,4.06Z"/>
  </g>
</svg>