<?xml version="1.0" encoding="UTF-8"?>
<svg id="Layer_2" data-name="Layer 2" xmlns="http://www.w3.org/2000/svg" viewBox="0 0 86.57 84.98">
  <g id="Layer_1" data-name="Layer 1">
    <g>
      <g>
        <path d="M23.55,24.96c.48,2.32,2.71,2.97,4.27,4.43,2.62,2.45,11.56,13.41,13.79,14,.79.21,1.64.17,2.43.01,5.89-6.11,12.65-11.13,19.53-16.04-12.46-2.72-12.07-20.44-.29-24.01,15.78-4.78,23.86,17.61,7.48,23.8-.36.14-.68-.19-.48.55.57,2.05,2.17,3.03,3.29,4.5,2.49,3.28,11.93,16.5,12.52,19.72.83,4.52-2.95,4.93-5.56,1.48-2.8-3.71-4.88-8.47-7.88-12.13.23,3.29-1.26,7.81-.9,10.9.46,3.92,4.47,12.33,5.91,16.7.96,2.92,1.63,5.94,2.55,8.87.47.66,5.9-.7,6.33,2.66.5,3.91-7.18,4.26-9.79,3.84-2.24-.37-2.38-2.6-2.99-4.43-2.31-6.94-2.85-14.5-7.59-20.38-.79,7.29-5.3,13.23-9.26,19.09.03.39,6.2,2.75,4.4,5.5-1.6,2.46-12.22-.47-11.39-4.67.63-3.18,5.73-9.49,7.15-13.25,1.8-4.76,3.05-11.85,2.38-16.86l1.51-12.04c-.3-.25-2.27,1.24-2.71,1.55-2.42,1.66-9.21,6.35-10.07,8.83-.48,1.39-.32,4.15-1.31,4.99-.72.61-1.71.46-2.56.77-.8.29-.6,1.01-2.44.94-3.47-.14-3.1-3.15-4.45-5.21-1.06-1.61-4.09-4.24-5.55-5.94-2.08-2.43-4.05-4.97-6.11-7.42.45,2.48.49,5.08.38,7.61-.09,1.93-.69,4.38-.75,6.29-.16,4.99,3.76,11.22,5.28,16.21,1.21,3.97,1.82,8.11,2.66,12.16.6.83,7.85.18,5.86,4.34-.96,2.02-7.05,2.53-9.08,2.21-2.5-.39-2.88-1.33-3.45-3.59-1.12-4.49-1.17-11.12-2.57-15.22-.57-1.66-3.53-4.77-4.64-6.29-.43,2.82-.84,6.3-2.04,8.89-1.12,2.42-6.27,8.11-6.49,10.21l.03.51c7.24,3.6,3.61,7.71-3.46,5.13-2.54-.93-4.59-2.1-3.8-5.12,1.06-4.01,6.41-9.25,7.51-12.86,1.99-6.52.43-13.49.82-19.94.21-3.49,1.28-7,1.12-10.55-2.98,2.58-5.87,7.49-6.57,11.4-.43,2.39.18,7.35-3.27,7.86-5.93.88-2.33-9.08-1.37-12.13,2.47-7.79,7.61-14.16,14.55-18.43l-4.63-3.88C3.83,10.49,13.54-3.26,25.77.7c11.72,3.79,10.43,22.87-2.21,24.27ZM32.93,12.65c0-6.31-5.12-11.43-11.43-11.43s-11.43,5.12-11.43,11.43,5.12,11.43,11.43,11.43,11.43-5.12,11.43-11.43ZM78.63,15.37c0-6.39-5.18-11.57-11.57-11.57s-11.57,5.18-11.57,11.57,5.18,11.57,11.57,11.57,11.57-5.18,11.57-11.57ZM22.72,25.42l-5.46-.83c.19,1.68-1.19,1.37-2.21,2.06-7.24,4.93-11.29,12.09-13.18,20.54-.37,1.67-1.97,6.29.39,6.68,3.73.62,3.06-6.19,3.77-8.81,1.17-4.33,5.04-9.44,8.43-12.32.32-.27,2.19-2.08,2.42-.91.14.72-2.29,1.49-2.57,3.35-.47,3.08-.98,7.96-1.15,11.08-.36,6.77,1.03,13.31-.88,20.24-.48,1.72-3.85,6.08-4.96,8.01-.56.98-2.89,4.82-2.95,5.55-.24,2.7,7.57,4.85,9.55,3.46-.34-2.02-2.28-3.16-3.9-4.06-.76-1.22,2.05-5.15,2.86-6.42,1.02-1.59,2.76-3.34,3.54-4.99,1.5-3.18,1.79-7.77,2.7-11.2,1.17-.13,1.09,1.26,1.54,1.97,1.22,1.91,3.92,5.02,4.57,6.92,1.18,3.47,1.35,9.19,2.15,13.05.19.94.48,3.22.98,3.84,1.36,1.7,9.4,1.03,9.99-1.21l-.32-1.05c-1.24-1.05-4.81-.46-5.54-1.5-1.25-4.67-1.75-9.56-3.26-14.16s-5.06-10.21-4.92-14.72c.05-1.79.67-4.1.75-5.92.28-6.34-.34-12.62-2.33-18.64ZM69.45,27.99l-4.36-.25c-3.32,2.53-6.93,4.65-10.21,7.24-1.55,1.22-10.15,8.73-10.49,9.89-.64,2.17.5,4.4,1.03,6.41l-3.33-3.15,1.11.19.37-3.7c-2.04.36-3.15-.72-4.62-1.87-3.19-2.49-5.4-5.97-8.16-8.89-.59-.62-5.5-5.78-6.12-5.18.79,5.84,4.37,9.43,7.96,13.71,1.52,1.81,4.32,4.15,5.54,5.95s1.15,4.65,3.87,4.97c.38.05,1.48-.08,1.16-.73-.12-.23-4.54-2.74-3.7-3.52,2.69.11,3.72,3.92,6.69,2.8.91-1.7.5-3.65,1.27-5.4,1.09-2.46,13.54-11.16,16.38-12.16.4-.14.92-.75,1.22.13.26.76-2.98,1.52-3.34,2.29.35,3.85-1,8.06-1.12,11.77-.06,1.74.45,3.2.39,4.82-.1,2.82-1.74,9.74-2.71,12.51-1.22,3.49-7.08,11.57-7.3,13.86-.25,2.58,6.25,4.37,8.34,4.26,1.98-.11,1.25-1.48.2-2.46-1.14-1.07-4.26-1.44-3.92-2.8.41-1.64,5.33-7.67,6.56-10.09,1.48-2.93,2.87-7.02,3.48-10.25.09-.46-.1-.71-.21-1.11.6-.08.85-.05,1.29.37.35.33,4.09,7.62,4.44,8.53,1.98,5.08,2.4,11.6,4.81,16.68,1.01,1.03,9.4.26,9.77-1.73.4-2.13-4.33-2.34-5.7-1.74-2.17-4.1-2.92-9.1-4.44-13.57-1.13-3.33-5.05-11.28-5-14.27.03-1.73.71-4.15.77-5.93.21-5.76.35-12.23-1.93-17.56ZM71.73,31.63c.58,2.08.33,4.78.82,6.77.35,1.44,8.53,14.37,9.72,15.48.26.24.46.57.84.67l1.22-.12c1.72-1.44.15-3.67-.68-5.26-3.09-5.92-7.96-12.15-11.92-17.54Z"/>
        <path d="M72.84,20.14c-.95,4.47-11.58,4.2-12.23.56-.26-1.49,2.28.94,2.88,1.2,1.8.77,3.78.82,5.65.28,1.61-.47,2.3-1.47,3.71-2.03Z"/>
      </g>
      <path d="M28,17.92c-2.3,3.33-8.67,4.29-11.11.92-.31-1.38,2.63.73,3.23.85,3.44.71,4.93-.85,7.88-1.77Z"/>
    </g>
  </g>
</svg>