<?xml version="1.0" encoding="UTF-8"?>
<svg id="Layer_3" data-name="Layer 3" xmlns="http://www.w3.org/2000/svg" viewBox="0 0 59.28 88.7">
  <g id="Layer_1" data-name="Layer 1">
    <g>
      <path d="M36.3,27.09c-.34.37,1.81,3.7,2.23,4.25,1.35,1.77,5.43,6.2,7.28,7.18,1.58.84,3.01.91,4.77.81,2.63-.15,7.37-2.6,8.53,1.08,1.24,3.92-4.72,5.06-7.42,5.22-5.46.33-10.36-.91-14.28-4.83-.21,2.25-.46,4.51-.86,6.74-.34,1.91-1.8,6.49-1.76,7.92.01.43.06.79.37,1.11,2.74,2.53,6.2,5.27,8.55,8.12,2.01,2.44,2.55,4.64,3.59,7.53s2.07,6.31,2.71,9.34c2.07-.9,9.24-3.63,9.24.56,0,3.39-11.55,8.04-14.55,6.14-1.33-.84-5.08-15.86-6.16-18.29l-9.09-6.94c-2.24,4.15-3.51,10.82-8.69,12.07-4.13.99-8.87.26-13.13.95l-.43.32c-.46,2.52-2.46,9-6.11,7.24-2.62-1.26.08-12.52,1.69-14.25,1.41-1.51,7.46-.96,9.61-1.13,1.97-.16,4.06-.74,6.07-.79,3.94-9.69,2.99-20.39,5.98-30.33-4.31,1.34-8.42,4.44-9.82,8.89-.81,2.56-.08,8.96-4.42,8.52-3.82-.39-2.79-5.89-2.13-8.39,2.55-9.66,12.54-16.2,21.55-19.03l-5.37-2.96C14.2,16.04,20.38.69,32.77.02c16.84-.91,20.66,24.1,3.53,27.07ZM31.39,1.24c-12.82,1.76-15.45,20.01-2.42,24.1,21.65,6.79,23.18-26.94,2.42-24.1ZM49.3,82.65c-1.63-4.58-2.69-11.06-4.92-15.28s-7.92-7.61-10.93-11.18c1.7-6.16,5.3-22.75,2.04-28.11-.53-.87-2.88-.8-3.82-.61-.23.05-2.26.74-2.8.91-6.87,2.17-15.31,7.84-18.47,14.51-1.01,2.13-3.67,9.78-.14,10.46,3.18.62,2.78-5.87,3.41-7.93,1.71-5.6,8.17-8.97,13.36-10.54.35,1.79-1.13.72-1.68,2.2-2.01,5.43-2,13.61-2.87,19.37-.59,3.93-1.74,7.85-3.2,11.54-3.12,1.95-13.46.47-15.58,1.92-1.36.93-3.42,11.04-2.44,12.42,4.1,2.17,4.2-6.48,5.76-7.25,4.38-.78,9.91.02,14.11-1.08,4.3-1.12,7.18-12.63,7.95-12.81,2.43,2.12,5.35,3.82,7.77,5.94,4.45,3.92,4.83,10.38,6.77,15.84.55,1.54,1.22,3.06,1.83,4.57,2.75.86,11.9-2.75,12.58-5.22.99-3.6-7.92.9-8.72.33ZM37.42,31.54l.05,7.52c2.44,2.99,5.92,4.99,9.81,5.4,2.26.24,12.66.32,10.7-4.02-1-2.23-5.59-.04-7.76.01-6.28.14-8.97-4.91-12.79-8.91Z"/>
      <path d="M41.49,18.57c-.41,3.16-5.63,4.02-8.25,3.62-1.61-.25-5.88-2.02-5.28-3.98,3.86,3.69,9.59,4.32,13.53.37Z"/>
    </g>
  </g>
</svg>