<?xml version="1.0" encoding="UTF-8"?>
<svg id="Layer_3" data-name="Layer 3" xmlns="http://www.w3.org/2000/svg" viewBox="0 0 46.78 58.87">
  <g id="Layer_1" data-name="Layer 1">
    <g>
      <path d="M42.65,3.83c6.17,6.17,4.95,18.11-3.47,21.65-3.31,1.39-6.29,1.1-9.73,1.01,2.07,4.8,3.35,9.88,5.28,14.73.55,1.38,1.77,5.05,2.54,5.98,1.52,1.84,12.27,3.33,8.86,7.83-2.12,2.8-7.21.36-9.89.31-4.22-.08-7.15,2.1-10.32,2.46-3.65.41-8.09-.21-11.88-.02-2.81.15-11.67,2.15-13.41.29-2.76-2.94,4.3-8.03,7.31-6.95-3.83-3.53-2.1-7.93-.32-11.99,2.97-6.75,8.48-15.78,16.62-16.18C13.5,13.05,23.71-3.66,37.42.71c1.58.5,4.06,1.95,5.22,3.11ZM45.43,13.21c0-6.75-5.47-12.22-12.22-12.22s-12.22,5.47-12.22,12.22,5.47,12.22,12.22,12.22,12.22-5.47,12.22-12.22ZM24.62,29.27c.82,4.96,2.69,10.13,4.76,14.7,1.06,2.35,4.38,9.24,6.56,10.12,1.63.66,10.37,2.47,9.64-.76-.52-2.3-5.28-1.65-6.87-2.38-1.96-.9-4.97-9.26-5.84-11.57-1.71-4.54-2.93-9.28-4.74-13.79-5.37-4.44-11.75,1.38-14.92,5.8-1.97,2.74-5.91,9.74-6.34,12.93-1.28,9.62,8.61,6.78,14.6,7.2.84.06,2.09.25,2.97.38.65.1.62-.19.56.73-2.41-.04-4.83.05-7.24.02-1.49-.02-2.96.05-4.43.02-3.3-.08-6.9-1.55-9.8.55-1.31.95-2.63,2.45-2.2,4.19,2.96,1.2,6.09-.21,9.02-.34,4.46-.2,9.33.38,13.72,0,2.21-.19,5.04-.59,5.92-2.98,1.81-4.95-7.56-6.94-10.84-7.66-2.2-.48-4.8-.28-6.74-1.41-.19-.87.77-.58,1.3-.56,1.35.05,4.33,1.18,5.18.39.76-2.79,5.81-8.11,5.75-10.55-.03-1.3-.67-3.11-.76-4.47-.05-.74.08-.58.74-.55ZM29.06,45.95l-3.89-9.26c-2.86,2.13.21,4.73,1.61,6.91.72,1.12.25,1.88,2.28,2.34ZM26.1,44.83l-3.15-4.81c-.49,0-1.88,2.84-2.04,3.51.12.6,4.31,1.03,5.19,1.3ZM29.74,46.76l-10.3-1.92c-.18,1.08.25.6.86.78,4.43,1.34,12.8,2.7,10.25,9.22l3.7-.55c-1.95-2.22-3.4-4.8-4.52-7.53Z"/>
      <path d="M40.08,20.28c-.53.5-3.07,1.36-3.89,1.48-2.32.34-8.08.44-7.87-2.87,1.02.05,1.56,1.02,2.52,1.37,2.7.99,6.98.7,9.15-1.36.66.35.5.99.09,1.38Z"/>
    </g>
  </g>
</svg>