<?xml version="1.0" encoding="UTF-8"?>
<svg id="Layer_2" data-name="Layer 2" xmlns="http://www.w3.org/2000/svg" viewBox="0 0 95.47 107.87">
  <g id="Layer_1" data-name="Layer 1">
    <path d="M39.7,15.39c-.29.44-.98.08-.42,1.68.61,1.72,5.75,2.76,7.6,2.96,5.82.65,9.99.66,15.91,2.18,4.24,1.09,9.96,1.98,10.58,7.13.36,3.01-.82,13.63-1.56,16.82-.63,2.67-4.65,6.84-7.33,4.69-.11-.09-1.64-2.08-1.71-2.24-1.14-2.57.98-2.89,1.92-4.29,1.93-2.86,1.09-9.41,1.11-12.87-4.49-1.35-9.25-.67-13.87-.84-.42.43,2.08,10.28,2.45,11.69,2.86,11.1,7.38,22.38,12.8,32.44l.68.25c4.98-.97,10.05-1.45,15.06-2.27,2.49-.41,5.98-2.09,8.31-.94,1.67.82,3.07,4.92,3.48,6.69.45,1.94,1.84,9.37-.78,9.8-4.09.67-3.85-7.03-6.39-7.53-1.47-.29-3.64.24-5.16.48-5.6.88-12.71,3.5-18.22,3.67-.91.03-1.71-.08-2.53-.47-2.57-1.21-9.64-13.4-11.41-16.48-.39-.68-.55-2.38-1.44-2.25l-16.04,9.98c-1.6,1.11-1.76,3.24-2.17,4.99-2.04,8.73-2.72,17.84-6.17,26.24-1.39,1.59-5.93.8-8.03.54-1.7-.21-8.27-1.07-8.55-2.79-.83-5.18,8.75-2.22,10.03-6.19,1.31-7.74,1.22-16.23,3.36-23.77,2.34-8.24,11.93-12.14,17.55-17.87.45-.46,1.09-1.14,1.03-1.84l-7.65-17.59c-1.21-.28-9.08,10.72-13.46,10.1-3.51-.5-16.12-9.89-17.94-12.98-2.25-3.82,1.03-7.88,5.22-5.97,2.01.91,5.21,5.54,7.36,7.34.7.58,3.61,2.94,4.32,2.49l10.35-13.79c.5-.84,5.05-2.96,5.12-3.25.13-.55-.08-1.39-.02-2.01-9.51.42-11.53-14.61-3.77-18.29,5.33-2.53,10.79-.32,12.27,5.45.93,3.64.06,5.91-1.88,8.91Z"/>
  </g>
</svg>