<?xml version="1.0" encoding="UTF-8"?>
<svg id="Layer_2" data-name="Layer 2" xmlns="http://www.w3.org/2000/svg" viewBox="0 0 44.47 92.02">
  <g id="Layer_1" data-name="Layer 1">
    <g>
      <path d="M26.24,26.87c-.07,2.14,1.43,2.73,2.37,4.08,3.51,5.08,4.74,9.86,7.56,15.04,1.58,2.89,7.04,9.26,6.72,12.13-.23,2.06-2,3.19-3.9,2.09-1.04-.6-5.36-7.03-6.33-8.49-1.52-2.31-3.06-4.94-4.22-7.46-.62-.1-.33.51-.36.92-.24,3.12-1.16,7.48-1.08,10.34.05,1.65,1.91,6.34,2.56,8.19,2.49,7.17,5.4,14.22,7.05,21.67,2.36-.81,8.95-.89,7.71,3.08-.55,1.77-6.27,3.05-7.95,3.17-3.51.25-5.11-.47-6.55-3.74-2.17-4.92-3.15-11.09-4.9-16.23l-4.26-7.41c-1.65,8.3-6.45,14.54-11.12,21.31,1.8.47,6.06,2.53,4.92,4.9-1.77,3.66-13.43.21-12.69-4.5l8.42-14.95c2.09-10.66,3.04-21.5,3.8-32.33-3.83,4.41-5.77,10.03-7.16,15.63-.58,2.33-.37,7.93-3.4,8.12-5.73.37-2.77-9.39-1.94-12.34,1.54-5.49,5.07-13.52,9.15-17.53,2.21-2.17,5.5-3.75,7.8-5.92C1.18,20.65,9.36-4.31,27.05.65c12.75,3.57,12.09,23.06-.81,26.23ZM35.27,13.65c0-6.97-5.65-12.62-12.62-12.62s-12.62,5.65-12.62,12.62,5.65,12.62,12.62,12.62,12.62-5.65,12.62-12.62ZM35.88,86.51c-1.39-4.51-2.5-9.14-3.99-13.62-1.43-4.29-5.53-12.85-5.86-16.75s1.22-9.47,1.34-13.53c.11-3.59-.28-9.04-1.31-12.44-.23-.74-.61-2.44-1.3-2.78l-5.3-.57c-1.08,1.04-1.72,1.96-2.3,3.35l-.92-.57c-7.47,4.54-11.82,13.36-13.98,21.62-.68,2.62-3.2,11.52,1.97,9.75,1.12-1.19.7-2.81.99-4.19,1.01-4.71,5-18.39,9.65-20.37,1.83-.78.32,1.36.26,1.75-1.6,10.54-.78,22.61-3.81,32.87-.94,3.19-8.86,14.08-8.72,15.6.25,2.79,9.44,5.88,10.87,3.59,1.35-2.16-5.08-3.47-4.98-4.57.12-1.35,6.68-9.76,7.87-12.16,1.8-3.62,2.47-8.17,4.04-11.53.13-.29.62-1.01.83-1.02.73-.03,0,3.06.86,3.58,4.67,6.48,5.35,14.29,8.21,21.43,1.74,4.35,2.37,5.26,7.44,4.46,9.19-1.45,5.79-6.04-1.86-3.92ZM41.38,59.41c.16-.1.44-1.32.44-1.63.02-2.33-4.98-8.52-6.38-11.04-2.34-4.22-3.78-8.9-6.16-13.11l-1.92-2.7c.81,2.41.49,4.87.74,7.22.62,5.7,2.15,7.9,5.17,12.61.78,1.22,5.62,8.19,6.32,8.5.45.2,1.41.39,1.8.15Z"/>
      <path d="M17.34,17.95c3.21,2.62,6.95,2.94,10.74,1.3.93-.4,1.65-1.3,2.6-1.48-1.48,3.2-6.24,3.97-9.37,3.43-.99-.17-5.08-1.75-3.98-3.25Z"/>
    </g>
  </g>
</svg>