<?xml version="1.0" encoding="UTF-8"?>
<svg id="Layer_2" data-name="Layer 2" xmlns="http://www.w3.org/2000/svg" viewBox="0 0 63.5 83.75">
  <g id="Layer_1" data-name="Layer 1">
    <g>
      <path d="M42.38,22.68c5.3-2.49,9.89-7.88,12.9-12.85,1.17-1.93,3.44-8.43,6.13-8.19,4.2,1.45,1.02,6.86-.44,9.43-5.09,9.03-12.83,15.38-22.12,19.76-.25,7.17-.84,14.37-2.78,21.3,6.33,2.22,11.19,5.23,13.45,11.77,1.36,3.94,2.14,8.13,3.24,12.14,1.8-.14,8.34-4.06,9.18-1.23s-1.15,3.98-3.15,5.23c-2.09,1.31-8.5,4.75-10.64,3.37-1.77-1.15-4.08-14.26-5.06-17.17-.25-.76-.63-2.04-1.08-2.63-.5-.65-10.32-5.09-10.9-4.95-2.78,3.82-4.92,15.37-10.78,15.55-4.4.14-10.24-2.85-14.26-4.48-.56,1.6-2.41,8.97-5.18,6.47s1.43-15.05,5.64-14.2c.72.14,1.53,1.02,2.39,1.34,8.77,3.3,10.91,3.26,12.9-6.21,1.7-8.08,1.43-16.81,4.63-24.65-8.35-3.2-15.17-11.75-18.85-19.7-1.07-2.3-3.85-8.45-1.01-10.16,3.56-2.14,5.02,5.99,5.96,8.17,2.05,4.75,6.32,10.95,10.66,13.8.92.6,4.37,2.58,5.25,2.53.11,0,1.13-1.97,1.69-.21l-.98,1.26c-1.15.39-4.64-1.55-5.79-2.25-7.56-4.59-11.5-13.59-14.33-21.61-.67-.94-1.49-1.05-2.59-.91-.49,4.2,1.98,8.87,4,12.47,3.81,6.8,9.63,13.26,17.13,15.89-.93,3.84-2.19,7.68-2.87,11.58-.92,5.28-1.32,17.21-4.24,21.33-2.14,3.02-8.13,1.12-11.05.05-2.88-1.06-3.35-3.25-5.88.44-1.02,1.49-2.11,4.44-2.28,6.24-.15,1.55-.26,6.18,1.85,3.33,1.07-1.44,1.35-5.88,3.21-6.03.71-.06,3.44,1.67,4.47,2.05,2.55.94,9.01,3.1,11.35,1.89,3.45-1.77,5.5-10.78,7.57-13.92.36-.55.57-1.17,1.35-1.21,1.09-.06,11.04,4.47,11.86,5.56,2.28,3.04,4.17,18.48,5.76,19.44,1.74,1.06,10.91-3.57,11.89-5.17,3.16-5.19-7.18.15-8.5-.26-1.54-4.47-2.21-9.73-3.85-14.12-1.26-3.38-4.61-6.14-7.72-7.84-1.02-.56-5.49-1.96-5.51-2.98-.02-.79,1.14-4.35,1.36-5.7.87-5.44,1.43-10.89,1.41-16.4,9.03-3.98,15.86-9.37,21.18-17.72,1.75-2.74,4.28-6.36,3.09-9.67-.49-.09-.94.06-1.37.27-1.5.74-5.2,8.73-6.83,10.96-5.45,7.42-14.75,14.36-24.53,12.07C13.04,22.18,17.77-2.74,36.84.25c10.12,1.59,13.44,16.09,5.54,22.44ZM32.67.56c-13.71.95-16.67,20.46-4,24.17,11.25,3.29,20.38-7.24,15.4-17.99-2.16-4.66-6.36-6.53-11.39-6.18Z"/>
      <path d="M40.89,17.13c-2.88,3.82-9.19,3.37-12.78.74-.92-.68-2.84-2.49-2.78-3.71,1.68.7,2.71,2.59,4.18,3.41,3.87,2.18,7.59,1.21,11.38-.44Z"/>
    </g>
  </g>
</svg>