<?xml version="1.0" encoding="UTF-8"?>
<svg id="Layer_3" data-name="Layer 3" xmlns="http://www.w3.org/2000/svg" viewBox="0 0 60.53 114.04">
  <g id="Layer_1" data-name="Layer 1">
    <path d="M57.76,112.83c-1.65,1.64-12.01-.9-13.84-2.37-.87-.7-1.29-1.84-1.41-2.94l3.97-21.44c-1.24-2.76-2.92-5.33-4.68-7.78-2.22-3.08-5.95-8.06-8.45-10.77-.42-.45-1.04-1.33-1.68-1.33-2.36,7.4-6.34,14.18-9.15,21.38-3.15,8.08-5.57,16.79-8.58,24.96-1.25,1.87-10.62,1.7-12.73,1.07-1.02-.31-1.42-1.53-1.12-2.44,1.3-3.95,6.62-1.83,7.47-4.25,1.1-6.13,2.43-12.23,3.97-18.26,2.34-9.2,6.29-19.37,8.09-28.46.88-4.41.12-7.59-.21-11.9-.25-3.23.13-6.66-1.11-9.82-2.19-1.62-8.87,6.3-10.15,8-.18.91,2.9,4.26,3.7,4.85,1.67,1.23,4.25,1.43,4.99,3.68.78,2.36,1.41,6.55-2.35,5.38-.45-.14-3.89-1.91-4.52-2.27-5.93-3.35-11.98-8.63-8.93-16.12,3.71-9.09,13.39-15.73,22.72-17.98,1.01-3.44-.85-2.64-2.61-3.84-2.54-1.75-3.64-7.3-2.68-10.11,2.28-6.7,11.23-8.63,15.82-3.03,3.61,4.39,2.46,12.52-3.17,14.37l.12,1.49c.55.8,4.87-.29,6.06-.4,3.07-.27,11.69-.26,13.91-1.92s.43-10.02-.18-12.57c-.55-2.32-2.75-5.44-.18-7.38,2.04-1.54,4.83.06,6.02,1.91,1.71,2.65,4.06,16.61,3.57,19.74-.78,5.05-9.33,7.1-13.46,8.02-1.55.34-3.46.28-5,.65-.83.2-3.72,1.13-3.73,1.87-.04,2.54,1.43,6.72,1.81,9.51,1.23,8.85.5,14.44,5.4,22.49,6.01,9.85,12.72,13.19,9.92,26.27-.99,4.62-3.56,9.13-4.68,13.76.02,2.49,5.07,2.7,6.53,4.36.75.86,1.42,2.74.5,3.65Z"/>
  </g>
</svg>