<?xml version="1.0" encoding="UTF-8"?>
<svg id="Layer_2" data-name="Layer 2" xmlns="http://www.w3.org/2000/svg" viewBox="0 0 38.14 88.26">
  <g id="Layer_1" data-name="Layer 1">
    <g>
      <path d="M24.07,26.34c1.19.02,1.34,1.78,1.97,2.48.51.57,1.83,1.12,2.48,1.78,6.38,6.41,11.49,11.3,4.08,19.65-1.82,2.06-4.29,3.53-5.96,5.55,2.22,8.21,4.12,16.62,4.52,25.15l.55.56c2.19-.1,6.95.28,6.38,3.48s-10.64,3.64-12.35,1.75c-1.27-1.41-3.09-14.14-3.92-17.2l-2.57-7.25-5.2,20.19c1.87-.5,6.65.41,5.79,3.16-.58,1.87-6.76,2.6-8.56,2.61-4.01.04-5.28-.57-5-4.66.41-6.05,2.55-13.04,3.28-19.32.35-3.03.32-6.12.79-9.14-1.05-.59-1.25-1.7-2.05-2.48C6.1,50.49-.17,47.28,0,43.61c.15-3.2,5.54-9.18,7.96-11.32,2.73-2.42,6.06-4.03,8.69-6.5-6.77-2.97-11.12-8.39-9.08-16.13,3.17-12.03,19.73-12.94,25.09-2.09,2.93,5.92,1.25,12.98-4.39,16.49-.56.35-4.41,1.91-4.19,2.28ZM32.82,13.12c0-6.76-5.48-12.23-12.23-12.23s-12.23,5.48-12.23,12.23,5.48,12.23,12.23,12.23,12.23-5.48,12.23-12.23ZM24.85,56.34c.51-6.56,1.48-13.6,1.07-20.17-.14-2.19-.84-9.04-2.97-10l-5.55-.56-1.12,3.34c-2.23-.65-5.71,2.4-7.41,3.88-2.02,1.77-7.8,8.17-7.8,10.75,0,3.1,5.86,6.48,7.99,8.34.55.49.89,1.53,1.46,1.87,3.03,1.85,5.09-2.77,2.04-4.63-.92-.56-2.02-.55-3.13-1.32-.98-.68-3.64-3.4-3.52-4.61.08-.86,6.37-9.8,8.52-8.73-.57,2.17-1.01,4.37-1.37,6.6-.17,1.05-1.02,6.41-.89,6.89.09.34.94.25,1.33.57,2.89,2.34,1.65,7.32-2.42,6.69.08,3.88-.3,7.77-.79,11.62-.34,2.64-3.6,18.21-3.12,19.14,1.23,2.34,9.46.21,11.69-.38.59-3.06-5.64-1.92-5.93-2.21-.08-.76.04-1.49.17-2.24,1.17-6.77,4.01-14.27,5.75-20.97l-.73-1.98h2.22c-.06.98-.44,1.63-.3,2.68.39,2.94,2.45,7.04,3.24,10.13,1.26,4.93,1.54,10.13,3.18,14.98,1.14,1.34,9.41.85,10.39-.73,1.68-2.72-5.03-2.85-6.48-2.62-.6-8.84-2.43-17.47-4.45-26.06l-1.09-.26ZM26.3,54.51c2.96-2.36,9.2-7.65,9.19-11.67,0-4.32-6.13-10.04-9.19-12.78-.12,3.97.68,6.45,2.66,9.76,1.51,2.53,2.75,1.88.83,5.41-.53.98-3.03,3.77-3.1,4.01-.4,1.45-.34,3.75-.39,5.29ZM11.47,47.47l1.48-11.49c-1.19.74-5.94,6.79-5.92,7.61.29.88,3.77,4.56,4.44,3.88ZM27.4,47.46c.27-1.48,2.32-3.2,2.23-4.6l-2.59-3.92-.38,8.34.74.18Z"/>
      <path d="M15.92,17.45c1.51.41,2.42,1.71,4.05,2.06,1.96.42,4,.29,5.83-.51,1.17-.51,1.89-1.55,3.08-1.73-1.98,4.19-9.34,4.66-12.24,1.49-.37-.41-.87-.64-.73-1.3Z"/>
    </g>
  </g>
</svg>