<?xml version="1.0" encoding="UTF-8"?>
<svg id="Layer_1" data-name="Layer 1" xmlns="http://www.w3.org/2000/svg" viewBox="0 0 469.7 439.5">
  <defs>
    <style>
      .cls-1 {
        fill: #000;
        stroke-width: 0px;
      }
    </style>
  </defs>
  <path class="cls-1" d="M465.19,173.88C436.74,40.09,293.13-17.32,170.64,4.52,117.44,14,68.33,50.11,35.91,103.58.55,161.91-9.42,232.15,9.23,291.48c7.76,24.7,19.86,47.41,35.93,67.47,46.09,57.55,109.25,80.55,171.46,80.55,40.85,0,81.3-9.92,116.26-26.48,101.09-47.9,153.04-141.76,132.32-239.14ZM327.08,400.79c-83.36,39.51-199.62,39.26-271.36-50.3-15.02-18.75-26.32-39.97-33.59-63.07-17.5-55.67-8.02-121.77,25.35-176.83C77.88,60.45,123.64,26.65,173.02,17.85c16.17-2.89,32.73-4.32,49.32-4.32,102.57,0,206.58,54.91,229.61,163.17,23.53,110.59-52.57,189.83-124.87,224.09Z"/>
  <path class="cls-1" d="M360.25,91.14c-5.76-1.13-14.63-.06-24.47,11.38-5.24,6.1-10.73,14.28-15.2,23.26-2.29-7.06-5.8-14.06-11.21-18.93-5.24-4.72-11.77-6.85-18.73-6.21-6.43.61-12.34,4.78-15.79,11.17-2.91,5.37-3.65,11.26-3.95,15.78-2.22,31.36,11.62,63.08,36.12,82.78,2.31,1.85,7.7,6.18,14.34,6.18,1.35,0,2.76-.23,4.19-.64.14-.03.27-.06.41-.1.12-.04.24-.05.37-.09.09-.03.15-.11.24-.14.26-.1.52-.16.77-.3,16-8.63,41.8-36.53,48.42-52.36,6.77-16.22,7.79-34.46,2.84-51.35-3.37-11.51-9.88-18.77-18.34-20.43ZM363.25,157.69c-5.32,12.73-28.33,37.65-41.66,45.25-.95.14-2.65-.35-6.11-3.12-21.1-16.96-33.02-44.27-31.1-71.29.22-3.17.68-7.2,2.35-10.28,1.26-2.3,3.33-3.97,5.17-4.15,3.37-.32,5.96.58,8.41,2.79,7.85,7.07,10.88,25.08,11,35.46,0,.43.18.81.26,1.22-.04.31-.13.63-.16.94-.41,3.72,2.27,7.06,5.98,7.47,3.61.36,7.06-2.26,7.48-5.97,1.5-13.55,10.21-31.92,21.17-44.67,2.04-2.37,7.15-7.76,11.61-6.92,4.67.91,7.26,8.61,7.94,10.95,4.02,13.72,3.17,29.14-2.33,42.32Z"/>
  <path class="cls-1" d="M123.72,205.51c2.31,1.86,7.7,6.18,14.34,6.18,1.35,0,2.75-.23,4.18-.64.15-.03.29-.07.44-.11.12-.04.24-.05.36-.09.09-.03.15-.1.24-.14.26-.1.52-.16.77-.3,16-8.63,41.8-36.53,48.42-52.36,6.77-16.22,7.79-34.45,2.84-51.36-3.38-11.51-9.89-18.76-18.33-20.41-5.77-1.13-14.66-.06-24.48,11.38-5.24,6.1-10.73,14.28-15.2,23.25-2.29-7.06-5.8-14.06-11.21-18.93-5.24-4.72-11.76-6.86-18.73-6.21-6.43.61-12.34,4.79-15.79,11.17-2.89,5.32-3.62,11.23-3.95,15.79-2.21,31.36,11.63,63.08,36.12,82.77ZM101.09,123.7c.24-3.39.71-7.27,2.35-10.3,1.26-2.3,3.33-3.97,5.17-4.15,3.37-.32,5.96.58,8.41,2.79,7.85,7.07,10.88,25.08,11,35.46,0,.43.18.81.26,1.22-.04.31-.13.63-.16.94-.41,3.72,2.27,7.06,5.98,7.47,3.68.37,7.06-2.26,7.48-5.97,1.5-13.55,10.21-31.92,21.17-44.67,2.03-2.37,7.1-7.8,11.62-6.92,3.14.61,6.11,4.7,7.94,10.94,4.02,13.72,3.16,29.15-2.35,42.33-5.32,12.73-28.34,37.66-41.67,45.26-.92.13-2.66-.37-6.1-3.13-21.09-16.96-33.01-44.26-31.1-71.26Z"/>
  <path class="cls-1" d="M373.72,246.65c-.1-.48-.28-.9-.47-1.34-.16-.36-.29-.72-.51-1.04-.28-.43-.64-.77-1.01-1.12-.25-.24-.48-.49-.76-.69-.4-.28-.84-.45-1.29-.64-.39-.16-.75-.32-1.17-.41-.15-.03-.26-.12-.41-.15-.3-.04-.58.06-.88.06-.32,0-.62-.11-.95-.06-137.13,18.34-186.61,6.57-276.83-19.64-3.62-1.04-7.35,1.03-8.38,4.61-.17.58-.13,1.16-.15,1.74-.02.2-.12.38-.12.59,0,5.35,0,10.7.37,16.04,2.65,37.78,23.83,73.87,56.65,96.55,24.68,17.06,55.59,26.2,87.25,26.2,7.36,0,14.75-.5,22.12-1.49,64.12-8.73,118.58-59.01,126.67-116.96.04-.3-.05-.58-.05-.87,0-.33.11-.63.06-.96-.02-.15-.12-.27-.15-.42ZM245.36,352.44c-35.81,4.87-72.18-3.32-99.85-22.43-29.46-20.36-48.47-52.65-50.84-86.36-.15-2.16-.22-4.33-.26-6.52,56.8,16.36,98.58,26.6,158.74,26.6,29.44,0,63.43-2.49,105.63-7.87-11.3,48.37-58.4,89.1-113.42,96.58Z"/>
</svg>