<?xml version="1.0" encoding="UTF-8"?>
<svg id="Layer_1" data-name="Layer 1" xmlns="http://www.w3.org/2000/svg" viewBox="0 0 464.94 439.1">
  <defs>
    <style>
      .cls-1 {
        fill: #000;
        stroke-width: 0px;
      }
    </style>
  </defs>
  <path class="cls-1" d="M464.54,212.43c-5.21-84.18-58.68-157.53-139.54-191.41C278.16,1.39,229.16-4.63,183.31,3.55,95.47,19.25,19.84,94.31,3.46,182.02c-9.76,52.26,1.33,109.65,30.41,157.45,14.64,24.05,33,44.7,54.59,61.36,34.76,26.82,81.41,38.28,128.63,38.28,51.03,0,102.71-13.38,140.76-35.17,71.68-41.06,111.57-112.65,106.7-191.5ZM351.12,392.18c-69.48,39.8-186.49,50.32-254.38-2.08-20.27-15.64-37.53-35.05-51.3-57.68-27.37-44.99-37.82-98.9-28.67-147.92C32.15,102.12,103.19,31.62,185.69,16.88c12.5-2.24,25.26-3.35,38.15-3.35,31.75,0,64.33,6.73,95.93,19.97,76.08,31.88,126.38,100.76,131.26,179.76,4.55,73.59-32.8,140.47-99.92,178.92Z"/>
  <path class="cls-1" d="M117.91,161.57c-8.72,11.39-17.08,23.06-24.84,35.08-2.03,3.14-1.13,7.32,2.02,9.35,1.13.73,2.41,1.08,3.66,1.08,2.22,0,4.39-1.1,5.69-3.1,7.55-11.7,15.69-23.04,24.17-34.12l28.93,22.44c1.23.96,2.69,1.42,4.14,1.42,2.02,0,4.02-.9,5.35-2.62,2.29-2.95,1.75-7.2-1.2-9.49l-28.88-22.4c9.19-11.4,18.78-22.48,28.87-33.04,2.58-2.7,2.48-6.99-.22-9.57-2.7-2.58-6.99-2.47-9.57.22-10.41,10.9-20.3,22.33-29.78,34.09l-32.6-25.29c-2.96-2.29-7.21-1.75-9.49,1.2-2.29,2.95-1.75,7.2,1.2,9.49l32.56,25.25Z"/>
  <path class="cls-1" d="M294.79,172.91c-6.36,10.68-12.13,21.73-17.26,33.13-1.53,3.41-.01,7.41,3.4,8.95.9.4,1.84.59,2.77.59,2.58,0,5.05-1.49,6.18-3.99,4.72-10.48,10.02-20.65,15.83-30.5,9.8,7.24,19.74,14.29,29.86,20.97,1.15.75,2.45,1.12,3.72,1.12,2.2,0,4.35-1.07,5.66-3.04,2.05-3.12,1.19-7.32-1.92-9.38-10.24-6.75-20.28-13.89-30.19-21.22,9.17-14.13,19.45-27.52,30.82-40.06,2.51-2.77,2.3-7.05-.46-9.56-2.76-2.51-7.05-2.3-9.56.46-11.65,12.84-22.21,26.53-31.64,40.98-10.47-8.08-20.75-16.41-30.68-25.04-2.83-2.46-7.1-2.14-9.55.67-2.45,2.82-2.15,7.1.67,9.55,10.48,9.1,21.31,17.88,32.37,26.38Z"/>
  <path class="cls-1" d="M387.35,266.15c-3.49-1.36-7.4.4-8.74,3.89-3.12,8.14-13.14,15.71-23.07,13.99-4.84-.83-8.97-3.56-13.75-6.71-4.76-3.14-10.17-6.71-16.83-8.36-14.84-3.67-27.85,2.93-40.43,9.32-10.57,5.36-20.51,10.44-30.5,8.73-6.77-1.16-12.06-5.22-18.19-9.92-5.2-3.99-10.58-8.11-17.4-10.78-11.07-4.33-24.52-3.8-35.06,1.41-4.12,2.04-7.52,4.58-10.82,7.04-3.51,2.63-6.84,5.12-10.6,6.56-7.27,2.8-17.25,2.08-29.63-2.12-2.54-.86-5.06-1.79-7.58-2.72-8.54-3.16-17.37-6.43-27.23-7.24-14.13-1.18-31.19,4.68-35.27,17.74-1.11,3.57.88,7.36,4.44,8.48,3.57,1.11,7.37-.88,8.48-4.44,1.63-5.21,11.62-9.07,21.25-8.29,8.01.66,15.61,3.46,23.65,6.44,2.64.97,5.27,1.94,7.92,2.85,15.67,5.31,28.38,5.95,38.83,1.93,5.51-2.11,9.75-5.29,13.86-8.36,2.92-2.19,5.69-4.26,8.69-5.74,7.13-3.52,16.61-3.9,24.15-.94,5.03,1.96,9.43,5.34,14.09,8.9,6.6,5.06,14.08,10.79,24.14,12.52,2.12.36,4.21.53,6.28.53,11.92,0,22.84-5.55,32.64-10.53,10.84-5.51,21.08-10.72,31.03-8.24,4.41,1.1,8.41,3.73,12.64,6.52,5.29,3.49,11.27,7.43,18.91,8.75,17.22,2.97,32.86-9.1,37.99-22.48,1.34-3.49-.41-7.41-3.89-8.74Z"/>
</svg>