<?xml version="1.0" encoding="UTF-8"?>
<svg id="Layer_1" data-name="Layer 1" xmlns="http://www.w3.org/2000/svg" viewBox="0 0 470.43 445.99">
  <defs>
    <style>
      .cls-1 {
        fill: #000;
        stroke-width: 0px;
      }
    </style>
  </defs>
  <path class="cls-1" d="M469.55,200.91c-5.14-59.53-33.07-112.41-78.66-148.88C338.5,10.1,268.2-7.37,192.99,2.85c-57.28,7.78-111.56,42.54-148.94,95.37C6.68,151.05-7.88,214.46,4.1,272.2c5.26,25.36,15.02,49.15,29.01,70.73,47.78,73.69,122.54,103.06,194.39,103.06,30.14,0,59.78-5.17,86.68-14.41,103.42-35.51,164.41-126.05,155.37-230.67ZM194.81,16.26c13.42-1.82,26.66-2.73,39.65-2.73,56.26,0,107.79,16.9,147.97,49.06,23.88,19.11,42.58,43.05,55.27,70.21-16.66-16.79-42.19-25.26-72.92-25.26-37.84,0-70.34,12.67-84.99,38.15-25.12-22.26-59.57-14.09-75.44-5.79-.18.1-.29.27-.46.38-11.08-32.52-47.01-48.66-89.73-48.66-23.11,0-43.28,4.79-58.97,14.29C90.41,56.2,141.28,23.53,194.81,16.26ZM404.83,152.21c-11.15,27.48-22.13,55.49-32.67,83.24-1.03,2.7-3.6,4.37-6.33,4.37-.8,0-1.61-.14-2.4-.44-3.5-1.33-5.25-5.24-3.93-8.73,10.57-27.85,21.6-55.94,32.78-83.52,1.41-3.46,5.34-5.11,8.82-3.73,3.46,1.4,5.13,5.35,3.73,8.82ZM352.59,141.61l-35.68,79.43c-1.13,2.51-3.6,3.99-6.18,3.99-.93,0-1.87-.19-2.77-.59-3.41-1.53-4.93-5.54-3.4-8.95l35.68-79.43c1.53-3.4,5.51-4.93,8.95-3.4,3.41,1.53,4.93,5.54,3.4,8.95ZM154.28,136.29c-11.14,27.46-22.13,55.47-32.67,83.23-1.03,2.7-3.6,4.37-6.33,4.37-.8,0-1.61-.14-2.4-.44-3.5-1.33-5.25-5.24-3.93-8.73,10.57-27.86,21.6-55.96,32.78-83.52,1.41-3.46,5.36-5.12,8.82-3.73,3.46,1.4,5.13,5.35,3.73,8.82ZM100.21,136.2l-32.46,72.26c-.94,2.09-3,3.33-5.15,3.33-.77,0-1.55-.16-2.31-.5-2.84-1.28-4.11-4.61-2.83-7.46l32.46-72.26c1.27-2.83,4.6-4.09,7.46-2.83,2.84,1.28,4.11,4.61,2.83,7.46ZM309.78,418.78c-86.08,29.57-201.46,15.26-265.32-83.21-13.07-20.15-22.19-42.4-27.12-66.12-6.05-29.19-4.77-59.97,3.17-89.95,2.74,53.08,46.81,68.91,93.64,68.91,51.54,0,93.32-38.47,93.32-85.92,0-3.47-.29-6.77-.72-9.99,1.28.14,2.61.05,3.84-.59,1.62-.82,38.89-19.53,63.55,7.24-1.7,5.93-2.69,12.3-2.69,19.26,0,47.45,41.78,85.92,93.32,85.92,42.27,0,82.35-12.84,91.78-54.36,6.2,114.43-71.05,182.8-146.79,208.81Z"/>
  <path class="cls-1" d="M321.06,275.74c-3.71-.54-7.12,2.06-7.64,5.77-4.95,35.4-38.6,66.16-78.29,71.56-24.36,3.33-49.16-2.24-67.99-15.25-19.69-13.61-32.9-36.03-34.48-58.51-.24-3.47-.24-6.96-.24-10.66s-3.03-6.65-6.77-6.65-6.77,3.14-6.77,6.88,0,7.59.27,11.38c1.89,26.89,16.95,52.57,40.28,68.7,17.52,12.1,39.42,18.59,61.86,18.59,5.2,0,10.44-.35,15.65-1.06,45.48-6.18,84.11-41.91,89.87-83.1.52-3.7-2.07-7.12-5.77-7.64Z"/>
</svg>