<?xml version="1.0" encoding="UTF-8"?>
<svg id="Layer_1" data-name="Layer 1" xmlns="http://www.w3.org/2000/svg" viewBox="0 0 470.44 445.99">
  <defs>
    <style>
      .cls-1 {
        fill: #000;
        stroke-width: 0px;
      }
    </style>
  </defs>
  <path class="cls-1" d="M469.56,200.91c-5.14-59.53-33.07-112.41-78.66-148.88C338.49,10.1,268.21-7.37,192.99,2.85c-57.28,7.78-111.57,42.54-148.95,95.38C6.68,151.05-7.88,214.46,4.1,272.2c5.26,25.36,15.02,49.16,29.02,70.74,47.78,73.68,122.55,103.06,194.38,103.06,30.14,0,59.78-5.17,86.69-14.41,103.42-35.51,164.41-126.05,155.37-230.67ZM55.09,106.05C90.31,56.26,141.24,23.54,194.82,16.27c13.41-1.82,26.65-2.73,39.65-2.73,56.26,0,107.78,16.89,147.97,49.05,40.37,32.3,65.93,78.4,72.65,130.55-.24.12-.5.14-.73.29-40.01,26.42-90.7,29.16-135.06,29.66-101.22,1.19-202.92-8.47-302.22-28.47,5.79-30.8,18.63-61.17,38.01-88.58ZM382.37,232.5c-8.85,45.3-12.49,91.55-10.79,137.68-7.99.86-15.91,1.75-23.77,2.66-37.87,4.35-73.69,8.44-112.27,6.64-47.45-2.21-98.05-12.47-147.01-22.39-4.32-.88-8.51-1.7-12.78-2.56,5.99-45.84.13-94.55-16.59-138.4,80.56,13.62,162.35,20.6,243.99,20.6,5.43,0,10.87-.03,16.31-.09,20.94-.24,42.22-1.15,62.92-4.14ZM44.46,335.56c-13.07-20.16-22.19-42.4-27.11-66.12-4.15-19.99-4.86-40.72-2.36-61.44,9.72,1.95,19.45,3.81,29.21,5.57.04.73.12,1.46.41,2.17,17.35,42.8,23.55,90.93,17.82,136.11-1.83-.36-3.74-.76-5.56-1.11-.54-.11-1.06-.02-1.59,0-3.74-4.84-7.37-9.86-10.82-15.18h-.01ZM309.79,418.78c-75.89,26.06-174.55,18-240.6-51.76,5.55,1.11,11.02,2.19,16.65,3.33,49.45,10.03,100.59,20.39,149.06,22.64,6.66.31,13.22.45,19.7.45,32.26,0,62.77-3.49,94.74-7.16,9.06-1.04,18.22-2.05,27.45-3.02-20.9,15.8-44.01,27.63-67,35.52ZM394.59,368.29c-.6-.12-1.19-.27-1.83-.23-2.59.23-5.11.52-7.68.77-1.65-46.52,2.21-93.16,11.53-138.76,21.18-4.18,41.47-11.01,59.84-22.03,4.38,70.45-22.74,123.58-61.87,160.25Z"/>
  <path class="cls-1" d="M90.45,152.95c8.26.47,16.66.96,25.12.96s16.97-.48,25.47-1.94c13.81-2.36,33.16-8.46,46.91-24.11,2.47-2.81,2.19-7.08-.61-9.55-2.82-2.46-7.07-2.21-9.56.62-11.14,12.68-27.37,17.72-39.03,19.71-15.47,2.65-31.75,1.72-47.54.8-3.65-.09-6.93,2.64-7.14,6.37-.22,3.73,2.63,6.93,6.37,7.15Z"/>
  <path class="cls-1" d="M355.44,168.32c.25.02.5.04.75.04,3.4,0,6.33-2.57,6.72-6.04.41-3.71-2.28-7.05-5.99-7.46-31.88-3.47-62.95-18.67-85.23-41.7-2.61-2.7-6.89-2.76-9.57-.16-2.69,2.6-2.75,6.88-.17,9.57,24.45,25.27,58.53,41.94,93.5,45.76Z"/>
</svg>