<?xml version="1.0" encoding="UTF-8"?>
<svg id="Layer_1" data-name="Layer 1" xmlns="http://www.w3.org/2000/svg" viewBox="0 0 469.7 439.49">
  <defs>
    <style>
      .cls-1 {
        fill: #000;
        stroke-width: 0px;
      }
    </style>
  </defs>
  <path class="cls-1" d="M465.2,173.87C436.75,40.09,293.13-17.3,170.65,4.51,117.43,14,68.32,50.1,35.91,103.57.56,161.91-9.42,232.15,9.23,291.47c7.77,24.7,19.86,47.41,35.93,67.47,46.09,57.55,109.24,80.55,171.46,80.54,40.86,0,81.31-9.91,116.27-26.48,101.09-47.89,153.03-141.76,132.32-239.13ZM327.09,400.78c-83.39,39.51-199.62,39.27-271.37-50.29-15.02-18.75-26.32-39.97-33.59-63.07-17.5-55.67-8.02-121.77,25.35-176.82C77.88,60.44,123.63,26.64,173.02,17.84c16.17-2.88,32.72-4.32,49.31-4.32,102.57,0,206.6,54.91,229.62,163.17,23.52,110.59-52.57,189.83-124.87,224.08Z"/>
  <path class="cls-1" d="M357.41,235.36c-3.51-.4-6.84,2.85-6.93,6.6-.77,31.68-15.76,63.54-41.13,87.44-25.37,23.9-58.08,36.86-89.74,35.84-31.65-1.12-63.35-16.47-86.96-42.09-23.61-25.63-36.31-58.49-34.83-90.14.18-3.73-2.71-6.9-6.44-7.07-3.78-.18-6.9,2.71-7.07,6.44-1.65,35.23,12.35,71.65,38.39,99.93,26.04,28.27,61.19,45.21,96.44,46.45,1.42.05,2.83.08,4.25.08,33.89,0,68.39-14.28,95.25-39.59,27.98-26.36,44.52-61.7,45.37-96.96.09-3.74-2.86-6.84-6.6-6.93Z"/>
  <path class="cls-1" d="M360.25,91.14c-5.76-1.15-14.65-.06-24.48,11.38-5.24,6.1-10.72,14.28-15.19,23.25-2.29-7.06-5.8-14.05-11.21-18.93-5.24-4.72-11.76-6.89-18.73-6.21-6.43.59-12.34,4.77-15.8,11.17-2.89,5.34-3.63,11.23-3.96,15.78-2.21,31.36,11.63,63.07,36.13,82.78,2.31,1.85,7.69,6.18,14.33,6.18,1.35,0,2.75-.23,4.19-.64.14-.03.29-.07.43-.11.12-.04.24-.05.37-.09.09-.03.15-.11.24-.14.25-.1.51-.16.75-.29,16.01-8.64,41.81-36.53,48.42-52.36,6.78-16.23,7.79-34.47,2.85-51.35-3.38-11.51-9.88-18.76-18.34-20.42ZM363.25,157.69c-5.31,12.72-28.34,37.65-41.66,45.25-.92.13-2.64-.34-6.1-3.12-21.1-16.97-33.02-44.28-31.11-71.27.24-3.39.71-7.26,2.35-10.29,1.25-2.31,3.33-3.97,5.17-4.15,3.29-.32,5.96.58,8.41,2.79,7.86,7.07,10.88,25.07,10.99,35.45,0,.44.18.83.27,1.25-.04.3-.12.61-.15.91-.41,3.71,2.26,7.06,5.98,7.47,3.63.36,7.06-2.26,7.47-5.97,1.51-13.55,10.22-31.92,21.17-44.67,2.03-2.37,7.24-7.76,11.61-6.92,4.67.91,7.26,8.61,7.95,10.94,4.01,13.72,3.16,29.14-2.35,42.33Z"/>
  <path class="cls-1" d="M123.72,205.51c2.31,1.85,7.69,6.18,14.35,6.18,1.35,0,2.76-.23,4.19-.64.13-.03.26-.06.39-.1.13-.04.25-.05.37-.09.1-.03.16-.11.25-.15.25-.1.51-.16.76-.29,16.01-8.63,41.8-36.53,48.42-52.36,6.78-16.23,7.79-34.47,2.84-51.35-3.36-11.51-9.87-18.77-18.33-20.42-5.76-1.14-14.65-.06-24.48,11.38-5.24,6.1-10.72,14.29-15.19,23.25-2.29-7.06-5.8-14.05-11.21-18.93-5.24-4.72-11.76-6.9-18.73-6.21-6.43.59-12.34,4.77-15.8,11.17-2.9,5.35-3.63,11.25-3.95,15.78-2.21,31.36,11.63,63.08,36.13,82.78ZM101.09,123.68c.24-3.38.7-7.25,2.35-10.29,1.25-2.31,3.33-3.97,5.17-4.15,3.29-.31,5.95.58,8.41,2.79,7.86,7.07,10.88,25.08,10.99,35.46,0,.44.18.83.26,1.24-.04.3-.12.61-.15.91-.41,3.72,2.26,7.06,5.98,7.47,3.65.39,7.06-2.26,7.47-5.98,1.51-13.54,10.22-31.91,21.17-44.67,2.03-2.37,7.27-7.75,11.61-6.92,4.67.91,7.26,8.61,7.95,10.95,4.02,13.71,3.16,29.14-2.35,42.32-5.32,12.73-28.33,37.66-41.65,45.25-.93.13-2.65-.34-6.11-3.12-21.1-16.96-33.02-44.27-31.11-71.28Z"/>
</svg>