<?xml version="1.0" encoding="UTF-8"?>
<svg id="Layer_1" data-name="Layer 1" xmlns="http://www.w3.org/2000/svg" viewBox="0 0 469.7 478.2">
  <defs>
    <style>
      .cls-1 {
        fill: #000;
        stroke-width: 0px;
      }
    </style>
  </defs>
  <path class="cls-1" d="M465.19,212.59c-17.95-84.37-81.7-138.33-157.06-161.23.07-.06.16-.08.23-.15,8.23-7.87,13.24-18.92,13.76-30.29.14-3.11-2.26-5.75-5.37-5.89-3.34-.12-5.74,2.27-5.88,5.37-.4,8.51-4.14,16.77-10.3,22.66-1.58,1.52-2.03,3.72-1.44,5.69-24.02-6.44-49.06-9.74-74.05-9.98.68-.73,1.23-1.58,1.45-2.62l6.18-29.36c.64-3.05-1.31-6.04-4.36-6.68-2.98-.63-6.04,1.31-6.67,4.36l-6.18,29.36c-.39,1.86.26,3.64,1.47,4.94-15.59.27-31.11,1.76-46.3,4.46-1.02.18-2.03.44-3.06.64l-10-25.62c-1.13-2.9-4.41-4.33-7.3-3.2-2.91,1.13-4.34,4.41-3.21,7.31l9.41,24.11c-47.69,12.9-91.07,47.12-120.58,95.81C.55,200.62-9.42,270.86,9.23,330.19c7.76,24.7,19.86,47.41,35.93,67.47,46.09,57.55,109.24,80.55,171.46,80.54,40.85,0,81.3-9.91,116.26-26.48,101.09-47.89,153.04-141.76,132.32-239.13ZM327.08,439.49c-83.36,39.52-199.63,39.26-271.36-50.29-15.02-18.75-26.32-39.97-33.59-63.07-17.5-55.67-8.02-121.77,25.35-176.82,30.39-50.15,76.15-83.95,125.53-92.75,16.17-2.89,32.73-4.32,49.32-4.32,102.57,0,206.58,54.91,229.61,163.17,23.53,110.59-52.57,189.83-124.87,224.08Z"/>
  <path class="cls-1" d="M357.4,274.08c-3.68-.42-6.84,2.86-6.93,6.6-.77,31.67-15.75,63.54-41.11,87.44-25.36,23.9-57.92,37.01-89.74,35.84-31.66-1.12-63.36-16.47-86.96-42.1-23.61-25.63-36.31-58.49-34.84-90.14.18-3.73-2.71-6.9-6.44-7.07-4.05-.23-6.89,2.72-7.08,6.44-1.64,35.23,12.36,71.65,38.4,99.93,26.04,28.27,61.19,45.21,96.44,46.46,1.41.05,2.83.08,4.24.08,33.9,0,68.41-14.29,95.26-39.6,27.99-26.36,44.52-61.7,45.37-96.95.09-3.74-2.86-6.84-6.6-6.93Z"/>
  <path class="cls-1" d="M128.92,219.11c.5,0,.99-.06,1.49-.17,3.65-.81,5.94-4.43,5.13-8.07-4.01-17.98,1.28-37.53,13.8-51.04,3.54-3.82,6.73-6.02,9.78-6.76,7.92-1.94,16.76,6.08,21.22,15.01,5.51,11.03,7.52,23.82,5.67,36.01-.55,3.7,1.99,7.14,5.68,7.7,3.68.55,7.15-1.98,7.71-5.68,2.25-14.91-.22-30.56-6.95-44.07-6.86-13.74-20.82-25.89-36.51-22.13-5.72,1.38-11.12,4.88-16.54,10.72-15.49,16.72-22.04,40.93-17.08,63.18.71,3.16,3.5,5.3,6.6,5.3Z"/>
  <path class="cls-1" d="M255.92,211.79c3.7-.56,6.23-4.01,5.67-7.7-1.84-12.19.17-24.97,5.68-36,4.46-8.94,13.27-16.97,21.21-15.01,3.06.73,6.26,2.95,9.79,6.76,12.51,13.51,17.8,33.07,13.79,51.04-.8,3.65,1.49,7.26,5.13,8.07.5.11.99.17,1.49.17,3.09,0,5.89-2.14,6.6-5.3,4.96-22.25-1.59-46.46-17.07-63.18-5.41-5.84-10.83-9.35-16.55-10.72-15.73-3.79-29.65,8.39-36.5,22.13-6.74,13.5-9.21,29.15-6.94,44.07.56,3.7,4.06,6.2,7.7,5.68Z"/>
</svg>