<?xml version="1.0" encoding="UTF-8"?>
<svg id="Layer_1" data-name="Layer 1" xmlns="http://www.w3.org/2000/svg" viewBox="0 0 469.7 458.95">
  <defs>
    <style>
      .cls-1 {
        fill: #000;
        stroke-width: 0px;
      }
    </style>
  </defs>
  <path class="cls-1" d="M357.41,235.38c-3.48-.28-6.84,2.87-6.93,6.6-.77,31.67-15.75,63.54-41.13,87.44-25.35,23.89-57.95,36.94-89.73,35.84-31.66-1.12-63.37-16.47-86.99-42.11-23.6-25.63-36.3-58.48-34.81-90.13.18-3.73-2.71-6.9-6.44-7.07-4.13-.14-6.91,2.71-7.08,6.44-1.64,35.23,12.35,71.65,38.38,99.92,26.05,28.28,61.2,45.22,96.46,46.47,1.42.05,2.83.08,4.25.08,33.9,0,68.4-14.29,95.25-39.59,27.99-26.36,44.52-61.7,45.37-96.96.09-3.74-2.86-6.84-6.6-6.93Z"/>
  <path class="cls-1" d="M128.93,180.4c.5,0,.99-.06,1.49-.17,3.65-.81,5.94-4.43,5.13-8.07-4.01-17.97,1.28-37.53,13.79-51.04,3.54-3.81,6.73-6.02,9.79-6.76,8.03-1.97,16.76,6.09,21.21,15.02,5.52,11.02,7.52,23.81,5.68,36-.56,3.7,1.97,7.14,5.67,7.7,3.63.54,7.14-1.97,7.7-5.68,2.27-14.92-.2-30.57-6.94-44.07-6.85-13.74-20.83-25.92-36.5-22.14-5.73,1.38-11.15,4.88-16.55,10.72-15.49,16.72-22.03,40.93-17.07,63.18.7,3.16,3.5,5.3,6.6,5.3Z"/>
  <path class="cls-1" d="M255.92,173.09c3.69-.56,6.23-4,5.68-7.7-1.85-12.19.17-24.98,5.67-36.01,4.45-8.93,13.18-16.98,21.22-15.02,3.05.73,6.24,2.94,9.78,6.76,12.52,13.51,17.81,33.06,13.8,51.04-.8,3.65,1.49,7.26,5.13,8.07.5.11.99.17,1.49.17,3.09,0,5.89-2.14,6.6-5.3,4.96-22.25-1.59-46.46-17.08-63.18-5.42-5.84-10.83-9.35-16.54-10.72-15.74-3.78-29.65,8.39-36.51,22.14-6.73,13.5-9.2,29.15-6.95,44.07.56,3.7,4.12,6.23,7.71,5.68Z"/>
  <path class="cls-1" d="M465.2,173.89C436.74,40.1,293.13-17.32,170.65,4.52,117.43,14.01,68.31,50.12,35.9,103.6.55,161.93-9.42,232.16,9.23,291.47c7.75,24.68,19.84,47.39,35.92,67.48,30.56,38.14,68.62,61.03,108.92,72.18.22,9.37,1.91,18.03,5.56,23.13,2.39,3.34,6.4,4.69,11.31,4.69,15.34,0,39.44-13.1,50.45-19.6,1.28-.02,2.56-.07,3.84-.12,11.13,6.44,35.97,19.7,51.72,19.7,4.99,0,9.06-1.33,11.48-4.64,4.17-5.7,5.84-15.84,5.7-26.47,13.44-4.04,26.46-8.99,38.76-14.82,101.08-47.89,153.02-141.76,132.32-239.13ZM327.09,400.79c-10.87,5.15-22.31,9.6-34.12,13.29-1.7-10.85-5.12-20.36-9.56-23.87h0c-9.25-7.29-41.46,9.01-60.02,19.47-18.19-10.5-49.73-26.84-58.85-19.44-4.75,3.84-8.3,14.87-9.77,27-36.7-10.75-71.22-32-99.04-66.74-15.03-18.78-26.33-40-33.58-63.08-17.5-55.66-8.03-121.75,25.33-176.8C77.87,60.46,123.63,26.65,173.03,17.85c116.08-20.69,252.18,33.07,278.93,158.86,23.51,110.58-52.57,189.83-124.87,224.08Z"/>
</svg>