<?xml version="1.0" encoding="UTF-8"?>
<svg id="Layer_1" data-name="Layer 1" xmlns="http://www.w3.org/2000/svg" viewBox="0 0 470.43 445.99">
  <defs>
    <style>
      .cls-1 {
        fill: #000;
        stroke-width: 0px;
      }
    </style>
  </defs>
  <path class="cls-1" d="M129.57,187.07c.5,0,.99-.06,1.49-.17,3.65-.81,5.94-4.43,5.13-8.07-4.01-17.98,1.28-37.53,13.8-51.04,3.54-3.82,6.73-6.02,9.78-6.76,7.91-1.91,16.76,6.08,21.22,15.01,5.51,11.03,7.52,23.82,5.67,36.01-.55,3.7,1.99,7.14,5.68,7.7,3.63.53,7.16-1.98,7.71-5.68,2.25-14.91-.22-30.56-6.95-44.07-6.87-13.74-20.84-25.89-36.51-22.13-5.72,1.38-11.12,4.88-16.54,10.72-15.5,16.72-22.04,40.93-17.08,63.18.7,3.16,3.5,5.3,6.6,5.3Z"/>
  <path class="cls-1" d="M256.57,179.75c3.7-.56,6.23-4.01,5.67-7.7-1.84-12.19.17-24.97,5.68-36,4.46-8.94,13.26-16.93,21.21-15.01,3.06.73,6.26,2.95,9.79,6.76,12.51,13.51,17.8,33.07,13.79,51.04-.8,3.65,1.49,7.26,5.13,8.07.5.11.99.17,1.49.17,3.09,0,5.89-2.14,6.6-5.3,4.96-22.25-1.59-46.46-17.07-63.18-5.41-5.84-10.83-9.35-16.55-10.72-15.72-3.77-29.65,8.39-36.5,22.13-6.74,13.5-9.21,29.15-6.94,44.07.56,3.71,4.1,6.23,7.7,5.68Z"/>
  <path class="cls-1" d="M469.55,200.91c-5.14-59.53-33.07-112.41-78.66-148.88C338.49,10.1,268.2-7.37,192.98,2.85c-57.27,7.78-111.56,42.54-148.94,95.37C6.68,151.05-7.88,214.46,4.1,272.2c5.26,25.35,15.01,49.15,29,70.73h0c47.79,73.7,122.55,103.06,194.39,103.06,30.14,0,59.78-5.17,86.69-14.41,103.42-35.51,164.41-126.05,155.37-230.67ZM55.09,106.04C90.31,56.26,141.23,23.54,194.81,16.27c71.48-9.72,138.14,6.74,187.62,46.33,40.37,32.3,65.93,78.4,72.65,130.55-.24.12-.5.14-.73.29-40.01,26.42-90.7,29.16-135.06,29.66-101.23,1.19-202.92-8.47-302.21-28.47,5.79-30.8,18.63-61.18,38.01-88.59ZM347.79,372.84c-37.85,4.35-73.65,8.43-112.25,6.64-47.46-2.21-98.08-12.47-147.02-22.39-4.42-.9-8.7-1.73-13.06-2.62,6.15-45.76.5-94.43-16.01-138.3,80.46,13.59,162.14,20.55,243.68,20.55,5.43,0,10.87-.03,16.31-.09,23.36-.26,47.14-1.38,70.06-5.27-13.8,45.37-22.26,92.28-25.08,139.6-5.56.62-11.13,1.24-16.63,1.87ZM17.36,269.45c-4.15-19.99-4.86-40.72-2.36-61.43,9.82,1.97,19.66,3.86,29.52,5.63.05.68.11,1.36.38,2.03,17.16,42.85,23.16,90.98,17.25,136.13-1.74-.34-3.55-.72-5.27-1.06-.54-.11-1.06-.02-1.59,0-3.74-4.84-7.36-9.86-10.81-15.18-13.07-20.17-22.19-42.41-27.1-66.12ZM309.78,418.78c-75.89,26.06-174.55,18-240.6-51.76,5.55,1.11,11.01,2.19,16.64,3.33,49.46,10.03,100.6,20.39,149.08,22.64,6.66.31,13.22.45,19.7.45,32.25,0,62.76-3.49,94.73-7.16,9.05-1.04,18.22-2.05,27.45-3.02-20.9,15.8-44.01,27.62-67,35.52ZM394.58,368.28c-.6-.12-1.18-.27-1.82-.22-4.95.45-9.8.97-14.67,1.47,3.03-47.66,11.81-94.88,26.23-140.43.07-.23.03-.45.07-.68,18.37-4.26,35.95-10.71,52.06-20.38,4.38,70.44-22.74,123.58-61.87,160.25Z"/>
</svg>