<?xml version="1.0" encoding="UTF-8"?>
<svg id="Layer_1" data-name="Layer 1" xmlns="http://www.w3.org/2000/svg" viewBox="0 0 472.51 442.69">
  <defs>
    <style>
      .cls-1 {
        fill: #000;
        stroke-width: 0px;
      }
    </style>
  </defs>
  <path class="cls-1" d="M226.91,442.69c-66.7,0-134.58-24.67-181.76-83.58-16.07-20.07-28.16-42.77-35.93-67.48C-9.42,232.32.55,162.08,35.91,103.75,68.32,50.28,117.43,14.17,170.64,4.68c136.65-24.34,263.32,48.32,294.48,169.08,30.74,119.08-39.73,202.26-115.93,240.39-36.28,18.16-79.05,28.54-122.29,28.54ZM223.12,13.54c-16.42,0-33.17,1.45-50.1,4.47-49.39,8.8-95.15,42.61-125.55,92.76C14.12,165.82,4.63,231.92,22.14,287.57c7.27,23.11,18.57,44.33,33.59,63.08h0c73.27,91.5,200.07,95.1,287.41,51.4,71.48-35.77,137.62-113.63,108.88-224.91C426.48,78.18,332.46,13.54,223.12,13.54Z"/>
  <path class="cls-1" d="M118.35,176.62c-8.17,0-16.85-1.61-25.94-5.47-3.44-1.46-5.04-5.43-3.59-8.87,1.48-3.44,5.44-5.06,8.88-3.58,45,19.07,78.24-29.92,79.63-32.02,2.06-3.11,6.24-3.98,9.37-1.91,3.12,2.06,3.98,6.25,1.92,9.37-.34.51-28.61,42.49-70.27,42.49Z"/>
  <path class="cls-1" d="M348.23,176.62c-41.68,0-69.93-41.98-70.27-42.49-2.06-3.12-1.19-7.31,1.92-9.37,3.13-2.07,7.31-1.2,9.37,1.91,1.4,2.1,34.65,51.1,79.63,32.02,3.41-1.48,7.4.14,8.88,3.58,1.45,3.44-.15,7.41-3.59,8.87-9.09,3.85-17.78,5.47-25.94,5.47Z"/>
  <path class="cls-1" d="M208.2,330.45c-21.12,0-42.23-.56-63.24-1.67-3.73-.2-6.6-3.38-6.41-7.11.21-3.73,3.45-6.56,7.11-6.4,58.37,3.09,117.49,1.83,175.66-3.74,3.72-.36,7.03,2.37,7.39,6.09.35,3.72-2.38,7.02-6.09,7.38-37.9,3.63-76.18,5.45-114.42,5.45Z"/>
</svg>