<?xml version="1.0" encoding="UTF-8"?>
<svg id="Layer_1" data-name="Layer 1" xmlns="http://www.w3.org/2000/svg" viewBox="0 0 470.78 439.53">
  <defs>
    <style>
      .cls-1 {
        fill: #000;
        stroke-width: 0px;
      }
    </style>
  </defs>
  <path class="cls-1" d="M345.58,100.12c-5.76-1.12-14.65-.06-24.47,11.38-5.24,6.1-10.73,14.28-15.2,23.26-2.29-7.06-5.8-14.06-11.21-18.93-5.24-4.72-11.74-6.85-18.73-6.21-6.43.61-12.34,4.78-15.79,11.17-2.91,5.37-3.65,11.26-3.95,15.78-2.22,31.36,11.62,63.08,36.12,82.78,2.31,1.85,7.7,6.18,14.34,6.18,1.35,0,2.76-.23,4.19-.64.14-.03.27-.06.41-.1.12-.04.24-.05.37-.09.09-.03.15-.11.24-.14.26-.1.52-.16.77-.3,16-8.63,41.8-36.53,48.42-52.36,6.77-16.22,7.79-34.46,2.84-51.35-3.37-11.51-9.88-18.77-18.34-20.43ZM348.58,166.67c-5.32,12.73-28.34,37.65-41.66,45.25-.96.14-2.65-.35-6.11-3.13-21.1-16.96-33.02-44.27-31.1-71.29.22-3.17.68-7.2,2.35-10.28,1.26-2.3,3.33-3.97,5.17-4.15,3.39-.3,5.95.58,8.41,2.79,7.85,7.07,10.88,25.08,11,35.46,0,.43.18.81.26,1.22-.04.31-.13.63-.16.94-.41,3.72,2.27,7.06,5.98,7.47,3.65.41,7.06-2.26,7.48-5.97,1.5-13.55,10.21-31.92,21.17-44.68,2.04-2.36,7.16-7.7,11.61-6.92,4.67.91,7.26,8.61,7.94,10.95,4.02,13.72,3.17,29.14-2.33,42.32Z"/>
  <path class="cls-1" d="M180.62,115.67c-3.38-11.51-9.89-18.76-18.33-20.41-5.77-1.12-14.66-.06-24.48,11.38-5.24,6.1-10.72,14.28-15.19,23.25-2.29-7.05-5.79-14.04-11.2-18.92-5.26-4.74-11.81-6.86-18.76-6.21-6.43.61-12.34,4.79-15.79,11.17-2.89,5.32-3.62,11.23-3.95,15.79-2.21,31.36,11.63,63.08,36.12,82.77,2.31,1.85,7.7,6.18,14.35,6.18,1.34,0,2.76-.23,4.19-.64.14-.03.27-.06.41-.1.12-.04.24-.05.37-.09.09-.03.15-.11.24-.14.26-.1.52-.16.77-.3,16-8.63,41.79-36.53,48.41-52.36,6.78-16.23,7.8-34.47,2.84-51.36ZM165.29,161.81c-5.32,12.73-28.33,37.65-41.64,45.25-.94.12-2.64-.32-6.13-3.12-21.09-16.96-33.01-44.26-31.1-71.26.24-3.39.7-7.27,2.35-10.3,1.26-2.3,3.33-3.97,5.17-4.15,3.39-.35,5.96.58,8.43,2.8,7.86,7.08,10.88,25.08,10.99,35.45,0,.44.18.82.26,1.23-.04.31-.12.63-.16.94-.41,3.72,2.27,7.06,5.98,7.47,3.63.43,7.07-2.26,7.48-5.97,1.5-13.54,10.21-31.91,21.17-44.67,2.03-2.36,7.09-7.76,11.62-6.92,3.14.61,6.11,4.7,7.94,10.94,4.02,13.71,3.16,29.13-2.35,42.32Z"/>
  <path class="cls-1" d="M469.54,198.8C454.59,62.82,317.36-8.76,193.38.86c-53.9,4.12-106.37,35.13-143.96,85.1C8.41,140.47-8.52,209.36,4.1,270.25c5.26,25.35,15.02,49.15,29.02,70.72,45.7,70.48,117.91,98.56,188.46,98.56,32.03,0,63.71-5.79,92.42-16.01,105.37-37.55,166.43-125.76,155.55-224.71ZM309.45,410.77c-86.94,30.97-202.55,19.12-264.98-77.16,0,0-.01,0-.01,0-13.07-20.16-22.19-42.4-27.1-66.11-11.86-57.13,4.17-121.95,42.88-173.4C95.49,47.24,144.39,18.17,194.41,14.35c6.99-.53,14.02-.8,21.07-.8,111.57,0,227.38,66.5,240.59,186.73,12.36,112.38-71.27,183.63-146.63,210.49Z"/>
  <path class="cls-1" d="M232.84,323.87c-8.01,3.35-16.3,6.81-24.56,7.05-6.61.14-14.58-2.34-17.85-8.36-3.03-5.61-1.2-13.06,1.95-17.95,4.32-6.67,11.54-11.34,17.36-14.66,2.8-1.6,4.08-4.95,3.06-8.01-1.01-3.06-4.05-4.95-7.25-4.59-4.22.53-8.55-1.55-11.83-5.51-3.65-4.41-5-9.98-3.54-14.57,1.39-4.34,5.01-8.05,9.93-10.16,5.51-2.37,11.64-2.38,16.42-.08,3.35,1.62,7.42.22,9.03-3.16,1.63-3.36.21-7.41-3.15-9.03-8.29-3.99-18.61-4.05-27.66-.17-8.51,3.66-14.89,10.4-17.47,18.47-2.86,8.92-.56,19.39,6,27.32,2.09,2.54,4.5,4.65,7.1,6.31-3.46,2.92-6.74,6.37-9.39,10.49-6.49,10.07-7.47,22.52-2.48,31.74,5.13,9.47,16.44,15.45,29.01,15.45.37,0,.74,0,1.11-.02,10.78-.3,20.68-4.44,29.41-8.08,3.45-1.44,5.08-5.41,3.63-8.85-1.45-3.45-5.44-5.05-8.85-3.63Z"/>
  <path class="cls-1" d="M104.49,228.34c-1.72-3.3-5.79-4.62-9.13-2.86-17.16,8.98-30.85,23.71-38.54,41.49-1.49,3.43.1,7.42,3.52,8.9.88.38,1.78.56,2.69.56,2.61,0,5.11-1.53,6.21-4.08,6.37-14.73,18.17-27.44,32.39-34.87,3.3-1.73,4.59-5.82,2.85-9.13Z"/>
  <path class="cls-1" d="M117.13,247.34l-23.14,23.91c-2.6,2.68-2.52,6.97.17,9.57,1.31,1.27,3.01,1.91,4.7,1.91s3.54-.69,4.87-2.06l23.14-23.91c2.59-2.68,2.52-6.97-.17-9.57-2.69-2.6-6.97-2.54-9.57.16Z"/>
  <path class="cls-1" d="M316.74,244.18c-7.59,10.26-13.22,22.24-16.27,34.63-.89,3.63,1.33,7.3,4.96,8.19.55.13,1.09.2,1.62.2,3.05,0,5.82-2.07,6.58-5.15,2.62-10.66,7.46-20.97,14-29.81,2.22-3.01,1.59-7.24-1.42-9.47-3-2.2-7.22-1.58-9.46,1.42Z"/>
  <path class="cls-1" d="M357.16,253.16c-3.73.17-6.62,3.34-6.45,7.07.25,5.39-1.23,10.24-5.11,16.74-1.91,3.21-.86,7.36,2.35,9.27,1.09.65,2.28.96,3.46.96,2.31,0,4.56-1.18,5.83-3.3,3.5-5.88,7.48-13.96,7-24.29-.17-3.73-3.23-6.38-7.07-6.45Z"/>
</svg>