<?xml version="1.0" encoding="UTF-8"?>
<svg id="Layer_1" data-name="Layer 1" xmlns="http://www.w3.org/2000/svg" viewBox="0 0 470.78 439.52">
  <defs>
    <style>
      .cls-1 {
        fill: #000;
        stroke-width: 0px;
      }
    </style>
  </defs>
  <path class="cls-1" d="M469.54,198.79C454.59,62.82,317.39-8.7,193.38.85c-53.9,4.12-106.37,35.13-143.97,85.1C8.41,140.46-8.53,209.35,4.1,270.24c5.25,25.35,15.02,49.15,29.01,70.73,45.71,70.49,117.91,98.56,188.46,98.56,32.02,0,63.72-5.79,92.42-16.02,105.37-37.55,166.42-125.76,155.54-224.71ZM309.45,410.75c-86.93,30.95-202.56,19.14-264.98-77.16-13.08-20.17-22.2-42.41-27.12-66.11-11.85-57.13,4.18-121.95,42.88-173.4C95.49,47.23,144.39,18.16,194.42,14.34c6.99-.53,14.02-.8,21.07-.8,111.57,0,227.38,66.5,240.6,186.73,12.35,112.38-71.28,183.63-146.64,210.49Z"/>
  <path class="cls-1" d="M344.05,253.32c-3.7-.53-7.12,2.06-7.64,5.77-5.95,42.6-46.39,79.6-94.07,86.08-29.23,3.99-59.03-2.7-81.65-18.33-23.7-16.37-39.59-43.37-41.5-70.45-.3-4.25-.29-8.5-.28-12.75,0-3.74-3.02-6.77-6.76-6.78h-.01c-3.73,0-6.76,3.02-6.77,6.76,0,4.58,0,9.15.31,13.71,2.22,31.56,19.91,61.7,47.3,80.64,20.59,14.22,46.36,21.86,72.76,21.86,6.12,0,12.29-.41,18.42-1.24,53.47-7.27,98.89-49.24,105.65-97.63.52-3.7-2.07-7.12-5.77-7.64Z"/>
  <path class="cls-1" d="M133.56,199.15c.23,0,.47-.01.71-.04,3.72-.39,6.42-3.71,6.03-7.43-1.62-15.58,2.56-32.22,11.46-45.66,5.94-8.96,18.46-21.8,26.73-18.01,11.51,5.22,10.98,41.63,6.32,57.86-1.03,3.59,1.05,7.34,4.64,8.37,3.56,1.05,7.34-1.04,8.37-4.64,3.79-13.21,9.79-63.25-13.73-73.92-16.16-7.31-33.59,7.73-43.6,22.85-10.61,16.02-15.58,35.9-13.64,54.54.36,3.48,3.3,6.07,6.72,6.07Z"/>
  <path class="cls-1" d="M247.63,206.08c3.71.59,7.16-1.93,7.75-5.62,2.53-15.99,7.53-31.41,14.83-45.85,2.29-4.51,4.91-9.06,8.57-11.8,3.03-2.26,6.96-2.92,9.3-1.58,2.23,1.27,3.94,4.49,5.24,9.82,4.59,18.89,2.09,39.63-6.88,56.89-1.72,3.32-.43,7.4,2.88,9.12,1,.52,2.07.77,3.12.77,2.45,0,4.81-1.33,6.01-3.65,10.46-20.13,13.39-44.3,8.03-66.33-1.42-5.84-4.17-14.09-11.68-18.38-7.05-4.03-16.74-3.02-24.11,2.49-5.89,4.4-9.51,10.55-12.53,16.53-7.95,15.69-13.37,32.46-16.13,49.84-.58,3.7,1.93,7.16,5.62,7.75Z"/>
</svg>