<?xml version="1.0" encoding="UTF-8"?>
<svg id="Layer_1" data-name="Layer 1" xmlns="http://www.w3.org/2000/svg" viewBox="0 0 472.51 442.7">
  <defs>
    <style>
      .cls-1 {
        fill: #000;
        stroke-width: 0px;
      }
    </style>
  </defs>
  <path class="cls-1" d="M465.13,173.78C433.96,53.03,307.47-19.7,170.64,4.7,117.44,14.18,68.33,50.28,35.91,103.75.55,162.08-9.42,232.33,9.23,291.65c7.76,24.7,19.86,47.41,35.93,67.47,47.18,58.9,115.06,83.58,181.76,83.58,43.25,0,86.02-10.38,122.3-28.54,76.2-38.14,146.67-121.31,115.92-240.38ZM343.15,402.06c-87.36,43.72-214.15,40.1-287.42-51.4-15.02-18.75-26.32-39.97-33.59-63.07-17.5-55.67-8.02-121.77,25.35-176.82C77.88,60.63,123.64,26.82,173.02,18.02c16.93-3.02,33.69-4.48,50.1-4.48,109.34,0,203.36,64.64,228.9,163.61,28.73,111.27-37.4,189.13-108.87,224.9Z"/>
  <path class="cls-1" d="M381.53,254.31c-.02-.15-.12-.27-.16-.41-.11-.46-.29-.87-.49-1.29-.18-.38-.33-.76-.57-1.1-.26-.37-.58-.66-.91-.96-.31-.29-.59-.58-.94-.8-.35-.23-.74-.36-1.13-.52-.44-.18-.86-.35-1.33-.43-.14-.02-.25-.11-.39-.12-.31-.03-.59.07-.9.08-.32,0-.62-.09-.94-.03-136.59,22.02-186.35,11.58-277.24-12.2-3.72-.96-7.31,1.22-8.26,4.83-.15.57-.1,1.13-.1,1.69-.02.22-.12.43-.11.65.14,5.34.29,10.69.8,16.02,3.68,37.69,25.82,73.2,59.22,94.99,23.98,15.63,53.39,23.92,83.52,23.92,8.8,0,17.68-.71,26.48-2.15,63.87-10.44,116.95-62.17,123.5-120.32.03-.31-.07-.6-.08-.91,0-.31.09-.61.04-.93ZM255.9,363.11c-35.63,5.85-72.23-1.37-100.41-19.74-30-19.57-49.87-51.32-53.14-84.97-.21-2.15-.34-4.31-.44-6.5,52.83,13.69,92.72,22.51,145.85,22.51,32.58,0,70.31-3.37,118.92-10.9-9.99,48.66-55.98,90.65-110.77,99.6Z"/>
  <path class="cls-1" d="M92.23,220.86c2.74,1.84,5.89,2.77,9.04,2.77,2.79,0,5.57-.72,8.11-2.18l26.32-15.14c.8-.45,1.73-.49,2.54-.09l27.39,13.1c5.64,2.68,12.16,1.96,17.05-1.88,4.91-3.85,7.16-10.03,5.87-16.14l-6.27-29.73c-.19-.86.08-1.77.69-2.42l20.93-22.01c4.3-4.52,5.63-10.96,3.48-16.81-2.15-5.85-7.34-9.89-13.54-10.55l-30.2-3.23c-.89-.09-1.67-.62-2.1-1.41l-14.46-26.7c-2.96-5.48-8.45-8.9-14.91-8.5-6.22.24-11.66,3.92-14.21,9.6l-12.4,27.72c-.36.82-1.11,1.41-1.99,1.58l-29.86,5.5c-6.12,1.13-10.99,5.55-12.69,11.54-1.71,6,.1,12.32,4.72,16.51l22.55,20.36c.66.59.99,1.49.87,2.37l-4,30.1c-.83,6.18,1.88,12.17,7.06,15.64ZM74.83,142.34c-1.09-.99-.96-2.16-.79-2.77.18-.61.68-1.66,2.13-1.93l29.87-5.5c5.25-.97,9.7-4.46,11.89-9.35l12.4-27.73c.59-1.34,1.74-1.58,2.37-1.61h.12c.65,0,1.72.21,2.38,1.43l14.46,26.7c2.54,4.71,7.25,7.86,12.57,8.43l30.2,3.23c1.47.15,2.05,1.17,2.27,1.76.21.59.43,1.75-.58,2.81l-20.93,22c-3.7,3.88-5.24,9.33-4.13,14.57l6.27,29.71c.3,1.44-.48,2.31-.99,2.7-.48.39-1.49.94-2.85.31h0s-27.39-13.1-27.39-13.1c-4.85-2.32-10.5-2.1-15.12.57l-26.32,15.13c-1.28.73-2.35.26-2.87-.1-.52-.35-1.38-1.16-1.18-2.62l4-30.11c.7-5.31-1.26-10.62-5.22-14.19l-22.53-20.35Z"/>
  <path class="cls-1" d="M387.44,119.78l-30.2-3.23c-.89-.09-1.67-.62-2.1-1.41l-14.46-26.7c-2.96-5.48-8.69-8.9-14.9-8.5-6.22.23-11.67,3.91-14.23,9.6l-12.4,27.74c-.36.81-1.1,1.39-1.98,1.55l-29.86,5.5c-6.13,1.13-11,5.55-12.7,11.55-1.71,6,.11,12.32,4.74,16.5l22.53,20.35c.66.61.99,1.49.87,2.38l-4,30.1c-.83,6.18,1.88,12.17,7.06,15.64,2.75,1.84,5.89,2.78,9.05,2.78,2.79,0,5.57-.72,8.11-2.18l26.32-15.14c.77-.44,1.72-.49,2.53-.09l27.4,13.1c5.63,2.69,12.15,1.97,17.06-1.89,4.9-3.85,7.14-10.03,5.85-16.12l-6.26-29.73c-.19-.87.08-1.78.68-2.42l20.94-22.01c4.3-4.52,5.63-10.96,3.48-16.81-2.15-5.85-7.34-9.89-13.54-10.55ZM387.69,137.81l-20.95,22.01c-3.68,3.89-5.22,9.33-4.11,14.55l6.26,29.73c.31,1.43-.48,2.3-.98,2.69-.48.39-1.49.94-2.85.31h0s-27.4-13.1-27.4-13.1c-4.85-2.32-10.49-2.1-15.11.57l-26.32,15.13c-1.29.76-2.35.25-2.89-.1-.52-.35-1.38-1.16-1.18-2.62l4-30.08c.72-5.3-1.23-10.62-5.21-14.22l-22.53-20.36c-1.09-.99-.97-2.15-.79-2.76.17-.61.67-1.66,2.13-1.93l29.87-5.5c5.26-.97,9.71-4.47,11.88-9.35l12.4-27.72c.61-1.35,1.75-1.59,2.38-1.61h.12c.65,0,1.72.21,2.38,1.43l14.46,26.7c2.54,4.71,7.25,7.86,12.57,8.43l30.2,3.23c1.46.15,2.05,1.17,2.27,1.76.21.59.43,1.75-.58,2.81Z"/>
</svg>