<?xml version="1.0" encoding="UTF-8"?>
<svg id="Layer_1" data-name="Layer 1" xmlns="http://www.w3.org/2000/svg" viewBox="0 0 469.7 439.49">
  <defs>
    <style>
      .cls-1 {
        fill: #000;
        stroke-width: 0px;
      }
    </style>
  </defs>
  <path class="cls-1" d="M465.19,173.88C436.74,40.09,293.13-17.31,170.64,4.52,117.44,14,68.33,50.1,35.91,103.58.55,161.9-9.42,232.15,9.23,291.47c7.76,24.7,19.86,47.41,35.93,67.47,46.09,57.55,109.25,80.55,171.46,80.54,40.85,0,81.3-9.91,116.26-26.48,101.09-47.89,153.04-141.76,132.32-239.13ZM327.08,400.78c-83.36,39.52-199.62,39.26-271.36-50.29-15.02-18.75-26.32-39.97-33.59-63.07-17.5-55.67-8.02-121.77,25.35-176.82C77.88,60.45,123.64,26.64,173.02,17.84c16.17-2.89,32.73-4.32,49.32-4.32,102.57,0,206.58,54.91,229.61,163.17,23.53,110.59-52.57,189.83-124.87,224.08Z"/>
  <path class="cls-1" d="M359.87,236.9c-3.55-1.25-7.39.59-8.65,4.11-15.67,44.08-75.99,59.75-122.88,59.77h-.12c-52,0-111.15-18.87-126.21-61.06-1.27-3.53-5.14-5.37-8.66-4.1-3.51,1.26-5.35,5.13-4.1,8.65,10.35,28.98,37.82,48.3,70.36,59.2-.27,25.31.1,69.74,34.8,86.97,8.7,4.32,17.62,6.42,26.17,6.42,15.56,0,29.85-6.97,39.25-20.13,12.67-17.73,15.18-42.79,17.2-62.94l.5-4.92c37.96-8.59,73.88-28.02,86.43-63.3,1.26-3.52-.58-7.39-4.11-8.65ZM263.59,312.42c-1.96,19.51-4.18,41.63-14.76,56.43-12.18,17.07-33.06,17.07-48.39,9.46-23.12-11.47-27.19-40.31-27.29-70.82,12.45,3.18,25.36,5.18,38.15,6.13-1.79,8.36-2.05,17.04-.56,25.44.58,3.28,3.44,5.59,6.65,5.59.4,0,.79-.03,1.19-.1,3.68-.65,6.13-4.16,5.48-7.84-1.32-7.43-.91-15.13.99-22.46,1.06.01,2.13.08,3.18.08h.11c11.28,0,23.28-.94,35.34-2.85l-.1.95Z"/>
  <path class="cls-1" d="M128.92,180.4c.5,0,.99-.06,1.49-.17,3.65-.81,5.94-4.43,5.13-8.07-4.01-17.98,1.28-37.53,13.8-51.04,3.54-3.82,6.73-6.02,9.78-6.76,8.04-1.95,16.76,6.09,21.21,15.02,5.52,11.03,7.52,23.81,5.68,36-.56,3.7,1.97,7.14,5.67,7.7,3.61.52,7.14-1.98,7.7-5.68,2.27-14.92-.2-30.57-6.94-44.07-6.85-13.75-20.79-25.92-36.5-22.14-5.72,1.38-11.12,4.88-16.54,10.72-15.49,16.72-22.04,40.93-17.08,63.18.7,3.16,3.5,5.3,6.6,5.3Z"/>
  <path class="cls-1" d="M255.92,173.08c3.7-.56,6.23-4.01,5.67-7.7-1.84-12.19.17-24.97,5.68-36,4.45-8.94,13.29-16.97,21.21-15.01,3.05.73,6.24,2.94,9.78,6.76,12.52,13.51,17.81,33.06,13.8,51.04-.8,3.65,1.49,7.26,5.13,8.07.5.11.99.17,1.49.17,3.09,0,5.89-2.14,6.6-5.3,4.96-22.25-1.6-46.46-17.08-63.18-5.42-5.84-10.83-9.35-16.54-10.72-15.75-3.79-29.65,8.39-36.5,22.13-6.74,13.5-9.21,29.15-6.94,44.07.56,3.7,4.06,6.2,7.7,5.68Z"/>
</svg>