<?xml version="1.0" encoding="UTF-8"?>
<svg id="Layer_1" data-name="Layer 1" xmlns="http://www.w3.org/2000/svg" viewBox="0 0 464.94 439.11">
  <defs>
    <style>
      .cls-1 {
        fill: #000;
        stroke-width: 0px;
      }
    </style>
  </defs>
  <path class="cls-1" d="M464.54,212.45c-5.21-84.19-58.67-157.53-139.54-191.42C278.16,1.39,229.12-4.64,183.31,3.56,95.48,19.27,19.84,94.32,3.46,182.03c-9.76,52.25,1.32,109.64,30.41,157.44,14.62,24.05,32.99,44.69,54.59,61.36,34.76,26.82,81.4,38.28,128.63,38.28,51.03,0,102.7-13.37,140.74-35.17,71.69-41.06,111.57-112.65,106.7-191.49ZM351.12,392.2c-69.5,39.8-186.5,50.32-254.39-2.09-20.28-15.65-37.53-35.06-51.29-57.67h0c-27.38-45-37.82-98.91-28.67-147.93C32.16,102.13,103.19,31.64,185.69,16.89c12.5-2.24,25.25-3.35,38.15-3.35,31.75,0,64.33,6.73,95.94,19.97,76.07,31.88,126.37,100.76,131.25,179.77,4.55,73.59-32.8,140.47-99.91,178.92Z"/>
  <path class="cls-1" d="M178.36,201.82c1.33,1.82,3.39,2.79,5.48,2.79,1.38,0,2.78-.42,3.98-1.3,3.02-2.2,3.68-6.43,1.49-9.45-26.12-35.86-68.15-58.51-112.45-60.61-4.17-.13-6.91,2.71-7.08,6.44-.18,3.73,2.71,6.9,6.44,7.08,39.64,1.88,78.78,22.97,102.14,55.06Z"/>
  <path class="cls-1" d="M358.23,136.92c-22.31-3.57-43.61-1.78-61.65,5.15-21.14,8.12-38.01,23.54-46.29,42.31-1.51,3.42.04,7.42,3.46,8.92.89.39,1.82.58,2.73.58,2.6,0,5.08-1.5,6.19-4.04,6.84-15.5,20.96-28.31,38.76-35.14,15.83-6.08,34.73-7.62,54.67-4.43,3.7.59,7.15-1.93,7.75-5.61.58-3.7-1.93-7.16-5.62-7.75Z"/>
  <path class="cls-1" d="M234.28,243.1c-16.47-.83-32.2,6.18-45.31,20.32-18.33,19.76-28.92,50.97-25.77,75.88.44,3.42,3.35,5.92,6.71,5.92.29,0,.57-.02.86-.06,3.71-.47,6.33-3.85,5.87-7.56-2.64-20.89,6.72-48.22,22.26-64.99,7.17-7.74,19.08-16.78,34.7-16.01,35.44,1.79,55.4,41.59,70.22,71.17,1.65,3.33,5.58,4.42,8.95,2.75,3.34-1.67,4.56-6,2.89-9.34-16.06-32.03-38.05-75.91-81.38-78.09Z"/>
</svg>