<?xml version="1.0" encoding="UTF-8"?>
<svg id="Layer_1" data-name="Layer 1" xmlns="http://www.w3.org/2000/svg" viewBox="0 0 469.7 439.49">
  <defs>
    <style>
      .cls-1 {
        fill: #000;
        stroke-width: 0px;
      }
    </style>
  </defs>
  <path class="cls-1" d="M465.19,173.88C436.74,40.09,293.14-17.31,170.64,4.52,117.44,14,68.33,50.11,35.91,103.58.55,161.91-9.42,232.15,9.23,291.48c7.76,24.7,19.86,47.41,35.93,67.47,46.09,57.55,109.25,80.55,171.46,80.54,40.85,0,81.3-9.91,116.26-26.48,101.09-47.89,153.04-141.76,132.32-239.13ZM327.08,400.78c-83.36,39.52-199.63,39.27-271.36-50.29-15.02-18.75-26.32-39.97-33.59-63.08-17.5-55.66-8.02-121.77,25.35-176.82C77.88,60.45,123.64,26.65,173.02,17.85c16.17-2.89,32.73-4.32,49.32-4.32,102.57,0,206.58,54.91,229.61,163.17,23.53,110.59-52.57,189.83-124.87,224.08Z"/>
  <path class="cls-1" d="M253.05,144.82c.98,0,1.97-.21,2.91-.66,4.55-2.16,9.87-3.24,15.5-4.37,8.94-1.8,18.18-3.67,25.85-10.16,3.63-3.08,6.23-6.69,8.76-10.17,1-1.39,2-2.78,3.07-4.11,9.44-11.76,24.69-18.47,39.7-17.52,3.48.36,6.94-2.58,7.18-6.32.24-3.73-2.59-6.94-6.32-7.18-19.41-1.22-38.96,7.41-51.11,22.55-1.21,1.5-2.35,3.07-3.48,4.64-2.15,2.97-4.17,5.77-6.55,7.79-5,4.23-12.17,5.68-19.77,7.21-6.18,1.24-12.58,2.54-18.64,5.41-3.37,1.61-4.81,5.64-3.21,9.02,1.16,2.43,3.59,3.86,6.11,3.86Z"/>
  <path class="cls-1" d="M79.01,136.38c14.25-4.98,30.7-2.64,42.95,6.11,1.38.99,2.71,2.04,4.04,3.1,3.38,2.68,6.87,5.45,11.23,7.45,5.66,2.59,11.43,3.3,17.18,3.3,3.5,0,6.99-.26,10.45-.53,5.73-.43,11.12-.83,16.09,0,3.59.58,7.18-1.84,7.81-5.53.63-3.68-1.85-7.18-5.54-7.81-6.61-1.13-13.11-.64-19.38-.16-7.72.58-15.02,1.14-20.99-1.59-2.85-1.31-5.57-3.46-8.45-5.74-1.51-1.19-3.02-2.39-4.58-3.51-15.82-11.28-36.98-14.31-55.31-7.86-3.52,1.24-5.37,5.1-4.14,8.62,1.24,3.54,5.1,5.42,8.63,4.14Z"/>
  <path class="cls-1" d="M259.75,242.8c-49.18,3.15-82.12,59.07-83.51,61.45-1.87,3.23-.77,7.37,2.47,9.24,1.07.62,2.24.91,3.38.91,2.33,0,4.6-1.21,5.86-3.36.31-.52,30.76-52.09,72.7-54.74,23.5-1.42,46.72,12.67,69.2,42.06,2.28,2.98,6.55,3.52,9.48,1.26,2.97-2.27,3.54-6.52,1.27-9.49-25.41-33.22-52.69-49.2-80.85-47.33Z"/>
  <path class="cls-1" d="M164.2,230.44c-17.98,9.53-36.93,17.2-56.42,23.09.1-2.79-.2-5.74-1.01-8.9-2.33-9.13-9.72-16.6-18.86-19.04-4.91-1.29-9.7-1.07-13.38-.73-9.65.91-16.98,3.6-22.45,8.22-10.1,8.56-12.94,24.05-6.6,36.04,2.87,5.44,8.24,10.85,14.53,14.75-4.74,4.94-7.85,11.72-8.07,19.04-.32,10.31,4.52,20.99,13.29,29.3,5.68,5.39,11.65,8.41,17.71,8.99.75.07,1.49.11,2.24.11,6.12,0,12.37-2.42,17.79-6.92.95-.79,1.82-1.65,2.67-2.51,1.28,2.03,2.85,3.92,4.78,5.6,5.69,4.96,13.54,7.65,21.51,7.65,3.12,0,6.27-.41,9.31-1.27,8.11-2.27,15.21-8.89,19.98-18.65,4.34-8.88,4.46-19.65.33-28.81-3.69-8.18-10.19-14.07-18.38-16.83,10.18-12.55,19.98-25.5,29.72-39.26,1.81-2.56,1.62-6.02-.45-8.38-2.06-2.36-5.48-2.96-8.25-1.51ZM122.44,283.4c-.07.08-.09.19-.15.27-.09.12-.23.21-.31.34-.19.28-.23.59-.37.89-.2.42-.41.81-.52,1.25-.11.42-.12.83-.14,1.26-.02.44-.06.86,0,1.29.06.43.2.81.34,1.22.14.42.27.82.49,1.2.22.38.52.7.81,1.03.22.25.35.55.61.77.11.1.25.13.37.22.1.07.14.18.24.25.23.15.49.2.73.32.38.19.74.38,1.14.5.37.11.73.15,1.1.19.27.03.53.14.8.14.11,0,.21-.06.33-.07.7-.03,1.37-.19,2.03-.44.17-.06.35-.07.51-.15.72-.34,1.4-.79,1.97-1.38,1.35-.47,4.41-.68,5.47-.44,5.04,1.39,9.06,4.91,11.32,9.91,2.49,5.53,2.43,12.01-.15,17.3-1.76,3.61-5.61,9.91-11.48,11.56-6.43,1.82-13.77.37-18.26-3.56-3-2.61-4.24-5.92-3.7-9.85.04-.32-.06-.61-.06-.92,0-.55.03-1.09-.1-1.62-.1-.41-.32-.75-.5-1.13-.19-.42-.33-.85-.6-1.23-.28-.39-.68-.67-1.04-.99-.28-.25-.47-.55-.79-.76-.03-.02-.07-.02-.1-.04-.33-.2-.73-.27-1.1-.42-.48-.19-.94-.43-1.43-.5-.03,0-.04-.02-.07-.02-.34-.05-.67.05-1.01.06-.51,0-1.01-.03-1.5.09-.43.11-.81.34-1.21.53-.4.18-.81.31-1.17.57-.37.27-.64.65-.95.99-.27.29-.59.51-.81.85-2.95,4.68-5.58,8.35-8.87,11.07-3.25,2.7-6.95,4.05-10.08,3.76-3-.29-6.27-2.09-9.7-5.35-5.97-5.66-9.27-12.6-9.07-19.06.2-6.45,4.76-12.54,10.17-13.57.61-.12,1.23-.18,1.85-.23.02,0,.04,0,.05,0,.48,0,.94-.05,1.41-.08.24,0,.48-.02.72-.03.02,0,.04-.01.05-.01.17-.02.35,0,.52-.03.38-.05.69-.24,1.05-.35.42-.12.84-.21,1.22-.41.42-.22.76-.52,1.12-.82.31-.25.63-.47.89-.77.31-.37.52-.79.75-1.21.18-.34.39-.65.52-1.02.16-.48.19-.98.24-1.49.03-.31.16-.59.15-.91,0-.09-.05-.16-.06-.25,0-.11.04-.21.02-.32-.04-.35-.23-.64-.33-.97-.13-.45-.23-.91-.44-1.31-.2-.38-.48-.69-.74-1.02-.25-.31-.47-.63-.78-.89-.5-.45-1.08-.76-1.69-1.04-.13-.06-.24-.14-.37-.19-.62-.24-1.27-.33-1.94-.38-.24-.03-.45-.13-.69-.13-.25.01-.49.03-.74.04-6.55.69-17.19-6.02-20.96-13.15-3.33-6.29-1.81-14.98,3.38-19.38,3.28-2.78,8.17-4.44,14.98-5.08,3.74-.35,6.43-.24,8.62.34,4.39,1.17,8.1,4.92,9.23,9.32,1.63,6.38-.02,9.05-2.05,10.99-.22.21-.31.48-.5.71-.3.37-.58.72-.79,1.14-.2.4-.32.81-.44,1.23-.12.4-.23.79-.27,1.21-.04.49.01.95.07,1.44.04.28-.03.55.04.83.03.12.12.21.15.32.14.44.37.82.59,1.23.22.4.43.8.72,1.14.08.09.11.21.19.3.2.21.46.3.68.48.38.31.74.6,1.18.82.39.2.78.31,1.19.42.42.12.82.24,1.26.27.48.04.94-.01,1.41-.07.29-.04.56.03.85-.04,16.4-4.19,32.47-9.65,48.02-16.31-7.65,10.05-15.45,19.74-23.55,29.26Z"/>
  <path class="cls-1" d="M418.28,193.37c-3.13-.31-7.28-.5-11.58.64-7.98,2.14-14.46,8.68-16.51,16.69-.55,2.16-.86,4.23-.92,6.19-15.64-4.83-30.87-11.07-45.35-18.75-2.75-1.46-6.19-.85-8.25,1.51-2.07,2.35-2.26,5.82-.45,8.38,7.88,11.13,15.79,21.58,23.95,31.69-6.38,2.6-11.65,7.47-14.58,13.99-3.59,7.94-3.48,17.28.29,24.98,4.12,8.43,10.29,14.15,17.37,16.14,2.63.74,5.35,1.1,8.05,1.1,6.92,0,13.75-2.35,18.69-6.66,1.33-1.16,2.46-2.45,3.44-3.8.44.41.85.84,1.31,1.23,4.72,3.93,10.19,6.04,15.56,6.04.65,0,1.3-.03,1.95-.09,5.32-.51,10.51-3.13,15.45-7.8,7.54-7.15,11.71-16.37,11.42-25.28-.18-5.87-2.47-11.36-6.05-15.56,4.88-3.28,8.97-7.64,11.31-12.06,5.53-10.45,3.05-23.97-5.77-31.43-4.75-4.01-11.07-6.34-19.34-7.12ZM431.43,225.59c-2.89,5.48-11.22,10.94-16.3,10.38-.25-.01-.5-.03-.76-.04-.44-.02-.82.14-1.24.2-.37.06-.75.06-1.11.18-.5.16-.92.43-1.35.69-.31.19-.64.33-.92.57-.34.29-.59.65-.87,1-.27.34-.55.64-.75,1.03-.19.36-.26.76-.38,1.16-.12.38-.32.71-.37,1.11-.01.11.03.21.02.32,0,.09-.05.15-.06.24-.01.32.12.6.15.91.05.52.08,1.03.24,1.51.12.36.33.66.51.99.23.43.45.86.77,1.24.25.29.56.5.86.75.37.31.72.62,1.15.84.37.19.79.28,1.2.4.36.11.68.31,1.06.35.17.02.34.01.51.03.02,0,.04.01.06.01,1.07.04,2.16.06,3.22.26,4.01.77,7.39,5.36,7.54,10.25.15,4.99-2.53,10.61-7.2,15.04-2.69,2.54-5.2,3.94-7.45,4.16-2.39.15-5.11-.83-7.58-2.89-2.62-2.18-4.76-5.15-7.15-8.96-.33-.52-.79-.88-1.22-1.28-.18-.16-.3-.38-.5-.53-.52-.39-1.11-.62-1.71-.84-.23-.09-.42-.23-.65-.29-.58-.15-1.18-.12-1.78-.11-.26,0-.52-.09-.78-.05-.02,0-.04.02-.06.02-.47.07-.91.3-1.36.47-.4.15-.82.23-1.18.45-.03.02-.06.01-.08.03-.28.18-.45.45-.7.66-.41.35-.84.67-1.15,1.1-.25.34-.37.73-.55,1.11-.2.41-.44.79-.55,1.24-.12.49-.09,1-.1,1.51,0,.35-.11.67-.07,1.02.41,2.91-.48,5.28-2.71,7.21-3.43,3-9.23,4.11-14.2,2.74-4.47-1.26-7.47-6.21-8.86-9.05-2.02-4.12-2.06-9.16-.11-13.47,1.74-3.87,4.83-6.58,8.61-7.63.77-.13,2.75-.02,3.79.26.5.47,1.08.82,1.68,1.11.06.03.11.09.18.12.79.35,1.65.51,2.51.54.09,0,.16.05.25.05.26,0,.52-.11.78-.14.4-.05.79-.09,1.18-.2.37-.11.7-.29,1.04-.47.26-.13.53-.18.78-.35.1-.07.15-.17.24-.25.11-.09.25-.12.36-.21.26-.22.39-.52.6-.77.3-.34.6-.66.83-1.05.22-.39.35-.79.49-1.2.14-.41.28-.79.34-1.22.06-.43.03-.86,0-1.29-.02-.43-.04-.85-.14-1.27-.11-.42-.31-.81-.5-1.21-.14-.31-.19-.64-.38-.92-.09-.14-.23-.23-.33-.36-.06-.07-.07-.17-.13-.24-5.83-6.85-11.48-13.81-17.04-21.01,11.81,4.84,23.94,8.86,36.3,12.02.32.08.62.01.94.05.43.05.84.1,1.26.07.49-.04.95-.16,1.41-.31.36-.11.71-.21,1.06-.38.45-.23.83-.52,1.22-.84.22-.18.48-.27.69-.48.09-.09.12-.22.2-.32.28-.33.48-.71.69-1.1.23-.42.47-.82.61-1.27.04-.11.12-.2.15-.31.07-.28,0-.54.04-.82.06-.49.12-.97.07-1.46-.04-.42-.15-.8-.27-1.21-.12-.43-.24-.83-.44-1.23-.22-.42-.5-.78-.8-1.15-.18-.23-.28-.5-.49-.7-1.34-1.28-2.68-3.07-1.4-8.07.83-3.24,3.67-6.11,6.89-6.97,1.71-.46,3.8-.54,6.81-.25,5.43.52,9.32,1.82,11.87,3.98,3.95,3.34,5.1,9.97,2.56,14.77Z"/>
</svg>