<?xml version="1.0" encoding="UTF-8"?>
<svg id="Layer_1" data-name="Layer 1" xmlns="http://www.w3.org/2000/svg" viewBox="0 0 470.43 445.99">
  <defs>
    <style>
      .cls-1 {
        fill: #000;
        stroke-width: 0px;
      }
    </style>
  </defs>
  <path class="cls-1" d="M469.55,200.91c-5.14-59.53-33.07-112.41-78.66-148.88C338.49,10.1,268.2-7.37,192.99,2.85c-57.28,7.78-111.56,42.54-148.94,95.37C6.68,151.05-7.88,214.46,4.1,272.2c5.26,25.36,15.02,49.15,29.01,70.73,47.78,73.69,122.54,103.06,194.39,103.06,30.14,0,59.78-5.17,86.68-14.41,103.42-35.51,164.41-126.05,155.37-230.67ZM309.78,418.78c-86.08,29.56-201.46,15.26-265.32-83.21-13.07-20.15-22.19-42.4-27.12-66.11-11.22-54.08,2.54-113.64,37.75-163.41C90.31,56.26,141.24,23.53,194.81,16.26c13.42-1.82,26.66-2.73,39.65-2.73,56.26,0,107.78,16.89,147.97,49.05,42.66,34.14,68.81,83.68,73.63,139.48,10.3,119.21-68.81,190.1-146.28,216.7Z"/>
  <path class="cls-1" d="M394.92,234.26c-1.23-.16-2.4.13-3.5.6-1.09-.47-2.26-.76-3.51-.6-149.97,20.15-204.06,7.21-302.72-21.55-.31-.09-.61-.03-.92-.07-.33-.05-.62-.2-.97-.2h0c-.15,0-.28.08-.42.09-.43.03-.81.14-1.22.25-.46.12-.9.22-1.31.42-.36.17-.65.42-.97.66-.37.27-.74.53-1.05.87-.27.3-.46.66-.68,1.01-.25.4-.49.78-.65,1.24-.05.13-.15.22-.19.35-.09.32-.04.64-.08.96-.05.32-.19.6-.19.93,0,6.02,0,12.04.42,18.04,2.93,41.24,26.36,80.63,62.66,105.37,27.29,18.61,61.46,28.59,96.47,28.59,8.13,0,16.32-.54,24.47-1.64,12.4-1.66,24.43-4.79,35.96-9.02.22-.06.42-.13.63-.22,54.12-20.13,96.17-66.41,103.53-118.42.52-3.7-2.05-7.13-5.75-7.65ZM157.22,336.09c-6.54-29.54-7.11-60.81-1.78-90.61,19.94,4.47,39.52,7.85,60.48,9.88-2.87,34-1.13,68.16,5.17,101.66-22.84-2.01-44.79-8.66-63.84-19.41,0-.51.09-1-.03-1.52ZM90.46,236.27c-.19-2.68-.28-5.36-.33-8.04,18.51,5.35,35.58,10.11,52.11,14.16-5.08,27.9-5.24,57.05-.47,85.09-29.77-22.54-48.81-56.17-51.31-91.21ZM258.75,356.15c-7.93,1.07-15.89,1.55-23.8,1.5-6.56-33.32-8.4-67.35-5.53-101.21,11.08.75,22.6,1.16,34.84,1.16,10.8,0,22.22-.34,34.26-.97,1.9,14.03,2.26,28.26.95,42.35-1.38,14.95-4.73,30.92-10.3,49.81-9.8,3.39-19.96,5.96-30.42,7.36ZM305.03,342.46c4.12-15.46,6.71-29.16,7.92-42.22,1.37-14.77,1.01-29.69-.91-44.42,21.94-1.51,46.2-4.01,73.65-7.63-8.83,39.84-39.96,75.16-80.66,94.27Z"/>
  <path class="cls-1" d="M84.96,164.35c3.51,1.24,7.39-.63,8.61-4.16.84-2.4,2.85-4.87,6.33-7.78,14.33-11.96,34.56-16.99,52.85-13.12,18.27,3.88,34.73,16.7,42.96,33.46,1.18,2.4,3.58,3.78,6.08,3.78,1,0,2.02-.23,2.98-.69,3.35-1.65,4.74-5.71,3.09-9.06-10.18-20.71-29.73-35.93-52.3-40.73-22.23-4.72-46.9,1.4-64.34,15.97-3.42,2.86-8.22,7.4-10.42,13.72-1.23,3.52.63,7.38,4.16,8.61Z"/>
  <path class="cls-1" d="M267.79,175.84c.96.47,1.98.69,2.98.69,2.5,0,4.9-1.39,6.08-3.78,8.23-16.76,24.7-29.58,42.96-33.46,18.24-3.87,38.51,1.15,52.85,13.12,3.47,2.91,5.48,5.38,6.32,7.78,1.23,3.53,5.09,5.37,8.61,4.17,3.53-1.23,5.4-5.08,4.17-8.61-2.2-6.32-7-10.86-10.43-13.72-17.71-14.79-41.76-20.78-64.34-15.97-22.57,4.8-42.13,20.02-52.3,40.73-1.65,3.35-.26,7.41,3.09,9.06Z"/>
</svg>