<?xml version="1.0" encoding="UTF-8"?>
<svg id="Layer_1" data-name="Layer 1" xmlns="http://www.w3.org/2000/svg" viewBox="0 0 469.7 439.49">
  <defs>
    <style>
      .cls-1 {
        fill: #000;
        stroke-width: 0px;
      }
    </style>
  </defs>
  <path class="cls-1" d="M465.19,173.88C436.75,40.09,293.16-17.3,170.64,4.51,117.43,14,68.32,50.11,35.91,103.58.55,161.91-9.42,232.15,9.23,291.47c7.76,24.71,19.86,47.41,35.93,67.48,46.09,57.55,109.25,80.55,171.46,80.54,40.85,0,81.3-9.91,116.26-26.48,101.09-47.89,153.04-141.76,132.32-239.13ZM327.08,400.78c-83.36,39.52-199.62,39.27-271.36-50.29-15.02-18.75-26.32-39.97-33.59-63.08-17.5-55.66-8.02-121.76,25.34-176.81C77.88,60.45,123.64,26.64,173.02,17.84c16.17-2.89,32.72-4.32,49.32-4.32,102.56,0,206.59,54.91,229.61,163.17,23.53,110.59-52.57,189.83-124.87,224.08Z"/>
  <path class="cls-1" d="M127.81,183.34c18.69,0,40.92-3.05,64.09-12.85,3.44-1.46,5.04-5.43,3.59-8.87-1.46-3.45-5.42-5.06-8.88-3.6-54.74,23.18-105.23,4.65-105.74,4.48-3.47-1.32-7.39.45-8.71,3.94-1.32,3.49.43,7.39,3.92,8.72.61.23,4.96,1.84,12.15,3.57-3.1,7.87-9.65,15.92-16.03,23.73-3.34,4.08-6.6,8.08-9.36,12-7.34,10.39-16.21,25.86-8.65,40.16,5.63,10.64,13.1,13.61,18.36,14.22.8.09,1.61.14,2.41.14,7.31,0,14.8-3.82,20.88-10.73h0c5.5-6.27,8.99-14.25,9.59-21.9.7-9.1-.74-18.12-2.14-26.84-1.58-9.91-3.04-19.3-1.39-28.13,7.44,1.13,16.17,1.96,25.9,1.96ZM91.94,235.3c-.36,4.72-2.71,9.96-6.27,14.01-3.65,4.17-8.22,6.55-11.53,6.08-2.98-.35-5.67-2.74-7.98-7.11-3.06-5.79-.53-14.31,7.74-26.04,2.59-3.67,5.65-7.41,8.78-11.23,2.03-2.47,4.06-4.97,6.02-7.5.37,2.73.82,5.44,1.24,8.13,1.32,8.3,2.58,16.15,1.99,23.65Z"/>
  <path class="cls-1" d="M388.47,160.75c-1.22-3.52-5.12-5.4-8.59-4.2-.54.18-52.59,17.56-111.11,1.36-3.63-1.02-7.34,1.12-8.33,4.71-1,3.6,1.11,7.33,4.71,8.33,20.12,5.57,39.36,7.48,56.29,7.48,35.81,0,61.28-8.56,62.82-9.09,3.54-1.22,5.41-5.06,4.2-8.6Z"/>
  <path class="cls-1" d="M408.73,234.68c-7.08-8.67-14.42-17.64-16.96-26.33-1.05-3.52-4.65-5.57-8.24-4.64-3.55.94-5.69,4.54-4.85,8.11,2.22,9.34.63,19.32-1.06,29.9-1.4,8.73-2.84,17.77-2.13,26.88.61,7.83,3.77,16.15,8.45,22.26h0c5.5,7.16,12.8,11.05,20.68,11.05.4,0,.8-.01,1.21-.03,12.42-.63,18.01-6.89,20.51-12.03,6.6-13.57-1.56-33.69-8.26-43.17-2.76-3.92-6.02-7.92-9.36-12ZM414.18,283.94c-.85,1.75-2.71,4.11-9.02,4.43-3.98.12-7.41-1.74-10.46-5.74-3.12-4.06-5.3-9.84-5.69-15.08-.59-7.52.66-15.38,1.98-23.7.43-2.68.87-5.39,1.23-8.11,1.97,2.53,4.01,5.02,6.04,7.49,3.13,3.82,6.19,7.57,8.78,11.24,6,8.5,10.33,22.9,7.15,29.46Z"/>
  <path class="cls-1" d="M291.73,290.41c-44.52,2.48-100.5-.7-101.05-.73-3.59-.16-6.93,2.63-7.15,6.37-.22,3.73,2.63,6.93,6.36,7.15.41.02,29.87,1.7,63.2,1.7,13.04,0,26.68-.25,39.4-.97,3.73-.21,6.59-3.4,6.38-7.14-.21-3.73-3.71-6.52-7.13-6.38Z"/>
</svg>