<?xml version="1.0" encoding="UTF-8"?>
<svg id="Layer_1" data-name="Layer 1" xmlns="http://www.w3.org/2000/svg" viewBox="0 0 470.79 439.51">
  <defs>
    <style>
      .cls-1 {
        fill: #000;
        stroke-width: 0px;
      }
    </style>
  </defs>
  <path class="cls-1" d="M469.55,198.78C454.6,62.8,317.28-8.63,193.39.83c-53.9,4.12-106.38,35.14-143.97,85.1C8.41,140.44-8.52,209.33,4.1,270.22c5.26,25.36,15.02,49.16,29.02,70.74,45.7,70.48,117.91,98.56,188.46,98.56,32.03,0,63.71-5.79,92.42-16.02,105.37-37.55,166.43-125.75,155.56-224.71ZM309.44,410.74c-86.91,30.99-202.55,19.13-264.97-77.16h-.01c-13.07-20.16-22.19-42.4-27.1-66.12-11.86-57.13,4.17-121.95,42.88-173.39C95.49,47.22,144.4,18.15,194.42,14.32c6.99-.53,14.01-.8,21.06-.8,111.57,0,227.39,66.5,240.61,186.73,12.36,112.39-71.28,183.63-146.65,210.49Z"/>
  <path class="cls-1" d="M232.84,323.85c-8.01,3.35-16.3,6.81-24.57,7.05-6.43.11-14.57-2.32-17.83-8.36-3.04-5.61-1.21-13.06,1.95-17.95,4.31-6.66,11.53-11.33,17.36-14.66,2.8-1.6,4.08-4.95,3.06-8.01-1.01-3.06-4.11-4.93-7.25-4.58-4.19.53-8.57-1.55-11.83-5.51-3.66-4.41-5.01-9.98-3.55-14.55,1.4-4.35,5.02-8.06,9.95-10.18,5.51-2.35,11.63-2.38,16.41-.07,3.35,1.61,7.41.22,9.03-3.16,1.63-3.36.21-7.41-3.15-9.03-8.25-3.98-18.59-4.05-27.63-.17-8.52,3.66-14.9,10.4-17.49,18.48-2.86,8.92-.56,19.39,6,27.31,2.1,2.54,4.5,4.65,7.1,6.31-3.46,2.92-6.73,6.37-9.38,10.48-6.5,10.06-7.47,22.51-2.48,31.74,5.12,9.47,16.41,15.46,28.98,15.46.37,0,.76,0,1.13-.02,10.78-.3,20.68-4.44,29.41-8.08,3.45-1.44,5.08-5.41,3.63-8.85-1.45-3.45-5.44-5.06-8.86-3.63Z"/>
  <path class="cls-1" d="M176.84,194.34c1.33,1.8,3.38,2.75,5.45,2.75,1.4,0,2.81-.43,4.01-1.32,3.02-2.21,3.66-6.45,1.44-9.46l-8.11-11.02c5.05-4.57,9.78-10.5,14.13-17.89,1.89-3.22.82-7.37-2.4-9.26-3.25-1.89-7.37-.8-9.27,2.4-8.36,14.22-17.72,21.7-27.82,22.24-18.92.87-37.15-22.61-37.33-22.84-2.24-3-6.45-3.63-9.46-1.41-3.01,2.22-3.65,6.45-1.42,9.46.23.31,1.87,2.48,4.57,5.46l-22.32,10.49c-3.39,1.59-4.83,5.62-3.25,9,1.16,2.45,3.59,3.89,6.12,3.89.97,0,1.95-.21,2.87-.64l25.01-11.76c.7-.33,1.25-.81,1.78-1.32,2.77,2.24,5.87,4.44,9.22,6.39.4,5.05.02,10.1-1.23,15.03-.91,3.62,1.29,7.3,4.91,8.22.55.14,1.11.21,1.65.21,3.03,0,5.78-2.04,6.56-5.11,1.05-4.17,1.59-8.4,1.73-12.66,3.01.74,6.14,1.16,9.35,1.16.62,0,1.26-.02,1.88-.05,4.68-.24,9.15-1.47,13.45-3.46l8.45,11.5Z"/>
  <path class="cls-1" d="M345.65,178.07l-8.21-7.49c7.03-6.23,11.41-12.06,11.8-12.6,2.22-3,1.59-7.23-1.42-9.45-3-2.22-7.22-1.59-9.46,1.41-.18.24-17.39,24.03-37.33,22.84-10.1-.54-19.46-8.02-27.82-22.24-1.89-3.2-6.02-4.3-9.27-2.4-3.22,1.89-4.3,6.04-2.4,9.26,2.87,4.88,5.91,9.1,9.09,12.75-3.58,3.07-6.85,6.48-9.7,10.28-2.24,3-1.63,7.24,1.37,9.48,1.21.91,2.63,1.35,4.05,1.35,2.05,0,4.09-.94,5.42-2.71,2.6-3.47,5.74-6.44,9.11-9.15,4.4,3.02,9,5.12,13.84,6.15.24,6.4,1.49,12.84,3.8,18.79,1.04,2.69,3.6,4.33,6.31,4.33.82,0,1.64-.15,2.45-.46,3.48-1.35,5.21-5.26,3.87-8.75-1.68-4.33-2.63-8.99-2.89-13.65,6.59-1.05,12.71-3.7,18.12-7l10.16,9.26c1.3,1.18,2.93,1.77,4.56,1.77,1.84,0,3.67-.74,5-2.21,2.52-2.76,2.32-7.04-.44-9.56Z"/>
  <path class="cls-1" d="M104.5,228.31c-1.72-3.3-5.78-4.61-9.13-2.86-17.16,8.98-30.85,23.71-38.55,41.49-1.49,3.43.1,7.41,3.52,8.9.87.38,1.78.56,2.69.56,2.61,0,5.1-1.53,6.21-4.08,6.38-14.73,18.18-27.44,32.4-34.87,3.3-1.73,4.59-5.82,2.85-9.14Z"/>
  <path class="cls-1" d="M117.15,247.31l-23.15,23.92c-2.6,2.69-2.53,6.97.15,9.57,1.31,1.27,3.01,1.91,4.7,1.91s3.54-.69,4.86-2.06l23.15-23.92c2.6-2.69,2.53-6.97-.15-9.57-2.69-2.6-6.98-2.53-9.56.15Z"/>
  <path class="cls-1" d="M316.74,221.61c-7.59,10.25-13.22,22.23-16.27,34.63-.89,3.63,1.33,7.3,4.96,8.19.55.13,1.09.2,1.62.2,3.05,0,5.82-2.06,6.58-5.15,2.62-10.67,7.47-20.98,14-29.81,2.22-3,1.59-7.24-1.41-9.47-3-2.2-7.24-1.59-9.47,1.42Z"/>
  <path class="cls-1" d="M357.16,230.58c-3.73.17-6.62,3.34-6.45,7.07.25,5.39-1.23,10.24-5.1,16.75-1.92,3.21-.86,7.36,2.36,9.27,1.08.64,2.28.95,3.45.95,2.31,0,4.56-1.18,5.83-3.31,3.5-5.89,7.47-13.97,6.99-24.28-.18-3.73-2.98-6.31-7.07-6.45Z"/>
</svg>