<?xml version="1.0" encoding="UTF-8"?>
<svg id="Layer_1" data-name="Layer 1" xmlns="http://www.w3.org/2000/svg" viewBox="0 0 470.44 445.99">
  <defs>
    <style>
      .cls-1 {
        fill: #000;
        stroke-width: 0px;
      }
    </style>
  </defs>
  <path class="cls-1" d="M469.56,200.91c-5.14-59.53-33.07-112.41-78.66-148.88C338.5,10.1,268.2-7.37,192.99,2.85c-57.28,7.78-111.57,42.54-148.95,95.38C6.68,151.05-7.88,214.46,4.1,272.2c5.26,25.35,15.02,49.15,29.01,70.73,47.79,73.69,122.55,103.06,194.39,103.06,30.14,0,59.78-5.17,86.69-14.41,103.42-35.51,164.41-126.05,155.37-230.67ZM309.79,418.78c-86.05,29.55-201.47,15.28-265.32-83.21-13.08-20.17-22.2-42.41-27.12-66.12-11.22-54.08,2.53-113.63,37.73-163.4C90.31,56.26,141.24,23.53,194.82,16.26c71.49-9.71,138.14,6.74,187.62,46.33,42.67,34.14,68.81,83.68,73.64,139.48,10.3,119.21-68.81,190.1-146.28,216.7Z"/>
  <path class="cls-1" d="M377.14,258.8c-3.22-1.91-7.37-.83-9.27,2.38-5.88,9.96-24.89,15.52-39.73,11.71-4.57-1.17-8.81-3.08-13.29-5.1-3.69-1.66-7.39-3.32-11.32-4.64-18.9-6.35-42.74-4.47-60.76,4.8-3.02,1.55-5.88,3.29-8.72,5.04-4.72,2.9-9.2,5.63-14.34,7.26-18.65,5.93-40.79-3.39-58.6-10.88-7.51-3.16-15.61-6.34-24.69-7.5-16.33-2.05-33.82,3.27-43.53,13.28-2.6,2.68-2.52,6.97.17,9.57,2.67,2.6,6.96,2.53,9.57-.16,6.77-6.99,20.01-10.75,32.08-9.26,7.39.94,14.23,3.63,21.16,6.55,14.36,6.04,32.79,13.78,51.13,13.78,5.65,0,11.3-.74,16.82-2.49,6.71-2.13,12.1-5.43,17.31-8.62,2.56-1.57,5.12-3.14,7.84-4.54,14.71-7.57,34.92-9.19,50.26-4,3.51,1.18,6.8,2.67,10.08,4.15,4.81,2.16,9.79,4.41,15.5,5.86,20.74,5.35,45.84-2.89,54.74-17.93,1.91-3.22.84-7.37-2.38-9.27Z"/>
  <path class="cls-1" d="M154.22,226.82c19.46-9.41,32.42-34.71,33.03-64.47.62-29.72-28.7-45.99-58.17-49-5.02-.91-10.39-1.22-15.99-.82-8.68.58-15.42,2.52-21.2,6.1-20.35,12.57-25.81,43.6-22.18,68.76.8,5.56,2.19,12.73,5.83,18.84,3.85,6.48,9.58,10.58,14.14,13.44,13.32,8.33,27.19,12.57,40.31,12.57,8.54,0,16.74-1.8,24.24-5.42ZM83.89,182.82s-.91-5.45-.91-5.45c-2.98-20.76,1.63-38.33,16.02-47.22,3.84-2.37,8.6-3.68,14.99-4.11,1.2-.08,2.46-.13,3.78-.13,8.47,0,19.01,1.96,27.17,9.82,7.74,7.47,13.21,22.58,8.94,34.96-1.37,3.96-3.74,7.82-7.09,11.46-12.86,13.97-32.67,16.03-47.05,4.91-.84-.66-1.83-1.49-2.09-2.21-.32-.87-.24-2.72-.18-4.2.17-3.78.39-7.59.88-11.12.51,1.62,1.62,3.06,3.23,3.93,6.66,3.62,15.73,8.55,25.62,6.12,5.46-1.35,10.49-5.57,13.45-11.29,2.91-5.63,3.38-11.95,1.28-17.34-3.44-8.78-11.59-12.97-24.34-12.41-5.93.25-16.97.71-24.49,9.06-7.5,8.31-8.62,20.59-9.14,32.46-.04.82-.06,1.77-.05,2.75ZM99.76,163.02c.79-2.51,1.87-4.69,3.37-6.35,3.12-3.46,7.86-4.31,15.02-4.6,9.53-.4,10.67,2.55,11.17,3.81.68,1.76.43,4.01-.71,6.2-1.31,2.54-3.3,4.03-4.68,4.37-4.33,1.09-9.79-1.55-15.88-4.87-1.04-.56-2.14-.83-3.23-.83-1.92,0-3.77.81-5.07,2.27ZM89.6,199.04c-.95-1.59-1.92-3.77-2.81-6.08,1.42,2.04,3.13,3.61,4.65,4.79,19.79,15.29,47.87,12.53,65.31-6.44,4.63-5.03,7.96-10.49,9.93-16.22,3.59-10.44,2.71-22.75-1.8-33.46,5.45,5.17,9.02,11.88,8.84,20.45-.5,24.33-10.71,45.46-25.39,52.56-14.78,7.13-33.56,4.79-51.49-6.44-3.47-2.17-4.9-5.21-7.26-9.16Z"/>
  <path class="cls-1" d="M346.89,113.36c-5.02-.91-10.39-1.22-15.99-.82-8.68.58-15.42,2.52-21.2,6.1-20.35,12.57-25.81,43.6-22.18,68.76.8,5.56,2.19,12.73,5.83,18.84,3.85,6.48,9.58,10.58,14.14,13.44,13.32,8.33,27.19,12.57,40.31,12.57,8.54,0,16.74-1.8,24.24-5.42,19.46-9.41,32.42-34.71,33.03-64.47.62-29.72-28.7-45.99-58.17-49ZM301.71,182.82s-.91-5.45-.91-5.45c-2.98-20.76,1.63-38.33,16.02-47.22,3.84-2.37,8.6-3.68,14.99-4.11,1.2-.08,2.46-.13,3.78-.13,8.47,0,19.01,1.96,27.17,9.82,7.74,7.47,13.21,22.58,8.94,34.96-1.37,3.96-3.74,7.82-7.09,11.46-12.86,13.97-32.67,16.03-47.05,4.91-.84-.66-1.83-1.49-2.09-2.21-.32-.87-.24-2.72-.18-4.2.17-3.78.39-7.59.88-11.12.51,1.62,1.62,3.06,3.23,3.93,6.66,3.62,15.73,8.55,25.62,6.12,5.46-1.35,10.49-5.57,13.45-11.29,2.91-5.63,3.38-11.95,1.28-17.34-3.44-8.78-11.59-12.97-24.34-12.41-5.93.25-16.97.71-24.49,9.06-7.5,8.31-8.62,20.59-9.14,32.46-.04.82-.06,1.77-.05,2.75ZM317.58,163.02c.79-2.51,1.87-4.69,3.37-6.35,3.12-3.46,7.86-4.31,15.02-4.6,9.53-.4,10.67,2.55,11.17,3.81.68,1.76.43,4.01-.71,6.2-1.31,2.54-3.3,4.03-4.68,4.37-4.33,1.09-9.79-1.55-15.88-4.87-1.04-.56-2.14-.83-3.23-.83-1.92,0-3.77.81-5.07,2.27ZM366.16,214.64c-14.78,7.13-33.56,4.79-51.49-6.44-3.47-2.17-4.9-5.21-7.26-9.16-.95-1.59-1.92-3.77-2.81-6.08,1.42,2.04,3.13,3.61,4.65,4.79,19.79,15.29,47.87,12.53,65.31-6.44,4.63-5.03,7.96-10.49,9.93-16.22,3.59-10.44,2.71-22.75-1.8-33.46,5.45,5.17,9.02,11.88,8.84,20.45-.5,24.33-10.71,45.46-25.39,52.56Z"/>
</svg>