<?xml version="1.0" encoding="UTF-8"?>
<svg id="Layer_1" data-name="Layer 1" xmlns="http://www.w3.org/2000/svg" viewBox="0 0 470.63 445.62">
  <defs>
    <style>
      .cls-1 {
        fill: #000;
        stroke-width: 0px;
      }
    </style>
  </defs>
  <path class="cls-1" d="M465.21,173.95C437.6,39.97,293.76-17.36,170.65,4.55,117.43,14.04,68.31,50.14,35.91,103.62.55,161.95-9.42,232.18,9.23,291.51c7.76,24.7,19.86,47.41,35.93,67.47,49.8,62.17,118.42,86.65,183.97,86.64,40.33,0,79.52-9.27,112.42-24.73,76.93-36.15,149.82-120.01,123.66-246.94ZM335.79,408.65c-81.7,38.39-204.22,36.58-280.06-58.12-15.02-18.75-26.32-39.97-33.59-63.08-17.5-55.66-8.03-121.76,25.33-176.81C77.87,60.49,123.63,26.68,173.03,17.88c16.33-2.91,33.04-4.37,49.78-4.37,102.91,0,206.84,54.89,229.14,163.17,24.57,119.24-43.89,198-116.16,231.96Z"/>
  <path class="cls-1" d="M368.39,243.19c-3.5-1.22-7.37.68-8.59,4.22-15.09,44.28-75.19,60.74-122.08,61.38-51.57.56-111.5-17.38-127.12-59.4-1.3-3.5-5.21-5.27-8.7-3.99-3.5,1.31-5.29,5.2-3.99,8.7,10.73,28.85,38.45,47.82,71.12,58.29.07,25.32,1.04,69.73,35.94,86.48,8.52,4.09,17.23,6.07,25.56,6.07,15.83,0,30.31-7.16,39.68-20.65,12.42-17.88,14.6-42.97,16.37-63.13l.44-4.97c37.85-9.08,73.51-28.98,85.59-64.43,1.2-3.54-.69-7.38-4.23-8.59ZM273.11,320.01c-1.71,19.53-3.63,41.66-14.01,56.58-11.96,17.22-32.86,17.48-48.26,10.09-23.26-11.16-27.72-39.95-28.23-70.44,12.49,3.01,25.43,4.84,38.23,5.63-1.68,8.37-1.82,17.05-.23,25.44.62,3.24,3.46,5.5,6.64,5.5.42,0,.85-.04,1.28-.12,3.67-.7,6.08-4.24,5.39-7.91-1.41-7.4-1.11-15.09.69-22.42.08,0,.16,0,.23,0,1.02,0,2.06,0,3.07-.02,11.27-.15,23.26-1.25,35.29-3.31l-.09.99Z"/>
  <path class="cls-1" d="M275.61,163.44l52.74,23.41c.89.4,1.82.58,2.74.58,2.59,0,5.07-1.5,6.19-4.03,1.51-3.41-.03-7.41-3.45-8.93l-52.74-23.41c-2.51-1.12-3.46-1.77-3.5-1.66,0-.02.3-1.5,4.02-4.42,14.57-11.43,29.94-22.17,45.66-31.92,3.17-1.97,4.15-6.14,2.18-9.32-1.96-3.17-6.12-4.16-9.32-2.18-16.15,10.02-31.92,21.04-46.87,32.77-9.76,7.65-10.03,14.59-8.55,19.05,2.03,6.11,7.79,8.67,10.89,10.04Z"/>
  <path class="cls-1" d="M124.95,187.44c.93,0,1.85-.19,2.74-.58l52.74-23.41c3.11-1.38,8.87-3.94,10.89-10.04,1.49-4.48,1.22-11.43-8.55-19.06-14.96-11.73-30.73-22.75-46.87-32.77-3.19-1.98-7.36-.99-9.32,2.18-1.97,3.18-.99,7.35,2.18,9.32,15.73,9.76,31.09,20.5,45.67,31.93,3.27,2.56,3.89,4.02,4.05,4.06-.28.33-1.12.93-3.55,2.01l-52.74,23.41c-3.41,1.51-4.96,5.51-3.45,8.93,1.12,2.53,3.6,4.03,6.19,4.03Z"/>
</svg>