<?xml version="1.0" encoding="UTF-8"?>
<svg id="Layer_1" data-name="Layer 1" xmlns="http://www.w3.org/2000/svg" viewBox="0 0 470.43 445.99">
  <defs>
    <style>
      .cls-1 {
        fill: #000;
        stroke-width: 0px;
      }
    </style>
  </defs>
  <path class="cls-1" d="M469.55,200.92c-5.14-59.53-33.07-112.41-78.66-148.88C338.49,10.11,268.21-7.38,192.99,2.86c-57.28,7.78-111.57,42.54-148.95,95.38C6.68,151.05-7.88,214.46,4.1,272.21c5.25,25.35,15.01,49.14,29,70.72h0c47.79,73.7,122.54,103.07,194.39,103.07,30.14,0,59.78-5.17,86.68-14.41,103.42-35.51,164.41-126.05,155.37-230.67ZM309.78,418.78c-86.06,29.54-201.46,15.27-265.33-83.22h0c-13.07-20.16-22.19-42.41-27.11-66.11-11.22-54.08,2.54-113.64,37.74-163.4C90.31,56.27,141.23,23.54,194.81,16.27c71.54-9.72,138.15,6.74,187.63,46.33,42.66,34.14,68.81,83.68,73.63,139.48,10.3,119.21-68.81,190.1-146.28,216.7Z"/>
  <path class="cls-1" d="M374.36,180.03c-15.54-1.43-27.8-1.88-39.67-2.31-6.38-.23-12.93-.48-19.98-.87,6.81-2.18,13.77-4.61,20.61-7.03,11.36-4.02,23.1-8.18,33.42-10.73,3.63-.9,5.84-4.57,4.95-8.19-.9-3.63-4.57-5.82-8.19-4.95-10.96,2.71-23.02,6.98-34.69,11.11-9.55,3.38-19.32,6.8-28.35,9.34l41.53-47.63c2.46-2.82,2.16-7.09-.65-9.55-2.82-2.46-7.09-2.16-9.55.65l-47.2,54.14c-6.41,7.35-7.53,14.92-2.97,20.26,3.39,3.97,8.29,4.42,10.93,4.67,15.54,1.43,27.8,1.88,39.67,2.3,11.68.42,23.75.86,38.91,2.26.21.02.42.03.63.03,3.46,0,6.41-2.64,6.73-6.15.34-3.72-2.4-7.02-6.12-7.36Z"/>
  <path class="cls-1" d="M176.71,188.95c2.63-.25,7.54-.7,10.93-4.67,4.55-5.34,3.44-12.91-2.97-20.25l-47.2-54.15c-2.45-2.81-6.72-3.11-9.55-.65-2.81,2.46-3.11,6.73-.65,9.55l41.52,47.63c-9.02-2.54-18.79-5.96-28.34-9.34-11.66-4.13-23.73-8.4-34.69-11.11-3.63-.88-7.29,1.32-8.19,4.95-.9,3.63,1.32,7.3,4.95,8.19,10.32,2.56,22.07,6.71,33.43,10.73,6.84,2.42,13.8,4.85,20.61,7.03-7.05.39-13.61.65-19.99.88-11.86.42-24.13.87-39.67,2.3-3.72.35-6.46,3.64-6.12,7.36.32,3.51,3.28,6.15,6.73,6.15.2,0,.42-.01.63-.03,15.16-1.4,27.24-1.84,38.91-2.26,11.86-.42,24.13-.87,39.67-2.3Z"/>
  <path class="cls-1" d="M357.43,260.69c-.1-.49-.28-.92-.48-1.37-.16-.35-.29-.71-.5-1.03-.28-.42-.62-.75-.98-1.1-.26-.25-.5-.51-.8-.72-.39-.27-.83-.45-1.28-.63-.38-.16-.75-.32-1.16-.41-.15-.03-.27-.13-.43-.15-.33-.05-.62.06-.94.06-.3,0-.59-.1-.89-.06-113.04,15.14-153.82,5.42-228.19-16.19-3.33-.96-6.72.81-8.03,3.93-.03.07-.08.13-.1.2-.07.17-.2.3-.25.48-.13.44-.07.88-.11,1.32-.03.27-.16.52-.16.8,0,4.49,0,8.99.32,13.48,2.22,31.57,19.91,61.71,47.3,80.64,20.58,14.22,46.36,21.86,72.76,21.86,6.12,0,12.29-.41,18.42-1.24,53.47-7.28,98.89-49.25,105.65-97.63.04-.32-.06-.61-.06-.92,0-.31.1-.6.06-.92-.02-.15-.11-.26-.14-.4ZM250.08,347.14c-29.24,4-59.04-2.69-81.65-18.33-23.7-16.37-39.59-43.37-41.5-70.45-.09-1.23-.11-2.48-.15-3.72,46.24,13.28,80.59,21.57,129.85,21.57,23.98,0,51.59-1.99,85.73-6.3-9.9,38.77-47.94,71.2-92.29,77.24Z"/>
</svg>