<?xml version="1.0" encoding="UTF-8"?>
<svg id="Layer_1" data-name="Layer 1" xmlns="http://www.w3.org/2000/svg" viewBox="0 0 469.7 439.48">
  <defs>
    <style>
      .cls-1 {
        fill: #000;
        stroke-width: 0px;
      }
    </style>
  </defs>
  <path class="cls-1" d="M465.2,173.87C436.74,40.08,293.1-17.3,170.65,4.51,117.43,14,68.32,50.1,35.92,103.57.56,161.9-9.42,232.14,9.23,291.47c7.77,24.7,19.86,47.41,35.93,67.47,46.09,57.55,109.24,80.55,171.46,80.54,40.86,0,81.31-9.91,116.27-26.48,101.09-47.89,153.03-141.76,132.32-239.13ZM327.09,400.78c-83.39,39.51-199.62,39.27-271.37-50.29-15.02-18.75-26.32-39.97-33.59-63.08-17.5-55.67-8.02-121.77,25.35-176.82C77.88,60.44,123.63,26.64,173.02,17.84c16.17-2.89,32.73-4.32,49.33-4.32,102.56,0,206.58,54.91,229.61,163.17,23.52,110.59-52.57,189.83-124.87,224.08Z"/>
  <path class="cls-1" d="M357.41,235.36c-3.51-.41-6.84,2.85-6.93,6.6-.77,31.67-15.76,63.54-41.13,87.44-25.38,23.9-58.18,36.86-89.73,35.84-31.66-1.12-63.36-16.47-86.98-42.11-23.61-25.63-36.31-58.48-34.83-90.13.18-3.73-2.71-6.9-6.44-7.07-3.76-.27-6.9,2.7-7.07,6.44-1.65,35.23,12.35,71.65,38.39,99.93,26.05,28.28,61.2,45.21,96.45,46.46,1.41.05,2.82.08,4.23.08,33.91,0,68.4-14.29,95.26-39.59,27.98-26.36,44.52-61.7,45.37-96.96.09-3.74-2.86-6.84-6.6-6.93Z"/>
  <path class="cls-1" d="M171.6,193.12c.31,0,.62-.02.94-.07,3.7-.51,6.29-3.93,5.78-7.63-2.67-19.32-.58-39.24,6.04-57.58,1.27-3.51-.56-7.4-4.07-8.66-3.52-1.28-7.39.55-8.66,4.07-7.36,20.4-9.68,42.54-6.71,64.02.47,3.39,3.36,5.84,6.69,5.84Z"/>
  <path class="cls-1" d="M269.08,183.71c-.63,3.68,1.85,7.18,5.53,7.8.39.07.77.1,1.14.1,3.24,0,6.11-2.33,6.66-5.63,2.99-17.58,2.57-36.09-1.22-53.52-.79-3.64-4.35-5.94-8.05-5.18-3.65.79-5.97,4.4-5.18,8.05,3.43,15.75,3.81,32.48,1.11,48.37Z"/>
</svg>