<?xml version="1.0" encoding="UTF-8"?>
<svg id="Layer_1" data-name="Layer 1" xmlns="http://www.w3.org/2000/svg" viewBox="0 0 470.43 445.99">
  <defs>
    <style>
      .cls-1 {
        fill: #000;
        stroke-width: 0px;
      }
    </style>
  </defs>
  <path class="cls-1" d="M469.55,200.92c-5.14-59.53-33.07-112.41-78.66-148.88C338.48,10.11,268.21-7.38,192.98,2.86c-57.27,7.78-111.56,42.54-148.94,95.38C6.68,151.06-7.88,214.46,4.1,272.2c5.26,25.36,15.02,49.16,29.02,70.74,47.78,73.68,122.54,103.06,194.38,103.06,30.13,0,59.78-5.17,86.68-14.41,103.43-35.51,164.41-126.05,155.37-230.67ZM309.78,418.78c-86.06,29.58-201.46,15.27-265.31-83.21h-.01c-13.07-20.16-22.19-42.4-27.1-66.12-11.22-54.08,2.53-113.64,37.73-163.4C90.31,56.27,141.23,23.54,194.81,16.27c13.41-1.82,26.65-2.73,39.65-2.73,56.26,0,107.78,16.9,147.97,49.05,42.67,34.14,68.81,83.68,73.64,139.48,10.3,119.21-68.81,190.1-146.28,216.7Z"/>
  <path class="cls-1" d="M351.8,255.29c-3.63-.5-7.13,2.06-7.63,5.77-2.2,15.75-9.14,30.72-19.39,43.68-4.09-14.16-13.02-25.9-24.69-31.69-17.3-8.57-39.08-2.59-47.61,13.03-10.02,18.41,1.32,40.63,6.77,51.31l3.65,7.16c-4.2,1.08-8.46,2.01-12.81,2.6-29.31,4-59.03-2.7-81.66-18.33-23.69-16.37-39.59-43.37-41.5-70.45-.29-4.1-.29-8.21-.29-12.31v-.44c0-3.74-3.03-6.55-6.76-6.55s-6.76,3.25-6.76,6.99c0,4.42,0,8.85.31,13.26,2.22,31.57,19.91,61.71,47.31,80.64,20.58,14.23,46.35,21.86,72.73,21.86,6.13,0,12.29-.41,18.44-1.24,53.47-7.27,98.89-49.24,105.64-97.63.52-3.7-2.06-7.12-5.76-7.64ZM275.14,338.77l-3.85-7.54c-7.04-13.78-12.74-28.01-6.94-38.67,5.44-9.97,20.19-12.12,29.72-7.38,10.12,5.02,17.5,16.69,19.27,30.45.05.4.26.72.37,1.09-10.78,10.1-23.77,18.34-38.07,23.84-.12-.6-.21-1.21-.5-1.78Z"/>
  <path class="cls-1" d="M374.38,180.03c-15.55-1.43-27.81-1.88-39.68-2.3-6.37-.23-12.92-.48-19.97-.88,6.8-2.17,13.75-4.6,20.58-7.03,11.37-4.02,23.12-8.18,33.45-10.74,3.62-.9,5.84-4.57,4.93-8.19-.89-3.62-4.49-5.85-8.19-4.95-10.97,2.71-23.03,6.99-34.7,11.12-9.54,3.37-19.31,6.79-28.32,9.33l41.53-47.63c2.46-2.82,2.17-7.09-.65-9.55-2.82-2.46-7.09-2.18-9.55.65l-47.2,54.14c-6.41,7.35-7.52,14.92-2.96,20.27,3.39,3.96,8.29,4.41,10.91,4.66,15.54,1.43,27.81,1.88,39.67,2.31,11.67.42,23.76.85,38.91,2.26.22.02.43.03.64.03,3.46,0,6.4-2.64,6.73-6.15.34-3.72-2.4-7.02-6.11-7.36Z"/>
  <path class="cls-1" d="M176.71,188.95c2.62-.25,7.52-.7,10.94-4.68,4.54-5.34,3.43-12.91-2.98-20.25l-47.2-54.14c-2.46-2.83-6.74-3.11-9.55-.65-2.82,2.46-3.11,6.73-.65,9.55l41.53,47.63c-9.02-2.54-18.78-5.96-28.32-9.33-11.67-4.14-23.73-8.41-34.7-11.12-3.7-.88-7.3,1.32-8.19,4.95-.9,3.63,1.31,7.3,4.93,8.19,10.33,2.56,22.08,6.72,33.45,10.74,6.83,2.42,13.78,4.85,20.58,7.03-7.05.39-13.6.64-19.97.87-11.86.43-24.13.88-39.67,2.31-3.71.35-6.45,3.64-6.11,7.36.33,3.51,3.27,6.15,6.73,6.15.21,0,.42-.01.64-.03,15.15-1.4,27.23-1.84,38.9-2.26,11.86-.42,24.13-.87,39.67-2.3Z"/>
</svg>