<?xml version="1.0" encoding="UTF-8"?>
<svg id="Layer_1" data-name="Layer 1" xmlns="http://www.w3.org/2000/svg" viewBox="0 0 513.04 465.48">
  <defs>
    <style>
      .cls-1 {
        fill: #000;
        stroke-width: 0px;
      }
    </style>
  </defs>
  <path class="cls-1" d="M202.69,263.79c-15.82,4.65-26.54,15.64-28.7,29.42-1.81,11.6,3.25,23.01,13.22,29.76,8.23,5.58,20.95,8.81,33.81,8.81,2.47,0,4.93-.12,7.38-.36,15.86-1.59,29.34-8.37,34.34-17.3,7.73-13.81,3.92-31.38-9.26-42.73-11.66-10.04-32.05-13.11-50.78-7.6ZM250.93,307.51c-2.32,4.14-11.48,9.21-23.88,10.45-11.86,1.17-25.14-1.37-32.25-6.18-5.67-3.84-8.45-10-7.45-16.47,1.32-8.46,8.48-15.39,19.14-18.53,4.86-1.43,9.96-2.11,14.89-2.11,9.3,0,17.97,2.45,23.25,6.99,8.25,7.1,10.84,17.74,6.29,25.86Z"/>
  <path class="cls-1" d="M186.13,194.92c-1.2-3.53-5.06-5.45-8.59-4.21-45.56,15.6-97.83.09-98.35-.08-3.6-1.07-7.36.93-8.45,4.5-1.08,3.57.93,7.35,4.5,8.44,1.51.46,25.73,7.69,56.31,7.69,15.84,0,33.38-1.94,50.37-7.76,3.54-1.21,5.42-5.06,4.21-8.59Z"/>
  <path class="cls-1" d="M369.72,190.64c-.52.17-52.79,15.69-98.35.08-3.55-1.25-7.38.67-8.59,4.21-1.21,3.54.67,7.38,4.21,8.59,16.98,5.83,34.53,7.76,50.37,7.76,30.58,0,54.8-7.23,56.31-7.69,3.58-1.09,5.58-4.87,4.5-8.44-1.09-3.58-4.83-5.58-8.45-4.5Z"/>
  <path class="cls-1" d="M376.07,12.92l48.91,22.4c-12,9.3-25.64,16.7-39.94,21.65-2.72.94-4.54,3.49-4.55,6.37-.01,2.87,1.8,5.44,4.5,6.4l39.86,14.11c.75.26,1.51.39,2.26.39,2.79,0,5.4-1.73,6.38-4.51,1.24-3.52-.59-7.39-4.12-8.63l-23.26-8.24c13.05-6.34,25.28-14.54,35.96-24.21,1.68-1.53,2.5-3.8,2.15-6.05-.34-2.25-1.8-4.17-3.87-5.12L381.71.62c-3.39-1.56-7.41-.07-8.98,3.33-1.55,3.4-.06,7.42,3.34,8.97Z"/>
  <path class="cls-1" d="M463.15,79.4c3.5.75,6.96,1.72,10.35,2.89-8.89,7.17-19.14,12.57-30.14,15.83-3.06.91-5.07,3.83-4.82,7.02.25,3.18,2.7,5.75,5.86,6.18,9.84,1.31,19.62,4.57,28.28,9.41,1.05.58,2.18.86,3.29.86,2.38,0,4.68-1.25,5.91-3.47,1.83-3.26.66-7.38-2.6-9.21-4.09-2.28-8.29-4.23-12.62-5.86,8.88-4.82,17.04-10.96,24.12-18.21,1.53-1.56,2.2-3.76,1.83-5.91s-1.77-3.98-3.73-4.92c-7.29-3.5-14.98-6.13-22.86-7.83-3.65-.78-7.25,1.54-8.05,5.19-.78,3.65,1.54,7.25,5.19,8.04Z"/>
  <path class="cls-1" d="M512.94,152.07c-.37-2.15-1.76-3.98-3.73-4.93-7.28-3.5-14.98-6.13-22.86-7.84-3.65-.77-7.26,1.53-8.05,5.19-.78,3.65,1.54,7.25,5.19,8.04,3.5.75,6.96,1.72,10.35,2.9-8.89,7.17-19.15,12.58-30.13,15.83-2.59.76-4.34,3-4.7,5.59C419.78,68.03,299.83,4.45,170.64,27.48c-53.22,9.49-102.33,45.6-134.73,99.06C.55,184.87-9.42,255.11,9.23,314.43c7.78,24.71,19.86,47.41,35.93,67.48,47.18,58.89,115.06,83.58,181.75,83.57,43.25,0,86.02-10.38,122.3-28.54,76.2-38.13,146.67-121.3,115.93-240.38-1.22-4.73-2.64-9.37-4.15-13.95,1.01.96,2.28,1.65,3.74,1.84,9.84,1.31,19.62,4.57,28.28,9.41,1.05.58,2.18.86,3.29.86,2.38,0,4.68-1.25,5.91-3.47,1.83-3.26.66-7.38-2.6-9.21-4.09-2.28-8.29-4.23-12.62-5.86,8.88-4.82,17.03-10.95,24.12-18.21,1.53-1.56,2.2-3.76,1.83-5.9ZM343.14,424.85c-87.36,43.7-214.15,40.09-287.41-51.4-15.02-18.75-26.32-39.97-33.59-63.08-17.5-55.67-8.02-121.77,25.34-176.82,30.4-50.15,76.16-83.95,125.55-92.75,16.93-3.02,33.69-4.48,50.1-4.48,109.34,0,203.36,64.64,228.9,163.61,28.72,111.27-37.4,189.14-108.88,224.91Z"/>
</svg>