<?xml version="1.0" encoding="UTF-8"?>
<svg id="Layer_1" data-name="Layer 1" xmlns="http://www.w3.org/2000/svg" viewBox="0 0 470.78 439.5">
  <defs>
    <style>
      .cls-1 {
        fill: #000;
        stroke-width: 0px;
      }
    </style>
  </defs>
  <path class="cls-1" d="M469.54,198.77C454.59,62.8,317.32-8.6,193.38.83c-53.9,4.12-106.38,35.14-143.97,85.11C8.41,140.44-8.53,209.33,4.1,270.21c5.25,25.36,15.02,49.16,29.01,70.74,45.71,70.48,117.92,98.56,188.47,98.56,32.02,0,63.71-5.79,92.41-16.01,105.37-37.55,166.43-125.76,155.55-224.72ZM309.45,410.74c-86.9,30.99-202.54,19.13-264.98-77.16-13.08-20.16-22.2-42.4-27.12-66.12-11.85-57.13,4.18-121.94,42.88-173.39C95.48,47.21,144.4,18.15,194.42,14.32c6.99-.53,14.01-.8,21.06-.8,111.57,0,227.39,66.5,240.61,186.73,12.35,112.39-71.28,183.63-146.64,210.49Z"/>
  <path class="cls-1" d="M193.76,157.39c1.89-3.22.82-7.37-2.4-9.26-3.23-1.9-7.37-.83-9.26,2.4-8.36,14.22-17.73,21.7-27.83,22.24-19.3,1-37.15-22.59-37.32-22.84-2.23-3.01-6.48-3.63-9.46-1.41-3,2.22-3.64,6.45-1.43,9.45.88,1.19,21.22,28.37,46.99,28.37.62,0,1.26-.02,1.88-.05,14.93-.78,28-10.5,38.82-28.9Z"/>
  <path class="cls-1" d="M338.36,149.94c-.17.24-18.02,23.8-37.33,22.84-10.1-.54-19.46-8.02-27.83-22.24-1.9-3.22-6.02-4.28-9.26-2.4-3.22,1.89-4.3,6.04-2.4,9.26,10.83,18.4,23.89,28.12,38.82,28.9.63.03,1.26.05,1.88.05,25.77,0,46.12-27.18,47-28.36,2.21-3.01,1.57-7.24-1.43-9.46-2.98-2.22-7.23-1.59-9.46,1.41Z"/>
  <path class="cls-1" d="M232.85,323.85c-8.02,3.35-16.31,6.82-24.57,7.05-6.58.19-14.58-2.33-17.84-8.36-3.04-5.61-1.21-13.05,1.94-17.94,4.32-6.69,11.54-11.35,17.35-14.66,2.8-1.6,4.09-4.95,3.07-8.01-1.02-3.06-4.04-4.98-7.25-4.59-4.16.54-8.55-1.55-11.83-5.51-3.65-4.41-5.01-9.99-3.54-14.56,1.39-4.35,5.02-8.06,9.95-10.18,5.48-2.35,11.61-2.38,16.41-.07,3.36,1.62,7.41.21,9.04-3.16,1.62-3.36.21-7.41-3.16-9.04-8.27-3.99-18.61-4.05-27.63-.18-8.53,3.67-14.9,10.4-17.49,18.48-2.86,8.92-.56,19.39,6,27.32,2.1,2.53,4.5,4.65,7.1,6.31-3.45,2.92-6.73,6.37-9.39,10.49-6.49,10.06-7.47,22.51-2.48,31.72,5.13,9.47,16.43,15.46,29.01,15.46.37,0,.74,0,1.12-.02,10.77-.3,20.67-4.44,29.4-8.08,3.45-1.44,5.07-5.4,3.63-8.86-1.43-3.44-5.38-5.06-8.86-3.63Z"/>
</svg>