<?xml version="1.0" encoding="UTF-8"?>
<svg id="Layer_1" data-name="Layer 1" xmlns="http://www.w3.org/2000/svg" viewBox="0 0 469.7 439.49">
  <defs>
    <style>
      .cls-1 {
        fill: #000;
        stroke-width: 0px;
      }
    </style>
  </defs>
  <path class="cls-1" d="M465.2,173.88C436.74,40.08,293.12-17.31,170.65,4.52,117.43,14,68.32,50.11,35.91,103.58.56,161.91-9.42,232.15,9.23,291.48c7.77,24.7,19.86,47.41,35.93,67.47,46.09,57.55,109.24,80.55,171.46,80.54,40.86,0,81.31-9.91,116.27-26.48,101.09-47.89,153.03-141.76,132.32-239.13ZM327.09,400.78c-83.38,39.51-199.63,39.28-271.37-50.29-15.02-18.75-26.32-39.97-33.59-63.08-17.5-55.66-8.02-121.77,25.35-176.82C77.88,60.45,123.64,26.65,173.02,17.85c16.17-2.89,32.73-4.32,49.32-4.32,102.56,0,206.58,54.91,229.61,163.17,23.52,110.59-52.57,189.83-124.87,224.08Z"/>
  <path class="cls-1" d="M384.88,189.91c-.13-.29-.16-.59-.33-.87-.08-.13-.21-.19-.3-.31-.28-.39-.61-.69-.96-1.01-.31-.28-.6-.57-.95-.79-.36-.22-.75-.36-1.15-.51-.42-.16-.82-.32-1.27-.4-.38-.06-.77-.04-1.17-.04-.49,0-.97.02-1.46.13-.14.03-.28,0-.42.04-.3.09-.52.3-.79.42-.29.13-.6.16-.88.33-117.09,73.73-166.97,83.58-259.91,97.26-.34.05-.61.24-.92.33-.3.09-.61.07-.9.21-.13.06-.2.17-.32.23-.42.22-.77.51-1.13.82-.32.27-.65.52-.92.84-.27.33-.46.71-.67,1.09-.21.38-.43.75-.56,1.16-.13.4-.15.8-.2,1.22-.06.46-.11.91-.07,1.38.01.14-.04.26-.02.4.06.39.25.71.37,1.07.08.25.06.51.17.75,2.28,5,4.57,10.01,7.2,14.84,18.13,33.26,52.4,57.27,91.67,64.24,8.06,1.43,16.28,2.14,24.58,2.14,29.19,0,59.19-8.72,85.15-25.15,54.69-34.59,83.31-102.97,66.56-159.05-.09-.3-.3-.52-.43-.8ZM311.51,338.33c-30.51,19.3-67.01,26.99-100.13,21.12-35.27-6.26-65.98-27.72-82.16-57.39-1.04-1.91-2-3.86-2.94-5.81,87.11-13.03,138.2-24.58,248.21-92.91,9.83,48.69-16.06,105.32-62.97,134.99Z"/>
  <path class="cls-1" d="M393.6,119.91c-4.76.47-9.85,1.33-15.04,2.21-11.05,1.87-22.46,3.82-31.29,1.73-3.54-.82-7.16,1.31-8.1,4.86-.94,3.55,1.13,7.19,4.65,8.22,9.22,2.69,17.12,9.01,25.47,15.71,6.9,5.53,14.04,11.25,22.32,15.14,5.53,2.59,12.09,3.99,18.31,3.99,1.77,0,3.52-.11,5.21-.35,9.41-1.29,16.65-6.11,20.4-13.59,5.58-11.11,2.91-19.05-.33-23.77-8.53-12.45-30.05-15.28-41.62-14.16ZM423.44,151.76c-1.74,3.47-5.15,5.57-10.15,6.26h0c-5.05.68-11.16-.26-15.93-2.49-6.83-3.21-13.03-8.18-19.61-13.45-2.12-1.7-4.26-3.41-6.44-5.08,3.18-.46,6.36-1,9.51-1.54,4.87-.83,9.63-1.65,14.1-2.08,10.31-1.04,25.01,2.34,29.13,8.35,1.1,1.6,2.24,4.39-.61,10.03Z"/>
  <path class="cls-1" d="M110.43,198.36c-2.95-2.15-7.11-1.55-9.35,1.35-5.84,7.62-14.59,12.68-23.86,18.04-7.66,4.43-15.58,9.01-22.2,15.33-5.69,5.42-10.14,13.13-11.93,20.6h0c-2.2,9.24-.33,17.73,5.28,23.93,6.23,6.91,12.49,8.86,17.58,8.86,1.71,0,3.29-.22,4.69-.55,14.7-3.45,25.14-22.47,28.28-33.65,1.29-4.61,2.33-9.66,3.4-14.82,2.25-10.97,4.58-22.33,9.71-29.79,2.08-3.02,1.37-7.15-1.6-9.31ZM89.05,234.73c-.99,4.83-1.95,9.57-3.17,13.88-2.81,10.02-11.25,22.47-18.34,24.14-1.89.45-4.88.5-9.14-4.2-2.6-2.88-3.32-6.83-2.16-11.74,1.19-4.96,4.3-10.3,8.11-13.94,5.46-5.2,12.35-9.19,19.64-13.41,2.35-1.36,4.72-2.73,7.07-4.16-.72,3.13-1.37,6.29-2.02,9.43Z"/>
  <path class="cls-1" d="M264.2,163.03l57.62,3.13c.12,0,.25.01.37.01,3.57,0,6.56-2.8,6.75-6.4.2-3.73-2.66-6.92-6.39-7.12l-57.62-3.13c-2.81-.16-3.77-.43-3.87-.3,0-.01-.25-1.51,2.19-5.56,9.58-15.88,20.12-31.38,31.33-46.08,2.27-2.97,1.7-7.21-1.28-9.48-2.96-2.27-7.21-1.7-9.48,1.28-11.51,15.08-22.33,30.99-32.16,47.29-6.4,10.62-4.2,17.2-1.22,20.85,4.07,4.98,10.36,5.32,13.75,5.51Z"/>
  <path class="cls-1" d="M109.05,168.13c18.15,3.53,36.33,8.11,54.03,13.61,3.95,1.23,5.06,2.36,5.24,2.36-.14.4-.72,1.27-2.6,3.13l-40.98,40.63c-2.65,2.63-2.67,6.92-.04,9.57,1.33,1.33,3.07,2,4.81,2s3.44-.66,4.76-1.96l40.98-40.63c2.41-2.38,6.88-6.82,6.61-13.24-.19-4.71-2.91-11.1-14.76-14.79-18.17-5.64-36.84-10.34-55.46-13.97-3.72-.77-7.22,1.68-7.94,5.35-.72,3.67,1.68,7.22,5.35,7.94Z"/>
</svg>