<?xml version="1.0" encoding="UTF-8"?>
<svg id="Layer_1" data-name="Layer 1" xmlns="http://www.w3.org/2000/svg" viewBox="0 0 469.7 535.9">
  <defs>
    <style>
      .cls-1 {
        fill: #000;
        stroke-width: 0px;
      }
    </style>
  </defs>
  <path class="cls-1" d="M357.4,331.77c-3.52-.35-6.84,2.86-6.93,6.6-.77,31.68-15.76,63.54-41.13,87.44-25.35,23.89-57.92,36.99-89.73,35.84-31.66-1.12-63.36-16.47-86.96-42.1-23.61-25.63-36.31-58.49-34.84-90.14.18-3.73-2.71-6.9-6.44-7.07-4.07-.07-6.89,2.71-7.08,6.44-1.64,35.23,12.36,71.66,38.4,99.93,26.04,28.27,61.19,45.21,96.44,46.46,1.42.05,2.83.08,4.25.08,33.9,0,68.38-14.28,95.25-39.59,27.97-26.36,44.52-61.7,45.37-96.96.09-3.74-2.86-6.84-6.6-6.93Z"/>
  <path class="cls-1" d="M128.92,276.8c.5,0,.99-.06,1.49-.17,3.65-.81,5.94-4.43,5.13-8.07-4.01-17.98,1.28-37.53,13.8-51.04,3.54-3.82,6.73-6.02,9.78-6.76,7.93-1.94,16.77,6.08,21.22,15.01,5.51,11.03,7.52,23.82,5.67,36.01-.55,3.7,1.99,7.14,5.68,7.7,3.65.53,7.16-1.98,7.71-5.68,2.25-14.91-.22-30.56-6.95-44.07-6.86-13.74-20.83-25.92-36.51-22.13-5.72,1.38-11.12,4.88-16.54,10.72-15.49,16.72-22.04,40.93-17.08,63.18.71,3.16,3.5,5.3,6.6,5.3Z"/>
  <path class="cls-1" d="M255.92,269.48c3.7-.56,6.23-4.01,5.67-7.7-1.84-12.19.17-24.97,5.68-36,4.46-8.94,13.28-16.96,21.21-15.01,3.06.73,6.26,2.95,9.79,6.76,12.51,13.51,17.8,33.07,13.79,51.04-.8,3.65,1.49,7.26,5.13,8.07.5.11.99.17,1.49.17,3.09,0,5.89-2.14,6.6-5.3,4.96-22.25-1.59-46.46-17.07-63.18-5.41-5.84-10.83-9.35-16.55-10.72-15.74-3.79-29.65,8.39-36.5,22.13-6.74,13.5-9.21,29.15-6.94,44.07.56,3.7,4.08,6.22,7.7,5.68Z"/>
  <path class="cls-1" d="M465.19,270.28c-16.06-75.5-68.8-126.66-133.7-152.99,4.26-10.08,7.84-20.35,11.32-30.49.95-2.77,1.92-5.55,2.89-8.33,6.5-.04,12.4-2.57,16.69-6.99,4.13-4.24,6.31-9.71,6.15-15.39-.36-12.73-10.2-21.97-23.4-21.97s-22.57,8.7-22.86,20.25c0,.23,0,.47,0,.7.05,1.8.3,3.52.68,5.19-13.41,4.35-27.09,7.71-40.99,7.82-10.04.12-20.44.17-29.42-3.28-10.15-3.9-15.52-13.66-20.62-24.52,1.24-.85,2.41-1.83,3.47-2.92,4.13-4.24,6.31-9.71,6.15-15.39-.36-12.73-10.2-21.97-23.4-21.97s-22.57,8.7-22.86,20.25c0,.23,0,.47,0,.7.19,7.02,3.06,13.03,7.62,17.23-.92,1.9-1.85,3.8-2.73,5.69-5.75,12.36-11.18,24.03-21.86,28.82-15.06,6.77-33.37,6.02-47.84-1.97-2.43-1.34-4.75-2.88-7.06-4.45,1.65-3.15,2.58-6.6,2.48-10.17-.36-12.73-10.2-21.97-23.4-21.97s-22.57,8.7-22.86,20.25c0,.23,0,.47,0,.7.34,12.84,9.54,22.4,22,23.27,1.82,5.34,3.58,10.75,5.29,16.07,2.84,8.82,5.74,17.76,8.98,26.43-31.33,17.56-59.13,44.72-79.99,79.14C.55,258.31-9.42,328.56,9.23,387.88c7.76,24.7,19.86,47.41,35.93,67.47,46.09,57.55,109.24,80.55,171.46,80.54,40.85,0,81.3-9.91,116.26-26.48,101.09-47.89,153.04-141.76,132.32-239.13ZM336.06,53.1c.05-.17.14-.31.21-.47.12-.32.24-.65.41-.94.11-.18.26-.33.38-.5.18-.24.34-.5.56-.71.16-.16.35-.29.52-.44.22-.19.43-.39.68-.56.2-.14.42-.24.64-.36.26-.15.51-.31.78-.43.23-.1.48-.17.71-.26.29-.11.57-.22.87-.31.25-.07.52-.11.78-.16.3-.06.6-.14.9-.18.27-.04.54-.04.82-.06.27-.02.54-.06.82-.06.04,0,.08,0,.11,0,.31,0,.63.04.94.07.28.02.56.03.84.07.31.05.62.13.93.21.27.06.54.11.8.19.3.1.59.23.88.36.25.1.51.19.74.31.29.15.54.34.81.51.22.14.45.26.65.43.26.2.48.46.71.69.18.18.37.33.54.53.22.27.4.59.59.9.13.21.28.39.4.62.18.37.3.79.44,1.2.07.21.17.39.22.61.16.65.25,1.36.27,2.11.02.58-.04,1.15-.17,1.7-.04.2-.14.38-.2.58-.11.34-.2.69-.35,1.02-.1.21-.24.39-.36.59-.17.29-.32.58-.53.85-.15.19-.33.36-.49.54-.22.25-.43.5-.67.73-.19.17-.4.31-.6.46-.12.09-.24.19-.37.28-.14.1-.27.21-.41.3-.22.14-.46.24-.69.35-.29.15-.57.31-.87.43-.24.1-.5.15-.75.23-.3.09-.6.2-.91.26-.26.05-.53.05-.79.08-.28.03-.56.09-.85.09-.06,0-.12,0-.18,0-1.53-.03-2.91-.34-4.13-.87-.61-.26-1.17-.58-1.69-.95-1.56-1.11-2.72-2.66-3.43-4.48-.47-1.21-.73-2.55-.77-3.95.01-.57.1-1.1.25-1.61ZM209.07,18.98c.05-.17.14-.31.21-.47.12-.32.24-.65.41-.94.11-.18.26-.33.38-.5.18-.24.34-.5.56-.71.16-.16.35-.29.52-.44.22-.19.43-.39.68-.56.2-.14.42-.24.64-.36.26-.15.51-.31.78-.43.23-.1.48-.18.72-.26.29-.11.56-.22.86-.3.25-.07.52-.11.78-.16.3-.06.6-.14.9-.18.27-.04.54-.04.82-.06.27-.02.54-.06.82-.06.04,0,.08,0,.11,0,.31,0,.63.04.94.07.28.02.56.03.84.07.32.05.62.13.93.21.27.06.54.11.8.19.3.1.59.23.88.35.25.1.51.19.75.31.28.15.54.33.8.51.22.15.46.27.67.43.25.2.47.45.7.68.18.18.39.34.55.55.22.27.4.59.59.9.13.21.28.39.39.61.19.39.32.83.46,1.26.06.19.15.35.19.54.16.65.25,1.36.27,2.11,0,.07-.02.14-.02.21,0,.51-.04,1.01-.14,1.49-.04.2-.14.38-.2.57-.11.35-.2.7-.36,1.02-.1.21-.24.39-.36.59-.17.29-.33.59-.53.86-.14.19-.32.35-.48.53-.02.02-.03.03-.05.05-.21.23-.4.47-.63.68-.19.17-.4.3-.6.45-.26.2-.51.41-.79.59-.22.14-.46.24-.69.36-.29.15-.57.31-.87.43-.24.1-.5.15-.74.23-.31.09-.61.2-.92.26-.26.05-.53.05-.79.08-.28.03-.56.09-.85.09-.06,0-.12,0-.18,0-6.12-.14-9.86-4.64-10.01-10.25.01-.57.1-1.1.25-1.61ZM112.2,58.17c-.04.17-.12.33-.17.5-.01.04-.03.08-.04.12-.1.33-.19.66-.34.97-.1.2-.23.38-.35.57-.17.3-.33.6-.54.88-.14.19-.32.35-.48.53-.22.25-.43.51-.68.74-.18.17-.4.3-.59.45-.26.2-.51.42-.79.59-.22.14-.46.24-.69.35-.29.15-.57.31-.87.43-.24.1-.5.15-.75.23-.3.09-.6.2-.91.26-.26.05-.53.05-.79.08-.28.03-.56.09-.85.09-.06,0-.12,0-.18,0-1.53-.03-2.91-.34-4.13-.87-.61-.26-1.17-.58-1.69-.95-1.56-1.11-2.72-2.66-3.43-4.48-.47-1.21-.73-2.55-.77-3.95.01-.57.1-1.1.25-1.61.05-.16.14-.3.2-.46.13-.33.24-.66.42-.96.1-.17.25-.32.37-.49.18-.25.35-.5.57-.73.15-.16.34-.29.52-.44.23-.19.44-.4.69-.57.19-.13.42-.23.62-.35.26-.15.52-.31.8-.44.23-.1.47-.17.71-.26.29-.11.57-.22.87-.31.25-.07.52-.11.78-.16.3-.06.6-.14.91-.18.27-.04.54-.04.82-.06.27-.02.54-.06.82-.06.04,0,.08,0,.11,0,.31,0,.63.04.94.07.28.02.56.03.84.07.32.05.62.13.93.21.27.06.54.11.8.19.3.1.59.23.88.35.25.1.51.19.75.31.28.15.54.34.81.51.22.14.45.27.66.43.26.2.47.45.71.68.18.18.38.34.54.54.22.27.39.58.58.88.13.21.29.4.4.63.18.36.29.76.42,1.16.07.22.18.41.23.65.14.59.21,1.23.25,1.9,0,.08.03.14.03.21.02.58-.04,1.15-.17,1.7ZM115.59,77.32c2.72,1.85,5.47,3.65,8.35,5.24,18.1,10.02,41.06,10.95,59.94,2.47,15.26-6.87,22.35-22.05,28.58-35.45.91-1.94,1.81-3.75,2.71-5.6,1.11.17,2.21.36,3.37.39h.02c.12,0,.22-.03.34-.03,6.04,13.02,13.23,27.12,28.82,33.1,11.35,4.36,23.51,4.25,34.37,4.18,16.53-.14,32.67-4.34,47.75-9.37.91.84,1.85,1.64,2.89,2.33-.91,2.62-1.83,5.24-2.72,7.84-7.48,21.83-14.58,42.51-28.12,60.38-15.74-6.01-32.38-7.73-45.51-8.54-38.36-2.37-76.51,1.58-113.45,11.72-10.12-15.38-16.73-35.88-23.12-55.71-1.38-4.28-2.78-8.62-4.22-12.95ZM327.08,497.19c-83.36,39.51-199.63,39.27-271.36-50.29-15.02-18.75-26.32-39.97-33.59-63.08-17.5-55.66-8.02-121.77,25.35-176.82,19.3-31.85,44.81-57.07,73.5-73.51,3.13,7.11,6.63,13.88,10.7,20.04l1.26,3.08c1.06,2.6,3.58,4.22,6.27,4.22.63,0,1.27-.09,1.91-.28,37.16-10.87,75.68-15.17,114.42-12.8,13.5.83,30.95,2.68,46.19,9.63,2.07.94,4.52.34,6.46-.9,1-.64,1.8-1.65,2.33-2.78,6.13-7.63,11.1-15.75,15.34-24.13,61.3,24.72,111.02,72.7,126.09,143.52,23.53,110.59-52.57,189.83-124.87,224.08Z"/>
</svg>