<?xml version="1.0" encoding="UTF-8"?>
<svg id="Layer_1" data-name="Layer 1" xmlns="http://www.w3.org/2000/svg" viewBox="0 0 470.79 439.52">
  <defs>
    <style>
      .cls-1 {
        fill: #000;
        stroke-width: 0px;
      }
    </style>
  </defs>
  <path class="cls-1" d="M187.03,176.37c1.31-13.68-1.96-63.97-27.03-70.16-17.29-4.28-31.6,13.75-38.69,30.45-7.5,17.69-8.76,38.15-3.44,56.12.87,2.94,3.57,4.85,6.49,4.85.63,0,1.28-.09,1.92-.28,3.59-1.06,5.63-4.82,4.57-8.41-4.44-15.01-3.37-32.14,2.93-46.99,4.19-9.89,14.06-24.71,22.99-22.59,12.27,3.03,18.4,38.93,16.78,55.73-.35,3.72,2.38,7.02,6.09,7.38,3.65.32,7.03-2.37,7.39-6.09Z"/>
  <path class="cls-1" d="M293.92,99.51c-7.68-2.69-17.02.09-23.26,6.86-4.97,5.39-7.4,12.09-9.3,18.54-4.93,16.88-7.2,34.35-6.74,51.95.1,3.73,3.01,6.98,6.94,6.59,3.73-.09,6.69-3.21,6.59-6.94-.42-16.19,1.66-32.27,6.21-47.79,1.42-4.86,3.17-9.82,6.24-13.17,2.58-2.78,6.29-4.14,8.87-3.25,2.42.85,4.69,3.69,6.95,8.71,7.97,17.74,9.3,38.59,3.63,57.19-1.09,3.57.93,7.36,4.5,8.45.66.2,1.32.29,1.97.29,2.91,0,5.58-1.88,6.48-4.8,6.6-21.69,5.06-45.99-4.25-66.68-2.46-5.48-6.67-13.1-14.84-15.93Z"/>
  <path class="cls-1" d="M469.55,198.79C454.6,62.82,317.29-8.7,193.38.85c-53.9,4.12-106.37,35.13-143.96,85.1C8.41,140.46-8.52,209.35,4.1,270.24c5.26,25.35,15.02,49.15,29.01,70.73,45.71,70.47,117.92,98.56,188.47,98.56,32.03,0,63.71-5.79,92.42-16.02,105.37-37.55,166.43-125.75,155.56-224.71ZM309.44,410.75c-86.91,30.99-202.55,19.13-264.97-77.16-13.08-20.17-22.2-42.41-27.12-66.12-11.86-57.13,4.17-121.95,42.88-173.4C95.49,47.23,144.39,18.16,194.41,14.34c6.99-.53,14.02-.8,21.07-.8,111.57,0,227.39,66.5,240.61,186.73,12.36,112.39-71.28,183.63-146.65,210.49Z"/>
  <path class="cls-1" d="M208.79,241.53c-12.85,7.16-22.05,21.49-25.88,40.35-4.5,22.12-.5,45.33,10.23,59.14,8.35,10.75,21.94,17.12,35.51,17.12,2.62,0,5.23-.24,7.81-.73,15.95-3.02,29.75-15.5,34.34-31.08,6.64-22.52,3.16-51.54-8.48-70.56-11.85-19.36-33.87-25.23-53.53-14.24ZM257.82,322.51c-3.21,10.83-12.8,19.51-23.88,21.61-11.13,2.07-23.21-2.49-30.12-11.4-8.27-10.66-11.34-30-7.65-48.14,3-14.71,10-26.09,19.21-31.23,13.21-7.38,27.43-3.56,35.4,9.48,9.64,15.75,12.6,40.85,7.05,59.68Z"/>
</svg>