<?xml version="1.0" encoding="UTF-8"?>
<svg id="Layer_1" data-name="Layer 1" xmlns="http://www.w3.org/2000/svg" viewBox="0 0 472.51 442.69">
  <defs>
    <style>
      .cls-1 {
        fill: #000;
        stroke-width: 0px;
      }
    </style>
  </defs>
  <path class="cls-1" d="M465.13,173.77C433.94,53.01,307.39-19.66,170.65,4.68,117.43,14.17,68.31,50.28,35.9,103.76.55,162.09-9.42,232.32,9.23,291.63c7.75,24.68,19.84,47.39,35.92,67.48,47.18,58.9,115.07,83.58,181.76,83.58,43.26,0,86.02-10.39,122.31-28.54,76.19-38.14,146.66-121.3,115.92-240.38ZM343.16,402.05c-87.38,43.72-214.16,40.11-287.44-51.39-15.03-18.78-26.33-40-33.58-63.08-17.5-55.66-8.03-121.76,25.33-176.8C77.87,60.62,123.63,26.81,173.03,18.01c129.64-23.12,249.6,45.3,279,159.14,28.72,111.27-37.4,189.13-108.87,224.9Z"/>
  <path class="cls-1" d="M381.54,254.3c-.02-.15-.12-.26-.16-.41-.11-.48-.31-.91-.51-1.34-.17-.35-.31-.7-.53-1.01-.29-.42-.66-.75-1.03-1.09-.26-.24-.5-.48-.79-.68-.4-.26-.84-.42-1.29-.6-.39-.15-.77-.3-1.19-.38-.15-.03-.27-.12-.42-.13-.33-.03-.61.07-.93.08-.31,0-.6-.09-.91-.04-136.12,21.94-186.02,11.64-276.28-11.95-.03-.01-.07-.02-.11-.03-.29-.07-.56-.15-.85-.22-.28-.07-.54,0-.81-.04-.37-.04-.68-.18-1.07-.17-.14,0-.26.08-.4.09-.5.04-.95.18-1.41.32-.37.12-.74.2-1.09.38-.43.22-.78.51-1.15.82-.3.25-.61.47-.86.77-.28.33-.48.7-.69,1.08-.23.4-.45.79-.6,1.23-.04.13-.14.22-.17.35-.08.31-.02.61-.05.93-.04.32-.18.62-.17.95.13,5.5.29,11.01.81,16.49,3.67,37.69,25.81,73.2,59.22,94.99,23.97,15.63,53.38,23.91,83.51,23.91,8.81,0,17.68-.71,26.49-2.15,63.87-10.44,116.95-62.17,123.5-120.32.03-.31-.07-.6-.08-.91,0-.31.09-.61.04-.93ZM255.91,363.09c-35.62,5.84-72.24-1.37-100.41-19.74-30.01-19.57-49.88-51.33-53.14-84.97-.21-2.16-.33-4.33-.44-6.5,52.82,13.69,92.71,22.51,145.84,22.51,32.58,0,70.3-3.37,118.92-10.9-9.99,48.66-55.98,90.65-110.77,99.6Z"/>
  <path class="cls-1" d="M92.42,171.14c9.09,3.85,17.77,5.47,25.94,5.47,41.65,0,69.91-41.97,70.26-42.48,2.06-3.12,1.19-7.31-1.92-9.37-3.13-2.07-7.32-1.2-9.37,1.91-1.4,2.1-34.62,51.1-79.62,32.02-3.44-1.46-7.4.14-8.88,3.58-1.45,3.44.15,7.41,3.59,8.87Z"/>
  <path class="cls-1" d="M348.24,176.61c8.16,0,16.85-1.61,25.94-5.47,3.44-1.46,5.04-5.43,3.59-8.87-1.48-3.45-5.46-5.06-8.88-3.58-45.06,19.13-78.23-29.92-79.63-32.02-2.05-3.11-6.26-3.97-9.37-1.91-3.11,2.06-3.98,6.25-1.92,9.37.34.51,28.59,42.48,70.27,42.48Z"/>
</svg>