<?xml version="1.0" encoding="UTF-8"?>
<svg id="Layer_1" data-name="Layer 1" xmlns="http://www.w3.org/2000/svg" viewBox="0 0 507.2 439.47">
  <defs>
    <style>
      .cls-1 {
        fill: #000;
        stroke-width: 0px;
      }
    </style>
  </defs>
  <path class="cls-1" d="M357.41,235.35c-3.34-.34-6.84,2.86-6.93,6.6-.77,31.68-15.76,63.54-41.14,87.44-25.36,23.89-58.04,36.87-89.73,35.83-31.66-1.12-63.36-16.47-86.98-42.11-23.6-25.63-36.3-58.48-34.81-90.13.18-3.73-2.71-6.9-6.44-7.07-4.08-.19-6.89,2.72-7.08,6.44-1.64,35.23,12.35,71.66,38.38,99.93,26.05,28.28,61.2,45.21,96.45,46.46,1.42.05,2.83.08,4.25.08,33.89,0,68.38-14.28,95.25-39.58,27.99-26.36,44.52-61.7,45.38-96.96.09-3.74-2.86-6.84-6.6-6.93Z"/>
  <path class="cls-1" d="M128.92,180.37c.5,0,.99-.06,1.49-.17,3.65-.81,5.94-4.43,5.13-8.07-4.01-17.98,1.28-37.53,13.8-51.04,3.54-3.81,6.73-6.02,9.79-6.76,8.02-1.92,16.76,6.09,21.21,15.01,5.51,11.03,7.52,23.82,5.67,36.01-.55,3.7,1.99,7.14,5.68,7.7,3.65.54,7.16-1.98,7.71-5.68,2.25-14.92-.22-30.57-6.95-44.07-6.86-13.73-20.79-25.88-36.5-22.13-5.73,1.38-11.15,4.88-16.55,10.72-15.5,16.72-22.04,40.93-17.08,63.18.71,3.16,3.5,5.3,6.6,5.3Z"/>
  <path class="cls-1" d="M255.92,173.06c3.7-.56,6.23-4.01,5.67-7.7-1.84-12.18.18-24.96,5.68-36,4.45-8.93,13.19-16.93,21.21-15.02,3.06.73,6.26,2.95,9.79,6.76,12.52,13.51,17.81,33.07,13.8,51.04-.8,3.65,1.49,7.26,5.13,8.07.5.11.99.17,1.49.17,3.09,0,5.89-2.14,6.6-5.3,4.96-22.24-1.6-46.45-17.08-63.18-5.41-5.84-10.83-9.35-16.55-10.72-15.72-3.75-29.64,8.39-36.5,22.14-6.74,13.51-9.21,29.17-6.94,44.07.56,3.71,4.09,6.23,7.7,5.68Z"/>
  <path class="cls-1" d="M506.07,59.16c-2.64-12.02-9.61-21.38-19.13-25.67-11.66-5.26-26.25-5.47-39.05-.57-1.53.59-3.03,1.28-4.51,2.03-1.67-8.95-4.9-17.41-12.47-23.69-9.11-7.57-23.28-10.18-37.06-6.87-12.7,3.07-22.75,10.68-26.9,20.36-1.59,3.73-2.43,7.88-2.7,12.2C307.51,3.84,236.05-7.13,170.64,4.49,117.43,13.98,68.32,50.09,35.91,103.56.55,161.89-9.42,232.13,9.23,291.45c7.76,24.71,19.86,47.41,35.93,67.48,46.1,57.55,109.25,80.55,171.46,80.54,40.86,0,81.31-9.91,116.27-26.48,101.08-47.89,153.02-141.76,132.32-239.13-.78-3.68-1.69-7.27-2.64-10.83,2.76-1,5.52-2.23,8.2-3.87,13.12-8.06,21.28-21.43,20.79-34.08-.27-7.02-2.36-14.14-5.8-20.68,4.71-1.47,8.98-3.91,12.32-7.76,7.86-9.09,11-23.8,7.98-37.46ZM416.88,137.45c-2.63,8.35-6.9,16.57-13.87,20.45-5.77,3.22-13.75,2.33-21.38-2.33-8.74-5.36-14.65-14.42-14.35-22.03.21-5.42,1.94-10.95,4.81-16,1.78-.3,3.5-.63,5.17-.99,9.62,11.07,22.9,15.81,35.94,15.81.65,0,1.29-.09,1.94-.11.52,1.74,1.09,3.48,1.74,5.21ZM356.11,56.51c.78-.2,1.56-.35,2.36-.49.89-.16,1.8-.24,2.7-.33,1.59-.16,3.19-.18,4.81-.15.52,0,1.04.03,1.56.06.42.03.85.11,1.27.15,2.28,1.52,4.54,3.07,6.76,4.68-.54.76-1.13,1.47-1.62,2.28-7.2,11.88-9.21,26.27-5.36,38.49.33,1.05.86,2.01,1.26,3.02-11.11,1.8-21.15,1.02-25.51-4.02-5.09-5.88-7.1-16.21-5.01-25.7,1.72-7.8,5.9-13.72,11.49-16.24,1.67-.76,3.46-1.3,5.29-1.74ZM386.6,106.73c-2.29-2.86-4.01-6.09-5.11-9.6-2.7-8.56-1.19-18.81,4.03-27.41,4.66-7.7,11.56-12.87,18.92-14.18,17.49-3.11,38.87,4.48,44.08,24.69,5.5,21.28-11.45,31.63-16.78,34.3-13.78,6.91-33.71,6.46-45.13-7.79ZM379.39,30.08c2.47-5.78,9.06-10.46,17.62-12.53,9.72-2.34,19.35-.76,25.24,4.12,5.97,4.95,7.79,13.17,8.78,22.21-.13.13-.26.26-.4.4-8.69-2.98-18.48-3.85-28.57-2.07-4.63.82-9.08,2.63-13.2,5.2-1.49-.77-3.01-1.47-4.56-2.06-2.18-.83-4.41-1.47-6.67-2.01-.38-4.77.1-9.39,1.76-13.27ZM327.08,400.76c-83.35,39.5-199.6,39.29-271.36-50.29-15.02-18.75-26.32-39.97-33.59-63.08-17.5-55.66-8.02-121.76,25.34-176.81C77.88,60.43,123.64,26.62,173.02,17.82c16.17-2.88,32.71-4.32,49.31-4.32,44.38,0,89.02,10.3,127.26,30.73-1.49.49-2.94,1.05-4.35,1.68-9.52,4.3-16.49,13.65-19.13,25.66-3.02,13.67.12,28.38,7.98,37.47,5.66,6.54,13.95,9.07,22.62,9.53-1.75,4.72-2.77,9.61-2.96,14.45-.48,12.65,7.68,26.03,20.79,34.08,6.75,4.14,13.9,6.24,20.68,6.24,5.11,0,10.02-1.2,14.36-3.62,6.97-3.88,11.99-10.09,15.64-17.08,2.9,3.64,6.33,6.81,10.49,9.12,4.09,2.28,8.67,3.43,13.45,3.57,1.02,3.72,1.97,7.49,2.79,11.34,23.51,110.59-52.57,189.83-124.88,224.08ZM463.69,147.61c-7.62,4.68-15.61,5.56-21.38,2.33-6.81-3.8-11.04-11.72-13.69-19.86,3.2-.92,6.31-2.03,9.17-3.46,10.12-5.07,17.49-12.68,21.58-21.64,3.76.66,7.71,1.1,11.69,1.19,4.19,5.89,6.72,12.74,6.98,19.41.3,7.6-5.61,16.66-14.35,22.03ZM487.84,87.77c-4.29,4.96-14.07,5.81-24.95,4.12.46-4.87.06-9.93-1.26-15.05-2.8-10.85-9.31-19.79-18.07-26,2.82-2.22,5.94-4.05,9.17-5.29,9.47-3.65,20.2-3.55,28.64.26,5.58,2.52,9.77,8.44,11.49,16.25,2.09,9.49.08,19.82-5.01,25.7Z"/>
</svg>