<?xml version="1.0" encoding="UTF-8"?>
<svg id="Layer_1" data-name="Layer 1" xmlns="http://www.w3.org/2000/svg" viewBox="0 0 469.7 439.49">
  <defs>
    <style>
      .cls-1 {
        fill: #000;
        stroke-width: 0px;
      }
    </style>
  </defs>
  <path class="cls-1" d="M465.2,173.88C436.74,40.09,293.13-17.31,170.65,4.52,117.43,14.01,68.32,50.11,35.91,103.59.55,161.92-9.42,232.15,9.23,291.47c7.76,24.71,19.85,47.41,35.93,67.48,46.09,57.55,109.24,80.55,171.46,80.54,40.86,0,81.31-9.91,116.27-26.48,101.09-47.89,153.03-141.76,132.32-239.13ZM327.09,400.79c-83.39,39.5-199.62,39.27-271.37-50.29-15.02-18.76-26.32-39.97-33.58-63.08-17.5-55.66-8.03-121.76,25.34-176.81C77.87,60.46,123.64,26.64,173.03,17.84c16.17-2.89,32.72-4.32,49.31-4.32,102.57,0,206.59,54.91,229.62,163.17,23.52,110.59-52.57,189.83-124.87,224.08Z"/>
  <path class="cls-1" d="M193.64,153.65c-1.89-3.23-6.04-4.32-9.26-2.41-51.27,30.07-103.75,18.25-104.27,18.13-3.62-.86-7.28,1.4-8.13,5.03-.86,3.63,1.38,7.27,5.02,8.14,1.04.24,12.55,2.87,29.93,2.87,21.87,0,53.04-4.17,84.31-22.51,3.22-1.89,4.3-6.04,2.41-9.26Z"/>
  <path class="cls-1" d="M376.96,177.5c4.2-1,6.72-1.78,7.17-1.92,3.56-1.13,5.53-4.92,4.41-8.49-1.12-3.56-4.92-5.53-8.48-4.42-.52.17-53.04,16.25-111.11-1.44-3.58-1.07-7.35.94-8.45,4.5-1.08,3.57.93,7.36,4.5,8.45,22.25,6.77,43.52,8.97,61.78,8.97s32.52-2.07,42.68-4.05c-1.02,1.11-1.67,2.55-1.77,4.15-1.42,21.98-9.21,38.87-17.46,56.75-8.55,18.53-17.38,37.68-18.63,62.67-.31,6.33-.18,14.52,3.73,21.75,3.45,6.39,10.7,11.99,18.83,11.99,1.31,0,2.64-.15,3.98-.46,9.26-2.14,14.21-10.79,17.13-17.11,19.87-42.97,21.88-93.09,5.52-137.51-.68-1.84-2.13-3.15-3.84-3.85ZM363,313.18c-1.73,3.73-4.43,8.8-7.9,9.6-2.62.61-6.11-1.56-7.86-4.79-2.31-4.28-2.35-10.07-2.12-14.64,1.12-22.37,9.03-39.52,17.4-57.68,4.7-10.19,9.49-20.57,13.07-32.02,6.02,33.43,1.75,68.49-12.6,99.53Z"/>
  <path class="cls-1" d="M239.61,249.63c-28.17-6.46-59.2,2.98-78.96,24.14-19.76,21.15-27.1,52.72-18.71,80.42.89,2.92,3.57,4.81,6.48,4.81.65,0,1.31-.09,1.96-.29,3.58-1.08,5.6-4.86,4.52-8.44-7.02-23.17-.88-49.57,15.65-67.26,16.53-17.69,42.43-25.62,66.04-20.19,28.29,6.5,52.98,30.61,73.38,71.63,1.67,3.35,5.74,4.74,9.07,3.05,3.35-1.66,4.71-5.72,3.05-9.07-22.29-44.83-50.04-71.34-82.47-78.8Z"/>
</svg>