<?xml version="1.0" encoding="UTF-8"?>
<svg id="Layer_1" data-name="Layer 1" xmlns="http://www.w3.org/2000/svg" viewBox="0 0 477.49 456.23">
  <defs>
    <style>
      .cls-1 {
        fill: #000;
        stroke-width: 0px;
      }
    </style>
  </defs>
  <path class="cls-1" d="M357.41,252.11c-3.39-.28-6.83,2.87-6.93,6.6-.77,31.67-15.75,63.54-41.13,87.44-25.36,23.89-58.06,36.95-89.73,35.84-31.66-1.12-63.37-16.47-86.99-42.11-23.6-25.63-36.3-58.48-34.81-90.13.18-3.73-2.71-6.9-6.44-7.07-4.12-.14-6.91,2.71-7.08,6.44-1.64,35.23,12.35,71.65,38.38,99.92,26.05,28.28,61.2,45.22,96.46,46.47,1.42.05,2.83.08,4.25.08,33.89,0,68.38-14.29,95.25-39.59,27.97-26.36,44.52-61.7,45.37-96.95.09-3.74-2.86-6.84-6.6-6.93Z"/>
  <path class="cls-1" d="M128.93,197.13c.5,0,.99-.06,1.49-.17,3.65-.81,5.94-4.43,5.13-8.07-4.01-17.97,1.28-37.53,13.79-51.04,3.54-3.81,6.73-6.02,9.79-6.76,7.97-1.97,16.76,6.09,21.21,15.02,5.52,11.02,7.52,23.81,5.68,36-.56,3.7,1.97,7.14,5.67,7.7,3.63.54,7.14-1.97,7.7-5.68,2.27-14.92-.2-30.57-6.94-44.07-6.86-13.74-20.82-25.92-36.5-22.14-5.73,1.38-11.15,4.88-16.55,10.72-15.49,16.72-22.03,40.93-17.07,63.18.71,3.16,3.5,5.3,6.6,5.3Z"/>
  <path class="cls-1" d="M255.92,189.82c3.69-.56,6.23-4,5.68-7.7-1.85-12.19.17-24.98,5.67-36.01,4.45-8.93,13.18-16.98,21.22-15.02,3.05.73,6.25,2.94,9.78,6.76,12.52,13.51,17.81,33.06,13.8,51.04-.8,3.65,1.49,7.26,5.13,8.07.5.11.99.17,1.49.17,3.09,0,5.89-2.14,6.6-5.3,4.96-22.25-1.59-46.46-17.08-63.18-5.42-5.84-10.83-9.35-16.54-10.72-15.73-3.78-29.65,8.39-36.51,22.14-6.73,13.5-9.2,29.15-6.95,44.07.56,3.7,4.11,6.23,7.71,5.68Z"/>
  <path class="cls-1" d="M476.96,89.14c2.94-13.39-6.8-25.56-17.74-31.69-15.61-8.72-35.28-9.37-51.39-1.74-.36.17-.7.38-1.04.63-7.45-9.4-18.24-16.7-28.42-19.16-3.17-.75-6.49-1-10.13-.69-5.51-15.45-17.72-28.04-32.82-33.8-11.72-4.46-27.31-4.1-35.7,6.71-3.39,4.4-5.08,10.17-4.98,16.31-40.38-10.15-83.4-11.7-124.1-4.45-53.22,9.49-102.34,45.6-134.75,99.07C.55,178.66-9.42,248.89,9.23,308.21c7.75,24.71,19.85,47.41,35.92,67.48,46.1,57.55,109.25,80.54,171.46,80.54,40.86,0,81.31-9.92,116.27-26.48,101.08-47.89,153.02-141.76,132.32-239.13-3.88-18.23-9.96-34.99-17.77-50.37,1.49-1.4,2.88-2.91,4.04-4.59,5.12-7.41,6.38-17.11,3.38-25.61,3.32-1.03,6.19-2.26,8.77-3.75,6.98-4.05,11.84-10.31,13.34-17.16ZM313.76,48.61c1.35-2.11,1.42-4.79.19-6.98-2.37-4.18-4.68-8.68-5.46-13.29-.74-4.22-.02-8.1,1.96-10.67,3.96-5.12,13.14-5.06,20.17-2.35,11.26,4.3,20.43,13.65,24.69,25.11-1.67,1.01-3.16,2.11-4.55,3.34l-.28.25s-.02.03-.03.04l-.36.34h0c-1.38,1.33-2.63,2.73-3.76,4.19-9.15,11.74-12.69,23.27-10.5,34.28.09.49.25.95.42,1.41.02.07.06.14.08.2-3.7,3.03-9.13,4.73-15.4,4.8-.12,0-.25,0-.37,0-8.25,0-15.88-2.78-20.99-7.66-5.4-5.12-7.85-12.85-6.09-19.24,1.65-6.07,7.45-10.7,13.18-10.7.29,0,.57.01.86.03,2.62.2,4.9-.99,6.25-3.1ZM401.83,86.55c-1.65,4.46-5.85,8.35-11.2,10.42-9.36,3.6-21.51,2.8-30.23-2-4.3-2.37-9.74-6.86-11.3-14.74-1.38-6.98,1.29-14.83,7.93-23.35.83-1.07,1.71-2.04,2.61-2.87,4.22-3.89,9.48-5.11,15.61-3.66,10.57,2.58,22.29,12.96,26.11,23.14,1.71,4.55,1.87,9.31.47,13.07ZM437.89,103.54c-.75,2.4-.12,4.99,1.64,6.79,4.22,4.27,4.58,12.17.83,17.61-3.77,5.43-11.25,8.5-18.67,7.68-7.15-.85-14.28-5.03-19.58-11.49-3.91-4.76-6.09-9.95-6.19-14.69,8.83-3.52,15.6-10.12,18.6-18.16,2.57-6.88,2.39-14.9-.48-22.56-.11-.27-.23-.53-.35-.8,12.21-5.77,27.13-5.26,38.93,1.34,6.38,3.56,12.58,10.39,11.13,16.97-.68,3.12-3.26,6.24-6.91,8.35-4.05,2.35-8.99,3.47-13.7,4.33-2.49.45-4.49,2.22-5.25,4.63ZM451.96,193.44c23.51,110.58-52.57,189.83-124.87,224.08-83.38,39.49-199.62,39.27-271.37-50.29-15.03-18.76-26.32-39.98-33.58-63.08-17.5-55.66-8.03-121.75,25.33-176.8,30.4-50.15,76.16-83.96,125.56-92.76,16.18-2.89,32.72-4.32,49.33-4.32,25.18,0,50.45,3.33,74.59,9.93-8,3.32-14.25,10.25-16.53,18.61-3.08,11.22.76,24.02,9.79,32.62,4.11,3.9,9.34,6.99,15.11,8.94,4.99,1.67,10.35,2.4,15.75,2.45,7.92-.09,15.17-2.16,21.06-6.03,3.09,4.08,7.04,7.45,11.72,10.03,2.31,1.28,4.83,2.38,7.49,3.27,6.55,2.2,13.93,2.97,21.36,2.27.76,7.12,3.84,14.13,8.94,20.35,5.56,6.8,12.92,11.99,20.71,14.6,2.54.85,5.17,1.45,7.8,1.76,1.33.15,2.67.22,3.99.22,4.06,0,8.04-.71,11.74-2.01,7.07,14.12,12.55,29.5,16.09,46.16Z"/>
</svg>