<?xml version="1.0" encoding="UTF-8"?>
<svg id="Layer_1" data-name="Layer 1" xmlns="http://www.w3.org/2000/svg" viewBox="0 0 470.44 445.99">
  <defs>
    <style>
      .cls-1 {
        fill: #000;
        stroke-width: 0px;
      }
    </style>
  </defs>
  <path class="cls-1" d="M140.34,192.46c.48,0,.98-.06,1.48-.17,3.65-.81,5.95-4.43,5.13-8.07-4-17.98,1.28-37.53,13.79-51.04,3.54-3.82,6.74-6.02,9.79-6.76,8.02-1.96,16.76,6.08,21.22,15.02,5.5,11.02,7.52,23.81,5.67,36-.56,3.7,1.98,7.14,5.68,7.7,3.61.55,7.14-1.98,7.7-5.68,2.26-14.92-.21-30.57-6.94-44.07-6.86-13.74-20.8-25.9-36.5-22.13-5.73,1.38-11.14,4.88-16.55,10.72-15.49,16.72-22.04,40.93-17.08,63.18.7,3.16,3.5,5.3,6.6,5.3Z"/>
  <path class="cls-1" d="M267.33,185.14c3.7-.56,6.24-4.01,5.68-7.7-1.84-12.19.17-24.97,5.68-36,4.44-8.93,13.14-17.01,21.22-15.02,3.05.73,6.24,2.94,9.79,6.76,12.51,13.51,17.8,33.06,13.79,51.04-.81,3.65,1.48,7.26,5.13,8.07.5.11.99.17,1.48.17,3.1,0,5.9-2.14,6.6-5.3,4.96-22.25-1.59-46.46-17.08-63.18-5.41-5.84-10.82-9.35-16.54-10.72-15.69-3.73-29.64,8.39-36.5,22.13-6.74,13.5-9.21,29.15-6.95,44.07.56,3.7,4.05,6.22,7.7,5.68Z"/>
  <path class="cls-1" d="M469.55,200.92c-5.14-59.53-33.08-112.41-78.67-148.88C338.49,10.1,268.2-7.38,192.99,2.86c-57.28,7.78-111.56,42.54-148.94,95.37C6.68,151.05-7.88,214.46,4.1,272.21c5.26,25.35,15.02,49.14,29.01,70.72h0c47.78,73.7,122.54,103.06,194.39,103.06,30.14,0,59.78-5.17,86.68-14.41,103.43-35.51,164.42-126.05,155.38-230.67ZM309.78,418.78c-86.04,29.56-201.46,15.28-265.31-83.21h0c-13.07-20.17-22.19-42.41-27.12-66.12-11.22-54.08,2.54-113.64,37.75-163.4C90.31,56.26,141.24,23.54,194.81,16.27c71.52-9.72,138.15,6.74,187.63,46.33,42.66,34.14,68.81,83.67,73.64,139.48,10.29,119.21-68.82,190.11-146.29,216.7Z"/>
  <path class="cls-1" d="M381.74,252.63c-.1-.49-.28-.92-.48-1.37-.16-.35-.29-.71-.5-1.02-.28-.42-.63-.76-.99-1.11-.26-.25-.49-.5-.78-.71-.4-.27-.84-.45-1.29-.64-.38-.16-.74-.32-1.15-.4-.15-.03-.27-.13-.43-.15-.32-.04-.61.06-.92.06-.31,0-.6-.1-.91-.06-137.16,18.37-186.61,6.57-276.82-19.64-.31-.09-.61-.03-.92-.07-.33-.05-.62-.2-.96-.2h0c-.15,0-.27.07-.41.08-.44.03-.83.14-1.25.25-.45.12-.89.21-1.29.41-.36.17-.65.42-.97.66-.38.28-.75.53-1.06.88-.27.3-.45.64-.67.99-.25.41-.5.8-.66,1.25-.05.13-.15.22-.18.35-.09.32-.03.63-.08.94-.05.32-.19.61-.19.94,0,5.5,0,11.01.38,16.49,2.65,37.78,23.83,73.87,56.65,96.55,24.69,17.06,55.59,26.21,87.25,26.21,7.35,0,14.75-.5,22.12-1.49,64.12-8.72,118.58-59.01,126.68-116.97.04-.32-.06-.61-.06-.92,0-.31.1-.6.06-.92-.02-.15-.11-.26-.14-.4ZM253.37,358.41c-35.74,4.88-72.17-3.31-99.84-22.44-29.03-20.06-48.51-53.15-50.84-86.36-.15-2.17-.21-4.34-.26-6.52,56.8,16.36,98.58,26.6,158.73,26.6,29.45,0,63.43-2.49,105.63-7.87-11.3,48.37-58.4,89.11-113.42,96.59Z"/>
</svg>