<?xml version="1.0" encoding="UTF-8"?>
<svg id="Layer_1" data-name="Layer 1" xmlns="http://www.w3.org/2000/svg" viewBox="0 0 472.51 442.69">
  <defs>
    <style>
      .cls-1 {
        fill: #000;
        stroke-width: 0px;
      }
    </style>
  </defs>
  <path class="cls-1" d="M226.92,442.69c-66.7,0-134.58-24.67-181.76-83.58-16.07-20.07-28.16-42.77-35.93-67.48C-9.42,232.32.55,162.09,35.9,103.76,68.31,50.28,117.43,14.17,170.65,4.68c136.74-24.35,263.3,48.34,294.48,169.08,30.74,119.08-39.73,202.26-115.93,240.39-36.28,18.16-79.05,28.54-122.29,28.54ZM223.12,13.54c-16.42,0-33.16,1.45-50.09,4.47-49.4,8.8-95.16,42.61-125.56,92.76C14.11,165.82,4.64,231.92,22.14,287.58c7.27,23.11,18.57,44.33,33.59,63.08h0c73.29,91.5,200.06,95.1,287.41,51.4,71.48-35.77,137.62-113.63,108.88-224.91C426.48,78.18,332.45,13.54,223.12,13.54Z"/>
  <path class="cls-1" d="M231.61,378.6c-30.12,0-59.55-8.29-83.52-23.92-33.42-21.8-55.55-57.31-59.22-94.99-.53-5.47-.68-10.99-.82-16.49-.1-3.73,2.86-6.84,6.6-6.93,3.84-.13,6.84,2.86,6.93,6.6.13,5.17.26,10.35.77,15.51,3.22,33.13,23.58,65.69,53.14,84.97,28.16,18.37,64.73,25.56,100.41,19.74,58.1-9.5,106.34-56.14,112.22-108.47.43-3.72,3.69-6.37,7.49-5.97,3.71.42,6.38,3.77,5.97,7.48-6.54,58.15-59.63,109.88-123.5,120.32-8.8,1.44-17.67,2.15-26.48,2.15Z"/>
  <path class="cls-1" d="M118.36,176.62c-8.17,0-16.85-1.61-25.94-5.47-3.44-1.46-5.04-5.43-3.59-8.87,1.48-3.44,5.45-5.06,8.88-3.58,45.02,19.07,78.24-29.92,79.63-32.02,2.05-3.11,6.26-3.98,9.37-1.91,3.12,2.06,3.98,6.25,1.92,9.37-.34.51-28.61,42.49-70.27,42.49Z"/>
  <path class="cls-1" d="M348.24,176.62c-41.68,0-69.93-41.98-70.27-42.49-2.06-3.12-1.19-7.31,1.92-9.37,3.12-2.07,7.31-1.2,9.37,1.91,1.4,2.1,34.63,51.1,79.63,32.02,3.4-1.48,7.4.14,8.88,3.58,1.45,3.44-.15,7.41-3.59,8.87-9.09,3.85-17.78,5.47-25.94,5.47Z"/>
  <path class="cls-1" d="M42.18,220.36c-1.05,0-2.11-.25-3.12-.77-3.32-1.72-4.6-5.82-2.87-9.12,5.79-11.1,14.06-21.04,23.93-28.74,2.91-2.29,7.18-1.8,9.49,1.17,2.3,2.95,1.78,7.2-1.17,9.5-8.35,6.52-15.35,14.93-20.25,24.32-1.21,2.32-3.57,3.64-6.01,3.64Z"/>
  <path class="cls-1" d="M75.54,220.52c-1.29,0-2.59-.37-3.74-1.14-3.11-2.07-3.94-6.27-1.87-9.38,5.84-8.76,12.83-16.71,20.77-23.64,2.81-2.45,7.07-2.18,9.55.65,2.46,2.81,2.17,7.09-.65,9.55-7.04,6.15-13.24,13.19-18.41,20.95-1.3,1.95-3.45,3.01-5.64,3.01Z"/>
  <path class="cls-1" d="M364.36,220.34c-1.59,0-3.17-.55-4.45-1.67-2.82-2.46-3.11-6.73-.65-9.55l15.42-17.67c2.46-2.82,6.72-3.1,9.55-.66,2.81,2.46,3.11,6.73.65,9.55l-15.42,17.68c-1.34,1.53-3.22,2.32-5.1,2.32Z"/>
  <path class="cls-1" d="M417.11,220.09c-1.84,0-3.68-.75-5.01-2.22-2.51-2.77-2.3-7.05.46-9.56,3.13-2.83,5.3-6.84,5.96-10.99.59-3.7,4.1-6.23,7.75-5.61,3.69.59,6.2,4.06,5.62,7.75-1.17,7.24-4.8,13.94-10.23,18.87-1.3,1.18-2.93,1.76-4.55,1.76Z"/>
</svg>