<?xml version="1.0" encoding="UTF-8"?>
<svg id="Layer_1" data-name="Layer 1" xmlns="http://www.w3.org/2000/svg" viewBox="0 0 470.44 445.98">
  <defs>
    <style>
      .cls-1 {
        fill: #000;
        stroke-width: 0px;
      }
    </style>
  </defs>
  <path class="cls-1" d="M469.56,200.9c-5.14-59.53-33.07-112.41-78.66-148.88C338.49,10.1,268.23-7.36,192.99,2.85c-57.28,7.78-111.57,42.54-148.95,95.38C6.68,151.05-7.88,214.45,4.1,272.19c5.26,25.36,15.02,49.16,29.02,70.74,47.78,73.68,122.55,103.06,194.38,103.06,30.14,0,59.78-5.17,86.69-14.41,103.42-35.51,164.41-126.05,155.37-230.67ZM309.79,418.77c-86.06,29.56-201.46,15.27-265.32-83.21h-.01c-13.07-20.16-22.19-42.4-27.1-66.12-11.22-54.08,2.53-113.63,37.73-163.4C90.31,56.26,141.24,23.53,194.82,16.26c13.41-1.82,26.65-2.73,39.65-2.73,56.26,0,107.78,16.9,147.97,49.05,42.67,34.14,68.81,83.68,73.64,139.48,10.3,119.21-68.81,190.1-146.28,216.7Z"/>
  <path class="cls-1" d="M112.34,106.8c-10.3,5.74-17.63,17.13-20.68,32.09-3.56,17.46-.35,35.82,8.17,46.8,6.72,8.65,17.64,13.77,28.57,13.77,2.1,0,4.21-.19,6.29-.59,12.83-2.42,23.94-12.47,27.63-25,5.23-17.73,2.48-40.59-6.7-55.57-9.57-15.65-27.39-20.39-43.28-11.5ZM149.34,170.04c-2.3,7.79-9.2,14.03-17.17,15.53-7.87,1.44-16.75-1.88-21.66-8.19-6.1-7.86-8.36-22.25-5.59-35.79,2.21-10.87,7.32-19.24,14.01-22.97,9.55-5.31,19.38-2.67,25.16,6.74,7.2,11.78,9.42,30.57,5.26,44.68Z"/>
  <path class="cls-1" d="M302.56,106.8c-10.3,5.74-17.63,17.13-20.68,32.09-3.56,17.46-.35,35.82,8.17,46.8,6.72,8.65,17.64,13.77,28.57,13.77,2.1,0,4.21-.19,6.29-.59,12.83-2.42,23.94-12.47,27.63-25,5.22-17.72,2.47-40.57-6.7-55.57-9.58-15.65-27.39-20.39-43.28-11.5ZM339.56,170.04c-2.3,7.79-9.2,14.03-17.17,15.53-7.86,1.44-16.76-1.88-21.66-8.19-6.1-7.86-8.35-22.25-5.6-35.79,2.21-10.87,7.32-19.24,14.01-22.97,9.55-5.31,19.38-2.67,25.16,6.74,7.2,11.79,9.42,30.59,5.26,44.68Z"/>
  <path class="cls-1" d="M230.21,217.27c-9.48-2.45-19.67-.44-28.72,5.68-30.01,20.29-34.87,87.46-15.51,117.67,8.34,13.01,22.03,20.7,35.82,20.7,2.71,0,5.43-.3,8.11-.91,15.95-3.66,29.68-18.5,34.18-36.93,6.49-26.67,3.07-61.05-8.3-83.6-5.98-11.85-15.06-19.88-25.56-22.61ZM250.92,320.29c-3.3,13.57-12.97,24.4-24.04,26.93-10.82,2.48-22.61-3.13-29.52-13.9-15.73-24.57-12.13-83.05,11.7-99.16,5.89-3.98,12.04-5.28,17.74-3.8,6.69,1.74,12.69,7.29,16.88,15.61,9.9,19.62,12.94,50.87,7.24,74.31Z"/>
  <path class="cls-1" d="M127.6,143.6c-5.29,0-9.58,5-9.58,11.17s4.29,11.17,9.58,11.17,9.58-5,9.58-11.17-4.29-11.17-9.58-11.17Z"/>
  <ellipse class="cls-1" cx="317.81" cy="150.94" rx="9.58" ry="11.17"/>
</svg>