<?xml version="1.0" encoding="UTF-8"?>
<svg id="Layer_1" data-name="Layer 1" xmlns="http://www.w3.org/2000/svg" viewBox="0 0 470.78 439.5">
  <defs>
    <style>
      .cls-1 {
        fill: #000;
        stroke-width: 0px;
      }
    </style>
  </defs>
  <path class="cls-1" d="M469.54,198.77C454.6,62.8,317.49-8.58,193.38.82c-53.9,4.12-106.37,35.13-143.97,85.1C8.41,140.43-8.53,209.32,4.1,270.21c5.25,25.35,15.01,49.15,29,70.73h0c45.71,70.49,117.91,98.56,188.47,98.56,32.02,0,63.72-5.79,92.42-16.02,105.37-37.55,166.42-125.76,155.55-224.71ZM309.45,410.73c-86.9,30.99-202.55,19.14-264.98-77.16h0c-13.07-20.17-22.19-42.41-27.11-66.11-11.85-57.13,4.18-121.95,42.88-173.4C95.49,47.2,144.39,18.14,194.42,14.32c117.57-8.91,247.62,58.1,261.67,185.93,12.35,112.38-71.28,183.63-146.64,210.49Z"/>
  <path class="cls-1" d="M208.78,241.51c-12.85,7.16-22.04,21.49-25.88,40.35-4.5,22.12-.48,45.33,10.24,59.14,8.35,10.75,21.94,17.12,35.51,17.12,2.62,0,5.23-.24,7.81-.73,15.95-3.02,29.74-15.51,34.34-31.07,6.64-22.52,3.16-51.54-8.49-70.57-11.84-19.36-33.85-25.21-53.53-14.24ZM257.81,322.49c-3.19,10.82-12.78,19.5-23.87,21.6-11.06,2.04-23.19-2.49-30.12-11.4-8.27-10.66-11.35-30-7.65-48.14,2.99-14.71,9.99-26.09,19.21-31.23,13.21-7.36,27.42-3.55,35.39,9.48,9.64,15.76,12.6,40.86,7.04,59.68Z"/>
  <path class="cls-1" d="M191.36,148.13c-3.24-1.91-7.37-.83-9.26,2.4-8.36,14.22-17.73,21.7-27.83,22.24-19.42,1.04-37.15-22.6-37.33-22.84-2.23-3-6.48-3.63-9.46-1.41-3,2.22-3.64,6.45-1.43,9.46.88,1.18,21.23,28.36,47,28.36.62,0,1.26-.02,1.88-.05,14.93-.78,28-10.5,38.82-28.9,1.89-3.22.82-7.37-2.4-9.26Z"/>
  <path class="cls-1" d="M338.36,149.93c-.18.24-17.62,24-37.32,22.84-10.1-.54-19.46-8.02-27.83-22.24-1.89-3.22-6.04-4.29-9.26-2.4-3.22,1.89-4.3,6.04-2.4,9.26,10.83,18.4,23.89,28.12,38.82,28.9.63.03,1.26.05,1.88.05,25.76,0,46.11-27.18,46.99-28.37,2.21-3,1.57-7.23-1.43-9.45-2.98-2.22-7.23-1.59-9.46,1.41Z"/>
</svg>