<?xml version="1.0" encoding="UTF-8"?>
<svg id="Layer_2" data-name="Layer 2" xmlns="http://www.w3.org/2000/svg" viewBox="0 0 45.87 58.39">
  <g id="Layer_1" data-name="Layer 1">
    <path d="M24.79,27l-.57.96c-.27,7.86-.57,15.69,0,23.58l3.24-6.54c.79-1.15,2.83-.3,2.82.9-.02,1.13-4.89,11.29-5.79,12.03-1.81,1.49-3.03-1.12-4.03-2.44-1.45-1.91-4.79-6.48-5.77-8.42-.45-.89-.83-2.17-.06-3.02l1.93-.4c1.22,2.07,2.39,4.25,3.74,6.23.23.34-.06.71.85.5v-23.39c-3.58-.71-18.39,1.66-20.52-.38-1.3-1.24-.2-4.42-.17-5.93C.59,14.23.19,7.74.61,1.28c.22-.31,3.52-.71,4.23-.76,7.23-.48,15.3.11,22.66.03,5.13-.06,10.54-.88,15.72-.42,1.02.09,2.25.13,2.47,1.36.52,2.86-.29,7.06-.4,9.95-.09,2.28-.06,13.84-.72,14.9-.12.2-.84.65-.99.65h-18.79ZM11.18,3.61c-3.25-.8-5.08,1.82-6.67,4.25-1.38,2.11-1.03,3.24-.99,5.72,2.06-2.08,4.16-4.59,5.9-6.94.33-.44,2.17-2.67,1.76-3.03ZM18.47,3.61c-3.41-.26-3.94-.24-6.13,2.12-1.15,1.23-8.32,10.05-8.62,10.94-.54,1.6-.04,3.67-.2,5.35L18.47,3.61ZM25.37,3.61l-4.6.19c-3.92,5.12-8.27,9.91-12.26,14.96-.52.65-3.84,4.83-3.66,5.17l4.41-.19L25.37,3.61ZM32.65,3.61c-1.62.19-3.69-.54-5.01.55-4.12,4.82-8.36,9.59-12.24,14.6-.41.53-3.81,4.87-3.46,5.16,4.18.86,4.55-1.75,6.7-4.22,3.85-4.42,8.1-8.55,11.9-13.03.3-.35,2.39-2.83,2.1-3.07ZM39.17,3.61l-4.05.36c-4.84,5.94-10.54,11.29-15.32,17.27-.29.36-2.02,2.43-1.72,2.69,4.2,1.03,6.1-3.48,8.62-6.14,4.04-4.26,8.33-8.33,11.89-13.03.29-.38.75-.48.57-1.15ZM38.54,12.18c2.67-2.82,5.24-3.49,3.89-8.57l-18.21,20.32,4.04-.76c3.41-3.68,6.84-7.36,10.28-11ZM42.24,16.84v-5.56l-11.51,12.46,5.36-.39,6.14-6.51ZM38.79,23.55l2.9-.36.16-3.09-3.06,3.45Z"/>
  </g>
</svg>