<?xml version="1.0" encoding="UTF-8"?>
<svg id="Layer_2" data-name="Layer 2" xmlns="http://www.w3.org/2000/svg" viewBox="0 0 51.99 95.25">
  <g id="Layer_1" data-name="Layer 1">
    <path d="M27.45,24.9v9.59c1.74-.17,2.29-3.09,4.22-2.12s.21,3.11-.77,4.04h20.13c1.75,0,.58,4.92.56,5.93-.06,2.44.42,14.62-.34,15.68-.12.16-1.24.63-1.37.63h-22.82v9.59c1.75-1,3.35-4.75,5.5-2.2.66,1.64-1.4,2.49-2.05,3.73h9.01c6.88,8.66,1.97,24.14-9.59,25.3-9.51.96-19.13-1.52-20.12-12.46-.23-2.49.27-12.37,2.69-13.43l8.8.59c-1.47-1.39-2.68-3.66-.17-4.62l2.85,1.94v-8.44c-6.43.11-13.77.97-20.15.4-2.3-.2-2.98-1-3.24-3.28-.57-4.96-.38-10.35-.37-15.35,0-1.15-.78-2.87.47-3.92.88-.74,17.35.35,19.84-.1-3.59-4,.79-5.34,3.26-1.53.16-.21.57-1.27.57-1.34v-8.44c0-.2-.64-.63-.97-.57l-16.88.2c-.53-.04-1.02-.38-1.29-.82-.41-.68-.76-4.93-.82-6.08-.15-2.81-.32-13.7.98-15.54C6.9.17,14.33.87,16.92.75c8.84-.39,20.44-1.21,29.15-.42,2.98.27,3.05,2.09,3.26,4.8.48,6.16-.34,12.82-.58,19-.97,1.64-8.71.36-10.75.35-3.52-.02-7.05.17-10.54.42ZM7.89,21.44h37.96l-.06-17.57c-5.5-.49-11.35-.54-17.02-.47-1.09.01-2.02.4-3.03.42-5.93.13-11.99-.57-17.79.81-.74,5.61-.21,11.19-.05,16.82ZM3.27,39.47v16.12h45.29v-16.12H3.27ZM14.27,72.5c-.71.25-.83,2.1-.95,2.88-1.07,6.52-.75,13.44,6.46,15.67,13.05,4.02,23.74-4.61,18.04-18.04l-23.55-.51Z"/>
  </g>
</svg>