<?xml version="1.0" encoding="UTF-8"?>
<svg id="Layer_2" data-name="Layer 2" xmlns="http://www.w3.org/2000/svg" viewBox="0 0 71.52 43.27">
  <g id="Layer_1" data-name="Layer 1">
    <g>
      <path d="M2.97,36.44l-1.94-.17c-.34-.24-.63-1.84-.7-2.37C-.4,28.04.07,9.85,1.76,4.35c.41-1.35,1.08-2.42,2.47-2.9,1.9-.65,6.71-.97,8.89-1.08C26.78-.29,43.18-.02,56.86.76c3.17.18,8.07.28,11.02.87s3.19,4.38,3.36,6.99c.43,6.64.3,15.56-.02,22.25-.08,1.68-.21,5.34-.54,6.74-1.14,4.78-9,3.17-12.68,3.43-14.55,1.02-31.5,3.02-46.01,1.91-2.48-.19-4.68-.59-6.68-2.14-1.16-.89-3.3-2.86-2.34-4.37ZM68.16,36.05V7.85s-.75-3.07-.75-3.07c-9.45-1.26-19.01-1.3-28.54-1.37-2.56-.02-5.14.06-7.7.07-3.31.02-25.39-.39-26.32.98-2.42,10.3-1.19,21.09-1.49,31.59h64.81ZM54.74,38.74H7.19c.53.91,2.99,1.07,4.03,1.15,4.99.37,10.65-.06,15.73-.01,8.56.07,17.39.32,26.06-.36.45-.04,1.72-.12,1.72-.77Z"/>
      <path d="M61.93,13.72c-.95.91-4.31.3-5.66.48l-.38,4.22c1.68.26,6.22-1,6.12,1.74-.09,2.38-4.67.74-5.76,1.5l-.36,4.05c2.1.31,6.41-1.18,6.1,2.05-.49,1.53-8.03,2.23-8.97.25-.36-.76-.37-12.43-.2-14.01.06-.57.42-1.83.75-2.22.66-.78,6.86-.92,7.82-.58s1.21,1.88.55,2.53Z"/>
      <path d="M37.1,14.19c-.37,2.41.69,13.65-.48,14.86-.61.63-1.9.41-2.39-.31-.95-1.41.32-14.03-.2-14.56-1.77-.12-4.51.76-4.62-1.7.13-.79.61-1.21,1.37-1.35,1.01-.19,8.66-.18,9.5.07,3.12.92-.73,4.19-3.18,2.99Z"/>
      <path d="M22.43,13.72c-.77.77-3.05.4-4.12.47l.39,13.22c-.37,1.54-1.93,1.9-2.85.56-1.44-2.07-.09-13.27-.59-13.78l-3.96-.06c-3.96-3.8,8.53-3.33,10.28-3,.63.12,1.07.41,1.3,1.03.1.43-.11,1.25-.42,1.55Z"/>
      <path d="M45.92,26.08c1.49.39,3.89-.9,5,.18,2.54,3.83-7.03,3.31-7.71,2.24-.57-.9-.51-12.95-.37-14.91.15-2.16.42-2.55,2.71-1.9,1.49,1.51.39,3.31.36,4.97-.06,3.13.08,6.28.01,9.41Z"/>
      <path d="M24.83,12.47c.13-.81,1.22-1.49,2.03-1.29,1.02.4.97,1.11,1.06,2.03.45,4.45-.37,9.66-.03,14.2-.26,1.52-2.15,1.87-3.06.78.56-4.74-.75-11.2,0-15.72Z"/>
    </g>
  </g>
</svg>