<?xml version="1.0" encoding="UTF-8"?>
<svg id="Layer_3" data-name="Layer 3" xmlns="http://www.w3.org/2000/svg" viewBox="0 0 58.38 50.99">
  <g id="Layer_1" data-name="Layer 1">
    <path d="M54.13,6.03c.3.3,1.07.33,1.43.67,1.38,1.33,2.16,3.05,2.33,4.97.7,7.83.64,22.83-.02,30.69-.65,7.7-5.93,7.95-12.43,8.25-10.7.51-22.72.51-33.41.01-1.6-.07-5.41-.24-6.7-.58-1.94-.51-1.65-1.59-2.51-2.48-.99-1.03-2.25-1.1-2.49-2.88-.87-6.56.26-16.21.42-23.01.13-5.37-.06-10.88.03-16.14,0-.58.31-1.13.71-1.53l49.47,1.35c.14-1.16-1.36-1.28-2.21-1.43-10.76-1.94-25.65-.85-36.69-.47-1.78.06-4.17.31-3.99-2.05l1.3-1.03c10.24-.49,20.43-.52,30.65,0,3.18.16,10.8-.43,12.87,2.47.63.88.72,2.66,1.23,3.18ZM50.96,8.04L3.79,7.27v37.2s46.79,0,46.79,0l.38-36.43ZM54.41,46c.39-.37-.04-4.17.01-5.17.43-9.21.21-18.38.36-27.63.02-1.54,1.18-3.33-.75-4.39.31,10.68-.76,21.35-.4,32.04.03.91.37,1.76.43,2.67.03.38-.81,3.58.34,2.49ZM50.58,47.54l-44.1.57c12.4,1.53,24.94-.21,37.42.19l6.68-.77Z"/>
  </g>
</svg>