<?xml version="1.0" encoding="UTF-8"?>
<svg id="Layer_3" data-name="Layer 3" xmlns="http://www.w3.org/2000/svg" viewBox="0 0 67.05 49.88">
  <g id="Layer_1" data-name="Layer 1">
    <g>
      <path d="M4.15,46.74l.02-32.04c0-1.81-.72-6.96.15-8.25.69-1.02,3.19-.18,2.92,1.34l.35,38.76,50.46-.19c1.96-.94,7.62-.39,5.36,2.68-.47.63-5.21-.05-6.54-.02-18.38.41-36.77,1.05-55.22.8-3.76-1.38-.22-3.86,2.52-3.09Z"/>
      <path d="M62.43,8.77c-5.63,5.83-10.02,12.84-15.52,18.8-1.35,1.47-4.88,5.28-6.7,5.59-2.19.37-5.81-4.34-7.11-5.97l-17.25,16.91c-4.36-.09-1.61-2.81-.01-4.64,2.81-3.23,6.96-6.4,10.12-9.46,1.24-1.2,4.82-5.64,5.81-6.06.71-.3,2.02-.41,2.68,0l5.56,5.57c8.18-6.73,13.82-16.12,20.9-23.99l-.19-.57c-1.91,2.44-6.31.17-4.03-1.73.36-.3,8.19-3.13,8.73-3.19,1.08-.12,1.62.62,1.64,1.64.02.68-1.41,8.7-1.64,9.14-1.29,2.5-3.69.32-2.99-2.02Z"/>
    </g>
  </g>
</svg>