<?xml version="1.0" encoding="UTF-8"?>
<svg id="Layer_2" data-name="Layer 2" xmlns="http://www.w3.org/2000/svg" viewBox="0 0 63.63 17.35">
  <g id="Layer_1" data-name="Layer 1">
    <g>
      <path d="M44.22,10.78c-1.44-.41-1.02-2.56.46-2.99l11.61-.08c.21-.91-.15-.62-.5-.86-1.49-1.01-5.73-3.03-6.59-4.14C48.28,1.49,48.84-.01,50.36,0c2.14.01,9.89,6.82,12.75,7.42.96,1.74.58,2.6-.93,3.67-1.69,1.2-8.44,5.22-10.2,5.9-.74.29-1.77.65-2.39-.08-1.75-3.73,4.69-3.85,6.33-6.14-3.01-.55-9.09.74-11.7,0Z"/>
      <path d="M14.98,11.07c-.92-.91-.45-2.61.94-2.88,1.72-.34,9.29-.86,7.22,2.6-.66,1.1-7.36,1.07-8.16.28Z"/>
      <path d="M36.94,7.71c2.76,5.57-5.17,2.42-8.19,3.01l-.29-1.88c.04-.47.85-1.13,1.19-1.13h7.29Z"/>
      <path d="M1.66,8.48h6.52c.19,0,1,.96.98,1.36.2.49-.7,1.71-.98,1.71H2.43c-.13,0-.37.37-.96.24-2.17-.48-1.78-2.66.19-3.3Z"/>
    </g>
  </g>
</svg>