<?xml version="1.0" encoding="UTF-8"?>
<svg id="Layer_2" data-name="Layer 2" xmlns="http://www.w3.org/2000/svg" viewBox="0 0 20.49 28.46">
  <g id="Layer_1" data-name="Layer 1">
    <path d="M17,12.71l-3.9,6.64c-1.78,2.74-8.44,9.24-11.63,9.12-1.38-.05-1.84-1.23-1.16-2.35.33-.55,1.94-.79,2.63-1.21,4.51-2.75,9.27-7.73,10.61-12.97-1.36.79-2.54,3.4-4.44,1.95-1.86-1.42,1.61-3.39,2.52-4.45C13.08,7.72,16.16.51,16.61.24c.58-.35,1.41-.25,2.06-.14,1.53.53.91,6.3,1.01,7.81.15,2.13.89,5.73.8,7.68-.12,2.42-2.89,2.24-3.4-.08-.2-.92-.05-1.87-.09-2.79Z"/>
  </g>
</svg>