<?xml version="1.0" encoding="UTF-8"?>
<svg id="Layer_2" data-name="Layer 2" xmlns="http://www.w3.org/2000/svg" viewBox="0 0 50.19 63.64">
  <g id="Layer_1" data-name="Layer 1">
    <g>
      <path d="M2.04,62.36c-2.72-2.24-2.38-5.35-.95-8.19.97-1.92,11.07-15.83,12.22-16.16.74-.21,1.96.11,2.36-.13.13-.08.78-2.2,1.58-2.43C7.05,25.61,8.96,8.15,22.17,2c17.3-8.05,33.92,9.68,25.98,26.74-4.31,9.24-14.85,12.49-24.38,10.51-.14,1.26-1.96,2.75-2.2,3.56s-.01,1.65-.38,2.69c-.77,2.16-10.55,15.92-12.38,17.14-2.12,1.41-4.78,1.34-6.76-.29ZM47.28,19.97c0-9.29-7.53-16.82-16.82-16.82S13.63,10.68,13.63,19.97s7.53,16.82,16.82,16.82,16.82-7.53,16.82-16.82ZM20.71,36.02c-.56-.42-2.61,2.69-2.64,2.93-.11.76,1.23,1.7,2.21.66,1.26-1.33,1.13-2.04.43-3.59ZM18.39,43.33c-2.61-.62-2.68-3.32-5.16-.8-1.55,1.57-9.02,11.87-9.73,13.65-1.39,3.51,1.74,5.9,4.76,2.84,1.98-2.01,8.47-11.49,9.71-14.07.25-.53.61-1,.42-1.63Z"/>
      <path d="M45.56,20.04c0,8.35-6.77,15.12-15.12,15.12s-15.12-6.77-15.12-15.12,6.77-15.12,15.12-15.12,15.12,6.77,15.12,15.12ZM42.58,20.02c0-6.69-5.42-12.11-12.11-12.11s-12.11,5.42-12.11,12.11,5.42,12.11,12.11,12.11,12.11-5.42,12.11-12.11Z"/>
    </g>
  </g>
</svg>