<?xml version="1.0" encoding="UTF-8"?>
<svg id="Layer_3" data-name="Layer 3" xmlns="http://www.w3.org/2000/svg" viewBox="0 0 90.08 77.2">
  <g id="Layer_1" data-name="Layer 1">
    <g>
      <path d="M61.06,15.23c0,8.41-6.82,15.23-15.23,15.23s-15.23-6.82-15.23-15.23S37.43,0,45.84,0s15.23,6.82,15.23,15.23ZM57.85,15.22c0-6.65-5.39-12.04-12.04-12.04s-12.04,5.39-12.04,12.04,5.39,12.04,12.04,12.04,12.04-5.39,12.04-12.04Z"/>
      <path d="M29.92,50.81c0,8.26-6.7,14.96-14.96,14.96S0,59.07,0,50.81s6.7-14.96,14.96-14.96,14.96,6.7,14.96,14.96ZM26.73,50.83c0-6.51-5.28-11.79-11.79-11.79s-11.79,5.28-11.79,11.79,5.28,11.79,11.79,11.79,11.79-5.28,11.79-11.79Z"/>
      <g>
        <path d="M90.08,53.42c0,8.12-6.59,14.71-14.71,14.71s-14.71-6.59-14.71-14.71,6.59-14.71,14.71-14.71,14.71,6.59,14.71,14.71ZM86.92,53.38c0-6.37-5.16-11.54-11.54-11.54s-11.54,5.16-11.54,11.54,5.16,11.54,11.54,11.54,11.54-5.16,11.54-11.54Z"/>
        <path d="M34.52,71.44c.08.57,1.34.88,1.83,1.04,6.96,2.27,15.68,1.62,22.2-1.74,1.37-.71,5.25-4.06,5.76-4.22.94-.28,1.88-.19,2.05.9.32,1.96-3.95,4.71-5.52,5.61-8.9,5.12-21.91,5.29-30.74-.07.39,1.6,1.81,2.86-.07,4.18-1,.19-1.76-.2-2.37-.97-.28-.35-3.63-6.66-3.73-7.04-1.05-4.22,4.41-1.39,6.22-1.2s6.9-.64,7.38,1.09c.53,1.9-1.63,2.13-3.01,2.42Z"/>
      </g>
      <path d="M77.85,29.64l1.21-3.77h2.18c.23.48.48,1.09.43,1.64s-2.12,6.39-2.48,7.12c-.29.6-.54,1.21-1.23,1.48-.86.24-8.37-3.55-8.75-4.16-.55-.86.12-2.56,1.18-2.71,1.68-.25,2.77,1.86,4.39,1.75-1.49-3.48-3.88-7.24-6.93-9.56-.89-.67-3.7-1.92-4-2.52-.51-1.03-.12-2.61,1.14-2.67,2.21-.1,8.18,5.41,9.34,7.53l3.52,5.87Z"/>
      <path d="M27.53,18.23c.85.83-2.31,9.28-3.15,9.91-.78.59-2.21.16-2.48-.68-.33-1.04,1.21-4.32,1.87-5.3.08-.25-.34-.28-.57-.19-2.73,1.16-5.91,4.67-7.3,7.28-.91,1.71-1.15,4.2-2.69,5.02-4.05.38.24-7.3,1.26-8.74,1.64-2.31,4.38-4.74,6.99-5.86l-4.25-1.68c-.83-1.57-.35-2.97,1.57-2.76,1.15.13,8.06,2.37,8.73,3.02Z"/>
    </g>
  </g>
</svg>