<?xml version="1.0" encoding="UTF-8"?>
<svg id="Layer_3" data-name="Layer 3" xmlns="http://www.w3.org/2000/svg" viewBox="0 0 99.55 66.01">
  <g id="Layer_1" data-name="Layer 1">
    <g>
      <path d="M79.41,50.25c-.1,2.28.36,4.64,1.04,6.82.93,2.97,3.72,5.6,2.7,8.42-1.81,2.09-10.59-2.63-12.52-3.96-3.17-2.2-5.54-5.21-7.97-8.14-8.01.11-16.08.62-24.1.33-15.34-.55-34.59-3.23-38.03-21.41C-3.06,13.45,12.58,3.46,29.03,1.21c13.58-1.86,42.9-2.13,55.35,3.22,22.54,9.67,19.21,42.05-4.97,45.82ZM76.39,47.62c23.18-1.74,27.73-31.93,5.8-40.61-12.42-4.91-41.67-4.49-55.02-2.29C13.6,6.96,1.61,15.2,3.48,30.49c2.64,21.57,32.45,20.38,48.52,20.15,2.54-.04,11.56-1.38,13.12.08,2.68,5.39,8.08,9.48,13.7,11.41l-2.39-7.96c.03-2.21-1.08-4.43-.04-6.56Z"/>
      <path d="M67.03,22.34c8.71-1.77,8.92,12.34.32,11.01-6.05-.94-6.17-9.82-.32-11.01ZM70.71,27.83c0-1.36-1.1-2.46-2.46-2.46s-2.46,1.1-2.46,2.46,1.1,2.46,2.46,2.46,2.46-1.1,2.46-2.46Z"/>
      <path d="M45.79,30.94c-4.76-5.01,1.74-11.72,7.28-8.24,6.46,4.06-1.6,14.22-7.28,8.24ZM51.7,25.41c-1.46-1.46-5.96.19-3.92,2.97,2.32,3.16,5.81-1.08,3.92-2.97Z"/>
      <path d="M27.39,23.92c4.59-4.97,13.31.92,7.92,6.97-4.37,4.9-12.61-1.89-7.92-6.97ZM30.58,25.39c-1.57.48-1.89,3.04-.17,3.86,3.37,1.62,5.18-5.4.17-3.86Z"/>
    </g>
  </g>
</svg>