<?xml version="1.0" encoding="UTF-8"?>
<svg id="Layer_2" data-name="Layer 2" xmlns="http://www.w3.org/2000/svg" viewBox="0 0 81.3 80.5">
  <g id="Layer_1" data-name="Layer 1">
    <g>
      <path d="M38.18,39.69l37.4-1.74c1.42.12,1.58,1.89,1.71,3.09,3.01,29.32-23,44.49-49.47,37.97C-3.58,71.27-10.07,26.72,16.96,9.85c3.19-1.99,16.88-8.23,19.9-5.86l1.31,35.7ZM34.34,7.1c-11.51.9-23.74,9.09-28.28,19.84-5.08,12.01-3.42,28.63,5.52,38.42.61.1,7.71-7.65,8.77-8.79,4.99-5.34,9.72-10.96,14.67-16.35-.63-9.06-.43-18.14-.68-27.21-.05-1.96-.83-4.03,0-5.91ZM73.83,41.22l-35.66,1.53-1.36,34.15c.58.84,9.16-.2,10.71-.46,18.15-3.01,28.27-17.03,26.32-35.22ZM33.57,76.5l1.53-31.06c-1.84,1.7-5.07,4.51-6.05,6.79-.65,1.51-1.11,4.09-1.5,5.78-1.21,5.28-1.86,10.72-3.03,16.01.22,1.36,7.58,2.69,9.06,2.48ZM22.83,73.43l3.84-18.79c-1.41.72-2,2.42-2.48,3.84-1.4,4.12-1.87,9.12-3.2,13.34-.26,1.07.95,1.54,1.84,1.61ZM18.99,71.51l3.07-12.27c-3.52,2.64-3.39,7.26-4.92,11.01-.2.67,1.57,1.47,1.85,1.26ZM15.54,69.21l1.15-4.22-2.67,2.88,1.52,1.34Z"/>
      <path d="M81.02,34.99c-1,.82-2.55.02-3.56.08-10.79.56-22.25,1.62-32.95,1.95-1.33.04-3.37.24-4.41-.6-1.3-1.05-.06-1.56,0-2.65.5-8.5.33-19.87-.45-28.35-.25-2.71-2.31-4.87,1.75-5.24,18.14-1.64,32.91,8.59,38.28,25.79.45,1.45,2.3,8.22,1.33,9.02ZM53.51,4.03c-3.54-.34-7.15-1.38-10.69-.35l.34,17.21,10.35-16.87ZM58.88,5.95c-1.2-.12-2.99-1.77-4.02-.78l-11.12,19.57-.57,4.21c5.12-6.43,8.5-15.4,13.98-21.48.6-.67,1.38-.88,1.73-1.52ZM63.44,8.67l-2.8-1.57c-.75,1.27-2,2.14-2.89,3.26-2.54,3.17-12.7,18.43-13.63,21.65-.15.52-.25,1-.18,1.54l2.87-.38c3.34-5.4,6.92-10.67,10.62-15.84,1.32-1.84,5.17-6.08,5.87-7.56.16-.34.36-.74.15-1.1ZM48.91,33.55c.66-.02,1.38.12,2.03-.08,1.33-.4,8.59-11.65,10.09-13.68.85-1.16,6.23-7.41,6.19-7.91-.03-.4-1.75-1.83-2.21-1.55l-16.1,23.22ZM69.23,13.61c-.59-.14-.61.09-.93.41-5.52,5.54-9.37,12.91-14.02,19.15l4.22-.57,12.54-16.11-1.81-2.87ZM72.68,18.6l-3.05,2.5-8.06,11.3c1-.09,2.22.2,3.18-.08,1.65-.48,6.82-9.29,8.91-10.67.6-1.18-.84-1.92-.98-3.05ZM67.7,32.4c2.76.13,4.82-2.57,6.29-4.63,1.1-1.53,2.51-2.86.8-4.56l-7.09,9.19ZM76.9,27.8c-.74-.71-3.52,3.65-3.83,4.21h4.6s-.77-4.21-.77-4.21Z"/>
      <path d="M49.3,57.71l.87-4.68c2.95-8.88,8.98-1.85,7.77,4.7-.57,3.09-3.47,7.24-6.75,4.42-.81-.69-.75-1.72-1.51-2.13-.1,3.44-6.28,6.44-8.07,2.85-.26-3.04,4.57.03,5.02-3.07s-3.15-.87-3.68-3.2c-.34-1.52,2.73-1.94,2.91-4.44.09-1.23-1.24.4-2.33-.37-2.06-1.44,2.73-4.95,4.64-1.58,1.03,1.81-.24,3.48-.34,5.31l1.48,2.18ZM52.75,60.01c2.98.37,2.99-7.28,1.33-8.05-.66-.31-.6.44-.75.76-1.09,2.47-1.28,4.64-.59,7.29Z"/>
      <path d="M66.05,50.1c.96-.34,2.39.17,2.41,1.27l-6.9,11.51c-1.48.76-2.54-.69-2.14-2.12l6.63-10.67Z"/>
      <path d="M60.46,53.82c-.3-.19-.66-2.18-.25-2.63l2.11-.59c1.95,1.25-.13,4.3-1.86,3.23Z"/>
      <path d="M65.19,58.99c2.33-.27,2.36,3.58.4,3.57s-1.9-3.4-.4-3.57Z"/>
    </g>
  </g>
</svg>