<?xml version="1.0" encoding="UTF-8"?>
<svg id="Layer_3" data-name="Layer 3" xmlns="http://www.w3.org/2000/svg" viewBox="0 0 105.79 34.07">
  <g id="Layer_1" data-name="Layer 1">
    <path d="M4.9,7.71c-1.39.73-1.21,3.62-2.96,3.78-1.39.12-2.19-1.48-1.87-2.63C.23,8.26,4.99,1.6,5.65.98c.74-.7,1.17-1.33,2.32-.76.49.34.73.83.96,1.35.41.94,3.23,9.63,3.22,10.17-.02,1.31-1.14,2.12-2.4,1.68-.98-.34-.89-2.92-1.78-3.41v8.82h18.79c-2.72-7.97,10.53-8.42,7.67,0,.15.19.49-.38.57-.38h14.38l.02-4.73c-3.37-1.08-3.99-5.71-1.06-7.62,4.63-3.01,9.45,2.48,5.66,6.44-.43.44-1.17.48-1.17.54v5.37h16.11c-2.86-8.91,9.96-8.26,6.9,0l15.73-.18c.28-.24.3-2.77.25-3.1-.07-.42-.82-.46-1.04-.81-.79-1.29-.42-3.3,1.33-3.19.85.05,12.82,6.43,13.29,7.07.56.77.46,1.61.07,2.43-.48,1-10.53,6.86-11.83,6.99-.49.05-1.99-.15-2.1-.63.2-1.92.8-3.59.03-5.5h-17.64l-.17,2.71c-2.25,1.23-3.28-.56-2.9-2.71h-18.41s-.06,3.58-.06,3.58c-2.95,2.55-3.37-1.07-3-3.58l-17.24.41c-.33,2.16,0,4.99-2.99,3.33l-.48-3.35H7.97l.23,11.14c-.42,1.84-3.3.8-3.3.17V7.71ZM52.14,9.62c0-.68-.55-1.23-1.23-1.23s-1.23.55-1.23,1.23.55,1.23,1.23,1.23,1.23-.55,1.23-1.23ZM72.2,14.99c-1.01.52-.72,2.94.37,2.68l.9-1.67-1.27-1.01ZM30.46,15.81c-1.13.3-1.44,2.34-.43,2.63,1.81.52,2.53-3.18.43-2.63ZM98.85,17.68l-4.22-1.54v1.91s4.21.39,4.21.39v-.76ZM98.85,21.89l-.18-.76-3.65.37v1.92s3.84-1.54,3.84-1.54Z"/>
  </g>
</svg>