<?xml version="1.0" encoding="UTF-8"?>
<svg id="Layer_2" data-name="Layer 2" xmlns="http://www.w3.org/2000/svg" viewBox="0 0 25.67 55.93">
  <g id="Layer_1" data-name="Layer 1">
    <path d="M14.49,11.08v15.72c4.15,1.23,10.61,4.61,11.12,9.39.75,7.08-5.8,11.87-12.25,12.48-.3,1.55.58,6.02-.56,6.92-4.38,1.84-1.97-4.48-2.53-6.94C7.85,49.4.23,45.77,0,43.43c-.04-.44.32-1.26.68-1.48,1.76-1.08,2.73,1.15,3.86,1.9,1.79,1.18,3.94,1.99,6.11,1.75l.4-16.6c-3.49-1.23-9.03-4.59-9.58-8.55-.93-6.7,3.55-11.43,9.9-12.47.38-1.52-.72-7.07.9-7.76,3.77-1.6,1.56,6.3,2.37,7.45,2.49.69,5.53.92,7.32,3.03.7.82,1.43,2.14.19,2.89-1.85,1.13-5.07-3.46-7.67-2.5ZM11.42,25.65v-14.57c-9.4,2.49-9.47,11.93,0,14.57ZM14.11,45.21c5.42-.12,11.49-6.42,6.92-11.33-.87-.94-4.78-3.26-5.97-3.62-.72-.21-.51.12-.56.56-.2,1.49-.3,4.14-.38,5.76-.13,2.86.09,5.76,0,8.62Z"/>
  </g>
</svg>