<?xml version="1.0" encoding="UTF-8"?>
<svg id="Layer_3" data-name="Layer 3" xmlns="http://www.w3.org/2000/svg" viewBox="0 0 84.35 67.52">
  <g id="Layer_1" data-name="Layer 1">
    <g>
      <path d="M49.88,62.51c-.24.39,0,1.51-.66,2.6-1.87,3.06-9.38,3.16-11.69.6-1.07-1.19-.26-2.12-.53-2.51-.29-.42-1.68-.53-2.35-1.13-1.69-1.5-1.02-3.82-1.35-5.56-.17-.9-1.06-1.64-1.11-2.74s.79-2.08.76-3.4c-.14-5.43-7.09-8.64-9.29-14.14-7.37-18.42,14.76-31.75,30.7-23.8,10.72,5.35,13.61,19.13,5.79,28.32-2.74,3.22-7.12,5.03-7.23,10.02-.02.84.4,1.67.38,2.64-.02,1.04-.67,2.08-.65,2.69.04,1.1,1.11,2.19.53,4.14-.43,1.45-3.1,1.93-3.3,2.26ZM49.77,50.13c1.28-8.91,10.75-10.07,11.55-19.7,1.94-23.15-38.82-22.59-35.64,1.49,1,7.57,9.95,10.13,10.36,17.83l3.8.42-.37-10.86c-.1-.42-2.92-1.17-3.65-2.18-3.05-4.23,3.2-9.04,5.87-3.95.44.83,1.6,5.37,3.06,2.53.89-1.73,1.27-5.38,4.1-5.44,5.79-.11,4.18,8.66-1.36,8.61l-.36,11.29,2.65-.04ZM42.52,39.43v10.74h1.53c.09-2.61-.1-5.26-.01-7.88.07-1.94,1.59-3.29-1.52-2.86ZM50.19,53.24l-14.36-.39c-1.17,2.08,1.91,2.17,3.43,2.3,1.44.12,10.49.19,10.87-.44l.06-1.48ZM49.81,57.84c-4.38.4-8.86.73-13.23,0-.39.04-.54,1.68.76,1.92,3.35.61,8.32-.47,11.86.02l.6-1.94ZM46.74,62.82h-6.9c1.14,2.03,4.63,1.85,6.41.86.44-.25.65.03.49-.86Z"/>
      <path d="M17.54,14.45l-2.24-.14c-2.62-2.62-5.78-4.73-8.45-7.27-1.15-1.1-4.14-3.42-2.89-5.21,1.36-1.94,4.55,2.42,5.58,3.29,1.45,1.22,8.05,6.09,8.39,7.37.18.66-.12,1.37-.39,1.97Z"/>
      <path d="M68.79,44.17c.54.11,1,.42,1.46.7,1.57.93,7.66,5.12,8.71,6.24,1.17,1.25,1.07,2.35-.61,2.91l-.92-.21c-1.53-1.68-10.24-6.13-10.24-8.04l1.59-1.59Z"/>
      <path d="M15.2,42.6c1.69,1.63-2.87,3.74-4,4.43-1.2.73-7.03,4.07-7.9,3.86-.8-.2-1.2-1.18-.98-1.97.44-1.6,9.38-5.05,10.97-6.73.58-.14,1.49,0,1.91.41Z"/>
      <path d="M.99,26.09c1.12-.33,6.5-.19,7.99-.09,2.69.18,6.87.7,3.04,3.46-3.11-.53-7.89.16-10.73-.37-1.43-.27-1.88-2.52-.3-2.99Z"/>
      <path d="M72.32,31.45c1.11-.33,11.31,1.4,11.82,2.22.61,1.23-.14,2.14-1.46,2.19-3.11.11-7.43-1.75-10.76-1.47-1.09-.34-.84-2.57.41-2.94Z"/>
      <path d="M61.57.76c1.06-.36,2.5.23,2.25,1.51-.42,2.11-2.8,4.79-3.3,7.03-1.12,1.35-3.38,1.03-2.97-1.02.16-.83,3.44-7.32,4.03-7.52Z"/>
      <path d="M30.54,8.28c-.82.84-1.91.23-2.53-.54-1.2-1.48-5.23-7.5-1.45-7.74,1.42,1.35,5.7,6.5,3.98,8.28Z"/>
      <path d="M17.36,57.99c1-1.3,6.05-6.31,5.6-1.9-.17,1.62-5.99,7.54-6.85,4.96-.43-1.27.56-2.15,1.26-3.06Z"/>
    </g>
  </g>
</svg>