<?xml version="1.0" encoding="UTF-8"?>
<svg id="Layer_2" data-name="Layer 2" xmlns="http://www.w3.org/2000/svg" viewBox="0 0 31.12 98.96">
  <g id="Layer_1" data-name="Layer 1">
    <g>
      <g>
        <path d="M26.76,59.78c-2.51,2.51-7.26,4.52-10.78,4.75-22.09,1.43-21.35-32.21,2.66-29.92,12.41,1.19,16.4,16.88,8.12,25.17ZM14.15,37.78C.52,39.62-.13,59.23,11.85,60.97c9.6,1.39,17.15-4.62,15.78-14.63-.86-6.29-7.73-9.34-13.48-8.56Z"/>
        <path d="M18.36,43.14c2.72,2.53-1.59,8.24-2.97,10.63.42.31,5.85-1.67,4.56,2.06-.3.88-4.18,1.33-5.14,1.39-8.39.51-1.75-5.55.13-8.69.47-.79,2.02-3.29.32-3.14-1.17.1-1.52,1.55-2.06,1.9-.61.4-2.12.05-2.37-.66-1.08-3.08,5.2-5.65,7.53-3.49Z"/>
      </g>
      <g>
        <path d="M14.16,69.23c18.69-1.78,22.69,25.67,3.27,29.36-21.7,4.13-23.34-27.45-3.27-29.36ZM12.99,72.66c-12.61,1.97-14.11,24.56,2.93,22.87,16.05-1.59,14.29-25.56-2.93-22.87Z"/>
        <path d="M12.98,77.26c2.87-.68,5.33.48,5.34,3.62,0,.81-.55,1.76-.48,2.25.1.8,2.66,1.75,2.29,4.72-.73,5.7-9.98,5.1-10.42,2.08.65-4.32,2.82-.47,4.73-.47,1.56,0,2.91-1.19,2.43-2.82-.59-2.01-4.48-.24-4.9-1.66-.76-2.59,3.83-2.15,3.83-3.79,0-2.05-2.77-.17-3.22-.25-.69-.43-1.51-1.06-1.35-1.96.26-.89.82-1.51,1.76-1.73Z"/>
      </g>
      <g>
        <path d="M13.38.2c12.19-1.66,19.69,7.46,16.92,19.22-2.44,10.39-17.09,13.63-24.89,6.95C-3.51,18.71,1.71,1.78,13.38.2ZM15.32,3.27c-7.48.44-11.73,7.23-11.05,14.27,1.12,11.64,19.51,11.91,22.73,1.65,2.69-8.56-2.41-16.47-11.69-15.93Z"/>
        <path d="M14.24,15.05c-1.09,1.55-4.07,1.64-3.85-.56.06-.57,2.11-2.77,2.64-3.54.48-.69,1.11-2.71,1.6-3.02.59-.37,1.96-.14,2.31.49,1.26,2.31-.12,11.36.33,14.42-.54,1.2-3.02,1.05-3.02-.33v-7.48Z"/>
      </g>
    </g>
  </g>
</svg>