<?xml version="1.0" encoding="UTF-8"?>
<svg id="Layer_2" data-name="Layer 2" xmlns="http://www.w3.org/2000/svg" viewBox="0 0 57.19 61.43">
  <g id="Layer_1" data-name="Layer 1">
    <path d="M47.95,14.23l-2.17-1.1-1.1.7c-6.01,8.25-12.65,16.02-18.74,24.2-4.48,6.01-3.39,8.35-11.11,2.28l-12.1,14.77-1,.58c-1.01.1-1.8-.74-1.73-1.73.12-1.12,7.53-9.48,8.83-11.15.75-.96,3.89-5.96,4.23-6.12,3.07-1.49,5.35,3.21,8.05,3.64l21.84-29c.25-1.41-7.26-4.11-2.1-6.68,1.85-.92,11.18-4.13,13.15-4.49,1.76-.32,3.31-.18,3.19,1.99l-2.53,16.3c-2.45,2.53-3.14-1.45-4.51-1.09l-26.9,33.73c-2.23,1.29-5.71-2.01-7.63-3.06-1.99,2.35-4.07,4.68-5.99,7.07-1.05,1.31-3.84,6.13-5.21,6.33-.98.15-1.9-.28-1.93-1.35-.06-2.01,10.31-13.35,12.12-15.72,2.27-1.05,4.96,3.06,7.16,3.59L47.95,14.23ZM53.71,3.87l-9.97,3.26,8.43,6.33,1.53-9.58Z"/>
  </g>
</svg>