<?xml version="1.0" encoding="UTF-8"?>
<svg id="Layer_2" data-name="Layer 2" xmlns="http://www.w3.org/2000/svg" viewBox="0 0 56.78 59.84">
  <g id="Layer_1" data-name="Layer 1">
    <g>
      <path d="M33.01,56.37h4.99c-.33-3.4.31-6.8.4-10.14.14-5.48-.71-12.92-.03-18.06.16-1.21.5-1.63,1.75-1.74,2.11-.18,7.99-.03,9.95.43.79.19,1.11.52,1.46,1.24l-.48,28.27c2.3.05,7.09-.8,5.39,2.9l-53.92.57c-4.27-.15-2.49-4.14.98-3.47.37-3.89-.84-8.29-.41-12.1.14-1.21.61-1.5,1.77-1.68,1.02-.16,10.31.19,10.91.54.53.31.7,1.32.77,1.92.38,3.33.08,7.92,0,11.32h3.45s.73-19.68.73-19.68c.32-.51,1.19-.58,1.75-.64,1.43-.15,10.55-.28,10.55,1.34v18.98ZM41.45,29.81l-.39,26.56,7.02.1.39-26.56-7.02-.1ZM29.94,39.12h-6.52v17.26h6.52v-17.26ZM13.45,46.02c-2.29-.32-4.65.44-6.9-.38v10.74h6.9v-10.35Z"/>
      <path d="M44.89,8.44c-8.75,11.21-18.13,21.61-32.59,25.12-1.78.43-10.42,2.56-9.54-1.08.14-.34.39-.69.72-.85,1.15-.54,6-.84,7.91-1.29,13.39-3.19,22.69-12.88,30.43-23.64-1.68-.59-4.36,2.34-5.89,2.04-1.39-1.05-2.03-2.15-.37-3.32,1.79-1.25,6.09-2.55,8.33-3.56,1.22-.55,2.79-2.2,4.18-1.82.35.14.69.38.85.71.52,1.06-.76,6.92-.96,8.63-.16,1.37.6,4.89-1.36,5.19l-1.33-.21c-1.7-.85-.11-4.39-.38-5.95Z"/>
    </g>
  </g>
</svg>