<?xml version="1.0" encoding="UTF-8"?>
<svg id="Layer_3" data-name="Layer 3" xmlns="http://www.w3.org/2000/svg" viewBox="0 0 59.85 49.12">
  <g id="Layer_1" data-name="Layer 1">
    <g>
      <path d="M14,35.89l-.57-.44c-3.04.34-6.46.32-9.49-.23-3.55-.64-3.56-3.02-3.76-6.21C-.15,23.94-.22,7.74,1.77,3.72,3.6.02,6.51,1.38,9.97,1.18c4.65-.27,9.15-.25,13.82-.36,9.56-.23,22.51-1.44,31.81-.4,6.4.72,3.69,8.54,3.63,13.21-.07,5.44.54,12.04.01,17.28-.06.61-.5,2.42-.86,2.78-2.75,2.76-26.89,1.17-31.87,1.61-1.98,2.93-3.8,6.33-5.84,9.19-1.1,1.54-3.29,5.17-5.27,4.57-.45-.12-1.42-1.42-1.42-1.66v-11.5ZM17.44,44.13c1.37-1.97,6.19-11.29,7.95-11.8,3.71-.31,29.43.46,30.62-1.2l.19-27.47c-9.27-.17-18.58-.34-27.85-.18-6.57.12-15.96-.15-22.2.8-1.93.29-2.2,1.6-2.47,3.28-1.23,7.66-.07,16.32.01,24.06.13.5.47.55.9.63,2.28.42,11.22-.68,12.37.47.95.95.09,3.04.07,4.3-.03,2-.08,4.18.02,6.16.02.43-.25,1.05.38.95Z"/>
      <path d="M20.44,10.88c9.8-.33,19.62.02,29.43-.13,1.57-.1,1.67,1.42.98,2.55l-1.36.56c-11.01-.17-22.05,0-33,.36-2.38.08-9.68.54-5.67-2.98,3.21.06,6.43-.24,9.62-.35Z"/>
      <path d="M33.44,20.9c3.76-.04,7.55-.21,11.35-.09,1.08.32,1.3,1.69.87,2.63l-34.94.76c-2.26-.19-2.26-2.53,0-2.72,7.57-.18,15.15-.5,22.72-.59Z"/>
    </g>
  </g>
</svg>