<?xml version="1.0" encoding="UTF-8"?>
<svg id="Layer_3" data-name="Layer 3" xmlns="http://www.w3.org/2000/svg" viewBox="0 0 41.44 59.03">
  <g id="Layer_1" data-name="Layer 1">
    <g>
      <g>
        <path d="M23.59,4.02c.18.11,1.93,1.78,2.05,1.96,1.27,1.85.61,2.74-.76,4.22,4.18,1.75,3.63,3.46,3.4,7.62l-2.63,1.02c.65,3.13,2.99,3.13-.18,6.14-2.02,1.93-3.08,1.81-5.58.75,1.16,4.08-.95,5.56-4.81,5.75-2.75.14-2.33-1.76-3.25-3.84-1.29.37-2.03,1.95-3.39,2.11s-4.45-2.24-4.66-3.47c-.37-2.22,2.15-3.57,1.13-4.93-.94-1.24-2.59-.2-3.81-.8-1.34-.66-1.36-5.61-.55-6.7,1.05-1.4,3.77.08,4.03-2.49-1.27-.6-1.79-1.53-2.27-2.8-.14-1.06,3.44-4.98,4.54-5.32,1.39-.43,2.08,1.21,3.47,1.21,1.35-.73.36-2.9.92-3.69,1.4-.62,5.29-1.3,6.37-.18.78.82.15,3.54,1.34,4.42.74.17,1.98-2.7,4.65-1.01ZM15.25,3.15l-1.49-.04c1.23,2.21-2,4.4-3.98,4.2-1.41-.14-2.53-1.6-3.71.19s1.41,1.58,1.56,3.09c.08.78-1.03,4.22-1.65,4.67-1.09.8-3.49-.19-2.96,2.41,1.65-.03,2.93-.28,3.92,1.26.28.43,1.42,3.16,1.42,3.54,0,1.21-2.64,2.95-.73,3.85,1.75.82,2.78-2.28,4.69-2.06,3.46.4.52,5.13,4.89,4.15-.46-2.18.5-5.81,3.26-5.78.89.01,2.92,1.57,3.23-.22.12-.69-1.76-1.43-1.45-3.3.46-2.73,3.32-2.03,3.02-4.69-.18-1.6-2.59-.21-3.3-2.48-.94-3.02,2.49-4.03-.2-5.24-2.05,1.81-3.23,1.19-5.47.26l-1.07-3.82Z"/>
        <path d="M12.88,10.48c7.65-1.74,8.56,9.16,3.57,10.47-7.65,2.01-8.17-9.43-3.57-10.47ZM15.96,13.95c-2.41-2.27-4.88,2.08-2.36,3.69,2.95,1.89,4.16-2,2.36-3.69Z"/>
      </g>
      <g>
        <path d="M29.14,34.89c1.47.92,2.77-2.15,3.96-2.22,1.93-.12,5.73,2.68,5.58,4.74-.08,1.19-1.54,2.02-1.53,3.28,1.11.36,3.47.38,4.03,1.54.32.67.35,5.11.12,5.87-.67,2.23-4.28.38-4.11,2.77.07,1.01,1.43,1.4.97,2.88-.4,1.28-4.31,4.33-5.64,4.03-.98-.23-1.71-1.9-3.21-1.75l-2.37,3.03c-3.89-.12-9.6-.22-6.26-5.49-1.01-1.26-2.34.35-3.84-.39-.88-.43-2.79-4.77-2.4-5.84.52-1.41,2.83-2.04,2.78-2.21-.6-1.83-3.04-1.19-3.39-3.17-.32-1.83,2.77-5.93,4.69-5.85.9.04,1.92,1.13,2.75.42,1.07-.91.17-2.55.74-3.5.72-1.21,4.23-1.44,5.48-.86s1.43,2.59,1.67,2.74ZM25.99,34.97c-1.55-.52-1.13,1.26-1.8,2.53-1.23,2.36-3.74,2.78-5.99,1.63-.18.01-.95,1.46-1,1.75-.13.84,1.84.76,2.14,1.7,1.09,1.48,1.16,6.27-1.75,5.78.06,3.5,1.81.5,4.41,2.3,3.72,2.57,0,4.81.57,5.36,3.7,1.28,2.61-1.16,4.46-2.25.96-.57,2.44-.56,3.48-1.12l2.31,1.79,2.38-1.34c-2.5-3.21.32-5.92,3.5-6.91l-.19-2.08c-1.87-.23-4.13-.84-4.63-3-.23-.98,1.12-2.93,1.69-3.76-1.72-3.31-2.33-.21-3.67.18-2.34.69-5.7.39-5.91-2.57Z"/>
        <path d="M26.69,39.99c3.67-.79,6.21,1.86,6.09,5.43-.26,7.77-10.6,6.46-9.8-.67.18-1.59,2.09-4.42,3.71-4.76ZM27.05,43.04c-1.55.51-1.64,5.37,1.39,4.48,2.58-.76,1.35-5.38-1.39-4.48Z"/>
      </g>
    </g>
  </g>
</svg>