<?xml version="1.0" encoding="UTF-8"?>
<svg id="Layer_2" data-name="Layer 2" xmlns="http://www.w3.org/2000/svg" viewBox="0 0 102.39 75.26">
  <g id="Layer_1" data-name="Layer 1">
    <path d="M94.77,65.63c-.52-1.36-2.88-1.53-3.01-2.96s1.14-1.84,2.34-1.58c.45.1,7.54,4.67,7.83,5.03,2.14,2.65-3.85,4.57-5.76,5.7-.72.42-1.13,1.36-2,1.49-1.38.19-2.33-.39-2.34-1.81-.02-1.83,1.47-1.11,2.17-2.42-12.32-.4-24.67-.5-37.02-.4-1.68.01-3.34.4-4.95.41-14.37.14-28.45.23-42.78.36l-.17,5.39c-4.06,1.76-3.27-2.73-3.28-5.39-.38-.38-5.54.89-5.77-1.35-.56-3.61,6.02-1.39,6.16-2.32l.37-53.27-.38-2.88-2.19,4.14c-1.57.76-2.82.25-2.78-1.63C2.56,9.92,4.89,1.19,6.97.26c3.29-1.48,3.51,3.85,4.59,6.14.67,1.42,2.73,3.79,2.72,4.99,0,.97-1.01,2.13-1.98,1.93-1.37-.29-1.64-2.21-2.65-2.9l-.39,55.6h4.22c-.08-3.51.1-7.05.01-10.56-.02-1.01-1.19-5.93.56-5.93h8.05c.59,0,2.06.44,2.49.96v15.91l4.22-.38c-.16-7.47.2-14.98.01-22.45-.05-2.15-1.74-6.27,1.69-6.71,1.9-.24,8.98-.14,10.54.62.39.19.98.8,1.1,1.21l-.31,27.33h6.14c-.25-8.74.22-17.55.01-26.29-.07-2.89-.31-5.87-.38-8.82-.06-2.31-1.65-6.22,2.07-6.72,1.74-.23,10.92.19,12.08,1,.32.22.61.41.71.82l.07,39.62h6.52l-.02-43.92c.92-2.97-1.01-9.83.38-12.28.17-.29,1.5-1.53,1.82-1.63,1.21-.36,9.44-.3,10.96,0,.66.13,2.36,1.05,2.52,1.71-1.09,14.26-.86,28.58-1.08,42.89-.01.91-.4,1.75-.42,2.65-.05,2.45-.37,7.48.02,9.6.08.43.19.72.57.96h10.93ZM72.91,11.18v6.14l3.44-3.65,1.93-2.67c.02-.71-4.75.41-5.37.19ZM80.96,11.57l-7.45,7.69-.98,3.43c1.86-2.07,6.99-6.33,8.06-8.62.43-.92.48-1.5.37-2.5ZM72.53,29.2l8.02-9.08.03-3.19c-1.54,2.08-7.68,7.69-8.03,9.8-.13.8.02,1.67-.02,2.47ZM72.53,35.72c1.39-2.3,7.68-7.63,8.03-9.8.14-.91-.03-1.93.02-2.85l-7.61,9.06-.43,3.59ZM54.5,27.67h-3.83c.15,1.24-.48,2.9.58,3.83.48-.69,3.66-3.11,3.26-3.83ZM59.11,28.06c-.83-.08-1.38-.06-2.13.36-.63.36-5.81,5.83-5.91,6.36-.15.77.06,1.69,0,2.48l7.55-7.4.5-1.8ZM72.15,41.47c.67.14.95-.35,1.35-.76,1.48-1.53,2.94-3.61,4.39-5.19,2.05-2.23,3.38-1.8,2.69-5.93l-8.23,9.21-.2,2.68ZM59.11,32.27l-4.47,3.97c-1.56,2.38-4.32,3.38-3.58,6.77l8.04-8.64v-2.1ZM72.9,47.99c.89-2.76,7.24-7.47,7.65-9.8.12-.67,0-1.41.02-2.09l-8.02,8.31-.42,3.57h.76ZM59.11,38.03l-2.51,1.9c-1.64,3.07-6.26,4.64-5.54,8.46l7.69-8.22.36-2.13ZM36.1,40.33h-4.22s0,4.21,0,4.21l4.21-4.21ZM38.78,40.71c-.35-.42-1.64,1.04-1.93,1.33-.76.78-4.52,4.96-4.77,5.59-.4,1-.17,2.03-.2,3.05l6.7-7.68.2-2.29ZM80.58,42.24c-.64-.15-.78.2-1.14.58-1.48,1.52-5.74,6.4-6.47,8.11-.63,1.47-.23,2.58-.83,3.96l7.85-8.05.58-4.59ZM51.06,54.51l7.85-8.83.19-2.68c-1.17.89-2.26,1.99-3.26,3.06-2.11,2.26-5.43,5.21-4.78,8.44ZM31.89,55.66c2.48-2.81,7.44-5.92,6.89-9.97l-6.7,7.68-.19,2.29ZM51.06,59.88l7.85-8.83.19-2.68c-1.1,1.37-2.5,2.51-3.64,3.83-1.73,2-4.68,4.99-4.4,7.67ZM80.58,49.53c-.4-.41-1.99,1.37-2.31,1.71-.96,1.01-5.16,5.52-5.54,6.34-.43.95-.13,2.07-.19,3.06l7.47-8.06.58-3.06ZM31.89,61.8l6.7-7.29.2-3.06c-1.17,1.47-6.13,5.65-6.7,6.91-.46,1.01-.11,2.36-.19,3.44ZM19.99,52.6h-3.84s0,4.21,0,4.21l3.83-4.21ZM16.55,62.18c1.72-2.72,5.53-4.98,4.98-8.44-2.02,2.62-5.74,4.72-4.98,8.44ZM51.06,65.25l8.25-9.21-.21-2.29c-1.35,1.09-2.54,2.51-3.65,3.83-1.72,2.05-4.63,5.01-4.4,7.68ZM75.05,64.32c.8-.82,4.66-4.95,4.95-5.59.43-.95.13-2.07.19-3.06l-7.45,8.08-.6,1.89c1.62.32,1.95-.34,2.9-1.31ZM38.78,57.58c-.9-.25-.65.23-.88.49-1.46,1.66-3.36,3.57-4.65,5.29-.23.31-1.97,2.42-.79,2.65l6.11-5.75.21-2.68ZM59.1,59.5c-1.65,1.28-3.15,2.95-4.37,4.64-.19.26-1.54,1.85-.42,1.87.63.01,6.15-4.91,4.79-6.51ZM16.54,66.02c.92.89,3.31-2.15,3.82-2.88.75-1.08,1.44-1.76,1.16-3.25-1.52,1.24-3.28,3-4.42,4.59-.38.52-.73.77-.56,1.55ZM80.2,65.64l-.19-4.22-3.26,4.21h3.45ZM38.78,63.33c-.44-.52-2.46,2-2.88,2.3l.38.75,2.5-.37v-2.68Z"/>
  </g>
</svg>