<?xml version="1.0" encoding="UTF-8"?>
<svg id="Layer_3" data-name="Layer 3" xmlns="http://www.w3.org/2000/svg" viewBox="0 0 82.17 70.38">
  <g id="Layer_1" data-name="Layer 1">
    <path d="M46.48,61.68c1.1-.6,7.09.43,7.24-.6l-1.02-58.56,1.33-1.74,9.53-.79c4.5.83,2.53,4.71,2.46,7.79-.34,14.94,0,29.94-.38,44.87-.07,2.88.09,5.77.01,8.65l7.67.38c-1.92-1.13-2.16-3.71.54-3.45.54.05,7.36,3.43,7.72,3.81.28.3.56.54.58,1,.05.49-.09.78-.37,1.16-.25.34-6.69,3.8-7.42,4.08-1.69.66-3.12.36-2.51-1.73.38-1.31,2.08-1.17,2.61-2.19l-66.72.38c-.18,1.5.88,3.19.19,4.6-.42.85-2.05,1.44-2.78.67-.88-.92-.32-3.99-.48-5.28-6.19.82-6.3-3.97,0-3.07V16.82c-.91.36-.76,2.26-1.79,2.62-.39.14-1.69.2-1.99,0-.23-.49-.47-1.09-.43-1.64.18-2.21,3.78-7.02,4.25-9.57,1.01-1.33,2.28-1.17,3.11.25.34.58,3.01,8.44,3.01,8.91,0,1.99-1.77,2.01-3.09.95v43.33s6.13,0,6.13,0v-21.67c0-.07.59-.68.77-.76,1.2-.56,7.16-.16,9.02-.18s3.8-1.3,4.2,1.7l-.52,20.28.73.47,5.35-.22V23.91c0-1.06,5.93-1.68,7.08-1.74,1.6-.09,5.79-.51,6.3,1.45.21.82-.34,1.23-.34,1.44v36.62ZM60.28,3.79l-4.22.38v3.83c.76.2.75-.31,1.08-.64,1.03-1.02,2.12-2.48,3.14-3.57ZM56.45,12.98c2.38-2.4,6.64-5.1,6.13-8.82l-5.78,6.3-.35,2.52ZM56.45,19.12c2.1-3.05,6.96-5.07,6.13-9.2-2.13,3.01-6.83,5.07-6.13,9.2ZM62.5,17.89c.33-.56-.04-1.88.08-2.6-2.07,2.65-6.41,5.17-6.13,8.82,1.59-1.16,2.55-2.97,3.82-4.42.53-.6,2.15-1.67,2.23-1.8ZM62.58,20.66c-.85-.21-.85.5-1.23.88-1.99,2.02-5.15,4.96-4.9,7.94,1.12-1.2,5.41-5,5.93-6.14.38-.85.17-1.79.2-2.68ZM40.72,25.64l-4.05.74-.16,4.24c.73-.4,1.35-1.12,1.9-1.74.3-.33,2.59-3.01,2.31-3.25ZM56.45,35.23l5.93-6.14.19-2.68c-2.34,2.32-6.46,5.2-6.13,8.82ZM36.51,35.99c1.16-1.3,5.78-5.33,6.32-6.53.38-.85.17-1.79.19-2.68l-6.32,6.91-.19,2.29ZM62.5,34.76c.26-.45.16-2.38-.11-2.99-2.18,2.56-6.32,5.06-5.94,8.82,1.69-1.57,3.12-3.39,4.78-5.01.35-.35,1.21-.72,1.27-.83ZM36.51,42.89c1.12-1.35,5.78-5.35,6.32-6.53s.05-2.95.19-4.21l-6.32,6.91-.19,3.83ZM56.84,45.96l5.55-6.14.19-2.68c-2.26,2.34-6.28,5.19-5.74,8.82ZM41.62,43.79c.24-.29.83-.39,1.04-.67.75-1.02.23-2.81.36-4.06l-6.32,6.53-.19,3.44c1.95-1.51,3.55-3.35,5.11-5.24ZM21.55,42.13l-4.57.41-.03,3.03c.8.65,3.83-2.9,4.6-3.44ZM24.62,42.13l-2.69,2.1c-1.48,2.04-4.95,3.52-4.59,6.33,1.57-1.84,5.83-4.83,6.92-6.69.36-.61.47-1.03.36-1.74ZM56.84,51.33c2.09-2.38,6.17-4.97,5.74-8.44l-5.55,5.76-.19,2.68ZM36.51,55.17l6.32-6.53.19-3.06c-2.57,2.73-7.28,5.25-6.51,9.59ZM17.34,55.16c.72.17.91-.41,1.34-.76.93-.77,5.4-5.19,5.55-5.95.13-.65-.04-1.42,0-2.1l-6.54,6.31-.36,2.51ZM56.83,56.31c.85.21.85-.5,1.23-.88.6-.6,4.17-4.52,4.33-4.88.33-.74.2-1.52.19-2.29-.96,1.28-5.08,4.71-5.55,5.76-.33.74-.2,1.52-.2,2.29ZM36.51,60.15c.72.17.91-.41,1.34-.76.58-.47,4.82-5.03,4.98-5.38.38-.85.17-1.79.19-2.68-1.11,1.34-5.8,5.37-6.32,6.53-.33.74-.2,1.52-.2,2.29ZM17.34,60.92c1.27-1.35,6.61-5.71,6.89-7.1.13-.65-.04-1.42,0-2.1-1.27,1.35-6.61,5.71-6.89,7.1-.13.65.04,1.42,0,2.1ZM56.83,61.3l5.39-5.15.36-2.51-5.39,5.54-.36,2.13ZM38.81,61.3c2.19.33,5.11-2.33,4.21-4.6-1.75,1.18-2.88,3.01-4.21,4.6ZM19.64,61.68c2.92.59,5.19-1.67,4.6-4.6l-4.6,4.6Z"/>
  </g>
</svg>