<?xml version="1.0" encoding="UTF-8"?>
<svg id="Layer_3" data-name="Layer 3" xmlns="http://www.w3.org/2000/svg" viewBox="0 0 87.26 66.11">
  <g id="Layer_1" data-name="Layer 1">
    <path d="M84.6,15.53c-5.38,2-1.64-5.05-2.01-7.57-7.3,7.99-15.04,15.73-21.87,24.15-1.31,1.61-8.18,11.6-8.89,11.82-.44.14-.99.15-1.44.07-1.8-.32-5.76-6.46-7.69-7.67l-10.53,14.77c-1.47,1.26-2.28.89-3.46-.4-2.33-2.52-4.41-6.69-6.71-9.39L3.6,64.72c-1.21,1.75-3.8,2.13-3.59-.5l20.66-26.16,2.95.3,6.64,9.47c.79.55,9.68-14.72,11.77-15.28.77-.21,1.7.19,2.38.55l6.36,7.06c9.13-12.44,19.71-23.7,30.1-35.08-2.27-.15-9.62,2.78-10.94.2-.41-.79-.19-1.69.6-2.1,1.45-.75,6.28-.73,8.44-1.15,1.69-.33,5.42-1.99,6.38-2.02,1.04-.04,1.91.9,1.92,1.93.05,3.93-2.25,9.53-2.66,13.6Z"/>
  </g>
</svg>