<?xml version="1.0" encoding="UTF-8"?>
<svg id="Layer_3" data-name="Layer 3" xmlns="http://www.w3.org/2000/svg" viewBox="0 0 42.72 61.75">
  <g id="Layer_1" data-name="Layer 1">
    <g>
      <path d="M21.03.01c13.37-.39,22.68,9.36,21.6,22.75-.73,9.08-11.9,26.78-17.15,34.85-1.33,2.05-2.78,5.05-5.59,3.88-.77-.32-5.46-7.93-6.28-9.32C9.31,44.95.17,29.29,0,21.28-.24,9.28,9.27.35,21.03.01ZM20.74,56.38c.75.13,1.05-.48,1.42-.99,3.86-5.4,9.09-14.88,12.14-20.92,4.07-8.04,6.33-17.21-.2-24.7C26.64,1.23,11.06,3.72,6.24,13.85c-3.87,8.14.32,16.84,4.03,24.21,3.15,6.27,7.15,12.14,10.47,18.32Z"/>
      <path d="M19.9,11.16c4.29-.63,7.84.46,9.89,4.4,5.74,11.07-9.5,20.76-16.31,11.48-4.4-6-1.06-14.79,6.42-15.88ZM18.5,15.16c-2.19.74-3.67,3.3-3.34,5.57l3.34-5.57Z"/>
    </g>
  </g>
</svg>