<?xml version="1.0" encoding="UTF-8"?>
<svg id="Layer_2" data-name="Layer 2" xmlns="http://www.w3.org/2000/svg" viewBox="0 0 57.15 55.22">
  <g id="Layer_1" data-name="Layer 1">
    <g>
      <path d="M30.66,0c35.59.3,34.91,52.53.37,55.13C11.69,56.59-4.09,40.49.95,20.96,4.6,6.82,16.53-.12,30.66,0ZM28.54,3.25C2.61,4.55-7.17,36.58,16.12,48.88c14.23,7.52,32.75,1.11,36.75-15,4.33-17.41-6.17-31.55-24.32-30.64Z"/>
      <path d="M39.39,30.25l4.34,7.99c-3.81,4.22-5.82-2.71-8.61-4.3-6.16,5.36-6.95,6.22-8.31-2.45-.59-3.77-1.32-9.21-1.53-12.96-.36-6.56,3.34-5.28,7.81-2.98,1.52.78,10.31,7.41,11.13,8.56,2.57,3.6-1.95,5.38-4.83,6.13Z"/>
      <path d="M11.91,27.28c-.01,6.73,4.34,12.46,9.65,16.16-1.18,1.94-3.53-.07-4.83-1.11-2.71-2.17-5.73-6.25-6.21-9.76-.21-1.54-.72-5.19,1.39-5.29Z"/>
    </g>
  </g>
</svg>