<?xml version="1.0" encoding="UTF-8"?>
<svg id="Layer_3" data-name="Layer 3" xmlns="http://www.w3.org/2000/svg" viewBox="0 0 102.88 73.47">
  <g id="Layer_1" data-name="Layer 1">
    <g>
      <path d="M14.67,46.95c1.11-1.62-.48-9.83-.62-12.33-.18-3.28.08-6.72-.06-9.97-.29-6.38-1.92-14.71-.21-20.77.46-1.64,4.13-2.91,5.75-3.14,8.9-1.28,21.46-.49,30.75-.48,8.92,0,17.88-.28,26.73.01,2.41.08,7.38-.34,9.29,1.11,1.32,1,2.01,6.22,2.05,7.98.15,6.35-.23,12.89-.25,19.26-.02,5.66-.05,11.36-.43,17.07,1.41,1.79,2.59,3.88,4.01,5.64,2.62,3.24,7.53,6.99,9.64,10.04,1.21,1.74,1.88,3.78,1.39,5.84-1,4.2-3.08,6.2-7.51,6.26-1.06.01-1.97-.41-2.95-.42-24.05-.07-48.07.59-72.06,0-4.61-.11-11.26.64-15.53-.07C.69,72.31-.11,67.39.01,64.04c1.8-1.52,2.81-4.17,4.22-5.81,2.16-2.5,4.47-4.84,6.65-7.46.97-1.16,3.01-2.7,3.78-3.82ZM84.48,3.91c-4.09-1.72-8.53-.55-12.79-.49-11.37.15-22.78.46-34.17.47-4.98,0-10.61-.82-15.6-.42-1.7.14-3.36.7-5.04.95-.5.32.04,2.91.04,3.72.07,11.79.24,23.52,1.46,35.29.09.92-.05,1.87,0,2.79l65.39-.55.7-41.76ZM85.63,49.4c-.83-.72-2.29-.01-3.43-.08-19.14-1.08-38.51.03-57.55-.05-1.9,0-5.34-.28-6.99.09-.94.21-5.08,4.78-6.03,5.86-2.45,2.81-4.87,6.35-7.24,9.29,2.31-.21,4.58.36,6.85.36,1.14,0,2.47-.36,3.71-.37,3.05-.01,23.38.38,24.27-.44.24-.22-.02-1.12.68-1.36.33-.11,2.7-.37,3.3-.41,4.79-.37,11.85-.33,16.71-.17,2.78.09,3.99.33,5.94,2.39,7.07.16,14.11-.02,21.2-.02,3.65,0,7.24.45,10.94,0l-12.36-15.12ZM97.9,67.41H4.58s0,2.6,0,2.6h93.32s0-2.6,0-2.6Z"/>
      <path d="M27.21,56.63c1.7-.37,4.78-4.19,6.01-5.54l1.76.31.23.94c-1.46.79-2.46,2.03-3.54,3.18-.34.37-1.54.31-.75,1.11l7.62-.38-.74-.55c1.2-1.22,6.62-5.96,8.12-4.96.07.05.27.78.42,1.03l-6.68,4.49h7.62c.5,0,5.61-6.66,7.62-4.83.89,1.29-4.04,3.39-4.09,4.83h5.76c.42,0,4.74-4.69,6.71-4.82.34-.02,2.72.29,2.02,1.09-1.83.88-3.99,2.09-5.2,3.72h5.39c.31,0,.65.67,1.66.19.83-1.18,7.64-6.65,8.56-5.77.47.45-.3,1.1-.61,1.43-1.44,1.46-3.42,2.73-4.59,4.52h6.51c.39,0,4.04-4.86,5.76-3.34-.1,1.68-1.9,2.05-2.6,3.34,2.83.2,6.97-1.12,6.69,2.97-5.77.29-11.55-.22-17.27-.37-11.68-.29-23.35-.55-34.97-.37-4.69.07-9.77.9-14.5.37-.97-.11-3.1-.57-2.75-1.97,1.85-1.31,4.25-5.46,6.45-5.65.27-.02,1.66.05,1.31.74-1.92.99-2.69,2.87-4.09,4.28,1.78-.26,4.5.36,6.13,0Z"/>
      <path d="M23.24,6.3c12.21.29,24.61.29,36.71.29,2.57,0,5.16.23,7.71.23,3.16,0,7.49-.8,10.45-.62.91.05,1.91.12,2.37,1.01-.09,1.94-.04,3.94.03,5.89.31,8.13,1.14,18.74.4,26.74-.17,1.82-.51,2.55-2.42,2.78-3.48.41-7.29-.13-10.79-.02-13.95.44-28.08,1.05-41.96.79-3.84-.07-4.09-5-4.29-8-.43-6.45.15-13.54.03-20.09-.05-2.73-1.92-8.55,1.74-9ZM77.45,38.82l-.35-29.62c-.44-.3-4.67.08-5.15.31-.94.44-6.4,7.41-7.72,8.84-3.96,4.3-8.01,8.67-12.1,12.85-3.03,3.1-6.26,3.7-2.43-.95,4.87-5.92,11.67-11.62,16.96-17.3,1.04-1.12,1.99-2.36,2.96-3.54l-43.89.41-.74,29.71,52.46-.71Z"/>
      <path d="M55.6,15.08c-.38.15-.77.29-1.07.58-4.76,4.63-9.44,10.67-14.24,14.93-.62.55-1.49,1.32-2.1.31,4.4-6.38,10.46-11.31,15.77-16.91.95-.82,1.96-.17,1.64,1.09Z"/>
      <path d="M67.03,24.44c.65.06,1.45.74,1.08,1.45-.25.49-5.58,4.83-5.97,4.82-1.13-.02.44-1.86.57-2.02.43-.55,4.01-4.2,4.31-4.25Z"/>
    </g>
  </g>
</svg>