<?xml version="1.0" encoding="UTF-8"?>
<svg id="Layer_3" data-name="Layer 3" xmlns="http://www.w3.org/2000/svg" viewBox="0 0 74.13 62.47">
  <g id="Layer_1" data-name="Layer 1">
    <g>
      <path d="M53.87,32.62v.33c1.7,1.63,3.29,3.27,4.29,5.43-.55.41-1.01,1.88-2.09,1.65s-4.68-4.49-5.25-4.48c-1.73,1.04-3.57,1.88-5.54,2.38-4.28,1.09-10.08.85-14.24-.68-1.1-.41-2.3-.99-3.28-1.62l-3.92,3.62c1.13,1.34-.27,1.64-1.06,2.42-2.99,2.95-5.79,6.12-8.8,9.05-1.7,1.65-4.82,5.08-6.6,6.29-2.21,1.5-5.91.14-6.97-2.22-2.02-4.51,3.94-7.71,5.87-11.09,2.25-1.11,9.16-10.26,10.89-10.56.39-.07.78.36,1.44.06.89-.41,2.45-2.91,3.62-3.41-3.76-5.64-4.22-13.45-.91-19.43C30.79-6.75,56.44-1.45,59.04,17.38c.72,5.25-.54,12.13-5.17,15.23ZM41.76,2.3c-.98-.12-2.35,0-3.39,0-.2,0-.82.42-1.24.23v.22s4.86,0,4.86,0c1.92,0,7.9,3.44,9.38,4.86,1.05,1,1.66,2.28,2.59,3.28.27.29.39.38.34-.11-1.91-3.26-4.95-5.74-8.43-7.16-1.02-.42-3.09-1.19-4.11-1.32ZM36.88,4.42c-9.26.67-16.22,12.54-11.66,20.8,3.76,6.81,8.65,9.54,16.54,8.49,5.68-.75,11.62-5.75,12.73-11.46,2.09-10.72-7.44-18.58-17.61-17.83ZM56.36,16.9c.11,1.5,0,3.22,0,4.75,0,.5-1.22,4.59-1.54,5.24-3.43,6.96-12.61,10.41-19.93,8.55-11.04-2.81-15.74-13.78-10.9-24.01l2.76-3.91-2.03,1.93c-6.32,8.34-3.2,20.93,6.4,25.24,13.71,6.15,28.93-4.27,25.13-19.48-.53-.48-.31-.11-.26.25.06.43.34,1.14.37,1.44ZM19.97,35.32c.74-.05,1.82,1.89,2.34,1.8l3.3-3.26-2.34-2.13-3.31,3.6ZM17.48,37.81c-.46-.1-.6.1-.91.33-3.3,2.41-6.21,5.65-9.15,8.48l-1.92,2.49,11.98-11.3ZM15.45,43.46c-1.27.56-2.78,1.85-3.85,2.82-.29.27-2.27,2.1-2.03,2.38,2.03-1.64,4.21-3.17,5.87-5.2ZM5.05,50.7c-.83-.07-4.38,2.73-2.82,3.39l.9-1.59,1.92-1.8ZM9.57,51.6c-.24-.22-.84.49-1.02.67-.65.67-1.54,1.67-2.14,2.38-.17.21-1.07,1.3-.91,1.46.46.06.74-.38,1.02-.67,1.09-1.14,1.89-2.73,3.05-3.84ZM6.41,52.51c-1.26.5-2.44,1.67-2.94,2.94l2.94-2.94Z"/>
      <path d="M53.93,60.58c-.58-.56-1.96-4.97-2.44-5.13-1.01-.33-.55.81-.54,1.22.01.84.14,3.13-.13,3.74-.49,1.1-1.94.94-2.27-.43s-.33-10.55-.09-12.1c.3-1.88,2.47-1.86,3.94-1.71,4.38.45,4.71,6.52,1.25,8.47.55.73,2.51,4.7,2.37,5.34-.2.91-1.48,1.19-2.09.6ZM52.91,48.73c-.5-.41-1.36-.28-1.97-.29-.27,1.58-.07,2.94,0,4.52,2.49.49,3.66-2.84,1.97-4.23Z"/>
      <path d="M71.3,55.47h-2.94v4.86c0,1.08-1.43,1.55-2.2.73-.71-.75-.1-4.59-.06-5.71.09-2.63.04-5.24.27-7.86.22-.74,1.13-.71,1.71-.46,1.04.45.18,4.84.6,5.97l2.84.21c.02-1.85-.09-3.9.28-5.72.26-1.29,2.03-.95,2.21.63.45,3.84-.61,8.28-.24,12.2-.3,1.86-2.48,1.43-2.48.47v-5.31Z"/>
      <path d="M44.3,46.93c.53.54.96,2.83,1.14,3.72.34,1.64,1.5,8.4,1.15,9.61-.08.26-.54.74-.79.8-1.77.43-1.25-3.53-1.67-4.46l-2.69-.02c-.05,1.72-.97,7.3-2.87,3.55,1.09-3.5,1.08-8.79,2.4-12.04.54-1.33,2.14-2.36,3.33-1.15ZM43.7,54.56c-.12-1.22-.32-2.45-.52-3.66-.05-.28-.04-1.1-.38-1.09l-.68,4.75h1.58Z"/>
      <path d="M25.79,46.68c1.47-.26,4.71.42,4.08,2.5-.48,1.58-2.08-.1-2.61-.24-1.03-.28-2.27.65-2.34,1.64-.15,2.32,4.21,3.03,4.71,5.71.53,2.82-1.43,6.34-4.57,6.17-1.37-.07-4.76-2.09-3.75-3.75,1.12-1.86,2.92,2.18,5.1.36,2.83-2.38-1.56-3.89-2.73-4.97-2.46-2.26-1.17-6.85,2.1-7.41Z"/>
      <path d="M37.24,58.83c1.07.22,1.03,1.77.18,2.21-.91.47-5.13.42-5.59-.63-.04-3.4-.36-7.14-.13-10.51.04-.6.22-2.45.74-2.67.87-.37,4.76-.5,5.32.13.33.36.13,1.47-.27,1.77-.65.5-2.43.03-3.27.23l-.15,3.6.27.2c4.62-.78,3.62,3.3-.37,2.05v3.62c.97.14,2.38-.19,3.28,0Z"/>
      <path d="M64.7,50.67c-1.38.86-2.14-2.68-3.44-1.28-1.43,1.55-1.43,4.41-1.29,6.4.1,1.38.34,3.11,2.12,2.79.55-.18.44-1.47,1.62-1.53,1.83-.1.84,3.06-.62,3.65-1.63.66-3.85.09-4.74-1.48-1.63-2.9-1.36-11.92,2.93-12.55,1.52-.22,3.67,1.12,3.69,2.78,0,.24-.14,1.13-.28,1.21Z"/>
      <path d="M30.58,22.87l-.88.15c-2.11-2.72-.93-6.6.64-9.32,2.09-3.63,5.43-5.62,9.65-5.73,1.35-.04,4.92.85,4.64,2.59-.23,1.43-2.58-.56-3.57-.73-3.4-.58-7.49,1.79-9.28,4.62s-2,5.18-1.19,8.41Z"/>
      <path d="M50.36,19.85c.1.1.29.08.36.24.04.81-3.25,5.85-3.97,6.63-.52.56-1.16.99-1.91.69.11-1.18,1.35-1.89,1.91-2.72.67-1,2.52-4.82,3.41-5.18.18-.03.07.21.21.35Z"/>
      <path d="M43.7,23.57c1.03,1.06-3.54,4.56-4.36,5.01-1.05.58-3,1.37-1.86-.51,1.12-.64,2.16-1.45,3.17-2.25.4-.32,2.6-2.73,3.06-2.25Z"/>
    </g>
  </g>
</svg>