<?xml version="1.0" encoding="UTF-8"?>
<svg id="Layer_2" data-name="Layer 2" xmlns="http://www.w3.org/2000/svg" viewBox="0 0 62.42 92.76">
  <g id="Layer_1" data-name="Layer 1">
    <g>
      <path d="M35.41.36c4.45-.22,12.34-.67,16.52-.02,6.67,1.04,6.06,10.7,6.59,15.69,1.37,12.88,1.86,25.7,2.6,38.63.49,8.53,1.78,17.02,1.13,25.65-.75,9.97-9.25,10.4-17.29,10.94-4.1.28-8.46.15-12.62.38-6.51.36-19.19,2.94-24.51-1.13-5.64-4.31-4.63-15.67-5.03-22.09-.72-11.75-1.37-23.48-1.86-35.29C.65,26.14-.42,18.95.18,11.94,1.14.82,17.27,1.99,25.28,1.34c3.35-.27,6.74-.82,10.12-.99ZM44.28,4.48c-8.62,0-17.49.72-26.05.96-1.19.03-6.07.72-7.19,1.01-2.71.7-3.47,2.9-3.44,5.5.14,13.27,1.55,27.5,2.28,40.84.5,9.16.32,19.54,1.5,28.58.84,6.42,5.43,7.97,11.31,7.29,8.84-1.69,19.9-.19,28.49-1.97,7.65-1.59,7.1-6.19,6.98-12.73-.29-15.95-1.68-31.99-2.98-47.9-.48-5.85-.2-11.94-1.58-17.73-1.1-4.63-5.6-3.85-9.31-3.85ZM4.65,13.62c-.61-.4-.67-.01-.74.55-.21,1.61-.07,4.25-.01,5.97.25,8.25,1.19,16.61,1.52,24.85.45,11.44-.59,25.07,1.64,36.25.13.64.36,2.27.94,2.58L4.65,13.62Z"/>
      <path d="M54.71,72.21c-1.33,1.28-17.58,1.05-20.54,1.19-4.26.2-8.79.95-12.97,1.14-1.28.06-5.94.27-6.55-.54-.57-.75-.97-7.1-1.07-8.58-.97-13.96-.94-28.04-1.85-41.98-.23-3.6-2.75-6.71,2.41-7.22,9.09-.91,19.06-1.46,28.21-1.88,1.27-.06,6.25-.36,7.07-.17,2.56.59,2.56,4.8,2.79,7.07,1.29,12.83,1.21,26.77,1.86,39.73.17,3.29.95,6.86.98,10.11,0,.42-.05.8-.33,1.13ZM48.44,17.75l-34.13,1.81,3.32,51.84,33.46-1.7-2.64-51.96Z"/>
      <path d="M34.29,77.62c2.72-.32,5.84-.84,6.03,2.69.26,4.87-9.09,4.61-9.65,1.08-.49-3.14.99-3.46,3.62-3.77Z"/>
      <path d="M23.28,12.45c-.4-.7-.56-1.87.04-2.46.77-.76,10.49-1.22,12.31-1.84,1.09.15,2.29,1.78,1.35,2.68s-3.04.39-4.28.56c-3.11.43-6.24,1.4-9.42,1.06Z"/>
      <path d="M40.68,24.39c.1.61-.26,1.01-.61,1.45-3.86,4.89-11.82,15.78-16.46,19.18-.51.37-.75.7-1.5.54-.03-.76.21-1.54.59-2.2,2.24-3.87,6.98-8.15,10-11.54,1.34-1.5,4.6-6.33,5.92-7.08.73-.41,1.26-.43,2.06-.35Z"/>
      <path d="M41.05,38.51c.07.63.34.65.03,1.29-1.58,3.24-5.86,7.72-8.13,10.85-1.62,2.23-2.96,4.69-4.59,6.92-.88,1.21-2.66,4.35-4.19,3.96-.9-.46,0-1.61.35-2.24,2.64-4.72,10.74-15.85,14.49-19.68.6-.61,1.02-1.3,2.05-1.11Z"/>
    </g>
  </g>
</svg>