<?xml version="1.0" encoding="UTF-8"?>
<svg id="Layer_3" data-name="Layer 3" xmlns="http://www.w3.org/2000/svg" viewBox="0 0 46.97 65.03">
  <g id="Layer_1" data-name="Layer 1">
    <path d="M.07,57.39c1.03-10.66,7.65-20.28,18.2-23.22-3.62-3.2-6.78-5.22-8.27-10.11C4.55,6.18,22.7-7.04,38.13,4.1c9.04,6.53,8.82,19.86.57,26.92-1.74,1.49-3.91,2.06-5.57,3.52,1.93.19,4.47,2.17,5.95,3.53,5.25,4.83,7.54,13.08,7.81,20.04.09,2.27.58,5.7-2.12,6.38-13.08.45-26.23-.14-39.33.12-1.81.04-3.82,1.2-5.37-.54.15-2.17-.2-4.56,0-6.69ZM40.79,17.9c0-7.81-6.33-14.15-14.15-14.15s-14.15,6.33-14.15,14.15,6.33,14.15,14.15,14.15,14.15-6.33,14.15-14.15ZM32.75,41.98c-.48-.5-3.89,3.18-3.71,4.08.56-.36,4.16-3.61,3.71-4.08ZM34.98,47.18c-.99.29-2.2,1.35-2.98,2.03-.47.41-3.73,3.47-3.33,3.91,2.44-1.54,4.4-3.79,6.31-5.94Z"/>
  </g>
</svg>