<?xml version="1.0" encoding="UTF-8"?>
<svg id="Layer_3" data-name="Layer 3" xmlns="http://www.w3.org/2000/svg" viewBox="0 0 54.69 56.04">
  <g id="Layer_1" data-name="Layer 1">
    <path d="M35.6,18.69c-.09-2.77,4.1-4.12,4.47-1.28.11.87-1.02,5.6-1.3,6.87-.8,3.61-2.67,7.38-1.9,11.14,1.01,4.9,7.1,1.37,9.12-.95,7.24-8.33,4.22-22.98-5.79-27.62-4.27-1.97-11.84-2.26-16.42-1.29C14.82,7.45,6.11,17.2,5.19,26.35c-1.96,19.6,13.22,28,30.86,23.8,1.3-.31,5.42-2.12,6.06-2.11.95.02,2.73,2.31,2.07,3.16-1.09,1.42-6.36,3.26-8.21,3.7C12.62,60.5-4.91,44.79,1.24,20.91,6.71-.3,41.25-8.77,52.39,11.75c5.92,10.9.25,32.4-14.71,30.31-3.16-.44-3.3-2.24-4.73-4.18-1.1-1.51-1.39.33-2.21,1.03-4.89,4.16-12.4,4.57-15.76-1.63-5.48-10.09,5.89-26.25,17.53-20.5.62.31,2.75,2.18,3.09,1.92ZM19.77,35.63c4.99,3.99,9.95-1.87,11.81-6.29,1.01-2.4,2.47-5.37.32-7.5-4.66-4.63-12.86,2.1-13.38,7.07-.22,2.08.72,3.82.06,5.71.66.08.85.74,1.2,1.02Z"/>
  </g>
</svg>