<?xml version="1.0" encoding="UTF-8"?>
<svg id="Layer_2" data-name="Layer 2" xmlns="http://www.w3.org/2000/svg" viewBox="0 0 53.4 76.98">
  <g id="Layer_1" data-name="Layer 1">
    <g>
      <path d="M46.52,32.66c5.1,1.86,6.32,7.57,6.67,12.46.92,12.81-.64,26.92-15.17,30.55-8.29,2.07-19.2,1.65-27.28-1.11-3.46-1.18-8.5-6.31-9.47-9.84-1.4-5.09-1.91-21.79-.17-26.71,1-2.82,3.37-5.81,6.38-6.44-4.19-9.53-1.23-20.05,6.49-26.75,8.38-7.27,22.16-6.19,29.36,2.23,6.32,7.41,5.85,16.74,3.18,25.6ZM38.32,29.73l3.89.39c3.59-8.83,1.6-19.29-7.28-23.93-3.86-2.02-7.99-2.34-12.2-1.14-11.45,3.27-14.24,14.1-11.16,24.68l3.33-.76c.34-.49-1.05-3.45-1.08-4.28-.15-3.4,1.01-7.98,2.8-10.9,1.94-3.18,3.61-4.18,7.21-5.04,4.52-1.08,8.21-.79,11.89,2.22,5.78,4.71,5.21,12.48,2.59,18.76ZM25.97,11.25c-7.24.97-11.3,11.08-7.18,17.02,2.59.31,5.5.66,8.18.72,1.24.03,7.48.18,8.02-.18,3.69-7.35.95-18.9-9.02-17.56ZM8.35,36.9c-3.06,2.57-3.76,11.08-3.69,14.86.25,13.81,3.81,19.46,18.23,20.32,16.83,1.01,24.9-3.4,24.88-21-.01-8.37-.76-13.95-9.35-17.18-7.32-2.76-23.84-2.23-30.07,3Z"/>
      <path d="M22.69,52.42c-5.24-2.61-4.06-9.96,1-12.24,2.47-1.12,4.05-.72,6.41.55,3.69,1.99,4.25,6.07,2.22,9.56-.49.84-2.34,2.1-2.46,2.7-.42,2.15,2.27,7.41,2.43,9.72.22,3.29-6.91,2.9-9.04,2.7s-3.71-.67-3.43-3.07c.36-3.07,2.17-6.83,2.87-9.91Z"/>
    </g>
  </g>
</svg>