<?xml version="1.0" encoding="UTF-8"?>
<svg id="Layer_3" data-name="Layer 3" xmlns="http://www.w3.org/2000/svg" viewBox="0 0 81.48 51.45">
  <g id="Layer_1" data-name="Layer 1">
    <g>
      <path d="M39.17,50.87c-.04-.9.27-2.06,1.3-2.23l31.94-.75c1.04-.1,4.56-.83,5.2-1.48,1.34-1.37.23-8.16.17-10.2-.27-9.56-.18-19.84-1.1-29.35-.41-4.19-2.8-3.27-6.49-3.33-14.7-.23-30.98.07-45.68,1.28-5.28.44-10.9,1.35-16.17,2.02-1.15,1.64-.03,3.47.02,5.2.2,6.2-.41,12.92-.03,18.97.07,1.06.48,2.06.39,3.14,3.34.51,10.72-2.45,11.49,2.44.36,2.3-.31,3.29-2.55,3.71-2.75.52-8.05.82-10.96.92-5.33.19-5.35-.27-6.1-5.45-1.12-7.74-.44-18.06.37-25.91.34-3.32,2.15-5.36,5.43-6.09,5.04-1.12,12.53-1.93,17.72-2.3C39.66.39,55.37-.53,70.93.36c2.25.13,5.13-.5,7.06.74,3.3,2.14,1.67,6.1,1.81,9.41.47,11.23,2.48,23.33,1.34,34.6-.74,7.34-9.01,5.52-14.31,5.75-8.15.34-16.69.87-24.89.4-.97-.06-1.83-.25-2.77-.39ZM5.08,10.76v5.39c0,.07.4.94.56.93l.2-.94-.75-5.38Z"/>
      <path d="M40.29,21.53l9.31-8.7c2.3-1.44,4.71.11,3.87,2.75l-9.49,8.76c-.1,1.14,6.81,8.12,7.98,9.84,1.32,1.94,3.71,5.61.19,6.84-1.66.58-2.91-.92-3.88-2.03-1.36-1.55-6.48-10-7.43-10.4-.8-.15-.57.36-.55.92.13,2.93,3,12.57-3.37,10.43-2.11-.71-1.05-2.82-1.13-4.07-.04-.59-.33-1.19-.35-1.88-.23-6.64,0-13.35-.28-19.99,7.07-7.28,3.73,6.12,5.13,7.54Z"/>
      <path d="M62.37,17.09l.36,6.67c2.19-1.11,10.74-.47,8.33,3.32-1.83,2.88-5.6.92-8.35,1.31l.05,6.27c.35,1.17,6.45.41,7.93.63,2.87.45,3.59,3.95,1.43,5.1-1.48.79-11.87.66-13.48-.11-.44-.21-.74-.84-.95-1.28l-.55-14.69c1.27-5.92-2.48-11.65,5.78-12.43,2.56-.24,10.52-.48,9.84,3.5-.62,3.65-7.92,1.02-10.39,1.71Z"/>
      <path d="M25.53,40c-.45-.29-1.15-2.02-1.23-2.67-.85-6.94.66-15.55,0-22.67.18-3.2,5.02-4.26,5.56-.71.1,3.75-.48,7.8-.37,11.5.07,2.61,1.47,12.3.42,13.76-.86,1.2-3.17,1.59-4.38.8Z"/>
    </g>
  </g>
</svg>