<?xml version="1.0" encoding="UTF-8"?>
<svg id="Layer_2" data-name="Layer 2" xmlns="http://www.w3.org/2000/svg" viewBox="0 0 53.85 39.33">
  <g id="Layer_1" data-name="Layer 1">
    <path d="M27.19.23l6.71-.23c4.65.87,9.77.02,14.43.8,2.36.39,4.74,1.14,5.06,3.85.67,5.61-.05,11.51-.03,17.08.02,3.93.73,8.04.4,11.92-.29,3.35-1.98,5.09-5.38,5.39-4.82.43-10.01-.47-14.89-.4-9.1.12-18.76,1.23-27.85.4-2.54-.23-3.76-.67-4.81-2.99-1.45-3.22-.57-4.8-.55-7.96.04-6.67-.33-13.88.35-20.46C1.05,3.53,2.92,1.31,7.18.8,13.39.06,20.86.95,27.19.23ZM48.93,4.01H6.96c2.74,2.82,5.72,5.62,8.74,8.16s7.84,6.69,10.97,8.72c.39.25.78.58,1.28.56L48.93,4.01ZM6.34,30.6c1.46-1.37,11.91-10.97,11.74-11.79L4.54,7.08c-1.24-.03-.61,6.58-.63,7.24-.17,5.6-.82,11.43-.63,17.05.02.44.24,1.34.52,1.71,1.29-.45,1.77-1.74,2.55-2.47ZM50.04,8.19l-14.11,11.33,13.93,13.19.58-2.05-.4-22.46ZM4.36,36.04c7.11-.51,14.23-.35,21.37-.36,7-.01,14.57.78,21.54.01.56-.06.92-.04,1.27-.58l-13.84-13.28c-2.27-.97-4.47,3.21-7.9,2.89-1.69-.16-6.06-4.41-6.99-4.22l-15.47,15.54Z"/>
  </g>
</svg>