<?xml version="1.0" encoding="UTF-8"?>
<svg id="Layer_2" data-name="Layer 2" xmlns="http://www.w3.org/2000/svg" viewBox="0 0 48.06 46.08">
  <g id="Layer_1" data-name="Layer 1">
    <path d="M48.06,45.67c-1.32,1.73-10.15-2.48-11.83-3.53-1.57-.98-2.96-2.21-4.35-3.43-9.4,3.03-20.52,1.34-27.64-5.81C-8.26,20.33,9.37-1.31,24.82.06c10.52.93,21.78,6.41,22.84,18.01.55,6.02-1.14,10.6-4.37,15.54.94,4.3,4.85,7.56,4.76,12.05ZM42.14,40.87l-2.98-8.35c6.97-8.13,6.59-21.23-3.82-26.27C26.92,2.18,17.9,1.88,10.75,8.55c-6.6,6.15-9.71,14.83-2.79,22.12,6.47,6.82,16.51,6.71,25.01,4.31,2.28,3.01,5.49,4.99,9.17,5.89Z"/>
  </g>
</svg>