<?xml version="1.0" encoding="UTF-8"?>
<svg id="Layer_2" data-name="Layer 2" xmlns="http://www.w3.org/2000/svg" viewBox="0 0 111.02 52.19">
  <g id="Layer_1" data-name="Layer 1">
    <g>
      <path d="M65.94.49c1.65,1.37,3.33,7.02,4.2,9.18.87.19.59-.11.83-.48,1.03-1.61,3.57-7.74,4.52-8.46.48-.37.84-.45,1.43-.29,3.37.95,2.57,6.87,2.88,9.41.24,2.01,2,10.45.74,11.52-.82.7-2.96.92-3.18-.54l-1.28-12.27c-.85-.21-.61.16-.85.47-1.38,1.77-2.96,7.61-5.64,7.34-1.9-.19-3.94-7.85-4.47-9.67-.73,0-1.95,12.6-2.85,14.23-.59,1.08-2.58,1.01-3.11.28-.89-1.23,2.65-17.49,2.9-20.17.16-1.37,3.2-1.12,3.88-.55Z"/>
      <path d="M91.31,31.4c.14-1.23.51-3.02,1.85-3.38s2.02.92,2.17,1.99c.47,3.46-1.17,8.44.03,12.12-1.02,2.37.32,6.78-.4,8.89-.21.63-1.34,1.06-1.97,1-2.11-.21-4.37-8.33-5.45-10.17l-2.91-5.07-.25,12.57c0,2.91-3.14,3.26-3.47.25-.47-4.37-.46-14.57-.02-18.97.26-2.65,2.34-2.71,3.93-.92,2.52,2.84,3.81,9.53,6.49,12.64.28-3.5-.38-7.53,0-10.96Z"/>
      <path d="M52.95,27.95c11-2.28,10.49,23.49,1.65,24.22-10.62.87-9.92-22.5-1.65-24.22ZM53.7,32.01c-2.69.52-3.45,8.15-3.15,10.44.18,1.42,1.41,5.32,3.07,5.49,3.62.37,3.79-8.93,3.48-11.31-.21-1.62-1.35-5.02-3.41-4.62Z"/>
      <path d="M11.43,46.09l-5.94-.59c-1.65,1.77-1.39,7.66-4.94,6.46-1.43-.49.37-5.46.69-6.63,1.21-4.39,3.41-12.3,5.37-16.18,2.08-4.12,5.02-1.74,6.07,1.77,1.19,4,3.05,13.86,3.24,17.95.09,2-.56,4.19-2.98,2.96-1.13-.57-1.2-4.49-1.5-5.74ZM9.59,32.69c-.6-.72-1.22,1.67-1.29,1.87-.8,2.46-1.38,5.27-2.05,7.79l4.82.37-1.49-10.03Z"/>
      <path d="M67.82,29.07c1.46,1.44-1.16,14.74.67,18.08,1.27,2.31,4.07,1.17,4.52-1.36.25-1.43.39-4.25.47-5.84.11-2.17-.57-9.83.94-10.94.88-.65,1.91-.52,2.61.31s.59,5.8.54,7.29c-.09,2.61-.39,9.02-.92,11.34-.98,4.26-7.16,5.19-10.36,2.88-2.48-1.79-2.14-4.79-2.11-7.55-.59-4.28.29-8.93.47-13.3.17-1.55,2.05-1.37,3.16-.92Z"/>
      <path d="M38.48,27.57c4.29-.61,8.56,4.65,5.5,6.63-2.36,1.53-2.31-2.55-4.43-2.96-4.15,1.89-4.27,14.97-.97,16.5,2.64,1.23,2.21-4.26,5.57-2.6,2.6,3.11-1.9,6.55-5.02,6.53-1.75-.01-4.42-1.74-5.38-3.19-3.13-4.66-2.08-19.93,4.74-20.91Z"/>
      <path d="M29.56,34.83c-.28.28-.82.39-1.22.44-2.25-.17-1.96-6.32-4.64-3.14-2.27,2.7-2.63,11.04-1.04,14.05,2.31,4.39,3.29-.4,4.65-.8,4.59-1.36,2.11,5.92-1.58,6.61-4.93.93-7.37-4.82-7.87-8.8-.64-5.01.68-17.14,8.18-15.6,2.68.55,5.14,5.62,3.52,7.25Z"/>
      <path d="M89.46,8.18c.61.14.75-.2,1.1-.56,1.68-1.73,3.5-6.52,5.59-7.42.41-.18.68-.32,1.1-.02.4.36.94.95.97,1.5.09,2.1-5.17,7.8-6.48,9.75.11,1.76.9,9.11-.15,10.04-5.46,1.43-2.84-7-3.79-9.96-.91-1.72-5.57-8-5.62-9.45-.05-1.23.92-2.24,2.17-1.99,1.62.32,4.45,6.37,5.11,8.11Z"/>
      <path d="M106.32,31.18l-.02,18.8c-.13,2.27-3.26,2.59-3.69.39v-18.82s-4.01-.46-4.01-.46c-.87-1.63-.75-2.93,1.24-3.24,1.23-.19,7.6-.39,8.75-.24.91.12,2.4.85,2.44,1.88.1,2.53-2.99,1.52-4.69,1.68Z"/>
    </g>
  </g>
</svg>