<?xml version="1.0" encoding="UTF-8"?>
<svg id="Layer_3" data-name="Layer 3" xmlns="http://www.w3.org/2000/svg" viewBox="0 0 41.42 43.94">
  <g id="Layer_1" data-name="Layer 1">
    <path d="M28.31,15.3c2.67.71,11.19,2.47,12.59,4.68,2.28,3.6-3.49,3.78-5.78,4.64-1.97.75-3.66,2.03-5.75,2.24,1.08,2.92,1.12,5.99,1.54,9.03.34,2.46,1.7,5.24.6,7.59-1.96,1.97-6.27-3.03-7.53-4.36s-4.09-5.64-5.64-5.88c-1.34-.21-4.55,2.17-5.96,2.81s-7.43,3.35-8.39,3.02c-.45-.16-.61-1.07-1.29-1.14-.17-.39,1.84-5.19,2.21-6,.68-1.49,4.78-8.31,4.77-8.98-.01-.5-.37-.83-.72-1.12C7.09,20.26.34,15.84.03,13.64c-.27-1.88,1.55-2.46,3.14-2.39s4.07.24,5.54.43c2.02.27,3.83,1.03,5.83,1.26,1.73-2.37,6.29-11.6,8.53-12.63,2.71-1.24,3.16,1.51,3.6,3.44.85,3.7.95,7.79,1.64,11.54ZM35.31,21.28c-1.72-2.05-9.35-2.51-10.44-4.26-.62-1-.62-10.71-1.45-11.34-2.26,1.07-5.54,10.41-6.68,10.97-.85.41-3.53-.62-4.75-.83-1.98-.35-4.02-.65-6.02-.85,1.25,1.85,7.91,5.01,8.18,6.89.05.34.03.68-.08,1.01-.9,1.22-6.32,10.5-5.87,11.04,2.25-.89,8.38-5.41,10.5-5.13,2.63.35,7.14,7.04,9.18,8.84l-1.68-12.25c.6-1.46,7.38-3.45,9.11-4.1Z"/>
  </g>
</svg>