<?xml version="1.0" encoding="UTF-8"?>
<svg id="Layer_3" data-name="Layer 3" xmlns="http://www.w3.org/2000/svg" viewBox="0 0 61.04 40.05">
  <g id="Layer_1" data-name="Layer 1">
    <path d="M46.86,17.31c4.25-.29,7.58.25,10.79,3.15,4.63,4.18,4.41,12.06-.06,16.32-3.72,3.56-12.74,2.62-17.62,2.81-9.09.34-20.36,1.05-29.28-.41C-7.72,36.17.01,10.86,16.02,12.84c.69-5.38,5.91-11.15,11.13-12.45,3.44-.86,8.92-.22,12.17,1.25,5.33,2.43,9.47,9.87,7.54,15.67ZM19.66,17.22c-1.23,1.23-2.75-.45-3.83-.63C7.44,15.18-.54,25.41,5.07,32.54c2.33,2.96,5.28,3.48,8.9,3.73,10.7.73,22.28-.1,33.07.35,5.36-.44,10.78-2.55,10.14-8.98-.4-4.1-3.28-6.33-7.17-6.6-1.88-.13-4.61.6-5.92.36-2.3-.42-.67-3.57-.56-5.37C44.44,1.8,25.23-.66,20.31,11c-.26.62-.89,2.21-.89,2.78,0,.85,1.15,2.52.24,3.44Z"/>
  </g>
</svg>