<?xml version="1.0" encoding="UTF-8"?>
<svg id="Layer_3" data-name="Layer 3" xmlns="http://www.w3.org/2000/svg" viewBox="0 0 70.64 70.64">
  <g id="Layer_1" data-name="Layer 1">
    <g>
      <path d="M70.64,35.32c0,19.51-15.81,35.32-35.32,35.32S0,54.83,0,35.32,15.81,0,35.32,0s35.32,15.81,35.32,35.32ZM65.8,35.38c0-16.89-13.69-30.58-30.58-30.58S4.64,18.49,4.64,35.38s13.69,30.58,30.58,30.58,30.58-13.69,30.58-30.58Z"/>
      <path d="M33.09,19.69c5.74-2.01,3.7,3.96,3.7,7.22,0,1.17.11,4.14.38,5.14.1.38,2.13,1.04,2.53,3.16.11.56-.24,1.19-.09,1.58.33.91,7.84,4.83,9.42,6.14,1.02.85,2.6,2.31.69,3.22-1.67.79-3.38-.5-4.85-1.28-1.92-1.02-5.32-4-6.96-4.57-.66-.23-2.63.37-3.86.17-2.4-.4-3.87-3.04-3.53-5.34.24-1.62,2.59-2.86,2.59-4.11v-11.33Z"/>
      <path d="M14.95,34.55c.2.03.57.4.89.41.31,3.93-5.7,2.05-8.1,1.78-.38-.57.44-2.2.89-2.2,1.81,0,4.69-.27,6.31,0Z"/>
      <path d="M35.06,55.74c.57-.16,1.19.23,1.43.72.72,1.48.79,8.13-1.89,5.97-.89-.72-.87-6.31.46-6.69Z"/>
      <path d="M62.59,36.68c-.6.58-7.23,1.43-6.62-1.54.25-1.19,9.45-1.18,6.62,1.54Z"/>
      <path d="M35.05,8.57c3.01-.98,2.19,5.44.69,6.66-.55.12-1.61-1.11-1.66-1.68-.06-.68.46-4.81.97-4.98Z"/>
      <path d="M54.04,46.86c1.41-.39,5.48,2.52,4.4,4.05s-7.85-3.09-4.4-4.05Z"/>
      <path d="M11.46,20.47c.96-1.37,6.68,1.86,5.37,3.7-.93,1.31-6.47-2.14-5.37-3.7Z"/>
      <path d="M58.37,21.23v1c-1.91.86-3.17,3.26-5.5,3.03-.99-1.67,2.42-4.51,3.62-4.78.72-.16,1.26.54,1.88.75Z"/>
      <path d="M50.76,12.66c1.12.67-2.54,6.1-4.07,5s2.18-6.13,4.07-5Z"/>
      <path d="M49.59,59.34l-1.38.3c-1.38-1.36-2.98-2.46-2.61-4.66,2.05-.87,5.62,2.69,3.99,4.36Z"/>
      <path d="M15.03,46.84c.2-.05.4-.08.6,0l.82.71c.99,1.78-3.35,4.43-4.66,3.54-1.54-.88,2.95-4.17,3.24-4.24Z"/>
      <path d="M22.82,54.64c.54-.14.93.11,1.26.5.98.67-1.55,3.95-2.05,4.32-.81.6-2.14.66-1.8-.67.22-.88,1.76-3.93,2.59-4.14Z"/>
      <path d="M22.81,12.78c.67.38,2.37,2.73,1.82,3.56l-.83.71c-1.04.27-4.97-3.58-2.36-4.59.42-.16.99.11,1.37.32Z"/>
    </g>
  </g>
</svg>