<?xml version="1.0" encoding="UTF-8"?>
<svg id="Layer_2" data-name="Layer 2" xmlns="http://www.w3.org/2000/svg" viewBox="0 0 75.03 98.26">
  <g id="Layer_1" data-name="Layer 1">
    <g>
      <path d="M35.13,58.89c-.2,1.33-.98,2.92-2.43,3.12-3.53.49-8.87,0-12.62.02-2.06,0-5.69,1.11-6.41-2.1-.25-1.13-.37-4.44-.45-5.87-.21-4.18.09-8.45.01-12.64-.04-2-.56-3.92-.01-6.11-2.46-.07-10.02,1.6-9.88-2.42L37,.2c3.13-1.42,7.88,5.06,10.01,7.06,6.2,5.8,12.78,11.26,18.95,17.08,1.45,1.36,6.25,5.82,6.87,7.25,2.66,6.16-7.65,3.26-10.58,3.71.9,2.93.11,6.17.12,9.1.02,4.4.61,8.96.27,13.39-.31,4.03-1.08,4.36-5.01,4.64-2.73.19-13.87.32-15.63-1.12-.36-.29-.59-.69-.74-1.12-.98-5.88.11-12.21.19-18.21l-6.32-.37v17.27ZM64.38,30.1L37.86,5.23,12.39,29.92c-.14.92.33.43.83.44,1.34.02,3.35-.36,4.39.65,1.34,2.72.36,6.5.33,9.69-.01,1.27.33,2.72.33,4.02-.51,1.55-.04,12.76.46,13.19l11.11-.33c.38-3.51-.87-16.47,1.14-18.74.99-1.11,4.24-1.37,5.75-1.35s4.44.25,5.84.48c.88.14,2.22.65,2.6,1.49l.27,18.11,12.26.74c-.02-3.9.01-7.81.01-11.72,0-1.87-.02-3.66,0-5.54s-.45-9.19.55-10.22c1.17-1.21,4.53-.6,6.12-.75Z"/>
      <path d="M56.88,97.59c-.75.64-2.21.25-2.77-.35-1.48-1.59-.51-13.02-1.21-15.88-2.19,1.97-1.94,5.93-5.38,6.72-2.58,0-3.19-5.44-5.01-6.72-.59,2.97.37,13.29-.75,15.32-.49.89-3.21.87-3.75.03-1.81-2.85,1.35-18.09.78-22.21,3.87-6.73,7.27,5.81,8.73,6.11.5.12.63-.28.87-.61,1.38-1.9,4.1-10.6,7.29-6.04.41.58.76,2.75.89,3.54.65,4,1.05,9.62,1.17,13.68.05,1.64.36,5.35-.87,6.4Z"/>
      <path d="M5.01,82.46l6.69-.37v-8.36c0-1.52,4.45-3.86,4.86.35l-.48,21.85c-.32,2.23-4.07,1.71-4.61-.1-.25-.82.23-1.1.23-1.3v-7.43l-.56-.48c-.15-.01-.28.29-.37.29h-5.76v9.1c0,.16-.99,1.86-1.36,1.98C-.14,99.28.08,95.58.02,93.04c-.08-3.03.15-6.28.18-9.27.03-2.58-.49-8.56.15-10.62.78-2.52,4.67-1.95,4.67-.17v9.47Z"/>
      <path d="M65.61,75.39l.74,6.32c2.1.24,7.29-1.03,7.47,2.04.2,3.52-5.23,2.82-7.47,2.41v6.31c2.41.34,10.37-1.42,8.35,3.34-.91,2.14-4.4,1.44-6.3,1.5-.72.02-1.4.39-2.22.38-.46,0-2.88-.34-3.29-.46-.91-.27-1.29-1.48-1.38-2.33-.6-5.18-.37-14.18-.39-19.69-.01-3.53,2.47-4.08,5.4-4.29,1.65-.12,6.14-.27,7.28.55,1.83,1.32.83,3.92-.21,3.92h-7.99Z"/>
      <path d="M25.32,72.9c10.1-2.07,12.09,13.51,8.28,19.8-1.87,3.09-4.86,4.99-8.58,4.1-2.61-.63-5.6-6.82-5.88-9.35-.44-4.03,1.36-13.56,6.17-14.55ZM25.52,78.12c-1.93,2.28-2.98,12.62.61,13.85,5.59,1.9,4.99-10.28,3.64-13.3-.86-1.94-2.95-2.08-4.25-.55Z"/>
    </g>
  </g>
</svg>