<?xml version="1.0" encoding="UTF-8"?>
<svg id="Layer_2" data-name="Layer 2" xmlns="http://www.w3.org/2000/svg" viewBox="0 0 82.49 65.38">
  <g id="Layer_1" data-name="Layer 1">
    <g>
      <path d="M70.15,19.62c8.67-1.01,13.39,7.48,12.14,15.31-2.33,14.57-20.76,15.01-32.19,14.97-3.11,3.05-5.48,6.52-8.73,9.47-2.26,2.06-4.91,3.75-7.14,5.86-1.45.24-2.68.4-2.88-1.35l1.28-15.28c-8.63-.59-25.9,2.67-31.14-6.18-3.99-6.74.5-19.1,8.32-21.29C9.71,8.33,19.55,1.75,31.34.69c2.28-.2,4.77.15,7.07.01,7.52-.46,14.37-1.8,21.82,1.17,6.32,2.52,12.06,10.83,9.92,17.75ZM39.56,56.16c2.74-2.77,5.44-6.32,7.93-9.34,9.55-1.11,23.88,1.15,29.66-8.6,3.08-5.2,1.38-14.69-5.42-15.65-2.03-.29-4.22,1.73-5.13.29-.19-.31.71-5.5.6-6.89-.71-8.54-9.05-12.38-16.53-12.81-6.35-.36-24.28.58-29.64,3.44-3.88,2.07-10,11.29-7.36,15.85-3.83,1.7-6.2,2.95-8.29,6.76-5.15,9.42-.69,15.18,9.25,16.3l20.74.05.61.88-.74,13.18c.64.17.74-.27,1.11-.55.78-.6,2.49-2.19,3.21-2.92Z"/>
      <path d="M26.82,23.47c3.91-3.76,8.87,3.17,3.7,6.15-3.44,1.98-7.5-2.5-3.7-6.15Z"/>
      <path d="M57.41,28.44c-1.58,1.9-5.76,1.44-6.18-1.22-1.35-8.43,10.34-3.78,6.18,1.22Z"/>
      <path d="M44.04,23.45c1.78,1.42,1.07,6.35-1.94,6.61-4.96.42-4.33-6.89-1.04-7.39.57-.09,2.53.43,2.98.78Z"/>
    </g>
  </g>
</svg>