<?xml version="1.0" encoding="UTF-8"?>
<svg id="Layer_2" data-name="Layer 2" xmlns="http://www.w3.org/2000/svg" viewBox="0 0 62.75 55.55">
  <g id="Layer_1" data-name="Layer 1">
    <path d="M55.92,4.26c-1.5,6.47-3.21,12.9-5.05,19.27-1.76,6.06-3.87,14.87-6.31,20.43-.76,1.72-2.17,1.88-3.9,1.86-.28,1.01.65.63,1.05,1.35,1.2,2.15.26,6.32-2.06,7.48-6.24,3.12-11.31-3.82-5.67-8.46-2.09-.75-4.26-.04-6.13-.08-3.69-.09-7.65-.84-11.33.08.34.61.69.41,1.07,1.32,1.41,3.39.18,7.49-3.85,7.97-6.75.81-8.34-5.35-3.92-9.48-1.03-.73-2.72-1.81-1.1-2.97l31.71-.54,1.34-4.11c-2.89-.5-5.7-.07-8.56-.12-6.61-.13-13.37-.34-19.85-.62-3.61-.15-6.85.93-8.17-3.34C3.55,29.07.15,14.59,0,9.47c-.05-1.87.68-2.82,2.57-3.03,6.49-.75,15.61-.61,22.28-.75,8.41-.17,16.86.11,25.25-.02,2.33-.07,1.69-4.51,3.56-5.34,1.07-.48,8.38-.58,8.85.8,1.7,4.98-5.93,2.56-6.59,3.13ZM33.22,9.49c-4.24-.08-8.36.63-12.59.04l-.26,5.91,12.06.32.78-6.27ZM36.19,15.89h13l1.49-6.31c-4.71.58-9.39.24-14.12,0l-.37,6.32ZM16.7,9.94H4.07s1.04,5.2,1.04,5.2l11.24.04c.62-.46-.04-1.12.02-1.78.09-1.1.58-2.25.33-3.47ZM7.22,25.93h10.03l-.37-7.06c-1.17-.04-2.35.06-3.53,0-2.09-.11-4.19-.32-6.31-.39-.76-.02-1.33-.3-1.32.58.03,2.33,1.12,4.62,1.5,6.87ZM32.04,18.87l-11.46.04-.05,7.01,10.77.74.74-7.8ZM48.08,19.24h-10.59c-.14,0-.52-.49-1.05-.34-1.43.39-1.01,5.95-1.37,7.4,1.66.22,10.32.89,10.97.01l2.03-7.07ZM17.63,34.11l-.43-4.59-.5-.62H7.96c.46,1.69.53,3.89,1.67,5.2h7.99ZM20.96,34.11h9.47c.11,0,.23.36.37.36.91-.53.15-.89.22-1.61.1-1.03.58-2.07.34-3.21l-10.4-.37v4.83ZM44.73,29.92l-10.03-.38-.37,4.83,8.68.32c.68-.23,1.33-3.86,1.72-4.78ZM35.9,51.75c2.17,1.27,4.69-2.44,1.88-3.2-2.2-.6-3.26,2.39-1.88,3.2ZM14.48,50.46c0-.84-.68-1.53-1.53-1.53s-1.53.68-1.53,1.53.68,1.53,1.53,1.53,1.53-.68,1.53-1.53Z"/>
  </g>
</svg>